%TF.GenerationSoftware,KiCad,Pcbnew,(6.99.0-5157-g987eb4b46a-dirty)*%
%TF.CreationDate,2022-12-28T16:32:46-05:00*%
%TF.ProjectId,controller,636f6e74-726f-46c6-9c65-722e6b696361,rev?*%
%TF.SameCoordinates,PX3cfccb0PYa197300*%
%TF.FileFunction,Legend,Bot*%
%TF.FilePolarity,Positive*%
%FSLAX46Y46*%
G04 Gerber Fmt 4.6, Leading zero omitted, Abs format (unit mm)*
G04 Created by KiCad (PCBNEW (6.99.0-5157-g987eb4b46a-dirty)) date 2022-12-28 16:32:46*
%MOMM*%
%LPD*%
G01*
G04 APERTURE LIST*
%ADD10C,0.150000*%
%ADD11C,0.120000*%
G04 APERTURE END LIST*
D10*
X51314564Y30405215D02*
X51314564Y29909977D01*
X51314564Y29909977D02*
X51619326Y30176643D01*
X51619326Y30176643D02*
X51619326Y30062358D01*
X51619326Y30062358D02*
X51657421Y29986167D01*
X51657421Y29986167D02*
X51695517Y29948072D01*
X51695517Y29948072D02*
X51771707Y29909977D01*
X51771707Y29909977D02*
X51962183Y29909977D01*
X51962183Y29909977D02*
X52038374Y29948072D01*
X52038374Y29948072D02*
X52076469Y29986167D01*
X52076469Y29986167D02*
X52114564Y30062358D01*
X52114564Y30062358D02*
X52114564Y30290929D01*
X52114564Y30290929D02*
X52076469Y30367120D01*
X52076469Y30367120D02*
X52038374Y30405215D01*
X52038374Y29567119D02*
X52076469Y29529024D01*
X52076469Y29529024D02*
X52114564Y29567119D01*
X52114564Y29567119D02*
X52076469Y29605215D01*
X52076469Y29605215D02*
X52038374Y29567119D01*
X52038374Y29567119D02*
X52114564Y29567119D01*
X51314564Y29262358D02*
X51314564Y28767120D01*
X51314564Y28767120D02*
X51619326Y29033786D01*
X51619326Y29033786D02*
X51619326Y28919501D01*
X51619326Y28919501D02*
X51657421Y28843310D01*
X51657421Y28843310D02*
X51695517Y28805215D01*
X51695517Y28805215D02*
X51771707Y28767120D01*
X51771707Y28767120D02*
X51962183Y28767120D01*
X51962183Y28767120D02*
X52038374Y28805215D01*
X52038374Y28805215D02*
X52076469Y28843310D01*
X52076469Y28843310D02*
X52114564Y28919501D01*
X52114564Y28919501D02*
X52114564Y29148072D01*
X52114564Y29148072D02*
X52076469Y29224263D01*
X52076469Y29224263D02*
X52038374Y29262358D01*
X51314564Y28538548D02*
X52114564Y28271881D01*
X52114564Y28271881D02*
X51314564Y28005215D01*
X50205296Y35351800D02*
X50281486Y35389896D01*
X50281486Y35389896D02*
X50395772Y35389896D01*
X50395772Y35389896D02*
X50510058Y35351800D01*
X50510058Y35351800D02*
X50586248Y35275610D01*
X50586248Y35275610D02*
X50624343Y35199420D01*
X50624343Y35199420D02*
X50662439Y35047039D01*
X50662439Y35047039D02*
X50662439Y34932753D01*
X50662439Y34932753D02*
X50624343Y34780372D01*
X50624343Y34780372D02*
X50586248Y34704181D01*
X50586248Y34704181D02*
X50510058Y34627991D01*
X50510058Y34627991D02*
X50395772Y34589896D01*
X50395772Y34589896D02*
X50319581Y34589896D01*
X50319581Y34589896D02*
X50205296Y34627991D01*
X50205296Y34627991D02*
X50167200Y34666086D01*
X50167200Y34666086D02*
X50167200Y34932753D01*
X50167200Y34932753D02*
X50319581Y34932753D01*
X49824343Y34589896D02*
X49824343Y35389896D01*
X49824343Y35389896D02*
X49519581Y35389896D01*
X49519581Y35389896D02*
X49443391Y35351800D01*
X49443391Y35351800D02*
X49405296Y35313705D01*
X49405296Y35313705D02*
X49367200Y35237515D01*
X49367200Y35237515D02*
X49367200Y35123229D01*
X49367200Y35123229D02*
X49405296Y35047039D01*
X49405296Y35047039D02*
X49443391Y35008943D01*
X49443391Y35008943D02*
X49519581Y34970848D01*
X49519581Y34970848D02*
X49824343Y34970848D01*
X49024343Y34589896D02*
X49024343Y35389896D01*
X48491010Y35389896D02*
X48338629Y35389896D01*
X48338629Y35389896D02*
X48262439Y35351800D01*
X48262439Y35351800D02*
X48186248Y35275610D01*
X48186248Y35275610D02*
X48148153Y35123229D01*
X48148153Y35123229D02*
X48148153Y34856562D01*
X48148153Y34856562D02*
X48186248Y34704181D01*
X48186248Y34704181D02*
X48262439Y34627991D01*
X48262439Y34627991D02*
X48338629Y34589896D01*
X48338629Y34589896D02*
X48491010Y34589896D01*
X48491010Y34589896D02*
X48567201Y34627991D01*
X48567201Y34627991D02*
X48643391Y34704181D01*
X48643391Y34704181D02*
X48681487Y34856562D01*
X48681487Y34856562D02*
X48681487Y35123229D01*
X48681487Y35123229D02*
X48643391Y35275610D01*
X48643391Y35275610D02*
X48567201Y35351800D01*
X48567201Y35351800D02*
X48491010Y35389896D01*
X50624343Y33712943D02*
X50357677Y33712943D01*
X50243391Y33293896D02*
X50624343Y33293896D01*
X50624343Y33293896D02*
X50624343Y34093896D01*
X50624343Y34093896D02*
X50243391Y34093896D01*
X49976724Y34093896D02*
X49443390Y33293896D01*
X49443390Y34093896D02*
X49976724Y33293896D01*
X49138628Y33293896D02*
X49138628Y34093896D01*
X49138628Y34093896D02*
X48833866Y34093896D01*
X48833866Y34093896D02*
X48757676Y34055800D01*
X48757676Y34055800D02*
X48719581Y34017705D01*
X48719581Y34017705D02*
X48681485Y33941515D01*
X48681485Y33941515D02*
X48681485Y33827229D01*
X48681485Y33827229D02*
X48719581Y33751039D01*
X48719581Y33751039D02*
X48757676Y33712943D01*
X48757676Y33712943D02*
X48833866Y33674848D01*
X48833866Y33674848D02*
X49138628Y33674848D01*
X48376724Y33522467D02*
X47995771Y33522467D01*
X48452914Y33293896D02*
X48186247Y34093896D01*
X48186247Y34093896D02*
X47919581Y33293896D01*
X47652914Y33293896D02*
X47652914Y34093896D01*
X47652914Y34093896D02*
X47195771Y33293896D01*
X47195771Y33293896D02*
X47195771Y34093896D01*
X46852915Y33331991D02*
X46738629Y33293896D01*
X46738629Y33293896D02*
X46548153Y33293896D01*
X46548153Y33293896D02*
X46471962Y33331991D01*
X46471962Y33331991D02*
X46433867Y33370086D01*
X46433867Y33370086D02*
X46395772Y33446277D01*
X46395772Y33446277D02*
X46395772Y33522467D01*
X46395772Y33522467D02*
X46433867Y33598658D01*
X46433867Y33598658D02*
X46471962Y33636753D01*
X46471962Y33636753D02*
X46548153Y33674848D01*
X46548153Y33674848D02*
X46700534Y33712943D01*
X46700534Y33712943D02*
X46776724Y33751039D01*
X46776724Y33751039D02*
X46814819Y33789134D01*
X46814819Y33789134D02*
X46852915Y33865324D01*
X46852915Y33865324D02*
X46852915Y33941515D01*
X46852915Y33941515D02*
X46814819Y34017705D01*
X46814819Y34017705D02*
X46776724Y34055800D01*
X46776724Y34055800D02*
X46700534Y34093896D01*
X46700534Y34093896D02*
X46510057Y34093896D01*
X46510057Y34093896D02*
X46395772Y34055800D01*
X46052914Y33293896D02*
X46052914Y34093896D01*
X45519581Y34093896D02*
X45367200Y34093896D01*
X45367200Y34093896D02*
X45291010Y34055800D01*
X45291010Y34055800D02*
X45214819Y33979610D01*
X45214819Y33979610D02*
X45176724Y33827229D01*
X45176724Y33827229D02*
X45176724Y33560562D01*
X45176724Y33560562D02*
X45214819Y33408181D01*
X45214819Y33408181D02*
X45291010Y33331991D01*
X45291010Y33331991D02*
X45367200Y33293896D01*
X45367200Y33293896D02*
X45519581Y33293896D01*
X45519581Y33293896D02*
X45595772Y33331991D01*
X45595772Y33331991D02*
X45671962Y33408181D01*
X45671962Y33408181D02*
X45710058Y33560562D01*
X45710058Y33560562D02*
X45710058Y33827229D01*
X45710058Y33827229D02*
X45671962Y33979610D01*
X45671962Y33979610D02*
X45595772Y34055800D01*
X45595772Y34055800D02*
X45519581Y34093896D01*
X44833867Y33293896D02*
X44833867Y34093896D01*
X44833867Y34093896D02*
X44376724Y33293896D01*
X44376724Y33293896D02*
X44376724Y34093896D01*
D11*
X23847640Y26953620D02*
X25092240Y27382880D01*
X26537500Y27547980D02*
X27782100Y27977240D01*
D10*
X27070217Y29331084D02*
X27070217Y29064418D01*
X27489264Y28950132D02*
X27489264Y29331084D01*
X27489264Y29331084D02*
X26689264Y29331084D01*
X26689264Y29331084D02*
X26689264Y28950132D01*
X27489264Y28607274D02*
X26689264Y28607274D01*
X26689264Y28607274D02*
X27489264Y28150131D01*
X27489264Y28150131D02*
X26689264Y28150131D01*
X24014644Y29600310D02*
X24014644Y29143167D01*
X24814644Y29371739D02*
X24014644Y29371739D01*
X24814644Y28419357D02*
X24433692Y28686024D01*
X24814644Y28876500D02*
X24014644Y28876500D01*
X24014644Y28876500D02*
X24014644Y28571738D01*
X24014644Y28571738D02*
X24052740Y28495548D01*
X24052740Y28495548D02*
X24090835Y28457453D01*
X24090835Y28457453D02*
X24167025Y28419357D01*
X24167025Y28419357D02*
X24281311Y28419357D01*
X24281311Y28419357D02*
X24357501Y28457453D01*
X24357501Y28457453D02*
X24395597Y28495548D01*
X24395597Y28495548D02*
X24433692Y28571738D01*
X24433692Y28571738D02*
X24433692Y28876500D01*
X24052740Y27657453D02*
X24014644Y27733643D01*
X24014644Y27733643D02*
X24014644Y27847929D01*
X24014644Y27847929D02*
X24052740Y27962215D01*
X24052740Y27962215D02*
X24128930Y28038405D01*
X24128930Y28038405D02*
X24205120Y28076500D01*
X24205120Y28076500D02*
X24357501Y28114596D01*
X24357501Y28114596D02*
X24471787Y28114596D01*
X24471787Y28114596D02*
X24624168Y28076500D01*
X24624168Y28076500D02*
X24700359Y28038405D01*
X24700359Y28038405D02*
X24776549Y27962215D01*
X24776549Y27962215D02*
X24814644Y27847929D01*
X24814644Y27847929D02*
X24814644Y27771738D01*
X24814644Y27771738D02*
X24776549Y27657453D01*
X24776549Y27657453D02*
X24738454Y27619357D01*
X24738454Y27619357D02*
X24471787Y27619357D01*
X24471787Y27619357D02*
X24471787Y27771738D01*
X29015900Y28845997D02*
X28977804Y28922187D01*
X28977804Y28922187D02*
X28977804Y29036473D01*
X28977804Y29036473D02*
X29015900Y29150759D01*
X29015900Y29150759D02*
X29092090Y29226949D01*
X29092090Y29226949D02*
X29168280Y29265044D01*
X29168280Y29265044D02*
X29320661Y29303140D01*
X29320661Y29303140D02*
X29434947Y29303140D01*
X29434947Y29303140D02*
X29587328Y29265044D01*
X29587328Y29265044D02*
X29663519Y29226949D01*
X29663519Y29226949D02*
X29739709Y29150759D01*
X29739709Y29150759D02*
X29777804Y29036473D01*
X29777804Y29036473D02*
X29777804Y28960282D01*
X29777804Y28960282D02*
X29739709Y28845997D01*
X29739709Y28845997D02*
X29701614Y28807901D01*
X29701614Y28807901D02*
X29434947Y28807901D01*
X29434947Y28807901D02*
X29434947Y28960282D01*
X29777804Y28465044D02*
X28977804Y28465044D01*
X28977804Y28465044D02*
X29777804Y28007901D01*
X29777804Y28007901D02*
X28977804Y28007901D01*
X29777804Y27626949D02*
X28977804Y27626949D01*
X28977804Y27626949D02*
X28977804Y27436473D01*
X28977804Y27436473D02*
X29015900Y27322187D01*
X29015900Y27322187D02*
X29092090Y27245997D01*
X29092090Y27245997D02*
X29168280Y27207902D01*
X29168280Y27207902D02*
X29320661Y27169806D01*
X29320661Y27169806D02*
X29434947Y27169806D01*
X29434947Y27169806D02*
X29587328Y27207902D01*
X29587328Y27207902D02*
X29663519Y27245997D01*
X29663519Y27245997D02*
X29739709Y27322187D01*
X29739709Y27322187D02*
X29777804Y27436473D01*
X29777804Y27436473D02*
X29777804Y27626949D01*
X21632124Y28980612D02*
X21632124Y29361564D01*
X21632124Y29361564D02*
X22013077Y29399660D01*
X22013077Y29399660D02*
X21974981Y29361564D01*
X21974981Y29361564D02*
X21936886Y29285374D01*
X21936886Y29285374D02*
X21936886Y29094898D01*
X21936886Y29094898D02*
X21974981Y29018707D01*
X21974981Y29018707D02*
X22013077Y28980612D01*
X22013077Y28980612D02*
X22089267Y28942517D01*
X22089267Y28942517D02*
X22279743Y28942517D01*
X22279743Y28942517D02*
X22355934Y28980612D01*
X22355934Y28980612D02*
X22394029Y29018707D01*
X22394029Y29018707D02*
X22432124Y29094898D01*
X22432124Y29094898D02*
X22432124Y29285374D01*
X22432124Y29285374D02*
X22394029Y29361564D01*
X22394029Y29361564D02*
X22355934Y29399660D01*
X21632124Y28713945D02*
X22432124Y28447278D01*
X22432124Y28447278D02*
X21632124Y28180612D01*
X24814644Y26676784D02*
X24014644Y26676784D01*
X24014644Y26676784D02*
X24014644Y26372022D01*
X24014644Y26372022D02*
X24052740Y26295832D01*
X24052740Y26295832D02*
X24090835Y26257737D01*
X24090835Y26257737D02*
X24167025Y26219641D01*
X24167025Y26219641D02*
X24281311Y26219641D01*
X24281311Y26219641D02*
X24357501Y26257737D01*
X24357501Y26257737D02*
X24395597Y26295832D01*
X24395597Y26295832D02*
X24433692Y26372022D01*
X24433692Y26372022D02*
X24433692Y26676784D01*
X24395597Y25610118D02*
X24433692Y25495832D01*
X24433692Y25495832D02*
X24471787Y25457737D01*
X24471787Y25457737D02*
X24547978Y25419641D01*
X24547978Y25419641D02*
X24662263Y25419641D01*
X24662263Y25419641D02*
X24738454Y25457737D01*
X24738454Y25457737D02*
X24776549Y25495832D01*
X24776549Y25495832D02*
X24814644Y25572022D01*
X24814644Y25572022D02*
X24814644Y25876784D01*
X24814644Y25876784D02*
X24014644Y25876784D01*
X24014644Y25876784D02*
X24014644Y25610118D01*
X24014644Y25610118D02*
X24052740Y25533927D01*
X24052740Y25533927D02*
X24090835Y25495832D01*
X24090835Y25495832D02*
X24167025Y25457737D01*
X24167025Y25457737D02*
X24243216Y25457737D01*
X24243216Y25457737D02*
X24319406Y25495832D01*
X24319406Y25495832D02*
X24357501Y25533927D01*
X24357501Y25533927D02*
X24395597Y25610118D01*
X24395597Y25610118D02*
X24395597Y25876784D01*
X24014644Y24695832D02*
X24014644Y25076784D01*
X24014644Y25076784D02*
X24395597Y25114880D01*
X24395597Y25114880D02*
X24357501Y25076784D01*
X24357501Y25076784D02*
X24319406Y25000594D01*
X24319406Y25000594D02*
X24319406Y24810118D01*
X24319406Y24810118D02*
X24357501Y24733927D01*
X24357501Y24733927D02*
X24395597Y24695832D01*
X24395597Y24695832D02*
X24471787Y24657737D01*
X24471787Y24657737D02*
X24662263Y24657737D01*
X24662263Y24657737D02*
X24738454Y24695832D01*
X24738454Y24695832D02*
X24776549Y24733927D01*
X24776549Y24733927D02*
X24814644Y24810118D01*
X24814644Y24810118D02*
X24814644Y25000594D01*
X24814644Y25000594D02*
X24776549Y25076784D01*
X24776549Y25076784D02*
X24738454Y25114880D01*
X27489264Y27200024D02*
X26689264Y27200024D01*
X26689264Y27200024D02*
X26689264Y26895262D01*
X26689264Y26895262D02*
X26727360Y26819072D01*
X26727360Y26819072D02*
X26765455Y26780977D01*
X26765455Y26780977D02*
X26841645Y26742881D01*
X26841645Y26742881D02*
X26955931Y26742881D01*
X26955931Y26742881D02*
X27032121Y26780977D01*
X27032121Y26780977D02*
X27070217Y26819072D01*
X27070217Y26819072D02*
X27108312Y26895262D01*
X27108312Y26895262D02*
X27108312Y27200024D01*
X27413074Y25942881D02*
X27451169Y25980977D01*
X27451169Y25980977D02*
X27489264Y26095262D01*
X27489264Y26095262D02*
X27489264Y26171453D01*
X27489264Y26171453D02*
X27451169Y26285739D01*
X27451169Y26285739D02*
X27374979Y26361929D01*
X27374979Y26361929D02*
X27298788Y26400024D01*
X27298788Y26400024D02*
X27146407Y26438120D01*
X27146407Y26438120D02*
X27032121Y26438120D01*
X27032121Y26438120D02*
X26879740Y26400024D01*
X26879740Y26400024D02*
X26803550Y26361929D01*
X26803550Y26361929D02*
X26727360Y26285739D01*
X26727360Y26285739D02*
X26689264Y26171453D01*
X26689264Y26171453D02*
X26689264Y26095262D01*
X26689264Y26095262D02*
X26727360Y25980977D01*
X26727360Y25980977D02*
X26765455Y25942881D01*
X27489264Y25180977D02*
X27489264Y25638120D01*
X27489264Y25409548D02*
X26689264Y25409548D01*
X26689264Y25409548D02*
X26803550Y25485739D01*
X26803550Y25485739D02*
X26879740Y25561929D01*
X26879740Y25561929D02*
X26917836Y25638120D01*
X26689264Y24914310D02*
X26689264Y24419072D01*
X26689264Y24419072D02*
X26994026Y24685738D01*
X26994026Y24685738D02*
X26994026Y24571453D01*
X26994026Y24571453D02*
X27032121Y24495262D01*
X27032121Y24495262D02*
X27070217Y24457167D01*
X27070217Y24457167D02*
X27146407Y24419072D01*
X27146407Y24419072D02*
X27336883Y24419072D01*
X27336883Y24419072D02*
X27413074Y24457167D01*
X27413074Y24457167D02*
X27451169Y24495262D01*
X27451169Y24495262D02*
X27489264Y24571453D01*
X27489264Y24571453D02*
X27489264Y24800024D01*
X27489264Y24800024D02*
X27451169Y24876215D01*
X27451169Y24876215D02*
X27413074Y24914310D01*
X54334624Y28635081D02*
X54334624Y29016033D01*
X54334624Y29016033D02*
X54715577Y29054129D01*
X54715577Y29054129D02*
X54677481Y29016033D01*
X54677481Y29016033D02*
X54639386Y28939843D01*
X54639386Y28939843D02*
X54639386Y28749367D01*
X54639386Y28749367D02*
X54677481Y28673176D01*
X54677481Y28673176D02*
X54715577Y28635081D01*
X54715577Y28635081D02*
X54791767Y28596986D01*
X54791767Y28596986D02*
X54982243Y28596986D01*
X54982243Y28596986D02*
X55058434Y28635081D01*
X55058434Y28635081D02*
X55096529Y28673176D01*
X55096529Y28673176D02*
X55134624Y28749367D01*
X55134624Y28749367D02*
X55134624Y28939843D01*
X55134624Y28939843D02*
X55096529Y29016033D01*
X55096529Y29016033D02*
X55058434Y29054129D01*
X54334624Y28368414D02*
X55134624Y28101747D01*
X55134624Y28101747D02*
X54334624Y27835081D01*
X58157320Y28675664D02*
X58119224Y28751854D01*
X58119224Y28751854D02*
X58119224Y28866140D01*
X58119224Y28866140D02*
X58157320Y28980426D01*
X58157320Y28980426D02*
X58233510Y29056616D01*
X58233510Y29056616D02*
X58309700Y29094711D01*
X58309700Y29094711D02*
X58462081Y29132807D01*
X58462081Y29132807D02*
X58576367Y29132807D01*
X58576367Y29132807D02*
X58728748Y29094711D01*
X58728748Y29094711D02*
X58804939Y29056616D01*
X58804939Y29056616D02*
X58881129Y28980426D01*
X58881129Y28980426D02*
X58919224Y28866140D01*
X58919224Y28866140D02*
X58919224Y28789949D01*
X58919224Y28789949D02*
X58881129Y28675664D01*
X58881129Y28675664D02*
X58843034Y28637568D01*
X58843034Y28637568D02*
X58576367Y28637568D01*
X58576367Y28637568D02*
X58576367Y28789949D01*
X58919224Y28294711D02*
X58119224Y28294711D01*
X58119224Y28294711D02*
X58919224Y27837568D01*
X58919224Y27837568D02*
X58119224Y27837568D01*
X58919224Y27456616D02*
X58119224Y27456616D01*
X58119224Y27456616D02*
X58119224Y27266140D01*
X58119224Y27266140D02*
X58157320Y27151854D01*
X58157320Y27151854D02*
X58233510Y27075664D01*
X58233510Y27075664D02*
X58309700Y27037569D01*
X58309700Y27037569D02*
X58462081Y26999473D01*
X58462081Y26999473D02*
X58576367Y26999473D01*
X58576367Y26999473D02*
X58728748Y27037569D01*
X58728748Y27037569D02*
X58804939Y27075664D01*
X58804939Y27075664D02*
X58881129Y27151854D01*
X58881129Y27151854D02*
X58919224Y27266140D01*
X58919224Y27266140D02*
X58919224Y27456616D01*
X57123444Y29090942D02*
X56323444Y29090942D01*
X56323444Y29090942D02*
X56323444Y28900466D01*
X56323444Y28900466D02*
X56361540Y28786180D01*
X56361540Y28786180D02*
X56437730Y28709990D01*
X56437730Y28709990D02*
X56513920Y28671895D01*
X56513920Y28671895D02*
X56666301Y28633799D01*
X56666301Y28633799D02*
X56780587Y28633799D01*
X56780587Y28633799D02*
X56932968Y28671895D01*
X56932968Y28671895D02*
X57009159Y28709990D01*
X57009159Y28709990D02*
X57085349Y28786180D01*
X57085349Y28786180D02*
X57123444Y28900466D01*
X57123444Y28900466D02*
X57123444Y29090942D01*
X56818682Y28290942D02*
X56818682Y27681418D01*
X57123444Y27986180D02*
X56513920Y27986180D01*
X61162044Y29073162D02*
X60362044Y29073162D01*
X60362044Y29073162D02*
X60362044Y28882686D01*
X60362044Y28882686D02*
X60400140Y28768400D01*
X60400140Y28768400D02*
X60476330Y28692210D01*
X60476330Y28692210D02*
X60552520Y28654115D01*
X60552520Y28654115D02*
X60704901Y28616019D01*
X60704901Y28616019D02*
X60819187Y28616019D01*
X60819187Y28616019D02*
X60971568Y28654115D01*
X60971568Y28654115D02*
X61047759Y28692210D01*
X61047759Y28692210D02*
X61123949Y28768400D01*
X61123949Y28768400D02*
X61162044Y28882686D01*
X61162044Y28882686D02*
X61162044Y29073162D01*
X60857282Y28273162D02*
X60857282Y27663638D01*
X50339104Y30400144D02*
X49539104Y30400144D01*
X49539104Y30400144D02*
X49539104Y30095382D01*
X49539104Y30095382D02*
X49577200Y30019192D01*
X49577200Y30019192D02*
X49615295Y29981097D01*
X49615295Y29981097D02*
X49691485Y29943001D01*
X49691485Y29943001D02*
X49805771Y29943001D01*
X49805771Y29943001D02*
X49881961Y29981097D01*
X49881961Y29981097D02*
X49920057Y30019192D01*
X49920057Y30019192D02*
X49958152Y30095382D01*
X49958152Y30095382D02*
X49958152Y30400144D01*
X49920057Y29333478D02*
X49958152Y29219192D01*
X49958152Y29219192D02*
X49996247Y29181097D01*
X49996247Y29181097D02*
X50072438Y29143001D01*
X50072438Y29143001D02*
X50186723Y29143001D01*
X50186723Y29143001D02*
X50262914Y29181097D01*
X50262914Y29181097D02*
X50301009Y29219192D01*
X50301009Y29219192D02*
X50339104Y29295382D01*
X50339104Y29295382D02*
X50339104Y29600144D01*
X50339104Y29600144D02*
X49539104Y29600144D01*
X49539104Y29600144D02*
X49539104Y29333478D01*
X49539104Y29333478D02*
X49577200Y29257287D01*
X49577200Y29257287D02*
X49615295Y29219192D01*
X49615295Y29219192D02*
X49691485Y29181097D01*
X49691485Y29181097D02*
X49767676Y29181097D01*
X49767676Y29181097D02*
X49843866Y29219192D01*
X49843866Y29219192D02*
X49881961Y29257287D01*
X49881961Y29257287D02*
X49920057Y29333478D01*
X49920057Y29333478D02*
X49920057Y29600144D01*
X49805771Y28457287D02*
X50339104Y28457287D01*
X49501009Y28647763D02*
X50072438Y28838240D01*
X50072438Y28838240D02*
X50072438Y28343001D01*
X49069104Y30400144D02*
X48269104Y30400144D01*
X48269104Y30400144D02*
X48269104Y30095382D01*
X48269104Y30095382D02*
X48307200Y30019192D01*
X48307200Y30019192D02*
X48345295Y29981097D01*
X48345295Y29981097D02*
X48421485Y29943001D01*
X48421485Y29943001D02*
X48535771Y29943001D01*
X48535771Y29943001D02*
X48611961Y29981097D01*
X48611961Y29981097D02*
X48650057Y30019192D01*
X48650057Y30019192D02*
X48688152Y30095382D01*
X48688152Y30095382D02*
X48688152Y30400144D01*
X48650057Y29333478D02*
X48688152Y29219192D01*
X48688152Y29219192D02*
X48726247Y29181097D01*
X48726247Y29181097D02*
X48802438Y29143001D01*
X48802438Y29143001D02*
X48916723Y29143001D01*
X48916723Y29143001D02*
X48992914Y29181097D01*
X48992914Y29181097D02*
X49031009Y29219192D01*
X49031009Y29219192D02*
X49069104Y29295382D01*
X49069104Y29295382D02*
X49069104Y29600144D01*
X49069104Y29600144D02*
X48269104Y29600144D01*
X48269104Y29600144D02*
X48269104Y29333478D01*
X48269104Y29333478D02*
X48307200Y29257287D01*
X48307200Y29257287D02*
X48345295Y29219192D01*
X48345295Y29219192D02*
X48421485Y29181097D01*
X48421485Y29181097D02*
X48497676Y29181097D01*
X48497676Y29181097D02*
X48573866Y29219192D01*
X48573866Y29219192D02*
X48611961Y29257287D01*
X48611961Y29257287D02*
X48650057Y29333478D01*
X48650057Y29333478D02*
X48650057Y29600144D01*
X48269104Y28876335D02*
X48269104Y28381097D01*
X48269104Y28381097D02*
X48573866Y28647763D01*
X48573866Y28647763D02*
X48573866Y28533478D01*
X48573866Y28533478D02*
X48611961Y28457287D01*
X48611961Y28457287D02*
X48650057Y28419192D01*
X48650057Y28419192D02*
X48726247Y28381097D01*
X48726247Y28381097D02*
X48916723Y28381097D01*
X48916723Y28381097D02*
X48992914Y28419192D01*
X48992914Y28419192D02*
X49031009Y28457287D01*
X49031009Y28457287D02*
X49069104Y28533478D01*
X49069104Y28533478D02*
X49069104Y28762049D01*
X49069104Y28762049D02*
X49031009Y28838240D01*
X49031009Y28838240D02*
X48992914Y28876335D01*
X47037200Y29981097D02*
X46999104Y30057287D01*
X46999104Y30057287D02*
X46999104Y30171573D01*
X46999104Y30171573D02*
X47037200Y30285859D01*
X47037200Y30285859D02*
X47113390Y30362049D01*
X47113390Y30362049D02*
X47189580Y30400144D01*
X47189580Y30400144D02*
X47341961Y30438240D01*
X47341961Y30438240D02*
X47456247Y30438240D01*
X47456247Y30438240D02*
X47608628Y30400144D01*
X47608628Y30400144D02*
X47684819Y30362049D01*
X47684819Y30362049D02*
X47761009Y30285859D01*
X47761009Y30285859D02*
X47799104Y30171573D01*
X47799104Y30171573D02*
X47799104Y30095382D01*
X47799104Y30095382D02*
X47761009Y29981097D01*
X47761009Y29981097D02*
X47722914Y29943001D01*
X47722914Y29943001D02*
X47456247Y29943001D01*
X47456247Y29943001D02*
X47456247Y30095382D01*
X47799104Y29600144D02*
X46999104Y29600144D01*
X46999104Y29600144D02*
X47799104Y29143001D01*
X47799104Y29143001D02*
X46999104Y29143001D01*
X47799104Y28762049D02*
X46999104Y28762049D01*
X46999104Y28762049D02*
X46999104Y28571573D01*
X46999104Y28571573D02*
X47037200Y28457287D01*
X47037200Y28457287D02*
X47113390Y28381097D01*
X47113390Y28381097D02*
X47189580Y28343002D01*
X47189580Y28343002D02*
X47341961Y28304906D01*
X47341961Y28304906D02*
X47456247Y28304906D01*
X47456247Y28304906D02*
X47608628Y28343002D01*
X47608628Y28343002D02*
X47684819Y28381097D01*
X47684819Y28381097D02*
X47761009Y28457287D01*
X47761009Y28457287D02*
X47799104Y28571573D01*
X47799104Y28571573D02*
X47799104Y28762049D01*
X46529104Y30400144D02*
X45729104Y30400144D01*
X45729104Y30400144D02*
X45729104Y30095382D01*
X45729104Y30095382D02*
X45767200Y30019192D01*
X45767200Y30019192D02*
X45805295Y29981097D01*
X45805295Y29981097D02*
X45881485Y29943001D01*
X45881485Y29943001D02*
X45995771Y29943001D01*
X45995771Y29943001D02*
X46071961Y29981097D01*
X46071961Y29981097D02*
X46110057Y30019192D01*
X46110057Y30019192D02*
X46148152Y30095382D01*
X46148152Y30095382D02*
X46148152Y30400144D01*
X46529104Y29600144D02*
X45729104Y29600144D01*
X45729104Y29600144D02*
X45729104Y29409668D01*
X45729104Y29409668D02*
X45767200Y29295382D01*
X45767200Y29295382D02*
X45843390Y29219192D01*
X45843390Y29219192D02*
X45919580Y29181097D01*
X45919580Y29181097D02*
X46071961Y29143001D01*
X46071961Y29143001D02*
X46186247Y29143001D01*
X46186247Y29143001D02*
X46338628Y29181097D01*
X46338628Y29181097D02*
X46414819Y29219192D01*
X46414819Y29219192D02*
X46491009Y29295382D01*
X46491009Y29295382D02*
X46529104Y29409668D01*
X46529104Y29409668D02*
X46529104Y29600144D01*
X45805295Y28838240D02*
X45767200Y28800144D01*
X45767200Y28800144D02*
X45729104Y28723954D01*
X45729104Y28723954D02*
X45729104Y28533478D01*
X45729104Y28533478D02*
X45767200Y28457287D01*
X45767200Y28457287D02*
X45805295Y28419192D01*
X45805295Y28419192D02*
X45881485Y28381097D01*
X45881485Y28381097D02*
X45957676Y28381097D01*
X45957676Y28381097D02*
X46071961Y28419192D01*
X46071961Y28419192D02*
X46529104Y28876335D01*
X46529104Y28876335D02*
X46529104Y28381097D01*
X45259104Y30400144D02*
X44459104Y30400144D01*
X44459104Y30400144D02*
X44459104Y30095382D01*
X44459104Y30095382D02*
X44497200Y30019192D01*
X44497200Y30019192D02*
X44535295Y29981097D01*
X44535295Y29981097D02*
X44611485Y29943001D01*
X44611485Y29943001D02*
X44725771Y29943001D01*
X44725771Y29943001D02*
X44801961Y29981097D01*
X44801961Y29981097D02*
X44840057Y30019192D01*
X44840057Y30019192D02*
X44878152Y30095382D01*
X44878152Y30095382D02*
X44878152Y30400144D01*
X45030533Y29638240D02*
X45030533Y29257287D01*
X45259104Y29714430D02*
X44459104Y29447763D01*
X44459104Y29447763D02*
X45259104Y29181097D01*
X45259104Y28495383D02*
X45259104Y28952526D01*
X45259104Y28723954D02*
X44459104Y28723954D01*
X44459104Y28723954D02*
X44573390Y28800145D01*
X44573390Y28800145D02*
X44649580Y28876335D01*
X44649580Y28876335D02*
X44687676Y28952526D01*
X44725771Y27809668D02*
X45259104Y27809668D01*
X44421009Y28000144D02*
X44992438Y28190621D01*
X44992438Y28190621D02*
X44992438Y27695382D01*
X43989104Y30400144D02*
X43189104Y30400144D01*
X43189104Y30400144D02*
X43189104Y30095382D01*
X43189104Y30095382D02*
X43227200Y30019192D01*
X43227200Y30019192D02*
X43265295Y29981097D01*
X43265295Y29981097D02*
X43341485Y29943001D01*
X43341485Y29943001D02*
X43455771Y29943001D01*
X43455771Y29943001D02*
X43531961Y29981097D01*
X43531961Y29981097D02*
X43570057Y30019192D01*
X43570057Y30019192D02*
X43608152Y30095382D01*
X43608152Y30095382D02*
X43608152Y30400144D01*
X43760533Y29638240D02*
X43760533Y29257287D01*
X43989104Y29714430D02*
X43189104Y29447763D01*
X43189104Y29447763D02*
X43989104Y29181097D01*
X43989104Y28495383D02*
X43989104Y28952526D01*
X43989104Y28723954D02*
X43189104Y28723954D01*
X43189104Y28723954D02*
X43303390Y28800145D01*
X43303390Y28800145D02*
X43379580Y28876335D01*
X43379580Y28876335D02*
X43417676Y28952526D01*
X43189104Y27771573D02*
X43189104Y28152525D01*
X43189104Y28152525D02*
X43570057Y28190621D01*
X43570057Y28190621D02*
X43531961Y28152525D01*
X43531961Y28152525D02*
X43493866Y28076335D01*
X43493866Y28076335D02*
X43493866Y27885859D01*
X43493866Y27885859D02*
X43531961Y27809668D01*
X43531961Y27809668D02*
X43570057Y27771573D01*
X43570057Y27771573D02*
X43646247Y27733478D01*
X43646247Y27733478D02*
X43836723Y27733478D01*
X43836723Y27733478D02*
X43912914Y27771573D01*
X43912914Y27771573D02*
X43951009Y27809668D01*
X43951009Y27809668D02*
X43989104Y27885859D01*
X43989104Y27885859D02*
X43989104Y28076335D01*
X43989104Y28076335D02*
X43951009Y28152525D01*
X43951009Y28152525D02*
X43912914Y28190621D01*
X18900637Y31015359D02*
X18757780Y30967740D01*
X18757780Y30967740D02*
X18519685Y30967740D01*
X18519685Y30967740D02*
X18424447Y31015359D01*
X18424447Y31015359D02*
X18376828Y31062978D01*
X18376828Y31062978D02*
X18329209Y31158216D01*
X18329209Y31158216D02*
X18329209Y31253454D01*
X18329209Y31253454D02*
X18376828Y31348692D01*
X18376828Y31348692D02*
X18424447Y31396311D01*
X18424447Y31396311D02*
X18519685Y31443930D01*
X18519685Y31443930D02*
X18710161Y31491549D01*
X18710161Y31491549D02*
X18805399Y31539168D01*
X18805399Y31539168D02*
X18853018Y31586787D01*
X18853018Y31586787D02*
X18900637Y31682025D01*
X18900637Y31682025D02*
X18900637Y31777263D01*
X18900637Y31777263D02*
X18853018Y31872501D01*
X18853018Y31872501D02*
X18805399Y31920120D01*
X18805399Y31920120D02*
X18710161Y31967740D01*
X18710161Y31967740D02*
X18472066Y31967740D01*
X18472066Y31967740D02*
X18329209Y31920120D01*
X17710161Y31967740D02*
X17519685Y31967740D01*
X17519685Y31967740D02*
X17424447Y31920120D01*
X17424447Y31920120D02*
X17329209Y31824882D01*
X17329209Y31824882D02*
X17281590Y31634406D01*
X17281590Y31634406D02*
X17281590Y31301073D01*
X17281590Y31301073D02*
X17329209Y31110597D01*
X17329209Y31110597D02*
X17424447Y31015359D01*
X17424447Y31015359D02*
X17519685Y30967740D01*
X17519685Y30967740D02*
X17710161Y30967740D01*
X17710161Y30967740D02*
X17805399Y31015359D01*
X17805399Y31015359D02*
X17900637Y31110597D01*
X17900637Y31110597D02*
X17948256Y31301073D01*
X17948256Y31301073D02*
X17948256Y31634406D01*
X17948256Y31634406D02*
X17900637Y31824882D01*
X17900637Y31824882D02*
X17805399Y31920120D01*
X17805399Y31920120D02*
X17710161Y31967740D01*
X16376828Y30967740D02*
X16853018Y30967740D01*
X16853018Y30967740D02*
X16853018Y31967740D01*
X16043494Y31491549D02*
X15710161Y31491549D01*
X15567304Y30967740D02*
X16043494Y30967740D01*
X16043494Y30967740D02*
X16043494Y31967740D01*
X16043494Y31967740D02*
X15567304Y31967740D01*
X15138732Y30967740D02*
X15138732Y31967740D01*
X15138732Y31967740D02*
X14567304Y30967740D01*
X14567304Y30967740D02*
X14567304Y31967740D01*
X13900637Y31967740D02*
X13710161Y31967740D01*
X13710161Y31967740D02*
X13614923Y31920120D01*
X13614923Y31920120D02*
X13519685Y31824882D01*
X13519685Y31824882D02*
X13472066Y31634406D01*
X13472066Y31634406D02*
X13472066Y31301073D01*
X13472066Y31301073D02*
X13519685Y31110597D01*
X13519685Y31110597D02*
X13614923Y31015359D01*
X13614923Y31015359D02*
X13710161Y30967740D01*
X13710161Y30967740D02*
X13900637Y30967740D01*
X13900637Y30967740D02*
X13995875Y31015359D01*
X13995875Y31015359D02*
X14091113Y31110597D01*
X14091113Y31110597D02*
X14138732Y31301073D01*
X14138732Y31301073D02*
X14138732Y31634406D01*
X14138732Y31634406D02*
X14091113Y31824882D01*
X14091113Y31824882D02*
X13995875Y31920120D01*
X13995875Y31920120D02*
X13900637Y31967740D01*
X13043494Y30967740D02*
X13043494Y31967740D01*
X12567304Y30967740D02*
X12567304Y31967740D01*
X12567304Y31967740D02*
X12329209Y31967740D01*
X12329209Y31967740D02*
X12186352Y31920120D01*
X12186352Y31920120D02*
X12091114Y31824882D01*
X12091114Y31824882D02*
X12043495Y31729644D01*
X12043495Y31729644D02*
X11995876Y31539168D01*
X11995876Y31539168D02*
X11995876Y31396311D01*
X11995876Y31396311D02*
X12043495Y31205835D01*
X12043495Y31205835D02*
X12091114Y31110597D01*
X12091114Y31110597D02*
X12186352Y31015359D01*
X12186352Y31015359D02*
X12329209Y30967740D01*
X12329209Y30967740D02*
X12567304Y30967740D01*
X10967304Y31491549D02*
X10633971Y31491549D01*
X10491114Y30967740D02*
X10967304Y30967740D01*
X10967304Y30967740D02*
X10967304Y31967740D01*
X10967304Y31967740D02*
X10491114Y31967740D01*
X10157780Y31967740D02*
X9491114Y30967740D01*
X9491114Y31967740D02*
X10157780Y30967740D01*
X9110161Y30967740D02*
X9110161Y31967740D01*
X9110161Y31967740D02*
X8729209Y31967740D01*
X8729209Y31967740D02*
X8633971Y31920120D01*
X8633971Y31920120D02*
X8586352Y31872501D01*
X8586352Y31872501D02*
X8538733Y31777263D01*
X8538733Y31777263D02*
X8538733Y31634406D01*
X8538733Y31634406D02*
X8586352Y31539168D01*
X8586352Y31539168D02*
X8633971Y31491549D01*
X8633971Y31491549D02*
X8729209Y31443930D01*
X8729209Y31443930D02*
X9110161Y31443930D01*
X8157780Y31253454D02*
X7681590Y31253454D01*
X8253018Y30967740D02*
X7919685Y31967740D01*
X7919685Y31967740D02*
X7586352Y30967740D01*
X7253018Y30967740D02*
X7253018Y31967740D01*
X7253018Y31967740D02*
X6681590Y30967740D01*
X6681590Y30967740D02*
X6681590Y31967740D01*
X6253018Y31015359D02*
X6110161Y30967740D01*
X6110161Y30967740D02*
X5872066Y30967740D01*
X5872066Y30967740D02*
X5776828Y31015359D01*
X5776828Y31015359D02*
X5729209Y31062978D01*
X5729209Y31062978D02*
X5681590Y31158216D01*
X5681590Y31158216D02*
X5681590Y31253454D01*
X5681590Y31253454D02*
X5729209Y31348692D01*
X5729209Y31348692D02*
X5776828Y31396311D01*
X5776828Y31396311D02*
X5872066Y31443930D01*
X5872066Y31443930D02*
X6062542Y31491549D01*
X6062542Y31491549D02*
X6157780Y31539168D01*
X6157780Y31539168D02*
X6205399Y31586787D01*
X6205399Y31586787D02*
X6253018Y31682025D01*
X6253018Y31682025D02*
X6253018Y31777263D01*
X6253018Y31777263D02*
X6205399Y31872501D01*
X6205399Y31872501D02*
X6157780Y31920120D01*
X6157780Y31920120D02*
X6062542Y31967740D01*
X6062542Y31967740D02*
X5824447Y31967740D01*
X5824447Y31967740D02*
X5681590Y31920120D01*
X5253018Y30967740D02*
X5253018Y31967740D01*
X4586352Y31967740D02*
X4395876Y31967740D01*
X4395876Y31967740D02*
X4300638Y31920120D01*
X4300638Y31920120D02*
X4205400Y31824882D01*
X4205400Y31824882D02*
X4157781Y31634406D01*
X4157781Y31634406D02*
X4157781Y31301073D01*
X4157781Y31301073D02*
X4205400Y31110597D01*
X4205400Y31110597D02*
X4300638Y31015359D01*
X4300638Y31015359D02*
X4395876Y30967740D01*
X4395876Y30967740D02*
X4586352Y30967740D01*
X4586352Y30967740D02*
X4681590Y31015359D01*
X4681590Y31015359D02*
X4776828Y31110597D01*
X4776828Y31110597D02*
X4824447Y31301073D01*
X4824447Y31301073D02*
X4824447Y31634406D01*
X4824447Y31634406D02*
X4776828Y31824882D01*
X4776828Y31824882D02*
X4681590Y31920120D01*
X4681590Y31920120D02*
X4586352Y31967740D01*
X3729209Y30967740D02*
X3729209Y31967740D01*
X3729209Y31967740D02*
X3157781Y30967740D01*
X3157781Y30967740D02*
X3157781Y31967740D01*
X66887224Y32347260D02*
X66887224Y31537736D01*
X66887224Y31537736D02*
X66839605Y31442498D01*
X66839605Y31442498D02*
X66791986Y31394879D01*
X66791986Y31394879D02*
X66696748Y31347260D01*
X66696748Y31347260D02*
X66506272Y31347260D01*
X66506272Y31347260D02*
X66411034Y31394879D01*
X66411034Y31394879D02*
X66363415Y31442498D01*
X66363415Y31442498D02*
X66315796Y31537736D01*
X66315796Y31537736D02*
X66315796Y32347260D01*
X65887224Y31394879D02*
X65744367Y31347260D01*
X65744367Y31347260D02*
X65506272Y31347260D01*
X65506272Y31347260D02*
X65411034Y31394879D01*
X65411034Y31394879D02*
X65363415Y31442498D01*
X65363415Y31442498D02*
X65315796Y31537736D01*
X65315796Y31537736D02*
X65315796Y31632974D01*
X65315796Y31632974D02*
X65363415Y31728212D01*
X65363415Y31728212D02*
X65411034Y31775831D01*
X65411034Y31775831D02*
X65506272Y31823450D01*
X65506272Y31823450D02*
X65696748Y31871069D01*
X65696748Y31871069D02*
X65791986Y31918688D01*
X65791986Y31918688D02*
X65839605Y31966307D01*
X65839605Y31966307D02*
X65887224Y32061545D01*
X65887224Y32061545D02*
X65887224Y32156783D01*
X65887224Y32156783D02*
X65839605Y32252021D01*
X65839605Y32252021D02*
X65791986Y32299640D01*
X65791986Y32299640D02*
X65696748Y32347260D01*
X65696748Y32347260D02*
X65458653Y32347260D01*
X65458653Y32347260D02*
X65315796Y32299640D01*
X64553891Y31871069D02*
X64411034Y31823450D01*
X64411034Y31823450D02*
X64363415Y31775831D01*
X64363415Y31775831D02*
X64315796Y31680593D01*
X64315796Y31680593D02*
X64315796Y31537736D01*
X64315796Y31537736D02*
X64363415Y31442498D01*
X64363415Y31442498D02*
X64411034Y31394879D01*
X64411034Y31394879D02*
X64506272Y31347260D01*
X64506272Y31347260D02*
X64887224Y31347260D01*
X64887224Y31347260D02*
X64887224Y32347260D01*
X64887224Y32347260D02*
X64553891Y32347260D01*
X64553891Y32347260D02*
X64458653Y32299640D01*
X64458653Y32299640D02*
X64411034Y32252021D01*
X64411034Y32252021D02*
X64363415Y32156783D01*
X64363415Y32156783D02*
X64363415Y32061545D01*
X64363415Y32061545D02*
X64411034Y31966307D01*
X64411034Y31966307D02*
X64458653Y31918688D01*
X64458653Y31918688D02*
X64553891Y31871069D01*
X64553891Y31871069D02*
X64887224Y31871069D01*
%TO.C,J6*%
X45687153Y35709160D02*
X45687153Y34994874D01*
X45687153Y34994874D02*
X45734772Y34852017D01*
X45734772Y34852017D02*
X45830010Y34756779D01*
X45830010Y34756779D02*
X45972867Y34709160D01*
X45972867Y34709160D02*
X46068105Y34709160D01*
X44782391Y35709160D02*
X44972867Y35709160D01*
X44972867Y35709160D02*
X45068105Y35661540D01*
X45068105Y35661540D02*
X45115724Y35613921D01*
X45115724Y35613921D02*
X45210962Y35471064D01*
X45210962Y35471064D02*
X45258581Y35280588D01*
X45258581Y35280588D02*
X45258581Y34899636D01*
X45258581Y34899636D02*
X45210962Y34804398D01*
X45210962Y34804398D02*
X45163343Y34756779D01*
X45163343Y34756779D02*
X45068105Y34709160D01*
X45068105Y34709160D02*
X44877629Y34709160D01*
X44877629Y34709160D02*
X44782391Y34756779D01*
X44782391Y34756779D02*
X44734772Y34804398D01*
X44734772Y34804398D02*
X44687153Y34899636D01*
X44687153Y34899636D02*
X44687153Y35137731D01*
X44687153Y35137731D02*
X44734772Y35232969D01*
X44734772Y35232969D02*
X44782391Y35280588D01*
X44782391Y35280588D02*
X44877629Y35328207D01*
X44877629Y35328207D02*
X45068105Y35328207D01*
X45068105Y35328207D02*
X45163343Y35280588D01*
X45163343Y35280588D02*
X45210962Y35232969D01*
X45210962Y35232969D02*
X45258581Y35137731D01*
%TO.C,J3*%
X18491373Y34568700D02*
X18491373Y33854414D01*
X18491373Y33854414D02*
X18538992Y33711557D01*
X18538992Y33711557D02*
X18634230Y33616319D01*
X18634230Y33616319D02*
X18777087Y33568700D01*
X18777087Y33568700D02*
X18872325Y33568700D01*
X18110420Y34568700D02*
X17491373Y34568700D01*
X17491373Y34568700D02*
X17824706Y34187747D01*
X17824706Y34187747D02*
X17681849Y34187747D01*
X17681849Y34187747D02*
X17586611Y34140128D01*
X17586611Y34140128D02*
X17538992Y34092509D01*
X17538992Y34092509D02*
X17491373Y33997271D01*
X17491373Y33997271D02*
X17491373Y33759176D01*
X17491373Y33759176D02*
X17538992Y33663938D01*
X17538992Y33663938D02*
X17586611Y33616319D01*
X17586611Y33616319D02*
X17681849Y33568700D01*
X17681849Y33568700D02*
X17967563Y33568700D01*
X17967563Y33568700D02*
X18062801Y33616319D01*
X18062801Y33616319D02*
X18110420Y33663938D01*
D11*
X21707480Y31144920D02*
X21707480Y29929920D01*
X21767480Y35104920D02*
X21767480Y37364920D01*
X22267480Y35104920D02*
X22267480Y37364920D01*
X28867480Y33504920D02*
X29867480Y33504920D01*
X28867480Y35104920D02*
X28867480Y33504920D01*
X29867480Y35104920D02*
X28867480Y35104920D01*
X29867480Y33504920D02*
X29867480Y35104920D01*
X22267480Y33504920D02*
X21267480Y33504920D01*
X22267480Y35104920D02*
X22267480Y33504920D01*
X21267480Y35104920D02*
X22267480Y35104920D01*
X21267480Y33504920D02*
X21267480Y35104920D01*
X30627480Y31144920D02*
X29707480Y31144920D01*
X20507480Y31144920D02*
X21427480Y31144920D01*
X28067480Y33004920D02*
X28067480Y37364920D01*
X23067480Y33004920D02*
X28067480Y33004920D01*
X23067480Y37364920D02*
X23067480Y33004920D01*
X29707480Y31144920D02*
X29427480Y31144920D01*
X29707480Y29544920D02*
X29707480Y31144920D01*
X30627480Y29544920D02*
X29707480Y29544920D01*
X30627480Y37364920D02*
X30627480Y29544920D01*
X20507480Y37364920D02*
X30627480Y37364920D01*
X20507480Y29544920D02*
X20507480Y37364920D01*
X21427480Y29544920D02*
X20507480Y29544920D01*
X21427480Y31144920D02*
X21427480Y29544920D01*
X21707480Y31144920D02*
X21427480Y31144920D01*
%TD*%
M02*
