  0
SECTION
  2
HEADER
  9
$ANGBASE
  50
0.0
  9
$ANGDIR
  70
1
  9
$MEASUREMENT
  70
0
  0
ENDSEC
  0
SECTION
  2
TABLES
  0
TABLE
  2
LTYPE
  70
4
  0
LTYPE
  5
40F
  2
CONTINUOUS
  70
0
  3
Solid line
  72
65
  73
0
  40
0.0
  0
LTYPE
  5
410
  2
DASHDOT
 70
0
  3
Dash Dot ____ _ ____ _
 72
65
 73
4
 40
2.0
 49
1.25
 49
-0.25
 49
0.25
 49
-0.25
  0
LTYPE
  5
411
  2
DASHED
 70
0
  3
Dashed __ __ __ __ __
 72
65
 73
2
 40
0.75
 49
0.5
 49
-0.25
  0
LTYPE
  5
43B
  2
DOTTED
 70
0
  3
Dotted .  .  .  .
 72
65
 73
2
 40
0.2
 49
0.0
 49
-0.2
  0
ENDTAB
  0
TABLE
  2
STYLE
  70
4
  0
STYLE
  2
KICAD
  70
0
  40
0
  41
1
  42
1
  50
0
  71
0
  3
isocp.shx
  0
STYLE
  2
KICADB
  70
0
  40
0
  41
1
  42
1
  50
0
  71
0
  3
isocp.shx
  0
STYLE
  2
KICADI
  70
0
  40
0
  41
1
  42
1
  50
15
  71
0
  3
isocp.shx
  0
STYLE
  2
KICADBI
  70
0
  40
0
  41
1
  42
1
  50
15
  71
0
  3
isocp.shx
  0
ENDTAB
  0
TABLE
  2
LAYER
  70
1
  0
LAYER
  2
BLACK
  70
0
  62
7
  6
CONTINUOUS
  0
ENDTAB
  0
ENDSEC
  0
SECTION
  2
ENTITIES
0
LINE
8
BLACK
6
CONTINUOUS
10
0.0023622
20
1.47087
11
0.0023622
21
0.0023622
0
LINE
8
BLACK
6
CONTINUOUS
10
2.74134
20
1.47087
11
0.0023622
21
1.47087
0
LINE
8
BLACK
6
CONTINUOUS
10
2.74134
20
0.0023622
11
2.74134
21
1.47087
0
LINE
8
BLACK
6
CONTINUOUS
10
0.0023622
20
0.0023622
11
2.74134
21
0.0023622
0
LINE
8
BLACK
6
CONTINUOUS
10
0.124433
20
1.3632
11
0.136244
21
1.35139
0
LINE
8
BLACK
6
CONTINUOUS
10
0.136244
20
1.3632
11
0.124433
21
1.35139
0
LINE
8
BLACK
6
CONTINUOUS
10
0.124433
20
1.31697
11
0.136244
21
1.30516
0
LINE
8
BLACK
6
CONTINUOUS
10
0.136244
20
1.31697
11
0.124433
21
1.30516
0
LINE
8
BLACK
6
CONTINUOUS
10
0.124433
20
1.27074
11
0.136244
21
1.25893
0
LINE
8
BLACK
6
CONTINUOUS
10
0.136244
20
1.27074
11
0.124433
21
1.25893
0
LINE
8
BLACK
6
CONTINUOUS
10
0.180378
20
1.31697
11
0.192189
21
1.30516
0
LINE
8
BLACK
6
CONTINUOUS
10
0.192189
20
1.31697
11
0.180378
21
1.30516
0
LINE
8
BLACK
6
CONTINUOUS
10
0.192913
20
0.755512
11
0.204724
21
0.743701
0
LINE
8
BLACK
6
CONTINUOUS
10
0.204724
20
0.755512
11
0.192913
21
0.743701
0
LINE
8
BLACK
6
CONTINUOUS
10
0.230315
20
0.720079
11
0.242126
21
0.708268
0
LINE
8
BLACK
6
CONTINUOUS
10
0.242126
20
0.720079
11
0.230315
21
0.708268
0
LINE
8
BLACK
6
CONTINUOUS
10
0.25689
20
0.596063
11
0.268701
21
0.584252
0
LINE
8
BLACK
6
CONTINUOUS
10
0.268701
20
0.596063
11
0.25689
21
0.584252
0
LINE
8
BLACK
6
CONTINUOUS
10
0.25689
20
0.545866
11
0.268701
21
0.534055
0
LINE
8
BLACK
6
CONTINUOUS
10
0.268701
20
0.545866
11
0.25689
21
0.534055
0
LINE
8
BLACK
6
CONTINUOUS
10
0.25689
20
0.495669
11
0.268701
21
0.483858
0
LINE
8
BLACK
6
CONTINUOUS
10
0.268701
20
0.495669
11
0.25689
21
0.483858
0
LINE
8
BLACK
6
CONTINUOUS
10
0.25689
20
0.445472
11
0.268701
21
0.433661
0
LINE
8
BLACK
6
CONTINUOUS
10
0.268701
20
0.445472
11
0.25689
21
0.433661
0
LINE
8
BLACK
6
CONTINUOUS
10
0.270669
20
0.739764
11
0.28248
21
0.727953
0
LINE
8
BLACK
6
CONTINUOUS
10
0.28248
20
0.739764
11
0.270669
21
0.727953
0
LINE
8
BLACK
6
CONTINUOUS
10
0.310039
20
0.629528
11
0.32185
21
0.617717
0
LINE
8
BLACK
6
CONTINUOUS
10
0.32185
20
0.629528
11
0.310039
21
0.617717
0
LINE
8
BLACK
6
CONTINUOUS
10
0.310039
20
0.413976
11
0.32185
21
0.402165
0
LINE
8
BLACK
6
CONTINUOUS
10
0.32185
20
0.413976
11
0.310039
21
0.402165
0
LINE
8
BLACK
6
CONTINUOUS
10
0.339567
20
1.11673
11
0.351378
21
1.10492
0
LINE
8
BLACK
6
CONTINUOUS
10
0.351378
20
1.11673
11
0.339567
21
1.10492
0
LINE
8
BLACK
6
CONTINUOUS
10
0.36122
20
0.596063
11
0.373031
21
0.584252
0
LINE
8
BLACK
6
CONTINUOUS
10
0.373031
20
0.596063
11
0.36122
21
0.584252
0
LINE
8
BLACK
6
CONTINUOUS
10
0.36122
20
0.545866
11
0.373031
21
0.534055
0
LINE
8
BLACK
6
CONTINUOUS
10
0.373031
20
0.545866
11
0.36122
21
0.534055
0
LINE
8
BLACK
6
CONTINUOUS
10
0.36122
20
0.495669
11
0.373031
21
0.483858
0
LINE
8
BLACK
6
CONTINUOUS
10
0.373031
20
0.495669
11
0.36122
21
0.483858
0
LINE
8
BLACK
6
CONTINUOUS
10
0.36122
20
0.445472
11
0.373031
21
0.433661
0
LINE
8
BLACK
6
CONTINUOUS
10
0.373031
20
0.445472
11
0.36122
21
0.433661
0
LINE
8
BLACK
6
CONTINUOUS
10
0.365778
20
0.364672
11
0.377589
21
0.352861
0
LINE
8
BLACK
6
CONTINUOUS
10
0.377589
20
0.364672
11
0.365778
21
0.352861
0
LINE
8
BLACK
6
CONTINUOUS
10
0.372835
20
0.764173
11
0.384646
21
0.752362
0
LINE
8
BLACK
6
CONTINUOUS
10
0.384646
20
0.764173
11
0.372835
21
0.752362
0
LINE
8
BLACK
6
CONTINUOUS
10
0.375197
20
1.03937
11
0.387008
21
1.02756
0
LINE
8
BLACK
6
CONTINUOUS
10
0.387008
20
1.03937
11
0.375197
21
1.02756
0
LINE
8
BLACK
6
CONTINUOUS
10
0.377953
20
0.683661
11
0.389764
21
0.67185
0
LINE
8
BLACK
6
CONTINUOUS
10
0.389764
20
0.683661
11
0.377953
21
0.67185
0
LINE
8
BLACK
6
CONTINUOUS
10
0.389764
20
1.14626
11
0.401575
21
1.13445
0
LINE
8
BLACK
6
CONTINUOUS
10
0.401575
20
1.14626
11
0.389764
21
1.13445
0
LINE
8
BLACK
6
CONTINUOUS
10
0.42126
20
0.63248
11
0.433071
21
0.620669
0
LINE
8
BLACK
6
CONTINUOUS
10
0.433071
20
0.63248
11
0.42126
21
0.620669
0
LINE
8
BLACK
6
CONTINUOUS
10
0.449178
20
0.366872
11
0.460989
21
0.355061
0
LINE
8
BLACK
6
CONTINUOUS
10
0.460989
20
0.366872
11
0.449178
21
0.355061
0
LINE
8
BLACK
6
CONTINUOUS
10
0.476378
20
0.840551
11
0.488189
21
0.82874
0
LINE
8
BLACK
6
CONTINUOUS
10
0.488189
20
0.840551
11
0.476378
21
0.82874
0
LINE
8
BLACK
6
CONTINUOUS
10
0.531978
20
0.366972
11
0.543789
21
0.355161
0
LINE
8
BLACK
6
CONTINUOUS
10
0.543789
20
0.366972
11
0.531978
21
0.355161
0
LINE
8
BLACK
6
CONTINUOUS
10
0.546063
20
0.642126
11
0.557874
21
0.630315
0
LINE
8
BLACK
6
CONTINUOUS
10
0.557874
20
0.642126
11
0.546063
21
0.630315
0
LINE
8
BLACK
6
CONTINUOUS
10
0.546457
20
0.880709
11
0.558268
21
0.868898
0
LINE
8
BLACK
6
CONTINUOUS
10
0.558268
20
0.880709
11
0.546457
21
0.868898
0
LINE
8
BLACK
6
CONTINUOUS
10
0.569882
20
0.978937
11
0.581693
21
0.967126
0
LINE
8
BLACK
6
CONTINUOUS
10
0.581693
20
0.978937
11
0.569882
21
0.967126
0
LINE
8
BLACK
6
CONTINUOUS
10
0.575787
20
1.31358
11
0.587598
21
1.30177
0
LINE
8
BLACK
6
CONTINUOUS
10
0.587598
20
1.31358
11
0.575787
21
1.30177
0
LINE
8
BLACK
6
CONTINUOUS
10
0.614678
20
1.22977
11
0.626489
21
1.21796
0
LINE
8
BLACK
6
CONTINUOUS
10
0.626489
20
1.22977
11
0.614678
21
1.21796
0
LINE
8
BLACK
6
CONTINUOUS
10
0.615578
20
0.368072
11
0.627389
21
0.356261
0
LINE
8
BLACK
6
CONTINUOUS
10
0.627389
20
0.368072
11
0.615578
21
0.356261
0
LINE
8
BLACK
6
CONTINUOUS
10
0.660378
20
1.17707
11
0.672189
21
1.16526
0
LINE
8
BLACK
6
CONTINUOUS
10
0.672189
20
1.17707
11
0.660378
21
1.16526
0
LINE
8
BLACK
6
CONTINUOUS
10
0.668307
20
1.05965
11
0.680118
21
1.04783
0
LINE
8
BLACK
6
CONTINUOUS
10
0.680118
20
1.05965
11
0.668307
21
1.04783
0
LINE
8
BLACK
6
CONTINUOUS
10
0.668504
20
1.30236
11
0.680315
21
1.29055
0
LINE
8
BLACK
6
CONTINUOUS
10
0.680315
20
1.30236
11
0.668504
21
1.29055
0
LINE
8
BLACK
6
CONTINUOUS
10
0.699178
20
0.367472
11
0.710989
21
0.355661
0
LINE
8
BLACK
6
CONTINUOUS
10
0.710989
20
0.367472
11
0.699178
21
0.355661
0
LINE
8
BLACK
6
CONTINUOUS
10
0.713583
20
0.982874
11
0.725394
21
0.971063
0
LINE
8
BLACK
6
CONTINUOUS
10
0.725394
20
0.982874
11
0.713583
21
0.971063
0
LINE
8
BLACK
6
CONTINUOUS
10
0.725984
20
0.53622
11
0.737795
21
0.524409
0
LINE
8
BLACK
6
CONTINUOUS
10
0.737795
20
0.53622
11
0.725984
21
0.524409
0
LINE
8
BLACK
6
CONTINUOUS
10
0.770656
20
1.05299
11
0.782467
21
1.04118
0
LINE
8
BLACK
6
CONTINUOUS
10
0.782467
20
1.05299
11
0.770656
21
1.04118
0
LINE
8
BLACK
6
CONTINUOUS
10
0.782378
20
0.368172
11
0.794189
21
0.356361
0
LINE
8
BLACK
6
CONTINUOUS
10
0.794189
20
0.368172
11
0.782378
21
0.356361
0
LINE
8
BLACK
6
CONTINUOUS
10
0.802356
20
1.05299
11
0.814167
21
1.04118
0
LINE
8
BLACK
6
CONTINUOUS
10
0.814167
20
1.05299
11
0.802356
21
1.04118
0
LINE
8
BLACK
6
CONTINUOUS
10
0.851278
20
1.36317
11
0.863089
21
1.35136
0
LINE
8
BLACK
6
CONTINUOUS
10
0.863089
20
1.36317
11
0.851278
21
1.35136
0
LINE
8
BLACK
6
CONTINUOUS
10
0.854331
20
1.42874
11
0.866142
21
1.41693
0
LINE
8
BLACK
6
CONTINUOUS
10
0.866142
20
1.42874
11
0.854331
21
1.41693
0
LINE
8
BLACK
6
CONTINUOUS
10
0.854578
20
1.29197
11
0.866389
21
1.28016
0
LINE
8
BLACK
6
CONTINUOUS
10
0.866389
20
1.29197
11
0.854578
21
1.28016
0
LINE
8
BLACK
6
CONTINUOUS
10
0.866078
20
0.366172
11
0.877889
21
0.354361
0
LINE
8
BLACK
6
CONTINUOUS
10
0.877889
20
0.366172
11
0.866078
21
0.354361
0
LINE
8
BLACK
6
CONTINUOUS
10
0.897556
20
1.05299
11
0.909367
21
1.04118
0
LINE
8
BLACK
6
CONTINUOUS
10
0.909367
20
1.05299
11
0.897556
21
1.04118
0
LINE
8
BLACK
6
CONTINUOUS
10
0.910678
20
1.42874
11
0.922489
21
1.41693
0
LINE
8
BLACK
6
CONTINUOUS
10
0.922489
20
1.42874
11
0.910678
21
1.41693
0
LINE
8
BLACK
6
CONTINUOUS
10
0.910778
20
1.29087
11
0.922589
21
1.27906
0
LINE
8
BLACK
6
CONTINUOUS
10
0.922589
20
1.29087
11
0.910778
21
1.27906
0
LINE
8
BLACK
6
CONTINUOUS
10
0.914778
20
1.36347
11
0.926589
21
1.35166
0
LINE
8
BLACK
6
CONTINUOUS
10
0.926589
20
1.36347
11
0.914778
21
1.35166
0
LINE
8
BLACK
6
CONTINUOUS
10
0.949278
20
0.367772
11
0.961089
21
0.355961
0
LINE
8
BLACK
6
CONTINUOUS
10
0.961089
20
0.367772
11
0.949278
21
0.355961
0
LINE
8
BLACK
6
CONTINUOUS
10
0.954331
20
0.969291
11
0.966142
21
0.95748
0
LINE
8
BLACK
6
CONTINUOUS
10
0.966142
20
0.969291
11
0.954331
21
0.95748
0
LINE
8
BLACK
6
CONTINUOUS
10
0.966535
20
0.755512
11
0.978346
21
0.743701
0
LINE
8
BLACK
6
CONTINUOUS
10
0.978346
20
0.755512
11
0.966535
21
0.743701
0
LINE
8
BLACK
6
CONTINUOUS
10
0.968504
20
0.661024
11
0.980315
21
0.649213
0
LINE
8
BLACK
6
CONTINUOUS
10
0.980315
20
0.661024
11
0.968504
21
0.649213
0
LINE
8
BLACK
6
CONTINUOUS
10
0.987578
20
1.15517
11
0.999389
21
1.14336
0
LINE
8
BLACK
6
CONTINUOUS
10
0.999389
20
1.15517
11
0.987578
21
1.14336
0
LINE
8
BLACK
6
CONTINUOUS
10
1
20
0.792913
11
1.01181
21
0.781102
0
LINE
8
BLACK
6
CONTINUOUS
10
1.01181
20
0.792913
11
1
21
0.781102
0
LINE
8
BLACK
6
CONTINUOUS
10
1.00984
20
0.706299
11
1.02165
21
0.694488
0
LINE
8
BLACK
6
CONTINUOUS
10
1.02165
20
0.706299
11
1.00984
21
0.694488
0
LINE
8
BLACK
6
CONTINUOUS
10
1.01238
20
1.37327
11
1.02419
21
1.36146
0
LINE
8
BLACK
6
CONTINUOUS
10
1.02419
20
1.37327
11
1.01238
21
1.36146
0
LINE
8
BLACK
6
CONTINUOUS
10
1.01948
20
1.15947
11
1.03129
21
1.14766
0
LINE
8
BLACK
6
CONTINUOUS
10
1.03129
20
1.15947
11
1.01948
21
1.14766
0
LINE
8
BLACK
6
CONTINUOUS
10
1.03338
20
0.365472
11
1.04519
21
0.353661
0
LINE
8
BLACK
6
CONTINUOUS
10
1.04519
20
0.365472
11
1.03338
21
0.353661
0
LINE
8
BLACK
6
CONTINUOUS
10
1.03518
20
1.13017
11
1.04699
21
1.11836
0
LINE
8
BLACK
6
CONTINUOUS
10
1.04699
20
1.13017
11
1.03518
21
1.11836
0
LINE
8
BLACK
6
CONTINUOUS
10
1.03588
20
1.09647
11
1.04769
21
1.08466
0
LINE
8
BLACK
6
CONTINUOUS
10
1.04769
20
1.09647
11
1.03588
21
1.08466
0
LINE
8
BLACK
6
CONTINUOUS
10
1.04528
20
0.752559
11
1.05709
21
0.740748
0
LINE
8
BLACK
6
CONTINUOUS
10
1.05709
20
0.752559
11
1.04528
21
0.740748
0
LINE
8
BLACK
6
CONTINUOUS
10
1.06098
20
1.17777
11
1.07279
21
1.16596
0
LINE
8
BLACK
6
CONTINUOUS
10
1.07279
20
1.17777
11
1.06098
21
1.16596
0
LINE
8
BLACK
6
CONTINUOUS
10
1.07938
20
1.19717
11
1.09119
21
1.18536
0
LINE
8
BLACK
6
CONTINUOUS
10
1.09119
20
1.19717
11
1.07938
21
1.18536
0
LINE
8
BLACK
6
CONTINUOUS
10
1.08308
20
1.22637
11
1.09489
21
1.21456
0
LINE
8
BLACK
6
CONTINUOUS
10
1.09489
20
1.22637
11
1.08308
21
1.21456
0
LINE
8
BLACK
6
CONTINUOUS
10
1.08458
20
1.09627
11
1.09639
21
1.08446
0
LINE
8
BLACK
6
CONTINUOUS
10
1.09639
20
1.09627
11
1.08458
21
1.08446
0
LINE
8
BLACK
6
CONTINUOUS
10
1.08498
20
1.17377
11
1.09679
21
1.16196
0
LINE
8
BLACK
6
CONTINUOUS
10
1.09679
20
1.17377
11
1.08498
21
1.16196
0
LINE
8
BLACK
6
CONTINUOUS
10
1.08957
20
0.792913
11
1.10138
21
0.781102
0
LINE
8
BLACK
6
CONTINUOUS
10
1.10138
20
0.792913
11
1.08957
21
0.781102
0
LINE
8
BLACK
6
CONTINUOUS
10
1.10394
20
0.897244
11
1.11575
21
0.885433
0
LINE
8
BLACK
6
CONTINUOUS
10
1.11575
20
0.897244
11
1.10394
21
0.885433
0
LINE
8
BLACK
6
CONTINUOUS
10
1.11578
20
0.365972
11
1.12759
21
0.354161
0
LINE
8
BLACK
6
CONTINUOUS
10
1.12759
20
0.365972
11
1.11578
21
0.354161
0
LINE
8
BLACK
6
CONTINUOUS
10
1.12638
20
1.09047
11
1.13819
21
1.07866
0
LINE
8
BLACK
6
CONTINUOUS
10
1.13819
20
1.09047
11
1.12638
21
1.07866
0
LINE
8
BLACK
6
CONTINUOUS
10
1.12708
20
1.17257
11
1.13889
21
1.16076
0
LINE
8
BLACK
6
CONTINUOUS
10
1.13889
20
1.17257
11
1.12708
21
1.16076
0
LINE
8
BLACK
6
CONTINUOUS
10
1.12886
20
1.13445
11
1.14067
21
1.12264
0
LINE
8
BLACK
6
CONTINUOUS
10
1.14067
20
1.13445
11
1.12886
21
1.12264
0
LINE
8
BLACK
6
CONTINUOUS
10
1.13638
20
0.876772
11
1.14819
21
0.864961
0
LINE
8
BLACK
6
CONTINUOUS
10
1.14819
20
0.876772
11
1.13638
21
0.864961
0
LINE
8
BLACK
6
CONTINUOUS
10
1.15978
20
1.25227
11
1.17159
21
1.24046
0
LINE
8
BLACK
6
CONTINUOUS
10
1.17159
20
1.25227
11
1.15978
21
1.24046
0
LINE
8
BLACK
6
CONTINUOUS
10
1.16268
20
1.20967
11
1.17449
21
1.19786
0
LINE
8
BLACK
6
CONTINUOUS
10
1.17449
20
1.20967
11
1.16268
21
1.19786
0
LINE
8
BLACK
6
CONTINUOUS
10
1.16998
20
1.23257
11
1.18179
21
1.22076
0
LINE
8
BLACK
6
CONTINUOUS
10
1.18179
20
1.23257
11
1.16998
21
1.22076
0
LINE
8
BLACK
6
CONTINUOUS
10
1.18018
20
0.843672
11
1.19199
21
0.831861
0
LINE
8
BLACK
6
CONTINUOUS
10
1.19199
20
0.843672
11
1.18018
21
0.831861
0
LINE
8
BLACK
6
CONTINUOUS
10
1.19958
20
0.365572
11
1.21139
21
0.353761
0
LINE
8
BLACK
6
CONTINUOUS
10
1.21139
20
0.365572
11
1.19958
21
0.353761
0
LINE
8
BLACK
6
CONTINUOUS
10
1.20925
20
1.19025
11
1.22106
21
1.17843
0
LINE
8
BLACK
6
CONTINUOUS
10
1.22106
20
1.19025
11
1.20925
21
1.17843
0
LINE
8
BLACK
6
CONTINUOUS
10
1.22398
20
0.848572
11
1.23579
21
0.836761
0
LINE
8
BLACK
6
CONTINUOUS
10
1.23579
20
0.848572
11
1.22398
21
0.836761
0
LINE
8
BLACK
6
CONTINUOUS
10
1.24278
20
1.13807
11
1.25459
21
1.12626
0
LINE
8
BLACK
6
CONTINUOUS
10
1.25459
20
1.13807
11
1.24278
21
1.12626
0
LINE
8
BLACK
6
CONTINUOUS
10
1.24738
20
1.19187
11
1.25919
21
1.18006
0
LINE
8
BLACK
6
CONTINUOUS
10
1.25919
20
1.19187
11
1.24738
21
1.18006
0
LINE
8
BLACK
6
CONTINUOUS
10
1.24818
20
1.23307
11
1.25999
21
1.22126
0
LINE
8
BLACK
6
CONTINUOUS
10
1.25999
20
1.23307
11
1.24818
21
1.22126
0
LINE
8
BLACK
6
CONTINUOUS
10
1.25028
20
1.04697
11
1.26209
21
1.03516
0
LINE
8
BLACK
6
CONTINUOUS
10
1.26209
20
1.04697
11
1.25028
21
1.03516
0
LINE
8
BLACK
6
CONTINUOUS
10
1.26718
20
0.845272
11
1.27899
21
0.833461
0
LINE
8
BLACK
6
CONTINUOUS
10
1.27899
20
0.845272
11
1.26718
21
0.833461
0
LINE
8
BLACK
6
CONTINUOUS
10
1.26798
20
1.37157
11
1.27979
21
1.35976
0
LINE
8
BLACK
6
CONTINUOUS
10
1.27979
20
1.37157
11
1.26798
21
1.35976
0
LINE
8
BLACK
6
CONTINUOUS
10
1.26801
20
0.887205
11
1.27982
21
0.875394
0
LINE
8
BLACK
6
CONTINUOUS
10
1.27982
20
0.887205
11
1.26801
21
0.875394
0
LINE
8
BLACK
6
CONTINUOUS
10
1.28308
20
0.365572
11
1.29489
21
0.353761
0
LINE
8
BLACK
6
CONTINUOUS
10
1.29489
20
0.365572
11
1.28308
21
0.353761
0
LINE
8
BLACK
6
CONTINUOUS
10
1.31178
20
0.848472
11
1.32359
21
0.836661
0
LINE
8
BLACK
6
CONTINUOUS
10
1.32359
20
0.848472
11
1.31178
21
0.836661
0
LINE
8
BLACK
6
CONTINUOUS
10
1.34646
20
0.723031
11
1.35827
21
0.71122
0
LINE
8
BLACK
6
CONTINUOUS
10
1.35827
20
0.723031
11
1.34646
21
0.71122
0
LINE
8
BLACK
6
CONTINUOUS
10
1.35298
20
1.20197
11
1.36479
21
1.19016
0
LINE
8
BLACK
6
CONTINUOUS
10
1.36479
20
1.20197
11
1.35298
21
1.19016
0
LINE
8
BLACK
6
CONTINUOUS
10
1.35888
20
0.997072
11
1.37069
21
0.985261
0
LINE
8
BLACK
6
CONTINUOUS
10
1.37069
20
0.997072
11
1.35888
21
0.985261
0
LINE
8
BLACK
6
CONTINUOUS
10
1.35938
20
0.811572
11
1.37119
21
0.799761
0
LINE
8
BLACK
6
CONTINUOUS
10
1.37119
20
0.811572
11
1.35938
21
0.799761
0
LINE
8
BLACK
6
CONTINUOUS
10
1.35948
20
0.916972
11
1.37129
21
0.905161
0
LINE
8
BLACK
6
CONTINUOUS
10
1.37129
20
0.916972
11
1.35948
21
0.905161
0
LINE
8
BLACK
6
CONTINUOUS
10
1.35948
20
0.889772
11
1.37129
21
0.877961
0
LINE
8
BLACK
6
CONTINUOUS
10
1.37129
20
0.889772
11
1.35948
21
0.877961
0
LINE
8
BLACK
6
CONTINUOUS
10
1.35958
20
0.860972
11
1.37139
21
0.849161
0
LINE
8
BLACK
6
CONTINUOUS
10
1.37139
20
0.860972
11
1.35958
21
0.849161
0
LINE
8
BLACK
6
CONTINUOUS
10
1.36678
20
0.366172
11
1.37859
21
0.354361
0
LINE
8
BLACK
6
CONTINUOUS
10
1.37859
20
0.366172
11
1.36678
21
0.354361
0
LINE
8
BLACK
6
CONTINUOUS
10
1.37258
20
0.599472
11
1.38439
21
0.587661
0
LINE
8
BLACK
6
CONTINUOUS
10
1.38439
20
0.599472
11
1.37258
21
0.587661
0
LINE
8
BLACK
6
CONTINUOUS
10
1.37258
20
0.558622
11
1.38439
21
0.546811
0
LINE
8
BLACK
6
CONTINUOUS
10
1.38439
20
0.558622
11
1.37258
21
0.546811
0
LINE
8
BLACK
6
CONTINUOUS
10
1.37918
20
0.875272
11
1.39099
21
0.863461
0
LINE
8
BLACK
6
CONTINUOUS
10
1.39099
20
0.875272
11
1.37918
21
0.863461
0
LINE
8
BLACK
6
CONTINUOUS
10
1.37948
20
0.903172
11
1.39129
21
0.891361
0
LINE
8
BLACK
6
CONTINUOUS
10
1.39129
20
0.903172
11
1.37948
21
0.891361
0
LINE
8
BLACK
6
CONTINUOUS
10
1.38008
20
0.930072
11
1.39189
21
0.918261
0
LINE
8
BLACK
6
CONTINUOUS
10
1.39189
20
0.930072
11
1.38008
21
0.918261
0
LINE
8
BLACK
6
CONTINUOUS
10
1.39218
20
1.26537
11
1.40399
21
1.25356
0
LINE
8
BLACK
6
CONTINUOUS
10
1.40399
20
1.26537
11
1.39218
21
1.25356
0
LINE
8
BLACK
6
CONTINUOUS
10
1.40238
20
1.16287
11
1.41419
21
1.15106
0
LINE
8
BLACK
6
CONTINUOUS
10
1.41419
20
1.16287
11
1.40238
21
1.15106
0
LINE
8
BLACK
6
CONTINUOUS
10
1.40588
20
0.624472
11
1.41769
21
0.612661
0
LINE
8
BLACK
6
CONTINUOUS
10
1.41769
20
0.624472
11
1.40588
21
0.612661
0
LINE
8
BLACK
6
CONTINUOUS
10
1.40588
20
0.584872
11
1.41769
21
0.573061
0
LINE
8
BLACK
6
CONTINUOUS
10
1.41769
20
0.584872
11
1.40588
21
0.573061
0
LINE
8
BLACK
6
CONTINUOUS
10
1.40588
20
0.545272
11
1.41769
21
0.533461
0
LINE
8
BLACK
6
CONTINUOUS
10
1.41769
20
0.545272
11
1.40588
21
0.533461
0
LINE
8
BLACK
6
CONTINUOUS
10
1.45078
20
0.364972
11
1.46259
21
0.353161
0
LINE
8
BLACK
6
CONTINUOUS
10
1.46259
20
0.364972
11
1.45078
21
0.353161
0
LINE
8
BLACK
6
CONTINUOUS
10
1.45188
20
0.671272
11
1.46369
21
0.659461
0
LINE
8
BLACK
6
CONTINUOUS
10
1.46369
20
0.671272
11
1.45188
21
0.659461
0
LINE
8
BLACK
6
CONTINUOUS
10
1.46218
20
1.25927
11
1.47399
21
1.24746
0
LINE
8
BLACK
6
CONTINUOUS
10
1.47399
20
1.25927
11
1.46218
21
1.24746
0
LINE
8
BLACK
6
CONTINUOUS
10
1.46218
20
0.813172
11
1.47399
21
0.801361
0
LINE
8
BLACK
6
CONTINUOUS
10
1.47399
20
0.813172
11
1.46218
21
0.801361
0
LINE
8
BLACK
6
CONTINUOUS
10
1.47378
20
0.941172
11
1.48559
21
0.929361
0
LINE
8
BLACK
6
CONTINUOUS
10
1.48559
20
0.941172
11
1.47378
21
0.929361
0
LINE
8
BLACK
6
CONTINUOUS
10
1.47438
20
0.995172
11
1.48619
21
0.983361
0
LINE
8
BLACK
6
CONTINUOUS
10
1.48619
20
0.995172
11
1.47438
21
0.983361
0
LINE
8
BLACK
6
CONTINUOUS
10
1.49828
20
0.993701
11
1.51009
21
0.98189
0
LINE
8
BLACK
6
CONTINUOUS
10
1.51009
20
0.993701
11
1.49828
21
0.98189
0
LINE
8
BLACK
6
CONTINUOUS
10
1.49902
20
0.944488
11
1.51083
21
0.932677
0
LINE
8
BLACK
6
CONTINUOUS
10
1.51083
20
0.944488
11
1.49902
21
0.932677
0
LINE
8
BLACK
6
CONTINUOUS
10
1.52338
20
1.10727
11
1.53519
21
1.09546
0
LINE
8
BLACK
6
CONTINUOUS
10
1.53519
20
1.10727
11
1.52338
21
1.09546
0
LINE
8
BLACK
6
CONTINUOUS
10
1.52338
20
1.08327
11
1.53519
21
1.07146
0
LINE
8
BLACK
6
CONTINUOUS
10
1.53519
20
1.08327
11
1.52338
21
1.07146
0
LINE
8
BLACK
6
CONTINUOUS
10
1.53348
20
0.365772
11
1.54529
21
0.353961
0
LINE
8
BLACK
6
CONTINUOUS
10
1.54529
20
0.365772
11
1.53348
21
0.353961
0
LINE
8
BLACK
6
CONTINUOUS
10
1.54118
20
0.856772
11
1.55299
21
0.844961
0
LINE
8
BLACK
6
CONTINUOUS
10
1.55299
20
0.856772
11
1.54118
21
0.844961
0
LINE
8
BLACK
6
CONTINUOUS
10
1.54538
20
1.18827
11
1.55719
21
1.17646
0
LINE
8
BLACK
6
CONTINUOUS
10
1.55719
20
1.18827
11
1.54538
21
1.17646
0
LINE
8
BLACK
6
CONTINUOUS
10
1.54688
20
0.993701
11
1.55869
21
0.98189
0
LINE
8
BLACK
6
CONTINUOUS
10
1.55869
20
0.993701
11
1.54688
21
0.98189
0
LINE
8
BLACK
6
CONTINUOUS
10
1.54688
20
0.945472
11
1.55869
21
0.933661
0
LINE
8
BLACK
6
CONTINUOUS
10
1.55869
20
0.945472
11
1.54688
21
0.933661
0
LINE
8
BLACK
6
CONTINUOUS
10
1.54748
20
0.804872
11
1.55929
21
0.793061
0
LINE
8
BLACK
6
CONTINUOUS
10
1.55929
20
0.804872
11
1.54748
21
0.793061
0
LINE
8
BLACK
6
CONTINUOUS
10
1.54813
20
1.10727
11
1.55994
21
1.09546
0
LINE
8
BLACK
6
CONTINUOUS
10
1.55994
20
1.10727
11
1.54813
21
1.09546
0
LINE
8
BLACK
6
CONTINUOUS
10
1.54813
20
1.08327
11
1.55994
21
1.07146
0
LINE
8
BLACK
6
CONTINUOUS
10
1.55994
20
1.08327
11
1.54813
21
1.07146
0
LINE
8
BLACK
6
CONTINUOUS
10
1.57168
20
0.828272
11
1.58349
21
0.816461
0
LINE
8
BLACK
6
CONTINUOUS
10
1.58349
20
0.828272
11
1.57168
21
0.816461
0
LINE
8
BLACK
6
CONTINUOUS
10
1.57288
20
1.10727
11
1.58469
21
1.09546
0
LINE
8
BLACK
6
CONTINUOUS
10
1.58469
20
1.10727
11
1.57288
21
1.09546
0
LINE
8
BLACK
6
CONTINUOUS
10
1.57288
20
1.08327
11
1.58469
21
1.07146
0
LINE
8
BLACK
6
CONTINUOUS
10
1.58469
20
1.08327
11
1.57288
21
1.07146
0
LINE
8
BLACK
6
CONTINUOUS
10
1.57438
20
0.911672
11
1.58619
21
0.899861
0
LINE
8
BLACK
6
CONTINUOUS
10
1.58619
20
0.911672
11
1.57438
21
0.899861
0
LINE
8
BLACK
6
CONTINUOUS
10
1.57748
20
0.944272
11
1.58929
21
0.932461
0
LINE
8
BLACK
6
CONTINUOUS
10
1.58929
20
0.944272
11
1.57748
21
0.932461
0
LINE
8
BLACK
6
CONTINUOUS
10
1.58088
20
0.993872
11
1.59269
21
0.982061
0
LINE
8
BLACK
6
CONTINUOUS
10
1.59269
20
0.993872
11
1.58088
21
0.982061
0
LINE
8
BLACK
6
CONTINUOUS
10
1.58888
20
0.871172
11
1.60069
21
0.859361
0
LINE
8
BLACK
6
CONTINUOUS
10
1.60069
20
0.871172
11
1.58888
21
0.859361
0
LINE
8
BLACK
6
CONTINUOUS
10
1.60558
20
0.945372
11
1.61739
21
0.933561
0
LINE
8
BLACK
6
CONTINUOUS
10
1.61739
20
0.945372
11
1.60558
21
0.933561
0
LINE
8
BLACK
6
CONTINUOUS
10
1.60568
20
0.795172
11
1.61749
21
0.783361
0
LINE
8
BLACK
6
CONTINUOUS
10
1.61749
20
0.795172
11
1.60568
21
0.783361
0
LINE
8
BLACK
6
CONTINUOUS
10
1.60978
20
1.19147
11
1.62159
21
1.17966
0
LINE
8
BLACK
6
CONTINUOUS
10
1.62159
20
1.19147
11
1.60978
21
1.17966
0
LINE
8
BLACK
6
CONTINUOUS
10
1.61108
20
0.832572
11
1.62289
21
0.820761
0
LINE
8
BLACK
6
CONTINUOUS
10
1.62289
20
0.832572
11
1.61108
21
0.820761
0
LINE
8
BLACK
6
CONTINUOUS
10
1.61768
20
0.365972
11
1.62949
21
0.354161
0
LINE
8
BLACK
6
CONTINUOUS
10
1.62949
20
0.365972
11
1.61768
21
0.354161
0
LINE
8
BLACK
6
CONTINUOUS
10
1.62998
20
0.992172
11
1.64179
21
0.980361
0
LINE
8
BLACK
6
CONTINUOUS
10
1.64179
20
0.992172
11
1.62998
21
0.980361
0
LINE
8
BLACK
6
CONTINUOUS
10
1.63548
20
0.956272
11
1.64729
21
0.944461
0
LINE
8
BLACK
6
CONTINUOUS
10
1.64729
20
0.956272
11
1.63548
21
0.944461
0
LINE
8
BLACK
6
CONTINUOUS
10
1.65748
20
0.980272
11
1.66929
21
0.968461
0
LINE
8
BLACK
6
CONTINUOUS
10
1.66929
20
0.980272
11
1.65748
21
0.968461
0
LINE
8
BLACK
6
CONTINUOUS
10
1.65768
20
0.932372
11
1.66949
21
0.920561
0
LINE
8
BLACK
6
CONTINUOUS
10
1.66949
20
0.932372
11
1.65768
21
0.920561
0
LINE
8
BLACK
6
CONTINUOUS
10
1.66508
20
1.37937
11
1.67689
21
1.36756
0
LINE
8
BLACK
6
CONTINUOUS
10
1.67689
20
1.37937
11
1.66508
21
1.36756
0
LINE
8
BLACK
6
CONTINUOUS
10
1.67848
20
1.30137
11
1.69029
21
1.28956
0
LINE
8
BLACK
6
CONTINUOUS
10
1.69029
20
1.30137
11
1.67848
21
1.28956
0
LINE
8
BLACK
6
CONTINUOUS
10
1.69198
20
0.740572
11
1.70379
21
0.728761
0
LINE
8
BLACK
6
CONTINUOUS
10
1.70379
20
0.740572
11
1.69198
21
0.728761
0
LINE
8
BLACK
6
CONTINUOUS
10
1.70098
20
0.367872
11
1.71279
21
0.356061
0
LINE
8
BLACK
6
CONTINUOUS
10
1.71279
20
0.367872
11
1.70098
21
0.356061
0
LINE
8
BLACK
6
CONTINUOUS
10
1.71711
20
0.740572
11
1.72892
21
0.728761
0
LINE
8
BLACK
6
CONTINUOUS
10
1.72892
20
0.740572
11
1.71711
21
0.728761
0
LINE
8
BLACK
6
CONTINUOUS
10
1.73548
20
0.870372
11
1.74729
21
0.858561
0
LINE
8
BLACK
6
CONTINUOUS
10
1.74729
20
0.870372
11
1.73548
21
0.858561
0
LINE
8
BLACK
6
CONTINUOUS
10
1.74224
20
0.740572
11
1.75406
21
0.728761
0
LINE
8
BLACK
6
CONTINUOUS
10
1.75406
20
0.740572
11
1.74224
21
0.728761
0
LINE
8
BLACK
6
CONTINUOUS
10
1.75028
20
1.01087
11
1.76209
21
0.999061
0
LINE
8
BLACK
6
CONTINUOUS
10
1.76209
20
1.01087
11
1.75028
21
0.999061
0
LINE
8
BLACK
6
CONTINUOUS
10
1.75165
20
0.978575
11
1.76346
21
0.966764
0
LINE
8
BLACK
6
CONTINUOUS
10
1.76346
20
0.978575
11
1.75165
21
0.966764
0
LINE
8
BLACK
6
CONTINUOUS
10
1.76738
20
0.740572
11
1.77919
21
0.728761
0
LINE
8
BLACK
6
CONTINUOUS
10
1.77919
20
0.740572
11
1.76738
21
0.728761
0
LINE
8
BLACK
6
CONTINUOUS
10
1.77218
20
0.956272
11
1.78399
21
0.944461
0
LINE
8
BLACK
6
CONTINUOUS
10
1.78399
20
0.956272
11
1.77218
21
0.944461
0
LINE
8
BLACK
6
CONTINUOUS
10
1.77958
20
0.923172
11
1.79139
21
0.911361
0
LINE
8
BLACK
6
CONTINUOUS
10
1.79139
20
0.923172
11
1.77958
21
0.911361
0
LINE
8
BLACK
6
CONTINUOUS
10
1.78378
20
0.364772
11
1.79559
21
0.352961
0
LINE
8
BLACK
6
CONTINUOUS
10
1.79559
20
0.364772
11
1.78378
21
0.352961
0
LINE
8
BLACK
6
CONTINUOUS
10
1.79038
20
0.882772
11
1.80219
21
0.870961
0
LINE
8
BLACK
6
CONTINUOUS
10
1.80219
20
0.882772
11
1.79038
21
0.870961
0
LINE
8
BLACK
6
CONTINUOUS
10
1.80338
20
1.00237
11
1.81519
21
0.990561
0
LINE
8
BLACK
6
CONTINUOUS
10
1.81519
20
1.00237
11
1.80338
21
0.990561
0
LINE
8
BLACK
6
CONTINUOUS
10
1.80538
20
0.576372
11
1.81719
21
0.564561
0
LINE
8
BLACK
6
CONTINUOUS
10
1.81719
20
0.576372
11
1.80538
21
0.564561
0
LINE
8
BLACK
6
CONTINUOUS
10
1.80858
20
0.541372
11
1.82039
21
0.529561
0
LINE
8
BLACK
6
CONTINUOUS
10
1.82039
20
0.541372
11
1.80858
21
0.529561
0
LINE
8
BLACK
6
CONTINUOUS
10
1.81391
20
0.926
11
1.82572
21
0.914189
0
LINE
8
BLACK
6
CONTINUOUS
10
1.82572
20
0.926
11
1.81391
21
0.914189
0
LINE
8
BLACK
6
CONTINUOUS
10
1.82998
20
0.590572
11
1.84179
21
0.578761
0
LINE
8
BLACK
6
CONTINUOUS
10
1.84179
20
0.590572
11
1.82998
21
0.578761
0
LINE
8
BLACK
6
CONTINUOUS
10
1.83428
20
1.36747
11
1.84609
21
1.35566
0
LINE
8
BLACK
6
CONTINUOUS
10
1.84609
20
1.36747
11
1.83428
21
1.35566
0
LINE
8
BLACK
6
CONTINUOUS
10
1.86458
20
0.695172
11
1.87639
21
0.683361
0
LINE
8
BLACK
6
CONTINUOUS
10
1.87639
20
0.695172
11
1.86458
21
0.683361
0
LINE
8
BLACK
6
CONTINUOUS
10
1.86538
20
1.28867
11
1.87719
21
1.27686
0
LINE
8
BLACK
6
CONTINUOUS
10
1.87719
20
1.28867
11
1.86538
21
1.27686
0
LINE
8
BLACK
6
CONTINUOUS
10
1.86578
20
1.21887
11
1.87759
21
1.20706
0
LINE
8
BLACK
6
CONTINUOUS
10
1.87759
20
1.21887
11
1.86578
21
1.20706
0
LINE
8
BLACK
6
CONTINUOUS
10
1.86728
20
0.365172
11
1.87909
21
0.353361
0
LINE
8
BLACK
6
CONTINUOUS
10
1.87909
20
0.365172
11
1.86728
21
0.353361
0
LINE
8
BLACK
6
CONTINUOUS
10
1.90868
20
0.399372
11
1.92049
21
0.387561
0
LINE
8
BLACK
6
CONTINUOUS
10
1.92049
20
0.399372
11
1.90868
21
0.387561
0
LINE
8
BLACK
6
CONTINUOUS
10
1.90878
20
1.03637
11
1.92059
21
1.02456
0
LINE
8
BLACK
6
CONTINUOUS
10
1.92059
20
1.03637
11
1.90878
21
1.02456
0
LINE
8
BLACK
6
CONTINUOUS
10
1.90898
20
1.06627
11
1.92079
21
1.05446
0
LINE
8
BLACK
6
CONTINUOUS
10
1.92079
20
1.06627
11
1.90898
21
1.05446
0
LINE
8
BLACK
6
CONTINUOUS
10
1.95078
20
0.365272
11
1.96259
21
0.353461
0
LINE
8
BLACK
6
CONTINUOUS
10
1.96259
20
0.365272
11
1.95078
21
0.353461
0
LINE
8
BLACK
6
CONTINUOUS
10
1.95278
20
1.10507
11
1.96459
21
1.09326
0
LINE
8
BLACK
6
CONTINUOUS
10
1.96459
20
1.10507
11
1.95278
21
1.09326
0
LINE
8
BLACK
6
CONTINUOUS
10
1.96798
20
1.30757
11
1.97979
21
1.29576
0
LINE
8
BLACK
6
CONTINUOUS
10
1.97979
20
1.30757
11
1.96798
21
1.29576
0
LINE
8
BLACK
6
CONTINUOUS
10
1.99198
20
0.771272
11
2.00379
21
0.759461
0
LINE
8
BLACK
6
CONTINUOUS
10
2.00379
20
0.771272
11
1.99198
21
0.759461
0
LINE
8
BLACK
6
CONTINUOUS
10
1.99558
20
0.380972
11
2.00739
21
0.369161
0
LINE
8
BLACK
6
CONTINUOUS
10
2.00739
20
0.380972
11
1.99558
21
0.369161
0
LINE
8
BLACK
6
CONTINUOUS
10
1.99598
20
1.10837
11
2.00779
21
1.09656
0
LINE
8
BLACK
6
CONTINUOUS
10
2.00779
20
1.10837
11
1.99598
21
1.09656
0
LINE
8
BLACK
6
CONTINUOUS
10
2.00118
20
1.06747
11
2.01299
21
1.05566
0
LINE
8
BLACK
6
CONTINUOUS
10
2.01299
20
1.06747
11
2.00118
21
1.05566
0
LINE
8
BLACK
6
CONTINUOUS
10
2.00638
20
0.916772
11
2.01819
21
0.904961
0
LINE
8
BLACK
6
CONTINUOUS
10
2.01819
20
0.916772
11
2.00638
21
0.904961
0
LINE
8
BLACK
6
CONTINUOUS
10
2.03288
20
0.412672
11
2.04469
21
0.400861
0
LINE
8
BLACK
6
CONTINUOUS
10
2.04469
20
0.412672
11
2.03288
21
0.400861
0
LINE
8
BLACK
6
CONTINUOUS
10
2.03438
20
0.365172
11
2.04619
21
0.353361
0
LINE
8
BLACK
6
CONTINUOUS
10
2.04619
20
0.365172
11
2.03438
21
0.353361
0
LINE
8
BLACK
6
CONTINUOUS
10
2.03854
20
1.43037
11
2.05035
21
1.41856
0
LINE
8
BLACK
6
CONTINUOUS
10
2.05035
20
1.43037
11
2.03854
21
1.41856
0
LINE
8
BLACK
6
CONTINUOUS
10
2.04568
20
1.31837
11
2.05749
21
1.30656
0
LINE
8
BLACK
6
CONTINUOUS
10
2.05749
20
1.31837
11
2.04568
21
1.30656
0
LINE
8
BLACK
6
CONTINUOUS
10
2.05958
20
0.906072
11
2.07139
21
0.894261
0
LINE
8
BLACK
6
CONTINUOUS
10
2.07139
20
0.906072
11
2.05958
21
0.894261
0
LINE
8
BLACK
6
CONTINUOUS
10
2.06438
20
1.00937
11
2.07619
21
0.997561
0
LINE
8
BLACK
6
CONTINUOUS
10
2.07619
20
1.00937
11
2.06438
21
0.997561
0
LINE
8
BLACK
6
CONTINUOUS
10
2.07074
20
1.43227
11
2.08255
21
1.42046
0
LINE
8
BLACK
6
CONTINUOUS
10
2.08255
20
1.43227
11
2.07074
21
1.42046
0
LINE
8
BLACK
6
CONTINUOUS
10
2.07938
20
0.721872
11
2.09119
21
0.710061
0
LINE
8
BLACK
6
CONTINUOUS
10
2.09119
20
0.721872
11
2.07938
21
0.710061
0
LINE
8
BLACK
6
CONTINUOUS
10
2.09154
20
1.41427
11
2.10335
21
1.40246
0
LINE
8
BLACK
6
CONTINUOUS
10
2.10335
20
1.41427
11
2.09154
21
1.40246
0
LINE
8
BLACK
6
CONTINUOUS
10
2.09938
20
0.930272
11
2.11119
21
0.918461
0
LINE
8
BLACK
6
CONTINUOUS
10
2.11119
20
0.930272
11
2.09938
21
0.918461
0
LINE
8
BLACK
6
CONTINUOUS
10
2.1111
20
0.958207
11
2.12291
21
0.946396
0
LINE
8
BLACK
6
CONTINUOUS
10
2.12291
20
0.958207
11
2.1111
21
0.946396
0
LINE
8
BLACK
6
CONTINUOUS
10
2.11808
20
0.366372
11
2.12989
21
0.354561
0
LINE
8
BLACK
6
CONTINUOUS
10
2.12989
20
0.366372
11
2.11808
21
0.354561
0
LINE
8
BLACK
6
CONTINUOUS
10
2.12118
20
0.913572
11
2.13299
21
0.901761
0
LINE
8
BLACK
6
CONTINUOUS
10
2.13299
20
0.913572
11
2.12118
21
0.901761
0
LINE
8
BLACK
6
CONTINUOUS
10
2.13908
20
0.895972
11
2.15089
21
0.884161
0
LINE
8
BLACK
6
CONTINUOUS
10
2.15089
20
0.895972
11
2.13908
21
0.884161
0
LINE
8
BLACK
6
CONTINUOUS
10
2.14798
20
0.798972
11
2.15979
21
0.787161
0
LINE
8
BLACK
6
CONTINUOUS
10
2.15979
20
0.798972
11
2.14798
21
0.787161
0
LINE
8
BLACK
6
CONTINUOUS
10
2.15958
20
0.380972
11
2.17139
21
0.369161
0
LINE
8
BLACK
6
CONTINUOUS
10
2.17139
20
0.380972
11
2.15958
21
0.369161
0
LINE
8
BLACK
6
CONTINUOUS
10
2.20238
20
0.366672
11
2.21419
21
0.354861
0
LINE
8
BLACK
6
CONTINUOUS
10
2.21419
20
0.366672
11
2.20238
21
0.354861
0
LINE
8
BLACK
6
CONTINUOUS
10
2.20315
20
1.2815
11
2.21496
21
1.26969
0
LINE
8
BLACK
6
CONTINUOUS
10
2.21496
20
1.2815
11
2.20315
21
1.26969
0
LINE
8
BLACK
6
CONTINUOUS
10
2.22608
20
0.593872
11
2.23789
21
0.582061
0
LINE
8
BLACK
6
CONTINUOUS
10
2.23789
20
0.593872
11
2.22608
21
0.582061
0
LINE
8
BLACK
6
CONTINUOUS
10
2.24038
20
1.43207
11
2.25219
21
1.42026
0
LINE
8
BLACK
6
CONTINUOUS
10
2.25219
20
1.43207
11
2.24038
21
1.42026
0
LINE
8
BLACK
6
CONTINUOUS
10
2.24228
20
0.412972
11
2.25409
21
0.401161
0
LINE
8
BLACK
6
CONTINUOUS
10
2.25409
20
0.412972
11
2.24228
21
0.401161
0
LINE
8
BLACK
6
CONTINUOUS
10
2.25039
20
0.943701
11
2.2622
21
0.93189
0
LINE
8
BLACK
6
CONTINUOUS
10
2.2622
20
0.943701
11
2.25039
21
0.93189
0
LINE
8
BLACK
6
CONTINUOUS
10
2.28468
20
0.365772
11
2.29649
21
0.353961
0
LINE
8
BLACK
6
CONTINUOUS
10
2.29649
20
0.365772
11
2.28468
21
0.353961
0
LINE
8
BLACK
6
CONTINUOUS
10
2.28588
20
1.42717
11
2.29769
21
1.41536
0
LINE
8
BLACK
6
CONTINUOUS
10
2.29769
20
1.42717
11
2.28588
21
1.41536
0
LINE
8
BLACK
6
CONTINUOUS
10
2.30551
20
1.28465
11
2.31732
21
1.27283
0
LINE
8
BLACK
6
CONTINUOUS
10
2.31732
20
1.28465
11
2.30551
21
1.27283
0
LINE
8
BLACK
6
CONTINUOUS
10
2.31598
20
1.42857
11
2.32779
21
1.41676
0
LINE
8
BLACK
6
CONTINUOUS
10
2.32779
20
1.42857
11
2.31598
21
1.41676
0
LINE
8
BLACK
6
CONTINUOUS
10
2.32558
20
0.412472
11
2.33739
21
0.400661
0
LINE
8
BLACK
6
CONTINUOUS
10
2.33739
20
0.412472
11
2.32558
21
0.400661
0
LINE
8
BLACK
6
CONTINUOUS
10
2.33438
20
1.45567
11
2.34619
21
1.44386
0
LINE
8
BLACK
6
CONTINUOUS
10
2.34619
20
1.45567
11
2.33438
21
1.44386
0
LINE
8
BLACK
6
CONTINUOUS
10
2.36218
20
0.855772
11
2.37399
21
0.843961
0
LINE
8
BLACK
6
CONTINUOUS
10
2.37399
20
0.855772
11
2.36218
21
0.843961
0
LINE
8
BLACK
6
CONTINUOUS
10
2.36811
20
1.00591
11
2.37992
21
0.994094
0
LINE
8
BLACK
6
CONTINUOUS
10
2.37992
20
1.00591
11
2.36811
21
0.994094
0
LINE
8
BLACK
6
CONTINUOUS
10
2.36858
20
0.365772
11
2.38039
21
0.353961
0
LINE
8
BLACK
6
CONTINUOUS
10
2.38039
20
0.365772
11
2.36858
21
0.353961
0
LINE
8
BLACK
6
CONTINUOUS
10
2.37668
20
0.740372
11
2.38849
21
0.728561
0
LINE
8
BLACK
6
CONTINUOUS
10
2.38849
20
0.740372
11
2.37668
21
0.728561
0
LINE
8
BLACK
6
CONTINUOUS
10
2.39248
20
0.854672
11
2.40429
21
0.842861
0
LINE
8
BLACK
6
CONTINUOUS
10
2.40429
20
0.854672
11
2.39248
21
0.842861
0
LINE
8
BLACK
6
CONTINUOUS
10
2.39662
20
0.377287
11
2.40843
21
0.365476
0
LINE
8
BLACK
6
CONTINUOUS
10
2.40843
20
0.377287
11
2.39662
21
0.365476
0
LINE
8
BLACK
6
CONTINUOUS
10
2.41528
20
0.740272
11
2.42709
21
0.728461
0
LINE
8
BLACK
6
CONTINUOUS
10
2.42709
20
0.740272
11
2.41528
21
0.728461
0
LINE
8
BLACK
6
CONTINUOUS
10
2.41678
20
0.854772
11
2.42859
21
0.842961
0
LINE
8
BLACK
6
CONTINUOUS
10
2.42859
20
0.854772
11
2.41678
21
0.842961
0
LINE
8
BLACK
6
CONTINUOUS
10
2.43058
20
0.380872
11
2.44239
21
0.369061
0
LINE
8
BLACK
6
CONTINUOUS
10
2.44239
20
0.380872
11
2.43058
21
0.369061
0
LINE
8
BLACK
6
CONTINUOUS
10
2.44358
20
1.00637
11
2.45539
21
0.994561
0
LINE
8
BLACK
6
CONTINUOUS
10
2.45539
20
1.00637
11
2.44358
21
0.994561
0
LINE
8
BLACK
6
CONTINUOUS
10
2.44358
20
0.968332
11
2.45539
21
0.956521
0
LINE
8
BLACK
6
CONTINUOUS
10
2.45539
20
0.968332
11
2.44358
21
0.956521
0
LINE
8
BLACK
6
CONTINUOUS
10
2.44358
20
0.930292
11
2.45539
21
0.918481
0
LINE
8
BLACK
6
CONTINUOUS
10
2.45539
20
0.930292
11
2.44358
21
0.918481
0
LINE
8
BLACK
6
CONTINUOUS
10
2.44358
20
0.892252
11
2.45539
21
0.880441
0
LINE
8
BLACK
6
CONTINUOUS
10
2.45539
20
0.892252
11
2.44358
21
0.880441
0
LINE
8
BLACK
6
CONTINUOUS
10
2.44358
20
0.854212
11
2.45539
21
0.842401
0
LINE
8
BLACK
6
CONTINUOUS
10
2.45539
20
0.854212
11
2.44358
21
0.842401
0
LINE
8
BLACK
6
CONTINUOUS
10
2.46588
20
0.987472
11
2.47769
21
0.975661
0
LINE
8
BLACK
6
CONTINUOUS
10
2.47769
20
0.987472
11
2.46588
21
0.975661
0
LINE
8
BLACK
6
CONTINUOUS
10
2.46588
20
0.949432
11
2.47769
21
0.937621
0
LINE
8
BLACK
6
CONTINUOUS
10
2.47769
20
0.949432
11
2.46588
21
0.937621
0
LINE
8
BLACK
6
CONTINUOUS
10
2.46588
20
0.911392
11
2.47769
21
0.899581
0
LINE
8
BLACK
6
CONTINUOUS
10
2.47769
20
0.911392
11
2.46588
21
0.899581
0
LINE
8
BLACK
6
CONTINUOUS
10
2.46588
20
0.873352
11
2.47769
21
0.861541
0
LINE
8
BLACK
6
CONTINUOUS
10
2.47769
20
0.873352
11
2.46588
21
0.861541
0
LINE
8
BLACK
6
CONTINUOUS
10
2.46588
20
0.835312
11
2.47769
21
0.823501
0
LINE
8
BLACK
6
CONTINUOUS
10
2.47769
20
0.835312
11
2.46588
21
0.823501
0
LINE
8
BLACK
6
CONTINUOUS
10
2.46588
20
0.797272
11
2.47769
21
0.785461
0
LINE
8
BLACK
6
CONTINUOUS
10
2.47769
20
0.797272
11
2.46588
21
0.785461
0
LINE
8
BLACK
6
CONTINUOUS
10
2.46818
20
1.37397
11
2.47999
21
1.36216
0
LINE
8
BLACK
6
CONTINUOUS
10
2.47999
20
1.37397
11
2.46818
21
1.36216
0
LINE
8
BLACK
6
CONTINUOUS
10
2.46818
20
1.33532
11
2.47999
21
1.32351
0
LINE
8
BLACK
6
CONTINUOUS
10
2.47999
20
1.33532
11
2.46818
21
1.32351
0
LINE
8
BLACK
6
CONTINUOUS
10
2.46818
20
1.29667
11
2.47999
21
1.28486
0
LINE
8
BLACK
6
CONTINUOUS
10
2.47999
20
1.29667
11
2.46818
21
1.28486
0
LINE
8
BLACK
6
CONTINUOUS
10
2.46818
20
1.25802
11
2.47999
21
1.24621
0
LINE
8
BLACK
6
CONTINUOUS
10
2.47999
20
1.25802
11
2.46818
21
1.24621
0
LINE
8
BLACK
6
CONTINUOUS
10
2.46818
20
1.21937
11
2.47999
21
1.20756
0
LINE
8
BLACK
6
CONTINUOUS
10
2.47999
20
1.21937
11
2.46818
21
1.20756
0
LINE
8
BLACK
6
CONTINUOUS
10
2.48028
20
1.05387
11
2.49209
21
1.04206
0
LINE
8
BLACK
6
CONTINUOUS
10
2.49209
20
1.05387
11
2.48028
21
1.04206
0
LINE
8
BLACK
6
CONTINUOUS
10
2.48998
20
0.632272
11
2.50179
21
0.620461
0
LINE
8
BLACK
6
CONTINUOUS
10
2.50179
20
0.632272
11
2.48998
21
0.620461
0
LINE
8
BLACK
6
CONTINUOUS
10
2.48998
20
0.563772
11
2.50179
21
0.551961
0
LINE
8
BLACK
6
CONTINUOUS
10
2.50179
20
0.563772
11
2.48998
21
0.551961
0
LINE
8
BLACK
6
CONTINUOUS
10
2.51468
20
0.740572
11
2.52649
21
0.728761
0
LINE
8
BLACK
6
CONTINUOUS
10
2.52649
20
0.740572
11
2.51468
21
0.728761
0
LINE
8
BLACK
6
CONTINUOUS
10
2.51568
20
1.21167
11
2.52749
21
1.19986
0
LINE
8
BLACK
6
CONTINUOUS
10
2.52749
20
1.21167
11
2.51568
21
1.19986
0
LINE
8
BLACK
6
CONTINUOUS
10
2.51598
20
1.00317
11
2.52779
21
0.991361
0
LINE
8
BLACK
6
CONTINUOUS
10
2.52779
20
1.00317
11
2.51598
21
0.991361
0
LINE
8
BLACK
6
CONTINUOUS
10
2.53078
20
0.411272
11
2.54259
21
0.399461
0
LINE
8
BLACK
6
CONTINUOUS
10
2.54259
20
0.411272
11
2.53078
21
0.399461
0
LINE
8
BLACK
6
CONTINUOUS
10
2.53223
20
0.632272
11
2.54404
21
0.620461
0
LINE
8
BLACK
6
CONTINUOUS
10
2.54404
20
0.632272
11
2.53223
21
0.620461
0
LINE
8
BLACK
6
CONTINUOUS
10
2.53223
20
0.563772
11
2.54404
21
0.551961
0
LINE
8
BLACK
6
CONTINUOUS
10
2.54404
20
0.563772
11
2.53223
21
0.551961
0
LINE
8
BLACK
6
CONTINUOUS
10
2.5549
20
0.411272
11
2.56671
21
0.399461
0
LINE
8
BLACK
6
CONTINUOUS
10
2.56671
20
0.411272
11
2.5549
21
0.399461
0
LINE
8
BLACK
6
CONTINUOUS
10
2.55618
20
1.21057
11
2.56799
21
1.19876
0
LINE
8
BLACK
6
CONTINUOUS
10
2.56799
20
1.21057
11
2.55618
21
1.19876
0
LINE
8
BLACK
6
CONTINUOUS
10
2.55768
20
1.37837
11
2.56949
21
1.36656
0
LINE
8
BLACK
6
CONTINUOUS
10
2.56949
20
1.37837
11
2.55768
21
1.36656
0
LINE
8
BLACK
6
CONTINUOUS
10
2.55908
20
1.29727
11
2.57089
21
1.28546
0
LINE
8
BLACK
6
CONTINUOUS
10
2.57089
20
1.29727
11
2.55908
21
1.28546
0
LINE
8
BLACK
6
CONTINUOUS
10
2.57448
20
0.632272
11
2.58629
21
0.620461
0
LINE
8
BLACK
6
CONTINUOUS
10
2.58629
20
0.632272
11
2.57448
21
0.620461
0
LINE
8
BLACK
6
CONTINUOUS
10
2.57448
20
0.563772
11
2.58629
21
0.551961
0
LINE
8
BLACK
6
CONTINUOUS
10
2.58629
20
0.563772
11
2.57448
21
0.551961
0
LINE
8
BLACK
6
CONTINUOUS
10
2.57903
20
0.411272
11
2.59084
21
0.399461
0
LINE
8
BLACK
6
CONTINUOUS
10
2.59084
20
0.411272
11
2.57903
21
0.399461
0
LINE
8
BLACK
6
CONTINUOUS
10
2.57998
20
0.467072
11
2.59179
21
0.455261
0
LINE
8
BLACK
6
CONTINUOUS
10
2.59179
20
0.467072
11
2.57998
21
0.455261
0
LINE
8
BLACK
6
CONTINUOUS
10
2.58058
20
0.507372
11
2.59239
21
0.495561
0
LINE
8
BLACK
6
CONTINUOUS
10
2.59239
20
0.507372
11
2.58058
21
0.495561
0
LINE
8
BLACK
6
CONTINUOUS
10
2.60315
20
0.411272
11
2.61496
21
0.399461
0
LINE
8
BLACK
6
CONTINUOUS
10
2.61496
20
0.411272
11
2.60315
21
0.399461
0
LINE
8
BLACK
6
CONTINUOUS
10
2.61918
20
0.388872
11
2.63099
21
0.377061
0
LINE
8
BLACK
6
CONTINUOUS
10
2.63099
20
0.388872
11
2.61918
21
0.377061
0
LINE
8
BLACK
6
CONTINUOUS
10
2.62468
20
0.361472
11
2.63649
21
0.349661
0
LINE
8
BLACK
6
CONTINUOUS
10
2.63649
20
0.361472
11
2.62468
21
0.349661
0
LINE
8
BLACK
6
CONTINUOUS
10
2.62728
20
0.411272
11
2.63909
21
0.399461
0
LINE
8
BLACK
6
CONTINUOUS
10
2.63909
20
0.411272
11
2.62728
21
0.399461
0
LINE
8
BLACK
6
CONTINUOUS
10
2.62778
20
1.14837
11
2.63959
21
1.13656
0
LINE
8
BLACK
6
CONTINUOUS
10
2.63959
20
1.14837
11
2.62778
21
1.13656
0
LINE
8
BLACK
6
CONTINUOUS
10
2.65008
20
0.453472
11
2.66189
21
0.441661
0
LINE
8
BLACK
6
CONTINUOUS
10
2.66189
20
0.453472
11
2.65008
21
0.441661
0
LINE
8
BLACK
6
CONTINUOUS
10
2.65278
20
0.358572
11
2.66459
21
0.346761
0
LINE
8
BLACK
6
CONTINUOUS
10
2.66459
20
0.358572
11
2.65278
21
0.346761
0
LINE
8
BLACK
6
CONTINUOUS
10
2.67768
20
1.19797
11
2.68949
21
1.18616
0
LINE
8
BLACK
6
CONTINUOUS
10
2.68949
20
1.19797
11
2.67768
21
1.18616
0
LINE
8
BLACK
6
CONTINUOUS
10
2.68338
20
0.358572
11
2.69519
21
0.346761
0
LINE
8
BLACK
6
CONTINUOUS
10
2.69519
20
0.358572
11
2.68338
21
0.346761
0
LINE
8
BLACK
6
CONTINUOUS
10
2.70698
20
0.551472
11
2.71879
21
0.539661
0
LINE
8
BLACK
6
CONTINUOUS
10
2.71879
20
0.551472
11
2.70698
21
0.539661
0
LINE
8
BLACK
6
CONTINUOUS
10
2.71198
20
0.505872
11
2.72379
21
0.494061
0
LINE
8
BLACK
6
CONTINUOUS
10
2.72379
20
0.505872
11
2.71198
21
0.494061
0
CIRCLE
8
BLACK
10
1.72158
20
1.24817
40
0.0127953
0
CIRCLE
8
BLACK
10
1.77158
20
1.24817
40
0.0127953
0
CIRCLE
8
BLACK
10
1.82158
20
1.24817
40
0.0127953
0
CIRCLE
8
BLACK
10
1.87158
20
1.24817
40
0.0127953
0
CIRCLE
8
BLACK
10
1.92158
20
1.24817
40
0.0127953
0
CIRCLE
8
BLACK
10
1.97158
20
1.24817
40
0.0127953
0
CIRCLE
8
BLACK
10
2.03944
20
1.24817
40
0.0127953
0
LINE
8
BLACK
6
CONTINUOUS
10
0.888483
20
1.23543
11
0.888483
21
1.2059
0
LINE
8
BLACK
6
CONTINUOUS
10
0.87372
20
1.22067
11
0.903247
21
1.22067
0
LINE
8
BLACK
6
CONTINUOUS
10
0.967224
20
1.23543
11
0.967224
21
1.2059
0
LINE
8
BLACK
6
CONTINUOUS
10
0.95246
20
1.22067
11
0.981987
21
1.22067
0
LINE
8
BLACK
6
CONTINUOUS
10
1.04596
20
1.23543
11
1.04596
21
1.2059
0
LINE
8
BLACK
6
CONTINUOUS
10
1.0312
20
1.22067
11
1.06073
21
1.22067
0
LINE
8
BLACK
6
CONTINUOUS
10
1.1247
20
1.23543
11
1.1247
21
1.2059
0
LINE
8
BLACK
6
CONTINUOUS
10
1.10994
20
1.22067
11
1.13947
21
1.22067
0
LINE
8
BLACK
6
CONTINUOUS
10
0.0988657
20
-0.114164
11
0.0988657
21
-0.0354237
0
LINE
8
BLACK
6
CONTINUOUS
10
0.0988657
20
-0.0354237
11
0.117613
21
-0.0354237
0
LINE
8
BLACK
6
CONTINUOUS
10
0.117613
20
-0.0354237
11
0.128862
21
-0.0391732
0
LINE
8
BLACK
6
CONTINUOUS
10
0.128862
20
-0.0391732
11
0.136361
21
-0.0466723
0
LINE
8
BLACK
6
CONTINUOUS
10
0.136361
20
-0.0466723
11
0.140111
21
-0.0541713
0
LINE
8
BLACK
6
CONTINUOUS
10
0.140111
20
-0.0541713
11
0.14386
21
-0.0691694
0
LINE
8
BLACK
6
CONTINUOUS
10
0.14386
20
-0.0691694
11
0.14386
21
-0.0804181
0
LINE
8
BLACK
6
CONTINUOUS
10
0.14386
20
-0.0804181
11
0.140111
21
-0.0954162
0
LINE
8
BLACK
6
CONTINUOUS
10
0.140111
20
-0.0954162
11
0.136361
21
-0.102915
0
LINE
8
BLACK
6
CONTINUOUS
10
0.136361
20
-0.102915
11
0.128862
21
-0.110414
0
LINE
8
BLACK
6
CONTINUOUS
10
0.128862
20
-0.110414
11
0.117613
21
-0.114164
0
LINE
8
BLACK
6
CONTINUOUS
10
0.117613
20
-0.114164
11
0.0988657
21
-0.114164
0
LINE
8
BLACK
6
CONTINUOUS
10
0.177606
20
-0.114164
11
0.177606
21
-0.0616704
0
LINE
8
BLACK
6
CONTINUOUS
10
0.177606
20
-0.0766685
11
0.181355
21
-0.0691694
0
LINE
8
BLACK
6
CONTINUOUS
10
0.181355
20
-0.0691694
11
0.185105
21
-0.0654199
0
LINE
8
BLACK
6
CONTINUOUS
10
0.185105
20
-0.0654199
11
0.192604
21
-0.0616704
0
LINE
8
BLACK
6
CONTINUOUS
10
0.192604
20
-0.0616704
11
0.200103
21
-0.0616704
0
LINE
8
BLACK
6
CONTINUOUS
10
0.22635
20
-0.114164
11
0.22635
21
-0.0616704
0
LINE
8
BLACK
6
CONTINUOUS
10
0.22635
20
-0.0354237
11
0.2226
21
-0.0391732
0
LINE
8
BLACK
6
CONTINUOUS
10
0.2226
20
-0.0391732
11
0.22635
21
-0.0429228
0
LINE
8
BLACK
6
CONTINUOUS
10
0.22635
20
-0.0429228
11
0.230099
21
-0.0391732
0
LINE
8
BLACK
6
CONTINUOUS
10
0.230099
20
-0.0391732
11
0.22635
21
-0.0354237
0
LINE
8
BLACK
6
CONTINUOUS
10
0.22635
20
-0.0354237
11
0.22635
21
-0.0429228
0
LINE
8
BLACK
6
CONTINUOUS
10
0.275094
20
-0.114164
11
0.267595
21
-0.110414
0
LINE
8
BLACK
6
CONTINUOUS
10
0.267595
20
-0.110414
11
0.263845
21
-0.102915
0
LINE
8
BLACK
6
CONTINUOUS
10
0.263845
20
-0.102915
11
0.263845
21
-0.0354237
0
LINE
8
BLACK
6
CONTINUOUS
10
0.316339
20
-0.114164
11
0.308839
21
-0.110414
0
LINE
8
BLACK
6
CONTINUOUS
10
0.308839
20
-0.110414
11
0.30509
21
-0.102915
0
LINE
8
BLACK
6
CONTINUOUS
10
0.30509
20
-0.102915
11
0.30509
21
-0.0354237
0
LINE
8
BLACK
6
CONTINUOUS
10
0.393579
20
-0.114164
11
0.393579
21
-0.0354237
0
LINE
8
BLACK
6
CONTINUOUS
10
0.393579
20
-0.0354237
11
0.419826
21
-0.0916667
0
LINE
8
BLACK
6
CONTINUOUS
10
0.419826
20
-0.0916667
11
0.446072
21
-0.0354237
0
LINE
8
BLACK
6
CONTINUOUS
10
0.446072
20
-0.0354237
11
0.446072
21
-0.114164
0
LINE
8
BLACK
6
CONTINUOUS
10
0.517313
20
-0.114164
11
0.517313
21
-0.072919
0
LINE
8
BLACK
6
CONTINUOUS
10
0.517313
20
-0.072919
11
0.513564
21
-0.0654199
0
LINE
8
BLACK
6
CONTINUOUS
10
0.513564
20
-0.0654199
11
0.506065
21
-0.0616704
0
LINE
8
BLACK
6
CONTINUOUS
10
0.506065
20
-0.0616704
11
0.491067
21
-0.0616704
0
LINE
8
BLACK
6
CONTINUOUS
10
0.491067
20
-0.0616704
11
0.483568
21
-0.0654199
0
LINE
8
BLACK
6
CONTINUOUS
10
0.517313
20
-0.110414
11
0.509814
21
-0.114164
0
LINE
8
BLACK
6
CONTINUOUS
10
0.509814
20
-0.114164
11
0.491067
21
-0.114164
0
LINE
8
BLACK
6
CONTINUOUS
10
0.491067
20
-0.114164
11
0.483568
21
-0.110414
0
LINE
8
BLACK
6
CONTINUOUS
10
0.483568
20
-0.110414
11
0.479818
21
-0.102915
0
LINE
8
BLACK
6
CONTINUOUS
10
0.479818
20
-0.102915
11
0.479818
21
-0.0954162
0
LINE
8
BLACK
6
CONTINUOUS
10
0.479818
20
-0.0954162
11
0.483568
21
-0.0879171
0
LINE
8
BLACK
6
CONTINUOUS
10
0.483568
20
-0.0879171
11
0.491067
21
-0.0841676
0
LINE
8
BLACK
6
CONTINUOUS
10
0.491067
20
-0.0841676
11
0.509814
21
-0.0841676
0
LINE
8
BLACK
6
CONTINUOUS
10
0.509814
20
-0.0841676
11
0.517313
21
-0.0804181
0
LINE
8
BLACK
6
CONTINUOUS
10
0.554809
20
-0.0616704
11
0.554809
21
-0.140411
0
LINE
8
BLACK
6
CONTINUOUS
10
0.554809
20
-0.0654199
11
0.562308
21
-0.0616704
0
LINE
8
BLACK
6
CONTINUOUS
10
0.562308
20
-0.0616704
11
0.577306
21
-0.0616704
0
LINE
8
BLACK
6
CONTINUOUS
10
0.577306
20
-0.0616704
11
0.584805
21
-0.0654199
0
LINE
8
BLACK
6
CONTINUOUS
10
0.584805
20
-0.0654199
11
0.588555
21
-0.0691694
0
LINE
8
BLACK
6
CONTINUOUS
10
0.588555
20
-0.0691694
11
0.592304
21
-0.0766685
0
LINE
8
BLACK
6
CONTINUOUS
10
0.592304
20
-0.0766685
11
0.592304
21
-0.0991657
0
LINE
8
BLACK
6
CONTINUOUS
10
0.592304
20
-0.0991657
11
0.588555
21
-0.106665
0
LINE
8
BLACK
6
CONTINUOUS
10
0.588555
20
-0.106665
11
0.584805
21
-0.110414
0
LINE
8
BLACK
6
CONTINUOUS
10
0.584805
20
-0.110414
11
0.577306
21
-0.114164
0
LINE
8
BLACK
6
CONTINUOUS
10
0.577306
20
-0.114164
11
0.562308
21
-0.114164
0
LINE
8
BLACK
6
CONTINUOUS
10
0.562308
20
-0.114164
11
0.554809
21
-0.110414
0
LINE
8
BLACK
6
CONTINUOUS
10
0.62605
20
-0.106665
11
0.629799
21
-0.110414
0
LINE
8
BLACK
6
CONTINUOUS
10
0.629799
20
-0.110414
11
0.62605
21
-0.114164
0
LINE
8
BLACK
6
CONTINUOUS
10
0.62605
20
-0.114164
11
0.6223
21
-0.110414
0
LINE
8
BLACK
6
CONTINUOUS
10
0.6223
20
-0.110414
11
0.62605
21
-0.106665
0
LINE
8
BLACK
6
CONTINUOUS
10
0.62605
20
-0.106665
11
0.62605
21
-0.114164
0
LINE
8
BLACK
6
CONTINUOUS
10
0.62605
20
-0.0654199
11
0.629799
21
-0.0691694
0
LINE
8
BLACK
6
CONTINUOUS
10
0.629799
20
-0.0691694
11
0.62605
21
-0.072919
0
LINE
8
BLACK
6
CONTINUOUS
10
0.62605
20
-0.072919
11
0.6223
21
-0.0691694
0
LINE
8
BLACK
6
CONTINUOUS
10
0.6223
20
-0.0691694
11
0.62605
21
-0.0654199
0
LINE
8
BLACK
6
CONTINUOUS
10
0.62605
20
-0.0654199
11
0.62605
21
-0.072919
0
LINE
8
BLACK
6
CONTINUOUS
10
-0.0104331
20
-0.244685
11
0.00137795
21
-0.256496
0
LINE
8
BLACK
6
CONTINUOUS
10
0.00137795
20
-0.244685
11
-0.0104331
21
-0.256496
0
LINE
8
BLACK
6
CONTINUOUS
10
0.113864
20
-0.200778
11
0.121363
21
-0.200778
0
LINE
8
BLACK
6
CONTINUOUS
10
0.121363
20
-0.200778
11
0.128862
21
-0.204528
0
LINE
8
BLACK
6
CONTINUOUS
10
0.128862
20
-0.204528
11
0.132612
21
-0.208277
0
LINE
8
BLACK
6
CONTINUOUS
10
0.132612
20
-0.208277
11
0.136361
21
-0.215776
0
LINE
8
BLACK
6
CONTINUOUS
10
0.136361
20
-0.215776
11
0.140111
21
-0.230774
0
LINE
8
BLACK
6
CONTINUOUS
10
0.140111
20
-0.230774
11
0.140111
21
-0.249522
0
LINE
8
BLACK
6
CONTINUOUS
10
0.140111
20
-0.249522
11
0.136361
21
-0.26452
0
LINE
8
BLACK
6
CONTINUOUS
10
0.136361
20
-0.26452
11
0.132612
21
-0.272019
0
LINE
8
BLACK
6
CONTINUOUS
10
0.132612
20
-0.272019
11
0.128862
21
-0.275769
0
LINE
8
BLACK
6
CONTINUOUS
10
0.128862
20
-0.275769
11
0.121363
21
-0.279518
0
LINE
8
BLACK
6
CONTINUOUS
10
0.121363
20
-0.279518
11
0.113864
21
-0.279518
0
LINE
8
BLACK
6
CONTINUOUS
10
0.113864
20
-0.279518
11
0.106365
21
-0.275769
0
LINE
8
BLACK
6
CONTINUOUS
10
0.106365
20
-0.275769
11
0.102615
21
-0.272019
0
LINE
8
BLACK
6
CONTINUOUS
10
0.102615
20
-0.272019
11
0.0988657
21
-0.26452
0
LINE
8
BLACK
6
CONTINUOUS
10
0.0988657
20
-0.26452
11
0.0951162
21
-0.249522
0
LINE
8
BLACK
6
CONTINUOUS
10
0.0951162
20
-0.249522
11
0.0951162
21
-0.230774
0
LINE
8
BLACK
6
CONTINUOUS
10
0.0951162
20
-0.230774
11
0.0988657
21
-0.215776
0
LINE
8
BLACK
6
CONTINUOUS
10
0.0988657
20
-0.215776
11
0.102615
21
-0.208277
0
LINE
8
BLACK
6
CONTINUOUS
10
0.102615
20
-0.208277
11
0.106365
21
-0.204528
0
LINE
8
BLACK
6
CONTINUOUS
10
0.106365
20
-0.204528
11
0.113864
21
-0.200778
0
LINE
8
BLACK
6
CONTINUOUS
10
0.173856
20
-0.272019
11
0.177606
21
-0.275769
0
LINE
8
BLACK
6
CONTINUOUS
10
0.177606
20
-0.275769
11
0.173856
21
-0.279518
0
LINE
8
BLACK
6
CONTINUOUS
10
0.173856
20
-0.279518
11
0.170107
21
-0.275769
0
LINE
8
BLACK
6
CONTINUOUS
10
0.170107
20
-0.275769
11
0.173856
21
-0.272019
0
LINE
8
BLACK
6
CONTINUOUS
10
0.173856
20
-0.272019
11
0.173856
21
-0.279518
0
LINE
8
BLACK
6
CONTINUOUS
10
0.203853
20
-0.200778
11
0.252597
21
-0.200778
0
LINE
8
BLACK
6
CONTINUOUS
10
0.252597
20
-0.200778
11
0.22635
21
-0.230774
0
LINE
8
BLACK
6
CONTINUOUS
10
0.22635
20
-0.230774
11
0.237598
21
-0.230774
0
LINE
8
BLACK
6
CONTINUOUS
10
0.237598
20
-0.230774
11
0.245097
21
-0.234524
0
LINE
8
BLACK
6
CONTINUOUS
10
0.245097
20
-0.234524
11
0.248847
21
-0.238273
0
LINE
8
BLACK
6
CONTINUOUS
10
0.248847
20
-0.238273
11
0.252597
21
-0.245772
0
LINE
8
BLACK
6
CONTINUOUS
10
0.252597
20
-0.245772
11
0.252597
21
-0.26452
0
LINE
8
BLACK
6
CONTINUOUS
10
0.252597
20
-0.26452
11
0.248847
21
-0.272019
0
LINE
8
BLACK
6
CONTINUOUS
10
0.248847
20
-0.272019
11
0.245097
21
-0.275769
0
LINE
8
BLACK
6
CONTINUOUS
10
0.245097
20
-0.275769
11
0.237598
21
-0.279518
0
LINE
8
BLACK
6
CONTINUOUS
10
0.237598
20
-0.279518
11
0.215101
21
-0.279518
0
LINE
8
BLACK
6
CONTINUOUS
10
0.215101
20
-0.279518
11
0.207602
21
-0.275769
0
LINE
8
BLACK
6
CONTINUOUS
10
0.207602
20
-0.275769
11
0.203853
21
-0.272019
0
LINE
8
BLACK
6
CONTINUOUS
10
0.30134
20
-0.200778
11
0.30884
21
-0.200778
0
LINE
8
BLACK
6
CONTINUOUS
10
0.30884
20
-0.200778
11
0.316339
21
-0.204528
0
LINE
8
BLACK
6
CONTINUOUS
10
0.316339
20
-0.204528
11
0.320088
21
-0.208277
0
LINE
8
BLACK
6
CONTINUOUS
10
0.320088
20
-0.208277
11
0.323838
21
-0.215776
0
LINE
8
BLACK
6
CONTINUOUS
10
0.323838
20
-0.215776
11
0.327587
21
-0.230774
0
LINE
8
BLACK
6
CONTINUOUS
10
0.327587
20
-0.230774
11
0.327587
21
-0.249522
0
LINE
8
BLACK
6
CONTINUOUS
10
0.327587
20
-0.249522
11
0.323838
21
-0.26452
0
LINE
8
BLACK
6
CONTINUOUS
10
0.323838
20
-0.26452
11
0.320088
21
-0.272019
0
LINE
8
BLACK
6
CONTINUOUS
10
0.320088
20
-0.272019
11
0.316339
21
-0.275769
0
LINE
8
BLACK
6
CONTINUOUS
10
0.316339
20
-0.275769
11
0.30884
21
-0.279518
0
LINE
8
BLACK
6
CONTINUOUS
10
0.30884
20
-0.279518
11
0.30134
21
-0.279518
0
LINE
8
BLACK
6
CONTINUOUS
10
0.30134
20
-0.279518
11
0.293841
21
-0.275769
0
LINE
8
BLACK
6
CONTINUOUS
10
0.293841
20
-0.275769
11
0.290092
21
-0.272019
0
LINE
8
BLACK
6
CONTINUOUS
10
0.290092
20
-0.272019
11
0.286342
21
-0.26452
0
LINE
8
BLACK
6
CONTINUOUS
10
0.286342
20
-0.26452
11
0.282593
21
-0.249522
0
LINE
8
BLACK
6
CONTINUOUS
10
0.282593
20
-0.249522
11
0.282593
21
-0.230774
0
LINE
8
BLACK
6
CONTINUOUS
10
0.282593
20
-0.230774
11
0.286342
21
-0.215776
0
LINE
8
BLACK
6
CONTINUOUS
10
0.286342
20
-0.215776
11
0.290092
21
-0.208277
0
LINE
8
BLACK
6
CONTINUOUS
10
0.290092
20
-0.208277
11
0.293841
21
-0.204528
0
LINE
8
BLACK
6
CONTINUOUS
10
0.293841
20
-0.204528
11
0.30134
21
-0.200778
0
LINE
8
BLACK
6
CONTINUOUS
10
0.376331
20
-0.200778
11
0.38383
21
-0.200778
0
LINE
8
BLACK
6
CONTINUOUS
10
0.38383
20
-0.200778
11
0.391329
21
-0.204528
0
LINE
8
BLACK
6
CONTINUOUS
10
0.391329
20
-0.204528
11
0.395079
21
-0.208277
0
LINE
8
BLACK
6
CONTINUOUS
10
0.395079
20
-0.208277
11
0.398828
21
-0.215776
0
LINE
8
BLACK
6
CONTINUOUS
10
0.398828
20
-0.215776
11
0.402578
21
-0.230774
0
LINE
8
BLACK
6
CONTINUOUS
10
0.402578
20
-0.230774
11
0.402578
21
-0.249522
0
LINE
8
BLACK
6
CONTINUOUS
10
0.402578
20
-0.249522
11
0.398828
21
-0.26452
0
LINE
8
BLACK
6
CONTINUOUS
10
0.398828
20
-0.26452
11
0.395079
21
-0.272019
0
LINE
8
BLACK
6
CONTINUOUS
10
0.395079
20
-0.272019
11
0.391329
21
-0.275769
0
LINE
8
BLACK
6
CONTINUOUS
10
0.391329
20
-0.275769
11
0.38383
21
-0.279518
0
LINE
8
BLACK
6
CONTINUOUS
10
0.38383
20
-0.279518
11
0.376331
21
-0.279518
0
LINE
8
BLACK
6
CONTINUOUS
10
0.376331
20
-0.279518
11
0.368832
21
-0.275769
0
LINE
8
BLACK
6
CONTINUOUS
10
0.368832
20
-0.275769
11
0.365082
21
-0.272019
0
LINE
8
BLACK
6
CONTINUOUS
10
0.365082
20
-0.272019
11
0.361333
21
-0.26452
0
LINE
8
BLACK
6
CONTINUOUS
10
0.361333
20
-0.26452
11
0.357583
21
-0.249522
0
LINE
8
BLACK
6
CONTINUOUS
10
0.357583
20
-0.249522
11
0.357583
21
-0.230774
0
LINE
8
BLACK
6
CONTINUOUS
10
0.357583
20
-0.230774
11
0.361333
21
-0.215776
0
LINE
8
BLACK
6
CONTINUOUS
10
0.361333
20
-0.215776
11
0.365082
21
-0.208277
0
LINE
8
BLACK
6
CONTINUOUS
10
0.365082
20
-0.208277
11
0.368832
21
-0.204528
0
LINE
8
BLACK
6
CONTINUOUS
10
0.368832
20
-0.204528
11
0.376331
21
-0.200778
0
LINE
8
BLACK
6
CONTINUOUS
10
0.436324
20
-0.279518
11
0.436324
21
-0.227025
0
LINE
8
BLACK
6
CONTINUOUS
10
0.436324
20
-0.234524
11
0.440073
21
-0.230774
0
LINE
8
BLACK
6
CONTINUOUS
10
0.440073
20
-0.230774
11
0.447572
21
-0.227025
0
LINE
8
BLACK
6
CONTINUOUS
10
0.447572
20
-0.227025
11
0.458821
21
-0.227025
0
LINE
8
BLACK
6
CONTINUOUS
10
0.458821
20
-0.227025
11
0.46632
21
-0.230774
0
LINE
8
BLACK
6
CONTINUOUS
10
0.46632
20
-0.230774
11
0.470069
21
-0.238273
0
LINE
8
BLACK
6
CONTINUOUS
10
0.470069
20
-0.238273
11
0.470069
21
-0.279518
0
LINE
8
BLACK
6
CONTINUOUS
10
0.470069
20
-0.238273
11
0.473819
21
-0.230774
0
LINE
8
BLACK
6
CONTINUOUS
10
0.473819
20
-0.230774
11
0.481318
21
-0.227025
0
LINE
8
BLACK
6
CONTINUOUS
10
0.481318
20
-0.227025
11
0.492567
21
-0.227025
0
LINE
8
BLACK
6
CONTINUOUS
10
0.492567
20
-0.227025
11
0.500066
21
-0.230774
0
LINE
8
BLACK
6
CONTINUOUS
10
0.500066
20
-0.230774
11
0.503815
21
-0.238273
0
LINE
8
BLACK
6
CONTINUOUS
10
0.503815
20
-0.238273
11
0.503815
21
-0.279518
0
LINE
8
BLACK
6
CONTINUOUS
10
0.54131
20
-0.279518
11
0.54131
21
-0.227025
0
LINE
8
BLACK
6
CONTINUOUS
10
0.54131
20
-0.234524
11
0.54506
21
-0.230774
0
LINE
8
BLACK
6
CONTINUOUS
10
0.54506
20
-0.230774
11
0.552559
21
-0.227025
0
LINE
8
BLACK
6
CONTINUOUS
10
0.552559
20
-0.227025
11
0.563808
21
-0.227025
0
LINE
8
BLACK
6
CONTINUOUS
10
0.563808
20
-0.227025
11
0.571307
21
-0.230774
0
LINE
8
BLACK
6
CONTINUOUS
10
0.571307
20
-0.230774
11
0.575056
21
-0.238273
0
LINE
8
BLACK
6
CONTINUOUS
10
0.575056
20
-0.238273
11
0.575056
21
-0.279518
0
LINE
8
BLACK
6
CONTINUOUS
10
0.575056
20
-0.238273
11
0.578806
21
-0.230774
0
LINE
8
BLACK
6
CONTINUOUS
10
0.578806
20
-0.230774
11
0.586305
21
-0.227025
0
LINE
8
BLACK
6
CONTINUOUS
10
0.586305
20
-0.227025
11
0.597553
21
-0.227025
0
LINE
8
BLACK
6
CONTINUOUS
10
0.597553
20
-0.227025
11
0.605053
21
-0.230774
0
LINE
8
BLACK
6
CONTINUOUS
10
0.605053
20
-0.230774
11
0.608802
21
-0.238273
0
LINE
8
BLACK
6
CONTINUOUS
10
0.608802
20
-0.238273
11
0.608802
21
-0.279518
0
LINE
8
BLACK
6
CONTINUOUS
10
0.749784
20
-0.197028
11
0.682293
21
-0.298266
0
LINE
8
BLACK
6
CONTINUOUS
10
0.838273
20
-0.200778
11
0.845772
21
-0.200778
0
LINE
8
BLACK
6
CONTINUOUS
10
0.845772
20
-0.200778
11
0.853271
21
-0.204528
0
LINE
8
BLACK
6
CONTINUOUS
10
0.853271
20
-0.204528
11
0.857021
21
-0.208277
0
LINE
8
BLACK
6
CONTINUOUS
10
0.857021
20
-0.208277
11
0.860771
21
-0.215776
0
LINE
8
BLACK
6
CONTINUOUS
10
0.860771
20
-0.215776
11
0.86452
21
-0.230774
0
LINE
8
BLACK
6
CONTINUOUS
10
0.86452
20
-0.230774
11
0.86452
21
-0.249522
0
LINE
8
BLACK
6
CONTINUOUS
10
0.86452
20
-0.249522
11
0.860771
21
-0.26452
0
LINE
8
BLACK
6
CONTINUOUS
10
0.860771
20
-0.26452
11
0.857021
21
-0.272019
0
LINE
8
BLACK
6
CONTINUOUS
10
0.857021
20
-0.272019
11
0.853271
21
-0.275769
0
LINE
8
BLACK
6
CONTINUOUS
10
0.853271
20
-0.275769
11
0.845772
21
-0.279518
0
LINE
8
BLACK
6
CONTINUOUS
10
0.845772
20
-0.279518
11
0.838273
21
-0.279518
0
LINE
8
BLACK
6
CONTINUOUS
10
0.838273
20
-0.279518
11
0.830774
21
-0.275769
0
LINE
8
BLACK
6
CONTINUOUS
10
0.830774
20
-0.275769
11
0.827025
21
-0.272019
0
LINE
8
BLACK
6
CONTINUOUS
10
0.827025
20
-0.272019
11
0.823275
21
-0.26452
0
LINE
8
BLACK
6
CONTINUOUS
10
0.823275
20
-0.26452
11
0.819526
21
-0.249522
0
LINE
8
BLACK
6
CONTINUOUS
10
0.819526
20
-0.249522
11
0.819526
21
-0.230774
0
LINE
8
BLACK
6
CONTINUOUS
10
0.819526
20
-0.230774
11
0.823275
21
-0.215776
0
LINE
8
BLACK
6
CONTINUOUS
10
0.823275
20
-0.215776
11
0.827025
21
-0.208277
0
LINE
8
BLACK
6
CONTINUOUS
10
0.827025
20
-0.208277
11
0.830774
21
-0.204528
0
LINE
8
BLACK
6
CONTINUOUS
10
0.830774
20
-0.204528
11
0.838273
21
-0.200778
0
LINE
8
BLACK
6
CONTINUOUS
10
0.898266
20
-0.272019
11
0.902015
21
-0.275769
0
LINE
8
BLACK
6
CONTINUOUS
10
0.902015
20
-0.275769
11
0.898266
21
-0.279518
0
LINE
8
BLACK
6
CONTINUOUS
10
0.898266
20
-0.279518
11
0.894516
21
-0.275769
0
LINE
8
BLACK
6
CONTINUOUS
10
0.894516
20
-0.275769
11
0.898266
21
-0.272019
0
LINE
8
BLACK
6
CONTINUOUS
10
0.898266
20
-0.272019
11
0.898266
21
-0.279518
0
LINE
8
BLACK
6
CONTINUOUS
10
0.950759
20
-0.200778
11
0.958258
21
-0.200778
0
LINE
8
BLACK
6
CONTINUOUS
10
0.958258
20
-0.200778
11
0.965757
21
-0.204528
0
LINE
8
BLACK
6
CONTINUOUS
10
0.965757
20
-0.204528
11
0.969507
21
-0.208277
0
LINE
8
BLACK
6
CONTINUOUS
10
0.969507
20
-0.208277
11
0.973256
21
-0.215776
0
LINE
8
BLACK
6
CONTINUOUS
10
0.973256
20
-0.215776
11
0.977006
21
-0.230774
0
LINE
8
BLACK
6
CONTINUOUS
10
0.977006
20
-0.230774
11
0.977006
21
-0.249522
0
LINE
8
BLACK
6
CONTINUOUS
10
0.977006
20
-0.249522
11
0.973256
21
-0.26452
0
LINE
8
BLACK
6
CONTINUOUS
10
0.973256
20
-0.26452
11
0.969507
21
-0.272019
0
LINE
8
BLACK
6
CONTINUOUS
10
0.969507
20
-0.272019
11
0.965757
21
-0.275769
0
LINE
8
BLACK
6
CONTINUOUS
10
0.965757
20
-0.275769
11
0.958258
21
-0.279518
0
LINE
8
BLACK
6
CONTINUOUS
10
0.958258
20
-0.279518
11
0.950759
21
-0.279518
0
LINE
8
BLACK
6
CONTINUOUS
10
0.950759
20
-0.279518
11
0.94326
21
-0.275769
0
LINE
8
BLACK
6
CONTINUOUS
10
0.94326
20
-0.275769
11
0.939511
21
-0.272019
0
LINE
8
BLACK
6
CONTINUOUS
10
0.939511
20
-0.272019
11
0.935761
21
-0.26452
0
LINE
8
BLACK
6
CONTINUOUS
10
0.935761
20
-0.26452
11
0.932012
21
-0.249522
0
LINE
8
BLACK
6
CONTINUOUS
10
0.932012
20
-0.249522
11
0.932012
21
-0.230774
0
LINE
8
BLACK
6
CONTINUOUS
10
0.932012
20
-0.230774
11
0.935761
21
-0.215776
0
LINE
8
BLACK
6
CONTINUOUS
10
0.935761
20
-0.215776
11
0.939511
21
-0.208277
0
LINE
8
BLACK
6
CONTINUOUS
10
0.939511
20
-0.208277
11
0.94326
21
-0.204528
0
LINE
8
BLACK
6
CONTINUOUS
10
0.94326
20
-0.204528
11
0.950759
21
-0.200778
0
LINE
8
BLACK
6
CONTINUOUS
10
1.052
20
-0.279518
11
1.007
21
-0.279518
0
LINE
8
BLACK
6
CONTINUOUS
10
1.0295
20
-0.279518
11
1.0295
21
-0.200778
0
LINE
8
BLACK
6
CONTINUOUS
10
1.0295
20
-0.200778
11
1.022
21
-0.212027
0
LINE
8
BLACK
6
CONTINUOUS
10
1.022
20
-0.212027
11
1.0145
21
-0.219526
0
LINE
8
BLACK
6
CONTINUOUS
10
1.0145
20
-0.219526
11
1.007
21
-0.223275
0
LINE
8
BLACK
6
CONTINUOUS
10
1.12699
20
-0.279518
11
1.08199
21
-0.279518
0
LINE
8
BLACK
6
CONTINUOUS
10
1.10449
20
-0.279518
11
1.10449
21
-0.200778
0
LINE
8
BLACK
6
CONTINUOUS
10
1.10449
20
-0.200778
11
1.09699
21
-0.212027
0
LINE
8
BLACK
6
CONTINUOUS
10
1.09699
20
-0.212027
11
1.08949
21
-0.219526
0
LINE
8
BLACK
6
CONTINUOUS
10
1.08949
20
-0.219526
11
1.08199
21
-0.223275
0
LINE
8
BLACK
6
CONTINUOUS
10
1.17198
20
-0.234524
11
1.16448
21
-0.230774
0
LINE
8
BLACK
6
CONTINUOUS
10
1.16448
20
-0.230774
11
1.16073
21
-0.227025
0
LINE
8
BLACK
6
CONTINUOUS
10
1.16073
20
-0.227025
11
1.15698
21
-0.219526
0
LINE
8
BLACK
6
CONTINUOUS
10
1.15698
20
-0.219526
11
1.15698
21
-0.215776
0
LINE
8
BLACK
6
CONTINUOUS
10
1.15698
20
-0.215776
11
1.16073
21
-0.208277
0
LINE
8
BLACK
6
CONTINUOUS
10
1.16073
20
-0.208277
11
1.16448
21
-0.204528
0
LINE
8
BLACK
6
CONTINUOUS
10
1.16448
20
-0.204528
11
1.17198
21
-0.200778
0
LINE
8
BLACK
6
CONTINUOUS
10
1.17198
20
-0.200778
11
1.18698
21
-0.200778
0
LINE
8
BLACK
6
CONTINUOUS
10
1.18698
20
-0.200778
11
1.19448
21
-0.204528
0
LINE
8
BLACK
6
CONTINUOUS
10
1.19448
20
-0.204528
11
1.19823
21
-0.208277
0
LINE
8
BLACK
6
CONTINUOUS
10
1.19823
20
-0.208277
11
1.20198
21
-0.215776
0
LINE
8
BLACK
6
CONTINUOUS
10
1.20198
20
-0.215776
11
1.20198
21
-0.219526
0
LINE
8
BLACK
6
CONTINUOUS
10
1.20198
20
-0.219526
11
1.19823
21
-0.227025
0
LINE
8
BLACK
6
CONTINUOUS
10
1.19823
20
-0.227025
11
1.19448
21
-0.230774
0
LINE
8
BLACK
6
CONTINUOUS
10
1.19448
20
-0.230774
11
1.18698
21
-0.234524
0
LINE
8
BLACK
6
CONTINUOUS
10
1.18698
20
-0.234524
11
1.17198
21
-0.234524
0
LINE
8
BLACK
6
CONTINUOUS
10
1.17198
20
-0.234524
11
1.16448
21
-0.238273
0
LINE
8
BLACK
6
CONTINUOUS
10
1.16448
20
-0.238273
11
1.16073
21
-0.242023
0
LINE
8
BLACK
6
CONTINUOUS
10
1.16073
20
-0.242023
11
1.15698
21
-0.249522
0
LINE
8
BLACK
6
CONTINUOUS
10
1.15698
20
-0.249522
11
1.15698
21
-0.26452
0
LINE
8
BLACK
6
CONTINUOUS
10
1.15698
20
-0.26452
11
1.16073
21
-0.272019
0
LINE
8
BLACK
6
CONTINUOUS
10
1.16073
20
-0.272019
11
1.16448
21
-0.275769
0
LINE
8
BLACK
6
CONTINUOUS
10
1.16448
20
-0.275769
11
1.17198
21
-0.279518
0
LINE
8
BLACK
6
CONTINUOUS
10
1.17198
20
-0.279518
11
1.18698
21
-0.279518
0
LINE
8
BLACK
6
CONTINUOUS
10
1.18698
20
-0.279518
11
1.19448
21
-0.275769
0
LINE
8
BLACK
6
CONTINUOUS
10
1.19448
20
-0.275769
11
1.19823
21
-0.272019
0
LINE
8
BLACK
6
CONTINUOUS
10
1.19823
20
-0.272019
11
1.20198
21
-0.26452
0
LINE
8
BLACK
6
CONTINUOUS
10
1.20198
20
-0.26452
11
1.20198
21
-0.249522
0
LINE
8
BLACK
6
CONTINUOUS
10
1.20198
20
-0.249522
11
1.19823
21
-0.242023
0
LINE
8
BLACK
6
CONTINUOUS
10
1.19823
20
-0.242023
11
1.19448
21
-0.238273
0
LINE
8
BLACK
6
CONTINUOUS
10
1.19448
20
-0.238273
11
1.18698
21
-0.234524
0
LINE
8
BLACK
6
CONTINUOUS
10
1.23197
20
-0.200778
11
1.23197
21
-0.215776
0
LINE
8
BLACK
6
CONTINUOUS
10
1.26197
20
-0.200778
11
1.26197
21
-0.215776
0
LINE
8
BLACK
6
CONTINUOUS
10
1.36546
20
-0.309514
11
1.36171
21
-0.305765
0
LINE
8
BLACK
6
CONTINUOUS
10
1.36171
20
-0.305765
11
1.35421
21
-0.294516
0
LINE
8
BLACK
6
CONTINUOUS
10
1.35421
20
-0.294516
11
1.35046
21
-0.287017
0
LINE
8
BLACK
6
CONTINUOUS
10
1.35046
20
-0.287017
11
1.34671
21
-0.275769
0
LINE
8
BLACK
6
CONTINUOUS
10
1.34671
20
-0.275769
11
1.34296
21
-0.257021
0
LINE
8
BLACK
6
CONTINUOUS
10
1.34296
20
-0.257021
11
1.34296
21
-0.242023
0
LINE
8
BLACK
6
CONTINUOUS
10
1.34296
20
-0.242023
11
1.34671
21
-0.223275
0
LINE
8
BLACK
6
CONTINUOUS
10
1.34671
20
-0.223275
11
1.35046
21
-0.212027
0
LINE
8
BLACK
6
CONTINUOUS
10
1.35046
20
-0.212027
11
1.35421
21
-0.204528
0
LINE
8
BLACK
6
CONTINUOUS
10
1.35421
20
-0.204528
11
1.36171
21
-0.193279
0
LINE
8
BLACK
6
CONTINUOUS
10
1.36171
20
-0.193279
11
1.36546
21
-0.189529
0
LINE
8
BLACK
6
CONTINUOUS
10
1.3917
20
-0.208277
11
1.39545
21
-0.204528
0
LINE
8
BLACK
6
CONTINUOUS
10
1.39545
20
-0.204528
11
1.40295
21
-0.200778
0
LINE
8
BLACK
6
CONTINUOUS
10
1.40295
20
-0.200778
11
1.4217
21
-0.200778
0
LINE
8
BLACK
6
CONTINUOUS
10
1.4217
20
-0.200778
11
1.4292
21
-0.204528
0
LINE
8
BLACK
6
CONTINUOUS
10
1.4292
20
-0.204528
11
1.43295
21
-0.208277
0
LINE
8
BLACK
6
CONTINUOUS
10
1.43295
20
-0.208277
11
1.4367
21
-0.215776
0
LINE
8
BLACK
6
CONTINUOUS
10
1.4367
20
-0.215776
11
1.4367
21
-0.223275
0
LINE
8
BLACK
6
CONTINUOUS
10
1.4367
20
-0.223275
11
1.43295
21
-0.234524
0
LINE
8
BLACK
6
CONTINUOUS
10
1.43295
20
-0.234524
11
1.38795
21
-0.279518
0
LINE
8
BLACK
6
CONTINUOUS
10
1.38795
20
-0.279518
11
1.4367
21
-0.279518
0
LINE
8
BLACK
6
CONTINUOUS
10
1.50419
20
-0.200778
11
1.48919
21
-0.200778
0
LINE
8
BLACK
6
CONTINUOUS
10
1.48919
20
-0.200778
11
1.48169
21
-0.204528
0
LINE
8
BLACK
6
CONTINUOUS
10
1.48169
20
-0.204528
11
1.47794
21
-0.208277
0
LINE
8
BLACK
6
CONTINUOUS
10
1.47794
20
-0.208277
11
1.47044
21
-0.219526
0
LINE
8
BLACK
6
CONTINUOUS
10
1.47044
20
-0.219526
11
1.46669
21
-0.234524
0
LINE
8
BLACK
6
CONTINUOUS
10
1.46669
20
-0.234524
11
1.46669
21
-0.26452
0
LINE
8
BLACK
6
CONTINUOUS
10
1.46669
20
-0.26452
11
1.47044
21
-0.272019
0
LINE
8
BLACK
6
CONTINUOUS
10
1.47044
20
-0.272019
11
1.47419
21
-0.275769
0
LINE
8
BLACK
6
CONTINUOUS
10
1.47419
20
-0.275769
11
1.48169
21
-0.279518
0
LINE
8
BLACK
6
CONTINUOUS
10
1.48169
20
-0.279518
11
1.49669
21
-0.279518
0
LINE
8
BLACK
6
CONTINUOUS
10
1.49669
20
-0.279518
11
1.50419
21
-0.275769
0
LINE
8
BLACK
6
CONTINUOUS
10
1.50419
20
-0.275769
11
1.50794
21
-0.272019
0
LINE
8
BLACK
6
CONTINUOUS
10
1.50794
20
-0.272019
11
1.51169
21
-0.26452
0
LINE
8
BLACK
6
CONTINUOUS
10
1.51169
20
-0.26452
11
1.51169
21
-0.245772
0
LINE
8
BLACK
6
CONTINUOUS
10
1.51169
20
-0.245772
11
1.50794
21
-0.238273
0
LINE
8
BLACK
6
CONTINUOUS
10
1.50794
20
-0.238273
11
1.50419
21
-0.234524
0
LINE
8
BLACK
6
CONTINUOUS
10
1.50419
20
-0.234524
11
1.49669
21
-0.230774
0
LINE
8
BLACK
6
CONTINUOUS
10
1.49669
20
-0.230774
11
1.48169
21
-0.230774
0
LINE
8
BLACK
6
CONTINUOUS
10
1.48169
20
-0.230774
11
1.47419
21
-0.234524
0
LINE
8
BLACK
6
CONTINUOUS
10
1.47419
20
-0.234524
11
1.47044
21
-0.238273
0
LINE
8
BLACK
6
CONTINUOUS
10
1.47044
20
-0.238273
11
1.46669
21
-0.245772
0
LINE
8
BLACK
6
CONTINUOUS
10
1.56043
20
-0.200778
11
1.56793
21
-0.200778
0
LINE
8
BLACK
6
CONTINUOUS
10
1.56793
20
-0.200778
11
1.57543
21
-0.204528
0
LINE
8
BLACK
6
CONTINUOUS
10
1.57543
20
-0.204528
11
1.57918
21
-0.208277
0
LINE
8
BLACK
6
CONTINUOUS
10
1.57918
20
-0.208277
11
1.58293
21
-0.215776
0
LINE
8
BLACK
6
CONTINUOUS
10
1.58293
20
-0.215776
11
1.58668
21
-0.230774
0
LINE
8
BLACK
6
CONTINUOUS
10
1.58668
20
-0.230774
11
1.58668
21
-0.249522
0
LINE
8
BLACK
6
CONTINUOUS
10
1.58668
20
-0.249522
11
1.58293
21
-0.26452
0
LINE
8
BLACK
6
CONTINUOUS
10
1.58293
20
-0.26452
11
1.57918
21
-0.272019
0
LINE
8
BLACK
6
CONTINUOUS
10
1.57918
20
-0.272019
11
1.57543
21
-0.275769
0
LINE
8
BLACK
6
CONTINUOUS
10
1.57543
20
-0.275769
11
1.56793
21
-0.279518
0
LINE
8
BLACK
6
CONTINUOUS
10
1.56793
20
-0.279518
11
1.56043
21
-0.279518
0
LINE
8
BLACK
6
CONTINUOUS
10
1.56043
20
-0.279518
11
1.55293
21
-0.275769
0
LINE
8
BLACK
6
CONTINUOUS
10
1.55293
20
-0.275769
11
1.54918
21
-0.272019
0
LINE
8
BLACK
6
CONTINUOUS
10
1.54918
20
-0.272019
11
1.54543
21
-0.26452
0
LINE
8
BLACK
6
CONTINUOUS
10
1.54543
20
-0.26452
11
1.54169
21
-0.249522
0
LINE
8
BLACK
6
CONTINUOUS
10
1.54169
20
-0.249522
11
1.54169
21
-0.230774
0
LINE
8
BLACK
6
CONTINUOUS
10
1.54169
20
-0.230774
11
1.54543
21
-0.215776
0
LINE
8
BLACK
6
CONTINUOUS
10
1.54543
20
-0.215776
11
1.54918
21
-0.208277
0
LINE
8
BLACK
6
CONTINUOUS
10
1.54918
20
-0.208277
11
1.55293
21
-0.204528
0
LINE
8
BLACK
6
CONTINUOUS
10
1.55293
20
-0.204528
11
1.56043
21
-0.200778
0
LINE
8
BLACK
6
CONTINUOUS
10
1.66767
20
-0.279518
11
1.66767
21
-0.200778
0
LINE
8
BLACK
6
CONTINUOUS
10
1.70142
20
-0.279518
11
1.70142
21
-0.238273
0
LINE
8
BLACK
6
CONTINUOUS
10
1.70142
20
-0.238273
11
1.69767
21
-0.230774
0
LINE
8
BLACK
6
CONTINUOUS
10
1.69767
20
-0.230774
11
1.69017
21
-0.227025
0
LINE
8
BLACK
6
CONTINUOUS
10
1.69017
20
-0.227025
11
1.67892
21
-0.227025
0
LINE
8
BLACK
6
CONTINUOUS
10
1.67892
20
-0.227025
11
1.67142
21
-0.230774
0
LINE
8
BLACK
6
CONTINUOUS
10
1.67142
20
-0.230774
11
1.66767
21
-0.234524
0
LINE
8
BLACK
6
CONTINUOUS
10
1.75016
20
-0.279518
11
1.74266
21
-0.275769
0
LINE
8
BLACK
6
CONTINUOUS
10
1.74266
20
-0.275769
11
1.73891
21
-0.272019
0
LINE
8
BLACK
6
CONTINUOUS
10
1.73891
20
-0.272019
11
1.73516
21
-0.26452
0
LINE
8
BLACK
6
CONTINUOUS
10
1.73516
20
-0.26452
11
1.73516
21
-0.242023
0
LINE
8
BLACK
6
CONTINUOUS
10
1.73516
20
-0.242023
11
1.73891
21
-0.234524
0
LINE
8
BLACK
6
CONTINUOUS
10
1.73891
20
-0.234524
11
1.74266
21
-0.230774
0
LINE
8
BLACK
6
CONTINUOUS
10
1.74266
20
-0.230774
11
1.75016
21
-0.227025
0
LINE
8
BLACK
6
CONTINUOUS
10
1.75016
20
-0.227025
11
1.76141
21
-0.227025
0
LINE
8
BLACK
6
CONTINUOUS
10
1.76141
20
-0.227025
11
1.76891
21
-0.230774
0
LINE
8
BLACK
6
CONTINUOUS
10
1.76891
20
-0.230774
11
1.77266
21
-0.234524
0
LINE
8
BLACK
6
CONTINUOUS
10
1.77266
20
-0.234524
11
1.77641
21
-0.242023
0
LINE
8
BLACK
6
CONTINUOUS
10
1.77641
20
-0.242023
11
1.77641
21
-0.26452
0
LINE
8
BLACK
6
CONTINUOUS
10
1.77641
20
-0.26452
11
1.77266
21
-0.272019
0
LINE
8
BLACK
6
CONTINUOUS
10
1.77266
20
-0.272019
11
1.76891
21
-0.275769
0
LINE
8
BLACK
6
CONTINUOUS
10
1.76891
20
-0.275769
11
1.76141
21
-0.279518
0
LINE
8
BLACK
6
CONTINUOUS
10
1.76141
20
-0.279518
11
1.75016
21
-0.279518
0
LINE
8
BLACK
6
CONTINUOUS
10
1.8214
20
-0.279518
11
1.8139
21
-0.275769
0
LINE
8
BLACK
6
CONTINUOUS
10
1.8139
20
-0.275769
11
1.81015
21
-0.26827
0
LINE
8
BLACK
6
CONTINUOUS
10
1.81015
20
-0.26827
11
1.81015
21
-0.200778
0
LINE
8
BLACK
6
CONTINUOUS
10
1.88139
20
-0.275769
11
1.87389
21
-0.279518
0
LINE
8
BLACK
6
CONTINUOUS
10
1.87389
20
-0.279518
11
1.8589
21
-0.279518
0
LINE
8
BLACK
6
CONTINUOUS
10
1.8589
20
-0.279518
11
1.8514
21
-0.275769
0
LINE
8
BLACK
6
CONTINUOUS
10
1.8514
20
-0.275769
11
1.84765
21
-0.26827
0
LINE
8
BLACK
6
CONTINUOUS
10
1.84765
20
-0.26827
11
1.84765
21
-0.238273
0
LINE
8
BLACK
6
CONTINUOUS
10
1.84765
20
-0.238273
11
1.8514
21
-0.230774
0
LINE
8
BLACK
6
CONTINUOUS
10
1.8514
20
-0.230774
11
1.8589
21
-0.227025
0
LINE
8
BLACK
6
CONTINUOUS
10
1.8589
20
-0.227025
11
1.87389
21
-0.227025
0
LINE
8
BLACK
6
CONTINUOUS
10
1.87389
20
-0.227025
11
1.88139
21
-0.230774
0
LINE
8
BLACK
6
CONTINUOUS
10
1.88139
20
-0.230774
11
1.88514
21
-0.238273
0
LINE
8
BLACK
6
CONTINUOUS
10
1.88514
20
-0.238273
11
1.88514
21
-0.245772
0
LINE
8
BLACK
6
CONTINUOUS
10
1.88514
20
-0.245772
11
1.84765
21
-0.253271
0
LINE
8
BLACK
6
CONTINUOUS
10
1.91514
20
-0.275769
11
1.92264
21
-0.279518
0
LINE
8
BLACK
6
CONTINUOUS
10
1.92264
20
-0.279518
11
1.93764
21
-0.279518
0
LINE
8
BLACK
6
CONTINUOUS
10
1.93764
20
-0.279518
11
1.94514
21
-0.275769
0
LINE
8
BLACK
6
CONTINUOUS
10
1.94514
20
-0.275769
11
1.94888
21
-0.26827
0
LINE
8
BLACK
6
CONTINUOUS
10
1.94888
20
-0.26827
11
1.94888
21
-0.26452
0
LINE
8
BLACK
6
CONTINUOUS
10
1.94888
20
-0.26452
11
1.94514
21
-0.257021
0
LINE
8
BLACK
6
CONTINUOUS
10
1.94514
20
-0.257021
11
1.93764
21
-0.253271
0
LINE
8
BLACK
6
CONTINUOUS
10
1.93764
20
-0.253271
11
1.92639
21
-0.253271
0
LINE
8
BLACK
6
CONTINUOUS
10
1.92639
20
-0.253271
11
1.91889
21
-0.249522
0
LINE
8
BLACK
6
CONTINUOUS
10
1.91889
20
-0.249522
11
1.91514
21
-0.242023
0
LINE
8
BLACK
6
CONTINUOUS
10
1.91514
20
-0.242023
11
1.91514
21
-0.238273
0
LINE
8
BLACK
6
CONTINUOUS
10
1.91514
20
-0.238273
11
1.91889
21
-0.230774
0
LINE
8
BLACK
6
CONTINUOUS
10
1.91889
20
-0.230774
11
1.92639
21
-0.227025
0
LINE
8
BLACK
6
CONTINUOUS
10
1.92639
20
-0.227025
11
1.93764
21
-0.227025
0
LINE
8
BLACK
6
CONTINUOUS
10
1.93764
20
-0.227025
11
1.94514
21
-0.230774
0
LINE
8
BLACK
6
CONTINUOUS
10
1.97513
20
-0.309514
11
1.97888
21
-0.305765
0
LINE
8
BLACK
6
CONTINUOUS
10
1.97888
20
-0.305765
11
1.98638
21
-0.294516
0
LINE
8
BLACK
6
CONTINUOUS
10
1.98638
20
-0.294516
11
1.99013
21
-0.287017
0
LINE
8
BLACK
6
CONTINUOUS
10
1.99013
20
-0.287017
11
1.99388
21
-0.275769
0
LINE
8
BLACK
6
CONTINUOUS
10
1.99388
20
-0.275769
11
1.99763
21
-0.257021
0
LINE
8
BLACK
6
CONTINUOUS
10
1.99763
20
-0.257021
11
1.99763
21
-0.242023
0
LINE
8
BLACK
6
CONTINUOUS
10
1.99763
20
-0.242023
11
1.99388
21
-0.223275
0
LINE
8
BLACK
6
CONTINUOUS
10
1.99388
20
-0.223275
11
1.99013
21
-0.212027
0
LINE
8
BLACK
6
CONTINUOUS
10
1.99013
20
-0.212027
11
1.98638
21
-0.204528
0
LINE
8
BLACK
6
CONTINUOUS
10
1.98638
20
-0.204528
11
1.97888
21
-0.193279
0
LINE
8
BLACK
6
CONTINUOUS
10
1.97888
20
-0.193279
11
1.97513
21
-0.189529
0
CIRCLE
8
BLACK
10
-0.0114173
20
-0.354528
40
0.0127953
0
LINE
8
BLACK
6
CONTINUOUS
10
0.113864
20
-0.304715
11
0.121363
21
-0.304715
0
LINE
8
BLACK
6
CONTINUOUS
10
0.121363
20
-0.304715
11
0.128862
21
-0.308465
0
LINE
8
BLACK
6
CONTINUOUS
10
0.128862
20
-0.308465
11
0.132612
21
-0.312214
0
LINE
8
BLACK
6
CONTINUOUS
10
0.132612
20
-0.312214
11
0.136361
21
-0.319713
0
LINE
8
BLACK
6
CONTINUOUS
10
0.136361
20
-0.319713
11
0.140111
21
-0.334711
0
LINE
8
BLACK
6
CONTINUOUS
10
0.140111
20
-0.334711
11
0.140111
21
-0.353459
0
LINE
8
BLACK
6
CONTINUOUS
10
0.140111
20
-0.353459
11
0.136361
21
-0.368457
0
LINE
8
BLACK
6
CONTINUOUS
10
0.136361
20
-0.368457
11
0.132612
21
-0.375956
0
LINE
8
BLACK
6
CONTINUOUS
10
0.132612
20
-0.375956
11
0.128862
21
-0.379706
0
LINE
8
BLACK
6
CONTINUOUS
10
0.128862
20
-0.379706
11
0.121363
21
-0.383455
0
LINE
8
BLACK
6
CONTINUOUS
10
0.121363
20
-0.383455
11
0.113864
21
-0.383455
0
LINE
8
BLACK
6
CONTINUOUS
10
0.113864
20
-0.383455
11
0.106365
21
-0.379706
0
LINE
8
BLACK
6
CONTINUOUS
10
0.106365
20
-0.379706
11
0.102615
21
-0.375956
0
LINE
8
BLACK
6
CONTINUOUS
10
0.102615
20
-0.375956
11
0.0988657
21
-0.368457
0
LINE
8
BLACK
6
CONTINUOUS
10
0.0988657
20
-0.368457
11
0.0951162
21
-0.353459
0
LINE
8
BLACK
6
CONTINUOUS
10
0.0951162
20
-0.353459
11
0.0951162
21
-0.334711
0
LINE
8
BLACK
6
CONTINUOUS
10
0.0951162
20
-0.334711
11
0.0988657
21
-0.319713
0
LINE
8
BLACK
6
CONTINUOUS
10
0.0988657
20
-0.319713
11
0.102615
21
-0.312214
0
LINE
8
BLACK
6
CONTINUOUS
10
0.102615
20
-0.312214
11
0.106365
21
-0.308465
0
LINE
8
BLACK
6
CONTINUOUS
10
0.106365
20
-0.308465
11
0.113864
21
-0.304715
0
LINE
8
BLACK
6
CONTINUOUS
10
0.173856
20
-0.375956
11
0.177606
21
-0.379706
0
LINE
8
BLACK
6
CONTINUOUS
10
0.177606
20
-0.379706
11
0.173856
21
-0.383455
0
LINE
8
BLACK
6
CONTINUOUS
10
0.173856
20
-0.383455
11
0.170107
21
-0.379706
0
LINE
8
BLACK
6
CONTINUOUS
10
0.170107
20
-0.379706
11
0.173856
21
-0.375956
0
LINE
8
BLACK
6
CONTINUOUS
10
0.173856
20
-0.375956
11
0.173856
21
-0.383455
0
LINE
8
BLACK
6
CONTINUOUS
10
0.245097
20
-0.304715
11
0.230099
21
-0.304715
0
LINE
8
BLACK
6
CONTINUOUS
10
0.230099
20
-0.304715
11
0.2226
21
-0.308465
0
LINE
8
BLACK
6
CONTINUOUS
10
0.2226
20
-0.308465
11
0.218851
21
-0.312214
0
LINE
8
BLACK
6
CONTINUOUS
10
0.218851
20
-0.312214
11
0.211352
21
-0.323463
0
LINE
8
BLACK
6
CONTINUOUS
10
0.211352
20
-0.323463
11
0.207602
21
-0.338461
0
LINE
8
BLACK
6
CONTINUOUS
10
0.207602
20
-0.338461
11
0.207602
21
-0.368457
0
LINE
8
BLACK
6
CONTINUOUS
10
0.207602
20
-0.368457
11
0.211352
21
-0.375956
0
LINE
8
BLACK
6
CONTINUOUS
10
0.211352
20
-0.375956
11
0.215101
21
-0.379706
0
LINE
8
BLACK
6
CONTINUOUS
10
0.215101
20
-0.379706
11
0.2226
21
-0.383455
0
LINE
8
BLACK
6
CONTINUOUS
10
0.2226
20
-0.383455
11
0.237598
21
-0.383455
0
LINE
8
BLACK
6
CONTINUOUS
10
0.237598
20
-0.383455
11
0.245097
21
-0.379706
0
LINE
8
BLACK
6
CONTINUOUS
10
0.245097
20
-0.379706
11
0.248847
21
-0.375956
0
LINE
8
BLACK
6
CONTINUOUS
10
0.248847
20
-0.375956
11
0.252597
21
-0.368457
0
LINE
8
BLACK
6
CONTINUOUS
10
0.252597
20
-0.368457
11
0.252597
21
-0.349709
0
LINE
8
BLACK
6
CONTINUOUS
10
0.252597
20
-0.349709
11
0.248847
21
-0.34221
0
LINE
8
BLACK
6
CONTINUOUS
10
0.248847
20
-0.34221
11
0.245097
21
-0.338461
0
LINE
8
BLACK
6
CONTINUOUS
10
0.245097
20
-0.338461
11
0.237598
21
-0.334711
0
LINE
8
BLACK
6
CONTINUOUS
10
0.237598
20
-0.334711
11
0.2226
21
-0.334711
0
LINE
8
BLACK
6
CONTINUOUS
10
0.2226
20
-0.334711
11
0.215101
21
-0.338461
0
LINE
8
BLACK
6
CONTINUOUS
10
0.215101
20
-0.338461
11
0.211352
21
-0.34221
0
LINE
8
BLACK
6
CONTINUOUS
10
0.211352
20
-0.34221
11
0.207602
21
-0.349709
0
LINE
8
BLACK
6
CONTINUOUS
10
0.323838
20
-0.304715
11
0.286342
21
-0.304715
0
LINE
8
BLACK
6
CONTINUOUS
10
0.286342
20
-0.304715
11
0.282593
21
-0.34221
0
LINE
8
BLACK
6
CONTINUOUS
10
0.282593
20
-0.34221
11
0.286342
21
-0.338461
0
LINE
8
BLACK
6
CONTINUOUS
10
0.286342
20
-0.338461
11
0.293841
21
-0.334711
0
LINE
8
BLACK
6
CONTINUOUS
10
0.293841
20
-0.334711
11
0.312589
21
-0.334711
0
LINE
8
BLACK
6
CONTINUOUS
10
0.312589
20
-0.334711
11
0.320088
21
-0.338461
0
LINE
8
BLACK
6
CONTINUOUS
10
0.320088
20
-0.338461
11
0.323838
21
-0.34221
0
LINE
8
BLACK
6
CONTINUOUS
10
0.323838
20
-0.34221
11
0.327587
21
-0.349709
0
LINE
8
BLACK
6
CONTINUOUS
10
0.327587
20
-0.349709
11
0.327587
21
-0.368457
0
LINE
8
BLACK
6
CONTINUOUS
10
0.327587
20
-0.368457
11
0.323838
21
-0.375956
0
LINE
8
BLACK
6
CONTINUOUS
10
0.323838
20
-0.375956
11
0.320088
21
-0.379706
0
LINE
8
BLACK
6
CONTINUOUS
10
0.320088
20
-0.379706
11
0.312589
21
-0.383455
0
LINE
8
BLACK
6
CONTINUOUS
10
0.312589
20
-0.383455
11
0.293841
21
-0.383455
0
LINE
8
BLACK
6
CONTINUOUS
10
0.293841
20
-0.383455
11
0.286342
21
-0.379706
0
LINE
8
BLACK
6
CONTINUOUS
10
0.286342
20
-0.379706
11
0.282593
21
-0.375956
0
LINE
8
BLACK
6
CONTINUOUS
10
0.376331
20
-0.304715
11
0.38383
21
-0.304715
0
LINE
8
BLACK
6
CONTINUOUS
10
0.38383
20
-0.304715
11
0.391329
21
-0.308465
0
LINE
8
BLACK
6
CONTINUOUS
10
0.391329
20
-0.308465
11
0.395079
21
-0.312214
0
LINE
8
BLACK
6
CONTINUOUS
10
0.395079
20
-0.312214
11
0.398828
21
-0.319713
0
LINE
8
BLACK
6
CONTINUOUS
10
0.398828
20
-0.319713
11
0.402578
21
-0.334711
0
LINE
8
BLACK
6
CONTINUOUS
10
0.402578
20
-0.334711
11
0.402578
21
-0.353459
0
LINE
8
BLACK
6
CONTINUOUS
10
0.402578
20
-0.353459
11
0.398828
21
-0.368457
0
LINE
8
BLACK
6
CONTINUOUS
10
0.398828
20
-0.368457
11
0.395079
21
-0.375956
0
LINE
8
BLACK
6
CONTINUOUS
10
0.395079
20
-0.375956
11
0.391329
21
-0.379706
0
LINE
8
BLACK
6
CONTINUOUS
10
0.391329
20
-0.379706
11
0.38383
21
-0.383455
0
LINE
8
BLACK
6
CONTINUOUS
10
0.38383
20
-0.383455
11
0.376331
21
-0.383455
0
LINE
8
BLACK
6
CONTINUOUS
10
0.376331
20
-0.383455
11
0.368832
21
-0.379706
0
LINE
8
BLACK
6
CONTINUOUS
10
0.368832
20
-0.379706
11
0.365082
21
-0.375956
0
LINE
8
BLACK
6
CONTINUOUS
10
0.365082
20
-0.375956
11
0.361333
21
-0.368457
0
LINE
8
BLACK
6
CONTINUOUS
10
0.361333
20
-0.368457
11
0.357583
21
-0.353459
0
LINE
8
BLACK
6
CONTINUOUS
10
0.357583
20
-0.353459
11
0.357583
21
-0.334711
0
LINE
8
BLACK
6
CONTINUOUS
10
0.357583
20
-0.334711
11
0.361333
21
-0.319713
0
LINE
8
BLACK
6
CONTINUOUS
10
0.361333
20
-0.319713
11
0.365082
21
-0.312214
0
LINE
8
BLACK
6
CONTINUOUS
10
0.365082
20
-0.312214
11
0.368832
21
-0.308465
0
LINE
8
BLACK
6
CONTINUOUS
10
0.368832
20
-0.308465
11
0.376331
21
-0.304715
0
LINE
8
BLACK
6
CONTINUOUS
10
0.436324
20
-0.383455
11
0.436324
21
-0.330962
0
LINE
8
BLACK
6
CONTINUOUS
10
0.436324
20
-0.338461
11
0.440073
21
-0.334711
0
LINE
8
BLACK
6
CONTINUOUS
10
0.440073
20
-0.334711
11
0.447572
21
-0.330962
0
LINE
8
BLACK
6
CONTINUOUS
10
0.447572
20
-0.330962
11
0.458821
21
-0.330962
0
LINE
8
BLACK
6
CONTINUOUS
10
0.458821
20
-0.330962
11
0.46632
21
-0.334711
0
LINE
8
BLACK
6
CONTINUOUS
10
0.46632
20
-0.334711
11
0.470069
21
-0.34221
0
LINE
8
BLACK
6
CONTINUOUS
10
0.470069
20
-0.34221
11
0.470069
21
-0.383455
0
LINE
8
BLACK
6
CONTINUOUS
10
0.470069
20
-0.34221
11
0.473819
21
-0.334711
0
LINE
8
BLACK
6
CONTINUOUS
10
0.473819
20
-0.334711
11
0.481318
21
-0.330962
0
LINE
8
BLACK
6
CONTINUOUS
10
0.481318
20
-0.330962
11
0.492567
21
-0.330962
0
LINE
8
BLACK
6
CONTINUOUS
10
0.492567
20
-0.330962
11
0.500066
21
-0.334711
0
LINE
8
BLACK
6
CONTINUOUS
10
0.500066
20
-0.334711
11
0.503815
21
-0.34221
0
LINE
8
BLACK
6
CONTINUOUS
10
0.503815
20
-0.34221
11
0.503815
21
-0.383455
0
LINE
8
BLACK
6
CONTINUOUS
10
0.54131
20
-0.383455
11
0.54131
21
-0.330962
0
LINE
8
BLACK
6
CONTINUOUS
10
0.54131
20
-0.338461
11
0.54506
21
-0.334711
0
LINE
8
BLACK
6
CONTINUOUS
10
0.54506
20
-0.334711
11
0.552559
21
-0.330962
0
LINE
8
BLACK
6
CONTINUOUS
10
0.552559
20
-0.330962
11
0.563808
21
-0.330962
0
LINE
8
BLACK
6
CONTINUOUS
10
0.563808
20
-0.330962
11
0.571307
21
-0.334711
0
LINE
8
BLACK
6
CONTINUOUS
10
0.571307
20
-0.334711
11
0.575056
21
-0.34221
0
LINE
8
BLACK
6
CONTINUOUS
10
0.575056
20
-0.34221
11
0.575056
21
-0.383455
0
LINE
8
BLACK
6
CONTINUOUS
10
0.575056
20
-0.34221
11
0.578806
21
-0.334711
0
LINE
8
BLACK
6
CONTINUOUS
10
0.578806
20
-0.334711
11
0.586305
21
-0.330962
0
LINE
8
BLACK
6
CONTINUOUS
10
0.586305
20
-0.330962
11
0.597553
21
-0.330962
0
LINE
8
BLACK
6
CONTINUOUS
10
0.597553
20
-0.330962
11
0.605053
21
-0.334711
0
LINE
8
BLACK
6
CONTINUOUS
10
0.605053
20
-0.334711
11
0.608802
21
-0.34221
0
LINE
8
BLACK
6
CONTINUOUS
10
0.608802
20
-0.34221
11
0.608802
21
-0.383455
0
LINE
8
BLACK
6
CONTINUOUS
10
0.749784
20
-0.300965
11
0.682293
21
-0.402203
0
LINE
8
BLACK
6
CONTINUOUS
10
0.838273
20
-0.304715
11
0.845772
21
-0.304715
0
LINE
8
BLACK
6
CONTINUOUS
10
0.845772
20
-0.304715
11
0.853271
21
-0.308465
0
LINE
8
BLACK
6
CONTINUOUS
10
0.853271
20
-0.308465
11
0.857021
21
-0.312214
0
LINE
8
BLACK
6
CONTINUOUS
10
0.857021
20
-0.312214
11
0.860771
21
-0.319713
0
LINE
8
BLACK
6
CONTINUOUS
10
0.860771
20
-0.319713
11
0.86452
21
-0.334711
0
LINE
8
BLACK
6
CONTINUOUS
10
0.86452
20
-0.334711
11
0.86452
21
-0.353459
0
LINE
8
BLACK
6
CONTINUOUS
10
0.86452
20
-0.353459
11
0.860771
21
-0.368457
0
LINE
8
BLACK
6
CONTINUOUS
10
0.860771
20
-0.368457
11
0.857021
21
-0.375956
0
LINE
8
BLACK
6
CONTINUOUS
10
0.857021
20
-0.375956
11
0.853271
21
-0.379706
0
LINE
8
BLACK
6
CONTINUOUS
10
0.853271
20
-0.379706
11
0.845772
21
-0.383455
0
LINE
8
BLACK
6
CONTINUOUS
10
0.845772
20
-0.383455
11
0.838273
21
-0.383455
0
LINE
8
BLACK
6
CONTINUOUS
10
0.838273
20
-0.383455
11
0.830774
21
-0.379706
0
LINE
8
BLACK
6
CONTINUOUS
10
0.830774
20
-0.379706
11
0.827025
21
-0.375956
0
LINE
8
BLACK
6
CONTINUOUS
10
0.827025
20
-0.375956
11
0.823275
21
-0.368457
0
LINE
8
BLACK
6
CONTINUOUS
10
0.823275
20
-0.368457
11
0.819526
21
-0.353459
0
LINE
8
BLACK
6
CONTINUOUS
10
0.819526
20
-0.353459
11
0.819526
21
-0.334711
0
LINE
8
BLACK
6
CONTINUOUS
10
0.819526
20
-0.334711
11
0.823275
21
-0.319713
0
LINE
8
BLACK
6
CONTINUOUS
10
0.823275
20
-0.319713
11
0.827025
21
-0.312214
0
LINE
8
BLACK
6
CONTINUOUS
10
0.827025
20
-0.312214
11
0.830774
21
-0.308465
0
LINE
8
BLACK
6
CONTINUOUS
10
0.830774
20
-0.308465
11
0.838273
21
-0.304715
0
LINE
8
BLACK
6
CONTINUOUS
10
0.898266
20
-0.375956
11
0.902015
21
-0.379706
0
LINE
8
BLACK
6
CONTINUOUS
10
0.902015
20
-0.379706
11
0.898266
21
-0.383455
0
LINE
8
BLACK
6
CONTINUOUS
10
0.898266
20
-0.383455
11
0.894516
21
-0.379706
0
LINE
8
BLACK
6
CONTINUOUS
10
0.894516
20
-0.379706
11
0.898266
21
-0.375956
0
LINE
8
BLACK
6
CONTINUOUS
10
0.898266
20
-0.375956
11
0.898266
21
-0.383455
0
LINE
8
BLACK
6
CONTINUOUS
10
0.950759
20
-0.304715
11
0.958258
21
-0.304715
0
LINE
8
BLACK
6
CONTINUOUS
10
0.958258
20
-0.304715
11
0.965757
21
-0.308465
0
LINE
8
BLACK
6
CONTINUOUS
10
0.965757
20
-0.308465
11
0.969507
21
-0.312214
0
LINE
8
BLACK
6
CONTINUOUS
10
0.969507
20
-0.312214
11
0.973256
21
-0.319713
0
LINE
8
BLACK
6
CONTINUOUS
10
0.973256
20
-0.319713
11
0.977006
21
-0.334711
0
LINE
8
BLACK
6
CONTINUOUS
10
0.977006
20
-0.334711
11
0.977006
21
-0.353459
0
LINE
8
BLACK
6
CONTINUOUS
10
0.977006
20
-0.353459
11
0.973256
21
-0.368457
0
LINE
8
BLACK
6
CONTINUOUS
10
0.973256
20
-0.368457
11
0.969507
21
-0.375956
0
LINE
8
BLACK
6
CONTINUOUS
10
0.969507
20
-0.375956
11
0.965757
21
-0.379706
0
LINE
8
BLACK
6
CONTINUOUS
10
0.965757
20
-0.379706
11
0.958258
21
-0.383455
0
LINE
8
BLACK
6
CONTINUOUS
10
0.958258
20
-0.383455
11
0.950759
21
-0.383455
0
LINE
8
BLACK
6
CONTINUOUS
10
0.950759
20
-0.383455
11
0.94326
21
-0.379706
0
LINE
8
BLACK
6
CONTINUOUS
10
0.94326
20
-0.379706
11
0.939511
21
-0.375956
0
LINE
8
BLACK
6
CONTINUOUS
10
0.939511
20
-0.375956
11
0.935761
21
-0.368457
0
LINE
8
BLACK
6
CONTINUOUS
10
0.935761
20
-0.368457
11
0.932012
21
-0.353459
0
LINE
8
BLACK
6
CONTINUOUS
10
0.932012
20
-0.353459
11
0.932012
21
-0.334711
0
LINE
8
BLACK
6
CONTINUOUS
10
0.932012
20
-0.334711
11
0.935761
21
-0.319713
0
LINE
8
BLACK
6
CONTINUOUS
10
0.935761
20
-0.319713
11
0.939511
21
-0.312214
0
LINE
8
BLACK
6
CONTINUOUS
10
0.939511
20
-0.312214
11
0.94326
21
-0.308465
0
LINE
8
BLACK
6
CONTINUOUS
10
0.94326
20
-0.308465
11
0.950759
21
-0.304715
0
LINE
8
BLACK
6
CONTINUOUS
10
1.007
20
-0.312214
11
1.01075
21
-0.308465
0
LINE
8
BLACK
6
CONTINUOUS
10
1.01075
20
-0.308465
11
1.01825
21
-0.304715
0
LINE
8
BLACK
6
CONTINUOUS
10
1.01825
20
-0.304715
11
1.037
21
-0.304715
0
LINE
8
BLACK
6
CONTINUOUS
10
1.037
20
-0.304715
11
1.0445
21
-0.308465
0
LINE
8
BLACK
6
CONTINUOUS
10
1.0445
20
-0.308465
11
1.04825
21
-0.312214
0
LINE
8
BLACK
6
CONTINUOUS
10
1.04825
20
-0.312214
11
1.052
21
-0.319713
0
LINE
8
BLACK
6
CONTINUOUS
10
1.052
20
-0.319713
11
1.052
21
-0.327212
0
LINE
8
BLACK
6
CONTINUOUS
10
1.052
20
-0.327212
11
1.04825
21
-0.338461
0
LINE
8
BLACK
6
CONTINUOUS
10
1.04825
20
-0.338461
11
1.00325
21
-0.383455
0
LINE
8
BLACK
6
CONTINUOUS
10
1.00325
20
-0.383455
11
1.052
21
-0.383455
0
LINE
8
BLACK
6
CONTINUOUS
10
1.12324
20
-0.304715
11
1.08574
21
-0.304715
0
LINE
8
BLACK
6
CONTINUOUS
10
1.08574
20
-0.304715
11
1.08199
21
-0.34221
0
LINE
8
BLACK
6
CONTINUOUS
10
1.08199
20
-0.34221
11
1.08574
21
-0.338461
0
LINE
8
BLACK
6
CONTINUOUS
10
1.08574
20
-0.338461
11
1.09324
21
-0.334711
0
LINE
8
BLACK
6
CONTINUOUS
10
1.09324
20
-0.334711
11
1.11199
21
-0.334711
0
LINE
8
BLACK
6
CONTINUOUS
10
1.11199
20
-0.334711
11
1.11949
21
-0.338461
0
LINE
8
BLACK
6
CONTINUOUS
10
1.11949
20
-0.338461
11
1.12324
21
-0.34221
0
LINE
8
BLACK
6
CONTINUOUS
10
1.12324
20
-0.34221
11
1.12699
21
-0.349709
0
LINE
8
BLACK
6
CONTINUOUS
10
1.12699
20
-0.349709
11
1.12699
21
-0.368457
0
LINE
8
BLACK
6
CONTINUOUS
10
1.12699
20
-0.368457
11
1.12324
21
-0.375956
0
LINE
8
BLACK
6
CONTINUOUS
10
1.12324
20
-0.375956
11
1.11949
21
-0.379706
0
LINE
8
BLACK
6
CONTINUOUS
10
1.11949
20
-0.379706
11
1.11199
21
-0.383455
0
LINE
8
BLACK
6
CONTINUOUS
10
1.11199
20
-0.383455
11
1.09324
21
-0.383455
0
LINE
8
BLACK
6
CONTINUOUS
10
1.09324
20
-0.383455
11
1.08574
21
-0.379706
0
LINE
8
BLACK
6
CONTINUOUS
10
1.08574
20
-0.379706
11
1.08199
21
-0.375956
0
LINE
8
BLACK
6
CONTINUOUS
10
1.19448
20
-0.304715
11
1.17948
21
-0.304715
0
LINE
8
BLACK
6
CONTINUOUS
10
1.17948
20
-0.304715
11
1.17198
21
-0.308465
0
LINE
8
BLACK
6
CONTINUOUS
10
1.17198
20
-0.308465
11
1.16823
21
-0.312214
0
LINE
8
BLACK
6
CONTINUOUS
10
1.16823
20
-0.312214
11
1.16073
21
-0.323463
0
LINE
8
BLACK
6
CONTINUOUS
10
1.16073
20
-0.323463
11
1.15698
21
-0.338461
0
LINE
8
BLACK
6
CONTINUOUS
10
1.15698
20
-0.338461
11
1.15698
21
-0.368457
0
LINE
8
BLACK
6
CONTINUOUS
10
1.15698
20
-0.368457
11
1.16073
21
-0.375956
0
LINE
8
BLACK
6
CONTINUOUS
10
1.16073
20
-0.375956
11
1.16448
21
-0.379706
0
LINE
8
BLACK
6
CONTINUOUS
10
1.16448
20
-0.379706
11
1.17198
21
-0.383455
0
LINE
8
BLACK
6
CONTINUOUS
10
1.17198
20
-0.383455
11
1.18698
21
-0.383455
0
LINE
8
BLACK
6
CONTINUOUS
10
1.18698
20
-0.383455
11
1.19448
21
-0.379706
0
LINE
8
BLACK
6
CONTINUOUS
10
1.19448
20
-0.379706
11
1.19823
21
-0.375956
0
LINE
8
BLACK
6
CONTINUOUS
10
1.19823
20
-0.375956
11
1.20198
21
-0.368457
0
LINE
8
BLACK
6
CONTINUOUS
10
1.20198
20
-0.368457
11
1.20198
21
-0.349709
0
LINE
8
BLACK
6
CONTINUOUS
10
1.20198
20
-0.349709
11
1.19823
21
-0.34221
0
LINE
8
BLACK
6
CONTINUOUS
10
1.19823
20
-0.34221
11
1.19448
21
-0.338461
0
LINE
8
BLACK
6
CONTINUOUS
10
1.19448
20
-0.338461
11
1.18698
21
-0.334711
0
LINE
8
BLACK
6
CONTINUOUS
10
1.18698
20
-0.334711
11
1.17198
21
-0.334711
0
LINE
8
BLACK
6
CONTINUOUS
10
1.17198
20
-0.334711
11
1.16448
21
-0.338461
0
LINE
8
BLACK
6
CONTINUOUS
10
1.16448
20
-0.338461
11
1.16073
21
-0.34221
0
LINE
8
BLACK
6
CONTINUOUS
10
1.16073
20
-0.34221
11
1.15698
21
-0.349709
0
LINE
8
BLACK
6
CONTINUOUS
10
1.23197
20
-0.304715
11
1.23197
21
-0.319713
0
LINE
8
BLACK
6
CONTINUOUS
10
1.26197
20
-0.304715
11
1.26197
21
-0.319713
0
LINE
8
BLACK
6
CONTINUOUS
10
1.36546
20
-0.413451
11
1.36171
21
-0.409702
0
LINE
8
BLACK
6
CONTINUOUS
10
1.36171
20
-0.409702
11
1.35421
21
-0.398453
0
LINE
8
BLACK
6
CONTINUOUS
10
1.35421
20
-0.398453
11
1.35046
21
-0.390954
0
LINE
8
BLACK
6
CONTINUOUS
10
1.35046
20
-0.390954
11
1.34671
21
-0.379706
0
LINE
8
BLACK
6
CONTINUOUS
10
1.34671
20
-0.379706
11
1.34296
21
-0.360958
0
LINE
8
BLACK
6
CONTINUOUS
10
1.34296
20
-0.360958
11
1.34296
21
-0.34596
0
LINE
8
BLACK
6
CONTINUOUS
10
1.34296
20
-0.34596
11
1.34671
21
-0.327212
0
LINE
8
BLACK
6
CONTINUOUS
10
1.34671
20
-0.327212
11
1.35046
21
-0.315964
0
LINE
8
BLACK
6
CONTINUOUS
10
1.35046
20
-0.315964
11
1.35421
21
-0.308465
0
LINE
8
BLACK
6
CONTINUOUS
10
1.35421
20
-0.308465
11
1.36171
21
-0.297216
0
LINE
8
BLACK
6
CONTINUOUS
10
1.36171
20
-0.297216
11
1.36546
21
-0.293466
0
LINE
8
BLACK
6
CONTINUOUS
10
1.38795
20
-0.304715
11
1.44045
21
-0.304715
0
LINE
8
BLACK
6
CONTINUOUS
10
1.44045
20
-0.304715
11
1.4067
21
-0.383455
0
LINE
8
BLACK
6
CONTINUOUS
10
1.51769
20
-0.383455
11
1.51769
21
-0.304715
0
LINE
8
BLACK
6
CONTINUOUS
10
1.55143
20
-0.383455
11
1.55143
21
-0.34221
0
LINE
8
BLACK
6
CONTINUOUS
10
1.55143
20
-0.34221
11
1.54768
21
-0.334711
0
LINE
8
BLACK
6
CONTINUOUS
10
1.54768
20
-0.334711
11
1.54019
21
-0.330962
0
LINE
8
BLACK
6
CONTINUOUS
10
1.54019
20
-0.330962
11
1.52894
21
-0.330962
0
LINE
8
BLACK
6
CONTINUOUS
10
1.52894
20
-0.330962
11
1.52144
21
-0.334711
0
LINE
8
BLACK
6
CONTINUOUS
10
1.52144
20
-0.334711
11
1.51769
21
-0.338461
0
LINE
8
BLACK
6
CONTINUOUS
10
1.60018
20
-0.383455
11
1.59268
21
-0.379706
0
LINE
8
BLACK
6
CONTINUOUS
10
1.59268
20
-0.379706
11
1.58893
21
-0.375956
0
LINE
8
BLACK
6
CONTINUOUS
10
1.58893
20
-0.375956
11
1.58518
21
-0.368457
0
LINE
8
BLACK
6
CONTINUOUS
10
1.58518
20
-0.368457
11
1.58518
21
-0.34596
0
LINE
8
BLACK
6
CONTINUOUS
10
1.58518
20
-0.34596
11
1.58893
21
-0.338461
0
LINE
8
BLACK
6
CONTINUOUS
10
1.58893
20
-0.338461
11
1.59268
21
-0.334711
0
LINE
8
BLACK
6
CONTINUOUS
10
1.59268
20
-0.334711
11
1.60018
21
-0.330962
0
LINE
8
BLACK
6
CONTINUOUS
10
1.60018
20
-0.330962
11
1.61143
21
-0.330962
0
LINE
8
BLACK
6
CONTINUOUS
10
1.61143
20
-0.330962
11
1.61893
21
-0.334711
0
LINE
8
BLACK
6
CONTINUOUS
10
1.61893
20
-0.334711
11
1.62268
21
-0.338461
0
LINE
8
BLACK
6
CONTINUOUS
10
1.62268
20
-0.338461
11
1.62642
21
-0.34596
0
LINE
8
BLACK
6
CONTINUOUS
10
1.62642
20
-0.34596
11
1.62642
21
-0.368457
0
LINE
8
BLACK
6
CONTINUOUS
10
1.62642
20
-0.368457
11
1.62268
21
-0.375956
0
LINE
8
BLACK
6
CONTINUOUS
10
1.62268
20
-0.375956
11
1.61893
21
-0.379706
0
LINE
8
BLACK
6
CONTINUOUS
10
1.61893
20
-0.379706
11
1.61143
21
-0.383455
0
LINE
8
BLACK
6
CONTINUOUS
10
1.61143
20
-0.383455
11
1.60018
21
-0.383455
0
LINE
8
BLACK
6
CONTINUOUS
10
1.67142
20
-0.383455
11
1.66392
21
-0.379706
0
LINE
8
BLACK
6
CONTINUOUS
10
1.66392
20
-0.379706
11
1.66017
21
-0.372207
0
LINE
8
BLACK
6
CONTINUOUS
10
1.66017
20
-0.372207
11
1.66017
21
-0.304715
0
LINE
8
BLACK
6
CONTINUOUS
10
1.73141
20
-0.379706
11
1.72391
21
-0.383455
0
LINE
8
BLACK
6
CONTINUOUS
10
1.72391
20
-0.383455
11
1.70891
21
-0.383455
0
LINE
8
BLACK
6
CONTINUOUS
10
1.70891
20
-0.383455
11
1.70142
21
-0.379706
0
LINE
8
BLACK
6
CONTINUOUS
10
1.70142
20
-0.379706
11
1.69767
21
-0.372207
0
LINE
8
BLACK
6
CONTINUOUS
10
1.69767
20
-0.372207
11
1.69767
21
-0.34221
0
LINE
8
BLACK
6
CONTINUOUS
10
1.69767
20
-0.34221
11
1.70142
21
-0.334711
0
LINE
8
BLACK
6
CONTINUOUS
10
1.70142
20
-0.334711
11
1.70891
21
-0.330962
0
LINE
8
BLACK
6
CONTINUOUS
10
1.70891
20
-0.330962
11
1.72391
21
-0.330962
0
LINE
8
BLACK
6
CONTINUOUS
10
1.72391
20
-0.330962
11
1.73141
21
-0.334711
0
LINE
8
BLACK
6
CONTINUOUS
10
1.73141
20
-0.334711
11
1.73516
21
-0.34221
0
LINE
8
BLACK
6
CONTINUOUS
10
1.73516
20
-0.34221
11
1.73516
21
-0.349709
0
LINE
8
BLACK
6
CONTINUOUS
10
1.73516
20
-0.349709
11
1.69767
21
-0.357208
0
LINE
8
BLACK
6
CONTINUOUS
10
1.76516
20
-0.379706
11
1.77266
21
-0.383455
0
LINE
8
BLACK
6
CONTINUOUS
10
1.77266
20
-0.383455
11
1.78765
21
-0.383455
0
LINE
8
BLACK
6
CONTINUOUS
10
1.78765
20
-0.383455
11
1.79515
21
-0.379706
0
LINE
8
BLACK
6
CONTINUOUS
10
1.79515
20
-0.379706
11
1.7989
21
-0.372207
0
LINE
8
BLACK
6
CONTINUOUS
10
1.7989
20
-0.372207
11
1.7989
21
-0.368457
0
LINE
8
BLACK
6
CONTINUOUS
10
1.7989
20
-0.368457
11
1.79515
21
-0.360958
0
LINE
8
BLACK
6
CONTINUOUS
10
1.79515
20
-0.360958
11
1.78765
21
-0.357208
0
LINE
8
BLACK
6
CONTINUOUS
10
1.78765
20
-0.357208
11
1.77641
21
-0.357208
0
LINE
8
BLACK
6
CONTINUOUS
10
1.77641
20
-0.357208
11
1.76891
21
-0.353459
0
LINE
8
BLACK
6
CONTINUOUS
10
1.76891
20
-0.353459
11
1.76516
21
-0.34596
0
LINE
8
BLACK
6
CONTINUOUS
10
1.76516
20
-0.34596
11
1.76516
21
-0.34221
0
LINE
8
BLACK
6
CONTINUOUS
10
1.76516
20
-0.34221
11
1.76891
21
-0.334711
0
LINE
8
BLACK
6
CONTINUOUS
10
1.76891
20
-0.334711
11
1.77641
21
-0.330962
0
LINE
8
BLACK
6
CONTINUOUS
10
1.77641
20
-0.330962
11
1.78765
21
-0.330962
0
LINE
8
BLACK
6
CONTINUOUS
10
1.78765
20
-0.330962
11
1.79515
21
-0.334711
0
LINE
8
BLACK
6
CONTINUOUS
10
1.82515
20
-0.413451
11
1.8289
21
-0.409702
0
LINE
8
BLACK
6
CONTINUOUS
10
1.8289
20
-0.409702
11
1.8364
21
-0.398453
0
LINE
8
BLACK
6
CONTINUOUS
10
1.8364
20
-0.398453
11
1.84015
21
-0.390954
0
LINE
8
BLACK
6
CONTINUOUS
10
1.84015
20
-0.390954
11
1.8439
21
-0.379706
0
LINE
8
BLACK
6
CONTINUOUS
10
1.8439
20
-0.379706
11
1.84765
21
-0.360958
0
LINE
8
BLACK
6
CONTINUOUS
10
1.84765
20
-0.360958
11
1.84765
21
-0.34596
0
LINE
8
BLACK
6
CONTINUOUS
10
1.84765
20
-0.34596
11
1.8439
21
-0.327212
0
LINE
8
BLACK
6
CONTINUOUS
10
1.8439
20
-0.327212
11
1.84015
21
-0.315964
0
LINE
8
BLACK
6
CONTINUOUS
10
1.84015
20
-0.315964
11
1.8364
21
-0.308465
0
LINE
8
BLACK
6
CONTINUOUS
10
1.8364
20
-0.308465
11
1.8289
21
-0.297216
0
LINE
8
BLACK
6
CONTINUOUS
10
1.8289
20
-0.297216
11
1.82515
21
-0.293466
0
LINE
8
BLACK
6
CONTINUOUS
10
-0.0133858
20
-0.443701
11
-0.0133858
21
-0.473228
0
LINE
8
BLACK
6
CONTINUOUS
10
-0.0281496
20
-0.458465
11
0.00137795
21
-0.458465
0
LINE
8
BLACK
6
CONTINUOUS
10
0.113864
20
-0.408652
11
0.121363
21
-0.408652
0
LINE
8
BLACK
6
CONTINUOUS
10
0.121363
20
-0.408652
11
0.128862
21
-0.412402
0
LINE
8
BLACK
6
CONTINUOUS
10
0.128862
20
-0.412402
11
0.132612
21
-0.416151
0
LINE
8
BLACK
6
CONTINUOUS
10
0.132612
20
-0.416151
11
0.136361
21
-0.42365
0
LINE
8
BLACK
6
CONTINUOUS
10
0.136361
20
-0.42365
11
0.140111
21
-0.438648
0
LINE
8
BLACK
6
CONTINUOUS
10
0.140111
20
-0.438648
11
0.140111
21
-0.457396
0
LINE
8
BLACK
6
CONTINUOUS
10
0.140111
20
-0.457396
11
0.136361
21
-0.472394
0
LINE
8
BLACK
6
CONTINUOUS
10
0.136361
20
-0.472394
11
0.132612
21
-0.479893
0
LINE
8
BLACK
6
CONTINUOUS
10
0.132612
20
-0.479893
11
0.128862
21
-0.483643
0
LINE
8
BLACK
6
CONTINUOUS
10
0.128862
20
-0.483643
11
0.121363
21
-0.487392
0
LINE
8
BLACK
6
CONTINUOUS
10
0.121363
20
-0.487392
11
0.113864
21
-0.487392
0
LINE
8
BLACK
6
CONTINUOUS
10
0.113864
20
-0.487392
11
0.106365
21
-0.483643
0
LINE
8
BLACK
6
CONTINUOUS
10
0.106365
20
-0.483643
11
0.102615
21
-0.479893
0
LINE
8
BLACK
6
CONTINUOUS
10
0.102615
20
-0.479893
11
0.0988657
21
-0.472394
0
LINE
8
BLACK
6
CONTINUOUS
10
0.0988657
20
-0.472394
11
0.0951162
21
-0.457396
0
LINE
8
BLACK
6
CONTINUOUS
10
0.0951162
20
-0.457396
11
0.0951162
21
-0.438648
0
LINE
8
BLACK
6
CONTINUOUS
10
0.0951162
20
-0.438648
11
0.0988657
21
-0.42365
0
LINE
8
BLACK
6
CONTINUOUS
10
0.0988657
20
-0.42365
11
0.102615
21
-0.416151
0
LINE
8
BLACK
6
CONTINUOUS
10
0.102615
20
-0.416151
11
0.106365
21
-0.412402
0
LINE
8
BLACK
6
CONTINUOUS
10
0.106365
20
-0.412402
11
0.113864
21
-0.408652
0
LINE
8
BLACK
6
CONTINUOUS
10
0.173856
20
-0.479893
11
0.177606
21
-0.483643
0
LINE
8
BLACK
6
CONTINUOUS
10
0.177606
20
-0.483643
11
0.173856
21
-0.487392
0
LINE
8
BLACK
6
CONTINUOUS
10
0.173856
20
-0.487392
11
0.170107
21
-0.483643
0
LINE
8
BLACK
6
CONTINUOUS
10
0.170107
20
-0.483643
11
0.173856
21
-0.479893
0
LINE
8
BLACK
6
CONTINUOUS
10
0.173856
20
-0.479893
11
0.173856
21
-0.487392
0
LINE
8
BLACK
6
CONTINUOUS
10
0.203853
20
-0.408652
11
0.256346
21
-0.408652
0
LINE
8
BLACK
6
CONTINUOUS
10
0.256346
20
-0.408652
11
0.2226
21
-0.487392
0
LINE
8
BLACK
6
CONTINUOUS
10
0.323838
20
-0.408652
11
0.286342
21
-0.408652
0
LINE
8
BLACK
6
CONTINUOUS
10
0.286342
20
-0.408652
11
0.282593
21
-0.446147
0
LINE
8
BLACK
6
CONTINUOUS
10
0.282593
20
-0.446147
11
0.286342
21
-0.442398
0
LINE
8
BLACK
6
CONTINUOUS
10
0.286342
20
-0.442398
11
0.293841
21
-0.438648
0
LINE
8
BLACK
6
CONTINUOUS
10
0.293841
20
-0.438648
11
0.312589
21
-0.438648
0
LINE
8
BLACK
6
CONTINUOUS
10
0.312589
20
-0.438648
11
0.320088
21
-0.442398
0
LINE
8
BLACK
6
CONTINUOUS
10
0.320088
20
-0.442398
11
0.323838
21
-0.446147
0
LINE
8
BLACK
6
CONTINUOUS
10
0.323838
20
-0.446147
11
0.327587
21
-0.453646
0
LINE
8
BLACK
6
CONTINUOUS
10
0.327587
20
-0.453646
11
0.327587
21
-0.472394
0
LINE
8
BLACK
6
CONTINUOUS
10
0.327587
20
-0.472394
11
0.323838
21
-0.479893
0
LINE
8
BLACK
6
CONTINUOUS
10
0.323838
20
-0.479893
11
0.320088
21
-0.483643
0
LINE
8
BLACK
6
CONTINUOUS
10
0.320088
20
-0.483643
11
0.312589
21
-0.487392
0
LINE
8
BLACK
6
CONTINUOUS
10
0.312589
20
-0.487392
11
0.293841
21
-0.487392
0
LINE
8
BLACK
6
CONTINUOUS
10
0.293841
20
-0.487392
11
0.286342
21
-0.483643
0
LINE
8
BLACK
6
CONTINUOUS
10
0.286342
20
-0.483643
11
0.282593
21
-0.479893
0
LINE
8
BLACK
6
CONTINUOUS
10
0.376331
20
-0.408652
11
0.38383
21
-0.408652
0
LINE
8
BLACK
6
CONTINUOUS
10
0.38383
20
-0.408652
11
0.391329
21
-0.412402
0
LINE
8
BLACK
6
CONTINUOUS
10
0.391329
20
-0.412402
11
0.395079
21
-0.416151
0
LINE
8
BLACK
6
CONTINUOUS
10
0.395079
20
-0.416151
11
0.398828
21
-0.42365
0
LINE
8
BLACK
6
CONTINUOUS
10
0.398828
20
-0.42365
11
0.402578
21
-0.438648
0
LINE
8
BLACK
6
CONTINUOUS
10
0.402578
20
-0.438648
11
0.402578
21
-0.457396
0
LINE
8
BLACK
6
CONTINUOUS
10
0.402578
20
-0.457396
11
0.398828
21
-0.472394
0
LINE
8
BLACK
6
CONTINUOUS
10
0.398828
20
-0.472394
11
0.395079
21
-0.479893
0
LINE
8
BLACK
6
CONTINUOUS
10
0.395079
20
-0.479893
11
0.391329
21
-0.483643
0
LINE
8
BLACK
6
CONTINUOUS
10
0.391329
20
-0.483643
11
0.38383
21
-0.487392
0
LINE
8
BLACK
6
CONTINUOUS
10
0.38383
20
-0.487392
11
0.376331
21
-0.487392
0
LINE
8
BLACK
6
CONTINUOUS
10
0.376331
20
-0.487392
11
0.368832
21
-0.483643
0
LINE
8
BLACK
6
CONTINUOUS
10
0.368832
20
-0.483643
11
0.365082
21
-0.479893
0
LINE
8
BLACK
6
CONTINUOUS
10
0.365082
20
-0.479893
11
0.361333
21
-0.472394
0
LINE
8
BLACK
6
CONTINUOUS
10
0.361333
20
-0.472394
11
0.357583
21
-0.457396
0
LINE
8
BLACK
6
CONTINUOUS
10
0.357583
20
-0.457396
11
0.357583
21
-0.438648
0
LINE
8
BLACK
6
CONTINUOUS
10
0.357583
20
-0.438648
11
0.361333
21
-0.42365
0
LINE
8
BLACK
6
CONTINUOUS
10
0.361333
20
-0.42365
11
0.365082
21
-0.416151
0
LINE
8
BLACK
6
CONTINUOUS
10
0.365082
20
-0.416151
11
0.368832
21
-0.412402
0
LINE
8
BLACK
6
CONTINUOUS
10
0.368832
20
-0.412402
11
0.376331
21
-0.408652
0
LINE
8
BLACK
6
CONTINUOUS
10
0.436324
20
-0.487392
11
0.436324
21
-0.434899
0
LINE
8
BLACK
6
CONTINUOUS
10
0.436324
20
-0.442398
11
0.440073
21
-0.438648
0
LINE
8
BLACK
6
CONTINUOUS
10
0.440073
20
-0.438648
11
0.447572
21
-0.434899
0
LINE
8
BLACK
6
CONTINUOUS
10
0.447572
20
-0.434899
11
0.458821
21
-0.434899
0
LINE
8
BLACK
6
CONTINUOUS
10
0.458821
20
-0.434899
11
0.46632
21
-0.438648
0
LINE
8
BLACK
6
CONTINUOUS
10
0.46632
20
-0.438648
11
0.470069
21
-0.446147
0
LINE
8
BLACK
6
CONTINUOUS
10
0.470069
20
-0.446147
11
0.470069
21
-0.487392
0
LINE
8
BLACK
6
CONTINUOUS
10
0.470069
20
-0.446147
11
0.473819
21
-0.438648
0
LINE
8
BLACK
6
CONTINUOUS
10
0.473819
20
-0.438648
11
0.481318
21
-0.434899
0
LINE
8
BLACK
6
CONTINUOUS
10
0.481318
20
-0.434899
11
0.492567
21
-0.434899
0
LINE
8
BLACK
6
CONTINUOUS
10
0.492567
20
-0.434899
11
0.500066
21
-0.438648
0
LINE
8
BLACK
6
CONTINUOUS
10
0.500066
20
-0.438648
11
0.503815
21
-0.446147
0
LINE
8
BLACK
6
CONTINUOUS
10
0.503815
20
-0.446147
11
0.503815
21
-0.487392
0
LINE
8
BLACK
6
CONTINUOUS
10
0.54131
20
-0.487392
11
0.54131
21
-0.434899
0
LINE
8
BLACK
6
CONTINUOUS
10
0.54131
20
-0.442398
11
0.54506
21
-0.438648
0
LINE
8
BLACK
6
CONTINUOUS
10
0.54506
20
-0.438648
11
0.552559
21
-0.434899
0
LINE
8
BLACK
6
CONTINUOUS
10
0.552559
20
-0.434899
11
0.563808
21
-0.434899
0
LINE
8
BLACK
6
CONTINUOUS
10
0.563808
20
-0.434899
11
0.571307
21
-0.438648
0
LINE
8
BLACK
6
CONTINUOUS
10
0.571307
20
-0.438648
11
0.575056
21
-0.446147
0
LINE
8
BLACK
6
CONTINUOUS
10
0.575056
20
-0.446147
11
0.575056
21
-0.487392
0
LINE
8
BLACK
6
CONTINUOUS
10
0.575056
20
-0.446147
11
0.578806
21
-0.438648
0
LINE
8
BLACK
6
CONTINUOUS
10
0.578806
20
-0.438648
11
0.586305
21
-0.434899
0
LINE
8
BLACK
6
CONTINUOUS
10
0.586305
20
-0.434899
11
0.597553
21
-0.434899
0
LINE
8
BLACK
6
CONTINUOUS
10
0.597553
20
-0.434899
11
0.605053
21
-0.438648
0
LINE
8
BLACK
6
CONTINUOUS
10
0.605053
20
-0.438648
11
0.608802
21
-0.446147
0
LINE
8
BLACK
6
CONTINUOUS
10
0.608802
20
-0.446147
11
0.608802
21
-0.487392
0
LINE
8
BLACK
6
CONTINUOUS
10
0.749784
20
-0.404902
11
0.682293
21
-0.50614
0
LINE
8
BLACK
6
CONTINUOUS
10
0.838273
20
-0.408652
11
0.845772
21
-0.408652
0
LINE
8
BLACK
6
CONTINUOUS
10
0.845772
20
-0.408652
11
0.853271
21
-0.412402
0
LINE
8
BLACK
6
CONTINUOUS
10
0.853271
20
-0.412402
11
0.857021
21
-0.416151
0
LINE
8
BLACK
6
CONTINUOUS
10
0.857021
20
-0.416151
11
0.860771
21
-0.42365
0
LINE
8
BLACK
6
CONTINUOUS
10
0.860771
20
-0.42365
11
0.86452
21
-0.438648
0
LINE
8
BLACK
6
CONTINUOUS
10
0.86452
20
-0.438648
11
0.86452
21
-0.457396
0
LINE
8
BLACK
6
CONTINUOUS
10
0.86452
20
-0.457396
11
0.860771
21
-0.472394
0
LINE
8
BLACK
6
CONTINUOUS
10
0.860771
20
-0.472394
11
0.857021
21
-0.479893
0
LINE
8
BLACK
6
CONTINUOUS
10
0.857021
20
-0.479893
11
0.853271
21
-0.483643
0
LINE
8
BLACK
6
CONTINUOUS
10
0.853271
20
-0.483643
11
0.845772
21
-0.487392
0
LINE
8
BLACK
6
CONTINUOUS
10
0.845772
20
-0.487392
11
0.838273
21
-0.487392
0
LINE
8
BLACK
6
CONTINUOUS
10
0.838273
20
-0.487392
11
0.830774
21
-0.483643
0
LINE
8
BLACK
6
CONTINUOUS
10
0.830774
20
-0.483643
11
0.827025
21
-0.479893
0
LINE
8
BLACK
6
CONTINUOUS
10
0.827025
20
-0.479893
11
0.823275
21
-0.472394
0
LINE
8
BLACK
6
CONTINUOUS
10
0.823275
20
-0.472394
11
0.819526
21
-0.457396
0
LINE
8
BLACK
6
CONTINUOUS
10
0.819526
20
-0.457396
11
0.819526
21
-0.438648
0
LINE
8
BLACK
6
CONTINUOUS
10
0.819526
20
-0.438648
11
0.823275
21
-0.42365
0
LINE
8
BLACK
6
CONTINUOUS
10
0.823275
20
-0.42365
11
0.827025
21
-0.416151
0
LINE
8
BLACK
6
CONTINUOUS
10
0.827025
20
-0.416151
11
0.830774
21
-0.412402
0
LINE
8
BLACK
6
CONTINUOUS
10
0.830774
20
-0.412402
11
0.838273
21
-0.408652
0
LINE
8
BLACK
6
CONTINUOUS
10
0.898266
20
-0.479893
11
0.902015
21
-0.483643
0
LINE
8
BLACK
6
CONTINUOUS
10
0.902015
20
-0.483643
11
0.898266
21
-0.487392
0
LINE
8
BLACK
6
CONTINUOUS
10
0.898266
20
-0.487392
11
0.894516
21
-0.483643
0
LINE
8
BLACK
6
CONTINUOUS
10
0.894516
20
-0.483643
11
0.898266
21
-0.479893
0
LINE
8
BLACK
6
CONTINUOUS
10
0.898266
20
-0.479893
11
0.898266
21
-0.487392
0
LINE
8
BLACK
6
CONTINUOUS
10
0.950759
20
-0.408652
11
0.958258
21
-0.408652
0
LINE
8
BLACK
6
CONTINUOUS
10
0.958258
20
-0.408652
11
0.965757
21
-0.412402
0
LINE
8
BLACK
6
CONTINUOUS
10
0.965757
20
-0.412402
11
0.969507
21
-0.416151
0
LINE
8
BLACK
6
CONTINUOUS
10
0.969507
20
-0.416151
11
0.973256
21
-0.42365
0
LINE
8
BLACK
6
CONTINUOUS
10
0.973256
20
-0.42365
11
0.977006
21
-0.438648
0
LINE
8
BLACK
6
CONTINUOUS
10
0.977006
20
-0.438648
11
0.977006
21
-0.457396
0
LINE
8
BLACK
6
CONTINUOUS
10
0.977006
20
-0.457396
11
0.973256
21
-0.472394
0
LINE
8
BLACK
6
CONTINUOUS
10
0.973256
20
-0.472394
11
0.969507
21
-0.479893
0
LINE
8
BLACK
6
CONTINUOUS
10
0.969507
20
-0.479893
11
0.965757
21
-0.483643
0
LINE
8
BLACK
6
CONTINUOUS
10
0.965757
20
-0.483643
11
0.958258
21
-0.487392
0
LINE
8
BLACK
6
CONTINUOUS
10
0.958258
20
-0.487392
11
0.950759
21
-0.487392
0
LINE
8
BLACK
6
CONTINUOUS
10
0.950759
20
-0.487392
11
0.94326
21
-0.483643
0
LINE
8
BLACK
6
CONTINUOUS
10
0.94326
20
-0.483643
11
0.939511
21
-0.479893
0
LINE
8
BLACK
6
CONTINUOUS
10
0.939511
20
-0.479893
11
0.935761
21
-0.472394
0
LINE
8
BLACK
6
CONTINUOUS
10
0.935761
20
-0.472394
11
0.932012
21
-0.457396
0
LINE
8
BLACK
6
CONTINUOUS
10
0.932012
20
-0.457396
11
0.932012
21
-0.438648
0
LINE
8
BLACK
6
CONTINUOUS
10
0.932012
20
-0.438648
11
0.935761
21
-0.42365
0
LINE
8
BLACK
6
CONTINUOUS
10
0.935761
20
-0.42365
11
0.939511
21
-0.416151
0
LINE
8
BLACK
6
CONTINUOUS
10
0.939511
20
-0.416151
11
0.94326
21
-0.412402
0
LINE
8
BLACK
6
CONTINUOUS
10
0.94326
20
-0.412402
11
0.950759
21
-0.408652
0
LINE
8
BLACK
6
CONTINUOUS
10
1.007
20
-0.416151
11
1.01075
21
-0.412402
0
LINE
8
BLACK
6
CONTINUOUS
10
1.01075
20
-0.412402
11
1.01825
21
-0.408652
0
LINE
8
BLACK
6
CONTINUOUS
10
1.01825
20
-0.408652
11
1.037
21
-0.408652
0
LINE
8
BLACK
6
CONTINUOUS
10
1.037
20
-0.408652
11
1.0445
21
-0.412402
0
LINE
8
BLACK
6
CONTINUOUS
10
1.0445
20
-0.412402
11
1.04825
21
-0.416151
0
LINE
8
BLACK
6
CONTINUOUS
10
1.04825
20
-0.416151
11
1.052
21
-0.42365
0
LINE
8
BLACK
6
CONTINUOUS
10
1.052
20
-0.42365
11
1.052
21
-0.431149
0
LINE
8
BLACK
6
CONTINUOUS
10
1.052
20
-0.431149
11
1.04825
21
-0.442398
0
LINE
8
BLACK
6
CONTINUOUS
10
1.04825
20
-0.442398
11
1.00325
21
-0.487392
0
LINE
8
BLACK
6
CONTINUOUS
10
1.00325
20
-0.487392
11
1.052
21
-0.487392
0
LINE
8
BLACK
6
CONTINUOUS
10
1.08949
20
-0.487392
11
1.10449
21
-0.487392
0
LINE
8
BLACK
6
CONTINUOUS
10
1.10449
20
-0.487392
11
1.11199
21
-0.483643
0
LINE
8
BLACK
6
CONTINUOUS
10
1.11199
20
-0.483643
11
1.11574
21
-0.479893
0
LINE
8
BLACK
6
CONTINUOUS
10
1.11574
20
-0.479893
11
1.12324
21
-0.468645
0
LINE
8
BLACK
6
CONTINUOUS
10
1.12324
20
-0.468645
11
1.12699
21
-0.453646
0
LINE
8
BLACK
6
CONTINUOUS
10
1.12699
20
-0.453646
11
1.12699
21
-0.42365
0
LINE
8
BLACK
6
CONTINUOUS
10
1.12699
20
-0.42365
11
1.12324
21
-0.416151
0
LINE
8
BLACK
6
CONTINUOUS
10
1.12324
20
-0.416151
11
1.11949
21
-0.412402
0
LINE
8
BLACK
6
CONTINUOUS
10
1.11949
20
-0.412402
11
1.11199
21
-0.408652
0
LINE
8
BLACK
6
CONTINUOUS
10
1.11199
20
-0.408652
11
1.09699
21
-0.408652
0
LINE
8
BLACK
6
CONTINUOUS
10
1.09699
20
-0.408652
11
1.08949
21
-0.412402
0
LINE
8
BLACK
6
CONTINUOUS
10
1.08949
20
-0.412402
11
1.08574
21
-0.416151
0
LINE
8
BLACK
6
CONTINUOUS
10
1.08574
20
-0.416151
11
1.08199
21
-0.42365
0
LINE
8
BLACK
6
CONTINUOUS
10
1.08199
20
-0.42365
11
1.08199
21
-0.442398
0
LINE
8
BLACK
6
CONTINUOUS
10
1.08199
20
-0.442398
11
1.08574
21
-0.449897
0
LINE
8
BLACK
6
CONTINUOUS
10
1.08574
20
-0.449897
11
1.08949
21
-0.453646
0
LINE
8
BLACK
6
CONTINUOUS
10
1.08949
20
-0.453646
11
1.09699
21
-0.457396
0
LINE
8
BLACK
6
CONTINUOUS
10
1.09699
20
-0.457396
11
1.11199
21
-0.457396
0
LINE
8
BLACK
6
CONTINUOUS
10
1.11199
20
-0.457396
11
1.11949
21
-0.453646
0
LINE
8
BLACK
6
CONTINUOUS
10
1.11949
20
-0.453646
11
1.12324
21
-0.449897
0
LINE
8
BLACK
6
CONTINUOUS
10
1.12324
20
-0.449897
11
1.12699
21
-0.442398
0
LINE
8
BLACK
6
CONTINUOUS
10
1.19823
20
-0.408652
11
1.16073
21
-0.408652
0
LINE
8
BLACK
6
CONTINUOUS
10
1.16073
20
-0.408652
11
1.15698
21
-0.446147
0
LINE
8
BLACK
6
CONTINUOUS
10
1.15698
20
-0.446147
11
1.16073
21
-0.442398
0
LINE
8
BLACK
6
CONTINUOUS
10
1.16073
20
-0.442398
11
1.16823
21
-0.438648
0
LINE
8
BLACK
6
CONTINUOUS
10
1.16823
20
-0.438648
11
1.18698
21
-0.438648
0
LINE
8
BLACK
6
CONTINUOUS
10
1.18698
20
-0.438648
11
1.19448
21
-0.442398
0
LINE
8
BLACK
6
CONTINUOUS
10
1.19448
20
-0.442398
11
1.19823
21
-0.446147
0
LINE
8
BLACK
6
CONTINUOUS
10
1.19823
20
-0.446147
11
1.20198
21
-0.453646
0
LINE
8
BLACK
6
CONTINUOUS
10
1.20198
20
-0.453646
11
1.20198
21
-0.472394
0
LINE
8
BLACK
6
CONTINUOUS
10
1.20198
20
-0.472394
11
1.19823
21
-0.479893
0
LINE
8
BLACK
6
CONTINUOUS
10
1.19823
20
-0.479893
11
1.19448
21
-0.483643
0
LINE
8
BLACK
6
CONTINUOUS
10
1.19448
20
-0.483643
11
1.18698
21
-0.487392
0
LINE
8
BLACK
6
CONTINUOUS
10
1.18698
20
-0.487392
11
1.16823
21
-0.487392
0
LINE
8
BLACK
6
CONTINUOUS
10
1.16823
20
-0.487392
11
1.16073
21
-0.483643
0
LINE
8
BLACK
6
CONTINUOUS
10
1.16073
20
-0.483643
11
1.15698
21
-0.479893
0
LINE
8
BLACK
6
CONTINUOUS
10
1.23197
20
-0.408652
11
1.23197
21
-0.42365
0
LINE
8
BLACK
6
CONTINUOUS
10
1.26197
20
-0.408652
11
1.26197
21
-0.42365
0
LINE
8
BLACK
6
CONTINUOUS
10
1.36546
20
-0.517388
11
1.36171
21
-0.513639
0
LINE
8
BLACK
6
CONTINUOUS
10
1.36171
20
-0.513639
11
1.35421
21
-0.50239
0
LINE
8
BLACK
6
CONTINUOUS
10
1.35421
20
-0.50239
11
1.35046
21
-0.494891
0
LINE
8
BLACK
6
CONTINUOUS
10
1.35046
20
-0.494891
11
1.34671
21
-0.483643
0
LINE
8
BLACK
6
CONTINUOUS
10
1.34671
20
-0.483643
11
1.34296
21
-0.464895
0
LINE
8
BLACK
6
CONTINUOUS
10
1.34296
20
-0.464895
11
1.34296
21
-0.449897
0
LINE
8
BLACK
6
CONTINUOUS
10
1.34296
20
-0.449897
11
1.34671
21
-0.431149
0
LINE
8
BLACK
6
CONTINUOUS
10
1.34671
20
-0.431149
11
1.35046
21
-0.419901
0
LINE
8
BLACK
6
CONTINUOUS
10
1.35046
20
-0.419901
11
1.35421
21
-0.412402
0
LINE
8
BLACK
6
CONTINUOUS
10
1.35421
20
-0.412402
11
1.36171
21
-0.401153
0
LINE
8
BLACK
6
CONTINUOUS
10
1.36171
20
-0.401153
11
1.36546
21
-0.397403
0
LINE
8
BLACK
6
CONTINUOUS
10
1.4292
20
-0.434899
11
1.4292
21
-0.487392
0
LINE
8
BLACK
6
CONTINUOUS
10
1.41045
20
-0.404902
11
1.3917
21
-0.461145
0
LINE
8
BLACK
6
CONTINUOUS
10
1.3917
20
-0.461145
11
1.44045
21
-0.461145
0
LINE
8
BLACK
6
CONTINUOUS
10
1.51769
20
-0.487392
11
1.51769
21
-0.408652
0
LINE
8
BLACK
6
CONTINUOUS
10
1.55143
20
-0.487392
11
1.55143
21
-0.446147
0
LINE
8
BLACK
6
CONTINUOUS
10
1.55143
20
-0.446147
11
1.54768
21
-0.438648
0
LINE
8
BLACK
6
CONTINUOUS
10
1.54768
20
-0.438648
11
1.54019
21
-0.434899
0
LINE
8
BLACK
6
CONTINUOUS
10
1.54019
20
-0.434899
11
1.52894
21
-0.434899
0
LINE
8
BLACK
6
CONTINUOUS
10
1.52894
20
-0.434899
11
1.52144
21
-0.438648
0
LINE
8
BLACK
6
CONTINUOUS
10
1.52144
20
-0.438648
11
1.51769
21
-0.442398
0
LINE
8
BLACK
6
CONTINUOUS
10
1.60018
20
-0.487392
11
1.59268
21
-0.483643
0
LINE
8
BLACK
6
CONTINUOUS
10
1.59268
20
-0.483643
11
1.58893
21
-0.479893
0
LINE
8
BLACK
6
CONTINUOUS
10
1.58893
20
-0.479893
11
1.58518
21
-0.472394
0
LINE
8
BLACK
6
CONTINUOUS
10
1.58518
20
-0.472394
11
1.58518
21
-0.449897
0
LINE
8
BLACK
6
CONTINUOUS
10
1.58518
20
-0.449897
11
1.58893
21
-0.442398
0
LINE
8
BLACK
6
CONTINUOUS
10
1.58893
20
-0.442398
11
1.59268
21
-0.438648
0
LINE
8
BLACK
6
CONTINUOUS
10
1.59268
20
-0.438648
11
1.60018
21
-0.434899
0
LINE
8
BLACK
6
CONTINUOUS
10
1.60018
20
-0.434899
11
1.61143
21
-0.434899
0
LINE
8
BLACK
6
CONTINUOUS
10
1.61143
20
-0.434899
11
1.61893
21
-0.438648
0
LINE
8
BLACK
6
CONTINUOUS
10
1.61893
20
-0.438648
11
1.62268
21
-0.442398
0
LINE
8
BLACK
6
CONTINUOUS
10
1.62268
20
-0.442398
11
1.62642
21
-0.449897
0
LINE
8
BLACK
6
CONTINUOUS
10
1.62642
20
-0.449897
11
1.62642
21
-0.472394
0
LINE
8
BLACK
6
CONTINUOUS
10
1.62642
20
-0.472394
11
1.62268
21
-0.479893
0
LINE
8
BLACK
6
CONTINUOUS
10
1.62268
20
-0.479893
11
1.61893
21
-0.483643
0
LINE
8
BLACK
6
CONTINUOUS
10
1.61893
20
-0.483643
11
1.61143
21
-0.487392
0
LINE
8
BLACK
6
CONTINUOUS
10
1.61143
20
-0.487392
11
1.60018
21
-0.487392
0
LINE
8
BLACK
6
CONTINUOUS
10
1.67142
20
-0.487392
11
1.66392
21
-0.483643
0
LINE
8
BLACK
6
CONTINUOUS
10
1.66392
20
-0.483643
11
1.66017
21
-0.476144
0
LINE
8
BLACK
6
CONTINUOUS
10
1.66017
20
-0.476144
11
1.66017
21
-0.408652
0
LINE
8
BLACK
6
CONTINUOUS
10
1.73141
20
-0.483643
11
1.72391
21
-0.487392
0
LINE
8
BLACK
6
CONTINUOUS
10
1.72391
20
-0.487392
11
1.70891
21
-0.487392
0
LINE
8
BLACK
6
CONTINUOUS
10
1.70891
20
-0.487392
11
1.70142
21
-0.483643
0
LINE
8
BLACK
6
CONTINUOUS
10
1.70142
20
-0.483643
11
1.69767
21
-0.476144
0
LINE
8
BLACK
6
CONTINUOUS
10
1.69767
20
-0.476144
11
1.69767
21
-0.446147
0
LINE
8
BLACK
6
CONTINUOUS
10
1.69767
20
-0.446147
11
1.70142
21
-0.438648
0
LINE
8
BLACK
6
CONTINUOUS
10
1.70142
20
-0.438648
11
1.70891
21
-0.434899
0
LINE
8
BLACK
6
CONTINUOUS
10
1.70891
20
-0.434899
11
1.72391
21
-0.434899
0
LINE
8
BLACK
6
CONTINUOUS
10
1.72391
20
-0.434899
11
1.73141
21
-0.438648
0
LINE
8
BLACK
6
CONTINUOUS
10
1.73141
20
-0.438648
11
1.73516
21
-0.446147
0
LINE
8
BLACK
6
CONTINUOUS
10
1.73516
20
-0.446147
11
1.73516
21
-0.453646
0
LINE
8
BLACK
6
CONTINUOUS
10
1.73516
20
-0.453646
11
1.69767
21
-0.461145
0
LINE
8
BLACK
6
CONTINUOUS
10
1.76516
20
-0.483643
11
1.77266
21
-0.487392
0
LINE
8
BLACK
6
CONTINUOUS
10
1.77266
20
-0.487392
11
1.78765
21
-0.487392
0
LINE
8
BLACK
6
CONTINUOUS
10
1.78765
20
-0.487392
11
1.79515
21
-0.483643
0
LINE
8
BLACK
6
CONTINUOUS
10
1.79515
20
-0.483643
11
1.7989
21
-0.476144
0
LINE
8
BLACK
6
CONTINUOUS
10
1.7989
20
-0.476144
11
1.7989
21
-0.472394
0
LINE
8
BLACK
6
CONTINUOUS
10
1.7989
20
-0.472394
11
1.79515
21
-0.464895
0
LINE
8
BLACK
6
CONTINUOUS
10
1.79515
20
-0.464895
11
1.78765
21
-0.461145
0
LINE
8
BLACK
6
CONTINUOUS
10
1.78765
20
-0.461145
11
1.77641
21
-0.461145
0
LINE
8
BLACK
6
CONTINUOUS
10
1.77641
20
-0.461145
11
1.76891
21
-0.457396
0
LINE
8
BLACK
6
CONTINUOUS
10
1.76891
20
-0.457396
11
1.76516
21
-0.449897
0
LINE
8
BLACK
6
CONTINUOUS
10
1.76516
20
-0.449897
11
1.76516
21
-0.446147
0
LINE
8
BLACK
6
CONTINUOUS
10
1.76516
20
-0.446147
11
1.76891
21
-0.438648
0
LINE
8
BLACK
6
CONTINUOUS
10
1.76891
20
-0.438648
11
1.77641
21
-0.434899
0
LINE
8
BLACK
6
CONTINUOUS
10
1.77641
20
-0.434899
11
1.78765
21
-0.434899
0
LINE
8
BLACK
6
CONTINUOUS
10
1.78765
20
-0.434899
11
1.79515
21
-0.438648
0
LINE
8
BLACK
6
CONTINUOUS
10
1.82515
20
-0.517388
11
1.8289
21
-0.513639
0
LINE
8
BLACK
6
CONTINUOUS
10
1.8289
20
-0.513639
11
1.8364
21
-0.50239
0
LINE
8
BLACK
6
CONTINUOUS
10
1.8364
20
-0.50239
11
1.84015
21
-0.494891
0
LINE
8
BLACK
6
CONTINUOUS
10
1.84015
20
-0.494891
11
1.8439
21
-0.483643
0
LINE
8
BLACK
6
CONTINUOUS
10
1.8439
20
-0.483643
11
1.84765
21
-0.464895
0
LINE
8
BLACK
6
CONTINUOUS
10
1.84765
20
-0.464895
11
1.84765
21
-0.449897
0
LINE
8
BLACK
6
CONTINUOUS
10
1.84765
20
-0.449897
11
1.8439
21
-0.431149
0
LINE
8
BLACK
6
CONTINUOUS
10
1.8439
20
-0.431149
11
1.84015
21
-0.419901
0
LINE
8
BLACK
6
CONTINUOUS
10
1.84015
20
-0.419901
11
1.8364
21
-0.412402
0
LINE
8
BLACK
6
CONTINUOUS
10
1.8364
20
-0.412402
11
1.8289
21
-0.401153
0
LINE
8
BLACK
6
CONTINUOUS
10
1.8289
20
-0.401153
11
1.82515
21
-0.397403
  0
ENDSEC
  0
EOF
