%TF.GenerationSoftware,KiCad,Pcbnew,(6.99.0-5157-g987eb4b46a-dirty)*%
%TF.CreationDate,2022-12-28T16:32:46-05:00*%
%TF.ProjectId,controller,636f6e74-726f-46c6-9c65-722e6b696361,rev?*%
%TF.SameCoordinates,PX3cfccb0PYa197300*%
%TF.FileFunction,Soldermask,Top*%
%TF.FilePolarity,Negative*%
%FSLAX46Y46*%
G04 Gerber Fmt 4.6, Leading zero omitted, Abs format (unit mm)*
G04 Created by KiCad (PCBNEW (6.99.0-5157-g987eb4b46a-dirty)) date 2022-12-28 16:32:46*
%MOMM*%
%LPD*%
G01*
G04 APERTURE LIST*
G04 Aperture macros list*
%AMRoundRect*
0 Rectangle with rounded corners*
0 $1 Rounding radius*
0 $2 $3 $4 $5 $6 $7 $8 $9 X,Y pos of 4 corners*
0 Add a 4 corners polygon primitive as box body*
4,1,4,$2,$3,$4,$5,$6,$7,$8,$9,$2,$3,0*
0 Add four circle primitives for the rounded corners*
1,1,$1+$1,$2,$3*
1,1,$1+$1,$4,$5*
1,1,$1+$1,$6,$7*
1,1,$1+$1,$8,$9*
0 Add four rect primitives between the rounded corners*
20,1,$1+$1,$2,$3,$4,$5,0*
20,1,$1+$1,$4,$5,$6,$7,0*
20,1,$1+$1,$6,$7,$8,$9,0*
20,1,$1+$1,$8,$9,$2,$3,0*%
%AMFreePoly0*
4,1,37,0.012322,0.744896,0.084376,0.744896,0.096342,0.743443,0.260189,0.703058,0.271459,0.698784,0.420881,0.620362,0.430801,0.613515,0.557114,0.501612,0.565107,0.492589,0.660968,0.353709,0.666570,0.343036,0.726410,0.185251,0.729294,0.173548,0.749635,0.006027,0.749635,-0.006027,0.729294,-0.173548,0.726410,-0.185251,0.666570,-0.343036,0.660968,-0.353709,0.565107,-0.492589,
0.557114,-0.501612,0.430801,-0.613515,0.420881,-0.620362,0.271459,-0.698784,0.260189,-0.703058,0.096342,-0.743443,0.084376,-0.744896,0.012322,-0.744896,0.000000,-0.750000,-0.700000,-0.750000,-0.735355,-0.735355,-0.750000,-0.700000,-0.750000,0.700000,-0.735355,0.735355,-0.700000,0.750000,0.000000,0.750000,0.012322,0.744896,0.012322,0.744896,$1*%
G04 Aperture macros list end*
%ADD10RoundRect,0.050000X1.050000X0.900000X-1.050000X0.900000X-1.050000X-0.900000X1.050000X-0.900000X0*%
%ADD11RoundRect,0.200000X0.150000X0.625000X-0.150000X0.625000X-0.150000X-0.625000X0.150000X-0.625000X0*%
%ADD12RoundRect,0.300000X0.350000X0.650000X-0.350000X0.650000X-0.350000X-0.650000X0.350000X-0.650000X0*%
%ADD13RoundRect,0.200000X0.512500X0.150000X-0.512500X0.150000X-0.512500X-0.150000X0.512500X-0.150000X0*%
%ADD14RoundRect,0.300000X-0.325000X-0.450000X0.325000X-0.450000X0.325000X0.450000X-0.325000X0.450000X0*%
%ADD15RoundRect,0.300000X0.325000X0.450000X-0.325000X0.450000X-0.325000X-0.450000X0.325000X-0.450000X0*%
%ADD16RoundRect,0.050000X-0.450000X-0.400000X0.450000X-0.400000X0.450000X0.400000X-0.450000X0.400000X0*%
%ADD17RoundRect,0.050000X0.400000X-0.450000X0.400000X0.450000X-0.400000X0.450000X-0.400000X-0.450000X0*%
%ADD18FreePoly0,0.000000*%
%ADD19FreePoly0,180.000000*%
%ADD20RoundRect,0.050000X-0.550000X0.900000X-0.550000X-0.900000X0.550000X-0.900000X0.550000X0.900000X0*%
%ADD21RoundRect,0.050000X0.500000X-0.500000X0.500000X0.500000X-0.500000X0.500000X-0.500000X-0.500000X0*%
%ADD22RoundRect,0.300000X0.450000X-0.325000X0.450000X0.325000X-0.450000X0.325000X-0.450000X-0.325000X0*%
%ADD23RoundRect,0.300000X-0.450000X0.325000X-0.450000X-0.325000X0.450000X-0.325000X0.450000X0.325000X0*%
%ADD24RoundRect,0.050000X-0.775000X-0.300000X0.775000X-0.300000X0.775000X0.300000X-0.775000X0.300000X0*%
%ADD25O,1.100000X1.100000*%
%ADD26RoundRect,0.050000X0.125000X-0.500000X0.125000X0.500000X-0.125000X0.500000X-0.125000X-0.500000X0*%
%ADD27RoundRect,0.050000X-0.500000X-0.125000X0.500000X-0.125000X0.500000X0.125000X-0.500000X0.125000X0*%
%ADD28O,1.300000X1.850000*%
%ADD29RoundRect,0.300000X-0.350000X-0.625000X0.350000X-0.625000X0.350000X0.625000X-0.350000X0.625000X0*%
%ADD30C,1.448000*%
%ADD31C,4.400000*%
%ADD32RoundRect,0.050000X-0.325000X0.780000X-0.325000X-0.780000X0.325000X-0.780000X0.325000X0.780000X0*%
%ADD33RoundRect,0.050000X1.000000X0.750000X-1.000000X0.750000X-1.000000X-0.750000X1.000000X-0.750000X0*%
%ADD34RoundRect,0.050000X1.000000X1.900000X-1.000000X1.900000X-1.000000X-1.900000X1.000000X-1.900000X0*%
G04 APERTURE END LIST*
%TO.C,JP1*%
G36*
X5874500Y33867500D02*
G01*
X5239500Y33867500D01*
X5239500Y35264500D01*
X5874500Y35264500D01*
X5874500Y33867500D01*
G37*
%TO.C,JP2*%
G36*
X5874500Y31327500D02*
G01*
X5239500Y31327500D01*
X5239500Y32724500D01*
X5874500Y32724500D01*
X5874500Y31327500D01*
G37*
%TD*%
D10*
%TO.C,Y1*%
X33260000Y26450000D03*
X30360000Y26450000D03*
X30360000Y28750000D03*
X33260000Y28750000D03*
%TD*%
D11*
%TO.C,J5*%
X60410000Y29940000D03*
X59410000Y29940000D03*
X58410000Y29940000D03*
X57410000Y29940000D03*
D12*
X56110000Y33815000D03*
X61710000Y33815000D03*
%TD*%
D13*
%TO.C,U4*%
X58410000Y24520000D03*
X58410000Y25470000D03*
X58410000Y26420000D03*
X56135000Y26420000D03*
X56135000Y25470000D03*
X56135000Y24520000D03*
%TD*%
D14*
%TO.C,R18*%
X13400000Y19865000D03*
X11350000Y19865000D03*
%TD*%
D15*
%TO.C,R17*%
X22700000Y17790000D03*
X24750000Y17790000D03*
%TD*%
D16*
%TO.C,Q3*%
X8025000Y19990000D03*
X6025000Y19040000D03*
X6025000Y20940000D03*
%TD*%
D17*
%TO.C,Q2*%
X23725000Y22040000D03*
X24675000Y20040000D03*
X22775000Y20040000D03*
%TD*%
D18*
%TO.C,JP1*%
X6384000Y34566000D03*
D19*
X4730000Y34566000D03*
%TD*%
D20*
%TO.C,SW1*%
X16350000Y18015000D03*
X16350000Y24215000D03*
X20050000Y18015000D03*
X20050000Y24215000D03*
%TD*%
D21*
%TO.C,J4*%
X51801660Y31703420D03*
%TD*%
D22*
%TO.C,R16*%
X15310140Y28665000D03*
X15310140Y26615000D03*
%TD*%
D17*
%TO.C,Q1*%
X12046800Y24339200D03*
X12996800Y22339200D03*
X11096800Y22339200D03*
%TD*%
D23*
%TO.C,C20*%
X18516890Y26615000D03*
X18516890Y28665000D03*
%TD*%
D24*
%TO.C,U5*%
X13421240Y14999280D03*
X13421240Y13729280D03*
X13421240Y12459280D03*
X13421240Y11189280D03*
X8021240Y11189280D03*
X8021240Y12459280D03*
X8021240Y13729280D03*
X8021240Y14999280D03*
%TD*%
D23*
%TO.C,R15*%
X23505840Y13347200D03*
X23505840Y15397200D03*
%TD*%
%TO.C,R14*%
X20361320Y13347200D03*
X20361320Y15397200D03*
%TD*%
%TO.C,R13*%
X17216800Y13347200D03*
X17216800Y15397200D03*
%TD*%
D15*
%TO.C,C19*%
X10866080Y17194640D03*
X12916080Y17194640D03*
%TD*%
D22*
%TO.C,R12*%
X50832600Y13292340D03*
X50832600Y11242340D03*
%TD*%
D23*
%TO.C,R11*%
X32961160Y12141500D03*
X32961160Y14191500D03*
%TD*%
D22*
%TO.C,R10*%
X54939780Y13239000D03*
X54939780Y11189000D03*
%TD*%
D14*
%TO.C,R9*%
X18979840Y31116680D03*
X16929840Y31116680D03*
%TD*%
D15*
%TO.C,R6*%
X43637940Y34560000D03*
X45687940Y34560000D03*
%TD*%
D14*
%TO.C,C18*%
X47082400Y13598300D03*
X45032400Y13598300D03*
%TD*%
D25*
%TO.C,J6*%
X50078219Y31703419D03*
X48808219Y31703419D03*
X47538219Y31703419D03*
X46268219Y31703419D03*
X44998219Y31703419D03*
D21*
X43728220Y31703420D03*
%TD*%
D26*
%TO.C,U2*%
X38170000Y29030000D03*
X38670000Y29030000D03*
X39170000Y29030000D03*
X39670000Y29030000D03*
X40170000Y29030000D03*
X40670000Y29030000D03*
X41170000Y29030000D03*
X41670000Y29030000D03*
X42170000Y29030000D03*
X42670000Y29030000D03*
X43170000Y29030000D03*
X43670000Y29030000D03*
X44170000Y29030000D03*
X44670000Y29030000D03*
X45170000Y29030000D03*
X45670000Y29030000D03*
D27*
X47620000Y27080000D03*
X47620000Y26580000D03*
X47620000Y26080000D03*
X47620000Y25580000D03*
X47620000Y25080000D03*
X47620000Y24580000D03*
X47620000Y24080000D03*
X47620000Y23580000D03*
X47620000Y23080000D03*
X47620000Y22580000D03*
X47620000Y22080000D03*
X47620000Y21580000D03*
X47620000Y21080000D03*
X47620000Y20580000D03*
X47620000Y20080000D03*
X47620000Y19580000D03*
D26*
X45670000Y17630000D03*
X45170000Y17630000D03*
X44670000Y17630000D03*
X44170000Y17630000D03*
X43670000Y17630000D03*
X43170000Y17630000D03*
X42670000Y17630000D03*
X42170000Y17630000D03*
X41670000Y17630000D03*
X41170000Y17630000D03*
X40670000Y17630000D03*
X40170000Y17630000D03*
X39670000Y17630000D03*
X39170000Y17630000D03*
X38670000Y17630000D03*
X38170000Y17630000D03*
D27*
X36220000Y19580000D03*
X36220000Y20080000D03*
X36220000Y20580000D03*
X36220000Y21080000D03*
X36220000Y21580000D03*
X36220000Y22080000D03*
X36220000Y22580000D03*
X36220000Y23080000D03*
X36220000Y23580000D03*
X36220000Y24080000D03*
X36220000Y24580000D03*
X36220000Y25080000D03*
X36220000Y25580000D03*
X36220000Y26080000D03*
X36220000Y26580000D03*
X36220000Y27080000D03*
%TD*%
D28*
%TO.C,J3*%
X28567479Y31004919D03*
X26567479Y31004919D03*
X24567479Y31004919D03*
D29*
X22567480Y31004920D03*
%TD*%
D30*
%TO.C,H3*%
X2054440Y10326780D03*
%TD*%
%TO.C,H2*%
X68183340Y35990940D03*
%TD*%
%TO.C,H1*%
X1488020Y36018880D03*
%TD*%
D31*
%TO.C,J1*%
X64410000Y5060000D03*
X5410000Y5060000D03*
%TD*%
D18*
%TO.C,JP2*%
X6384000Y32026000D03*
D19*
X4730000Y32026000D03*
%TD*%
D14*
%TO.C,D6*%
X52315000Y24220000D03*
X50265000Y24220000D03*
%TD*%
%TO.C,D5*%
X27900000Y24220000D03*
X25850000Y24220000D03*
%TD*%
D22*
%TO.C,D4*%
X3280000Y25245000D03*
X3280000Y23195000D03*
%TD*%
D32*
%TO.C,U3*%
X65082000Y26612000D03*
X66032000Y26612000D03*
X64132000Y26612000D03*
X64132000Y29312000D03*
X65082000Y29312000D03*
X66032000Y29312000D03*
%TD*%
D33*
%TO.C,U1*%
X67470000Y12708000D03*
X67470000Y17308000D03*
X67470000Y15008000D03*
D34*
X61170000Y15008000D03*
%TD*%
D15*
%TO.C,R8*%
X52627000Y21358000D03*
X54677000Y21358000D03*
%TD*%
D22*
%TO.C,R7*%
X68130000Y28987000D03*
X68130000Y26937000D03*
%TD*%
D15*
%TO.C,R5*%
X47849260Y34560000D03*
X49899260Y34560000D03*
%TD*%
D23*
%TO.C,R4*%
X41147580Y33147300D03*
X41147580Y35197300D03*
%TD*%
%TO.C,R3*%
X38886980Y33147300D03*
X38886980Y35197300D03*
%TD*%
%TO.C,R2*%
X21723640Y26615000D03*
X21723640Y28665000D03*
%TD*%
D15*
%TO.C,FB1*%
X64057000Y35836000D03*
X66107000Y35836000D03*
%TD*%
D14*
%TO.C,D3*%
X54305000Y34560000D03*
X52255000Y34560000D03*
%TD*%
%TO.C,D2*%
X35820000Y34560000D03*
X33770000Y34560000D03*
%TD*%
%TO.C,D1*%
X17040000Y34560000D03*
X14990000Y34560000D03*
%TD*%
D15*
%TO.C,C17*%
X64057000Y22120000D03*
X66107000Y22120000D03*
%TD*%
%TO.C,C16*%
X64057000Y24152000D03*
X66107000Y24152000D03*
%TD*%
%TO.C,C15*%
X64057000Y31772000D03*
X66107000Y31772000D03*
%TD*%
%TO.C,C14*%
X64057000Y33804000D03*
X66107000Y33804000D03*
%TD*%
D14*
%TO.C,C13*%
X61535000Y20088000D03*
X59485000Y20088000D03*
%TD*%
%TO.C,C12*%
X65599000Y8912000D03*
X63549000Y8912000D03*
%TD*%
D15*
%TO.C,C11*%
X64057000Y20088000D03*
X66107000Y20088000D03*
%TD*%
D22*
%TO.C,C10*%
X26700000Y22040000D03*
X26700000Y19990000D03*
%TD*%
%TO.C,C9*%
X27700000Y28665000D03*
X27700000Y26615000D03*
%TD*%
D15*
%TO.C,C8*%
X30865000Y31170000D03*
X32915000Y31170000D03*
%TD*%
%TO.C,C7*%
X37025000Y13738000D03*
X39075000Y13738000D03*
%TD*%
D22*
%TO.C,C6*%
X31240000Y22385000D03*
X31240000Y20335000D03*
%TD*%
%TO.C,C5*%
X33470000Y22385000D03*
X33470000Y20335000D03*
%TD*%
D15*
%TO.C,C4*%
X37025000Y15710000D03*
X39075000Y15710000D03*
%TD*%
%TO.C,C3*%
X45560000Y15710000D03*
X47610000Y15710000D03*
%TD*%
D23*
%TO.C,C2*%
X49750000Y26935000D03*
X49750000Y28985000D03*
%TD*%
D14*
%TO.C,C1*%
X38355000Y30940000D03*
X36305000Y30940000D03*
%TD*%
M02*
