M48
; DRILL file {KiCad (6.99.0-5157-g987eb4b46a-dirty)} date Wed 28 Dec 2022 04:23:59 PM EST
; FORMAT={-:-/ absolute / inch / decimal}
; #@! TF.CreationDate,2022-12-28T16:23:59-05:00
; #@! TF.GenerationSoftware,Kicad,Pcbnew,(6.99.0-5157-g987eb4b46a-dirty)
; #@! TF.FileFunction,Plated,1,2,PTH
FMAT,2
INCH
; #@! TA.AperFunction,Plated,PTH,ViaDrill
T1C0.0118
; #@! TA.AperFunction,Plated,PTH,ComponentDrill
T2C0.0256
; #@! TA.AperFunction,Plated,PTH,ComponentDrill
T3C0.0295
%
G90
G05
T1
X0.1303Y1.3573
X0.1303Y1.3111
X0.1303Y1.2648
X0.1863Y1.3111
X0.1988Y0.7496
X0.2362Y0.7142
X0.2628Y0.5902
X0.2628Y0.54
X0.2628Y0.4898
X0.2628Y0.4396
X0.2766Y0.7339
X0.3159Y0.6236
X0.3159Y0.4081
X0.3455Y1.1108
X0.3671Y0.5902
X0.3671Y0.54
X0.3671Y0.4898
X0.3671Y0.4396
X0.3717Y0.3588
X0.3787Y0.7583
X0.3811Y1.0335
X0.3839Y0.6778
X0.3957Y1.1404
X0.4272Y0.6266
X0.4551Y0.361
X0.4823Y0.8346
X0.5379Y0.3611
X0.552Y0.6362
X0.5524Y0.8748
X0.5758Y0.973
X0.5817Y1.3077
X0.6206Y1.2239
X0.6215Y0.3622
X0.6663Y1.1712
X0.6742Y1.0537
X0.6744Y1.2965
X0.7051Y0.3616
X0.7195Y0.977
X0.7319Y0.5303
X0.7766Y1.0471
X0.7883Y0.3623
X0.8083Y1.0471
X0.8572Y1.3573
X0.8602Y1.4228
X0.8605Y1.2861
X0.872Y0.3603
X0.9035Y1.0471
X0.9166Y1.4228
X0.9167Y1.285
X0.9207Y1.3576
X0.9552Y0.3619
X0.9602Y0.9634
X0.9724Y0.7496
X0.9744Y0.6551
X0.9935Y1.1493
X1.0059Y0.787
X1.0157Y0.7004
X1.0183Y1.3674
X1.0254Y1.1536
X1.0393Y0.3596
X1.0411Y1.1243
X1.0418Y1.0906
X1.0512Y0.7467
X1.0669Y1.1719
X1.0853Y1.1913
X1.089Y1.2205
X1.0905Y1.0904
X1.0909Y1.1679
X1.0955Y0.787
X1.1098Y0.8913
X1.1217Y0.3601
X1.1323Y1.0846
X1.133Y1.1667
X1.1348Y1.1285
X1.1423Y0.8709
X1.1657Y1.2464
X1.1686Y1.2038
X1.1759Y1.2267
X1.1861Y0.8378
X1.2055Y0.3597
X1.2152Y1.1843
X1.2299Y0.8427
X1.2487Y1.1322
X1.2533Y1.186
X1.2541Y1.2272
X1.2562Y1.0411
X1.2731Y0.8394
X1.2739Y1.3657
X1.2739Y0.8813
X1.289Y0.3597
X1.3177Y0.8426
X1.3524Y0.7171
X1.3589Y1.1961
X1.3648Y0.9912
X1.3653Y0.8057
X1.3654Y0.9111
X1.3654Y0.8839
X1.3655Y0.8551
X1.3727Y0.3603
X1.3785Y0.5936
X1.3785Y0.5527
X1.3851Y0.8694
X1.3854Y0.8973
X1.386Y0.9242
X1.3981Y1.2595
X1.4083Y1.157
X1.4118Y0.6186
X1.4118Y0.579
X1.4118Y0.5394
X1.4567Y0.3591
X1.4578Y0.6654
X1.4681Y1.2534
X1.4681Y0.8073
X1.4797Y0.9353
X1.4803Y0.9893
X1.5042Y0.9878
X1.5049Y0.9386
X1.5293Y1.1014
X1.5293Y1.0774
X1.5394Y0.3599
X1.5471Y0.8509
X1.5513Y1.1824
X1.5528Y0.9878
X1.5528Y0.9396
X1.5534Y0.799
X1.554Y1.1014
X1.554Y1.0774
X1.5776Y0.8224
X1.5788Y1.1014
X1.5788Y1.0774
X1.5803Y0.9058
X1.5834Y0.9384
X1.5868Y0.988
X1.5948Y0.8653
X1.6115Y0.9395
X1.6116Y0.7893
X1.6157Y1.1856
X1.617Y0.8267
X1.6236Y0.3601
X1.6359Y0.9863
X1.6414Y0.9504
X1.6634Y0.9744
X1.6636Y0.9265
X1.671Y1.3735
X1.6844Y1.2955
X1.6979Y0.7347
X1.7069Y0.362
X1.723Y0.7347
X1.7414Y0.8645
X1.7482Y0.7347
X1.7562Y1.005
X1.7576Y0.9727
X1.7733Y0.7347
X1.7781Y0.9504
X1.7855Y0.9173
X1.7897Y0.3589
X1.7963Y0.8769
X1.8093Y0.9965
X1.8113Y0.5705
X1.8145Y0.5355
X1.8198Y0.9201
X1.8359Y0.5847
X1.8402Y1.3616
X1.8705Y0.6893
X1.8713Y1.2828
X1.8717Y1.213
X1.8732Y0.3593
X1.9146Y0.3935
X1.9147Y1.0305
X1.9149Y1.0604
X1.9567Y0.3594
X1.9587Y1.0992
X1.9739Y1.3017
X1.9979Y0.7654
X2.0015Y0.3751
X2.0019Y1.1025
X2.0071Y1.0616
X2.0123Y0.9109
X2.0388Y0.4068
X2.0403Y0.3593
X2.0444Y1.4245
X2.0516Y1.3125
X2.0655Y0.9002
X2.0703Y1.0035
X2.0766Y1.4264
X2.0853Y0.716
X2.0974Y1.4084
X2.1053Y0.9244
X2.117Y0.9523
X2.124Y0.3605
X2.1271Y0.9077
X2.145Y0.8901
X2.1539Y0.7931
X2.1655Y0.3751
X2.2083Y0.3608
X2.2091Y1.2756
X2.232Y0.588
X2.2463Y1.4262
X2.2482Y0.4071
X2.2563Y0.9378
X2.2906Y0.3599
X2.2918Y1.4213
X2.3114Y1.2787
X2.3219Y1.4227
X2.3315Y0.4066
X2.3403Y1.4498
X2.3681Y0.8499
X2.374Y1.0
X2.3745Y0.3599
X2.3826Y0.7345
X2.3984Y0.8488
X2.4025Y0.3714
X2.4212Y0.7344
X2.4227Y0.8489
X2.4365Y0.375
X2.4495Y1.0005
X2.4495Y0.9624
X2.4495Y0.9244
X2.4495Y0.8863
X2.4495Y0.8483
X2.4718Y0.9816
X2.4718Y0.9435
X2.4718Y0.9055
X2.4718Y0.8674
X2.4718Y0.8294
X2.4718Y0.7914
X2.4741Y1.3681
X2.4741Y1.3294
X2.4741Y1.2908
X2.4741Y1.2521
X2.4741Y1.2135
X2.4862Y1.048
X2.4959Y0.6264
X2.4959Y0.5579
X2.5206Y0.7347
X2.5216Y1.2058
X2.5219Y0.9973
X2.5367Y0.4054
X2.5381Y0.6264
X2.5381Y0.5579
X2.5608Y0.4054
X2.5621Y1.2047
X2.5636Y1.3725
X2.565Y1.2914
X2.5804Y0.6264
X2.5804Y0.5579
X2.5849Y0.4054
X2.5859Y0.4612
X2.5865Y0.5015
X2.6091Y0.4054
X2.6251Y0.383
X2.6306Y0.3556
X2.6332Y0.4054
X2.6337Y1.1425
X2.656Y0.4476
X2.6587Y0.3527
X2.6836Y1.1921
X2.6893Y0.3527
X2.7129Y0.5456
X2.7179Y0.5
T2
X1.7216Y1.2482
X1.7716Y1.2482
X1.8216Y1.2482
X1.8716Y1.2482
X1.9216Y1.2482
X1.9716Y1.2482
X2.0394Y1.2482
T3
X0.8885Y1.2207
X0.9672Y1.2207
X1.046Y1.2207
X1.1247Y1.2207
T0
M30
