%TF.GenerationSoftware,KiCad,Pcbnew,(6.99.0-5157-g987eb4b46a-dirty)*%
%TF.CreationDate,2022-12-28T16:32:46-05:00*%
%TF.ProjectId,controller,636f6e74-726f-46c6-9c65-722e6b696361,rev?*%
%TF.SameCoordinates,PX3cfccb0PYa197300*%
%TF.FileFunction,Legend,Top*%
%TF.FilePolarity,Positive*%
%FSLAX46Y46*%
G04 Gerber Fmt 4.6, Leading zero omitted, Abs format (unit mm)*
G04 Created by KiCad (PCBNEW (6.99.0-5157-g987eb4b46a-dirty)) date 2022-12-28 16:32:46*
%MOMM*%
%LPD*%
G01*
G04 APERTURE LIST*
%ADD10C,0.150000*%
%ADD11C,0.120000*%
G04 APERTURE END LIST*
D10*
X15203904Y17597620D02*
X14822952Y17330953D01*
X15203904Y17140477D02*
X14403904Y17140477D01*
X14403904Y17140477D02*
X14403904Y17445239D01*
X14403904Y17445239D02*
X14442000Y17521429D01*
X14442000Y17521429D02*
X14480095Y17559524D01*
X14480095Y17559524D02*
X14556285Y17597620D01*
X14556285Y17597620D02*
X14670571Y17597620D01*
X14670571Y17597620D02*
X14746761Y17559524D01*
X14746761Y17559524D02*
X14784857Y17521429D01*
X14784857Y17521429D02*
X14822952Y17445239D01*
X14822952Y17445239D02*
X14822952Y17140477D01*
X15165809Y17902381D02*
X15203904Y18016667D01*
X15203904Y18016667D02*
X15203904Y18207143D01*
X15203904Y18207143D02*
X15165809Y18283334D01*
X15165809Y18283334D02*
X15127714Y18321429D01*
X15127714Y18321429D02*
X15051523Y18359524D01*
X15051523Y18359524D02*
X14975333Y18359524D01*
X14975333Y18359524D02*
X14899142Y18321429D01*
X14899142Y18321429D02*
X14861047Y18283334D01*
X14861047Y18283334D02*
X14822952Y18207143D01*
X14822952Y18207143D02*
X14784857Y18054762D01*
X14784857Y18054762D02*
X14746761Y17978572D01*
X14746761Y17978572D02*
X14708666Y17940477D01*
X14708666Y17940477D02*
X14632476Y17902381D01*
X14632476Y17902381D02*
X14556285Y17902381D01*
X14556285Y17902381D02*
X14480095Y17940477D01*
X14480095Y17940477D02*
X14442000Y17978572D01*
X14442000Y17978572D02*
X14403904Y18054762D01*
X14403904Y18054762D02*
X14403904Y18245239D01*
X14403904Y18245239D02*
X14442000Y18359524D01*
X14403904Y18588096D02*
X14403904Y19045239D01*
X15203904Y18816667D02*
X14403904Y18816667D01*
X15203904Y20439525D02*
X15203904Y20401429D01*
X15203904Y20401429D02*
X15165809Y20325239D01*
X15165809Y20325239D02*
X15051523Y20210953D01*
X15051523Y20210953D02*
X14822952Y20020477D01*
X14822952Y20020477D02*
X14708666Y19944287D01*
X14708666Y19944287D02*
X14594380Y19906191D01*
X14594380Y19906191D02*
X14518190Y19906191D01*
X14518190Y19906191D02*
X14442000Y19944287D01*
X14442000Y19944287D02*
X14403904Y20020477D01*
X14403904Y20020477D02*
X14403904Y20058572D01*
X14403904Y20058572D02*
X14442000Y20134763D01*
X14442000Y20134763D02*
X14518190Y20172858D01*
X14518190Y20172858D02*
X14556285Y20172858D01*
X14556285Y20172858D02*
X14632476Y20134763D01*
X14632476Y20134763D02*
X14670571Y20096668D01*
X14670571Y20096668D02*
X14822952Y19868096D01*
X14822952Y19868096D02*
X14861047Y19830001D01*
X14861047Y19830001D02*
X14937238Y19791906D01*
X14937238Y19791906D02*
X15051523Y19791906D01*
X15051523Y19791906D02*
X15127714Y19830001D01*
X15127714Y19830001D02*
X15165809Y19868096D01*
X15165809Y19868096D02*
X15203904Y19944287D01*
X15203904Y19944287D02*
X15203904Y20058572D01*
X15203904Y20058572D02*
X15165809Y20134763D01*
X15165809Y20134763D02*
X15127714Y20172858D01*
X15127714Y20172858D02*
X14975333Y20287144D01*
X14975333Y20287144D02*
X14861047Y20325239D01*
X14861047Y20325239D02*
X14784857Y20325239D01*
X15203904Y21262382D02*
X14403904Y21262382D01*
X14403904Y21262382D02*
X14403904Y21567144D01*
X14403904Y21567144D02*
X14442000Y21643334D01*
X14442000Y21643334D02*
X14480095Y21681429D01*
X14480095Y21681429D02*
X14556285Y21719525D01*
X14556285Y21719525D02*
X14670571Y21719525D01*
X14670571Y21719525D02*
X14746761Y21681429D01*
X14746761Y21681429D02*
X14784857Y21643334D01*
X14784857Y21643334D02*
X14822952Y21567144D01*
X14822952Y21567144D02*
X14822952Y21262382D01*
X15203904Y22519525D02*
X14822952Y22252858D01*
X15203904Y22062382D02*
X14403904Y22062382D01*
X14403904Y22062382D02*
X14403904Y22367144D01*
X14403904Y22367144D02*
X14442000Y22443334D01*
X14442000Y22443334D02*
X14480095Y22481429D01*
X14480095Y22481429D02*
X14556285Y22519525D01*
X14556285Y22519525D02*
X14670571Y22519525D01*
X14670571Y22519525D02*
X14746761Y22481429D01*
X14746761Y22481429D02*
X14784857Y22443334D01*
X14784857Y22443334D02*
X14822952Y22367144D01*
X14822952Y22367144D02*
X14822952Y22062382D01*
X14403904Y23014763D02*
X14403904Y23167144D01*
X14403904Y23167144D02*
X14442000Y23243334D01*
X14442000Y23243334D02*
X14518190Y23319525D01*
X14518190Y23319525D02*
X14670571Y23357620D01*
X14670571Y23357620D02*
X14937238Y23357620D01*
X14937238Y23357620D02*
X15089619Y23319525D01*
X15089619Y23319525D02*
X15165809Y23243334D01*
X15165809Y23243334D02*
X15203904Y23167144D01*
X15203904Y23167144D02*
X15203904Y23014763D01*
X15203904Y23014763D02*
X15165809Y22938572D01*
X15165809Y22938572D02*
X15089619Y22862382D01*
X15089619Y22862382D02*
X14937238Y22824286D01*
X14937238Y22824286D02*
X14670571Y22824286D01*
X14670571Y22824286D02*
X14518190Y22862382D01*
X14518190Y22862382D02*
X14442000Y22938572D01*
X14442000Y22938572D02*
X14403904Y23014763D01*
X14442000Y24119524D02*
X14403904Y24043334D01*
X14403904Y24043334D02*
X14403904Y23929048D01*
X14403904Y23929048D02*
X14442000Y23814762D01*
X14442000Y23814762D02*
X14518190Y23738572D01*
X14518190Y23738572D02*
X14594380Y23700477D01*
X14594380Y23700477D02*
X14746761Y23662381D01*
X14746761Y23662381D02*
X14861047Y23662381D01*
X14861047Y23662381D02*
X15013428Y23700477D01*
X15013428Y23700477D02*
X15089619Y23738572D01*
X15089619Y23738572D02*
X15165809Y23814762D01*
X15165809Y23814762D02*
X15203904Y23929048D01*
X15203904Y23929048D02*
X15203904Y24005239D01*
X15203904Y24005239D02*
X15165809Y24119524D01*
X15165809Y24119524D02*
X15127714Y24157620D01*
X15127714Y24157620D02*
X14861047Y24157620D01*
X14861047Y24157620D02*
X14861047Y24005239D01*
X4022901Y36580856D02*
X4480044Y36580856D01*
X4251472Y35780856D02*
X4251472Y36580856D01*
X4860996Y35780856D02*
X4784806Y35818951D01*
X4784806Y35818951D02*
X4746711Y35857046D01*
X4746711Y35857046D02*
X4708615Y35933237D01*
X4708615Y35933237D02*
X4708615Y36161808D01*
X4708615Y36161808D02*
X4746711Y36237999D01*
X4746711Y36237999D02*
X4784806Y36276094D01*
X4784806Y36276094D02*
X4860996Y36314189D01*
X4860996Y36314189D02*
X4975282Y36314189D01*
X4975282Y36314189D02*
X5051473Y36276094D01*
X5051473Y36276094D02*
X5089568Y36237999D01*
X5089568Y36237999D02*
X5127663Y36161808D01*
X5127663Y36161808D02*
X5127663Y35933237D01*
X5127663Y35933237D02*
X5089568Y35857046D01*
X5089568Y35857046D02*
X5051473Y35818951D01*
X5051473Y35818951D02*
X4975282Y35780856D01*
X4975282Y35780856D02*
X4860996Y35780856D01*
X5470521Y36314189D02*
X5470521Y35514189D01*
X5470521Y36276094D02*
X5546711Y36314189D01*
X5546711Y36314189D02*
X5699092Y36314189D01*
X5699092Y36314189D02*
X5775283Y36276094D01*
X5775283Y36276094D02*
X5813378Y36237999D01*
X5813378Y36237999D02*
X5851473Y36161808D01*
X5851473Y36161808D02*
X5851473Y35933237D01*
X5851473Y35933237D02*
X5813378Y35857046D01*
X5813378Y35857046D02*
X5775283Y35818951D01*
X5775283Y35818951D02*
X5699092Y35780856D01*
X5699092Y35780856D02*
X5546711Y35780856D01*
X5546711Y35780856D02*
X5470521Y35818951D01*
X7055283Y35780856D02*
X6674331Y35780856D01*
X6674331Y35780856D02*
X6674331Y36580856D01*
X7436235Y35780856D02*
X7360045Y35818951D01*
X7360045Y35818951D02*
X7321950Y35857046D01*
X7321950Y35857046D02*
X7283854Y35933237D01*
X7283854Y35933237D02*
X7283854Y36161808D01*
X7283854Y36161808D02*
X7321950Y36237999D01*
X7321950Y36237999D02*
X7360045Y36276094D01*
X7360045Y36276094D02*
X7436235Y36314189D01*
X7436235Y36314189D02*
X7550521Y36314189D01*
X7550521Y36314189D02*
X7626712Y36276094D01*
X7626712Y36276094D02*
X7664807Y36237999D01*
X7664807Y36237999D02*
X7702902Y36161808D01*
X7702902Y36161808D02*
X7702902Y35933237D01*
X7702902Y35933237D02*
X7664807Y35857046D01*
X7664807Y35857046D02*
X7626712Y35818951D01*
X7626712Y35818951D02*
X7550521Y35780856D01*
X7550521Y35780856D02*
X7436235Y35780856D01*
X8388617Y35818951D02*
X8312426Y35780856D01*
X8312426Y35780856D02*
X8160045Y35780856D01*
X8160045Y35780856D02*
X8083855Y35818951D01*
X8083855Y35818951D02*
X8045760Y35857046D01*
X8045760Y35857046D02*
X8007664Y35933237D01*
X8007664Y35933237D02*
X8007664Y36161808D01*
X8007664Y36161808D02*
X8045760Y36237999D01*
X8045760Y36237999D02*
X8083855Y36276094D01*
X8083855Y36276094D02*
X8160045Y36314189D01*
X8160045Y36314189D02*
X8312426Y36314189D01*
X8312426Y36314189D02*
X8388617Y36276094D01*
X8731474Y35780856D02*
X8731474Y36580856D01*
X8807664Y36085618D02*
X9036236Y35780856D01*
X9036236Y36314189D02*
X8731474Y36009427D01*
X10240045Y35780856D02*
X9859093Y35780856D01*
X9859093Y35780856D02*
X9859093Y36580856D01*
X10506712Y35780856D02*
X10506712Y36314189D01*
X10506712Y36580856D02*
X10468616Y36542760D01*
X10468616Y36542760D02*
X10506712Y36504665D01*
X10506712Y36504665D02*
X10544807Y36542760D01*
X10544807Y36542760D02*
X10506712Y36580856D01*
X10506712Y36580856D02*
X10506712Y36504665D01*
X11230521Y36314189D02*
X11230521Y35666570D01*
X11230521Y35666570D02*
X11192426Y35590380D01*
X11192426Y35590380D02*
X11154330Y35552284D01*
X11154330Y35552284D02*
X11078140Y35514189D01*
X11078140Y35514189D02*
X10963854Y35514189D01*
X10963854Y35514189D02*
X10887664Y35552284D01*
X11230521Y35818951D02*
X11154330Y35780856D01*
X11154330Y35780856D02*
X11001949Y35780856D01*
X11001949Y35780856D02*
X10925759Y35818951D01*
X10925759Y35818951D02*
X10887664Y35857046D01*
X10887664Y35857046D02*
X10849568Y35933237D01*
X10849568Y35933237D02*
X10849568Y36161808D01*
X10849568Y36161808D02*
X10887664Y36237999D01*
X10887664Y36237999D02*
X10925759Y36276094D01*
X10925759Y36276094D02*
X11001949Y36314189D01*
X11001949Y36314189D02*
X11154330Y36314189D01*
X11154330Y36314189D02*
X11230521Y36276094D01*
X11611474Y35780856D02*
X11611474Y36580856D01*
X11954331Y35780856D02*
X11954331Y36199903D01*
X11954331Y36199903D02*
X11916236Y36276094D01*
X11916236Y36276094D02*
X11840045Y36314189D01*
X11840045Y36314189D02*
X11725759Y36314189D01*
X11725759Y36314189D02*
X11649569Y36276094D01*
X11649569Y36276094D02*
X11611474Y36237999D01*
X12220998Y36314189D02*
X12525760Y36314189D01*
X12335284Y36580856D02*
X12335284Y35895141D01*
X12335284Y35895141D02*
X12373379Y35818951D01*
X12373379Y35818951D02*
X12449569Y35780856D01*
X12449569Y35780856D02*
X12525760Y35780856D01*
X12754331Y35818951D02*
X12830522Y35780856D01*
X12830522Y35780856D02*
X12982903Y35780856D01*
X12982903Y35780856D02*
X13059093Y35818951D01*
X13059093Y35818951D02*
X13097189Y35895141D01*
X13097189Y35895141D02*
X13097189Y35933237D01*
X13097189Y35933237D02*
X13059093Y36009427D01*
X13059093Y36009427D02*
X12982903Y36047522D01*
X12982903Y36047522D02*
X12868617Y36047522D01*
X12868617Y36047522D02*
X12792427Y36085618D01*
X12792427Y36085618D02*
X12754331Y36161808D01*
X12754331Y36161808D02*
X12754331Y36199903D01*
X12754331Y36199903D02*
X12792427Y36276094D01*
X12792427Y36276094D02*
X12868617Y36314189D01*
X12868617Y36314189D02*
X12982903Y36314189D01*
X12982903Y36314189D02*
X13059093Y36276094D01*
X1312857Y8369286D02*
X1312857Y7702620D01*
X1074762Y8750239D02*
X836667Y8035953D01*
X836667Y8035953D02*
X1455714Y8035953D01*
X1836667Y7797858D02*
X1884286Y7750239D01*
X1884286Y7750239D02*
X1836667Y7702620D01*
X1836667Y7702620D02*
X1789048Y7750239D01*
X1789048Y7750239D02*
X1836667Y7797858D01*
X1836667Y7797858D02*
X1836667Y7702620D01*
X2217619Y8702620D02*
X2836666Y8702620D01*
X2836666Y8702620D02*
X2503333Y8321667D01*
X2503333Y8321667D02*
X2646190Y8321667D01*
X2646190Y8321667D02*
X2741428Y8274048D01*
X2741428Y8274048D02*
X2789047Y8226429D01*
X2789047Y8226429D02*
X2836666Y8131191D01*
X2836666Y8131191D02*
X2836666Y7893096D01*
X2836666Y7893096D02*
X2789047Y7797858D01*
X2789047Y7797858D02*
X2741428Y7750239D01*
X2741428Y7750239D02*
X2646190Y7702620D01*
X2646190Y7702620D02*
X2360476Y7702620D01*
X2360476Y7702620D02*
X2265238Y7750239D01*
X2265238Y7750239D02*
X2217619Y7797858D01*
X3265238Y7702620D02*
X3265238Y8369286D01*
X3265238Y8274048D02*
X3312857Y8321667D01*
X3312857Y8321667D02*
X3408095Y8369286D01*
X3408095Y8369286D02*
X3550952Y8369286D01*
X3550952Y8369286D02*
X3646190Y8321667D01*
X3646190Y8321667D02*
X3693809Y8226429D01*
X3693809Y8226429D02*
X3693809Y7702620D01*
X3693809Y8226429D02*
X3741428Y8321667D01*
X3741428Y8321667D02*
X3836666Y8369286D01*
X3836666Y8369286D02*
X3979523Y8369286D01*
X3979523Y8369286D02*
X4074762Y8321667D01*
X4074762Y8321667D02*
X4122381Y8226429D01*
X4122381Y8226429D02*
X4122381Y7702620D01*
X4598571Y7702620D02*
X4598571Y8369286D01*
X4598571Y8274048D02*
X4646190Y8321667D01*
X4646190Y8321667D02*
X4741428Y8369286D01*
X4741428Y8369286D02*
X4884285Y8369286D01*
X4884285Y8369286D02*
X4979523Y8321667D01*
X4979523Y8321667D02*
X5027142Y8226429D01*
X5027142Y8226429D02*
X5027142Y7702620D01*
X5027142Y8226429D02*
X5074761Y8321667D01*
X5074761Y8321667D02*
X5169999Y8369286D01*
X5169999Y8369286D02*
X5312856Y8369286D01*
X5312856Y8369286D02*
X5408095Y8321667D01*
X5408095Y8321667D02*
X5455714Y8226429D01*
X5455714Y8226429D02*
X5455714Y7702620D01*
X6531904Y7702620D02*
X6531904Y8702620D01*
X6960475Y7702620D02*
X6960475Y8226429D01*
X6960475Y8226429D02*
X6912856Y8321667D01*
X6912856Y8321667D02*
X6817618Y8369286D01*
X6817618Y8369286D02*
X6674761Y8369286D01*
X6674761Y8369286D02*
X6579523Y8321667D01*
X6579523Y8321667D02*
X6531904Y8274048D01*
X7579523Y7702620D02*
X7484285Y7750239D01*
X7484285Y7750239D02*
X7436666Y7797858D01*
X7436666Y7797858D02*
X7389047Y7893096D01*
X7389047Y7893096D02*
X7389047Y8178810D01*
X7389047Y8178810D02*
X7436666Y8274048D01*
X7436666Y8274048D02*
X7484285Y8321667D01*
X7484285Y8321667D02*
X7579523Y8369286D01*
X7579523Y8369286D02*
X7722380Y8369286D01*
X7722380Y8369286D02*
X7817618Y8321667D01*
X7817618Y8321667D02*
X7865237Y8274048D01*
X7865237Y8274048D02*
X7912856Y8178810D01*
X7912856Y8178810D02*
X7912856Y7893096D01*
X7912856Y7893096D02*
X7865237Y7797858D01*
X7865237Y7797858D02*
X7817618Y7750239D01*
X7817618Y7750239D02*
X7722380Y7702620D01*
X7722380Y7702620D02*
X7579523Y7702620D01*
X8484285Y7702620D02*
X8389047Y7750239D01*
X8389047Y7750239D02*
X8341428Y7845477D01*
X8341428Y7845477D02*
X8341428Y8702620D01*
X9246190Y7750239D02*
X9150952Y7702620D01*
X9150952Y7702620D02*
X8960476Y7702620D01*
X8960476Y7702620D02*
X8865238Y7750239D01*
X8865238Y7750239D02*
X8817619Y7845477D01*
X8817619Y7845477D02*
X8817619Y8226429D01*
X8817619Y8226429D02*
X8865238Y8321667D01*
X8865238Y8321667D02*
X8960476Y8369286D01*
X8960476Y8369286D02*
X9150952Y8369286D01*
X9150952Y8369286D02*
X9246190Y8321667D01*
X9246190Y8321667D02*
X9293809Y8226429D01*
X9293809Y8226429D02*
X9293809Y8131191D01*
X9293809Y8131191D02*
X8817619Y8035953D01*
X9674762Y7750239D02*
X9770000Y7702620D01*
X9770000Y7702620D02*
X9960476Y7702620D01*
X9960476Y7702620D02*
X10055714Y7750239D01*
X10055714Y7750239D02*
X10103333Y7845477D01*
X10103333Y7845477D02*
X10103333Y7893096D01*
X10103333Y7893096D02*
X10055714Y7988334D01*
X10055714Y7988334D02*
X9960476Y8035953D01*
X9960476Y8035953D02*
X9817619Y8035953D01*
X9817619Y8035953D02*
X9722381Y8083572D01*
X9722381Y8083572D02*
X9674762Y8178810D01*
X9674762Y8178810D02*
X9674762Y8226429D01*
X9674762Y8226429D02*
X9722381Y8321667D01*
X9722381Y8321667D02*
X9817619Y8369286D01*
X9817619Y8369286D02*
X9960476Y8369286D01*
X9960476Y8369286D02*
X10055714Y8321667D01*
D11*
X25932980Y34030060D02*
X27177580Y33600800D01*
X23931460Y34710780D02*
X25176060Y34281520D01*
D10*
X26887284Y34101157D02*
X26087284Y34101157D01*
X26087284Y34101157D02*
X26087284Y34405919D01*
X26087284Y34405919D02*
X26125380Y34482109D01*
X26125380Y34482109D02*
X26163475Y34520204D01*
X26163475Y34520204D02*
X26239665Y34558300D01*
X26239665Y34558300D02*
X26353951Y34558300D01*
X26353951Y34558300D02*
X26430141Y34520204D01*
X26430141Y34520204D02*
X26468237Y34482109D01*
X26468237Y34482109D02*
X26506332Y34405919D01*
X26506332Y34405919D02*
X26506332Y34101157D01*
X26811094Y35358300D02*
X26849189Y35320204D01*
X26849189Y35320204D02*
X26887284Y35205919D01*
X26887284Y35205919D02*
X26887284Y35129728D01*
X26887284Y35129728D02*
X26849189Y35015442D01*
X26849189Y35015442D02*
X26772999Y34939252D01*
X26772999Y34939252D02*
X26696808Y34901157D01*
X26696808Y34901157D02*
X26544427Y34863061D01*
X26544427Y34863061D02*
X26430141Y34863061D01*
X26430141Y34863061D02*
X26277760Y34901157D01*
X26277760Y34901157D02*
X26201570Y34939252D01*
X26201570Y34939252D02*
X26125380Y35015442D01*
X26125380Y35015442D02*
X26087284Y35129728D01*
X26087284Y35129728D02*
X26087284Y35205919D01*
X26087284Y35205919D02*
X26125380Y35320204D01*
X26125380Y35320204D02*
X26163475Y35358300D01*
X26887284Y36120204D02*
X26887284Y35663061D01*
X26887284Y35891633D02*
X26087284Y35891633D01*
X26087284Y35891633D02*
X26201570Y35815442D01*
X26201570Y35815442D02*
X26277760Y35739252D01*
X26277760Y35739252D02*
X26315856Y35663061D01*
X26087284Y36386871D02*
X26087284Y36882109D01*
X26087284Y36882109D02*
X26392046Y36615443D01*
X26392046Y36615443D02*
X26392046Y36729728D01*
X26392046Y36729728D02*
X26430141Y36805919D01*
X26430141Y36805919D02*
X26468237Y36844014D01*
X26468237Y36844014D02*
X26544427Y36882109D01*
X26544427Y36882109D02*
X26734903Y36882109D01*
X26734903Y36882109D02*
X26811094Y36844014D01*
X26811094Y36844014D02*
X26849189Y36805919D01*
X26849189Y36805919D02*
X26887284Y36729728D01*
X26887284Y36729728D02*
X26887284Y36501157D01*
X26887284Y36501157D02*
X26849189Y36424966D01*
X26849189Y36424966D02*
X26811094Y36386871D01*
X24885764Y34886017D02*
X24085764Y34886017D01*
X24085764Y34886017D02*
X24085764Y35190779D01*
X24085764Y35190779D02*
X24123860Y35266969D01*
X24123860Y35266969D02*
X24161955Y35305064D01*
X24161955Y35305064D02*
X24238145Y35343160D01*
X24238145Y35343160D02*
X24352431Y35343160D01*
X24352431Y35343160D02*
X24428621Y35305064D01*
X24428621Y35305064D02*
X24466717Y35266969D01*
X24466717Y35266969D02*
X24504812Y35190779D01*
X24504812Y35190779D02*
X24504812Y34886017D01*
X24466717Y35952683D02*
X24504812Y36066969D01*
X24504812Y36066969D02*
X24542907Y36105064D01*
X24542907Y36105064D02*
X24619098Y36143160D01*
X24619098Y36143160D02*
X24733383Y36143160D01*
X24733383Y36143160D02*
X24809574Y36105064D01*
X24809574Y36105064D02*
X24847669Y36066969D01*
X24847669Y36066969D02*
X24885764Y35990779D01*
X24885764Y35990779D02*
X24885764Y35686017D01*
X24885764Y35686017D02*
X24085764Y35686017D01*
X24085764Y35686017D02*
X24085764Y35952683D01*
X24085764Y35952683D02*
X24123860Y36028874D01*
X24123860Y36028874D02*
X24161955Y36066969D01*
X24161955Y36066969D02*
X24238145Y36105064D01*
X24238145Y36105064D02*
X24314336Y36105064D01*
X24314336Y36105064D02*
X24390526Y36066969D01*
X24390526Y36066969D02*
X24428621Y36028874D01*
X24428621Y36028874D02*
X24466717Y35952683D01*
X24466717Y35952683D02*
X24466717Y35686017D01*
X24085764Y36866969D02*
X24085764Y36486017D01*
X24085764Y36486017D02*
X24466717Y36447921D01*
X24466717Y36447921D02*
X24428621Y36486017D01*
X24428621Y36486017D02*
X24390526Y36562207D01*
X24390526Y36562207D02*
X24390526Y36752683D01*
X24390526Y36752683D02*
X24428621Y36828874D01*
X24428621Y36828874D02*
X24466717Y36866969D01*
X24466717Y36866969D02*
X24542907Y36905064D01*
X24542907Y36905064D02*
X24733383Y36905064D01*
X24733383Y36905064D02*
X24809574Y36866969D01*
X24809574Y36866969D02*
X24847669Y36828874D01*
X24847669Y36828874D02*
X24885764Y36752683D01*
X24885764Y36752683D02*
X24885764Y36562207D01*
X24885764Y36562207D02*
X24847669Y36486017D01*
X24847669Y36486017D02*
X24809574Y36447921D01*
D11*
X11387800Y31937100D02*
X10364180Y31937100D01*
X11387800Y30890620D02*
X11387800Y31937100D01*
X11387800Y34543140D02*
X11387800Y35358480D01*
X10364180Y34543140D02*
X11387800Y34543140D01*
D10*
X4428118Y30540783D02*
X4542404Y30502688D01*
X4542404Y30502688D02*
X4580499Y30464593D01*
X4580499Y30464593D02*
X4618595Y30388402D01*
X4618595Y30388402D02*
X4618595Y30274117D01*
X4618595Y30274117D02*
X4580499Y30197926D01*
X4580499Y30197926D02*
X4542404Y30159831D01*
X4542404Y30159831D02*
X4466214Y30121736D01*
X4466214Y30121736D02*
X4161452Y30121736D01*
X4161452Y30121736D02*
X4161452Y30921736D01*
X4161452Y30921736D02*
X4428118Y30921736D01*
X4428118Y30921736D02*
X4504309Y30883640D01*
X4504309Y30883640D02*
X4542404Y30845545D01*
X4542404Y30845545D02*
X4580499Y30769355D01*
X4580499Y30769355D02*
X4580499Y30693164D01*
X4580499Y30693164D02*
X4542404Y30616974D01*
X4542404Y30616974D02*
X4504309Y30578879D01*
X4504309Y30578879D02*
X4428118Y30540783D01*
X4428118Y30540783D02*
X4161452Y30540783D01*
X5075737Y30121736D02*
X4999547Y30159831D01*
X4999547Y30159831D02*
X4961452Y30197926D01*
X4961452Y30197926D02*
X4923356Y30274117D01*
X4923356Y30274117D02*
X4923356Y30502688D01*
X4923356Y30502688D02*
X4961452Y30578879D01*
X4961452Y30578879D02*
X4999547Y30616974D01*
X4999547Y30616974D02*
X5075737Y30655069D01*
X5075737Y30655069D02*
X5190023Y30655069D01*
X5190023Y30655069D02*
X5266214Y30616974D01*
X5266214Y30616974D02*
X5304309Y30578879D01*
X5304309Y30578879D02*
X5342404Y30502688D01*
X5342404Y30502688D02*
X5342404Y30274117D01*
X5342404Y30274117D02*
X5304309Y30197926D01*
X5304309Y30197926D02*
X5266214Y30159831D01*
X5266214Y30159831D02*
X5190023Y30121736D01*
X5190023Y30121736D02*
X5075737Y30121736D01*
X5570976Y30655069D02*
X5875738Y30655069D01*
X5685262Y30921736D02*
X5685262Y30236021D01*
X5685262Y30236021D02*
X5723357Y30159831D01*
X5723357Y30159831D02*
X5799547Y30121736D01*
X5799547Y30121736D02*
X5875738Y30121736D01*
X6028119Y30655069D02*
X6332881Y30655069D01*
X6142405Y30921736D02*
X6142405Y30236021D01*
X6142405Y30236021D02*
X6180500Y30159831D01*
X6180500Y30159831D02*
X6256690Y30121736D01*
X6256690Y30121736D02*
X6332881Y30121736D01*
X6713833Y30121736D02*
X6637643Y30159831D01*
X6637643Y30159831D02*
X6599548Y30197926D01*
X6599548Y30197926D02*
X6561452Y30274117D01*
X6561452Y30274117D02*
X6561452Y30502688D01*
X6561452Y30502688D02*
X6599548Y30578879D01*
X6599548Y30578879D02*
X6637643Y30616974D01*
X6637643Y30616974D02*
X6713833Y30655069D01*
X6713833Y30655069D02*
X6828119Y30655069D01*
X6828119Y30655069D02*
X6904310Y30616974D01*
X6904310Y30616974D02*
X6942405Y30578879D01*
X6942405Y30578879D02*
X6980500Y30502688D01*
X6980500Y30502688D02*
X6980500Y30274117D01*
X6980500Y30274117D02*
X6942405Y30197926D01*
X6942405Y30197926D02*
X6904310Y30159831D01*
X6904310Y30159831D02*
X6828119Y30121736D01*
X6828119Y30121736D02*
X6713833Y30121736D01*
X7323358Y30121736D02*
X7323358Y30655069D01*
X7323358Y30578879D02*
X7361453Y30616974D01*
X7361453Y30616974D02*
X7437643Y30655069D01*
X7437643Y30655069D02*
X7551929Y30655069D01*
X7551929Y30655069D02*
X7628120Y30616974D01*
X7628120Y30616974D02*
X7666215Y30540783D01*
X7666215Y30540783D02*
X7666215Y30121736D01*
X7666215Y30540783D02*
X7704310Y30616974D01*
X7704310Y30616974D02*
X7780501Y30655069D01*
X7780501Y30655069D02*
X7894786Y30655069D01*
X7894786Y30655069D02*
X7970977Y30616974D01*
X7970977Y30616974D02*
X8009072Y30540783D01*
X8009072Y30540783D02*
X8009072Y30121736D01*
X9250977Y30121736D02*
X8870025Y30121736D01*
X8870025Y30121736D02*
X8870025Y30921736D01*
X9631929Y30121736D02*
X9555739Y30159831D01*
X9555739Y30159831D02*
X9517644Y30197926D01*
X9517644Y30197926D02*
X9479548Y30274117D01*
X9479548Y30274117D02*
X9479548Y30502688D01*
X9479548Y30502688D02*
X9517644Y30578879D01*
X9517644Y30578879D02*
X9555739Y30616974D01*
X9555739Y30616974D02*
X9631929Y30655069D01*
X9631929Y30655069D02*
X9746215Y30655069D01*
X9746215Y30655069D02*
X9822406Y30616974D01*
X9822406Y30616974D02*
X9860501Y30578879D01*
X9860501Y30578879D02*
X9898596Y30502688D01*
X9898596Y30502688D02*
X9898596Y30274117D01*
X9898596Y30274117D02*
X9860501Y30197926D01*
X9860501Y30197926D02*
X9822406Y30159831D01*
X9822406Y30159831D02*
X9746215Y30121736D01*
X9746215Y30121736D02*
X9631929Y30121736D01*
X10584311Y30159831D02*
X10508120Y30121736D01*
X10508120Y30121736D02*
X10355739Y30121736D01*
X10355739Y30121736D02*
X10279549Y30159831D01*
X10279549Y30159831D02*
X10241454Y30197926D01*
X10241454Y30197926D02*
X10203358Y30274117D01*
X10203358Y30274117D02*
X10203358Y30502688D01*
X10203358Y30502688D02*
X10241454Y30578879D01*
X10241454Y30578879D02*
X10279549Y30616974D01*
X10279549Y30616974D02*
X10355739Y30655069D01*
X10355739Y30655069D02*
X10508120Y30655069D01*
X10508120Y30655069D02*
X10584311Y30616974D01*
X10927168Y30121736D02*
X10927168Y30921736D01*
X11003358Y30426498D02*
X11231930Y30121736D01*
X11231930Y30655069D02*
X10927168Y30350307D01*
X12435739Y30121736D02*
X12054787Y30121736D01*
X12054787Y30121736D02*
X12054787Y30921736D01*
X12702406Y30121736D02*
X12702406Y30655069D01*
X12702406Y30921736D02*
X12664310Y30883640D01*
X12664310Y30883640D02*
X12702406Y30845545D01*
X12702406Y30845545D02*
X12740501Y30883640D01*
X12740501Y30883640D02*
X12702406Y30921736D01*
X12702406Y30921736D02*
X12702406Y30845545D01*
X13426215Y30655069D02*
X13426215Y30007450D01*
X13426215Y30007450D02*
X13388120Y29931260D01*
X13388120Y29931260D02*
X13350024Y29893164D01*
X13350024Y29893164D02*
X13273834Y29855069D01*
X13273834Y29855069D02*
X13159548Y29855069D01*
X13159548Y29855069D02*
X13083358Y29893164D01*
X13426215Y30159831D02*
X13350024Y30121736D01*
X13350024Y30121736D02*
X13197643Y30121736D01*
X13197643Y30121736D02*
X13121453Y30159831D01*
X13121453Y30159831D02*
X13083358Y30197926D01*
X13083358Y30197926D02*
X13045262Y30274117D01*
X13045262Y30274117D02*
X13045262Y30502688D01*
X13045262Y30502688D02*
X13083358Y30578879D01*
X13083358Y30578879D02*
X13121453Y30616974D01*
X13121453Y30616974D02*
X13197643Y30655069D01*
X13197643Y30655069D02*
X13350024Y30655069D01*
X13350024Y30655069D02*
X13426215Y30616974D01*
X13807168Y30121736D02*
X13807168Y30921736D01*
X14150025Y30121736D02*
X14150025Y30540783D01*
X14150025Y30540783D02*
X14111930Y30616974D01*
X14111930Y30616974D02*
X14035739Y30655069D01*
X14035739Y30655069D02*
X13921453Y30655069D01*
X13921453Y30655069D02*
X13845263Y30616974D01*
X13845263Y30616974D02*
X13807168Y30578879D01*
X14416692Y30655069D02*
X14721454Y30655069D01*
X14530978Y30921736D02*
X14530978Y30236021D01*
X14530978Y30236021D02*
X14569073Y30159831D01*
X14569073Y30159831D02*
X14645263Y30121736D01*
X14645263Y30121736D02*
X14721454Y30121736D01*
X14950025Y30159831D02*
X15026216Y30121736D01*
X15026216Y30121736D02*
X15178597Y30121736D01*
X15178597Y30121736D02*
X15254787Y30159831D01*
X15254787Y30159831D02*
X15292883Y30236021D01*
X15292883Y30236021D02*
X15292883Y30274117D01*
X15292883Y30274117D02*
X15254787Y30350307D01*
X15254787Y30350307D02*
X15178597Y30388402D01*
X15178597Y30388402D02*
X15064311Y30388402D01*
X15064311Y30388402D02*
X14988121Y30426498D01*
X14988121Y30426498D02*
X14950025Y30502688D01*
X14950025Y30502688D02*
X14950025Y30540783D01*
X14950025Y30540783D02*
X14988121Y30616974D01*
X14988121Y30616974D02*
X15064311Y30655069D01*
X15064311Y30655069D02*
X15178597Y30655069D01*
X15178597Y30655069D02*
X15254787Y30616974D01*
X22061384Y32788020D02*
X22061384Y32407068D01*
X22061384Y32407068D02*
X22442337Y32368972D01*
X22442337Y32368972D02*
X22404241Y32407068D01*
X22404241Y32407068D02*
X22366146Y32483258D01*
X22366146Y32483258D02*
X22366146Y32673734D01*
X22366146Y32673734D02*
X22404241Y32749925D01*
X22404241Y32749925D02*
X22442337Y32788020D01*
X22442337Y32788020D02*
X22518527Y32826115D01*
X22518527Y32826115D02*
X22709003Y32826115D01*
X22709003Y32826115D02*
X22785194Y32788020D01*
X22785194Y32788020D02*
X22823289Y32749925D01*
X22823289Y32749925D02*
X22861384Y32673734D01*
X22861384Y32673734D02*
X22861384Y32483258D01*
X22861384Y32483258D02*
X22823289Y32407068D01*
X22823289Y32407068D02*
X22785194Y32368972D01*
X22061384Y33054687D02*
X22861384Y33321354D01*
X22861384Y33321354D02*
X22061384Y33588020D01*
X24085764Y32109811D02*
X24085764Y32566954D01*
X24885764Y32338382D02*
X24085764Y32338382D01*
X24885764Y33290764D02*
X24504812Y33024097D01*
X24885764Y32833621D02*
X24085764Y32833621D01*
X24085764Y32833621D02*
X24085764Y33138383D01*
X24085764Y33138383D02*
X24123860Y33214573D01*
X24123860Y33214573D02*
X24161955Y33252668D01*
X24161955Y33252668D02*
X24238145Y33290764D01*
X24238145Y33290764D02*
X24352431Y33290764D01*
X24352431Y33290764D02*
X24428621Y33252668D01*
X24428621Y33252668D02*
X24466717Y33214573D01*
X24466717Y33214573D02*
X24504812Y33138383D01*
X24504812Y33138383D02*
X24504812Y32833621D01*
X24123860Y34052668D02*
X24085764Y33976478D01*
X24085764Y33976478D02*
X24085764Y33862192D01*
X24085764Y33862192D02*
X24123860Y33747906D01*
X24123860Y33747906D02*
X24200050Y33671716D01*
X24200050Y33671716D02*
X24276240Y33633621D01*
X24276240Y33633621D02*
X24428621Y33595525D01*
X24428621Y33595525D02*
X24542907Y33595525D01*
X24542907Y33595525D02*
X24695288Y33633621D01*
X24695288Y33633621D02*
X24771479Y33671716D01*
X24771479Y33671716D02*
X24847669Y33747906D01*
X24847669Y33747906D02*
X24885764Y33862192D01*
X24885764Y33862192D02*
X24885764Y33938383D01*
X24885764Y33938383D02*
X24847669Y34052668D01*
X24847669Y34052668D02*
X24809574Y34090764D01*
X24809574Y34090764D02*
X24542907Y34090764D01*
X24542907Y34090764D02*
X24542907Y33938383D01*
X26468237Y32160597D02*
X26468237Y32427263D01*
X26887284Y32541549D02*
X26887284Y32160597D01*
X26887284Y32160597D02*
X26087284Y32160597D01*
X26087284Y32160597D02*
X26087284Y32541549D01*
X26887284Y32884407D02*
X26087284Y32884407D01*
X26087284Y32884407D02*
X26887284Y33341550D01*
X26887284Y33341550D02*
X26087284Y33341550D01*
X28124360Y32734737D02*
X28086264Y32658547D01*
X28086264Y32658547D02*
X28086264Y32544261D01*
X28086264Y32544261D02*
X28124360Y32429975D01*
X28124360Y32429975D02*
X28200550Y32353785D01*
X28200550Y32353785D02*
X28276740Y32315690D01*
X28276740Y32315690D02*
X28429121Y32277594D01*
X28429121Y32277594D02*
X28543407Y32277594D01*
X28543407Y32277594D02*
X28695788Y32315690D01*
X28695788Y32315690D02*
X28771979Y32353785D01*
X28771979Y32353785D02*
X28848169Y32429975D01*
X28848169Y32429975D02*
X28886264Y32544261D01*
X28886264Y32544261D02*
X28886264Y32620452D01*
X28886264Y32620452D02*
X28848169Y32734737D01*
X28848169Y32734737D02*
X28810074Y32772833D01*
X28810074Y32772833D02*
X28543407Y32772833D01*
X28543407Y32772833D02*
X28543407Y32620452D01*
X28886264Y33115690D02*
X28086264Y33115690D01*
X28086264Y33115690D02*
X28886264Y33572833D01*
X28886264Y33572833D02*
X28086264Y33572833D01*
X28886264Y33953785D02*
X28086264Y33953785D01*
X28086264Y33953785D02*
X28086264Y34144261D01*
X28086264Y34144261D02*
X28124360Y34258547D01*
X28124360Y34258547D02*
X28200550Y34334737D01*
X28200550Y34334737D02*
X28276740Y34372832D01*
X28276740Y34372832D02*
X28429121Y34410928D01*
X28429121Y34410928D02*
X28543407Y34410928D01*
X28543407Y34410928D02*
X28695788Y34372832D01*
X28695788Y34372832D02*
X28771979Y34334737D01*
X28771979Y34334737D02*
X28848169Y34258547D01*
X28848169Y34258547D02*
X28886264Y34144261D01*
X28886264Y34144261D02*
X28886264Y33953785D01*
X61195064Y32728399D02*
X60395064Y32728399D01*
X60395064Y32728399D02*
X60395064Y32918875D01*
X60395064Y32918875D02*
X60433160Y33033161D01*
X60433160Y33033161D02*
X60509350Y33109351D01*
X60509350Y33109351D02*
X60585540Y33147446D01*
X60585540Y33147446D02*
X60737921Y33185542D01*
X60737921Y33185542D02*
X60852207Y33185542D01*
X60852207Y33185542D02*
X61004588Y33147446D01*
X61004588Y33147446D02*
X61080779Y33109351D01*
X61080779Y33109351D02*
X61156969Y33033161D01*
X61156969Y33033161D02*
X61195064Y32918875D01*
X61195064Y32918875D02*
X61195064Y32728399D01*
X60890302Y33528399D02*
X60890302Y34137922D01*
X57014224Y32708079D02*
X56214224Y32708079D01*
X56214224Y32708079D02*
X56214224Y32898555D01*
X56214224Y32898555D02*
X56252320Y33012841D01*
X56252320Y33012841D02*
X56328510Y33089031D01*
X56328510Y33089031D02*
X56404700Y33127126D01*
X56404700Y33127126D02*
X56557081Y33165222D01*
X56557081Y33165222D02*
X56671367Y33165222D01*
X56671367Y33165222D02*
X56823748Y33127126D01*
X56823748Y33127126D02*
X56899939Y33089031D01*
X56899939Y33089031D02*
X56976129Y33012841D01*
X56976129Y33012841D02*
X57014224Y32898555D01*
X57014224Y32898555D02*
X57014224Y32708079D01*
X56709462Y33508079D02*
X56709462Y34117602D01*
X57014224Y33812841D02*
X56404700Y33812841D01*
X58424020Y33123357D02*
X58385924Y33047167D01*
X58385924Y33047167D02*
X58385924Y32932881D01*
X58385924Y32932881D02*
X58424020Y32818595D01*
X58424020Y32818595D02*
X58500210Y32742405D01*
X58500210Y32742405D02*
X58576400Y32704310D01*
X58576400Y32704310D02*
X58728781Y32666214D01*
X58728781Y32666214D02*
X58843067Y32666214D01*
X58843067Y32666214D02*
X58995448Y32704310D01*
X58995448Y32704310D02*
X59071639Y32742405D01*
X59071639Y32742405D02*
X59147829Y32818595D01*
X59147829Y32818595D02*
X59185924Y32932881D01*
X59185924Y32932881D02*
X59185924Y33009072D01*
X59185924Y33009072D02*
X59147829Y33123357D01*
X59147829Y33123357D02*
X59109734Y33161453D01*
X59109734Y33161453D02*
X58843067Y33161453D01*
X58843067Y33161453D02*
X58843067Y33009072D01*
X59185924Y33504310D02*
X58385924Y33504310D01*
X58385924Y33504310D02*
X59185924Y33961453D01*
X59185924Y33961453D02*
X58385924Y33961453D01*
X59185924Y34342405D02*
X58385924Y34342405D01*
X58385924Y34342405D02*
X58385924Y34532881D01*
X58385924Y34532881D02*
X58424020Y34647167D01*
X58424020Y34647167D02*
X58500210Y34723357D01*
X58500210Y34723357D02*
X58576400Y34761452D01*
X58576400Y34761452D02*
X58728781Y34799548D01*
X58728781Y34799548D02*
X58843067Y34799548D01*
X58843067Y34799548D02*
X58995448Y34761452D01*
X58995448Y34761452D02*
X59071639Y34723357D01*
X59071639Y34723357D02*
X59147829Y34647167D01*
X59147829Y34647167D02*
X59185924Y34532881D01*
X59185924Y34532881D02*
X59185924Y34342405D01*
X54360024Y32714360D02*
X54360024Y32333408D01*
X54360024Y32333408D02*
X54740977Y32295312D01*
X54740977Y32295312D02*
X54702881Y32333408D01*
X54702881Y32333408D02*
X54664786Y32409598D01*
X54664786Y32409598D02*
X54664786Y32600074D01*
X54664786Y32600074D02*
X54702881Y32676265D01*
X54702881Y32676265D02*
X54740977Y32714360D01*
X54740977Y32714360D02*
X54817167Y32752455D01*
X54817167Y32752455D02*
X55007643Y32752455D01*
X55007643Y32752455D02*
X55083834Y32714360D01*
X55083834Y32714360D02*
X55121929Y32676265D01*
X55121929Y32676265D02*
X55160024Y32600074D01*
X55160024Y32600074D02*
X55160024Y32409598D01*
X55160024Y32409598D02*
X55121929Y32333408D01*
X55121929Y32333408D02*
X55083834Y32295312D01*
X54360024Y32981027D02*
X55160024Y33247694D01*
X55160024Y33247694D02*
X54360024Y33514360D01*
D11*
X20160000Y36841840D02*
X20160000Y31947260D01*
D10*
X12797951Y7037640D02*
X12988427Y7037640D01*
X12988427Y7037640D02*
X13083665Y6990020D01*
X13083665Y6990020D02*
X13178903Y6894782D01*
X13178903Y6894782D02*
X13226522Y6704306D01*
X13226522Y6704306D02*
X13226522Y6370973D01*
X13226522Y6370973D02*
X13178903Y6180497D01*
X13178903Y6180497D02*
X13083665Y6085259D01*
X13083665Y6085259D02*
X12988427Y6037640D01*
X12988427Y6037640D02*
X12797951Y6037640D01*
X12797951Y6037640D02*
X12702713Y6085259D01*
X12702713Y6085259D02*
X12607475Y6180497D01*
X12607475Y6180497D02*
X12559856Y6370973D01*
X12559856Y6370973D02*
X12559856Y6704306D01*
X12559856Y6704306D02*
X12607475Y6894782D01*
X12607475Y6894782D02*
X12702713Y6990020D01*
X12702713Y6990020D02*
X12797951Y7037640D01*
X13559856Y6704306D02*
X13797951Y6037640D01*
X13797951Y6037640D02*
X14036046Y6704306D01*
X14797951Y6085259D02*
X14702713Y6037640D01*
X14702713Y6037640D02*
X14512237Y6037640D01*
X14512237Y6037640D02*
X14416999Y6085259D01*
X14416999Y6085259D02*
X14369380Y6180497D01*
X14369380Y6180497D02*
X14369380Y6561449D01*
X14369380Y6561449D02*
X14416999Y6656687D01*
X14416999Y6656687D02*
X14512237Y6704306D01*
X14512237Y6704306D02*
X14702713Y6704306D01*
X14702713Y6704306D02*
X14797951Y6656687D01*
X14797951Y6656687D02*
X14845570Y6561449D01*
X14845570Y6561449D02*
X14845570Y6466211D01*
X14845570Y6466211D02*
X14369380Y6370973D01*
X15274142Y6037640D02*
X15274142Y6704306D01*
X15274142Y6513830D02*
X15321761Y6609068D01*
X15321761Y6609068D02*
X15369380Y6656687D01*
X15369380Y6656687D02*
X15464618Y6704306D01*
X15464618Y6704306D02*
X15559856Y6704306D01*
X15893190Y6037640D02*
X15893190Y7037640D01*
X15893190Y7037640D02*
X16464618Y6037640D01*
X16464618Y6037640D02*
X16464618Y7037640D01*
X17369380Y6704306D02*
X17369380Y6037640D01*
X16940809Y6704306D02*
X16940809Y6180497D01*
X16940809Y6180497D02*
X16988428Y6085259D01*
X16988428Y6085259D02*
X17083666Y6037640D01*
X17083666Y6037640D02*
X17226523Y6037640D01*
X17226523Y6037640D02*
X17321761Y6085259D01*
X17321761Y6085259D02*
X17369380Y6132878D01*
X17845571Y6037640D02*
X17845571Y6704306D01*
X17845571Y6609068D02*
X17893190Y6656687D01*
X17893190Y6656687D02*
X17988428Y6704306D01*
X17988428Y6704306D02*
X18131285Y6704306D01*
X18131285Y6704306D02*
X18226523Y6656687D01*
X18226523Y6656687D02*
X18274142Y6561449D01*
X18274142Y6561449D02*
X18274142Y6037640D01*
X18274142Y6561449D02*
X18321761Y6656687D01*
X18321761Y6656687D02*
X18416999Y6704306D01*
X18416999Y6704306D02*
X18559856Y6704306D01*
X18559856Y6704306D02*
X18655095Y6656687D01*
X18655095Y6656687D02*
X18702714Y6561449D01*
X18702714Y6561449D02*
X18702714Y6037640D01*
X19178904Y6704306D02*
X19178904Y5704306D01*
X19178904Y6656687D02*
X19274142Y6704306D01*
X19274142Y6704306D02*
X19464618Y6704306D01*
X19464618Y6704306D02*
X19559856Y6656687D01*
X19559856Y6656687D02*
X19607475Y6609068D01*
X19607475Y6609068D02*
X19655094Y6513830D01*
X19655094Y6513830D02*
X19655094Y6228116D01*
X19655094Y6228116D02*
X19607475Y6132878D01*
X19607475Y6132878D02*
X19559856Y6085259D01*
X19559856Y6085259D02*
X19464618Y6037640D01*
X19464618Y6037640D02*
X19274142Y6037640D01*
X19274142Y6037640D02*
X19178904Y6085259D01*
X20512237Y6037640D02*
X20512237Y6561449D01*
X20512237Y6561449D02*
X20464618Y6656687D01*
X20464618Y6656687D02*
X20369380Y6704306D01*
X20369380Y6704306D02*
X20178904Y6704306D01*
X20178904Y6704306D02*
X20083666Y6656687D01*
X20512237Y6085259D02*
X20416999Y6037640D01*
X20416999Y6037640D02*
X20178904Y6037640D01*
X20178904Y6037640D02*
X20083666Y6085259D01*
X20083666Y6085259D02*
X20036047Y6180497D01*
X20036047Y6180497D02*
X20036047Y6275735D01*
X20036047Y6275735D02*
X20083666Y6370973D01*
X20083666Y6370973D02*
X20178904Y6418592D01*
X20178904Y6418592D02*
X20416999Y6418592D01*
X20416999Y6418592D02*
X20512237Y6466211D01*
X21416999Y6037640D02*
X21416999Y7037640D01*
X21416999Y6085259D02*
X21321761Y6037640D01*
X21321761Y6037640D02*
X21131285Y6037640D01*
X21131285Y6037640D02*
X21036047Y6085259D01*
X21036047Y6085259D02*
X20988428Y6132878D01*
X20988428Y6132878D02*
X20940809Y6228116D01*
X20940809Y6228116D02*
X20940809Y6513830D01*
X20940809Y6513830D02*
X20988428Y6609068D01*
X20988428Y6609068D02*
X21036047Y6656687D01*
X21036047Y6656687D02*
X21131285Y6704306D01*
X21131285Y6704306D02*
X21321761Y6704306D01*
X21321761Y6704306D02*
X21416999Y6656687D01*
X22464618Y6132878D02*
X22416999Y6085259D01*
X22416999Y6085259D02*
X22274142Y6037640D01*
X22274142Y6037640D02*
X22178904Y6037640D01*
X22178904Y6037640D02*
X22036047Y6085259D01*
X22036047Y6085259D02*
X21940809Y6180497D01*
X21940809Y6180497D02*
X21893190Y6275735D01*
X21893190Y6275735D02*
X21845571Y6466211D01*
X21845571Y6466211D02*
X21845571Y6609068D01*
X21845571Y6609068D02*
X21893190Y6799544D01*
X21893190Y6799544D02*
X21940809Y6894782D01*
X21940809Y6894782D02*
X22036047Y6990020D01*
X22036047Y6990020D02*
X22178904Y7037640D01*
X22178904Y7037640D02*
X22274142Y7037640D01*
X22274142Y7037640D02*
X22416999Y6990020D01*
X22416999Y6990020D02*
X22464618Y6942401D01*
X23036047Y6037640D02*
X22940809Y6085259D01*
X22940809Y6085259D02*
X22893190Y6132878D01*
X22893190Y6132878D02*
X22845571Y6228116D01*
X22845571Y6228116D02*
X22845571Y6513830D01*
X22845571Y6513830D02*
X22893190Y6609068D01*
X22893190Y6609068D02*
X22940809Y6656687D01*
X22940809Y6656687D02*
X23036047Y6704306D01*
X23036047Y6704306D02*
X23178904Y6704306D01*
X23178904Y6704306D02*
X23274142Y6656687D01*
X23274142Y6656687D02*
X23321761Y6609068D01*
X23321761Y6609068D02*
X23369380Y6513830D01*
X23369380Y6513830D02*
X23369380Y6228116D01*
X23369380Y6228116D02*
X23321761Y6132878D01*
X23321761Y6132878D02*
X23274142Y6085259D01*
X23274142Y6085259D02*
X23178904Y6037640D01*
X23178904Y6037640D02*
X23036047Y6037640D01*
X23797952Y6704306D02*
X23797952Y6037640D01*
X23797952Y6609068D02*
X23845571Y6656687D01*
X23845571Y6656687D02*
X23940809Y6704306D01*
X23940809Y6704306D02*
X24083666Y6704306D01*
X24083666Y6704306D02*
X24178904Y6656687D01*
X24178904Y6656687D02*
X24226523Y6561449D01*
X24226523Y6561449D02*
X24226523Y6037640D01*
X24559857Y6704306D02*
X24940809Y6704306D01*
X24702714Y7037640D02*
X24702714Y6180497D01*
X24702714Y6180497D02*
X24750333Y6085259D01*
X24750333Y6085259D02*
X24845571Y6037640D01*
X24845571Y6037640D02*
X24940809Y6037640D01*
X25274143Y6037640D02*
X25274143Y6704306D01*
X25274143Y6513830D02*
X25321762Y6609068D01*
X25321762Y6609068D02*
X25369381Y6656687D01*
X25369381Y6656687D02*
X25464619Y6704306D01*
X25464619Y6704306D02*
X25559857Y6704306D01*
X26036048Y6037640D02*
X25940810Y6085259D01*
X25940810Y6085259D02*
X25893191Y6132878D01*
X25893191Y6132878D02*
X25845572Y6228116D01*
X25845572Y6228116D02*
X25845572Y6513830D01*
X25845572Y6513830D02*
X25893191Y6609068D01*
X25893191Y6609068D02*
X25940810Y6656687D01*
X25940810Y6656687D02*
X26036048Y6704306D01*
X26036048Y6704306D02*
X26178905Y6704306D01*
X26178905Y6704306D02*
X26274143Y6656687D01*
X26274143Y6656687D02*
X26321762Y6609068D01*
X26321762Y6609068D02*
X26369381Y6513830D01*
X26369381Y6513830D02*
X26369381Y6228116D01*
X26369381Y6228116D02*
X26321762Y6132878D01*
X26321762Y6132878D02*
X26274143Y6085259D01*
X26274143Y6085259D02*
X26178905Y6037640D01*
X26178905Y6037640D02*
X26036048Y6037640D01*
X26940810Y6037640D02*
X26845572Y6085259D01*
X26845572Y6085259D02*
X26797953Y6180497D01*
X26797953Y6180497D02*
X26797953Y7037640D01*
X27464620Y6037640D02*
X27369382Y6085259D01*
X27369382Y6085259D02*
X27321763Y6180497D01*
X27321763Y6180497D02*
X27321763Y7037640D01*
X28226525Y6085259D02*
X28131287Y6037640D01*
X28131287Y6037640D02*
X27940811Y6037640D01*
X27940811Y6037640D02*
X27845573Y6085259D01*
X27845573Y6085259D02*
X27797954Y6180497D01*
X27797954Y6180497D02*
X27797954Y6561449D01*
X27797954Y6561449D02*
X27845573Y6656687D01*
X27845573Y6656687D02*
X27940811Y6704306D01*
X27940811Y6704306D02*
X28131287Y6704306D01*
X28131287Y6704306D02*
X28226525Y6656687D01*
X28226525Y6656687D02*
X28274144Y6561449D01*
X28274144Y6561449D02*
X28274144Y6466211D01*
X28274144Y6466211D02*
X27797954Y6370973D01*
X28702716Y6037640D02*
X28702716Y6704306D01*
X28702716Y6513830D02*
X28750335Y6609068D01*
X28750335Y6609068D02*
X28797954Y6656687D01*
X28797954Y6656687D02*
X28893192Y6704306D01*
X28893192Y6704306D02*
X28988430Y6704306D01*
X30493192Y6037640D02*
X30159859Y6513830D01*
X29921764Y6037640D02*
X29921764Y7037640D01*
X29921764Y7037640D02*
X30302716Y7037640D01*
X30302716Y7037640D02*
X30397954Y6990020D01*
X30397954Y6990020D02*
X30445573Y6942401D01*
X30445573Y6942401D02*
X30493192Y6847163D01*
X30493192Y6847163D02*
X30493192Y6704306D01*
X30493192Y6704306D02*
X30445573Y6609068D01*
X30445573Y6609068D02*
X30397954Y6561449D01*
X30397954Y6561449D02*
X30302716Y6513830D01*
X30302716Y6513830D02*
X29921764Y6513830D01*
X31302716Y6085259D02*
X31207478Y6037640D01*
X31207478Y6037640D02*
X31017002Y6037640D01*
X31017002Y6037640D02*
X30921764Y6085259D01*
X30921764Y6085259D02*
X30874145Y6180497D01*
X30874145Y6180497D02*
X30874145Y6561449D01*
X30874145Y6561449D02*
X30921764Y6656687D01*
X30921764Y6656687D02*
X31017002Y6704306D01*
X31017002Y6704306D02*
X31207478Y6704306D01*
X31207478Y6704306D02*
X31302716Y6656687D01*
X31302716Y6656687D02*
X31350335Y6561449D01*
X31350335Y6561449D02*
X31350335Y6466211D01*
X31350335Y6466211D02*
X30874145Y6370973D01*
X31683669Y6704306D02*
X31921764Y6037640D01*
X31921764Y6037640D02*
X32159859Y6704306D01*
X32540812Y6132878D02*
X32588431Y6085259D01*
X32588431Y6085259D02*
X32540812Y6037640D01*
X32540812Y6037640D02*
X32493193Y6085259D01*
X32493193Y6085259D02*
X32540812Y6132878D01*
X32540812Y6132878D02*
X32540812Y6037640D01*
X34140811Y6037640D02*
X33569383Y6037640D01*
X33855097Y6037640D02*
X33855097Y7037640D01*
X33855097Y7037640D02*
X33759859Y6894782D01*
X33759859Y6894782D02*
X33664621Y6799544D01*
X33664621Y6799544D02*
X33569383Y6751925D01*
X34569383Y6132878D02*
X34617002Y6085259D01*
X34617002Y6085259D02*
X34569383Y6037640D01*
X34569383Y6037640D02*
X34521764Y6085259D01*
X34521764Y6085259D02*
X34569383Y6132878D01*
X34569383Y6132878D02*
X34569383Y6037640D01*
X35569382Y6037640D02*
X34997954Y6037640D01*
X35283668Y6037640D02*
X35283668Y7037640D01*
X35283668Y7037640D02*
X35188430Y6894782D01*
X35188430Y6894782D02*
X35093192Y6799544D01*
X35093192Y6799544D02*
X34997954Y6751925D01*
X35997954Y6037640D02*
X35997954Y7037640D01*
X35997954Y6656687D02*
X36093192Y6704306D01*
X36093192Y6704306D02*
X36283668Y6704306D01*
X36283668Y6704306D02*
X36378906Y6656687D01*
X36378906Y6656687D02*
X36426525Y6609068D01*
X36426525Y6609068D02*
X36474144Y6513830D01*
X36474144Y6513830D02*
X36474144Y6228116D01*
X36474144Y6228116D02*
X36426525Y6132878D01*
X36426525Y6132878D02*
X36378906Y6085259D01*
X36378906Y6085259D02*
X36283668Y6037640D01*
X36283668Y6037640D02*
X36093192Y6037640D01*
X36093192Y6037640D02*
X35997954Y6085259D01*
X53416666Y6039286D02*
X53416666Y5039286D01*
X53416666Y5991667D02*
X53511904Y6039286D01*
X53511904Y6039286D02*
X53702380Y6039286D01*
X53702380Y6039286D02*
X53797618Y5991667D01*
X53797618Y5991667D02*
X53845237Y5944048D01*
X53845237Y5944048D02*
X53892856Y5848810D01*
X53892856Y5848810D02*
X53892856Y5563096D01*
X53892856Y5563096D02*
X53845237Y5467858D01*
X53845237Y5467858D02*
X53797618Y5420239D01*
X53797618Y5420239D02*
X53702380Y5372620D01*
X53702380Y5372620D02*
X53511904Y5372620D01*
X53511904Y5372620D02*
X53416666Y5420239D01*
X54749999Y5372620D02*
X54749999Y5896429D01*
X54749999Y5896429D02*
X54702380Y5991667D01*
X54702380Y5991667D02*
X54607142Y6039286D01*
X54607142Y6039286D02*
X54416666Y6039286D01*
X54416666Y6039286D02*
X54321428Y5991667D01*
X54749999Y5420239D02*
X54654761Y5372620D01*
X54654761Y5372620D02*
X54416666Y5372620D01*
X54416666Y5372620D02*
X54321428Y5420239D01*
X54321428Y5420239D02*
X54273809Y5515477D01*
X54273809Y5515477D02*
X54273809Y5610715D01*
X54273809Y5610715D02*
X54321428Y5705953D01*
X54321428Y5705953D02*
X54416666Y5753572D01*
X54416666Y5753572D02*
X54654761Y5753572D01*
X54654761Y5753572D02*
X54749999Y5801191D01*
X55226190Y6039286D02*
X55226190Y5372620D01*
X55226190Y5944048D02*
X55273809Y5991667D01*
X55273809Y5991667D02*
X55369047Y6039286D01*
X55369047Y6039286D02*
X55511904Y6039286D01*
X55511904Y6039286D02*
X55607142Y5991667D01*
X55607142Y5991667D02*
X55654761Y5896429D01*
X55654761Y5896429D02*
X55654761Y5372620D01*
X56559523Y5372620D02*
X56559523Y6372620D01*
X56559523Y5420239D02*
X56464285Y5372620D01*
X56464285Y5372620D02*
X56273809Y5372620D01*
X56273809Y5372620D02*
X56178571Y5420239D01*
X56178571Y5420239D02*
X56130952Y5467858D01*
X56130952Y5467858D02*
X56083333Y5563096D01*
X56083333Y5563096D02*
X56083333Y5848810D01*
X56083333Y5848810D02*
X56130952Y5944048D01*
X56130952Y5944048D02*
X56178571Y5991667D01*
X56178571Y5991667D02*
X56273809Y6039286D01*
X56273809Y6039286D02*
X56464285Y6039286D01*
X56464285Y6039286D02*
X56559523Y5991667D01*
X57035714Y5372620D02*
X57035714Y6039286D01*
X57035714Y5848810D02*
X57083333Y5944048D01*
X57083333Y5944048D02*
X57130952Y5991667D01*
X57130952Y5991667D02*
X57226190Y6039286D01*
X57226190Y6039286D02*
X57321428Y6039286D01*
X58035714Y5420239D02*
X57940476Y5372620D01*
X57940476Y5372620D02*
X57750000Y5372620D01*
X57750000Y5372620D02*
X57654762Y5420239D01*
X57654762Y5420239D02*
X57607143Y5515477D01*
X57607143Y5515477D02*
X57607143Y5896429D01*
X57607143Y5896429D02*
X57654762Y5991667D01*
X57654762Y5991667D02*
X57750000Y6039286D01*
X57750000Y6039286D02*
X57940476Y6039286D01*
X57940476Y6039286D02*
X58035714Y5991667D01*
X58035714Y5991667D02*
X58083333Y5896429D01*
X58083333Y5896429D02*
X58083333Y5801191D01*
X58083333Y5801191D02*
X57607143Y5705953D01*
X58416667Y6039286D02*
X58607143Y5372620D01*
X58607143Y5372620D02*
X58797619Y5848810D01*
X58797619Y5848810D02*
X58988095Y5372620D01*
X58988095Y5372620D02*
X59178571Y6039286D01*
X13219523Y4442620D02*
X12886190Y4918810D01*
X12648095Y4442620D02*
X12648095Y5442620D01*
X12648095Y5442620D02*
X13029047Y5442620D01*
X13029047Y5442620D02*
X13124285Y5395000D01*
X13124285Y5395000D02*
X13171904Y5347381D01*
X13171904Y5347381D02*
X13219523Y5252143D01*
X13219523Y5252143D02*
X13219523Y5109286D01*
X13219523Y5109286D02*
X13171904Y5014048D01*
X13171904Y5014048D02*
X13124285Y4966429D01*
X13124285Y4966429D02*
X13029047Y4918810D01*
X13029047Y4918810D02*
X12648095Y4918810D01*
X14029047Y4490239D02*
X13933809Y4442620D01*
X13933809Y4442620D02*
X13743333Y4442620D01*
X13743333Y4442620D02*
X13648095Y4490239D01*
X13648095Y4490239D02*
X13600476Y4585477D01*
X13600476Y4585477D02*
X13600476Y4966429D01*
X13600476Y4966429D02*
X13648095Y5061667D01*
X13648095Y5061667D02*
X13743333Y5109286D01*
X13743333Y5109286D02*
X13933809Y5109286D01*
X13933809Y5109286D02*
X14029047Y5061667D01*
X14029047Y5061667D02*
X14076666Y4966429D01*
X14076666Y4966429D02*
X14076666Y4871191D01*
X14076666Y4871191D02*
X13600476Y4775953D01*
X14505238Y5109286D02*
X14505238Y4109286D01*
X14505238Y5061667D02*
X14600476Y5109286D01*
X14600476Y5109286D02*
X14790952Y5109286D01*
X14790952Y5109286D02*
X14886190Y5061667D01*
X14886190Y5061667D02*
X14933809Y5014048D01*
X14933809Y5014048D02*
X14981428Y4918810D01*
X14981428Y4918810D02*
X14981428Y4633096D01*
X14981428Y4633096D02*
X14933809Y4537858D01*
X14933809Y4537858D02*
X14886190Y4490239D01*
X14886190Y4490239D02*
X14790952Y4442620D01*
X14790952Y4442620D02*
X14600476Y4442620D01*
X14600476Y4442620D02*
X14505238Y4490239D01*
X15552857Y4442620D02*
X15457619Y4490239D01*
X15457619Y4490239D02*
X15410000Y4585477D01*
X15410000Y4585477D02*
X15410000Y5442620D01*
X16362381Y4442620D02*
X16362381Y4966429D01*
X16362381Y4966429D02*
X16314762Y5061667D01*
X16314762Y5061667D02*
X16219524Y5109286D01*
X16219524Y5109286D02*
X16029048Y5109286D01*
X16029048Y5109286D02*
X15933810Y5061667D01*
X16362381Y4490239D02*
X16267143Y4442620D01*
X16267143Y4442620D02*
X16029048Y4442620D01*
X16029048Y4442620D02*
X15933810Y4490239D01*
X15933810Y4490239D02*
X15886191Y4585477D01*
X15886191Y4585477D02*
X15886191Y4680715D01*
X15886191Y4680715D02*
X15933810Y4775953D01*
X15933810Y4775953D02*
X16029048Y4823572D01*
X16029048Y4823572D02*
X16267143Y4823572D01*
X16267143Y4823572D02*
X16362381Y4871191D01*
X17267143Y4490239D02*
X17171905Y4442620D01*
X17171905Y4442620D02*
X16981429Y4442620D01*
X16981429Y4442620D02*
X16886191Y4490239D01*
X16886191Y4490239D02*
X16838572Y4537858D01*
X16838572Y4537858D02*
X16790953Y4633096D01*
X16790953Y4633096D02*
X16790953Y4918810D01*
X16790953Y4918810D02*
X16838572Y5014048D01*
X16838572Y5014048D02*
X16886191Y5061667D01*
X16886191Y5061667D02*
X16981429Y5109286D01*
X16981429Y5109286D02*
X17171905Y5109286D01*
X17171905Y5109286D02*
X17267143Y5061667D01*
X18076667Y4490239D02*
X17981429Y4442620D01*
X17981429Y4442620D02*
X17790953Y4442620D01*
X17790953Y4442620D02*
X17695715Y4490239D01*
X17695715Y4490239D02*
X17648096Y4585477D01*
X17648096Y4585477D02*
X17648096Y4966429D01*
X17648096Y4966429D02*
X17695715Y5061667D01*
X17695715Y5061667D02*
X17790953Y5109286D01*
X17790953Y5109286D02*
X17981429Y5109286D01*
X17981429Y5109286D02*
X18076667Y5061667D01*
X18076667Y5061667D02*
X18124286Y4966429D01*
X18124286Y4966429D02*
X18124286Y4871191D01*
X18124286Y4871191D02*
X17648096Y4775953D01*
X18552858Y4442620D02*
X18552858Y5109286D01*
X18552858Y5014048D02*
X18600477Y5061667D01*
X18600477Y5061667D02*
X18695715Y5109286D01*
X18695715Y5109286D02*
X18838572Y5109286D01*
X18838572Y5109286D02*
X18933810Y5061667D01*
X18933810Y5061667D02*
X18981429Y4966429D01*
X18981429Y4966429D02*
X18981429Y4442620D01*
X18981429Y4966429D02*
X19029048Y5061667D01*
X19029048Y5061667D02*
X19124286Y5109286D01*
X19124286Y5109286D02*
X19267143Y5109286D01*
X19267143Y5109286D02*
X19362382Y5061667D01*
X19362382Y5061667D02*
X19410001Y4966429D01*
X19410001Y4966429D02*
X19410001Y4442620D01*
X20267143Y4490239D02*
X20171905Y4442620D01*
X20171905Y4442620D02*
X19981429Y4442620D01*
X19981429Y4442620D02*
X19886191Y4490239D01*
X19886191Y4490239D02*
X19838572Y4585477D01*
X19838572Y4585477D02*
X19838572Y4966429D01*
X19838572Y4966429D02*
X19886191Y5061667D01*
X19886191Y5061667D02*
X19981429Y5109286D01*
X19981429Y5109286D02*
X20171905Y5109286D01*
X20171905Y5109286D02*
X20267143Y5061667D01*
X20267143Y5061667D02*
X20314762Y4966429D01*
X20314762Y4966429D02*
X20314762Y4871191D01*
X20314762Y4871191D02*
X19838572Y4775953D01*
X20743334Y5109286D02*
X20743334Y4442620D01*
X20743334Y5014048D02*
X20790953Y5061667D01*
X20790953Y5061667D02*
X20886191Y5109286D01*
X20886191Y5109286D02*
X21029048Y5109286D01*
X21029048Y5109286D02*
X21124286Y5061667D01*
X21124286Y5061667D02*
X21171905Y4966429D01*
X21171905Y4966429D02*
X21171905Y4442620D01*
X21505239Y5109286D02*
X21886191Y5109286D01*
X21648096Y5442620D02*
X21648096Y4585477D01*
X21648096Y4585477D02*
X21695715Y4490239D01*
X21695715Y4490239D02*
X21790953Y4442620D01*
X21790953Y4442620D02*
X21886191Y4442620D01*
X23248096Y4490239D02*
X23152858Y4442620D01*
X23152858Y4442620D02*
X22962382Y4442620D01*
X22962382Y4442620D02*
X22867144Y4490239D01*
X22867144Y4490239D02*
X22819525Y4537858D01*
X22819525Y4537858D02*
X22771906Y4633096D01*
X22771906Y4633096D02*
X22771906Y4918810D01*
X22771906Y4918810D02*
X22819525Y5014048D01*
X22819525Y5014048D02*
X22867144Y5061667D01*
X22867144Y5061667D02*
X22962382Y5109286D01*
X22962382Y5109286D02*
X23152858Y5109286D01*
X23152858Y5109286D02*
X23248096Y5061667D01*
X23819525Y4442620D02*
X23724287Y4490239D01*
X23724287Y4490239D02*
X23676668Y4537858D01*
X23676668Y4537858D02*
X23629049Y4633096D01*
X23629049Y4633096D02*
X23629049Y4918810D01*
X23629049Y4918810D02*
X23676668Y5014048D01*
X23676668Y5014048D02*
X23724287Y5061667D01*
X23724287Y5061667D02*
X23819525Y5109286D01*
X23819525Y5109286D02*
X23962382Y5109286D01*
X23962382Y5109286D02*
X24057620Y5061667D01*
X24057620Y5061667D02*
X24105239Y5014048D01*
X24105239Y5014048D02*
X24152858Y4918810D01*
X24152858Y4918810D02*
X24152858Y4633096D01*
X24152858Y4633096D02*
X24105239Y4537858D01*
X24105239Y4537858D02*
X24057620Y4490239D01*
X24057620Y4490239D02*
X23962382Y4442620D01*
X23962382Y4442620D02*
X23819525Y4442620D01*
X24581430Y5109286D02*
X24581430Y4442620D01*
X24581430Y5014048D02*
X24629049Y5061667D01*
X24629049Y5061667D02*
X24724287Y5109286D01*
X24724287Y5109286D02*
X24867144Y5109286D01*
X24867144Y5109286D02*
X24962382Y5061667D01*
X24962382Y5061667D02*
X25010001Y4966429D01*
X25010001Y4966429D02*
X25010001Y4442620D01*
X25343335Y5109286D02*
X25724287Y5109286D01*
X25486192Y5442620D02*
X25486192Y4585477D01*
X25486192Y4585477D02*
X25533811Y4490239D01*
X25533811Y4490239D02*
X25629049Y4442620D01*
X25629049Y4442620D02*
X25724287Y4442620D01*
X26057621Y4442620D02*
X26057621Y5109286D01*
X26057621Y4918810D02*
X26105240Y5014048D01*
X26105240Y5014048D02*
X26152859Y5061667D01*
X26152859Y5061667D02*
X26248097Y5109286D01*
X26248097Y5109286D02*
X26343335Y5109286D01*
X26819526Y4442620D02*
X26724288Y4490239D01*
X26724288Y4490239D02*
X26676669Y4537858D01*
X26676669Y4537858D02*
X26629050Y4633096D01*
X26629050Y4633096D02*
X26629050Y4918810D01*
X26629050Y4918810D02*
X26676669Y5014048D01*
X26676669Y5014048D02*
X26724288Y5061667D01*
X26724288Y5061667D02*
X26819526Y5109286D01*
X26819526Y5109286D02*
X26962383Y5109286D01*
X26962383Y5109286D02*
X27057621Y5061667D01*
X27057621Y5061667D02*
X27105240Y5014048D01*
X27105240Y5014048D02*
X27152859Y4918810D01*
X27152859Y4918810D02*
X27152859Y4633096D01*
X27152859Y4633096D02*
X27105240Y4537858D01*
X27105240Y4537858D02*
X27057621Y4490239D01*
X27057621Y4490239D02*
X26962383Y4442620D01*
X26962383Y4442620D02*
X26819526Y4442620D01*
X27724288Y4442620D02*
X27629050Y4490239D01*
X27629050Y4490239D02*
X27581431Y4585477D01*
X27581431Y4585477D02*
X27581431Y5442620D01*
X28248098Y4442620D02*
X28152860Y4490239D01*
X28152860Y4490239D02*
X28105241Y4585477D01*
X28105241Y4585477D02*
X28105241Y5442620D01*
X29010003Y4490239D02*
X28914765Y4442620D01*
X28914765Y4442620D02*
X28724289Y4442620D01*
X28724289Y4442620D02*
X28629051Y4490239D01*
X28629051Y4490239D02*
X28581432Y4585477D01*
X28581432Y4585477D02*
X28581432Y4966429D01*
X28581432Y4966429D02*
X28629051Y5061667D01*
X28629051Y5061667D02*
X28724289Y5109286D01*
X28724289Y5109286D02*
X28914765Y5109286D01*
X28914765Y5109286D02*
X29010003Y5061667D01*
X29010003Y5061667D02*
X29057622Y4966429D01*
X29057622Y4966429D02*
X29057622Y4871191D01*
X29057622Y4871191D02*
X28581432Y4775953D01*
X29486194Y4442620D02*
X29486194Y5109286D01*
X29486194Y4918810D02*
X29533813Y5014048D01*
X29533813Y5014048D02*
X29581432Y5061667D01*
X29581432Y5061667D02*
X29676670Y5109286D01*
X29676670Y5109286D02*
X29771908Y5109286D01*
X30562385Y5109286D02*
X30943337Y5109286D01*
X30705242Y4442620D02*
X30705242Y5299762D01*
X30705242Y5299762D02*
X30752861Y5395000D01*
X30752861Y5395000D02*
X30848099Y5442620D01*
X30848099Y5442620D02*
X30943337Y5442620D01*
X31419528Y4442620D02*
X31324290Y4490239D01*
X31324290Y4490239D02*
X31276671Y4537858D01*
X31276671Y4537858D02*
X31229052Y4633096D01*
X31229052Y4633096D02*
X31229052Y4918810D01*
X31229052Y4918810D02*
X31276671Y5014048D01*
X31276671Y5014048D02*
X31324290Y5061667D01*
X31324290Y5061667D02*
X31419528Y5109286D01*
X31419528Y5109286D02*
X31562385Y5109286D01*
X31562385Y5109286D02*
X31657623Y5061667D01*
X31657623Y5061667D02*
X31705242Y5014048D01*
X31705242Y5014048D02*
X31752861Y4918810D01*
X31752861Y4918810D02*
X31752861Y4633096D01*
X31752861Y4633096D02*
X31705242Y4537858D01*
X31705242Y4537858D02*
X31657623Y4490239D01*
X31657623Y4490239D02*
X31562385Y4442620D01*
X31562385Y4442620D02*
X31419528Y4442620D01*
X32181433Y4442620D02*
X32181433Y5109286D01*
X32181433Y4918810D02*
X32229052Y5014048D01*
X32229052Y5014048D02*
X32276671Y5061667D01*
X32276671Y5061667D02*
X32371909Y5109286D01*
X32371909Y5109286D02*
X32467147Y5109286D01*
X33400481Y4442620D02*
X33400481Y5442620D01*
X33400481Y5442620D02*
X33733814Y4728334D01*
X33733814Y4728334D02*
X34067147Y5442620D01*
X34067147Y5442620D02*
X34067147Y4442620D01*
X34686195Y4442620D02*
X34590957Y4490239D01*
X34590957Y4490239D02*
X34543338Y4537858D01*
X34543338Y4537858D02*
X34495719Y4633096D01*
X34495719Y4633096D02*
X34495719Y4918810D01*
X34495719Y4918810D02*
X34543338Y5014048D01*
X34543338Y5014048D02*
X34590957Y5061667D01*
X34590957Y5061667D02*
X34686195Y5109286D01*
X34686195Y5109286D02*
X34829052Y5109286D01*
X34829052Y5109286D02*
X34924290Y5061667D01*
X34924290Y5061667D02*
X34971909Y5014048D01*
X34971909Y5014048D02*
X35019528Y4918810D01*
X35019528Y4918810D02*
X35019528Y4633096D01*
X35019528Y4633096D02*
X34971909Y4537858D01*
X34971909Y4537858D02*
X34924290Y4490239D01*
X34924290Y4490239D02*
X34829052Y4442620D01*
X34829052Y4442620D02*
X34686195Y4442620D01*
X35876671Y4442620D02*
X35876671Y5442620D01*
X35876671Y4490239D02*
X35781433Y4442620D01*
X35781433Y4442620D02*
X35590957Y4442620D01*
X35590957Y4442620D02*
X35495719Y4490239D01*
X35495719Y4490239D02*
X35448100Y4537858D01*
X35448100Y4537858D02*
X35400481Y4633096D01*
X35400481Y4633096D02*
X35400481Y4918810D01*
X35400481Y4918810D02*
X35448100Y5014048D01*
X35448100Y5014048D02*
X35495719Y5061667D01*
X35495719Y5061667D02*
X35590957Y5109286D01*
X35590957Y5109286D02*
X35781433Y5109286D01*
X35781433Y5109286D02*
X35876671Y5061667D01*
X36733814Y4490239D02*
X36638576Y4442620D01*
X36638576Y4442620D02*
X36448100Y4442620D01*
X36448100Y4442620D02*
X36352862Y4490239D01*
X36352862Y4490239D02*
X36305243Y4585477D01*
X36305243Y4585477D02*
X36305243Y4966429D01*
X36305243Y4966429D02*
X36352862Y5061667D01*
X36352862Y5061667D02*
X36448100Y5109286D01*
X36448100Y5109286D02*
X36638576Y5109286D01*
X36638576Y5109286D02*
X36733814Y5061667D01*
X36733814Y5061667D02*
X36781433Y4966429D01*
X36781433Y4966429D02*
X36781433Y4871191D01*
X36781433Y4871191D02*
X36305243Y4775953D01*
X37352862Y4442620D02*
X37257624Y4490239D01*
X37257624Y4490239D02*
X37210005Y4585477D01*
X37210005Y4585477D02*
X37210005Y5442620D01*
X38333815Y4442620D02*
X38333815Y5442620D01*
X38333815Y5442620D02*
X38667148Y4728334D01*
X38667148Y4728334D02*
X39000481Y5442620D01*
X39000481Y5442620D02*
X39000481Y4442620D01*
X40076672Y4442620D02*
X40076672Y5442620D01*
X40171910Y4823572D02*
X40457624Y4442620D01*
X40457624Y5109286D02*
X40076672Y4728334D01*
X41267148Y4490239D02*
X41171910Y4442620D01*
X41171910Y4442620D02*
X40981434Y4442620D01*
X40981434Y4442620D02*
X40886196Y4490239D01*
X40886196Y4490239D02*
X40838577Y4585477D01*
X40838577Y4585477D02*
X40838577Y4966429D01*
X40838577Y4966429D02*
X40886196Y5061667D01*
X40886196Y5061667D02*
X40981434Y5109286D01*
X40981434Y5109286D02*
X41171910Y5109286D01*
X41171910Y5109286D02*
X41267148Y5061667D01*
X41267148Y5061667D02*
X41314767Y4966429D01*
X41314767Y4966429D02*
X41314767Y4871191D01*
X41314767Y4871191D02*
X40838577Y4775953D01*
X41648101Y5109286D02*
X41886196Y4442620D01*
X42124291Y5109286D02*
X41886196Y4442620D01*
X41886196Y4442620D02*
X41790958Y4204524D01*
X41790958Y4204524D02*
X41743339Y4156905D01*
X41743339Y4156905D02*
X41648101Y4109286D01*
X42505244Y4442620D02*
X42505244Y5442620D01*
X42505244Y5061667D02*
X42600482Y5109286D01*
X42600482Y5109286D02*
X42790958Y5109286D01*
X42790958Y5109286D02*
X42886196Y5061667D01*
X42886196Y5061667D02*
X42933815Y5014048D01*
X42933815Y5014048D02*
X42981434Y4918810D01*
X42981434Y4918810D02*
X42981434Y4633096D01*
X42981434Y4633096D02*
X42933815Y4537858D01*
X42933815Y4537858D02*
X42886196Y4490239D01*
X42886196Y4490239D02*
X42790958Y4442620D01*
X42790958Y4442620D02*
X42600482Y4442620D01*
X42600482Y4442620D02*
X42505244Y4490239D01*
X43552863Y4442620D02*
X43457625Y4490239D01*
X43457625Y4490239D02*
X43410006Y4537858D01*
X43410006Y4537858D02*
X43362387Y4633096D01*
X43362387Y4633096D02*
X43362387Y4918810D01*
X43362387Y4918810D02*
X43410006Y5014048D01*
X43410006Y5014048D02*
X43457625Y5061667D01*
X43457625Y5061667D02*
X43552863Y5109286D01*
X43552863Y5109286D02*
X43695720Y5109286D01*
X43695720Y5109286D02*
X43790958Y5061667D01*
X43790958Y5061667D02*
X43838577Y5014048D01*
X43838577Y5014048D02*
X43886196Y4918810D01*
X43886196Y4918810D02*
X43886196Y4633096D01*
X43886196Y4633096D02*
X43838577Y4537858D01*
X43838577Y4537858D02*
X43790958Y4490239D01*
X43790958Y4490239D02*
X43695720Y4442620D01*
X43695720Y4442620D02*
X43552863Y4442620D01*
X44743339Y4442620D02*
X44743339Y4966429D01*
X44743339Y4966429D02*
X44695720Y5061667D01*
X44695720Y5061667D02*
X44600482Y5109286D01*
X44600482Y5109286D02*
X44410006Y5109286D01*
X44410006Y5109286D02*
X44314768Y5061667D01*
X44743339Y4490239D02*
X44648101Y4442620D01*
X44648101Y4442620D02*
X44410006Y4442620D01*
X44410006Y4442620D02*
X44314768Y4490239D01*
X44314768Y4490239D02*
X44267149Y4585477D01*
X44267149Y4585477D02*
X44267149Y4680715D01*
X44267149Y4680715D02*
X44314768Y4775953D01*
X44314768Y4775953D02*
X44410006Y4823572D01*
X44410006Y4823572D02*
X44648101Y4823572D01*
X44648101Y4823572D02*
X44743339Y4871191D01*
X45219530Y4442620D02*
X45219530Y5109286D01*
X45219530Y4918810D02*
X45267149Y5014048D01*
X45267149Y5014048D02*
X45314768Y5061667D01*
X45314768Y5061667D02*
X45410006Y5109286D01*
X45410006Y5109286D02*
X45505244Y5109286D01*
X46267149Y4442620D02*
X46267149Y5442620D01*
X46267149Y4490239D02*
X46171911Y4442620D01*
X46171911Y4442620D02*
X45981435Y4442620D01*
X45981435Y4442620D02*
X45886197Y4490239D01*
X45886197Y4490239D02*
X45838578Y4537858D01*
X45838578Y4537858D02*
X45790959Y4633096D01*
X45790959Y4633096D02*
X45790959Y4918810D01*
X45790959Y4918810D02*
X45838578Y5014048D01*
X45838578Y5014048D02*
X45886197Y5061667D01*
X45886197Y5061667D02*
X45981435Y5109286D01*
X45981435Y5109286D02*
X46171911Y5109286D01*
X46171911Y5109286D02*
X46267149Y5061667D01*
X46695721Y4490239D02*
X46790959Y4442620D01*
X46790959Y4442620D02*
X46981435Y4442620D01*
X46981435Y4442620D02*
X47076673Y4490239D01*
X47076673Y4490239D02*
X47124292Y4585477D01*
X47124292Y4585477D02*
X47124292Y4633096D01*
X47124292Y4633096D02*
X47076673Y4728334D01*
X47076673Y4728334D02*
X46981435Y4775953D01*
X46981435Y4775953D02*
X46838578Y4775953D01*
X46838578Y4775953D02*
X46743340Y4823572D01*
X46743340Y4823572D02*
X46695721Y4918810D01*
X46695721Y4918810D02*
X46695721Y4966429D01*
X46695721Y4966429D02*
X46743340Y5061667D01*
X46743340Y5061667D02*
X46838578Y5109286D01*
X46838578Y5109286D02*
X46981435Y5109286D01*
X46981435Y5109286D02*
X47076673Y5061667D01*
X13076666Y2822620D02*
X13076666Y3822620D01*
X13076666Y2870239D02*
X12981428Y2822620D01*
X12981428Y2822620D02*
X12790952Y2822620D01*
X12790952Y2822620D02*
X12695714Y2870239D01*
X12695714Y2870239D02*
X12648095Y2917858D01*
X12648095Y2917858D02*
X12600476Y3013096D01*
X12600476Y3013096D02*
X12600476Y3298810D01*
X12600476Y3298810D02*
X12648095Y3394048D01*
X12648095Y3394048D02*
X12695714Y3441667D01*
X12695714Y3441667D02*
X12790952Y3489286D01*
X12790952Y3489286D02*
X12981428Y3489286D01*
X12981428Y3489286D02*
X13076666Y3441667D01*
X13552857Y3489286D02*
X13552857Y2632143D01*
X13552857Y2632143D02*
X13505238Y2536905D01*
X13505238Y2536905D02*
X13410000Y2489286D01*
X13410000Y2489286D02*
X13362381Y2489286D01*
X13552857Y3822620D02*
X13505238Y3775000D01*
X13505238Y3775000D02*
X13552857Y3727381D01*
X13552857Y3727381D02*
X13600476Y3775000D01*
X13600476Y3775000D02*
X13552857Y3822620D01*
X13552857Y3822620D02*
X13552857Y3727381D01*
X13933809Y3489286D02*
X14171904Y2822620D01*
X14171904Y2822620D02*
X14409999Y3489286D01*
X14743333Y2870239D02*
X14838571Y2822620D01*
X14838571Y2822620D02*
X15029047Y2822620D01*
X15029047Y2822620D02*
X15124285Y2870239D01*
X15124285Y2870239D02*
X15171904Y2965477D01*
X15171904Y2965477D02*
X15171904Y3013096D01*
X15171904Y3013096D02*
X15124285Y3108334D01*
X15124285Y3108334D02*
X15029047Y3155953D01*
X15029047Y3155953D02*
X14886190Y3155953D01*
X14886190Y3155953D02*
X14790952Y3203572D01*
X14790952Y3203572D02*
X14743333Y3298810D01*
X14743333Y3298810D02*
X14743333Y3346429D01*
X14743333Y3346429D02*
X14790952Y3441667D01*
X14790952Y3441667D02*
X14886190Y3489286D01*
X14886190Y3489286D02*
X15029047Y3489286D01*
X15029047Y3489286D02*
X15124285Y3441667D01*
X16629047Y3489286D02*
X16629047Y2822620D01*
X16200476Y3489286D02*
X16200476Y2965477D01*
X16200476Y2965477D02*
X16248095Y2870239D01*
X16248095Y2870239D02*
X16343333Y2822620D01*
X16343333Y2822620D02*
X16486190Y2822620D01*
X16486190Y2822620D02*
X16581428Y2870239D01*
X16581428Y2870239D02*
X16629047Y2917858D01*
X17105238Y3489286D02*
X17105238Y2822620D01*
X17105238Y3394048D02*
X17152857Y3441667D01*
X17152857Y3441667D02*
X17248095Y3489286D01*
X17248095Y3489286D02*
X17390952Y3489286D01*
X17390952Y3489286D02*
X17486190Y3441667D01*
X17486190Y3441667D02*
X17533809Y3346429D01*
X17533809Y3346429D02*
X17533809Y2822620D01*
X18010000Y2822620D02*
X18010000Y3489286D01*
X18010000Y3822620D02*
X17962381Y3775000D01*
X17962381Y3775000D02*
X18010000Y3727381D01*
X18010000Y3727381D02*
X18057619Y3775000D01*
X18057619Y3775000D02*
X18010000Y3822620D01*
X18010000Y3822620D02*
X18010000Y3727381D01*
X18343333Y3489286D02*
X18724285Y3489286D01*
X18486190Y2822620D02*
X18486190Y3679762D01*
X18486190Y3679762D02*
X18533809Y3775000D01*
X18533809Y3775000D02*
X18629047Y3822620D01*
X18629047Y3822620D02*
X18724285Y3822620D01*
X19057619Y2822620D02*
X19057619Y3489286D01*
X19057619Y3822620D02*
X19010000Y3775000D01*
X19010000Y3775000D02*
X19057619Y3727381D01*
X19057619Y3727381D02*
X19105238Y3775000D01*
X19105238Y3775000D02*
X19057619Y3822620D01*
X19057619Y3822620D02*
X19057619Y3727381D01*
X19914761Y2870239D02*
X19819523Y2822620D01*
X19819523Y2822620D02*
X19629047Y2822620D01*
X19629047Y2822620D02*
X19533809Y2870239D01*
X19533809Y2870239D02*
X19486190Y2965477D01*
X19486190Y2965477D02*
X19486190Y3346429D01*
X19486190Y3346429D02*
X19533809Y3441667D01*
X19533809Y3441667D02*
X19629047Y3489286D01*
X19629047Y3489286D02*
X19819523Y3489286D01*
X19819523Y3489286D02*
X19914761Y3441667D01*
X19914761Y3441667D02*
X19962380Y3346429D01*
X19962380Y3346429D02*
X19962380Y3251191D01*
X19962380Y3251191D02*
X19486190Y3155953D01*
X20819523Y2822620D02*
X20819523Y3822620D01*
X20819523Y2870239D02*
X20724285Y2822620D01*
X20724285Y2822620D02*
X20533809Y2822620D01*
X20533809Y2822620D02*
X20438571Y2870239D01*
X20438571Y2870239D02*
X20390952Y2917858D01*
X20390952Y2917858D02*
X20343333Y3013096D01*
X20343333Y3013096D02*
X20343333Y3298810D01*
X20343333Y3298810D02*
X20390952Y3394048D01*
X20390952Y3394048D02*
X20438571Y3441667D01*
X20438571Y3441667D02*
X20533809Y3489286D01*
X20533809Y3489286D02*
X20724285Y3489286D01*
X20724285Y3489286D02*
X20819523Y3441667D01*
X22324285Y2822620D02*
X22324285Y3822620D01*
X22324285Y2870239D02*
X22229047Y2822620D01*
X22229047Y2822620D02*
X22038571Y2822620D01*
X22038571Y2822620D02*
X21943333Y2870239D01*
X21943333Y2870239D02*
X21895714Y2917858D01*
X21895714Y2917858D02*
X21848095Y3013096D01*
X21848095Y3013096D02*
X21848095Y3298810D01*
X21848095Y3298810D02*
X21895714Y3394048D01*
X21895714Y3394048D02*
X21943333Y3441667D01*
X21943333Y3441667D02*
X22038571Y3489286D01*
X22038571Y3489286D02*
X22229047Y3489286D01*
X22229047Y3489286D02*
X22324285Y3441667D01*
X23229047Y2822620D02*
X23229047Y3346429D01*
X23229047Y3346429D02*
X23181428Y3441667D01*
X23181428Y3441667D02*
X23086190Y3489286D01*
X23086190Y3489286D02*
X22895714Y3489286D01*
X22895714Y3489286D02*
X22800476Y3441667D01*
X23229047Y2870239D02*
X23133809Y2822620D01*
X23133809Y2822620D02*
X22895714Y2822620D01*
X22895714Y2822620D02*
X22800476Y2870239D01*
X22800476Y2870239D02*
X22752857Y2965477D01*
X22752857Y2965477D02*
X22752857Y3060715D01*
X22752857Y3060715D02*
X22800476Y3155953D01*
X22800476Y3155953D02*
X22895714Y3203572D01*
X22895714Y3203572D02*
X23133809Y3203572D01*
X23133809Y3203572D02*
X23229047Y3251191D01*
X24133809Y3489286D02*
X24133809Y2822620D01*
X23705238Y3489286D02*
X23705238Y2965477D01*
X23705238Y2965477D02*
X23752857Y2870239D01*
X23752857Y2870239D02*
X23848095Y2822620D01*
X23848095Y2822620D02*
X23990952Y2822620D01*
X23990952Y2822620D02*
X24086190Y2870239D01*
X24086190Y2870239D02*
X24133809Y2917858D01*
X25038571Y3489286D02*
X25038571Y2679762D01*
X25038571Y2679762D02*
X24990952Y2584524D01*
X24990952Y2584524D02*
X24943333Y2536905D01*
X24943333Y2536905D02*
X24848095Y2489286D01*
X24848095Y2489286D02*
X24705238Y2489286D01*
X24705238Y2489286D02*
X24610000Y2536905D01*
X25038571Y2870239D02*
X24943333Y2822620D01*
X24943333Y2822620D02*
X24752857Y2822620D01*
X24752857Y2822620D02*
X24657619Y2870239D01*
X24657619Y2870239D02*
X24610000Y2917858D01*
X24610000Y2917858D02*
X24562381Y3013096D01*
X24562381Y3013096D02*
X24562381Y3298810D01*
X24562381Y3298810D02*
X24610000Y3394048D01*
X24610000Y3394048D02*
X24657619Y3441667D01*
X24657619Y3441667D02*
X24752857Y3489286D01*
X24752857Y3489286D02*
X24943333Y3489286D01*
X24943333Y3489286D02*
X25038571Y3441667D01*
X25514762Y2822620D02*
X25514762Y3822620D01*
X25943333Y2822620D02*
X25943333Y3346429D01*
X25943333Y3346429D02*
X25895714Y3441667D01*
X25895714Y3441667D02*
X25800476Y3489286D01*
X25800476Y3489286D02*
X25657619Y3489286D01*
X25657619Y3489286D02*
X25562381Y3441667D01*
X25562381Y3441667D02*
X25514762Y3394048D01*
X26276667Y3489286D02*
X26657619Y3489286D01*
X26419524Y3822620D02*
X26419524Y2965477D01*
X26419524Y2965477D02*
X26467143Y2870239D01*
X26467143Y2870239D02*
X26562381Y2822620D01*
X26562381Y2822620D02*
X26657619Y2822620D01*
X27371905Y2870239D02*
X27276667Y2822620D01*
X27276667Y2822620D02*
X27086191Y2822620D01*
X27086191Y2822620D02*
X26990953Y2870239D01*
X26990953Y2870239D02*
X26943334Y2965477D01*
X26943334Y2965477D02*
X26943334Y3346429D01*
X26943334Y3346429D02*
X26990953Y3441667D01*
X26990953Y3441667D02*
X27086191Y3489286D01*
X27086191Y3489286D02*
X27276667Y3489286D01*
X27276667Y3489286D02*
X27371905Y3441667D01*
X27371905Y3441667D02*
X27419524Y3346429D01*
X27419524Y3346429D02*
X27419524Y3251191D01*
X27419524Y3251191D02*
X26943334Y3155953D01*
X27848096Y2822620D02*
X27848096Y3489286D01*
X27848096Y3298810D02*
X27895715Y3394048D01*
X27895715Y3394048D02*
X27943334Y3441667D01*
X27943334Y3441667D02*
X28038572Y3489286D01*
X28038572Y3489286D02*
X28133810Y3489286D01*
X28467144Y2822620D02*
X28467144Y3822620D01*
X28467144Y3441667D02*
X28562382Y3489286D01*
X28562382Y3489286D02*
X28752858Y3489286D01*
X28752858Y3489286D02*
X28848096Y3441667D01*
X28848096Y3441667D02*
X28895715Y3394048D01*
X28895715Y3394048D02*
X28943334Y3298810D01*
X28943334Y3298810D02*
X28943334Y3013096D01*
X28943334Y3013096D02*
X28895715Y2917858D01*
X28895715Y2917858D02*
X28848096Y2870239D01*
X28848096Y2870239D02*
X28752858Y2822620D01*
X28752858Y2822620D02*
X28562382Y2822620D01*
X28562382Y2822620D02*
X28467144Y2870239D01*
X29514763Y2822620D02*
X29419525Y2870239D01*
X29419525Y2870239D02*
X29371906Y2917858D01*
X29371906Y2917858D02*
X29324287Y3013096D01*
X29324287Y3013096D02*
X29324287Y3298810D01*
X29324287Y3298810D02*
X29371906Y3394048D01*
X29371906Y3394048D02*
X29419525Y3441667D01*
X29419525Y3441667D02*
X29514763Y3489286D01*
X29514763Y3489286D02*
X29657620Y3489286D01*
X29657620Y3489286D02*
X29752858Y3441667D01*
X29752858Y3441667D02*
X29800477Y3394048D01*
X29800477Y3394048D02*
X29848096Y3298810D01*
X29848096Y3298810D02*
X29848096Y3013096D01*
X29848096Y3013096D02*
X29800477Y2917858D01*
X29800477Y2917858D02*
X29752858Y2870239D01*
X29752858Y2870239D02*
X29657620Y2822620D01*
X29657620Y2822620D02*
X29514763Y2822620D01*
X30705239Y2822620D02*
X30705239Y3346429D01*
X30705239Y3346429D02*
X30657620Y3441667D01*
X30657620Y3441667D02*
X30562382Y3489286D01*
X30562382Y3489286D02*
X30371906Y3489286D01*
X30371906Y3489286D02*
X30276668Y3441667D01*
X30705239Y2870239D02*
X30610001Y2822620D01*
X30610001Y2822620D02*
X30371906Y2822620D01*
X30371906Y2822620D02*
X30276668Y2870239D01*
X30276668Y2870239D02*
X30229049Y2965477D01*
X30229049Y2965477D02*
X30229049Y3060715D01*
X30229049Y3060715D02*
X30276668Y3155953D01*
X30276668Y3155953D02*
X30371906Y3203572D01*
X30371906Y3203572D02*
X30610001Y3203572D01*
X30610001Y3203572D02*
X30705239Y3251191D01*
X31181430Y2822620D02*
X31181430Y3489286D01*
X31181430Y3298810D02*
X31229049Y3394048D01*
X31229049Y3394048D02*
X31276668Y3441667D01*
X31276668Y3441667D02*
X31371906Y3489286D01*
X31371906Y3489286D02*
X31467144Y3489286D01*
X32229049Y2822620D02*
X32229049Y3822620D01*
X32229049Y2870239D02*
X32133811Y2822620D01*
X32133811Y2822620D02*
X31943335Y2822620D01*
X31943335Y2822620D02*
X31848097Y2870239D01*
X31848097Y2870239D02*
X31800478Y2917858D01*
X31800478Y2917858D02*
X31752859Y3013096D01*
X31752859Y3013096D02*
X31752859Y3298810D01*
X31752859Y3298810D02*
X31800478Y3394048D01*
X31800478Y3394048D02*
X31848097Y3441667D01*
X31848097Y3441667D02*
X31943335Y3489286D01*
X31943335Y3489286D02*
X32133811Y3489286D01*
X32133811Y3489286D02*
X32229049Y3441667D01*
X33419525Y3870239D02*
X32562383Y2584524D01*
X33705240Y2870239D02*
X33800478Y2822620D01*
X33800478Y2822620D02*
X33990954Y2822620D01*
X33990954Y2822620D02*
X34086192Y2870239D01*
X34086192Y2870239D02*
X34133811Y2965477D01*
X34133811Y2965477D02*
X34133811Y3013096D01*
X34133811Y3013096D02*
X34086192Y3108334D01*
X34086192Y3108334D02*
X33990954Y3155953D01*
X33990954Y3155953D02*
X33848097Y3155953D01*
X33848097Y3155953D02*
X33752859Y3203572D01*
X33752859Y3203572D02*
X33705240Y3298810D01*
X33705240Y3298810D02*
X33705240Y3346429D01*
X33705240Y3346429D02*
X33752859Y3441667D01*
X33752859Y3441667D02*
X33848097Y3489286D01*
X33848097Y3489286D02*
X33990954Y3489286D01*
X33990954Y3489286D02*
X34086192Y3441667D01*
X34419526Y3489286D02*
X34800478Y3489286D01*
X34562383Y3822620D02*
X34562383Y2965477D01*
X34562383Y2965477D02*
X34610002Y2870239D01*
X34610002Y2870239D02*
X34705240Y2822620D01*
X34705240Y2822620D02*
X34800478Y2822620D01*
X35133812Y2822620D02*
X35133812Y3489286D01*
X35133812Y3394048D02*
X35181431Y3441667D01*
X35181431Y3441667D02*
X35276669Y3489286D01*
X35276669Y3489286D02*
X35419526Y3489286D01*
X35419526Y3489286D02*
X35514764Y3441667D01*
X35514764Y3441667D02*
X35562383Y3346429D01*
X35562383Y3346429D02*
X35562383Y2822620D01*
X35562383Y3346429D02*
X35610002Y3441667D01*
X35610002Y3441667D02*
X35705240Y3489286D01*
X35705240Y3489286D02*
X35848097Y3489286D01*
X35848097Y3489286D02*
X35943336Y3441667D01*
X35943336Y3441667D02*
X35990955Y3346429D01*
X35990955Y3346429D02*
X35990955Y2822620D01*
X36371907Y3822620D02*
X36990954Y3822620D01*
X36990954Y3822620D02*
X36657621Y3441667D01*
X36657621Y3441667D02*
X36800478Y3441667D01*
X36800478Y3441667D02*
X36895716Y3394048D01*
X36895716Y3394048D02*
X36943335Y3346429D01*
X36943335Y3346429D02*
X36990954Y3251191D01*
X36990954Y3251191D02*
X36990954Y3013096D01*
X36990954Y3013096D02*
X36943335Y2917858D01*
X36943335Y2917858D02*
X36895716Y2870239D01*
X36895716Y2870239D02*
X36800478Y2822620D01*
X36800478Y2822620D02*
X36514764Y2822620D01*
X36514764Y2822620D02*
X36419526Y2870239D01*
X36419526Y2870239D02*
X36371907Y2917858D01*
X37371907Y3727381D02*
X37419526Y3775000D01*
X37419526Y3775000D02*
X37514764Y3822620D01*
X37514764Y3822620D02*
X37752859Y3822620D01*
X37752859Y3822620D02*
X37848097Y3775000D01*
X37848097Y3775000D02*
X37895716Y3727381D01*
X37895716Y3727381D02*
X37943335Y3632143D01*
X37943335Y3632143D02*
X37943335Y3536905D01*
X37943335Y3536905D02*
X37895716Y3394048D01*
X37895716Y3394048D02*
X37324288Y2822620D01*
X37324288Y2822620D02*
X37943335Y2822620D01*
X38229050Y3489286D02*
X38610002Y3489286D01*
X38371907Y2822620D02*
X38371907Y3679762D01*
X38371907Y3679762D02*
X38419526Y3775000D01*
X38419526Y3775000D02*
X38514764Y3822620D01*
X38514764Y3822620D02*
X38610002Y3822620D01*
X39371907Y3489286D02*
X39371907Y2822620D01*
X39133812Y3870239D02*
X38895717Y3155953D01*
X38895717Y3155953D02*
X39514764Y3155953D01*
X40086193Y3822620D02*
X40181431Y3822620D01*
X40181431Y3822620D02*
X40276669Y3775000D01*
X40276669Y3775000D02*
X40324288Y3727381D01*
X40324288Y3727381D02*
X40371907Y3632143D01*
X40371907Y3632143D02*
X40419526Y3441667D01*
X40419526Y3441667D02*
X40419526Y3203572D01*
X40419526Y3203572D02*
X40371907Y3013096D01*
X40371907Y3013096D02*
X40324288Y2917858D01*
X40324288Y2917858D02*
X40276669Y2870239D01*
X40276669Y2870239D02*
X40181431Y2822620D01*
X40181431Y2822620D02*
X40086193Y2822620D01*
X40086193Y2822620D02*
X39990955Y2870239D01*
X39990955Y2870239D02*
X39943336Y2917858D01*
X39943336Y2917858D02*
X39895717Y3013096D01*
X39895717Y3013096D02*
X39848098Y3203572D01*
X39848098Y3203572D02*
X39848098Y3441667D01*
X39848098Y3441667D02*
X39895717Y3632143D01*
X39895717Y3632143D02*
X39943336Y3727381D01*
X39943336Y3727381D02*
X39990955Y3775000D01*
X39990955Y3775000D02*
X40086193Y3822620D01*
X41371907Y2822620D02*
X40800479Y2822620D01*
X41086193Y2822620D02*
X41086193Y3822620D01*
X41086193Y3822620D02*
X40990955Y3679762D01*
X40990955Y3679762D02*
X40895717Y3584524D01*
X40895717Y3584524D02*
X40800479Y3536905D01*
X41800479Y2822620D02*
X41800479Y3489286D01*
X41800479Y3298810D02*
X41848098Y3394048D01*
X41848098Y3394048D02*
X41895717Y3441667D01*
X41895717Y3441667D02*
X41990955Y3489286D01*
X41990955Y3489286D02*
X42086193Y3489286D01*
X42800479Y2870239D02*
X42705241Y2822620D01*
X42705241Y2822620D02*
X42514765Y2822620D01*
X42514765Y2822620D02*
X42419527Y2870239D01*
X42419527Y2870239D02*
X42371908Y2965477D01*
X42371908Y2965477D02*
X42371908Y3346429D01*
X42371908Y3346429D02*
X42419527Y3441667D01*
X42419527Y3441667D02*
X42514765Y3489286D01*
X42514765Y3489286D02*
X42705241Y3489286D01*
X42705241Y3489286D02*
X42800479Y3441667D01*
X42800479Y3441667D02*
X42848098Y3346429D01*
X42848098Y3346429D02*
X42848098Y3251191D01*
X42848098Y3251191D02*
X42371908Y3155953D01*
X43133813Y3489286D02*
X43514765Y3489286D01*
X43276670Y3822620D02*
X43276670Y2965477D01*
X43276670Y2965477D02*
X43324289Y2870239D01*
X43324289Y2870239D02*
X43419527Y2822620D01*
X43419527Y2822620D02*
X43514765Y2822620D01*
X43752861Y2822620D02*
X44276670Y3489286D01*
X43752861Y3489286D02*
X44276670Y2822620D01*
X45257623Y2822620D02*
X45257623Y3489286D01*
X45257623Y3394048D02*
X45305242Y3441667D01*
X45305242Y3441667D02*
X45400480Y3489286D01*
X45400480Y3489286D02*
X45543337Y3489286D01*
X45543337Y3489286D02*
X45638575Y3441667D01*
X45638575Y3441667D02*
X45686194Y3346429D01*
X45686194Y3346429D02*
X45686194Y2822620D01*
X45686194Y3346429D02*
X45733813Y3441667D01*
X45733813Y3441667D02*
X45829051Y3489286D01*
X45829051Y3489286D02*
X45971908Y3489286D01*
X45971908Y3489286D02*
X46067147Y3441667D01*
X46067147Y3441667D02*
X46114766Y3346429D01*
X46114766Y3346429D02*
X46114766Y2822620D01*
X46733813Y2822620D02*
X46638575Y2870239D01*
X46638575Y2870239D02*
X46590956Y2917858D01*
X46590956Y2917858D02*
X46543337Y3013096D01*
X46543337Y3013096D02*
X46543337Y3298810D01*
X46543337Y3298810D02*
X46590956Y3394048D01*
X46590956Y3394048D02*
X46638575Y3441667D01*
X46638575Y3441667D02*
X46733813Y3489286D01*
X46733813Y3489286D02*
X46876670Y3489286D01*
X46876670Y3489286D02*
X46971908Y3441667D01*
X46971908Y3441667D02*
X47019527Y3394048D01*
X47019527Y3394048D02*
X47067146Y3298810D01*
X47067146Y3298810D02*
X47067146Y3013096D01*
X47067146Y3013096D02*
X47019527Y2917858D01*
X47019527Y2917858D02*
X46971908Y2870239D01*
X46971908Y2870239D02*
X46876670Y2822620D01*
X46876670Y2822620D02*
X46733813Y2822620D01*
X47924289Y2822620D02*
X47924289Y3822620D01*
X47924289Y2870239D02*
X47829051Y2822620D01*
X47829051Y2822620D02*
X47638575Y2822620D01*
X47638575Y2822620D02*
X47543337Y2870239D01*
X47543337Y2870239D02*
X47495718Y2917858D01*
X47495718Y2917858D02*
X47448099Y3013096D01*
X47448099Y3013096D02*
X47448099Y3298810D01*
X47448099Y3298810D02*
X47495718Y3394048D01*
X47495718Y3394048D02*
X47543337Y3441667D01*
X47543337Y3441667D02*
X47638575Y3489286D01*
X47638575Y3489286D02*
X47829051Y3489286D01*
X47829051Y3489286D02*
X47924289Y3441667D01*
X48400480Y2822620D02*
X48400480Y3489286D01*
X48400480Y3822620D02*
X48352861Y3775000D01*
X48352861Y3775000D02*
X48400480Y3727381D01*
X48400480Y3727381D02*
X48448099Y3775000D01*
X48448099Y3775000D02*
X48400480Y3822620D01*
X48400480Y3822620D02*
X48400480Y3727381D01*
X48733813Y3489286D02*
X49114765Y3489286D01*
X48876670Y2822620D02*
X48876670Y3679762D01*
X48876670Y3679762D02*
X48924289Y3775000D01*
X48924289Y3775000D02*
X49019527Y3822620D01*
X49019527Y3822620D02*
X49114765Y3822620D01*
X49448099Y2822620D02*
X49448099Y3489286D01*
X49448099Y3822620D02*
X49400480Y3775000D01*
X49400480Y3775000D02*
X49448099Y3727381D01*
X49448099Y3727381D02*
X49495718Y3775000D01*
X49495718Y3775000D02*
X49448099Y3822620D01*
X49448099Y3822620D02*
X49448099Y3727381D01*
X50352860Y2870239D02*
X50257622Y2822620D01*
X50257622Y2822620D02*
X50067146Y2822620D01*
X50067146Y2822620D02*
X49971908Y2870239D01*
X49971908Y2870239D02*
X49924289Y2917858D01*
X49924289Y2917858D02*
X49876670Y3013096D01*
X49876670Y3013096D02*
X49876670Y3298810D01*
X49876670Y3298810D02*
X49924289Y3394048D01*
X49924289Y3394048D02*
X49971908Y3441667D01*
X49971908Y3441667D02*
X50067146Y3489286D01*
X50067146Y3489286D02*
X50257622Y3489286D01*
X50257622Y3489286D02*
X50352860Y3441667D01*
X51210003Y2822620D02*
X51210003Y3346429D01*
X51210003Y3346429D02*
X51162384Y3441667D01*
X51162384Y3441667D02*
X51067146Y3489286D01*
X51067146Y3489286D02*
X50876670Y3489286D01*
X50876670Y3489286D02*
X50781432Y3441667D01*
X51210003Y2870239D02*
X51114765Y2822620D01*
X51114765Y2822620D02*
X50876670Y2822620D01*
X50876670Y2822620D02*
X50781432Y2870239D01*
X50781432Y2870239D02*
X50733813Y2965477D01*
X50733813Y2965477D02*
X50733813Y3060715D01*
X50733813Y3060715D02*
X50781432Y3155953D01*
X50781432Y3155953D02*
X50876670Y3203572D01*
X50876670Y3203572D02*
X51114765Y3203572D01*
X51114765Y3203572D02*
X51210003Y3251191D01*
X51543337Y3489286D02*
X51924289Y3489286D01*
X51686194Y3822620D02*
X51686194Y2965477D01*
X51686194Y2965477D02*
X51733813Y2870239D01*
X51733813Y2870239D02*
X51829051Y2822620D01*
X51829051Y2822620D02*
X51924289Y2822620D01*
X52257623Y2822620D02*
X52257623Y3489286D01*
X52257623Y3822620D02*
X52210004Y3775000D01*
X52210004Y3775000D02*
X52257623Y3727381D01*
X52257623Y3727381D02*
X52305242Y3775000D01*
X52305242Y3775000D02*
X52257623Y3822620D01*
X52257623Y3822620D02*
X52257623Y3727381D01*
X52876670Y2822620D02*
X52781432Y2870239D01*
X52781432Y2870239D02*
X52733813Y2917858D01*
X52733813Y2917858D02*
X52686194Y3013096D01*
X52686194Y3013096D02*
X52686194Y3298810D01*
X52686194Y3298810D02*
X52733813Y3394048D01*
X52733813Y3394048D02*
X52781432Y3441667D01*
X52781432Y3441667D02*
X52876670Y3489286D01*
X52876670Y3489286D02*
X53019527Y3489286D01*
X53019527Y3489286D02*
X53114765Y3441667D01*
X53114765Y3441667D02*
X53162384Y3394048D01*
X53162384Y3394048D02*
X53210003Y3298810D01*
X53210003Y3298810D02*
X53210003Y3013096D01*
X53210003Y3013096D02*
X53162384Y2917858D01*
X53162384Y2917858D02*
X53114765Y2870239D01*
X53114765Y2870239D02*
X53019527Y2822620D01*
X53019527Y2822620D02*
X52876670Y2822620D01*
X53638575Y3489286D02*
X53638575Y2822620D01*
X53638575Y3394048D02*
X53686194Y3441667D01*
X53686194Y3441667D02*
X53781432Y3489286D01*
X53781432Y3489286D02*
X53924289Y3489286D01*
X53924289Y3489286D02*
X54019527Y3441667D01*
X54019527Y3441667D02*
X54067146Y3346429D01*
X54067146Y3346429D02*
X54067146Y2822620D01*
X54495718Y2870239D02*
X54590956Y2822620D01*
X54590956Y2822620D02*
X54781432Y2822620D01*
X54781432Y2822620D02*
X54876670Y2870239D01*
X54876670Y2870239D02*
X54924289Y2965477D01*
X54924289Y2965477D02*
X54924289Y3013096D01*
X54924289Y3013096D02*
X54876670Y3108334D01*
X54876670Y3108334D02*
X54781432Y3155953D01*
X54781432Y3155953D02*
X54638575Y3155953D01*
X54638575Y3155953D02*
X54543337Y3203572D01*
X54543337Y3203572D02*
X54495718Y3298810D01*
X54495718Y3298810D02*
X54495718Y3346429D01*
X54495718Y3346429D02*
X54543337Y3441667D01*
X54543337Y3441667D02*
X54638575Y3489286D01*
X54638575Y3489286D02*
X54781432Y3489286D01*
X54781432Y3489286D02*
X54876670Y3441667D01*
X38221961Y26883136D02*
X38221961Y26311707D01*
X38221961Y26311707D02*
X38183866Y26197421D01*
X38183866Y26197421D02*
X38107675Y26121231D01*
X38107675Y26121231D02*
X37993390Y26083136D01*
X37993390Y26083136D02*
X37917199Y26083136D01*
X38983866Y26083136D02*
X38602914Y26083136D01*
X38602914Y26083136D02*
X38602914Y26883136D01*
X39707676Y26159326D02*
X39669580Y26121231D01*
X39669580Y26121231D02*
X39555295Y26083136D01*
X39555295Y26083136D02*
X39479104Y26083136D01*
X39479104Y26083136D02*
X39364818Y26121231D01*
X39364818Y26121231D02*
X39288628Y26197421D01*
X39288628Y26197421D02*
X39250533Y26273612D01*
X39250533Y26273612D02*
X39212437Y26425993D01*
X39212437Y26425993D02*
X39212437Y26540279D01*
X39212437Y26540279D02*
X39250533Y26692660D01*
X39250533Y26692660D02*
X39288628Y26768850D01*
X39288628Y26768850D02*
X39364818Y26845040D01*
X39364818Y26845040D02*
X39479104Y26883136D01*
X39479104Y26883136D02*
X39555295Y26883136D01*
X39555295Y26883136D02*
X39669580Y26845040D01*
X39669580Y26845040D02*
X39707676Y26806945D01*
X40279104Y26883136D02*
X40279104Y26311707D01*
X40279104Y26311707D02*
X40241009Y26197421D01*
X40241009Y26197421D02*
X40164818Y26121231D01*
X40164818Y26121231D02*
X40050533Y26083136D01*
X40050533Y26083136D02*
X39974342Y26083136D01*
X41041009Y26083136D02*
X40660057Y26083136D01*
X40660057Y26083136D02*
X40660057Y26883136D01*
X41764819Y26159326D02*
X41726723Y26121231D01*
X41726723Y26121231D02*
X41612438Y26083136D01*
X41612438Y26083136D02*
X41536247Y26083136D01*
X41536247Y26083136D02*
X41421961Y26121231D01*
X41421961Y26121231D02*
X41345771Y26197421D01*
X41345771Y26197421D02*
X41307676Y26273612D01*
X41307676Y26273612D02*
X41269580Y26425993D01*
X41269580Y26425993D02*
X41269580Y26540279D01*
X41269580Y26540279D02*
X41307676Y26692660D01*
X41307676Y26692660D02*
X41345771Y26768850D01*
X41345771Y26768850D02*
X41421961Y26845040D01*
X41421961Y26845040D02*
X41536247Y26883136D01*
X41536247Y26883136D02*
X41612438Y26883136D01*
X41612438Y26883136D02*
X41726723Y26845040D01*
X41726723Y26845040D02*
X41764819Y26806945D01*
X42336247Y26883136D02*
X42336247Y26311707D01*
X42336247Y26311707D02*
X42298152Y26197421D01*
X42298152Y26197421D02*
X42221961Y26121231D01*
X42221961Y26121231D02*
X42107676Y26083136D01*
X42107676Y26083136D02*
X42031485Y26083136D01*
X43098152Y26083136D02*
X42717200Y26083136D01*
X42717200Y26083136D02*
X42717200Y26883136D01*
X43821962Y26159326D02*
X43783866Y26121231D01*
X43783866Y26121231D02*
X43669581Y26083136D01*
X43669581Y26083136D02*
X43593390Y26083136D01*
X43593390Y26083136D02*
X43479104Y26121231D01*
X43479104Y26121231D02*
X43402914Y26197421D01*
X43402914Y26197421D02*
X43364819Y26273612D01*
X43364819Y26273612D02*
X43326723Y26425993D01*
X43326723Y26425993D02*
X43326723Y26540279D01*
X43326723Y26540279D02*
X43364819Y26692660D01*
X43364819Y26692660D02*
X43402914Y26768850D01*
X43402914Y26768850D02*
X43479104Y26845040D01*
X43479104Y26845040D02*
X43593390Y26883136D01*
X43593390Y26883136D02*
X43669581Y26883136D01*
X43669581Y26883136D02*
X43783866Y26845040D01*
X43783866Y26845040D02*
X43821962Y26806945D01*
X44393390Y26883136D02*
X44393390Y26311707D01*
X44393390Y26311707D02*
X44355295Y26197421D01*
X44355295Y26197421D02*
X44279104Y26121231D01*
X44279104Y26121231D02*
X44164819Y26083136D01*
X44164819Y26083136D02*
X44088628Y26083136D01*
X45155295Y26083136D02*
X44774343Y26083136D01*
X44774343Y26083136D02*
X44774343Y26883136D01*
X45879105Y26159326D02*
X45841009Y26121231D01*
X45841009Y26121231D02*
X45726724Y26083136D01*
X45726724Y26083136D02*
X45650533Y26083136D01*
X45650533Y26083136D02*
X45536247Y26121231D01*
X45536247Y26121231D02*
X45460057Y26197421D01*
X45460057Y26197421D02*
X45421962Y26273612D01*
X45421962Y26273612D02*
X45383866Y26425993D01*
X45383866Y26425993D02*
X45383866Y26540279D01*
X45383866Y26540279D02*
X45421962Y26692660D01*
X45421962Y26692660D02*
X45460057Y26768850D01*
X45460057Y26768850D02*
X45536247Y26845040D01*
X45536247Y26845040D02*
X45650533Y26883136D01*
X45650533Y26883136D02*
X45726724Y26883136D01*
X45726724Y26883136D02*
X45841009Y26845040D01*
X45841009Y26845040D02*
X45879105Y26806945D01*
D11*
X2320000Y22660000D02*
X60000Y22660000D01*
X2320000Y28060000D02*
X60000Y28060000D01*
X2320000Y28060000D02*
X2320000Y22660000D01*
X1630000Y27060000D02*
X1630000Y23460000D01*
X60000Y27060000D02*
X1630000Y27060000D01*
X60000Y23460000D02*
X1630000Y23460000D01*
X23451897Y34560000D02*
G75*
G03*
X23451897Y34560000I-2636897J0D01*
G01*
D10*
%TO.C,Y1*%
X34130889Y30603190D02*
X34130889Y30127000D01*
X33797556Y31127000D02*
X34130889Y30603190D01*
X34130889Y30603190D02*
X34464222Y31127000D01*
X35321365Y30127000D02*
X34749937Y30127000D01*
X35035651Y30127000D02*
X35035651Y31127000D01*
X35035651Y31127000D02*
X34940413Y30984142D01*
X34940413Y30984142D02*
X34845175Y30888904D01*
X34845175Y30888904D02*
X34749937Y30841285D01*
%TO.C,J5*%
X58576666Y28592620D02*
X58576666Y27878334D01*
X58576666Y27878334D02*
X58529047Y27735477D01*
X58529047Y27735477D02*
X58433809Y27640239D01*
X58433809Y27640239D02*
X58290952Y27592620D01*
X58290952Y27592620D02*
X58195714Y27592620D01*
X59529047Y28592620D02*
X59052857Y28592620D01*
X59052857Y28592620D02*
X59005238Y28116429D01*
X59005238Y28116429D02*
X59052857Y28164048D01*
X59052857Y28164048D02*
X59148095Y28211667D01*
X59148095Y28211667D02*
X59386190Y28211667D01*
X59386190Y28211667D02*
X59481428Y28164048D01*
X59481428Y28164048D02*
X59529047Y28116429D01*
X59529047Y28116429D02*
X59576666Y28021191D01*
X59576666Y28021191D02*
X59576666Y27783096D01*
X59576666Y27783096D02*
X59529047Y27687858D01*
X59529047Y27687858D02*
X59481428Y27640239D01*
X59481428Y27640239D02*
X59386190Y27592620D01*
X59386190Y27592620D02*
X59148095Y27592620D01*
X59148095Y27592620D02*
X59052857Y27640239D01*
X59052857Y27640239D02*
X59005238Y27687858D01*
%TO.C,U4*%
X56510595Y23702620D02*
X56510595Y22893096D01*
X56510595Y22893096D02*
X56558214Y22797858D01*
X56558214Y22797858D02*
X56605833Y22750239D01*
X56605833Y22750239D02*
X56701071Y22702620D01*
X56701071Y22702620D02*
X56891547Y22702620D01*
X56891547Y22702620D02*
X56986785Y22750239D01*
X56986785Y22750239D02*
X57034404Y22797858D01*
X57034404Y22797858D02*
X57082023Y22893096D01*
X57082023Y22893096D02*
X57082023Y23702620D01*
X57986785Y23369286D02*
X57986785Y22702620D01*
X57748690Y23750239D02*
X57510595Y23035953D01*
X57510595Y23035953D02*
X58129642Y23035953D01*
%TO.C,R18*%
X10278040Y19564523D02*
X9801850Y19231190D01*
X10278040Y18993095D02*
X9278040Y18993095D01*
X9278040Y18993095D02*
X9278040Y19374047D01*
X9278040Y19374047D02*
X9325660Y19469285D01*
X9325660Y19469285D02*
X9373279Y19516904D01*
X9373279Y19516904D02*
X9468517Y19564523D01*
X9468517Y19564523D02*
X9611374Y19564523D01*
X9611374Y19564523D02*
X9706612Y19516904D01*
X9706612Y19516904D02*
X9754231Y19469285D01*
X9754231Y19469285D02*
X9801850Y19374047D01*
X9801850Y19374047D02*
X9801850Y18993095D01*
X10278040Y20516904D02*
X10278040Y19945476D01*
X10278040Y20231190D02*
X9278040Y20231190D01*
X9278040Y20231190D02*
X9420898Y20135952D01*
X9420898Y20135952D02*
X9516136Y20040714D01*
X9516136Y20040714D02*
X9563755Y19945476D01*
X9706612Y21088333D02*
X9658993Y20993095D01*
X9658993Y20993095D02*
X9611374Y20945476D01*
X9611374Y20945476D02*
X9516136Y20897857D01*
X9516136Y20897857D02*
X9468517Y20897857D01*
X9468517Y20897857D02*
X9373279Y20945476D01*
X9373279Y20945476D02*
X9325660Y20993095D01*
X9325660Y20993095D02*
X9278040Y21088333D01*
X9278040Y21088333D02*
X9278040Y21278809D01*
X9278040Y21278809D02*
X9325660Y21374047D01*
X9325660Y21374047D02*
X9373279Y21421666D01*
X9373279Y21421666D02*
X9468517Y21469285D01*
X9468517Y21469285D02*
X9516136Y21469285D01*
X9516136Y21469285D02*
X9611374Y21421666D01*
X9611374Y21421666D02*
X9658993Y21374047D01*
X9658993Y21374047D02*
X9706612Y21278809D01*
X9706612Y21278809D02*
X9706612Y21088333D01*
X9706612Y21088333D02*
X9754231Y20993095D01*
X9754231Y20993095D02*
X9801850Y20945476D01*
X9801850Y20945476D02*
X9897088Y20897857D01*
X9897088Y20897857D02*
X10087564Y20897857D01*
X10087564Y20897857D02*
X10182802Y20945476D01*
X10182802Y20945476D02*
X10230421Y20993095D01*
X10230421Y20993095D02*
X10278040Y21088333D01*
X10278040Y21088333D02*
X10278040Y21278809D01*
X10278040Y21278809D02*
X10230421Y21374047D01*
X10230421Y21374047D02*
X10182802Y21421666D01*
X10182802Y21421666D02*
X10087564Y21469285D01*
X10087564Y21469285D02*
X9897088Y21469285D01*
X9897088Y21469285D02*
X9801850Y21421666D01*
X9801850Y21421666D02*
X9754231Y21374047D01*
X9754231Y21374047D02*
X9706612Y21278809D01*
%TO.C,R17*%
X26157142Y17132620D02*
X25823809Y17608810D01*
X25585714Y17132620D02*
X25585714Y18132620D01*
X25585714Y18132620D02*
X25966666Y18132620D01*
X25966666Y18132620D02*
X26061904Y18085000D01*
X26061904Y18085000D02*
X26109523Y18037381D01*
X26109523Y18037381D02*
X26157142Y17942143D01*
X26157142Y17942143D02*
X26157142Y17799286D01*
X26157142Y17799286D02*
X26109523Y17704048D01*
X26109523Y17704048D02*
X26061904Y17656429D01*
X26061904Y17656429D02*
X25966666Y17608810D01*
X25966666Y17608810D02*
X25585714Y17608810D01*
X27109523Y17132620D02*
X26538095Y17132620D01*
X26823809Y17132620D02*
X26823809Y18132620D01*
X26823809Y18132620D02*
X26728571Y17989762D01*
X26728571Y17989762D02*
X26633333Y17894524D01*
X26633333Y17894524D02*
X26538095Y17846905D01*
X27442857Y18132620D02*
X28109523Y18132620D01*
X28109523Y18132620D02*
X27680952Y17132620D01*
%TO.C,Q3*%
X5026579Y19916562D02*
X4978960Y19821324D01*
X4978960Y19821324D02*
X4883721Y19726086D01*
X4883721Y19726086D02*
X4740864Y19583229D01*
X4740864Y19583229D02*
X4693245Y19487991D01*
X4693245Y19487991D02*
X4693245Y19392753D01*
X4931340Y19440372D02*
X4883721Y19345134D01*
X4883721Y19345134D02*
X4788483Y19249896D01*
X4788483Y19249896D02*
X4598007Y19202277D01*
X4598007Y19202277D02*
X4264674Y19202277D01*
X4264674Y19202277D02*
X4074198Y19249896D01*
X4074198Y19249896D02*
X3978960Y19345134D01*
X3978960Y19345134D02*
X3931340Y19440372D01*
X3931340Y19440372D02*
X3931340Y19630848D01*
X3931340Y19630848D02*
X3978960Y19726086D01*
X3978960Y19726086D02*
X4074198Y19821324D01*
X4074198Y19821324D02*
X4264674Y19868943D01*
X4264674Y19868943D02*
X4598007Y19868943D01*
X4598007Y19868943D02*
X4788483Y19821324D01*
X4788483Y19821324D02*
X4883721Y19726086D01*
X4883721Y19726086D02*
X4931340Y19630848D01*
X4931340Y19630848D02*
X4931340Y19440372D01*
X3931340Y20202277D02*
X3931340Y20821324D01*
X3931340Y20821324D02*
X4312293Y20487991D01*
X4312293Y20487991D02*
X4312293Y20630848D01*
X4312293Y20630848D02*
X4359912Y20726086D01*
X4359912Y20726086D02*
X4407531Y20773705D01*
X4407531Y20773705D02*
X4502769Y20821324D01*
X4502769Y20821324D02*
X4740864Y20821324D01*
X4740864Y20821324D02*
X4836102Y20773705D01*
X4836102Y20773705D02*
X4883721Y20726086D01*
X4883721Y20726086D02*
X4931340Y20630848D01*
X4931340Y20630848D02*
X4931340Y20345134D01*
X4931340Y20345134D02*
X4883721Y20249896D01*
X4883721Y20249896D02*
X4836102Y20202277D01*
%TO.C,Q2*%
X22064761Y22117381D02*
X21969523Y22165000D01*
X21969523Y22165000D02*
X21874285Y22260239D01*
X21874285Y22260239D02*
X21731428Y22403096D01*
X21731428Y22403096D02*
X21636190Y22450715D01*
X21636190Y22450715D02*
X21540952Y22450715D01*
X21588571Y22212620D02*
X21493333Y22260239D01*
X21493333Y22260239D02*
X21398095Y22355477D01*
X21398095Y22355477D02*
X21350476Y22545953D01*
X21350476Y22545953D02*
X21350476Y22879286D01*
X21350476Y22879286D02*
X21398095Y23069762D01*
X21398095Y23069762D02*
X21493333Y23165000D01*
X21493333Y23165000D02*
X21588571Y23212620D01*
X21588571Y23212620D02*
X21779047Y23212620D01*
X21779047Y23212620D02*
X21874285Y23165000D01*
X21874285Y23165000D02*
X21969523Y23069762D01*
X21969523Y23069762D02*
X22017142Y22879286D01*
X22017142Y22879286D02*
X22017142Y22545953D01*
X22017142Y22545953D02*
X21969523Y22355477D01*
X21969523Y22355477D02*
X21874285Y22260239D01*
X21874285Y22260239D02*
X21779047Y22212620D01*
X21779047Y22212620D02*
X21588571Y22212620D01*
X22398095Y23117381D02*
X22445714Y23165000D01*
X22445714Y23165000D02*
X22540952Y23212620D01*
X22540952Y23212620D02*
X22779047Y23212620D01*
X22779047Y23212620D02*
X22874285Y23165000D01*
X22874285Y23165000D02*
X22921904Y23117381D01*
X22921904Y23117381D02*
X22969523Y23022143D01*
X22969523Y23022143D02*
X22969523Y22926905D01*
X22969523Y22926905D02*
X22921904Y22784048D01*
X22921904Y22784048D02*
X22350476Y22212620D01*
X22350476Y22212620D02*
X22969523Y22212620D01*
%TO.C,JP1*%
X7745226Y35097620D02*
X7745226Y34383334D01*
X7745226Y34383334D02*
X7697607Y34240477D01*
X7697607Y34240477D02*
X7602369Y34145239D01*
X7602369Y34145239D02*
X7459512Y34097620D01*
X7459512Y34097620D02*
X7364274Y34097620D01*
X8221417Y34097620D02*
X8221417Y35097620D01*
X8221417Y35097620D02*
X8602369Y35097620D01*
X8602369Y35097620D02*
X8697607Y35050000D01*
X8697607Y35050000D02*
X8745226Y35002381D01*
X8745226Y35002381D02*
X8792845Y34907143D01*
X8792845Y34907143D02*
X8792845Y34764286D01*
X8792845Y34764286D02*
X8745226Y34669048D01*
X8745226Y34669048D02*
X8697607Y34621429D01*
X8697607Y34621429D02*
X8602369Y34573810D01*
X8602369Y34573810D02*
X8221417Y34573810D01*
X9745226Y34097620D02*
X9173798Y34097620D01*
X9459512Y34097620D02*
X9459512Y35097620D01*
X9459512Y35097620D02*
X9364274Y34954762D01*
X9364274Y34954762D02*
X9269036Y34859524D01*
X9269036Y34859524D02*
X9173798Y34811905D01*
%TO.C,SW1*%
X16956667Y22600239D02*
X17099524Y22552620D01*
X17099524Y22552620D02*
X17337619Y22552620D01*
X17337619Y22552620D02*
X17432857Y22600239D01*
X17432857Y22600239D02*
X17480476Y22647858D01*
X17480476Y22647858D02*
X17528095Y22743096D01*
X17528095Y22743096D02*
X17528095Y22838334D01*
X17528095Y22838334D02*
X17480476Y22933572D01*
X17480476Y22933572D02*
X17432857Y22981191D01*
X17432857Y22981191D02*
X17337619Y23028810D01*
X17337619Y23028810D02*
X17147143Y23076429D01*
X17147143Y23076429D02*
X17051905Y23124048D01*
X17051905Y23124048D02*
X17004286Y23171667D01*
X17004286Y23171667D02*
X16956667Y23266905D01*
X16956667Y23266905D02*
X16956667Y23362143D01*
X16956667Y23362143D02*
X17004286Y23457381D01*
X17004286Y23457381D02*
X17051905Y23505000D01*
X17051905Y23505000D02*
X17147143Y23552620D01*
X17147143Y23552620D02*
X17385238Y23552620D01*
X17385238Y23552620D02*
X17528095Y23505000D01*
X17861429Y23552620D02*
X18099524Y22552620D01*
X18099524Y22552620D02*
X18290000Y23266905D01*
X18290000Y23266905D02*
X18480476Y22552620D01*
X18480476Y22552620D02*
X18718572Y23552620D01*
X19623333Y22552620D02*
X19051905Y22552620D01*
X19337619Y22552620D02*
X19337619Y23552620D01*
X19337619Y23552620D02*
X19242381Y23409762D01*
X19242381Y23409762D02*
X19147143Y23314524D01*
X19147143Y23314524D02*
X19051905Y23266905D01*
%TO.C,R16*%
X14027520Y26997143D02*
X13551330Y26663810D01*
X14027520Y26425715D02*
X13027520Y26425715D01*
X13027520Y26425715D02*
X13027520Y26806667D01*
X13027520Y26806667D02*
X13075140Y26901905D01*
X13075140Y26901905D02*
X13122759Y26949524D01*
X13122759Y26949524D02*
X13217997Y26997143D01*
X13217997Y26997143D02*
X13360854Y26997143D01*
X13360854Y26997143D02*
X13456092Y26949524D01*
X13456092Y26949524D02*
X13503711Y26901905D01*
X13503711Y26901905D02*
X13551330Y26806667D01*
X13551330Y26806667D02*
X13551330Y26425715D01*
X14027520Y27949524D02*
X14027520Y27378096D01*
X14027520Y27663810D02*
X13027520Y27663810D01*
X13027520Y27663810D02*
X13170378Y27568572D01*
X13170378Y27568572D02*
X13265616Y27473334D01*
X13265616Y27473334D02*
X13313235Y27378096D01*
X13027520Y28806667D02*
X13027520Y28616191D01*
X13027520Y28616191D02*
X13075140Y28520953D01*
X13075140Y28520953D02*
X13122759Y28473334D01*
X13122759Y28473334D02*
X13265616Y28378096D01*
X13265616Y28378096D02*
X13456092Y28330477D01*
X13456092Y28330477D02*
X13837044Y28330477D01*
X13837044Y28330477D02*
X13932282Y28378096D01*
X13932282Y28378096D02*
X13979901Y28425715D01*
X13979901Y28425715D02*
X14027520Y28520953D01*
X14027520Y28520953D02*
X14027520Y28711429D01*
X14027520Y28711429D02*
X13979901Y28806667D01*
X13979901Y28806667D02*
X13932282Y28854286D01*
X13932282Y28854286D02*
X13837044Y28901905D01*
X13837044Y28901905D02*
X13598949Y28901905D01*
X13598949Y28901905D02*
X13503711Y28854286D01*
X13503711Y28854286D02*
X13456092Y28806667D01*
X13456092Y28806667D02*
X13408473Y28711429D01*
X13408473Y28711429D02*
X13408473Y28520953D01*
X13408473Y28520953D02*
X13456092Y28425715D01*
X13456092Y28425715D02*
X13503711Y28378096D01*
X13503711Y28378096D02*
X13598949Y28330477D01*
%TO.C,Q1*%
X10376761Y24451381D02*
X10281523Y24499000D01*
X10281523Y24499000D02*
X10186285Y24594239D01*
X10186285Y24594239D02*
X10043428Y24737096D01*
X10043428Y24737096D02*
X9948190Y24784715D01*
X9948190Y24784715D02*
X9852952Y24784715D01*
X9900571Y24546620D02*
X9805333Y24594239D01*
X9805333Y24594239D02*
X9710095Y24689477D01*
X9710095Y24689477D02*
X9662476Y24879953D01*
X9662476Y24879953D02*
X9662476Y25213286D01*
X9662476Y25213286D02*
X9710095Y25403762D01*
X9710095Y25403762D02*
X9805333Y25499000D01*
X9805333Y25499000D02*
X9900571Y25546620D01*
X9900571Y25546620D02*
X10091047Y25546620D01*
X10091047Y25546620D02*
X10186285Y25499000D01*
X10186285Y25499000D02*
X10281523Y25403762D01*
X10281523Y25403762D02*
X10329142Y25213286D01*
X10329142Y25213286D02*
X10329142Y24879953D01*
X10329142Y24879953D02*
X10281523Y24689477D01*
X10281523Y24689477D02*
X10186285Y24594239D01*
X10186285Y24594239D02*
X10091047Y24546620D01*
X10091047Y24546620D02*
X9900571Y24546620D01*
X11281523Y24546620D02*
X10710095Y24546620D01*
X10995809Y24546620D02*
X10995809Y25546620D01*
X10995809Y25546620D02*
X10900571Y25403762D01*
X10900571Y25403762D02*
X10805333Y25308524D01*
X10805333Y25308524D02*
X10710095Y25260905D01*
%TO.C,C20*%
X17238362Y27065723D02*
X17285981Y27018104D01*
X17285981Y27018104D02*
X17333600Y26875247D01*
X17333600Y26875247D02*
X17333600Y26780009D01*
X17333600Y26780009D02*
X17285981Y26637152D01*
X17285981Y26637152D02*
X17190743Y26541914D01*
X17190743Y26541914D02*
X17095505Y26494295D01*
X17095505Y26494295D02*
X16905029Y26446676D01*
X16905029Y26446676D02*
X16762172Y26446676D01*
X16762172Y26446676D02*
X16571696Y26494295D01*
X16571696Y26494295D02*
X16476458Y26541914D01*
X16476458Y26541914D02*
X16381220Y26637152D01*
X16381220Y26637152D02*
X16333600Y26780009D01*
X16333600Y26780009D02*
X16333600Y26875247D01*
X16333600Y26875247D02*
X16381220Y27018104D01*
X16381220Y27018104D02*
X16428839Y27065723D01*
X16428839Y27446676D02*
X16381220Y27494295D01*
X16381220Y27494295D02*
X16333600Y27589533D01*
X16333600Y27589533D02*
X16333600Y27827628D01*
X16333600Y27827628D02*
X16381220Y27922866D01*
X16381220Y27922866D02*
X16428839Y27970485D01*
X16428839Y27970485D02*
X16524077Y28018104D01*
X16524077Y28018104D02*
X16619315Y28018104D01*
X16619315Y28018104D02*
X16762172Y27970485D01*
X16762172Y27970485D02*
X17333600Y27399057D01*
X17333600Y27399057D02*
X17333600Y28018104D01*
X16333600Y28637152D02*
X16333600Y28732390D01*
X16333600Y28732390D02*
X16381220Y28827628D01*
X16381220Y28827628D02*
X16428839Y28875247D01*
X16428839Y28875247D02*
X16524077Y28922866D01*
X16524077Y28922866D02*
X16714553Y28970485D01*
X16714553Y28970485D02*
X16952648Y28970485D01*
X16952648Y28970485D02*
X17143124Y28922866D01*
X17143124Y28922866D02*
X17238362Y28875247D01*
X17238362Y28875247D02*
X17285981Y28827628D01*
X17285981Y28827628D02*
X17333600Y28732390D01*
X17333600Y28732390D02*
X17333600Y28637152D01*
X17333600Y28637152D02*
X17285981Y28541914D01*
X17285981Y28541914D02*
X17238362Y28494295D01*
X17238362Y28494295D02*
X17143124Y28446676D01*
X17143124Y28446676D02*
X16952648Y28399057D01*
X16952648Y28399057D02*
X16714553Y28399057D01*
X16714553Y28399057D02*
X16524077Y28446676D01*
X16524077Y28446676D02*
X16428839Y28494295D01*
X16428839Y28494295D02*
X16381220Y28541914D01*
X16381220Y28541914D02*
X16333600Y28637152D01*
%TO.C,U5*%
X5059675Y15728420D02*
X5059675Y14918896D01*
X5059675Y14918896D02*
X5107294Y14823658D01*
X5107294Y14823658D02*
X5154913Y14776039D01*
X5154913Y14776039D02*
X5250151Y14728420D01*
X5250151Y14728420D02*
X5440627Y14728420D01*
X5440627Y14728420D02*
X5535865Y14776039D01*
X5535865Y14776039D02*
X5583484Y14823658D01*
X5583484Y14823658D02*
X5631103Y14918896D01*
X5631103Y14918896D02*
X5631103Y15728420D01*
X6583484Y15728420D02*
X6107294Y15728420D01*
X6107294Y15728420D02*
X6059675Y15252229D01*
X6059675Y15252229D02*
X6107294Y15299848D01*
X6107294Y15299848D02*
X6202532Y15347467D01*
X6202532Y15347467D02*
X6440627Y15347467D01*
X6440627Y15347467D02*
X6535865Y15299848D01*
X6535865Y15299848D02*
X6583484Y15252229D01*
X6583484Y15252229D02*
X6631103Y15156991D01*
X6631103Y15156991D02*
X6631103Y14918896D01*
X6631103Y14918896D02*
X6583484Y14823658D01*
X6583484Y14823658D02*
X6535865Y14776039D01*
X6535865Y14776039D02*
X6440627Y14728420D01*
X6440627Y14728420D02*
X6202532Y14728420D01*
X6202532Y14728420D02*
X6107294Y14776039D01*
X6107294Y14776039D02*
X6059675Y14823658D01*
%TO.C,R15*%
X22351760Y13759823D02*
X21875570Y13426490D01*
X22351760Y13188395D02*
X21351760Y13188395D01*
X21351760Y13188395D02*
X21351760Y13569347D01*
X21351760Y13569347D02*
X21399380Y13664585D01*
X21399380Y13664585D02*
X21446999Y13712204D01*
X21446999Y13712204D02*
X21542237Y13759823D01*
X21542237Y13759823D02*
X21685094Y13759823D01*
X21685094Y13759823D02*
X21780332Y13712204D01*
X21780332Y13712204D02*
X21827951Y13664585D01*
X21827951Y13664585D02*
X21875570Y13569347D01*
X21875570Y13569347D02*
X21875570Y13188395D01*
X22351760Y14712204D02*
X22351760Y14140776D01*
X22351760Y14426490D02*
X21351760Y14426490D01*
X21351760Y14426490D02*
X21494618Y14331252D01*
X21494618Y14331252D02*
X21589856Y14236014D01*
X21589856Y14236014D02*
X21637475Y14140776D01*
X21351760Y15616966D02*
X21351760Y15140776D01*
X21351760Y15140776D02*
X21827951Y15093157D01*
X21827951Y15093157D02*
X21780332Y15140776D01*
X21780332Y15140776D02*
X21732713Y15236014D01*
X21732713Y15236014D02*
X21732713Y15474109D01*
X21732713Y15474109D02*
X21780332Y15569347D01*
X21780332Y15569347D02*
X21827951Y15616966D01*
X21827951Y15616966D02*
X21923189Y15664585D01*
X21923189Y15664585D02*
X22161284Y15664585D01*
X22161284Y15664585D02*
X22256522Y15616966D01*
X22256522Y15616966D02*
X22304141Y15569347D01*
X22304141Y15569347D02*
X22351760Y15474109D01*
X22351760Y15474109D02*
X22351760Y15236014D01*
X22351760Y15236014D02*
X22304141Y15140776D01*
X22304141Y15140776D02*
X22256522Y15093157D01*
%TO.C,R14*%
X19219940Y13790303D02*
X18743750Y13456970D01*
X19219940Y13218875D02*
X18219940Y13218875D01*
X18219940Y13218875D02*
X18219940Y13599827D01*
X18219940Y13599827D02*
X18267560Y13695065D01*
X18267560Y13695065D02*
X18315179Y13742684D01*
X18315179Y13742684D02*
X18410417Y13790303D01*
X18410417Y13790303D02*
X18553274Y13790303D01*
X18553274Y13790303D02*
X18648512Y13742684D01*
X18648512Y13742684D02*
X18696131Y13695065D01*
X18696131Y13695065D02*
X18743750Y13599827D01*
X18743750Y13599827D02*
X18743750Y13218875D01*
X19219940Y14742684D02*
X19219940Y14171256D01*
X19219940Y14456970D02*
X18219940Y14456970D01*
X18219940Y14456970D02*
X18362798Y14361732D01*
X18362798Y14361732D02*
X18458036Y14266494D01*
X18458036Y14266494D02*
X18505655Y14171256D01*
X18553274Y15599827D02*
X19219940Y15599827D01*
X18172321Y15361732D02*
X18886607Y15123637D01*
X18886607Y15123637D02*
X18886607Y15742684D01*
%TO.C,R13*%
X15973820Y13599803D02*
X15497630Y13266470D01*
X15973820Y13028375D02*
X14973820Y13028375D01*
X14973820Y13028375D02*
X14973820Y13409327D01*
X14973820Y13409327D02*
X15021440Y13504565D01*
X15021440Y13504565D02*
X15069059Y13552184D01*
X15069059Y13552184D02*
X15164297Y13599803D01*
X15164297Y13599803D02*
X15307154Y13599803D01*
X15307154Y13599803D02*
X15402392Y13552184D01*
X15402392Y13552184D02*
X15450011Y13504565D01*
X15450011Y13504565D02*
X15497630Y13409327D01*
X15497630Y13409327D02*
X15497630Y13028375D01*
X15973820Y14552184D02*
X15973820Y13980756D01*
X15973820Y14266470D02*
X14973820Y14266470D01*
X14973820Y14266470D02*
X15116678Y14171232D01*
X15116678Y14171232D02*
X15211916Y14075994D01*
X15211916Y14075994D02*
X15259535Y13980756D01*
X14973820Y14885518D02*
X14973820Y15504565D01*
X14973820Y15504565D02*
X15354773Y15171232D01*
X15354773Y15171232D02*
X15354773Y15314089D01*
X15354773Y15314089D02*
X15402392Y15409327D01*
X15402392Y15409327D02*
X15450011Y15456946D01*
X15450011Y15456946D02*
X15545249Y15504565D01*
X15545249Y15504565D02*
X15783344Y15504565D01*
X15783344Y15504565D02*
X15878582Y15456946D01*
X15878582Y15456946D02*
X15926201Y15409327D01*
X15926201Y15409327D02*
X15973820Y15314089D01*
X15973820Y15314089D02*
X15973820Y15028375D01*
X15973820Y15028375D02*
X15926201Y14933137D01*
X15926201Y14933137D02*
X15878582Y14885518D01*
%TO.C,C19*%
X7870022Y16752318D02*
X7822403Y16704699D01*
X7822403Y16704699D02*
X7679546Y16657080D01*
X7679546Y16657080D02*
X7584308Y16657080D01*
X7584308Y16657080D02*
X7441451Y16704699D01*
X7441451Y16704699D02*
X7346213Y16799937D01*
X7346213Y16799937D02*
X7298594Y16895175D01*
X7298594Y16895175D02*
X7250975Y17085651D01*
X7250975Y17085651D02*
X7250975Y17228508D01*
X7250975Y17228508D02*
X7298594Y17418984D01*
X7298594Y17418984D02*
X7346213Y17514222D01*
X7346213Y17514222D02*
X7441451Y17609460D01*
X7441451Y17609460D02*
X7584308Y17657080D01*
X7584308Y17657080D02*
X7679546Y17657080D01*
X7679546Y17657080D02*
X7822403Y17609460D01*
X7822403Y17609460D02*
X7870022Y17561841D01*
X8822403Y16657080D02*
X8250975Y16657080D01*
X8536689Y16657080D02*
X8536689Y17657080D01*
X8536689Y17657080D02*
X8441451Y17514222D01*
X8441451Y17514222D02*
X8346213Y17418984D01*
X8346213Y17418984D02*
X8250975Y17371365D01*
X9298594Y16657080D02*
X9489070Y16657080D01*
X9489070Y16657080D02*
X9584308Y16704699D01*
X9584308Y16704699D02*
X9631927Y16752318D01*
X9631927Y16752318D02*
X9727165Y16895175D01*
X9727165Y16895175D02*
X9774784Y17085651D01*
X9774784Y17085651D02*
X9774784Y17466603D01*
X9774784Y17466603D02*
X9727165Y17561841D01*
X9727165Y17561841D02*
X9679546Y17609460D01*
X9679546Y17609460D02*
X9584308Y17657080D01*
X9584308Y17657080D02*
X9393832Y17657080D01*
X9393832Y17657080D02*
X9298594Y17609460D01*
X9298594Y17609460D02*
X9250975Y17561841D01*
X9250975Y17561841D02*
X9203356Y17466603D01*
X9203356Y17466603D02*
X9203356Y17228508D01*
X9203356Y17228508D02*
X9250975Y17133270D01*
X9250975Y17133270D02*
X9298594Y17085651D01*
X9298594Y17085651D02*
X9393832Y17038032D01*
X9393832Y17038032D02*
X9584308Y17038032D01*
X9584308Y17038032D02*
X9679546Y17085651D01*
X9679546Y17085651D02*
X9727165Y17133270D01*
X9727165Y17133270D02*
X9774784Y17228508D01*
%TO.C,R12*%
X49549980Y11624483D02*
X49073790Y11291150D01*
X49549980Y11053055D02*
X48549980Y11053055D01*
X48549980Y11053055D02*
X48549980Y11434007D01*
X48549980Y11434007D02*
X48597600Y11529245D01*
X48597600Y11529245D02*
X48645219Y11576864D01*
X48645219Y11576864D02*
X48740457Y11624483D01*
X48740457Y11624483D02*
X48883314Y11624483D01*
X48883314Y11624483D02*
X48978552Y11576864D01*
X48978552Y11576864D02*
X49026171Y11529245D01*
X49026171Y11529245D02*
X49073790Y11434007D01*
X49073790Y11434007D02*
X49073790Y11053055D01*
X49549980Y12576864D02*
X49549980Y12005436D01*
X49549980Y12291150D02*
X48549980Y12291150D01*
X48549980Y12291150D02*
X48692838Y12195912D01*
X48692838Y12195912D02*
X48788076Y12100674D01*
X48788076Y12100674D02*
X48835695Y12005436D01*
X48645219Y12957817D02*
X48597600Y13005436D01*
X48597600Y13005436D02*
X48549980Y13100674D01*
X48549980Y13100674D02*
X48549980Y13338769D01*
X48549980Y13338769D02*
X48597600Y13434007D01*
X48597600Y13434007D02*
X48645219Y13481626D01*
X48645219Y13481626D02*
X48740457Y13529245D01*
X48740457Y13529245D02*
X48835695Y13529245D01*
X48835695Y13529245D02*
X48978552Y13481626D01*
X48978552Y13481626D02*
X49549980Y12910198D01*
X49549980Y12910198D02*
X49549980Y13529245D01*
%TO.C,R11*%
X34978540Y12523643D02*
X34502350Y12190310D01*
X34978540Y11952215D02*
X33978540Y11952215D01*
X33978540Y11952215D02*
X33978540Y12333167D01*
X33978540Y12333167D02*
X34026160Y12428405D01*
X34026160Y12428405D02*
X34073779Y12476024D01*
X34073779Y12476024D02*
X34169017Y12523643D01*
X34169017Y12523643D02*
X34311874Y12523643D01*
X34311874Y12523643D02*
X34407112Y12476024D01*
X34407112Y12476024D02*
X34454731Y12428405D01*
X34454731Y12428405D02*
X34502350Y12333167D01*
X34502350Y12333167D02*
X34502350Y11952215D01*
X34978540Y13476024D02*
X34978540Y12904596D01*
X34978540Y13190310D02*
X33978540Y13190310D01*
X33978540Y13190310D02*
X34121398Y13095072D01*
X34121398Y13095072D02*
X34216636Y12999834D01*
X34216636Y12999834D02*
X34264255Y12904596D01*
X34978540Y14428405D02*
X34978540Y13856977D01*
X34978540Y14142691D02*
X33978540Y14142691D01*
X33978540Y14142691D02*
X34121398Y14047453D01*
X34121398Y14047453D02*
X34216636Y13952215D01*
X34216636Y13952215D02*
X34264255Y13856977D01*
%TO.C,R10*%
X53657160Y11571143D02*
X53180970Y11237810D01*
X53657160Y10999715D02*
X52657160Y10999715D01*
X52657160Y10999715D02*
X52657160Y11380667D01*
X52657160Y11380667D02*
X52704780Y11475905D01*
X52704780Y11475905D02*
X52752399Y11523524D01*
X52752399Y11523524D02*
X52847637Y11571143D01*
X52847637Y11571143D02*
X52990494Y11571143D01*
X52990494Y11571143D02*
X53085732Y11523524D01*
X53085732Y11523524D02*
X53133351Y11475905D01*
X53133351Y11475905D02*
X53180970Y11380667D01*
X53180970Y11380667D02*
X53180970Y10999715D01*
X53657160Y12523524D02*
X53657160Y11952096D01*
X53657160Y12237810D02*
X52657160Y12237810D01*
X52657160Y12237810D02*
X52800018Y12142572D01*
X52800018Y12142572D02*
X52895256Y12047334D01*
X52895256Y12047334D02*
X52942875Y11952096D01*
X52657160Y13142572D02*
X52657160Y13237810D01*
X52657160Y13237810D02*
X52704780Y13333048D01*
X52704780Y13333048D02*
X52752399Y13380667D01*
X52752399Y13380667D02*
X52847637Y13428286D01*
X52847637Y13428286D02*
X53038113Y13475905D01*
X53038113Y13475905D02*
X53276208Y13475905D01*
X53276208Y13475905D02*
X53466684Y13428286D01*
X53466684Y13428286D02*
X53561922Y13380667D01*
X53561922Y13380667D02*
X53609541Y13333048D01*
X53609541Y13333048D02*
X53657160Y13237810D01*
X53657160Y13237810D02*
X53657160Y13142572D01*
X53657160Y13142572D02*
X53609541Y13047334D01*
X53609541Y13047334D02*
X53561922Y12999715D01*
X53561922Y12999715D02*
X53466684Y12952096D01*
X53466684Y12952096D02*
X53276208Y12904477D01*
X53276208Y12904477D02*
X53038113Y12904477D01*
X53038113Y12904477D02*
X52847637Y12952096D01*
X52847637Y12952096D02*
X52752399Y12999715D01*
X52752399Y12999715D02*
X52704780Y13047334D01*
X52704780Y13047334D02*
X52657160Y13142572D01*
%TO.C,R9*%
X17320813Y32283460D02*
X16987480Y32759650D01*
X16749385Y32283460D02*
X16749385Y33283460D01*
X16749385Y33283460D02*
X17130337Y33283460D01*
X17130337Y33283460D02*
X17225575Y33235840D01*
X17225575Y33235840D02*
X17273194Y33188221D01*
X17273194Y33188221D02*
X17320813Y33092983D01*
X17320813Y33092983D02*
X17320813Y32950126D01*
X17320813Y32950126D02*
X17273194Y32854888D01*
X17273194Y32854888D02*
X17225575Y32807269D01*
X17225575Y32807269D02*
X17130337Y32759650D01*
X17130337Y32759650D02*
X16749385Y32759650D01*
X17797004Y32283460D02*
X17987480Y32283460D01*
X17987480Y32283460D02*
X18082718Y32331079D01*
X18082718Y32331079D02*
X18130337Y32378698D01*
X18130337Y32378698D02*
X18225575Y32521555D01*
X18225575Y32521555D02*
X18273194Y32712031D01*
X18273194Y32712031D02*
X18273194Y33092983D01*
X18273194Y33092983D02*
X18225575Y33188221D01*
X18225575Y33188221D02*
X18177956Y33235840D01*
X18177956Y33235840D02*
X18082718Y33283460D01*
X18082718Y33283460D02*
X17892242Y33283460D01*
X17892242Y33283460D02*
X17797004Y33235840D01*
X17797004Y33235840D02*
X17749385Y33188221D01*
X17749385Y33188221D02*
X17701766Y33092983D01*
X17701766Y33092983D02*
X17701766Y32854888D01*
X17701766Y32854888D02*
X17749385Y32759650D01*
X17749385Y32759650D02*
X17797004Y32712031D01*
X17797004Y32712031D02*
X17892242Y32664412D01*
X17892242Y32664412D02*
X18082718Y32664412D01*
X18082718Y32664412D02*
X18177956Y32712031D01*
X18177956Y32712031D02*
X18225575Y32759650D01*
X18225575Y32759650D02*
X18273194Y32854888D01*
%TO.C,R6*%
X44514053Y35842620D02*
X44180720Y36318810D01*
X43942625Y35842620D02*
X43942625Y36842620D01*
X43942625Y36842620D02*
X44323577Y36842620D01*
X44323577Y36842620D02*
X44418815Y36795000D01*
X44418815Y36795000D02*
X44466434Y36747381D01*
X44466434Y36747381D02*
X44514053Y36652143D01*
X44514053Y36652143D02*
X44514053Y36509286D01*
X44514053Y36509286D02*
X44466434Y36414048D01*
X44466434Y36414048D02*
X44418815Y36366429D01*
X44418815Y36366429D02*
X44323577Y36318810D01*
X44323577Y36318810D02*
X43942625Y36318810D01*
X45371196Y36842620D02*
X45180720Y36842620D01*
X45180720Y36842620D02*
X45085482Y36795000D01*
X45085482Y36795000D02*
X45037863Y36747381D01*
X45037863Y36747381D02*
X44942625Y36604524D01*
X44942625Y36604524D02*
X44895006Y36414048D01*
X44895006Y36414048D02*
X44895006Y36033096D01*
X44895006Y36033096D02*
X44942625Y35937858D01*
X44942625Y35937858D02*
X44990244Y35890239D01*
X44990244Y35890239D02*
X45085482Y35842620D01*
X45085482Y35842620D02*
X45275958Y35842620D01*
X45275958Y35842620D02*
X45371196Y35890239D01*
X45371196Y35890239D02*
X45418815Y35937858D01*
X45418815Y35937858D02*
X45466434Y36033096D01*
X45466434Y36033096D02*
X45466434Y36271191D01*
X45466434Y36271191D02*
X45418815Y36366429D01*
X45418815Y36366429D02*
X45371196Y36414048D01*
X45371196Y36414048D02*
X45275958Y36461667D01*
X45275958Y36461667D02*
X45085482Y36461667D01*
X45085482Y36461667D02*
X44990244Y36414048D01*
X44990244Y36414048D02*
X44942625Y36366429D01*
X44942625Y36366429D02*
X44895006Y36271191D01*
%TO.C,C18*%
X45175782Y11731038D02*
X45128163Y11683419D01*
X45128163Y11683419D02*
X44985306Y11635800D01*
X44985306Y11635800D02*
X44890068Y11635800D01*
X44890068Y11635800D02*
X44747211Y11683419D01*
X44747211Y11683419D02*
X44651973Y11778657D01*
X44651973Y11778657D02*
X44604354Y11873895D01*
X44604354Y11873895D02*
X44556735Y12064371D01*
X44556735Y12064371D02*
X44556735Y12207228D01*
X44556735Y12207228D02*
X44604354Y12397704D01*
X44604354Y12397704D02*
X44651973Y12492942D01*
X44651973Y12492942D02*
X44747211Y12588180D01*
X44747211Y12588180D02*
X44890068Y12635800D01*
X44890068Y12635800D02*
X44985306Y12635800D01*
X44985306Y12635800D02*
X45128163Y12588180D01*
X45128163Y12588180D02*
X45175782Y12540561D01*
X46128163Y11635800D02*
X45556735Y11635800D01*
X45842449Y11635800D02*
X45842449Y12635800D01*
X45842449Y12635800D02*
X45747211Y12492942D01*
X45747211Y12492942D02*
X45651973Y12397704D01*
X45651973Y12397704D02*
X45556735Y12350085D01*
X46699592Y12207228D02*
X46604354Y12254847D01*
X46604354Y12254847D02*
X46556735Y12302466D01*
X46556735Y12302466D02*
X46509116Y12397704D01*
X46509116Y12397704D02*
X46509116Y12445323D01*
X46509116Y12445323D02*
X46556735Y12540561D01*
X46556735Y12540561D02*
X46604354Y12588180D01*
X46604354Y12588180D02*
X46699592Y12635800D01*
X46699592Y12635800D02*
X46890068Y12635800D01*
X46890068Y12635800D02*
X46985306Y12588180D01*
X46985306Y12588180D02*
X47032925Y12540561D01*
X47032925Y12540561D02*
X47080544Y12445323D01*
X47080544Y12445323D02*
X47080544Y12397704D01*
X47080544Y12397704D02*
X47032925Y12302466D01*
X47032925Y12302466D02*
X46985306Y12254847D01*
X46985306Y12254847D02*
X46890068Y12207228D01*
X46890068Y12207228D02*
X46699592Y12207228D01*
X46699592Y12207228D02*
X46604354Y12159609D01*
X46604354Y12159609D02*
X46556735Y12111990D01*
X46556735Y12111990D02*
X46509116Y12016752D01*
X46509116Y12016752D02*
X46509116Y11826276D01*
X46509116Y11826276D02*
X46556735Y11731038D01*
X46556735Y11731038D02*
X46604354Y11683419D01*
X46604354Y11683419D02*
X46699592Y11635800D01*
X46699592Y11635800D02*
X46890068Y11635800D01*
X46890068Y11635800D02*
X46985306Y11683419D01*
X46985306Y11683419D02*
X47032925Y11731038D01*
X47032925Y11731038D02*
X47080544Y11826276D01*
X47080544Y11826276D02*
X47080544Y12016752D01*
X47080544Y12016752D02*
X47032925Y12111990D01*
X47032925Y12111990D02*
X46985306Y12159609D01*
X46985306Y12159609D02*
X46890068Y12207228D01*
%TO.C,U2*%
X46288635Y30029720D02*
X46288635Y29220196D01*
X46288635Y29220196D02*
X46336254Y29124958D01*
X46336254Y29124958D02*
X46383873Y29077339D01*
X46383873Y29077339D02*
X46479111Y29029720D01*
X46479111Y29029720D02*
X46669587Y29029720D01*
X46669587Y29029720D02*
X46764825Y29077339D01*
X46764825Y29077339D02*
X46812444Y29124958D01*
X46812444Y29124958D02*
X46860063Y29220196D01*
X46860063Y29220196D02*
X46860063Y30029720D01*
X47288635Y29934481D02*
X47336254Y29982100D01*
X47336254Y29982100D02*
X47431492Y30029720D01*
X47431492Y30029720D02*
X47669587Y30029720D01*
X47669587Y30029720D02*
X47764825Y29982100D01*
X47764825Y29982100D02*
X47812444Y29934481D01*
X47812444Y29934481D02*
X47860063Y29839243D01*
X47860063Y29839243D02*
X47860063Y29744005D01*
X47860063Y29744005D02*
X47812444Y29601148D01*
X47812444Y29601148D02*
X47241016Y29029720D01*
X47241016Y29029720D02*
X47860063Y29029720D01*
%TO.C,JP2*%
X7745226Y32605280D02*
X7745226Y31890994D01*
X7745226Y31890994D02*
X7697607Y31748137D01*
X7697607Y31748137D02*
X7602369Y31652899D01*
X7602369Y31652899D02*
X7459512Y31605280D01*
X7459512Y31605280D02*
X7364274Y31605280D01*
X8221417Y31605280D02*
X8221417Y32605280D01*
X8221417Y32605280D02*
X8602369Y32605280D01*
X8602369Y32605280D02*
X8697607Y32557660D01*
X8697607Y32557660D02*
X8745226Y32510041D01*
X8745226Y32510041D02*
X8792845Y32414803D01*
X8792845Y32414803D02*
X8792845Y32271946D01*
X8792845Y32271946D02*
X8745226Y32176708D01*
X8745226Y32176708D02*
X8697607Y32129089D01*
X8697607Y32129089D02*
X8602369Y32081470D01*
X8602369Y32081470D02*
X8221417Y32081470D01*
X9173798Y32510041D02*
X9221417Y32557660D01*
X9221417Y32557660D02*
X9316655Y32605280D01*
X9316655Y32605280D02*
X9554750Y32605280D01*
X9554750Y32605280D02*
X9649988Y32557660D01*
X9649988Y32557660D02*
X9697607Y32510041D01*
X9697607Y32510041D02*
X9745226Y32414803D01*
X9745226Y32414803D02*
X9745226Y32319565D01*
X9745226Y32319565D02*
X9697607Y32176708D01*
X9697607Y32176708D02*
X9126179Y31605280D01*
X9126179Y31605280D02*
X9745226Y31605280D01*
%TO.C,D6*%
X53265225Y21898920D02*
X53265225Y22898920D01*
X53265225Y22898920D02*
X53503320Y22898920D01*
X53503320Y22898920D02*
X53646177Y22851300D01*
X53646177Y22851300D02*
X53741415Y22756062D01*
X53741415Y22756062D02*
X53789034Y22660824D01*
X53789034Y22660824D02*
X53836653Y22470348D01*
X53836653Y22470348D02*
X53836653Y22327491D01*
X53836653Y22327491D02*
X53789034Y22137015D01*
X53789034Y22137015D02*
X53741415Y22041777D01*
X53741415Y22041777D02*
X53646177Y21946539D01*
X53646177Y21946539D02*
X53503320Y21898920D01*
X53503320Y21898920D02*
X53265225Y21898920D01*
X54693796Y22898920D02*
X54503320Y22898920D01*
X54503320Y22898920D02*
X54408082Y22851300D01*
X54408082Y22851300D02*
X54360463Y22803681D01*
X54360463Y22803681D02*
X54265225Y22660824D01*
X54265225Y22660824D02*
X54217606Y22470348D01*
X54217606Y22470348D02*
X54217606Y22089396D01*
X54217606Y22089396D02*
X54265225Y21994158D01*
X54265225Y21994158D02*
X54312844Y21946539D01*
X54312844Y21946539D02*
X54408082Y21898920D01*
X54408082Y21898920D02*
X54598558Y21898920D01*
X54598558Y21898920D02*
X54693796Y21946539D01*
X54693796Y21946539D02*
X54741415Y21994158D01*
X54741415Y21994158D02*
X54789034Y22089396D01*
X54789034Y22089396D02*
X54789034Y22327491D01*
X54789034Y22327491D02*
X54741415Y22422729D01*
X54741415Y22422729D02*
X54693796Y22470348D01*
X54693796Y22470348D02*
X54598558Y22517967D01*
X54598558Y22517967D02*
X54408082Y22517967D01*
X54408082Y22517967D02*
X54312844Y22470348D01*
X54312844Y22470348D02*
X54265225Y22422729D01*
X54265225Y22422729D02*
X54217606Y22327491D01*
%TO.C,D5*%
X23221305Y24241820D02*
X23221305Y25241820D01*
X23221305Y25241820D02*
X23459400Y25241820D01*
X23459400Y25241820D02*
X23602257Y25194200D01*
X23602257Y25194200D02*
X23697495Y25098962D01*
X23697495Y25098962D02*
X23745114Y25003724D01*
X23745114Y25003724D02*
X23792733Y24813248D01*
X23792733Y24813248D02*
X23792733Y24670391D01*
X23792733Y24670391D02*
X23745114Y24479915D01*
X23745114Y24479915D02*
X23697495Y24384677D01*
X23697495Y24384677D02*
X23602257Y24289439D01*
X23602257Y24289439D02*
X23459400Y24241820D01*
X23459400Y24241820D02*
X23221305Y24241820D01*
X24697495Y25241820D02*
X24221305Y25241820D01*
X24221305Y25241820D02*
X24173686Y24765629D01*
X24173686Y24765629D02*
X24221305Y24813248D01*
X24221305Y24813248D02*
X24316543Y24860867D01*
X24316543Y24860867D02*
X24554638Y24860867D01*
X24554638Y24860867D02*
X24649876Y24813248D01*
X24649876Y24813248D02*
X24697495Y24765629D01*
X24697495Y24765629D02*
X24745114Y24670391D01*
X24745114Y24670391D02*
X24745114Y24432296D01*
X24745114Y24432296D02*
X24697495Y24337058D01*
X24697495Y24337058D02*
X24649876Y24289439D01*
X24649876Y24289439D02*
X24554638Y24241820D01*
X24554638Y24241820D02*
X24316543Y24241820D01*
X24316543Y24241820D02*
X24221305Y24289439D01*
X24221305Y24289439D02*
X24173686Y24337058D01*
%TO.C,D4*%
X4496425Y23830340D02*
X4496425Y24830340D01*
X4496425Y24830340D02*
X4734520Y24830340D01*
X4734520Y24830340D02*
X4877377Y24782720D01*
X4877377Y24782720D02*
X4972615Y24687482D01*
X4972615Y24687482D02*
X5020234Y24592244D01*
X5020234Y24592244D02*
X5067853Y24401768D01*
X5067853Y24401768D02*
X5067853Y24258911D01*
X5067853Y24258911D02*
X5020234Y24068435D01*
X5020234Y24068435D02*
X4972615Y23973197D01*
X4972615Y23973197D02*
X4877377Y23877959D01*
X4877377Y23877959D02*
X4734520Y23830340D01*
X4734520Y23830340D02*
X4496425Y23830340D01*
X5924996Y24497006D02*
X5924996Y23830340D01*
X5686901Y24877959D02*
X5448806Y24163673D01*
X5448806Y24163673D02*
X6067853Y24163673D01*
%TO.C,U3*%
X62031300Y27291536D02*
X62840824Y27291536D01*
X62840824Y27291536D02*
X62936062Y27339155D01*
X62936062Y27339155D02*
X62983681Y27386774D01*
X62983681Y27386774D02*
X63031300Y27482012D01*
X63031300Y27482012D02*
X63031300Y27672488D01*
X63031300Y27672488D02*
X62983681Y27767726D01*
X62983681Y27767726D02*
X62936062Y27815345D01*
X62936062Y27815345D02*
X62840824Y27862964D01*
X62840824Y27862964D02*
X62031300Y27862964D01*
X62031300Y28243917D02*
X62031300Y28862964D01*
X62031300Y28862964D02*
X62412253Y28529631D01*
X62412253Y28529631D02*
X62412253Y28672488D01*
X62412253Y28672488D02*
X62459872Y28767726D01*
X62459872Y28767726D02*
X62507491Y28815345D01*
X62507491Y28815345D02*
X62602729Y28862964D01*
X62602729Y28862964D02*
X62840824Y28862964D01*
X62840824Y28862964D02*
X62936062Y28815345D01*
X62936062Y28815345D02*
X62983681Y28767726D01*
X62983681Y28767726D02*
X63031300Y28672488D01*
X63031300Y28672488D02*
X63031300Y28386774D01*
X63031300Y28386774D02*
X62983681Y28291536D01*
X62983681Y28291536D02*
X62936062Y28243917D01*
%TO.C,U1*%
X62338895Y11322620D02*
X62338895Y10513096D01*
X62338895Y10513096D02*
X62386514Y10417858D01*
X62386514Y10417858D02*
X62434133Y10370239D01*
X62434133Y10370239D02*
X62529371Y10322620D01*
X62529371Y10322620D02*
X62719847Y10322620D01*
X62719847Y10322620D02*
X62815085Y10370239D01*
X62815085Y10370239D02*
X62862704Y10417858D01*
X62862704Y10417858D02*
X62910323Y10513096D01*
X62910323Y10513096D02*
X62910323Y11322620D01*
X63910323Y10322620D02*
X63338895Y10322620D01*
X63624609Y10322620D02*
X63624609Y11322620D01*
X63624609Y11322620D02*
X63529371Y11179762D01*
X63529371Y11179762D02*
X63434133Y11084524D01*
X63434133Y11084524D02*
X63338895Y11036905D01*
%TO.C,R8*%
X53485333Y19340620D02*
X53152000Y19816810D01*
X52913905Y19340620D02*
X52913905Y20340620D01*
X52913905Y20340620D02*
X53294857Y20340620D01*
X53294857Y20340620D02*
X53390095Y20293000D01*
X53390095Y20293000D02*
X53437714Y20245381D01*
X53437714Y20245381D02*
X53485333Y20150143D01*
X53485333Y20150143D02*
X53485333Y20007286D01*
X53485333Y20007286D02*
X53437714Y19912048D01*
X53437714Y19912048D02*
X53390095Y19864429D01*
X53390095Y19864429D02*
X53294857Y19816810D01*
X53294857Y19816810D02*
X52913905Y19816810D01*
X54056762Y19912048D02*
X53961524Y19959667D01*
X53961524Y19959667D02*
X53913905Y20007286D01*
X53913905Y20007286D02*
X53866286Y20102524D01*
X53866286Y20102524D02*
X53866286Y20150143D01*
X53866286Y20150143D02*
X53913905Y20245381D01*
X53913905Y20245381D02*
X53961524Y20293000D01*
X53961524Y20293000D02*
X54056762Y20340620D01*
X54056762Y20340620D02*
X54247238Y20340620D01*
X54247238Y20340620D02*
X54342476Y20293000D01*
X54342476Y20293000D02*
X54390095Y20245381D01*
X54390095Y20245381D02*
X54437714Y20150143D01*
X54437714Y20150143D02*
X54437714Y20102524D01*
X54437714Y20102524D02*
X54390095Y20007286D01*
X54390095Y20007286D02*
X54342476Y19959667D01*
X54342476Y19959667D02*
X54247238Y19912048D01*
X54247238Y19912048D02*
X54056762Y19912048D01*
X54056762Y19912048D02*
X53961524Y19864429D01*
X53961524Y19864429D02*
X53913905Y19816810D01*
X53913905Y19816810D02*
X53866286Y19721572D01*
X53866286Y19721572D02*
X53866286Y19531096D01*
X53866286Y19531096D02*
X53913905Y19435858D01*
X53913905Y19435858D02*
X53961524Y19388239D01*
X53961524Y19388239D02*
X54056762Y19340620D01*
X54056762Y19340620D02*
X54247238Y19340620D01*
X54247238Y19340620D02*
X54342476Y19388239D01*
X54342476Y19388239D02*
X54390095Y19435858D01*
X54390095Y19435858D02*
X54437714Y19531096D01*
X54437714Y19531096D02*
X54437714Y19721572D01*
X54437714Y19721572D02*
X54390095Y19816810D01*
X54390095Y19816810D02*
X54342476Y19864429D01*
X54342476Y19864429D02*
X54247238Y19912048D01*
%TO.C,R7*%
X67916667Y30017596D02*
X67650000Y30398548D01*
X67459524Y30017596D02*
X67459524Y30817596D01*
X67459524Y30817596D02*
X67764286Y30817596D01*
X67764286Y30817596D02*
X67840476Y30779500D01*
X67840476Y30779500D02*
X67878571Y30741405D01*
X67878571Y30741405D02*
X67916667Y30665215D01*
X67916667Y30665215D02*
X67916667Y30550929D01*
X67916667Y30550929D02*
X67878571Y30474739D01*
X67878571Y30474739D02*
X67840476Y30436643D01*
X67840476Y30436643D02*
X67764286Y30398548D01*
X67764286Y30398548D02*
X67459524Y30398548D01*
X68183333Y30817596D02*
X68716667Y30817596D01*
X68716667Y30817596D02*
X68373809Y30017596D01*
%TO.C,R5*%
X48743153Y35842620D02*
X48409820Y36318810D01*
X48171725Y35842620D02*
X48171725Y36842620D01*
X48171725Y36842620D02*
X48552677Y36842620D01*
X48552677Y36842620D02*
X48647915Y36795000D01*
X48647915Y36795000D02*
X48695534Y36747381D01*
X48695534Y36747381D02*
X48743153Y36652143D01*
X48743153Y36652143D02*
X48743153Y36509286D01*
X48743153Y36509286D02*
X48695534Y36414048D01*
X48695534Y36414048D02*
X48647915Y36366429D01*
X48647915Y36366429D02*
X48552677Y36318810D01*
X48552677Y36318810D02*
X48171725Y36318810D01*
X49647915Y36842620D02*
X49171725Y36842620D01*
X49171725Y36842620D02*
X49124106Y36366429D01*
X49124106Y36366429D02*
X49171725Y36414048D01*
X49171725Y36414048D02*
X49266963Y36461667D01*
X49266963Y36461667D02*
X49505058Y36461667D01*
X49505058Y36461667D02*
X49600296Y36414048D01*
X49600296Y36414048D02*
X49647915Y36366429D01*
X49647915Y36366429D02*
X49695534Y36271191D01*
X49695534Y36271191D02*
X49695534Y36033096D01*
X49695534Y36033096D02*
X49647915Y35937858D01*
X49647915Y35937858D02*
X49600296Y35890239D01*
X49600296Y35890239D02*
X49505058Y35842620D01*
X49505058Y35842620D02*
X49266963Y35842620D01*
X49266963Y35842620D02*
X49171725Y35890239D01*
X49171725Y35890239D02*
X49124106Y35937858D01*
%TO.C,R4*%
X41039333Y36093460D02*
X40706000Y36569650D01*
X40467905Y36093460D02*
X40467905Y37093460D01*
X40467905Y37093460D02*
X40848857Y37093460D01*
X40848857Y37093460D02*
X40944095Y37045840D01*
X40944095Y37045840D02*
X40991714Y36998221D01*
X40991714Y36998221D02*
X41039333Y36902983D01*
X41039333Y36902983D02*
X41039333Y36760126D01*
X41039333Y36760126D02*
X40991714Y36664888D01*
X40991714Y36664888D02*
X40944095Y36617269D01*
X40944095Y36617269D02*
X40848857Y36569650D01*
X40848857Y36569650D02*
X40467905Y36569650D01*
X41896476Y36760126D02*
X41896476Y36093460D01*
X41658381Y37141079D02*
X41420286Y36426793D01*
X41420286Y36426793D02*
X42039333Y36426793D01*
%TO.C,R3*%
X38684753Y36093460D02*
X38351420Y36569650D01*
X38113325Y36093460D02*
X38113325Y37093460D01*
X38113325Y37093460D02*
X38494277Y37093460D01*
X38494277Y37093460D02*
X38589515Y37045840D01*
X38589515Y37045840D02*
X38637134Y36998221D01*
X38637134Y36998221D02*
X38684753Y36902983D01*
X38684753Y36902983D02*
X38684753Y36760126D01*
X38684753Y36760126D02*
X38637134Y36664888D01*
X38637134Y36664888D02*
X38589515Y36617269D01*
X38589515Y36617269D02*
X38494277Y36569650D01*
X38494277Y36569650D02*
X38113325Y36569650D01*
X39018087Y37093460D02*
X39637134Y37093460D01*
X39637134Y37093460D02*
X39303801Y36712507D01*
X39303801Y36712507D02*
X39446658Y36712507D01*
X39446658Y36712507D02*
X39541896Y36664888D01*
X39541896Y36664888D02*
X39589515Y36617269D01*
X39589515Y36617269D02*
X39637134Y36522031D01*
X39637134Y36522031D02*
X39637134Y36283936D01*
X39637134Y36283936D02*
X39589515Y36188698D01*
X39589515Y36188698D02*
X39541896Y36141079D01*
X39541896Y36141079D02*
X39446658Y36093460D01*
X39446658Y36093460D02*
X39160944Y36093460D01*
X39160944Y36093460D02*
X39065706Y36141079D01*
X39065706Y36141079D02*
X39018087Y36188698D01*
%TO.C,R2*%
X20528920Y27473334D02*
X20052730Y27140001D01*
X20528920Y26901906D02*
X19528920Y26901906D01*
X19528920Y26901906D02*
X19528920Y27282858D01*
X19528920Y27282858D02*
X19576540Y27378096D01*
X19576540Y27378096D02*
X19624159Y27425715D01*
X19624159Y27425715D02*
X19719397Y27473334D01*
X19719397Y27473334D02*
X19862254Y27473334D01*
X19862254Y27473334D02*
X19957492Y27425715D01*
X19957492Y27425715D02*
X20005111Y27378096D01*
X20005111Y27378096D02*
X20052730Y27282858D01*
X20052730Y27282858D02*
X20052730Y26901906D01*
X19624159Y27854287D02*
X19576540Y27901906D01*
X19576540Y27901906D02*
X19528920Y27997144D01*
X19528920Y27997144D02*
X19528920Y28235239D01*
X19528920Y28235239D02*
X19576540Y28330477D01*
X19576540Y28330477D02*
X19624159Y28378096D01*
X19624159Y28378096D02*
X19719397Y28425715D01*
X19719397Y28425715D02*
X19814635Y28425715D01*
X19814635Y28425715D02*
X19957492Y28378096D01*
X19957492Y28378096D02*
X20528920Y27806668D01*
X20528920Y27806668D02*
X20528920Y28425715D01*
%TO.C,FB1*%
X61313993Y35910343D02*
X61047327Y35910343D01*
X61047327Y35491296D02*
X61047327Y36291296D01*
X61047327Y36291296D02*
X61428279Y36291296D01*
X61999707Y35910343D02*
X62113993Y35872248D01*
X62113993Y35872248D02*
X62152088Y35834153D01*
X62152088Y35834153D02*
X62190184Y35757962D01*
X62190184Y35757962D02*
X62190184Y35643677D01*
X62190184Y35643677D02*
X62152088Y35567486D01*
X62152088Y35567486D02*
X62113993Y35529391D01*
X62113993Y35529391D02*
X62037803Y35491296D01*
X62037803Y35491296D02*
X61733041Y35491296D01*
X61733041Y35491296D02*
X61733041Y36291296D01*
X61733041Y36291296D02*
X61999707Y36291296D01*
X61999707Y36291296D02*
X62075898Y36253200D01*
X62075898Y36253200D02*
X62113993Y36215105D01*
X62113993Y36215105D02*
X62152088Y36138915D01*
X62152088Y36138915D02*
X62152088Y36062724D01*
X62152088Y36062724D02*
X62113993Y35986534D01*
X62113993Y35986534D02*
X62075898Y35948439D01*
X62075898Y35948439D02*
X61999707Y35910343D01*
X61999707Y35910343D02*
X61733041Y35910343D01*
X62952088Y35491296D02*
X62494945Y35491296D01*
X62723517Y35491296D02*
X62723517Y36291296D01*
X62723517Y36291296D02*
X62647326Y36177010D01*
X62647326Y36177010D02*
X62571136Y36100820D01*
X62571136Y36100820D02*
X62494945Y36062724D01*
%TO.C,D3*%
X52541905Y35842620D02*
X52541905Y36842620D01*
X52541905Y36842620D02*
X52780000Y36842620D01*
X52780000Y36842620D02*
X52922857Y36795000D01*
X52922857Y36795000D02*
X53018095Y36699762D01*
X53018095Y36699762D02*
X53065714Y36604524D01*
X53065714Y36604524D02*
X53113333Y36414048D01*
X53113333Y36414048D02*
X53113333Y36271191D01*
X53113333Y36271191D02*
X53065714Y36080715D01*
X53065714Y36080715D02*
X53018095Y35985477D01*
X53018095Y35985477D02*
X52922857Y35890239D01*
X52922857Y35890239D02*
X52780000Y35842620D01*
X52780000Y35842620D02*
X52541905Y35842620D01*
X53446667Y36842620D02*
X54065714Y36842620D01*
X54065714Y36842620D02*
X53732381Y36461667D01*
X53732381Y36461667D02*
X53875238Y36461667D01*
X53875238Y36461667D02*
X53970476Y36414048D01*
X53970476Y36414048D02*
X54018095Y36366429D01*
X54018095Y36366429D02*
X54065714Y36271191D01*
X54065714Y36271191D02*
X54065714Y36033096D01*
X54065714Y36033096D02*
X54018095Y35937858D01*
X54018095Y35937858D02*
X53970476Y35890239D01*
X53970476Y35890239D02*
X53875238Y35842620D01*
X53875238Y35842620D02*
X53589524Y35842620D01*
X53589524Y35842620D02*
X53494286Y35890239D01*
X53494286Y35890239D02*
X53446667Y35937858D01*
%TO.C,D2*%
X34056905Y35842620D02*
X34056905Y36842620D01*
X34056905Y36842620D02*
X34295000Y36842620D01*
X34295000Y36842620D02*
X34437857Y36795000D01*
X34437857Y36795000D02*
X34533095Y36699762D01*
X34533095Y36699762D02*
X34580714Y36604524D01*
X34580714Y36604524D02*
X34628333Y36414048D01*
X34628333Y36414048D02*
X34628333Y36271191D01*
X34628333Y36271191D02*
X34580714Y36080715D01*
X34580714Y36080715D02*
X34533095Y35985477D01*
X34533095Y35985477D02*
X34437857Y35890239D01*
X34437857Y35890239D02*
X34295000Y35842620D01*
X34295000Y35842620D02*
X34056905Y35842620D01*
X35009286Y36747381D02*
X35056905Y36795000D01*
X35056905Y36795000D02*
X35152143Y36842620D01*
X35152143Y36842620D02*
X35390238Y36842620D01*
X35390238Y36842620D02*
X35485476Y36795000D01*
X35485476Y36795000D02*
X35533095Y36747381D01*
X35533095Y36747381D02*
X35580714Y36652143D01*
X35580714Y36652143D02*
X35580714Y36556905D01*
X35580714Y36556905D02*
X35533095Y36414048D01*
X35533095Y36414048D02*
X34961667Y35842620D01*
X34961667Y35842620D02*
X35580714Y35842620D01*
%TO.C,D1*%
X15276905Y35842620D02*
X15276905Y36842620D01*
X15276905Y36842620D02*
X15515000Y36842620D01*
X15515000Y36842620D02*
X15657857Y36795000D01*
X15657857Y36795000D02*
X15753095Y36699762D01*
X15753095Y36699762D02*
X15800714Y36604524D01*
X15800714Y36604524D02*
X15848333Y36414048D01*
X15848333Y36414048D02*
X15848333Y36271191D01*
X15848333Y36271191D02*
X15800714Y36080715D01*
X15800714Y36080715D02*
X15753095Y35985477D01*
X15753095Y35985477D02*
X15657857Y35890239D01*
X15657857Y35890239D02*
X15515000Y35842620D01*
X15515000Y35842620D02*
X15276905Y35842620D01*
X16800714Y35842620D02*
X16229286Y35842620D01*
X16515000Y35842620D02*
X16515000Y36842620D01*
X16515000Y36842620D02*
X16419762Y36699762D01*
X16419762Y36699762D02*
X16324524Y36604524D01*
X16324524Y36604524D02*
X16229286Y36556905D01*
%TO.C,C17*%
X67608094Y21932766D02*
X67569998Y21894671D01*
X67569998Y21894671D02*
X67455713Y21856576D01*
X67455713Y21856576D02*
X67379522Y21856576D01*
X67379522Y21856576D02*
X67265236Y21894671D01*
X67265236Y21894671D02*
X67189046Y21970861D01*
X67189046Y21970861D02*
X67150951Y22047052D01*
X67150951Y22047052D02*
X67112855Y22199433D01*
X67112855Y22199433D02*
X67112855Y22313719D01*
X67112855Y22313719D02*
X67150951Y22466100D01*
X67150951Y22466100D02*
X67189046Y22542290D01*
X67189046Y22542290D02*
X67265236Y22618480D01*
X67265236Y22618480D02*
X67379522Y22656576D01*
X67379522Y22656576D02*
X67455713Y22656576D01*
X67455713Y22656576D02*
X67569998Y22618480D01*
X67569998Y22618480D02*
X67608094Y22580385D01*
X68369998Y21856576D02*
X67912855Y21856576D01*
X68141427Y21856576D02*
X68141427Y22656576D01*
X68141427Y22656576D02*
X68065236Y22542290D01*
X68065236Y22542290D02*
X67989046Y22466100D01*
X67989046Y22466100D02*
X67912855Y22428004D01*
X68636665Y22656576D02*
X69169999Y22656576D01*
X69169999Y22656576D02*
X68827141Y21856576D01*
%TO.C,C16*%
X67608094Y23901266D02*
X67569998Y23863171D01*
X67569998Y23863171D02*
X67455713Y23825076D01*
X67455713Y23825076D02*
X67379522Y23825076D01*
X67379522Y23825076D02*
X67265236Y23863171D01*
X67265236Y23863171D02*
X67189046Y23939361D01*
X67189046Y23939361D02*
X67150951Y24015552D01*
X67150951Y24015552D02*
X67112855Y24167933D01*
X67112855Y24167933D02*
X67112855Y24282219D01*
X67112855Y24282219D02*
X67150951Y24434600D01*
X67150951Y24434600D02*
X67189046Y24510790D01*
X67189046Y24510790D02*
X67265236Y24586980D01*
X67265236Y24586980D02*
X67379522Y24625076D01*
X67379522Y24625076D02*
X67455713Y24625076D01*
X67455713Y24625076D02*
X67569998Y24586980D01*
X67569998Y24586980D02*
X67608094Y24548885D01*
X68369998Y23825076D02*
X67912855Y23825076D01*
X68141427Y23825076D02*
X68141427Y24625076D01*
X68141427Y24625076D02*
X68065236Y24510790D01*
X68065236Y24510790D02*
X67989046Y24434600D01*
X67989046Y24434600D02*
X67912855Y24396504D01*
X69055713Y24625076D02*
X68903332Y24625076D01*
X68903332Y24625076D02*
X68827141Y24586980D01*
X68827141Y24586980D02*
X68789046Y24548885D01*
X68789046Y24548885D02*
X68712856Y24434600D01*
X68712856Y24434600D02*
X68674760Y24282219D01*
X68674760Y24282219D02*
X68674760Y23977457D01*
X68674760Y23977457D02*
X68712856Y23901266D01*
X68712856Y23901266D02*
X68750951Y23863171D01*
X68750951Y23863171D02*
X68827141Y23825076D01*
X68827141Y23825076D02*
X68979522Y23825076D01*
X68979522Y23825076D02*
X69055713Y23863171D01*
X69055713Y23863171D02*
X69093808Y23901266D01*
X69093808Y23901266D02*
X69131903Y23977457D01*
X69131903Y23977457D02*
X69131903Y24167933D01*
X69131903Y24167933D02*
X69093808Y24244123D01*
X69093808Y24244123D02*
X69055713Y24282219D01*
X69055713Y24282219D02*
X68979522Y24320314D01*
X68979522Y24320314D02*
X68827141Y24320314D01*
X68827141Y24320314D02*
X68750951Y24282219D01*
X68750951Y24282219D02*
X68712856Y24244123D01*
X68712856Y24244123D02*
X68674760Y24167933D01*
%TO.C,C15*%
X67633494Y31630486D02*
X67595398Y31592391D01*
X67595398Y31592391D02*
X67481113Y31554296D01*
X67481113Y31554296D02*
X67404922Y31554296D01*
X67404922Y31554296D02*
X67290636Y31592391D01*
X67290636Y31592391D02*
X67214446Y31668581D01*
X67214446Y31668581D02*
X67176351Y31744772D01*
X67176351Y31744772D02*
X67138255Y31897153D01*
X67138255Y31897153D02*
X67138255Y32011439D01*
X67138255Y32011439D02*
X67176351Y32163820D01*
X67176351Y32163820D02*
X67214446Y32240010D01*
X67214446Y32240010D02*
X67290636Y32316200D01*
X67290636Y32316200D02*
X67404922Y32354296D01*
X67404922Y32354296D02*
X67481113Y32354296D01*
X67481113Y32354296D02*
X67595398Y32316200D01*
X67595398Y32316200D02*
X67633494Y32278105D01*
X68395398Y31554296D02*
X67938255Y31554296D01*
X68166827Y31554296D02*
X68166827Y32354296D01*
X68166827Y32354296D02*
X68090636Y32240010D01*
X68090636Y32240010D02*
X68014446Y32163820D01*
X68014446Y32163820D02*
X67938255Y32125724D01*
X69119208Y32354296D02*
X68738256Y32354296D01*
X68738256Y32354296D02*
X68700160Y31973343D01*
X68700160Y31973343D02*
X68738256Y32011439D01*
X68738256Y32011439D02*
X68814446Y32049534D01*
X68814446Y32049534D02*
X69004922Y32049534D01*
X69004922Y32049534D02*
X69081113Y32011439D01*
X69081113Y32011439D02*
X69119208Y31973343D01*
X69119208Y31973343D02*
X69157303Y31897153D01*
X69157303Y31897153D02*
X69157303Y31706677D01*
X69157303Y31706677D02*
X69119208Y31630486D01*
X69119208Y31630486D02*
X69081113Y31592391D01*
X69081113Y31592391D02*
X69004922Y31554296D01*
X69004922Y31554296D02*
X68814446Y31554296D01*
X68814446Y31554296D02*
X68738256Y31592391D01*
X68738256Y31592391D02*
X68700160Y31630486D01*
%TO.C,C14*%
X67661434Y33616766D02*
X67623338Y33578671D01*
X67623338Y33578671D02*
X67509053Y33540576D01*
X67509053Y33540576D02*
X67432862Y33540576D01*
X67432862Y33540576D02*
X67318576Y33578671D01*
X67318576Y33578671D02*
X67242386Y33654861D01*
X67242386Y33654861D02*
X67204291Y33731052D01*
X67204291Y33731052D02*
X67166195Y33883433D01*
X67166195Y33883433D02*
X67166195Y33997719D01*
X67166195Y33997719D02*
X67204291Y34150100D01*
X67204291Y34150100D02*
X67242386Y34226290D01*
X67242386Y34226290D02*
X67318576Y34302480D01*
X67318576Y34302480D02*
X67432862Y34340576D01*
X67432862Y34340576D02*
X67509053Y34340576D01*
X67509053Y34340576D02*
X67623338Y34302480D01*
X67623338Y34302480D02*
X67661434Y34264385D01*
X68423338Y33540576D02*
X67966195Y33540576D01*
X68194767Y33540576D02*
X68194767Y34340576D01*
X68194767Y34340576D02*
X68118576Y34226290D01*
X68118576Y34226290D02*
X68042386Y34150100D01*
X68042386Y34150100D02*
X67966195Y34112004D01*
X69109053Y34073909D02*
X69109053Y33540576D01*
X68918577Y34378671D02*
X68728100Y33807242D01*
X68728100Y33807242D02*
X69223339Y33807242D01*
%TO.C,C13*%
X59867142Y21465858D02*
X59819523Y21418239D01*
X59819523Y21418239D02*
X59676666Y21370620D01*
X59676666Y21370620D02*
X59581428Y21370620D01*
X59581428Y21370620D02*
X59438571Y21418239D01*
X59438571Y21418239D02*
X59343333Y21513477D01*
X59343333Y21513477D02*
X59295714Y21608715D01*
X59295714Y21608715D02*
X59248095Y21799191D01*
X59248095Y21799191D02*
X59248095Y21942048D01*
X59248095Y21942048D02*
X59295714Y22132524D01*
X59295714Y22132524D02*
X59343333Y22227762D01*
X59343333Y22227762D02*
X59438571Y22323000D01*
X59438571Y22323000D02*
X59581428Y22370620D01*
X59581428Y22370620D02*
X59676666Y22370620D01*
X59676666Y22370620D02*
X59819523Y22323000D01*
X59819523Y22323000D02*
X59867142Y22275381D01*
X60819523Y21370620D02*
X60248095Y21370620D01*
X60533809Y21370620D02*
X60533809Y22370620D01*
X60533809Y22370620D02*
X60438571Y22227762D01*
X60438571Y22227762D02*
X60343333Y22132524D01*
X60343333Y22132524D02*
X60248095Y22084905D01*
X61152857Y22370620D02*
X61771904Y22370620D01*
X61771904Y22370620D02*
X61438571Y21989667D01*
X61438571Y21989667D02*
X61581428Y21989667D01*
X61581428Y21989667D02*
X61676666Y21942048D01*
X61676666Y21942048D02*
X61724285Y21894429D01*
X61724285Y21894429D02*
X61771904Y21799191D01*
X61771904Y21799191D02*
X61771904Y21561096D01*
X61771904Y21561096D02*
X61724285Y21465858D01*
X61724285Y21465858D02*
X61676666Y21418239D01*
X61676666Y21418239D02*
X61581428Y21370620D01*
X61581428Y21370620D02*
X61295714Y21370620D01*
X61295714Y21370620D02*
X61200476Y21418239D01*
X61200476Y21418239D02*
X61152857Y21465858D01*
%TO.C,C12*%
X67177262Y8675418D02*
X67129643Y8627799D01*
X67129643Y8627799D02*
X66986786Y8580180D01*
X66986786Y8580180D02*
X66891548Y8580180D01*
X66891548Y8580180D02*
X66748691Y8627799D01*
X66748691Y8627799D02*
X66653453Y8723037D01*
X66653453Y8723037D02*
X66605834Y8818275D01*
X66605834Y8818275D02*
X66558215Y9008751D01*
X66558215Y9008751D02*
X66558215Y9151608D01*
X66558215Y9151608D02*
X66605834Y9342084D01*
X66605834Y9342084D02*
X66653453Y9437322D01*
X66653453Y9437322D02*
X66748691Y9532560D01*
X66748691Y9532560D02*
X66891548Y9580180D01*
X66891548Y9580180D02*
X66986786Y9580180D01*
X66986786Y9580180D02*
X67129643Y9532560D01*
X67129643Y9532560D02*
X67177262Y9484941D01*
X68129643Y8580180D02*
X67558215Y8580180D01*
X67843929Y8580180D02*
X67843929Y9580180D01*
X67843929Y9580180D02*
X67748691Y9437322D01*
X67748691Y9437322D02*
X67653453Y9342084D01*
X67653453Y9342084D02*
X67558215Y9294465D01*
X68510596Y9484941D02*
X68558215Y9532560D01*
X68558215Y9532560D02*
X68653453Y9580180D01*
X68653453Y9580180D02*
X68891548Y9580180D01*
X68891548Y9580180D02*
X68986786Y9532560D01*
X68986786Y9532560D02*
X69034405Y9484941D01*
X69034405Y9484941D02*
X69082024Y9389703D01*
X69082024Y9389703D02*
X69082024Y9294465D01*
X69082024Y9294465D02*
X69034405Y9151608D01*
X69034405Y9151608D02*
X68462977Y8580180D01*
X68462977Y8580180D02*
X69082024Y8580180D01*
%TO.C,C11*%
X67595394Y19822026D02*
X67557298Y19783931D01*
X67557298Y19783931D02*
X67443013Y19745836D01*
X67443013Y19745836D02*
X67366822Y19745836D01*
X67366822Y19745836D02*
X67252536Y19783931D01*
X67252536Y19783931D02*
X67176346Y19860121D01*
X67176346Y19860121D02*
X67138251Y19936312D01*
X67138251Y19936312D02*
X67100155Y20088693D01*
X67100155Y20088693D02*
X67100155Y20202979D01*
X67100155Y20202979D02*
X67138251Y20355360D01*
X67138251Y20355360D02*
X67176346Y20431550D01*
X67176346Y20431550D02*
X67252536Y20507740D01*
X67252536Y20507740D02*
X67366822Y20545836D01*
X67366822Y20545836D02*
X67443013Y20545836D01*
X67443013Y20545836D02*
X67557298Y20507740D01*
X67557298Y20507740D02*
X67595394Y20469645D01*
X68357298Y19745836D02*
X67900155Y19745836D01*
X68128727Y19745836D02*
X68128727Y20545836D01*
X68128727Y20545836D02*
X68052536Y20431550D01*
X68052536Y20431550D02*
X67976346Y20355360D01*
X67976346Y20355360D02*
X67900155Y20317264D01*
X69119203Y19745836D02*
X68662060Y19745836D01*
X68890632Y19745836D02*
X68890632Y20545836D01*
X68890632Y20545836D02*
X68814441Y20431550D01*
X68814441Y20431550D02*
X68738251Y20355360D01*
X68738251Y20355360D02*
X68662060Y20317264D01*
%TO.C,C10*%
X28412142Y20227143D02*
X28459761Y20179524D01*
X28459761Y20179524D02*
X28507380Y20036667D01*
X28507380Y20036667D02*
X28507380Y19941429D01*
X28507380Y19941429D02*
X28459761Y19798572D01*
X28459761Y19798572D02*
X28364523Y19703334D01*
X28364523Y19703334D02*
X28269285Y19655715D01*
X28269285Y19655715D02*
X28078809Y19608096D01*
X28078809Y19608096D02*
X27935952Y19608096D01*
X27935952Y19608096D02*
X27745476Y19655715D01*
X27745476Y19655715D02*
X27650238Y19703334D01*
X27650238Y19703334D02*
X27555000Y19798572D01*
X27555000Y19798572D02*
X27507380Y19941429D01*
X27507380Y19941429D02*
X27507380Y20036667D01*
X27507380Y20036667D02*
X27555000Y20179524D01*
X27555000Y20179524D02*
X27602619Y20227143D01*
X28507380Y21179524D02*
X28507380Y20608096D01*
X28507380Y20893810D02*
X27507380Y20893810D01*
X27507380Y20893810D02*
X27650238Y20798572D01*
X27650238Y20798572D02*
X27745476Y20703334D01*
X27745476Y20703334D02*
X27793095Y20608096D01*
X27507380Y21798572D02*
X27507380Y21893810D01*
X27507380Y21893810D02*
X27555000Y21989048D01*
X27555000Y21989048D02*
X27602619Y22036667D01*
X27602619Y22036667D02*
X27697857Y22084286D01*
X27697857Y22084286D02*
X27888333Y22131905D01*
X27888333Y22131905D02*
X28126428Y22131905D01*
X28126428Y22131905D02*
X28316904Y22084286D01*
X28316904Y22084286D02*
X28412142Y22036667D01*
X28412142Y22036667D02*
X28459761Y21989048D01*
X28459761Y21989048D02*
X28507380Y21893810D01*
X28507380Y21893810D02*
X28507380Y21798572D01*
X28507380Y21798572D02*
X28459761Y21703334D01*
X28459761Y21703334D02*
X28412142Y21655715D01*
X28412142Y21655715D02*
X28316904Y21608096D01*
X28316904Y21608096D02*
X28126428Y21560477D01*
X28126428Y21560477D02*
X27888333Y21560477D01*
X27888333Y21560477D02*
X27697857Y21608096D01*
X27697857Y21608096D02*
X27602619Y21655715D01*
X27602619Y21655715D02*
X27555000Y21703334D01*
X27555000Y21703334D02*
X27507380Y21798572D01*
%TO.C,C9*%
X26431182Y27432114D02*
X26478801Y27384495D01*
X26478801Y27384495D02*
X26526420Y27241638D01*
X26526420Y27241638D02*
X26526420Y27146400D01*
X26526420Y27146400D02*
X26478801Y27003543D01*
X26478801Y27003543D02*
X26383563Y26908305D01*
X26383563Y26908305D02*
X26288325Y26860686D01*
X26288325Y26860686D02*
X26097849Y26813067D01*
X26097849Y26813067D02*
X25954992Y26813067D01*
X25954992Y26813067D02*
X25764516Y26860686D01*
X25764516Y26860686D02*
X25669278Y26908305D01*
X25669278Y26908305D02*
X25574040Y27003543D01*
X25574040Y27003543D02*
X25526420Y27146400D01*
X25526420Y27146400D02*
X25526420Y27241638D01*
X25526420Y27241638D02*
X25574040Y27384495D01*
X25574040Y27384495D02*
X25621659Y27432114D01*
X26526420Y27908305D02*
X26526420Y28098781D01*
X26526420Y28098781D02*
X26478801Y28194019D01*
X26478801Y28194019D02*
X26431182Y28241638D01*
X26431182Y28241638D02*
X26288325Y28336876D01*
X26288325Y28336876D02*
X26097849Y28384495D01*
X26097849Y28384495D02*
X25716897Y28384495D01*
X25716897Y28384495D02*
X25621659Y28336876D01*
X25621659Y28336876D02*
X25574040Y28289257D01*
X25574040Y28289257D02*
X25526420Y28194019D01*
X25526420Y28194019D02*
X25526420Y28003543D01*
X25526420Y28003543D02*
X25574040Y27908305D01*
X25574040Y27908305D02*
X25621659Y27860686D01*
X25621659Y27860686D02*
X25716897Y27813067D01*
X25716897Y27813067D02*
X25954992Y27813067D01*
X25954992Y27813067D02*
X26050230Y27860686D01*
X26050230Y27860686D02*
X26097849Y27908305D01*
X26097849Y27908305D02*
X26145468Y28003543D01*
X26145468Y28003543D02*
X26145468Y28194019D01*
X26145468Y28194019D02*
X26097849Y28289257D01*
X26097849Y28289257D02*
X26050230Y28336876D01*
X26050230Y28336876D02*
X25954992Y28384495D01*
%TO.C,C8*%
X31646413Y32399018D02*
X31598794Y32351399D01*
X31598794Y32351399D02*
X31455937Y32303780D01*
X31455937Y32303780D02*
X31360699Y32303780D01*
X31360699Y32303780D02*
X31217842Y32351399D01*
X31217842Y32351399D02*
X31122604Y32446637D01*
X31122604Y32446637D02*
X31074985Y32541875D01*
X31074985Y32541875D02*
X31027366Y32732351D01*
X31027366Y32732351D02*
X31027366Y32875208D01*
X31027366Y32875208D02*
X31074985Y33065684D01*
X31074985Y33065684D02*
X31122604Y33160922D01*
X31122604Y33160922D02*
X31217842Y33256160D01*
X31217842Y33256160D02*
X31360699Y33303780D01*
X31360699Y33303780D02*
X31455937Y33303780D01*
X31455937Y33303780D02*
X31598794Y33256160D01*
X31598794Y33256160D02*
X31646413Y33208541D01*
X32217842Y32875208D02*
X32122604Y32922827D01*
X32122604Y32922827D02*
X32074985Y32970446D01*
X32074985Y32970446D02*
X32027366Y33065684D01*
X32027366Y33065684D02*
X32027366Y33113303D01*
X32027366Y33113303D02*
X32074985Y33208541D01*
X32074985Y33208541D02*
X32122604Y33256160D01*
X32122604Y33256160D02*
X32217842Y33303780D01*
X32217842Y33303780D02*
X32408318Y33303780D01*
X32408318Y33303780D02*
X32503556Y33256160D01*
X32503556Y33256160D02*
X32551175Y33208541D01*
X32551175Y33208541D02*
X32598794Y33113303D01*
X32598794Y33113303D02*
X32598794Y33065684D01*
X32598794Y33065684D02*
X32551175Y32970446D01*
X32551175Y32970446D02*
X32503556Y32922827D01*
X32503556Y32922827D02*
X32408318Y32875208D01*
X32408318Y32875208D02*
X32217842Y32875208D01*
X32217842Y32875208D02*
X32122604Y32827589D01*
X32122604Y32827589D02*
X32074985Y32779970D01*
X32074985Y32779970D02*
X32027366Y32684732D01*
X32027366Y32684732D02*
X32027366Y32494256D01*
X32027366Y32494256D02*
X32074985Y32399018D01*
X32074985Y32399018D02*
X32122604Y32351399D01*
X32122604Y32351399D02*
X32217842Y32303780D01*
X32217842Y32303780D02*
X32408318Y32303780D01*
X32408318Y32303780D02*
X32503556Y32351399D01*
X32503556Y32351399D02*
X32551175Y32399018D01*
X32551175Y32399018D02*
X32598794Y32494256D01*
X32598794Y32494256D02*
X32598794Y32684732D01*
X32598794Y32684732D02*
X32551175Y32779970D01*
X32551175Y32779970D02*
X32503556Y32827589D01*
X32503556Y32827589D02*
X32408318Y32875208D01*
%TO.C,C7*%
X40681193Y13514118D02*
X40633574Y13466499D01*
X40633574Y13466499D02*
X40490717Y13418880D01*
X40490717Y13418880D02*
X40395479Y13418880D01*
X40395479Y13418880D02*
X40252622Y13466499D01*
X40252622Y13466499D02*
X40157384Y13561737D01*
X40157384Y13561737D02*
X40109765Y13656975D01*
X40109765Y13656975D02*
X40062146Y13847451D01*
X40062146Y13847451D02*
X40062146Y13990308D01*
X40062146Y13990308D02*
X40109765Y14180784D01*
X40109765Y14180784D02*
X40157384Y14276022D01*
X40157384Y14276022D02*
X40252622Y14371260D01*
X40252622Y14371260D02*
X40395479Y14418880D01*
X40395479Y14418880D02*
X40490717Y14418880D01*
X40490717Y14418880D02*
X40633574Y14371260D01*
X40633574Y14371260D02*
X40681193Y14323641D01*
X41014527Y14418880D02*
X41681193Y14418880D01*
X41681193Y14418880D02*
X41252622Y13418880D01*
%TO.C,C6*%
X31069833Y18548398D02*
X31022214Y18500779D01*
X31022214Y18500779D02*
X30879357Y18453160D01*
X30879357Y18453160D02*
X30784119Y18453160D01*
X30784119Y18453160D02*
X30641262Y18500779D01*
X30641262Y18500779D02*
X30546024Y18596017D01*
X30546024Y18596017D02*
X30498405Y18691255D01*
X30498405Y18691255D02*
X30450786Y18881731D01*
X30450786Y18881731D02*
X30450786Y19024588D01*
X30450786Y19024588D02*
X30498405Y19215064D01*
X30498405Y19215064D02*
X30546024Y19310302D01*
X30546024Y19310302D02*
X30641262Y19405540D01*
X30641262Y19405540D02*
X30784119Y19453160D01*
X30784119Y19453160D02*
X30879357Y19453160D01*
X30879357Y19453160D02*
X31022214Y19405540D01*
X31022214Y19405540D02*
X31069833Y19357921D01*
X31926976Y19453160D02*
X31736500Y19453160D01*
X31736500Y19453160D02*
X31641262Y19405540D01*
X31641262Y19405540D02*
X31593643Y19357921D01*
X31593643Y19357921D02*
X31498405Y19215064D01*
X31498405Y19215064D02*
X31450786Y19024588D01*
X31450786Y19024588D02*
X31450786Y18643636D01*
X31450786Y18643636D02*
X31498405Y18548398D01*
X31498405Y18548398D02*
X31546024Y18500779D01*
X31546024Y18500779D02*
X31641262Y18453160D01*
X31641262Y18453160D02*
X31831738Y18453160D01*
X31831738Y18453160D02*
X31926976Y18500779D01*
X31926976Y18500779D02*
X31974595Y18548398D01*
X31974595Y18548398D02*
X32022214Y18643636D01*
X32022214Y18643636D02*
X32022214Y18881731D01*
X32022214Y18881731D02*
X31974595Y18976969D01*
X31974595Y18976969D02*
X31926976Y19024588D01*
X31926976Y19024588D02*
X31831738Y19072207D01*
X31831738Y19072207D02*
X31641262Y19072207D01*
X31641262Y19072207D02*
X31546024Y19024588D01*
X31546024Y19024588D02*
X31498405Y18976969D01*
X31498405Y18976969D02*
X31450786Y18881731D01*
%TO.C,C5*%
X33348213Y18556018D02*
X33300594Y18508399D01*
X33300594Y18508399D02*
X33157737Y18460780D01*
X33157737Y18460780D02*
X33062499Y18460780D01*
X33062499Y18460780D02*
X32919642Y18508399D01*
X32919642Y18508399D02*
X32824404Y18603637D01*
X32824404Y18603637D02*
X32776785Y18698875D01*
X32776785Y18698875D02*
X32729166Y18889351D01*
X32729166Y18889351D02*
X32729166Y19032208D01*
X32729166Y19032208D02*
X32776785Y19222684D01*
X32776785Y19222684D02*
X32824404Y19317922D01*
X32824404Y19317922D02*
X32919642Y19413160D01*
X32919642Y19413160D02*
X33062499Y19460780D01*
X33062499Y19460780D02*
X33157737Y19460780D01*
X33157737Y19460780D02*
X33300594Y19413160D01*
X33300594Y19413160D02*
X33348213Y19365541D01*
X34252975Y19460780D02*
X33776785Y19460780D01*
X33776785Y19460780D02*
X33729166Y18984589D01*
X33729166Y18984589D02*
X33776785Y19032208D01*
X33776785Y19032208D02*
X33872023Y19079827D01*
X33872023Y19079827D02*
X34110118Y19079827D01*
X34110118Y19079827D02*
X34205356Y19032208D01*
X34205356Y19032208D02*
X34252975Y18984589D01*
X34252975Y18984589D02*
X34300594Y18889351D01*
X34300594Y18889351D02*
X34300594Y18651256D01*
X34300594Y18651256D02*
X34252975Y18556018D01*
X34252975Y18556018D02*
X34205356Y18508399D01*
X34205356Y18508399D02*
X34110118Y18460780D01*
X34110118Y18460780D02*
X33872023Y18460780D01*
X33872023Y18460780D02*
X33776785Y18508399D01*
X33776785Y18508399D02*
X33729166Y18556018D01*
%TO.C,C4*%
X40671033Y15424198D02*
X40623414Y15376579D01*
X40623414Y15376579D02*
X40480557Y15328960D01*
X40480557Y15328960D02*
X40385319Y15328960D01*
X40385319Y15328960D02*
X40242462Y15376579D01*
X40242462Y15376579D02*
X40147224Y15471817D01*
X40147224Y15471817D02*
X40099605Y15567055D01*
X40099605Y15567055D02*
X40051986Y15757531D01*
X40051986Y15757531D02*
X40051986Y15900388D01*
X40051986Y15900388D02*
X40099605Y16090864D01*
X40099605Y16090864D02*
X40147224Y16186102D01*
X40147224Y16186102D02*
X40242462Y16281340D01*
X40242462Y16281340D02*
X40385319Y16328960D01*
X40385319Y16328960D02*
X40480557Y16328960D01*
X40480557Y16328960D02*
X40623414Y16281340D01*
X40623414Y16281340D02*
X40671033Y16233721D01*
X41528176Y15995626D02*
X41528176Y15328960D01*
X41290081Y16376579D02*
X41051986Y15662293D01*
X41051986Y15662293D02*
X41671033Y15662293D01*
%TO.C,C3*%
X43633333Y15404198D02*
X43585714Y15356579D01*
X43585714Y15356579D02*
X43442857Y15308960D01*
X43442857Y15308960D02*
X43347619Y15308960D01*
X43347619Y15308960D02*
X43204762Y15356579D01*
X43204762Y15356579D02*
X43109524Y15451817D01*
X43109524Y15451817D02*
X43061905Y15547055D01*
X43061905Y15547055D02*
X43014286Y15737531D01*
X43014286Y15737531D02*
X43014286Y15880388D01*
X43014286Y15880388D02*
X43061905Y16070864D01*
X43061905Y16070864D02*
X43109524Y16166102D01*
X43109524Y16166102D02*
X43204762Y16261340D01*
X43204762Y16261340D02*
X43347619Y16308960D01*
X43347619Y16308960D02*
X43442857Y16308960D01*
X43442857Y16308960D02*
X43585714Y16261340D01*
X43585714Y16261340D02*
X43633333Y16213721D01*
X43966667Y16308960D02*
X44585714Y16308960D01*
X44585714Y16308960D02*
X44252381Y15928007D01*
X44252381Y15928007D02*
X44395238Y15928007D01*
X44395238Y15928007D02*
X44490476Y15880388D01*
X44490476Y15880388D02*
X44538095Y15832769D01*
X44538095Y15832769D02*
X44585714Y15737531D01*
X44585714Y15737531D02*
X44585714Y15499436D01*
X44585714Y15499436D02*
X44538095Y15404198D01*
X44538095Y15404198D02*
X44490476Y15356579D01*
X44490476Y15356579D02*
X44395238Y15308960D01*
X44395238Y15308960D02*
X44109524Y15308960D01*
X44109524Y15308960D02*
X44014286Y15356579D01*
X44014286Y15356579D02*
X43966667Y15404198D01*
%TO.C,C2*%
X48044967Y27853506D02*
X48006871Y27815411D01*
X48006871Y27815411D02*
X47892586Y27777316D01*
X47892586Y27777316D02*
X47816395Y27777316D01*
X47816395Y27777316D02*
X47702109Y27815411D01*
X47702109Y27815411D02*
X47625919Y27891601D01*
X47625919Y27891601D02*
X47587824Y27967792D01*
X47587824Y27967792D02*
X47549728Y28120173D01*
X47549728Y28120173D02*
X47549728Y28234459D01*
X47549728Y28234459D02*
X47587824Y28386840D01*
X47587824Y28386840D02*
X47625919Y28463030D01*
X47625919Y28463030D02*
X47702109Y28539220D01*
X47702109Y28539220D02*
X47816395Y28577316D01*
X47816395Y28577316D02*
X47892586Y28577316D01*
X47892586Y28577316D02*
X48006871Y28539220D01*
X48006871Y28539220D02*
X48044967Y28501125D01*
X48349728Y28501125D02*
X48387824Y28539220D01*
X48387824Y28539220D02*
X48464014Y28577316D01*
X48464014Y28577316D02*
X48654490Y28577316D01*
X48654490Y28577316D02*
X48730681Y28539220D01*
X48730681Y28539220D02*
X48768776Y28501125D01*
X48768776Y28501125D02*
X48806871Y28424935D01*
X48806871Y28424935D02*
X48806871Y28348744D01*
X48806871Y28348744D02*
X48768776Y28234459D01*
X48768776Y28234459D02*
X48311633Y27777316D01*
X48311633Y27777316D02*
X48806871Y27777316D01*
%TO.C,C1*%
X37163333Y32317858D02*
X37115714Y32270239D01*
X37115714Y32270239D02*
X36972857Y32222620D01*
X36972857Y32222620D02*
X36877619Y32222620D01*
X36877619Y32222620D02*
X36734762Y32270239D01*
X36734762Y32270239D02*
X36639524Y32365477D01*
X36639524Y32365477D02*
X36591905Y32460715D01*
X36591905Y32460715D02*
X36544286Y32651191D01*
X36544286Y32651191D02*
X36544286Y32794048D01*
X36544286Y32794048D02*
X36591905Y32984524D01*
X36591905Y32984524D02*
X36639524Y33079762D01*
X36639524Y33079762D02*
X36734762Y33175000D01*
X36734762Y33175000D02*
X36877619Y33222620D01*
X36877619Y33222620D02*
X36972857Y33222620D01*
X36972857Y33222620D02*
X37115714Y33175000D01*
X37115714Y33175000D02*
X37163333Y33127381D01*
X38115714Y32222620D02*
X37544286Y32222620D01*
X37830000Y32222620D02*
X37830000Y33222620D01*
X37830000Y33222620D02*
X37734762Y33079762D01*
X37734762Y33079762D02*
X37639524Y32984524D01*
X37639524Y32984524D02*
X37544286Y32936905D01*
D11*
%TO.C,Y1*%
X34510000Y29850000D02*
X29110000Y29850000D01*
X34510000Y25350000D02*
X34510000Y29850000D01*
%TO.C,J5*%
X60850000Y34625000D02*
X56970000Y34625000D01*
X62020000Y32655000D02*
X62020000Y30155000D01*
X55800000Y32655000D02*
X55800000Y30155000D01*
X62020000Y30155000D02*
X60970000Y30155000D01*
X55800000Y30155000D02*
X56850000Y30155000D01*
X60970000Y30155000D02*
X60970000Y29165000D01*
%TO.C,U4*%
X57272500Y27030000D02*
X58072500Y27030000D01*
X57272500Y23910000D02*
X56472500Y23910000D01*
X57272500Y27030000D02*
X56472500Y27030000D01*
X57272500Y23910000D02*
X59072500Y23910000D01*
%TO.C,R18*%
X12113748Y19155000D02*
X12636252Y19155000D01*
X12113748Y20575000D02*
X12636252Y20575000D01*
%TO.C,R17*%
X23986252Y18500000D02*
X23463748Y18500000D01*
X23986252Y17080000D02*
X23463748Y17080000D01*
%TO.C,Q3*%
X7785000Y18410000D02*
X6325000Y18410000D01*
X7785000Y21570000D02*
X5625000Y21570000D01*
X7785000Y21570000D02*
X7785000Y20640000D01*
X7785000Y18410000D02*
X7785000Y19340000D01*
%TO.C,Q2*%
X25305000Y21800000D02*
X25305000Y20340000D01*
X22145000Y21800000D02*
X22145000Y19640000D01*
X22145000Y21800000D02*
X23075000Y21800000D01*
X25305000Y21800000D02*
X24375000Y21800000D01*
D10*
%TO.C,SW1*%
X19335752Y21115000D02*
G75*
G03*
X19335752Y21115000I-1135752J0D01*
G01*
X15600000Y22509750D02*
X16805250Y23715000D01*
X15600000Y19720250D02*
X16805250Y18515000D01*
X20800000Y22509750D02*
X19594750Y23715000D01*
X20800000Y19720250D02*
X19594750Y18515000D01*
X16805250Y23715000D02*
X19594750Y23715000D01*
X15600000Y19720250D02*
X15600000Y22509750D01*
X19594750Y18515000D02*
X16805250Y18515000D01*
X20800000Y22509750D02*
X20800000Y19720250D01*
D11*
%TO.C,J4*%
X52561660Y30593420D02*
X52561660Y32813420D01*
X52561660Y30593420D02*
X52496660Y30593420D01*
X52561660Y32813420D02*
X52496660Y32813420D01*
X52561660Y30593420D02*
X52561660Y31139949D01*
X52561660Y32266891D02*
X52561660Y32813420D01*
X51801660Y30593420D02*
X51041660Y30593420D01*
X51041660Y30593420D02*
X51041660Y31703420D01*
%TO.C,R16*%
X16020140Y27378748D02*
X16020140Y27901252D01*
X14600140Y27378748D02*
X14600140Y27901252D01*
%TO.C,Q1*%
X13626800Y24099200D02*
X13626800Y22639200D01*
X10466800Y24099200D02*
X10466800Y21939200D01*
X10466800Y24099200D02*
X11396800Y24099200D01*
X13626800Y24099200D02*
X12696800Y24099200D01*
%TO.C,C20*%
X17806890Y27901252D02*
X17806890Y27378748D01*
X19226890Y27901252D02*
X19226890Y27378748D01*
D10*
%TO.C,U5*%
X8646240Y15619280D02*
X7246240Y15619280D01*
X8646240Y10519280D02*
X12796240Y10519280D01*
X8646240Y15669280D02*
X12796240Y15669280D01*
X8646240Y10519280D02*
X8646240Y10664280D01*
X12796240Y10519280D02*
X12796240Y10664280D01*
X12796240Y15669280D02*
X12796240Y15524280D01*
X8646240Y15669280D02*
X8646240Y15619280D01*
D11*
%TO.C,R15*%
X22795840Y14633452D02*
X22795840Y14110948D01*
X24215840Y14633452D02*
X24215840Y14110948D01*
%TO.C,R14*%
X19651320Y14633452D02*
X19651320Y14110948D01*
X21071320Y14633452D02*
X21071320Y14110948D01*
%TO.C,R13*%
X16506800Y14633452D02*
X16506800Y14110948D01*
X17926800Y14633452D02*
X17926800Y14110948D01*
%TO.C,C19*%
X12152332Y17904640D02*
X11629828Y17904640D01*
X12152332Y16484640D02*
X11629828Y16484640D01*
%TO.C,R12*%
X51542600Y12006088D02*
X51542600Y12528592D01*
X50122600Y12006088D02*
X50122600Y12528592D01*
%TO.C,R11*%
X32251160Y13427752D02*
X32251160Y12905248D01*
X33671160Y13427752D02*
X33671160Y12905248D01*
%TO.C,R10*%
X55649780Y11952748D02*
X55649780Y12475252D01*
X54229780Y11952748D02*
X54229780Y12475252D01*
%TO.C,R9*%
X17693588Y30406680D02*
X18216092Y30406680D01*
X17693588Y31826680D02*
X18216092Y31826680D01*
%TO.C,R6*%
X44924192Y35270000D02*
X44401688Y35270000D01*
X44924192Y33850000D02*
X44401688Y33850000D01*
%TO.C,C18*%
X45796148Y12888300D02*
X46318652Y12888300D01*
X45796148Y14308300D02*
X46318652Y14308300D01*
%TO.C,J6*%
X42968220Y30593420D02*
X42968220Y31703420D01*
X43728220Y30593420D02*
X42968220Y30593420D01*
X44488220Y32266891D02*
X44488220Y32813420D01*
X44488220Y30593420D02*
X44488220Y31139949D01*
X44488220Y32813420D02*
X50773220Y32813420D01*
X44488220Y30593420D02*
X50773220Y30593420D01*
X50773220Y32010950D02*
X50773220Y32813420D01*
X50773220Y30593420D02*
X50773220Y31395890D01*
D10*
%TO.C,U2*%
X36745000Y27505000D02*
X35720000Y27505000D01*
X47095000Y28505000D02*
X46020000Y28505000D01*
X47095000Y18155000D02*
X46020000Y18155000D01*
X36745000Y18155000D02*
X37820000Y18155000D01*
X36745000Y28505000D02*
X37820000Y28505000D01*
X36745000Y18155000D02*
X36745000Y19230000D01*
X47095000Y18155000D02*
X47095000Y19230000D01*
X47095000Y28505000D02*
X47095000Y27430000D01*
X36745000Y28505000D02*
X36745000Y27505000D01*
D11*
%TO.C,D6*%
X49430000Y23260000D02*
X52290000Y23260000D01*
X49430000Y25180000D02*
X49430000Y23260000D01*
X52290000Y25180000D02*
X49430000Y25180000D01*
%TO.C,D5*%
X25015000Y23260000D02*
X27875000Y23260000D01*
X25015000Y25180000D02*
X25015000Y23260000D01*
X27875000Y25180000D02*
X25015000Y25180000D01*
%TO.C,D4*%
X4240000Y22360000D02*
X4240000Y25220000D01*
X2320000Y22360000D02*
X4240000Y22360000D01*
X2320000Y25220000D02*
X2320000Y22360000D01*
%TO.C,U3*%
X66692000Y27062000D02*
X66692000Y30012000D01*
X63472000Y28862000D02*
X63472000Y27062000D01*
%TO.C,U1*%
X68420000Y11598000D02*
X62410000Y11598000D01*
X66170000Y18418000D02*
X62410000Y18418000D01*
X62410000Y11598000D02*
X62410000Y12858000D01*
X62410000Y18418000D02*
X62410000Y17158000D01*
%TO.C,R8*%
X53913252Y22068000D02*
X53390748Y22068000D01*
X53913252Y20648000D02*
X53390748Y20648000D01*
%TO.C,R7*%
X68840000Y27700748D02*
X68840000Y28223252D01*
X67420000Y27700748D02*
X67420000Y28223252D01*
%TO.C,R5*%
X49135512Y35270000D02*
X48613008Y35270000D01*
X49135512Y33850000D02*
X48613008Y33850000D01*
%TO.C,R4*%
X40437580Y34433552D02*
X40437580Y33911048D01*
X41857580Y34433552D02*
X41857580Y33911048D01*
%TO.C,R3*%
X38176980Y34433552D02*
X38176980Y33911048D01*
X39596980Y34433552D02*
X39596980Y33911048D01*
%TO.C,R2*%
X21013640Y27901252D02*
X21013640Y27378748D01*
X22433640Y27901252D02*
X22433640Y27378748D01*
%TO.C,FB1*%
X65343252Y36546000D02*
X64820748Y36546000D01*
X65343252Y35126000D02*
X64820748Y35126000D01*
%TO.C,D3*%
X51420000Y33600000D02*
X54280000Y33600000D01*
X51420000Y35520000D02*
X51420000Y33600000D01*
X54280000Y35520000D02*
X51420000Y35520000D01*
%TO.C,D2*%
X32935000Y33600000D02*
X35795000Y33600000D01*
X32935000Y35520000D02*
X32935000Y33600000D01*
X35795000Y35520000D02*
X32935000Y35520000D01*
%TO.C,D1*%
X14155000Y33600000D02*
X17015000Y33600000D01*
X14155000Y35520000D02*
X14155000Y33600000D01*
X17015000Y35520000D02*
X14155000Y35520000D01*
%TO.C,C17*%
X65343252Y22830000D02*
X64820748Y22830000D01*
X65343252Y21410000D02*
X64820748Y21410000D01*
%TO.C,C16*%
X65343252Y24862000D02*
X64820748Y24862000D01*
X65343252Y23442000D02*
X64820748Y23442000D01*
%TO.C,C15*%
X65343252Y32482000D02*
X64820748Y32482000D01*
X65343252Y31062000D02*
X64820748Y31062000D01*
%TO.C,C14*%
X65343252Y34514000D02*
X64820748Y34514000D01*
X65343252Y33094000D02*
X64820748Y33094000D01*
%TO.C,C13*%
X60248748Y19378000D02*
X60771252Y19378000D01*
X60248748Y20798000D02*
X60771252Y20798000D01*
%TO.C,C12*%
X64312748Y8202000D02*
X64835252Y8202000D01*
X64312748Y9622000D02*
X64835252Y9622000D01*
%TO.C,C11*%
X65343252Y20798000D02*
X64820748Y20798000D01*
X65343252Y19378000D02*
X64820748Y19378000D01*
%TO.C,C10*%
X27410000Y20753748D02*
X27410000Y21276252D01*
X25990000Y20753748D02*
X25990000Y21276252D01*
%TO.C,C9*%
X28410000Y27378748D02*
X28410000Y27901252D01*
X26990000Y27378748D02*
X26990000Y27901252D01*
%TO.C,C8*%
X32151252Y31880000D02*
X31628748Y31880000D01*
X32151252Y30460000D02*
X31628748Y30460000D01*
%TO.C,C7*%
X38311252Y14448000D02*
X37788748Y14448000D01*
X38311252Y13028000D02*
X37788748Y13028000D01*
%TO.C,C6*%
X31950000Y21098748D02*
X31950000Y21621252D01*
X30530000Y21098748D02*
X30530000Y21621252D01*
%TO.C,C5*%
X34180000Y21098748D02*
X34180000Y21621252D01*
X32760000Y21098748D02*
X32760000Y21621252D01*
%TO.C,C4*%
X38311252Y16420000D02*
X37788748Y16420000D01*
X38311252Y15000000D02*
X37788748Y15000000D01*
%TO.C,C3*%
X46846252Y16420000D02*
X46323748Y16420000D01*
X46846252Y15000000D02*
X46323748Y15000000D01*
%TO.C,C2*%
X49040000Y28221252D02*
X49040000Y27698748D01*
X50460000Y28221252D02*
X50460000Y27698748D01*
%TO.C,C1*%
X37068748Y30230000D02*
X37591252Y30230000D01*
X37068748Y31650000D02*
X37591252Y31650000D01*
%TD*%
M02*
