%TF.GenerationSoftware,KiCad,Pcbnew,(6.99.0-5157-g987eb4b46a-dirty)*%
%TF.CreationDate,2022-12-28T16:32:46-05:00*%
%TF.ProjectId,controller,636f6e74-726f-46c6-9c65-722e6b696361,rev?*%
%TF.SameCoordinates,PX3cfccb0PYa197300*%
%TF.FileFunction,Copper,L2,Bot*%
%TF.FilePolarity,Positive*%
%FSLAX46Y46*%
G04 Gerber Fmt 4.6, Leading zero omitted, Abs format (unit mm)*
G04 Created by KiCad (PCBNEW (6.99.0-5157-g987eb4b46a-dirty)) date 2022-12-28 16:32:46*
%MOMM*%
%LPD*%
G01*
G04 APERTURE LIST*
G04 Aperture macros list*
%AMRoundRect*
0 Rectangle with rounded corners*
0 $1 Rounding radius*
0 $2 $3 $4 $5 $6 $7 $8 $9 X,Y pos of 4 corners*
0 Add a 4 corners polygon primitive as box body*
4,1,4,$2,$3,$4,$5,$6,$7,$8,$9,$2,$3,0*
0 Add four circle primitives for the rounded corners*
1,1,$1+$1,$2,$3*
1,1,$1+$1,$4,$5*
1,1,$1+$1,$6,$7*
1,1,$1+$1,$8,$9*
0 Add four rect primitives between the rounded corners*
20,1,$1+$1,$2,$3,$4,$5,0*
20,1,$1+$1,$4,$5,$6,$7,0*
20,1,$1+$1,$6,$7,$8,$9,0*
20,1,$1+$1,$8,$9,$2,$3,0*%
G04 Aperture macros list end*
%TA.AperFunction,ComponentPad*%
%ADD10R,1.000000X1.000000*%
%TD*%
%TA.AperFunction,ComponentPad*%
%ADD11O,1.000000X1.000000*%
%TD*%
%TA.AperFunction,ComponentPad*%
%ADD12O,1.200000X1.750000*%
%TD*%
%TA.AperFunction,ComponentPad*%
%ADD13RoundRect,0.250000X-0.350000X-0.625000X0.350000X-0.625000X0.350000X0.625000X-0.350000X0.625000X0*%
%TD*%
%TA.AperFunction,SMDPad,CuDef*%
%ADD14O,1.220000X6.660000*%
%TD*%
%TA.AperFunction,ViaPad*%
%ADD15C,0.600000*%
%TD*%
%TA.AperFunction,Conductor*%
%ADD16C,0.200000*%
%TD*%
%TA.AperFunction,Conductor*%
%ADD17C,0.170000*%
%TD*%
%TA.AperFunction,Conductor*%
%ADD18C,0.400000*%
%TD*%
G04 APERTURE END LIST*
D10*
%TO.P,J4,1,Pin_1*%
%TO.N,+3.3VA*%
X51801659Y31703419D03*
%TD*%
D11*
%TO.P,J6,6,Pin_6*%
%TO.N,GPIO_PB4*%
X50078219Y31703419D03*
%TO.P,J6,5,Pin_5*%
%TO.N,GPIO_PB3*%
X48808219Y31703419D03*
%TO.P,J6,4,Pin_4*%
%TO.N,GND*%
X47538219Y31703419D03*
%TO.P,J6,3,Pin_3*%
%TO.N,GPIO_PD2*%
X46268219Y31703419D03*
%TO.P,J6,2,Pin_2*%
%TO.N,GPIO_PA14*%
X44998219Y31703419D03*
D10*
%TO.P,J6,1,Pin_1*%
%TO.N,GPIO_PA15*%
X43728219Y31703419D03*
%TD*%
D12*
%TO.P,J3,4,Pin_4*%
%TO.N,GND*%
X28567479Y31004919D03*
%TO.P,J3,3,Pin_3*%
%TO.N,SOLENOID_ENABLE*%
X26567479Y31004919D03*
%TO.P,J3,2,Pin_2*%
%TO.N,SOLENOID_TRIGGER_CAN_RX_BL*%
X24567479Y31004919D03*
D13*
%TO.P,J3,1,Pin_1*%
%TO.N,VBUS*%
X22567480Y31004920D03*
%TD*%
D14*
%TO.P,J1,1,Pin_1*%
%TO.N,MEMBRANE1_PA10*%
X60299999Y4589999D03*
%TO.P,J1,2,Pin_2*%
%TO.N,MEMBRANE2*%
X58179999Y4589999D03*
%TO.P,J1,3,Pin_3*%
%TO.N,MEMBRANE3*%
X56059999Y4589999D03*
%TO.P,J1,4,Pin_4*%
%TO.N,MEMBRANE4_PC9*%
X53939999Y4589999D03*
%TO.P,J1,5,Pin_5*%
%TO.N,MEMBRANE5*%
X51819999Y4589999D03*
%TO.P,J1,6,Pin_6*%
%TO.N,MEMBRANE6_PC7*%
X49699999Y4589999D03*
%TO.P,J1,7,Pin_7*%
%TO.N,MEMBRANE7*%
X47579999Y4589999D03*
%TO.P,J1,8,Pin_8*%
%TO.N,MEMBRANE8*%
X45459999Y4589999D03*
%TO.P,J1,9,Pin_9*%
%TO.N,MEMBRANE9*%
X43339999Y4589999D03*
%TO.P,J1,10,Pin_10*%
%TO.N,MEMBRANE10*%
X41219999Y4589999D03*
%TO.P,J1,11,Pin_11*%
%TO.N,MEMBRANE11*%
X39099999Y4589999D03*
%TO.P,J1,12,Pin_12*%
%TO.N,MEMBRANE12*%
X36979999Y4589999D03*
%TO.P,J1,13,Pin_13*%
%TO.N,MEMBRANE13*%
X34859999Y4589999D03*
%TO.P,J1,14,Pin_14*%
%TO.N,MEMBRANE14*%
X32739999Y4589999D03*
%TO.P,J1,15,Pin_15*%
%TO.N,MEMBRANE15*%
X30619999Y4589999D03*
%TO.P,J1,16,Pin_16*%
%TO.N,MEMBRANE16*%
X28499999Y4589999D03*
%TO.P,J1,17,Pin_17*%
%TO.N,MEMBRANE17*%
X26379999Y4589999D03*
%TO.P,J1,18,Pin_18*%
%TO.N,MEMBRANE18*%
X24259999Y4589999D03*
%TO.P,J1,19,Pin_19*%
%TO.N,MEMBRANE19_PA5*%
X22139999Y4589999D03*
%TO.P,J1,20,Pin_20*%
%TO.N,MEMBRANE20*%
X20019999Y4589999D03*
%TO.P,J1,21,Pin_21*%
%TO.N,MEMBRANE21*%
X17899999Y4589999D03*
%TO.P,J1,22,Pin_22*%
%TO.N,MEMBRANE22*%
X15779999Y4589999D03*
%TO.P,J1,23,Pin_23*%
%TO.N,MEMBRANE23*%
X13659999Y4589999D03*
%TO.P,J1,24,Pin_24*%
%TO.N,MEMBRANE24*%
X11539999Y4589999D03*
%TO.P,J1,25,Pin_25*%
%TO.N,MEMBRANE25*%
X9419999Y4589999D03*
%TD*%
D15*
%TO.N,unconnected-(J5-MountPin)*%
X58710000Y32480000D03*
X56110000Y32400000D03*
%TO.N,unconnected-(U2-VSS)_3*%
X48638040Y26933300D03*
%TO.N,GND*%
X39402600Y30032100D03*
X28760000Y27547980D03*
X29682020Y30575660D03*
X34665500Y25175620D03*
X34680740Y22450200D03*
X50847840Y28002640D03*
X60300000Y25400000D03*
X3310600Y34475406D03*
X3310600Y32126754D03*
X27708440Y29663800D03*
X26461300Y27700380D03*
X25234480Y29191360D03*
X62783300Y23965564D03*
X62783300Y22033132D03*
X62783300Y20100700D03*
X64022820Y18660520D03*
X61498060Y18652900D03*
X61536160Y21561200D03*
X65696680Y12737240D03*
X67461980Y11368180D03*
X69034240Y12699140D03*
X65657310Y10296300D03*
X66882860Y10296300D03*
X64431760Y10296300D03*
X62841720Y33767170D03*
X62841720Y31803750D03*
X65150580Y32800700D03*
X65115020Y34860640D03*
X65076920Y30598520D03*
X62841720Y30822040D03*
X68163020Y30278480D03*
X66895560Y29018640D03*
X38843800Y27974700D03*
X35181120Y22081900D03*
X35859300Y15711580D03*
X35859300Y13699900D03*
X37027700Y16900300D03*
X25864400Y34731100D03*
X44231140Y21957440D03*
X37599200Y25127360D03*
X35770400Y29386940D03*
X29867440Y31157320D03*
X47510280Y17507360D03*
X34678200Y20463920D03*
X41038360Y30113380D03*
X40139200Y23006460D03*
X40507500Y21977760D03*
X40934220Y20047360D03*
X41071380Y20997320D03*
X38225000Y23840000D03*
X35203980Y23473820D03*
X45625600Y22272400D03*
X44607060Y25526140D03*
X52585200Y25488040D03*
X53474200Y23478900D03*
X57310000Y23820000D03*
X39472450Y27974700D03*
X63149060Y26618340D03*
X64055840Y25330560D03*
X66816820Y9031380D03*
X28777780Y29633320D03*
X37289320Y31835500D03*
X23385360Y34482180D03*
X21772460Y34474560D03*
X23281220Y36140000D03*
X23283760Y32638140D03*
X21856280Y32666080D03*
X32356640Y34687920D03*
X53275040Y35772500D03*
X52746720Y36229700D03*
X51928840Y36181440D03*
X52110220Y33336640D03*
X34515640Y30380080D03*
X26443520Y28556360D03*
X27098840Y29765400D03*
X26044740Y29300580D03*
X16923600Y29747620D03*
X4731600Y33301080D03*
X3310600Y33301080D03*
X39455940Y20293740D03*
X45955800Y25310240D03*
X45351280Y23298560D03*
X63395440Y14169800D03*
X64468590Y14169800D03*
X65541740Y14169800D03*
X63395440Y15909700D03*
X64468590Y15909700D03*
X65541740Y15909700D03*
X65681440Y11713620D03*
X60918940Y21558660D03*
X60517620Y18655440D03*
X35859300Y14705740D03*
X35013480Y15076580D03*
X35013480Y14038990D03*
X39440700Y25090000D03*
X38206260Y25090000D03*
X39440700Y23865000D03*
X42255020Y23532240D03*
X42249940Y24748900D03*
X40931680Y23862440D03*
X41551440Y25051160D03*
X35511320Y31990440D03*
X40101100Y27974700D03*
X38843800Y27365100D03*
X39472450Y27365100D03*
X40101100Y27365100D03*
X31239040Y21403720D03*
X33469160Y21401180D03*
X32336320Y21319900D03*
X32357480Y22385000D03*
X30126520Y21279260D03*
X40304300Y25094340D03*
X40217940Y23834500D03*
X37583960Y23755760D03*
X62783300Y21066916D03*
X62783300Y22999348D03*
X62783300Y24931780D03*
X60149320Y21586600D03*
X66677120Y9727340D03*
X67530560Y8957720D03*
X68307800Y8957720D03*
X62841720Y32785460D03*
X62841720Y34748880D03*
X62216880Y23479408D03*
X62216880Y25411840D03*
X62216880Y21546976D03*
X62216880Y24445624D03*
X62216880Y22513192D03*
X68907240Y13857380D03*
X65044535Y10296300D03*
X66270085Y10296300D03*
X49750560Y27918820D03*
X48632960Y26173840D03*
X64048220Y30626460D03*
X31853720Y31170020D03*
X31833400Y30123540D03*
X28822920Y28665000D03*
X27698280Y27695300D03*
X30865000Y30082240D03*
X31907060Y26443080D03*
X31716560Y28757020D03*
X27660180Y30999840D03*
X27566200Y30258160D03*
X29608360Y31657700D03*
X21850000Y36140000D03*
X34350000Y18215000D03*
X45041400Y18660520D03*
X44403012Y18660520D03*
X43764626Y18660520D03*
X43126240Y18660520D03*
X35188740Y22790560D03*
X34680740Y23141080D03*
X34683280Y21718680D03*
X54027920Y23054720D03*
X54482580Y22607680D03*
X46631440Y14850520D03*
X46006600Y14489840D03*
X46087880Y13600840D03*
X50979920Y26963780D03*
X39295920Y21612000D03*
X46740660Y34583780D03*
X42442980Y34886040D03*
X47540760Y30809340D03*
X47530600Y32582260D03*
X42783340Y32904840D03*
X50136640Y33062320D03*
X59443200Y36824060D03*
X57055600Y36224620D03*
X50746240Y19440300D03*
X52966200Y18185540D03*
X54708640Y20143880D03*
X61886680Y9524140D03*
X56692380Y14934340D03*
X51785100Y10331860D03*
X57103860Y10339480D03*
X59219680Y10326780D03*
X48630420Y9994040D03*
X19724660Y26596060D03*
X17125000Y26765000D03*
X20529840Y26596060D03*
X22947920Y26596060D03*
X15762820Y31086200D03*
X10050000Y28965000D03*
X8775000Y28215000D03*
X14775000Y33215000D03*
X25550000Y19990000D03*
X27825000Y19990000D03*
X26700000Y18965000D03*
X25800000Y17790000D03*
X24700000Y19040000D03*
X24750000Y16640000D03*
X10850000Y15915000D03*
X9750000Y17215000D03*
X5050000Y19040000D03*
X6000000Y18140000D03*
X7025000Y18640000D03*
X9325000Y14990000D03*
X6675000Y14990000D03*
X6675000Y13715000D03*
X9325000Y13715000D03*
X9325000Y12440000D03*
X6675000Y12440000D03*
X6675000Y11165000D03*
X9325000Y11165000D03*
X8025000Y10365000D03*
X8025000Y15840000D03*
X14030000Y22220000D03*
X18275000Y24815000D03*
X14625000Y24715000D03*
X24390000Y24470000D03*
X14020000Y16160000D03*
X9680000Y26250000D03*
X28190000Y22640000D03*
X9620000Y19260000D03*
X12250000Y21200000D03*
X17130000Y32930000D03*
X18590000Y13470000D03*
%TO.N,+3.3VA*%
X37289320Y20504560D03*
X40070620Y20888100D03*
X46223260Y23370394D03*
X52463280Y22864220D03*
X50837680Y9526680D03*
X61024164Y9433096D03*
X55003280Y9526680D03*
%TO.N,VBUS*%
X58975840Y36135720D03*
X58211300Y36100160D03*
%TO.N,MEMBRANE10*%
X41239020Y9145680D03*
%TO.N,MEMBRANE9*%
X43354840Y9193940D03*
%TO.N,MEMBRANE8*%
X45457960Y9115200D03*
%TO.N,MEMBRANE7*%
X47578860Y9125360D03*
%TO.N,MEMBRANE5*%
X51823200Y9125360D03*
%TO.N,MEMBRANE25*%
X9440760Y9112660D03*
%TO.N,MEMBRANE16*%
X28490760Y9145680D03*
%TO.N,MEMBRANE15*%
X30619280Y9135520D03*
%TO.N,MEMBRANE14*%
X32740180Y9135520D03*
%TO.N,MEMBRANE13*%
X34866160Y9150760D03*
%TO.N,MEMBRANE12*%
X36999760Y9120280D03*
%TO.N,MEMBRANE11*%
X39100340Y9140600D03*
%TO.N,MEMBRANE3*%
X56090400Y9163460D03*
%TO.N,MEMBRANE2*%
X58180820Y9140600D03*
%TO.N,MEMBRANE24*%
X11559120Y9168540D03*
%TO.N,MEMBRANE23*%
X13662240Y9171080D03*
%TO.N,MEMBRANE22*%
X15785680Y9199020D03*
%TO.N,MEMBRANE21*%
X17909120Y9183780D03*
%TO.N,MEMBRANE20*%
X20022400Y9201560D03*
%TO.N,MEMBRANE18*%
X24261660Y9191400D03*
%TO.N,MEMBRANE17*%
X26397800Y9132980D03*
%TO.N,MEMBRANE1_PA10*%
X60311880Y9140600D03*
%TO.N,MEMBRANE4_PC9*%
X53949180Y9155840D03*
%TO.N,MEMBRANE19_PA5*%
X22148380Y9150760D03*
%TO.N,MEMBRANE6_PC7*%
X49699760Y9127900D03*
%TO.N,/LD3R*%
X53771944Y24188465D03*
X44641813Y24705810D03*
%TO.N,/BottomLightsGround*%
X29014000Y22120000D03*
X51112000Y23136000D03*
X41691140Y24139300D03*
X45163320Y24139300D03*
%TD*%
D16*
%TO.N,unconnected-(J5-MountPin)*%
X58630000Y32400000D02*
X58710000Y32480000D01*
X56110000Y32400000D02*
X58630000Y32400000D01*
D17*
%TO.N,/LD3R*%
X53771944Y24188465D02*
X53390409Y24570000D01*
X53390409Y24570000D02*
X46630000Y24570000D01*
X46630000Y24570000D02*
X46494190Y24705810D01*
X46494190Y24705810D02*
X44641813Y24705810D01*
%TO.N,+3.3VA*%
X37672860Y20888100D02*
X40070620Y20888100D01*
X37289320Y20504560D02*
X37672860Y20888100D01*
D18*
X49886004Y23370394D02*
X49575704Y23370394D01*
X50790399Y22465999D02*
X49886004Y23370394D01*
X49575704Y23370394D02*
X46223260Y23370394D01*
X52065059Y22465999D02*
X50790399Y22465999D01*
X52463280Y22864220D02*
X52065059Y22465999D01*
D17*
X51044095Y9733095D02*
X50837680Y9526680D01*
X61024164Y9433096D02*
X60724165Y9733095D01*
X60724165Y9733095D02*
X56071945Y9733095D01*
X53617115Y9733095D02*
X51044095Y9733095D01*
X54567750Y9526680D02*
X54361335Y9733095D01*
X55003280Y9526680D02*
X54567750Y9526680D01*
X54361335Y9733095D02*
X53617115Y9733095D01*
X55468100Y9526680D02*
X55674515Y9733095D01*
X55003280Y9526680D02*
X55468100Y9526680D01*
X56071945Y9733095D02*
X55674515Y9733095D01*
D18*
%TO.N,VBUS*%
X22567480Y31004920D02*
X22567480Y35086700D01*
X24445770Y36964990D02*
X24862330Y36964990D01*
X22567480Y36610700D02*
X22921770Y36964990D01*
X22567480Y35086700D02*
X22567480Y36610700D01*
X24862330Y36964990D02*
X22921770Y36964990D01*
X22567480Y36610700D02*
X22567480Y36620860D01*
X24862330Y36964990D02*
X53090930Y36964990D01*
X58975840Y36135720D02*
X58199830Y36911730D01*
X57346470Y36964990D02*
X57282890Y36964990D01*
X58211300Y36100160D02*
X57346470Y36964990D01*
X58146570Y36964990D02*
X58199830Y36911730D01*
X56685990Y36964990D02*
X58146570Y36964990D01*
X53090930Y36964990D02*
X56685990Y36964990D01*
X56685990Y36964990D02*
X57282890Y36964990D01*
D17*
%TO.N,MEMBRANE10*%
X41220000Y7260000D02*
X41240000Y7280000D01*
D18*
X41220000Y9126660D02*
X41239020Y9145680D01*
X41220000Y4590000D02*
X41220000Y9126660D01*
D17*
%TO.N,MEMBRANE9*%
X43340000Y7230000D02*
X43350000Y7240000D01*
D18*
X43340000Y9179100D02*
X43354840Y9193940D01*
X43340000Y4590000D02*
X43340000Y9179100D01*
%TO.N,MEMBRANE8*%
X45460000Y9113160D02*
X45457960Y9115200D01*
X45460000Y4590000D02*
X45460000Y9113160D01*
D17*
%TO.N,MEMBRANE7*%
X47580000Y7260000D02*
X47610000Y7290000D01*
X47580000Y4590000D02*
X47580000Y7260000D01*
D18*
X47580000Y9124220D02*
X47578860Y9125360D01*
X47580000Y4590000D02*
X47580000Y9124220D01*
D17*
%TO.N,MEMBRANE5*%
X51820000Y7220000D02*
X51850000Y7250000D01*
D18*
X51820000Y9122160D02*
X51823200Y9125360D01*
X51820000Y4590000D02*
X51820000Y9122160D01*
D17*
%TO.N,MEMBRANE25*%
X9420000Y7280000D02*
X9440000Y7300000D01*
D18*
X9420000Y9091900D02*
X9440760Y9112660D01*
X9420000Y4590000D02*
X9420000Y9091900D01*
D17*
%TO.N,MEMBRANE16*%
X28500000Y7310000D02*
X28490000Y7320000D01*
D18*
X28500000Y9136440D02*
X28490760Y9145680D01*
X28500000Y4590000D02*
X28500000Y9136440D01*
D17*
%TO.N,MEMBRANE15*%
X30620000Y7280000D02*
X30640000Y7300000D01*
D18*
X30620000Y9134800D02*
X30619280Y9135520D01*
X30620000Y4590000D02*
X30620000Y9134800D01*
D17*
%TO.N,MEMBRANE14*%
X32740000Y7300000D02*
X32730000Y7310000D01*
D18*
X32740000Y9135340D02*
X32740180Y9135520D01*
X32740000Y4590000D02*
X32740000Y9135340D01*
%TO.N,MEMBRANE13*%
X34860000Y9144600D02*
X34866160Y9150760D01*
X34860000Y4590000D02*
X34860000Y9144600D01*
D17*
%TO.N,MEMBRANE12*%
X36980000Y7250000D02*
X37000000Y7270000D01*
D18*
X36980000Y9100520D02*
X36999760Y9120280D01*
X36980000Y4590000D02*
X36980000Y9100520D01*
%TO.N,MEMBRANE11*%
X39100000Y9140260D02*
X39100340Y9140600D01*
X39100000Y4590000D02*
X39100000Y9140260D01*
D17*
%TO.N,MEMBRANE3*%
X56060000Y7220000D02*
X56090000Y7250000D01*
D18*
X56060000Y9133060D02*
X56090400Y9163460D01*
X56060000Y4590000D02*
X56060000Y9133060D01*
%TO.N,MEMBRANE2*%
X58180000Y9139780D02*
X58180820Y9140600D01*
X58180000Y4590000D02*
X58180000Y9139780D01*
D17*
%TO.N,MEMBRANE24*%
X11540000Y7250000D02*
X11560000Y7270000D01*
D18*
X11540000Y9149420D02*
X11559120Y9168540D01*
X11540000Y4590000D02*
X11540000Y9149420D01*
%TO.N,MEMBRANE23*%
X13660000Y9168840D02*
X13662240Y9171080D01*
X13660000Y4590000D02*
X13660000Y9168840D01*
D17*
%TO.N,MEMBRANE22*%
X15780000Y7300000D02*
X15790000Y7310000D01*
D18*
X15780000Y9193340D02*
X15785680Y9199020D01*
X15780000Y4590000D02*
X15780000Y9193340D01*
D17*
%TO.N,MEMBRANE21*%
X17900000Y7240000D02*
X17920000Y7260000D01*
D18*
X17900000Y9174660D02*
X17909120Y9183780D01*
X17900000Y4590000D02*
X17900000Y9174660D01*
D17*
%TO.N,MEMBRANE20*%
X20020000Y7280000D02*
X20030000Y7290000D01*
D18*
X20020000Y9199160D02*
X20022400Y9201560D01*
X20020000Y4590000D02*
X20020000Y9199160D01*
D17*
%TO.N,MEMBRANE18*%
X24260000Y7260000D02*
X24250000Y7270000D01*
D18*
X24260000Y9189740D02*
X24261660Y9191400D01*
X24260000Y4590000D02*
X24260000Y9189740D01*
D17*
%TO.N,MEMBRANE17*%
X26380000Y7270000D02*
X26400000Y7290000D01*
D18*
X26380000Y9115180D02*
X26397800Y9132980D01*
X26380000Y4590000D02*
X26380000Y9115180D01*
D17*
%TO.N,MEMBRANE1_PA10*%
X60300000Y7230000D02*
X60310000Y7240000D01*
D18*
X60300000Y9128720D02*
X60311880Y9140600D01*
X60300000Y4590000D02*
X60300000Y9128720D01*
D17*
%TO.N,MEMBRANE4_PC9*%
X53940000Y7230000D02*
X53950000Y7240000D01*
D18*
X53940000Y9146660D02*
X53949180Y9155840D01*
X53940000Y4590000D02*
X53940000Y9146660D01*
%TO.N,MEMBRANE19_PA5*%
X22140000Y9142380D02*
X22148380Y9150760D01*
X22140000Y4590000D02*
X22140000Y9142380D01*
D17*
%TO.N,MEMBRANE6_PC7*%
X49700000Y7220000D02*
X49710000Y7230000D01*
D18*
X49700000Y9127660D02*
X49699760Y9127900D01*
X49700000Y4590000D02*
X49700000Y9127660D01*
D17*
%TO.N,/BottomLightsGround*%
X45164417Y24138203D02*
X45163320Y24139300D01*
D16*
X50108700Y24139300D02*
X51112000Y23136000D01*
X45163320Y24139300D02*
X50108700Y24139300D01*
X29438264Y22120000D02*
X30593964Y23275700D01*
X29014000Y22120000D02*
X29438264Y22120000D01*
X30593964Y23275700D02*
X33893340Y23275700D01*
X33893340Y23275700D02*
X34706140Y24088500D01*
X34706140Y24088500D02*
X37063260Y24088500D01*
X37063260Y24088500D02*
X37443001Y24468241D01*
X37443001Y24468241D02*
X41362199Y24468241D01*
X41362199Y24468241D02*
X41691140Y24139300D01*
%TD*%
%TA.AperFunction,Conductor*%
%TO.N,GND*%
G36*
X22568761Y37320343D02*
G01*
X22599699Y37282645D01*
X22604479Y37234112D01*
X22581490Y37191103D01*
X22359257Y36968872D01*
X22338003Y36953428D01*
X22335025Y36951911D01*
X22335019Y36951907D01*
X22329138Y36948910D01*
X22324469Y36944242D01*
X22324466Y36944239D01*
X22244103Y36863876D01*
X22244100Y36863873D01*
X22239430Y36859202D01*
X22236431Y36853318D01*
X22236429Y36853314D01*
X22208712Y36798918D01*
X22208711Y36798915D01*
X22207611Y36796755D01*
X22206184Y36794790D01*
X22205433Y36792481D01*
X22204327Y36790312D01*
X22204327Y36790311D01*
X22184833Y36752052D01*
X22184831Y36752047D01*
X22181834Y36746164D01*
X22180801Y36739647D01*
X22180798Y36739635D01*
X22174734Y36701348D01*
X22171660Y36688539D01*
X22169022Y36680421D01*
X22169021Y36680415D01*
X22166980Y36674133D01*
X22166980Y36667522D01*
X22166980Y32149134D01*
X22151487Y32100526D01*
X22110724Y32069848D01*
X22036952Y32044034D01*
X22004598Y32032713D01*
X21999538Y32028980D01*
X21999531Y32028975D01*
X21900395Y31955809D01*
X21900391Y31955806D01*
X21895330Y31952070D01*
X21891594Y31947009D01*
X21891591Y31947005D01*
X21818425Y31847869D01*
X21818420Y31847862D01*
X21814687Y31842802D01*
X21812608Y31836862D01*
X21812607Y31836859D01*
X21771522Y31719446D01*
X21771520Y31719439D01*
X21769834Y31714619D01*
X21769357Y31709535D01*
X21769356Y31709529D01*
X21768311Y31698380D01*
X21766980Y31684186D01*
X21766980Y30325654D01*
X21767163Y30323703D01*
X21769356Y30300312D01*
X21769356Y30300308D01*
X21769834Y30295221D01*
X21771520Y30290401D01*
X21771522Y30290395D01*
X21812607Y30172982D01*
X21814687Y30167038D01*
X21818422Y30161977D01*
X21818425Y30161972D01*
X21891591Y30062836D01*
X21895330Y30057770D01*
X21900395Y30054032D01*
X21999531Y29980866D01*
X21999533Y29980865D01*
X22004598Y29977127D01*
X22132781Y29932274D01*
X22163214Y29929420D01*
X22969786Y29929420D01*
X22971746Y29929420D01*
X23002179Y29932274D01*
X23130362Y29977127D01*
X23239630Y30057770D01*
X23320273Y30167038D01*
X23365126Y30295221D01*
X23367980Y30325654D01*
X23367980Y30684966D01*
X23766980Y30684966D01*
X23767242Y30682638D01*
X23767243Y30682626D01*
X23781584Y30555349D01*
X23782112Y30550665D01*
X23783668Y30546217D01*
X23783669Y30546215D01*
X23840130Y30384857D01*
X23840132Y30384852D01*
X23841691Y30380398D01*
X23937664Y30227658D01*
X24065218Y30100104D01*
X24217958Y30004131D01*
X24388225Y29944552D01*
X24567480Y29924355D01*
X24746735Y29944552D01*
X24917002Y30004131D01*
X25069742Y30100104D01*
X25197296Y30227658D01*
X25293269Y30380398D01*
X25352848Y30550665D01*
X25367980Y30684966D01*
X25766980Y30684966D01*
X25767242Y30682638D01*
X25767243Y30682626D01*
X25781584Y30555349D01*
X25782112Y30550665D01*
X25783668Y30546217D01*
X25783669Y30546215D01*
X25840130Y30384857D01*
X25840132Y30384852D01*
X25841691Y30380398D01*
X25937664Y30227658D01*
X26065218Y30100104D01*
X26217958Y30004131D01*
X26388225Y29944552D01*
X26567480Y29924355D01*
X26746735Y29944552D01*
X26917002Y30004131D01*
X27069742Y30100104D01*
X27197296Y30227658D01*
X27293269Y30380398D01*
X27352848Y30550665D01*
X27367980Y30684966D01*
X27367980Y30687351D01*
X27767480Y30687351D01*
X27767743Y30682654D01*
X27782075Y30555461D01*
X27784160Y30546327D01*
X27840583Y30385076D01*
X27844655Y30376620D01*
X27935549Y30231964D01*
X27941391Y30224638D01*
X28062197Y30103832D01*
X28069523Y30097990D01*
X28214179Y30007096D01*
X28222635Y30003024D01*
X28354770Y29956789D01*
X28364452Y29956608D01*
X28367480Y29965806D01*
X28767480Y29965806D01*
X28770507Y29956608D01*
X28780189Y29956789D01*
X28912324Y30003024D01*
X28920780Y30007096D01*
X29065436Y30097990D01*
X29072762Y30103832D01*
X29193568Y30224638D01*
X29199410Y30231964D01*
X29290304Y30376620D01*
X29294376Y30385076D01*
X29350799Y30546327D01*
X29352884Y30555461D01*
X29367216Y30682654D01*
X29367480Y30687351D01*
X29367480Y30793860D01*
X29365142Y30802583D01*
X29356420Y30804920D01*
X28778540Y30804920D01*
X28769817Y30802583D01*
X28767480Y30793860D01*
X28767480Y29965806D01*
X28367480Y29965806D01*
X28367480Y30793860D01*
X28365142Y30802583D01*
X28356420Y30804920D01*
X27778540Y30804920D01*
X27769817Y30802583D01*
X27767480Y30793860D01*
X27767480Y30687351D01*
X27367980Y30687351D01*
X27367980Y31183672D01*
X43027720Y31183672D01*
X43028524Y31179629D01*
X43028525Y31179621D01*
X43037739Y31133303D01*
X43039353Y31125189D01*
X43083668Y31058868D01*
X43149989Y31014553D01*
X43208472Y31002920D01*
X44243837Y31002920D01*
X44247968Y31002920D01*
X44306451Y31014553D01*
X44372772Y31058868D01*
X44417087Y31125189D01*
X44418587Y31132731D01*
X44452497Y31172193D01*
X44503555Y31183963D01*
X44551656Y31163183D01*
X44597368Y31122686D01*
X44747995Y31043630D01*
X44913164Y31002920D01*
X45078198Y31002920D01*
X45083276Y31002920D01*
X45248445Y31043630D01*
X45399072Y31122686D01*
X45526403Y31235491D01*
X45564091Y31290092D01*
X45606618Y31322049D01*
X45659818Y31322049D01*
X45702349Y31290090D01*
X45702350Y31290089D01*
X45740037Y31235491D01*
X45867368Y31122686D01*
X46017995Y31043630D01*
X46183164Y31002920D01*
X46348198Y31002920D01*
X46353276Y31002920D01*
X46518445Y31043630D01*
X46669072Y31122686D01*
X46796403Y31235491D01*
X46834394Y31290531D01*
X46876922Y31322490D01*
X46930123Y31322490D01*
X46972654Y31290530D01*
X47007524Y31240011D01*
X47014221Y31232452D01*
X47133851Y31126469D01*
X47142150Y31120740D01*
X47283679Y31046461D01*
X47293104Y31042887D01*
X47325805Y31034827D01*
X47335369Y31035406D01*
X47338220Y31044553D01*
X47738220Y31044553D01*
X47741070Y31035406D01*
X47750634Y31034827D01*
X47783335Y31042887D01*
X47792760Y31046461D01*
X47934289Y31120740D01*
X47942588Y31126469D01*
X48062218Y31232452D01*
X48068917Y31240014D01*
X48103785Y31290529D01*
X48146315Y31322490D01*
X48199516Y31322490D01*
X48242045Y31290532D01*
X48280037Y31235491D01*
X48407368Y31122686D01*
X48557995Y31043630D01*
X48723164Y31002920D01*
X48888198Y31002920D01*
X48893276Y31002920D01*
X49058445Y31043630D01*
X49209072Y31122686D01*
X49336403Y31235491D01*
X49374091Y31290092D01*
X49416618Y31322049D01*
X49469818Y31322049D01*
X49512349Y31290090D01*
X49512350Y31290089D01*
X49550037Y31235491D01*
X49677368Y31122686D01*
X49827995Y31043630D01*
X49993164Y31002920D01*
X50158198Y31002920D01*
X50163276Y31002920D01*
X50328445Y31043630D01*
X50479072Y31122686D01*
X50547911Y31183672D01*
X51101160Y31183672D01*
X51101964Y31179629D01*
X51101965Y31179621D01*
X51111179Y31133303D01*
X51112793Y31125189D01*
X51157108Y31058868D01*
X51223429Y31014553D01*
X51281912Y31002920D01*
X52317277Y31002920D01*
X52321408Y31002920D01*
X52379891Y31014553D01*
X52446212Y31058868D01*
X52490527Y31125189D01*
X52502160Y31183672D01*
X52502160Y32223168D01*
X52490527Y32281651D01*
X52446212Y32347972D01*
X52427642Y32360380D01*
X52386769Y32387691D01*
X52379891Y32392287D01*
X52371013Y32394053D01*
X52341118Y32400000D01*
X55604353Y32400000D01*
X55605208Y32394053D01*
X55621552Y32280372D01*
X55624835Y32257543D01*
X55627329Y32252082D01*
X55666263Y32166828D01*
X55684623Y32126627D01*
X55688557Y32122087D01*
X55774934Y32022401D01*
X55774936Y32022399D01*
X55778872Y32017857D01*
X55899947Y31940047D01*
X56038039Y31899500D01*
X56175951Y31899500D01*
X56181961Y31899500D01*
X56320053Y31940047D01*
X56441128Y32017857D01*
X56486750Y32070509D01*
X56515338Y32091909D01*
X56550233Y32099500D01*
X58351651Y32099500D01*
X58397065Y32086165D01*
X58399888Y32084351D01*
X58499947Y32020047D01*
X58638039Y31979500D01*
X58775951Y31979500D01*
X58781961Y31979500D01*
X58920053Y32020047D01*
X59041128Y32097857D01*
X59135377Y32206627D01*
X59195165Y32337543D01*
X59215647Y32480000D01*
X59195165Y32622457D01*
X59135377Y32753373D01*
X59041128Y32862143D01*
X59036071Y32865393D01*
X59036070Y32865394D01*
X58980590Y32901048D01*
X58920053Y32939953D01*
X58914285Y32941647D01*
X58914282Y32941648D01*
X58787729Y32978807D01*
X58787724Y32978808D01*
X58781961Y32980500D01*
X58638039Y32980500D01*
X58632276Y32978808D01*
X58632270Y32978807D01*
X58505717Y32941648D01*
X58505712Y32941646D01*
X58499947Y32939953D01*
X58494889Y32936703D01*
X58494888Y32936702D01*
X58383929Y32865394D01*
X58383924Y32865390D01*
X58378872Y32862143D01*
X58374940Y32857606D01*
X58374934Y32857600D01*
X58288557Y32757914D01*
X58288554Y32757911D01*
X58284623Y32753373D01*
X58282128Y32747911D01*
X58278878Y32742853D01*
X58277704Y32743608D01*
X58251909Y32713836D01*
X58206493Y32700500D01*
X56550233Y32700500D01*
X56515338Y32708091D01*
X56486750Y32729492D01*
X56445065Y32777600D01*
X56445063Y32777602D01*
X56441128Y32782143D01*
X56436071Y32785393D01*
X56436070Y32785394D01*
X56380590Y32821048D01*
X56320053Y32859953D01*
X56314285Y32861647D01*
X56314282Y32861648D01*
X56187729Y32898807D01*
X56187724Y32898808D01*
X56181961Y32900500D01*
X56038039Y32900500D01*
X56032276Y32898808D01*
X56032270Y32898807D01*
X55905717Y32861648D01*
X55905712Y32861646D01*
X55899947Y32859953D01*
X55894889Y32856703D01*
X55894888Y32856702D01*
X55783929Y32785394D01*
X55783924Y32785390D01*
X55778872Y32782143D01*
X55774940Y32777606D01*
X55774934Y32777600D01*
X55688557Y32677914D01*
X55688554Y32677911D01*
X55684623Y32673373D01*
X55682129Y32667913D01*
X55682127Y32667909D01*
X55661370Y32622457D01*
X55624835Y32542457D01*
X55623981Y32536518D01*
X55623980Y32536514D01*
X55616710Y32485947D01*
X55604353Y32400000D01*
X52341118Y32400000D01*
X52325459Y32403115D01*
X52325451Y32403116D01*
X52321408Y32403920D01*
X51281912Y32403920D01*
X51277869Y32403116D01*
X51277860Y32403115D01*
X51231542Y32393901D01*
X51231540Y32393901D01*
X51223429Y32392287D01*
X51216551Y32387692D01*
X51216550Y32387691D01*
X51163988Y32352570D01*
X51163985Y32352568D01*
X51157108Y32347972D01*
X51152512Y32341095D01*
X51152510Y32341092D01*
X51117389Y32288530D01*
X51112793Y32281651D01*
X51111179Y32273540D01*
X51111179Y32273538D01*
X51101965Y32227220D01*
X51101964Y32227211D01*
X51101160Y32223168D01*
X51101160Y31183672D01*
X50547911Y31183672D01*
X50606403Y31235491D01*
X50703038Y31375490D01*
X50763360Y31534548D01*
X50783865Y31703420D01*
X50763360Y31872292D01*
X50753041Y31899500D01*
X50735025Y31947005D01*
X50703038Y32031350D01*
X50606403Y32171349D01*
X50479072Y32284154D01*
X50328445Y32363210D01*
X50323518Y32364425D01*
X50323514Y32364426D01*
X50168207Y32402705D01*
X50168204Y32402706D01*
X50163276Y32403920D01*
X49993164Y32403920D01*
X49988236Y32402706D01*
X49988232Y32402705D01*
X49832925Y32364426D01*
X49832918Y32364424D01*
X49827995Y32363210D01*
X49823503Y32360853D01*
X49823499Y32360851D01*
X49681868Y32286516D01*
X49677368Y32284154D01*
X49673567Y32280788D01*
X49673563Y32280784D01*
X49553840Y32174719D01*
X49553836Y32174716D01*
X49550037Y32171349D01*
X49547153Y32167172D01*
X49547153Y32167171D01*
X49512349Y32116750D01*
X49469818Y32084792D01*
X49416618Y32084792D01*
X49374089Y32116751D01*
X49336403Y32171349D01*
X49209072Y32284154D01*
X49058445Y32363210D01*
X49053518Y32364425D01*
X49053514Y32364426D01*
X48898207Y32402705D01*
X48898204Y32402706D01*
X48893276Y32403920D01*
X48723164Y32403920D01*
X48718236Y32402706D01*
X48718232Y32402705D01*
X48562925Y32364426D01*
X48562918Y32364424D01*
X48557995Y32363210D01*
X48553503Y32360853D01*
X48553499Y32360851D01*
X48411868Y32286516D01*
X48407368Y32284154D01*
X48403567Y32280788D01*
X48403563Y32280784D01*
X48283840Y32174719D01*
X48283836Y32174716D01*
X48280037Y32171349D01*
X48277154Y32167174D01*
X48277150Y32167168D01*
X48242046Y32116310D01*
X48199516Y32084351D01*
X48146315Y32084351D01*
X48103785Y32116311D01*
X48068915Y32166830D01*
X48062218Y32174389D01*
X47942588Y32280372D01*
X47934289Y32286101D01*
X47792760Y32360380D01*
X47783335Y32363954D01*
X47750634Y32372014D01*
X47741070Y32371435D01*
X47738220Y32362287D01*
X47738220Y31044553D01*
X47338220Y31044553D01*
X47338220Y32362287D01*
X47335369Y32371435D01*
X47325805Y32372014D01*
X47293104Y32363954D01*
X47283679Y32360380D01*
X47142150Y32286101D01*
X47133851Y32280372D01*
X47014221Y32174389D01*
X47007523Y32166828D01*
X46972653Y32116310D01*
X46930123Y32084351D01*
X46876922Y32084351D01*
X46834394Y32116310D01*
X46796403Y32171349D01*
X46669072Y32284154D01*
X46518445Y32363210D01*
X46513518Y32364425D01*
X46513514Y32364426D01*
X46358207Y32402705D01*
X46358204Y32402706D01*
X46353276Y32403920D01*
X46183164Y32403920D01*
X46178236Y32402706D01*
X46178232Y32402705D01*
X46022925Y32364426D01*
X46022918Y32364424D01*
X46017995Y32363210D01*
X46013503Y32360853D01*
X46013499Y32360851D01*
X45871868Y32286516D01*
X45867368Y32284154D01*
X45863567Y32280788D01*
X45863563Y32280784D01*
X45743840Y32174719D01*
X45743836Y32174716D01*
X45740037Y32171349D01*
X45737153Y32167172D01*
X45737153Y32167171D01*
X45702349Y32116750D01*
X45659818Y32084792D01*
X45606618Y32084792D01*
X45564089Y32116751D01*
X45526403Y32171349D01*
X45399072Y32284154D01*
X45248445Y32363210D01*
X45243518Y32364425D01*
X45243514Y32364426D01*
X45088207Y32402705D01*
X45088204Y32402706D01*
X45083276Y32403920D01*
X44913164Y32403920D01*
X44908236Y32402706D01*
X44908232Y32402705D01*
X44752925Y32364426D01*
X44752918Y32364424D01*
X44747995Y32363210D01*
X44743503Y32360853D01*
X44743499Y32360851D01*
X44601868Y32286516D01*
X44597368Y32284154D01*
X44593567Y32280788D01*
X44593563Y32280784D01*
X44551655Y32243657D01*
X44503555Y32222878D01*
X44452497Y32234648D01*
X44418587Y32274110D01*
X44417087Y32281651D01*
X44372772Y32347972D01*
X44354202Y32360380D01*
X44313329Y32387691D01*
X44306451Y32392287D01*
X44297573Y32394053D01*
X44252019Y32403115D01*
X44252011Y32403116D01*
X44247968Y32403920D01*
X43208472Y32403920D01*
X43204429Y32403116D01*
X43204420Y32403115D01*
X43158102Y32393901D01*
X43158100Y32393901D01*
X43149989Y32392287D01*
X43143111Y32387692D01*
X43143110Y32387691D01*
X43090548Y32352570D01*
X43090545Y32352568D01*
X43083668Y32347972D01*
X43079072Y32341095D01*
X43079070Y32341092D01*
X43043949Y32288530D01*
X43039353Y32281651D01*
X43037739Y32273540D01*
X43037739Y32273538D01*
X43028525Y32227220D01*
X43028524Y32227211D01*
X43027720Y32223168D01*
X43027720Y31183672D01*
X27367980Y31183672D01*
X27367980Y31215980D01*
X27767480Y31215980D01*
X27769817Y31207258D01*
X27778540Y31204920D01*
X28356420Y31204920D01*
X28365142Y31207258D01*
X28367480Y31215980D01*
X28767480Y31215980D01*
X28769817Y31207258D01*
X28778540Y31204920D01*
X29356420Y31204920D01*
X29365142Y31207258D01*
X29367480Y31215980D01*
X29367480Y31322490D01*
X29367216Y31327187D01*
X29352884Y31454380D01*
X29350799Y31463514D01*
X29294376Y31624765D01*
X29290304Y31633221D01*
X29199410Y31777877D01*
X29193568Y31785203D01*
X29072762Y31906009D01*
X29065436Y31911851D01*
X28920780Y32002745D01*
X28912324Y32006817D01*
X28780189Y32053052D01*
X28770507Y32053233D01*
X28767480Y32044034D01*
X28767480Y31215980D01*
X28367480Y31215980D01*
X28367480Y32044034D01*
X28364452Y32053233D01*
X28354770Y32053052D01*
X28222635Y32006817D01*
X28214179Y32002745D01*
X28069523Y31911851D01*
X28062197Y31906009D01*
X27941391Y31785203D01*
X27935549Y31777877D01*
X27844655Y31633221D01*
X27840583Y31624765D01*
X27784160Y31463514D01*
X27782075Y31454380D01*
X27767743Y31327187D01*
X27767480Y31322490D01*
X27767480Y31215980D01*
X27367980Y31215980D01*
X27367980Y31324874D01*
X27352848Y31459175D01*
X27293269Y31629442D01*
X27197296Y31782182D01*
X27069742Y31909736D01*
X26996417Y31955809D01*
X26920999Y32003198D01*
X26920995Y32003200D01*
X26917002Y32005709D01*
X26912548Y32007268D01*
X26912543Y32007270D01*
X26751185Y32063731D01*
X26751183Y32063732D01*
X26746735Y32065288D01*
X26742053Y32065816D01*
X26742051Y32065816D01*
X26577545Y32084351D01*
X26567480Y32085485D01*
X26557415Y32084351D01*
X26392908Y32065816D01*
X26392904Y32065816D01*
X26388225Y32065288D01*
X26383777Y32063732D01*
X26383774Y32063731D01*
X26222416Y32007270D01*
X26222407Y32007267D01*
X26217958Y32005709D01*
X26213967Y32003202D01*
X26213960Y32003198D01*
X26069209Y31912244D01*
X26065218Y31909736D01*
X26061887Y31906406D01*
X26061883Y31906402D01*
X25940998Y31785517D01*
X25940994Y31785513D01*
X25937664Y31782182D01*
X25935157Y31778193D01*
X25935156Y31778191D01*
X25844202Y31633440D01*
X25844198Y31633433D01*
X25841691Y31629442D01*
X25840133Y31624993D01*
X25840130Y31624984D01*
X25783669Y31463626D01*
X25782112Y31459175D01*
X25781584Y31454496D01*
X25781584Y31454492D01*
X25767243Y31327215D01*
X25767242Y31327202D01*
X25766980Y31324874D01*
X25766980Y30684966D01*
X25367980Y30684966D01*
X25367980Y31324874D01*
X25352848Y31459175D01*
X25293269Y31629442D01*
X25197296Y31782182D01*
X25069742Y31909736D01*
X24996417Y31955809D01*
X24920999Y32003198D01*
X24920995Y32003200D01*
X24917002Y32005709D01*
X24912548Y32007268D01*
X24912543Y32007270D01*
X24751185Y32063731D01*
X24751183Y32063732D01*
X24746735Y32065288D01*
X24742053Y32065816D01*
X24742051Y32065816D01*
X24577545Y32084351D01*
X24567480Y32085485D01*
X24557415Y32084351D01*
X24392908Y32065816D01*
X24392904Y32065816D01*
X24388225Y32065288D01*
X24383777Y32063732D01*
X24383774Y32063731D01*
X24222416Y32007270D01*
X24222407Y32007267D01*
X24217958Y32005709D01*
X24213967Y32003202D01*
X24213960Y32003198D01*
X24069209Y31912244D01*
X24065218Y31909736D01*
X24061887Y31906406D01*
X24061883Y31906402D01*
X23940998Y31785517D01*
X23940994Y31785513D01*
X23937664Y31782182D01*
X23935157Y31778193D01*
X23935156Y31778191D01*
X23844202Y31633440D01*
X23844198Y31633433D01*
X23841691Y31629442D01*
X23840133Y31624993D01*
X23840130Y31624984D01*
X23783669Y31463626D01*
X23782112Y31459175D01*
X23781584Y31454496D01*
X23781584Y31454492D01*
X23767243Y31327215D01*
X23767242Y31327202D01*
X23766980Y31324874D01*
X23766980Y30684966D01*
X23367980Y30684966D01*
X23367980Y31684186D01*
X23365126Y31714619D01*
X23320273Y31842802D01*
X23316535Y31847867D01*
X23316534Y31847869D01*
X23255566Y31930477D01*
X23239630Y31952070D01*
X23234564Y31955809D01*
X23135428Y32028975D01*
X23135423Y32028978D01*
X23130362Y32032713D01*
X23024236Y32069848D01*
X22983473Y32100526D01*
X22967980Y32149134D01*
X22967980Y36410013D01*
X22974374Y36442158D01*
X22992583Y36469410D01*
X23063060Y36539887D01*
X23090312Y36558096D01*
X23122457Y36564490D01*
X24414251Y36564490D01*
X24830811Y36564490D01*
X24893849Y36564490D01*
X53059411Y36564490D01*
X53122449Y36564490D01*
X56654471Y36564490D01*
X56717509Y36564490D01*
X57145783Y36564490D01*
X57177928Y36558096D01*
X57205180Y36539887D01*
X57696083Y36048985D01*
X57719831Y36001544D01*
X57724457Y35969371D01*
X57726135Y35957703D01*
X57728627Y35952246D01*
X57728629Y35952240D01*
X57783427Y35832252D01*
X57785923Y35826787D01*
X57789857Y35822247D01*
X57876234Y35722561D01*
X57876236Y35722559D01*
X57880172Y35718017D01*
X58001247Y35640207D01*
X58139339Y35599660D01*
X58277251Y35599660D01*
X58283261Y35599660D01*
X58421353Y35640207D01*
X58542428Y35718017D01*
X58551137Y35728069D01*
X58583401Y35751045D01*
X58622606Y35756683D01*
X58660037Y35743728D01*
X58765787Y35675767D01*
X58903879Y35635220D01*
X59041791Y35635220D01*
X59047801Y35635220D01*
X59185893Y35675767D01*
X59306968Y35753577D01*
X59401217Y35862347D01*
X59461005Y35993263D01*
X59467142Y36035950D01*
X67353185Y36035950D01*
X67355796Y35987802D01*
X67362597Y35862347D01*
X67362918Y35856439D01*
X67364135Y35852056D01*
X67364136Y35852050D01*
X67402252Y35714770D01*
X67411013Y35683217D01*
X67413142Y35679201D01*
X67413145Y35679194D01*
X67493084Y35528414D01*
X67495221Y35524384D01*
X67498172Y35520910D01*
X67587872Y35415306D01*
X67611605Y35387366D01*
X67754722Y35278571D01*
X67917881Y35203086D01*
X68093453Y35164440D01*
X68225882Y35164440D01*
X68228156Y35164440D01*
X68362061Y35179003D01*
X68532425Y35236405D01*
X68686466Y35329089D01*
X68816982Y35452720D01*
X68917869Y35601517D01*
X68984410Y35768524D01*
X69013495Y35945930D01*
X69003762Y36125441D01*
X68955667Y36298663D01*
X68912352Y36380363D01*
X68873595Y36453467D01*
X68871459Y36457496D01*
X68801476Y36539887D01*
X68758021Y36591046D01*
X68758019Y36591048D01*
X68755075Y36594514D01*
X68611958Y36703309D01*
X68607827Y36705221D01*
X68607824Y36705222D01*
X68452934Y36776881D01*
X68452933Y36776882D01*
X68448799Y36778794D01*
X68444350Y36779774D01*
X68444348Y36779774D01*
X68277671Y36816462D01*
X68277669Y36816463D01*
X68273227Y36817440D01*
X68138524Y36817440D01*
X68136275Y36817196D01*
X68136267Y36817195D01*
X68009145Y36803370D01*
X68009138Y36803369D01*
X68004619Y36802877D01*
X68000306Y36801425D01*
X68000302Y36801423D01*
X67838573Y36746931D01*
X67838564Y36746927D01*
X67834255Y36745475D01*
X67830358Y36743131D01*
X67830351Y36743127D01*
X67684112Y36655137D01*
X67684107Y36655134D01*
X67680214Y36652791D01*
X67676920Y36649672D01*
X67676911Y36649664D01*
X67553001Y36532290D01*
X67552995Y36532284D01*
X67549698Y36529160D01*
X67547147Y36525399D01*
X67547143Y36525393D01*
X67451365Y36384131D01*
X67451362Y36384126D01*
X67448811Y36380363D01*
X67447127Y36376138D01*
X67447125Y36376133D01*
X67383955Y36217587D01*
X67383953Y36217581D01*
X67382270Y36213356D01*
X67381533Y36208864D01*
X67381533Y36208862D01*
X67353922Y36040450D01*
X67353921Y36040444D01*
X67353185Y36035950D01*
X59467142Y36035950D01*
X59481487Y36135720D01*
X59461005Y36278177D01*
X59401217Y36409093D01*
X59356265Y36460971D01*
X59310905Y36513320D01*
X59310902Y36513322D01*
X59306968Y36517863D01*
X59301911Y36521113D01*
X59301910Y36521114D01*
X59244364Y36558096D01*
X59185893Y36595673D01*
X59180125Y36597367D01*
X59180122Y36597368D01*
X59059783Y36632702D01*
X59024051Y36653902D01*
X58486850Y37191103D01*
X58463861Y37234112D01*
X58468641Y37282645D01*
X58499579Y37320343D01*
X58546247Y37334500D01*
X69520500Y37334500D01*
X69562500Y37323246D01*
X69593246Y37292500D01*
X69604500Y37250500D01*
X69604500Y8274000D01*
X69593246Y8232000D01*
X69562500Y8201254D01*
X69520500Y8190000D01*
X60784500Y8190000D01*
X60742500Y8201254D01*
X60711754Y8232000D01*
X60700500Y8274000D01*
X60700500Y8793477D01*
X60705796Y8822832D01*
X60721017Y8848485D01*
X60722305Y8849971D01*
X60737257Y8867227D01*
X60739826Y8872851D01*
X60744393Y8882852D01*
X60758759Y8914312D01*
X60783241Y8945443D01*
X60819269Y8961897D01*
X60858831Y8960013D01*
X60952203Y8932596D01*
X61090115Y8932596D01*
X61096125Y8932596D01*
X61234217Y8973143D01*
X61355292Y9050953D01*
X61449541Y9159723D01*
X61509329Y9290639D01*
X61529811Y9433096D01*
X61509329Y9575553D01*
X61449541Y9706469D01*
X61381121Y9785431D01*
X61359229Y9810696D01*
X61359226Y9810698D01*
X61355292Y9815239D01*
X61350235Y9818489D01*
X61350234Y9818490D01*
X61240822Y9888804D01*
X61234217Y9893049D01*
X61228449Y9894743D01*
X61228446Y9894744D01*
X61101893Y9931903D01*
X61101888Y9931904D01*
X61096125Y9933596D01*
X60961293Y9933596D01*
X60908283Y9952735D01*
X60907338Y9953680D01*
X60904131Y9955877D01*
X60901149Y9958353D01*
X60901227Y9958448D01*
X60897555Y9961358D01*
X60882818Y9974792D01*
X60882815Y9974794D01*
X60877065Y9980036D01*
X60867262Y9983834D01*
X60850151Y9992854D01*
X60841482Y9998792D01*
X60833908Y10000574D01*
X60833905Y10000575D01*
X60814499Y10005139D01*
X60803390Y10008579D01*
X60784794Y10015783D01*
X60784791Y10015784D01*
X60777534Y10018595D01*
X60769749Y10018595D01*
X60767031Y10018595D01*
X60747799Y10020826D01*
X60745152Y10021449D01*
X60745150Y10021450D01*
X60737578Y10023230D01*
X60729871Y10022155D01*
X60729869Y10022155D01*
X60710130Y10019401D01*
X60698524Y10018595D01*
X56125314Y10018595D01*
X55725602Y10018595D01*
X55719907Y10018991D01*
X55714642Y10020755D01*
X55706865Y10020396D01*
X55706861Y10020396D01*
X55669872Y10018685D01*
X55665992Y10018595D01*
X55648061Y10018595D01*
X55644246Y10017883D01*
X55640379Y10017524D01*
X55640367Y10017645D01*
X55635709Y10017106D01*
X55615792Y10016185D01*
X55615789Y10016185D01*
X55608018Y10015825D01*
X55600903Y10012685D01*
X55600895Y10012682D01*
X55598398Y10011579D01*
X55579925Y10005859D01*
X55577248Y10005359D01*
X55577242Y10005358D01*
X55569594Y10003927D01*
X55562978Y9999831D01*
X55562976Y9999830D01*
X55546021Y9989332D01*
X55535737Y9983912D01*
X55510374Y9972712D01*
X55504873Y9967212D01*
X55504868Y9967208D01*
X55502943Y9965282D01*
X55487775Y9953268D01*
X55485460Y9951836D01*
X55485451Y9951828D01*
X55478843Y9947736D01*
X55474155Y9941530D01*
X55474151Y9941525D01*
X55462136Y9925615D01*
X55454502Y9916842D01*
X55449148Y9911488D01*
X55413417Y9890288D01*
X55371897Y9888804D01*
X55336327Y9906608D01*
X55334408Y9908823D01*
X55213333Y9986633D01*
X55207565Y9988327D01*
X55207562Y9988328D01*
X55081009Y10025487D01*
X55081004Y10025488D01*
X55075241Y10027180D01*
X54931319Y10027180D01*
X54925556Y10025488D01*
X54925550Y10025487D01*
X54798997Y9988328D01*
X54798992Y9988326D01*
X54793227Y9986633D01*
X54788169Y9983383D01*
X54788168Y9983382D01*
X54679650Y9913642D01*
X54627188Y9900603D01*
X54577645Y9922230D01*
X54559982Y9938332D01*
X54557176Y9941012D01*
X54547254Y9950934D01*
X54544508Y9953680D01*
X54541302Y9955877D01*
X54538318Y9958354D01*
X54538396Y9958449D01*
X54534725Y9961358D01*
X54519988Y9974792D01*
X54519985Y9974794D01*
X54514235Y9980036D01*
X54504432Y9983834D01*
X54487321Y9992854D01*
X54478652Y9998792D01*
X54471078Y10000574D01*
X54471075Y10000575D01*
X54451669Y10005139D01*
X54440560Y10008579D01*
X54421964Y10015783D01*
X54421961Y10015784D01*
X54414704Y10018595D01*
X54406919Y10018595D01*
X54404201Y10018595D01*
X54384969Y10020826D01*
X54382322Y10021449D01*
X54382320Y10021450D01*
X54374748Y10023230D01*
X54367041Y10022155D01*
X54367039Y10022155D01*
X54347300Y10019401D01*
X54335694Y10018595D01*
X53670484Y10018595D01*
X51095182Y10018595D01*
X51089487Y10018991D01*
X51084222Y10020755D01*
X51076445Y10020396D01*
X51076441Y10020396D01*
X51039452Y10018685D01*
X51035572Y10018595D01*
X51017641Y10018595D01*
X51013826Y10017883D01*
X51009959Y10017524D01*
X51009947Y10017645D01*
X51005289Y10017106D01*
X50981195Y10015992D01*
X50977598Y10015826D01*
X50977568Y10016489D01*
X50942823Y10017438D01*
X50915408Y10025488D01*
X50915399Y10025490D01*
X50909641Y10027180D01*
X50765719Y10027180D01*
X50759956Y10025488D01*
X50759950Y10025487D01*
X50633397Y9988328D01*
X50633392Y9988326D01*
X50627627Y9986633D01*
X50622569Y9983383D01*
X50622568Y9983382D01*
X50511609Y9912074D01*
X50511606Y9912071D01*
X50506552Y9908823D01*
X50502620Y9904286D01*
X50502614Y9904280D01*
X50416237Y9804594D01*
X50416234Y9804591D01*
X50412303Y9800053D01*
X50409809Y9794593D01*
X50409807Y9794589D01*
X50358657Y9682587D01*
X50352515Y9669137D01*
X50351661Y9663198D01*
X50351660Y9663194D01*
X50337675Y9565923D01*
X50332033Y9526680D01*
X50332888Y9520733D01*
X50351601Y9390574D01*
X50352515Y9384223D01*
X50355009Y9378762D01*
X50408390Y9261874D01*
X50412303Y9253307D01*
X50416237Y9248767D01*
X50502614Y9149081D01*
X50502616Y9149079D01*
X50506552Y9144537D01*
X50627627Y9066727D01*
X50765719Y9026180D01*
X50903631Y9026180D01*
X50909641Y9026180D01*
X51047733Y9066727D01*
X51168808Y9144537D01*
X51173565Y9150028D01*
X51174618Y9150705D01*
X51177282Y9153012D01*
X51177613Y9152630D01*
X51213382Y9175619D01*
X51260714Y9175621D01*
X51300533Y9150032D01*
X51320196Y9106977D01*
X51336084Y8996467D01*
X51338035Y8982903D01*
X51340529Y8977442D01*
X51395244Y8857633D01*
X51397823Y8851987D01*
X51401756Y8847448D01*
X51405005Y8842393D01*
X51404192Y8841871D01*
X51414205Y8824991D01*
X51419500Y8795640D01*
X51419500Y8274000D01*
X51408246Y8232000D01*
X51377500Y8201254D01*
X51335500Y8190000D01*
X50184500Y8190000D01*
X50142500Y8201254D01*
X50111754Y8232000D01*
X50100500Y8274000D01*
X50100500Y8794764D01*
X50105796Y8824118D01*
X50118092Y8844845D01*
X50117955Y8844933D01*
X50120436Y8848794D01*
X50121016Y8849771D01*
X50121022Y8849779D01*
X50125137Y8854527D01*
X50184925Y8985443D01*
X50205407Y9127900D01*
X50184925Y9270357D01*
X50125137Y9401273D01*
X50072648Y9461849D01*
X50034825Y9505500D01*
X50034822Y9505502D01*
X50030888Y9510043D01*
X50025831Y9513293D01*
X50025830Y9513294D01*
X49938878Y9569174D01*
X49909813Y9587853D01*
X49904045Y9589547D01*
X49904042Y9589548D01*
X49777489Y9626707D01*
X49777484Y9626708D01*
X49771721Y9628400D01*
X49627799Y9628400D01*
X49622036Y9626708D01*
X49622030Y9626707D01*
X49495477Y9589548D01*
X49495472Y9589546D01*
X49489707Y9587853D01*
X49484649Y9584603D01*
X49484648Y9584602D01*
X49373689Y9513294D01*
X49373684Y9513290D01*
X49368632Y9510043D01*
X49364700Y9505506D01*
X49364694Y9505500D01*
X49278317Y9405814D01*
X49278314Y9405811D01*
X49274383Y9401273D01*
X49271889Y9395813D01*
X49271887Y9395809D01*
X49217089Y9275819D01*
X49214595Y9270357D01*
X49213741Y9264418D01*
X49213740Y9264414D01*
X49197524Y9151627D01*
X49194113Y9127900D01*
X49194968Y9121953D01*
X49212823Y8997762D01*
X49214595Y8985443D01*
X49217089Y8979982D01*
X49271312Y8861250D01*
X49274383Y8854527D01*
X49278315Y8849989D01*
X49278316Y8849988D01*
X49278985Y8849216D01*
X49281058Y8845722D01*
X49281565Y8844933D01*
X49281536Y8844915D01*
X49294204Y8823564D01*
X49299500Y8794210D01*
X49299500Y8274000D01*
X49288246Y8232000D01*
X49257500Y8201254D01*
X49215500Y8190000D01*
X48064500Y8190000D01*
X48022500Y8201254D01*
X47991754Y8232000D01*
X47980500Y8274000D01*
X47980500Y8793263D01*
X47985796Y8822618D01*
X47997398Y8842173D01*
X47997055Y8842393D01*
X48000303Y8847447D01*
X48004237Y8851987D01*
X48064025Y8982903D01*
X48084507Y9125360D01*
X48082440Y9139733D01*
X48079029Y9163460D01*
X48064025Y9267817D01*
X48004237Y9398733D01*
X47951748Y9459309D01*
X47913925Y9502960D01*
X47913922Y9502962D01*
X47909988Y9507503D01*
X47904931Y9510753D01*
X47904930Y9510754D01*
X47833787Y9556474D01*
X47788913Y9585313D01*
X47783145Y9587007D01*
X47783142Y9587008D01*
X47656589Y9624167D01*
X47656584Y9624168D01*
X47650821Y9625860D01*
X47506899Y9625860D01*
X47501136Y9624168D01*
X47501130Y9624167D01*
X47374577Y9587008D01*
X47374572Y9587006D01*
X47368807Y9585313D01*
X47363749Y9582063D01*
X47363748Y9582062D01*
X47252789Y9510754D01*
X47252784Y9510750D01*
X47247732Y9507503D01*
X47243800Y9502966D01*
X47243794Y9502960D01*
X47157417Y9403274D01*
X47157414Y9403271D01*
X47153483Y9398733D01*
X47150989Y9393273D01*
X47150987Y9393269D01*
X47097349Y9275819D01*
X47093695Y9267817D01*
X47092841Y9261878D01*
X47092840Y9261874D01*
X47075164Y9138927D01*
X47073213Y9125360D01*
X47074068Y9119413D01*
X47091744Y8996467D01*
X47093695Y8982903D01*
X47153483Y8851987D01*
X47157415Y8847449D01*
X47157416Y8847448D01*
X47158982Y8845641D01*
X47174203Y8819987D01*
X47179500Y8790631D01*
X47179500Y8274000D01*
X47168246Y8232000D01*
X47137500Y8201254D01*
X47095500Y8190000D01*
X45944500Y8190000D01*
X45902500Y8201254D01*
X45871754Y8232000D01*
X45860500Y8274000D01*
X45860500Y8784141D01*
X45865795Y8813493D01*
X45876703Y8831881D01*
X45876155Y8832233D01*
X45879403Y8837287D01*
X45883337Y8841827D01*
X45943125Y8972743D01*
X45963607Y9115200D01*
X45961540Y9129573D01*
X45958225Y9152630D01*
X45943125Y9257657D01*
X45883337Y9388573D01*
X45823913Y9457153D01*
X45793025Y9492800D01*
X45793022Y9492802D01*
X45789088Y9497343D01*
X45784031Y9500593D01*
X45784030Y9500594D01*
X45677587Y9569000D01*
X45668013Y9575153D01*
X45662245Y9576847D01*
X45662242Y9576848D01*
X45535689Y9614007D01*
X45535684Y9614008D01*
X45529921Y9615700D01*
X45385999Y9615700D01*
X45380236Y9614008D01*
X45380230Y9614007D01*
X45253677Y9576848D01*
X45253672Y9576846D01*
X45247907Y9575153D01*
X45242849Y9571903D01*
X45242848Y9571902D01*
X45131889Y9500594D01*
X45131884Y9500590D01*
X45126832Y9497343D01*
X45122900Y9492806D01*
X45122894Y9492800D01*
X45036517Y9393114D01*
X45036514Y9393111D01*
X45032583Y9388573D01*
X45030089Y9383113D01*
X45030087Y9383109D01*
X44975289Y9263119D01*
X44972795Y9257657D01*
X44971941Y9251718D01*
X44971940Y9251714D01*
X44954139Y9127900D01*
X44952313Y9115200D01*
X44953168Y9109253D01*
X44971023Y8985062D01*
X44972795Y8972743D01*
X44975289Y8967282D01*
X45029208Y8849216D01*
X45032583Y8841827D01*
X45036517Y8837287D01*
X45038983Y8834441D01*
X45054204Y8808788D01*
X45059500Y8779433D01*
X45059500Y8274000D01*
X45048246Y8232000D01*
X45017500Y8201254D01*
X44975500Y8190000D01*
X43824500Y8190000D01*
X43782500Y8201254D01*
X43751754Y8232000D01*
X43740500Y8274000D01*
X43740500Y8843401D01*
X43745796Y8872756D01*
X43761017Y8898409D01*
X43764285Y8902181D01*
X43780217Y8920567D01*
X43840005Y9051483D01*
X43860487Y9193940D01*
X43840005Y9336397D01*
X43780217Y9467313D01*
X43742726Y9510580D01*
X43689905Y9571540D01*
X43689902Y9571542D01*
X43685968Y9576083D01*
X43680911Y9579333D01*
X43680910Y9579334D01*
X43616418Y9620780D01*
X43564893Y9653893D01*
X43559125Y9655587D01*
X43559122Y9655588D01*
X43432569Y9692747D01*
X43432564Y9692748D01*
X43426801Y9694440D01*
X43282879Y9694440D01*
X43277116Y9692748D01*
X43277110Y9692747D01*
X43150557Y9655588D01*
X43150552Y9655586D01*
X43144787Y9653893D01*
X43139729Y9650643D01*
X43139728Y9650642D01*
X43028769Y9579334D01*
X43028764Y9579330D01*
X43023712Y9576083D01*
X43019780Y9571546D01*
X43019774Y9571540D01*
X42933397Y9471854D01*
X42933394Y9471851D01*
X42929463Y9467313D01*
X42926969Y9461853D01*
X42926967Y9461849D01*
X42875649Y9349479D01*
X42869675Y9336397D01*
X42868821Y9330458D01*
X42868820Y9330454D01*
X42854813Y9233029D01*
X42849193Y9193940D01*
X42850048Y9187993D01*
X42867726Y9065033D01*
X42869675Y9051483D01*
X42872169Y9046022D01*
X42929463Y8920567D01*
X42928293Y8920033D01*
X42939500Y8881866D01*
X42939500Y8274000D01*
X42928246Y8232000D01*
X42897500Y8201254D01*
X42855500Y8190000D01*
X41704500Y8190000D01*
X41662500Y8201254D01*
X41631754Y8232000D01*
X41620500Y8274000D01*
X41620500Y8790317D01*
X41625796Y8819672D01*
X41641017Y8845325D01*
X41641361Y8845722D01*
X41664397Y8872307D01*
X41724185Y9003223D01*
X41744667Y9145680D01*
X41724185Y9288137D01*
X41664397Y9419053D01*
X41612042Y9479474D01*
X41574085Y9523280D01*
X41574082Y9523282D01*
X41570148Y9527823D01*
X41565091Y9531073D01*
X41565090Y9531074D01*
X41502123Y9571540D01*
X41449073Y9605633D01*
X41443305Y9607327D01*
X41443302Y9607328D01*
X41316749Y9644487D01*
X41316744Y9644488D01*
X41310981Y9646180D01*
X41167059Y9646180D01*
X41161296Y9644488D01*
X41161290Y9644487D01*
X41034737Y9607328D01*
X41034732Y9607326D01*
X41028967Y9605633D01*
X41023909Y9602383D01*
X41023908Y9602382D01*
X40912949Y9531074D01*
X40912944Y9531070D01*
X40907892Y9527823D01*
X40903960Y9523286D01*
X40903954Y9523280D01*
X40817577Y9423594D01*
X40817574Y9423591D01*
X40813643Y9419053D01*
X40811149Y9413593D01*
X40811147Y9413589D01*
X40758669Y9298679D01*
X40753855Y9288137D01*
X40753001Y9282198D01*
X40753000Y9282194D01*
X40735805Y9162593D01*
X40733373Y9145680D01*
X40734228Y9139733D01*
X40752083Y9015542D01*
X40753855Y9003223D01*
X40801722Y8898409D01*
X40811909Y8876104D01*
X40819500Y8841209D01*
X40819500Y8274000D01*
X40808246Y8232000D01*
X40777500Y8201254D01*
X40735500Y8190000D01*
X39584500Y8190000D01*
X39542500Y8201254D01*
X39511754Y8232000D01*
X39500500Y8274000D01*
X39500500Y8806795D01*
X39505796Y8836150D01*
X39518540Y8857630D01*
X39518535Y8857633D01*
X39518629Y8857781D01*
X39521014Y8861801D01*
X39525717Y8867227D01*
X39585505Y8998143D01*
X39605987Y9140600D01*
X39585505Y9283057D01*
X39525717Y9413973D01*
X39488302Y9457153D01*
X39435405Y9518200D01*
X39435402Y9518202D01*
X39431468Y9522743D01*
X39426411Y9525993D01*
X39426410Y9525994D01*
X39364278Y9565923D01*
X39310393Y9600553D01*
X39304625Y9602247D01*
X39304622Y9602248D01*
X39178069Y9639407D01*
X39178064Y9639408D01*
X39172301Y9641100D01*
X39028379Y9641100D01*
X39022616Y9639408D01*
X39022610Y9639407D01*
X38896057Y9602248D01*
X38896052Y9602246D01*
X38890287Y9600553D01*
X38885229Y9597303D01*
X38885228Y9597302D01*
X38774269Y9525994D01*
X38774264Y9525990D01*
X38769212Y9522743D01*
X38765280Y9518206D01*
X38765274Y9518200D01*
X38678897Y9418514D01*
X38678894Y9418511D01*
X38674963Y9413973D01*
X38672469Y9408513D01*
X38672467Y9408509D01*
X38617669Y9288519D01*
X38615175Y9283057D01*
X38614321Y9277118D01*
X38614320Y9277114D01*
X38596423Y9152630D01*
X38594693Y9140600D01*
X38595548Y9134653D01*
X38612983Y9013383D01*
X38615175Y8998143D01*
X38674963Y8867227D01*
X38678895Y8862689D01*
X38678896Y8862688D01*
X38678981Y8862590D01*
X38679243Y8862148D01*
X38682146Y8857631D01*
X38681984Y8857528D01*
X38694203Y8836935D01*
X38699500Y8807579D01*
X38699500Y8274000D01*
X38688246Y8232000D01*
X38657500Y8201254D01*
X38615500Y8190000D01*
X37464500Y8190000D01*
X37422500Y8201254D01*
X37391754Y8232000D01*
X37380500Y8274000D01*
X37380500Y8764063D01*
X37385796Y8793418D01*
X37401017Y8819071D01*
X37425137Y8846907D01*
X37484925Y8977823D01*
X37505407Y9120280D01*
X37503340Y9134653D01*
X37501630Y9146547D01*
X37484925Y9262737D01*
X37425137Y9393653D01*
X37387722Y9436833D01*
X37334825Y9497880D01*
X37334822Y9497882D01*
X37330888Y9502423D01*
X37325831Y9505673D01*
X37325830Y9505674D01*
X37262863Y9546140D01*
X37209813Y9580233D01*
X37204045Y9581927D01*
X37204042Y9581928D01*
X37077489Y9619087D01*
X37077484Y9619088D01*
X37071721Y9620780D01*
X36927799Y9620780D01*
X36922036Y9619088D01*
X36922030Y9619087D01*
X36795477Y9581928D01*
X36795472Y9581926D01*
X36789707Y9580233D01*
X36784649Y9576983D01*
X36784648Y9576982D01*
X36673689Y9505674D01*
X36673684Y9505670D01*
X36668632Y9502423D01*
X36664700Y9497886D01*
X36664694Y9497880D01*
X36578317Y9398194D01*
X36578314Y9398191D01*
X36574383Y9393653D01*
X36571889Y9388193D01*
X36571887Y9388189D01*
X36517515Y9269131D01*
X36514595Y9262737D01*
X36513741Y9256798D01*
X36513740Y9256794D01*
X36496064Y9133847D01*
X36494113Y9120280D01*
X36494968Y9114333D01*
X36512644Y8991387D01*
X36514595Y8977823D01*
X36517089Y8972362D01*
X36571909Y8852324D01*
X36579500Y8817429D01*
X36579500Y8274000D01*
X36568246Y8232000D01*
X36537500Y8201254D01*
X36495500Y8190000D01*
X35344500Y8190000D01*
X35302500Y8201254D01*
X35271754Y8232000D01*
X35260500Y8274000D01*
X35260500Y8810238D01*
X35265796Y8839593D01*
X35281014Y8865243D01*
X35291537Y8877387D01*
X35351325Y9008303D01*
X35371807Y9150760D01*
X35369740Y9165133D01*
X35368030Y9177027D01*
X35351325Y9293217D01*
X35291537Y9424133D01*
X35252388Y9469314D01*
X35201225Y9528360D01*
X35201222Y9528362D01*
X35197288Y9532903D01*
X35192231Y9536153D01*
X35192230Y9536154D01*
X35128908Y9576848D01*
X35076213Y9610713D01*
X35070445Y9612407D01*
X35070442Y9612408D01*
X34943889Y9649567D01*
X34943884Y9649568D01*
X34938121Y9651260D01*
X34794199Y9651260D01*
X34788436Y9649568D01*
X34788430Y9649567D01*
X34661877Y9612408D01*
X34661872Y9612406D01*
X34656107Y9610713D01*
X34651049Y9607463D01*
X34651048Y9607462D01*
X34540089Y9536154D01*
X34540084Y9536150D01*
X34535032Y9532903D01*
X34531100Y9528366D01*
X34531094Y9528360D01*
X34444717Y9428674D01*
X34444714Y9428671D01*
X34440783Y9424133D01*
X34438289Y9418673D01*
X34438287Y9418669D01*
X34383489Y9298679D01*
X34380995Y9293217D01*
X34380141Y9287278D01*
X34380140Y9287274D01*
X34362339Y9163460D01*
X34360513Y9150760D01*
X34361368Y9144813D01*
X34379223Y9020622D01*
X34380995Y9008303D01*
X34383489Y9002842D01*
X34437112Y8885424D01*
X34440783Y8877387D01*
X34444713Y8872851D01*
X34446167Y8870589D01*
X34459500Y8825178D01*
X34459500Y8274000D01*
X34448246Y8232000D01*
X34417500Y8201254D01*
X34375500Y8190000D01*
X33224500Y8190000D01*
X33182500Y8201254D01*
X33151754Y8232000D01*
X33140500Y8274000D01*
X33140500Y8801898D01*
X33145796Y8831251D01*
X33158416Y8852524D01*
X33158374Y8852551D01*
X33159135Y8853737D01*
X33161015Y8856904D01*
X33161620Y8857603D01*
X33161623Y8857607D01*
X33165557Y8862147D01*
X33225345Y8993063D01*
X33245827Y9135520D01*
X33243760Y9149893D01*
X33242050Y9161787D01*
X33225345Y9277977D01*
X33165557Y9408893D01*
X33113068Y9469469D01*
X33075245Y9513120D01*
X33075242Y9513122D01*
X33071308Y9517663D01*
X33066251Y9520913D01*
X33066250Y9520914D01*
X32991155Y9569174D01*
X32950233Y9595473D01*
X32944465Y9597167D01*
X32944462Y9597168D01*
X32817909Y9634327D01*
X32817904Y9634328D01*
X32812141Y9636020D01*
X32668219Y9636020D01*
X32662456Y9634328D01*
X32662450Y9634327D01*
X32535897Y9597168D01*
X32535892Y9597166D01*
X32530127Y9595473D01*
X32525069Y9592223D01*
X32525068Y9592222D01*
X32414109Y9520914D01*
X32414104Y9520910D01*
X32409052Y9517663D01*
X32405120Y9513126D01*
X32405114Y9513120D01*
X32318737Y9413434D01*
X32318734Y9413431D01*
X32314803Y9408893D01*
X32312309Y9403433D01*
X32312307Y9403429D01*
X32257509Y9283439D01*
X32255015Y9277977D01*
X32254161Y9272038D01*
X32254160Y9272034D01*
X32236483Y9149081D01*
X32234533Y9135520D01*
X32235388Y9129573D01*
X32252878Y9007922D01*
X32255015Y8993063D01*
X32257509Y8987602D01*
X32310947Y8870589D01*
X32314803Y8862147D01*
X32318736Y8857608D01*
X32318737Y8857607D01*
X32318983Y8857323D01*
X32319747Y8856036D01*
X32321985Y8852553D01*
X32321860Y8852474D01*
X32334204Y8831670D01*
X32339500Y8802315D01*
X32339500Y8274000D01*
X32328246Y8232000D01*
X32297500Y8201254D01*
X32255500Y8190000D01*
X31104500Y8190000D01*
X31062500Y8201254D01*
X31031754Y8232000D01*
X31020500Y8274000D01*
X31020500Y8802938D01*
X31025796Y8832292D01*
X31037722Y8852394D01*
X31037475Y8852553D01*
X31040723Y8857607D01*
X31044657Y8862147D01*
X31104445Y8993063D01*
X31124927Y9135520D01*
X31122860Y9149893D01*
X31121150Y9161787D01*
X31104445Y9277977D01*
X31044657Y9408893D01*
X30992168Y9469469D01*
X30954345Y9513120D01*
X30954342Y9513122D01*
X30950408Y9517663D01*
X30945351Y9520913D01*
X30945350Y9520914D01*
X30870255Y9569174D01*
X30829333Y9595473D01*
X30823565Y9597167D01*
X30823562Y9597168D01*
X30697009Y9634327D01*
X30697004Y9634328D01*
X30691241Y9636020D01*
X30547319Y9636020D01*
X30541556Y9634328D01*
X30541550Y9634327D01*
X30414997Y9597168D01*
X30414992Y9597166D01*
X30409227Y9595473D01*
X30404169Y9592223D01*
X30404168Y9592222D01*
X30293209Y9520914D01*
X30293204Y9520910D01*
X30288152Y9517663D01*
X30284220Y9513126D01*
X30284214Y9513120D01*
X30197837Y9413434D01*
X30197834Y9413431D01*
X30193903Y9408893D01*
X30191409Y9403433D01*
X30191407Y9403429D01*
X30136609Y9283439D01*
X30134115Y9277977D01*
X30133261Y9272038D01*
X30133260Y9272034D01*
X30115583Y9149081D01*
X30113633Y9135520D01*
X30114488Y9129573D01*
X30131978Y9007922D01*
X30134115Y8993063D01*
X30136609Y8987602D01*
X30190047Y8870589D01*
X30193903Y8862147D01*
X30197835Y8857609D01*
X30197836Y8857608D01*
X30198985Y8856282D01*
X30214204Y8830630D01*
X30219500Y8801276D01*
X30219500Y8274000D01*
X30208246Y8232000D01*
X30177500Y8201254D01*
X30135500Y8190000D01*
X28984500Y8190000D01*
X28942500Y8201254D01*
X28911754Y8232000D01*
X28900500Y8274000D01*
X28900500Y8824892D01*
X28913542Y8869314D01*
X28916137Y8872307D01*
X28975925Y9003223D01*
X28996407Y9145680D01*
X28975925Y9288137D01*
X28916137Y9419053D01*
X28863782Y9479474D01*
X28825825Y9523280D01*
X28825822Y9523282D01*
X28821888Y9527823D01*
X28816831Y9531073D01*
X28816830Y9531074D01*
X28753863Y9571540D01*
X28700813Y9605633D01*
X28695045Y9607327D01*
X28695042Y9607328D01*
X28568489Y9644487D01*
X28568484Y9644488D01*
X28562721Y9646180D01*
X28418799Y9646180D01*
X28413036Y9644488D01*
X28413030Y9644487D01*
X28286477Y9607328D01*
X28286472Y9607326D01*
X28280707Y9605633D01*
X28275649Y9602383D01*
X28275648Y9602382D01*
X28164689Y9531074D01*
X28164684Y9531070D01*
X28159632Y9527823D01*
X28155700Y9523286D01*
X28155694Y9523280D01*
X28069317Y9423594D01*
X28069314Y9423591D01*
X28065383Y9419053D01*
X28062889Y9413593D01*
X28062887Y9413589D01*
X28010409Y9298679D01*
X28005595Y9288137D01*
X28004741Y9282198D01*
X28004740Y9282194D01*
X27987545Y9162593D01*
X27985113Y9145680D01*
X27985968Y9139733D01*
X28003823Y9015542D01*
X28005595Y9003223D01*
X28008089Y8997762D01*
X28061017Y8881866D01*
X28065383Y8872307D01*
X28078985Y8856610D01*
X28094204Y8830959D01*
X28099500Y8801604D01*
X28099500Y8274000D01*
X28088246Y8232000D01*
X28057500Y8201254D01*
X28015500Y8190000D01*
X26864500Y8190000D01*
X26822500Y8201254D01*
X26791754Y8232000D01*
X26780500Y8274000D01*
X26780500Y8779025D01*
X26785796Y8808380D01*
X26801017Y8834033D01*
X26801636Y8834747D01*
X26823177Y8859607D01*
X26882965Y8990523D01*
X26903447Y9132980D01*
X26882965Y9275437D01*
X26823177Y9406353D01*
X26786229Y9448994D01*
X26732865Y9510580D01*
X26732862Y9510582D01*
X26728928Y9515123D01*
X26723871Y9518373D01*
X26723870Y9518374D01*
X26664584Y9556474D01*
X26607853Y9592933D01*
X26602085Y9594627D01*
X26602082Y9594628D01*
X26475529Y9631787D01*
X26475524Y9631788D01*
X26469761Y9633480D01*
X26325839Y9633480D01*
X26320076Y9631788D01*
X26320070Y9631787D01*
X26193517Y9594628D01*
X26193512Y9594626D01*
X26187747Y9592933D01*
X26182689Y9589683D01*
X26182688Y9589682D01*
X26071729Y9518374D01*
X26071724Y9518370D01*
X26066672Y9515123D01*
X26062740Y9510586D01*
X26062734Y9510580D01*
X25976357Y9410894D01*
X25976354Y9410891D01*
X25972423Y9406353D01*
X25969929Y9400893D01*
X25969927Y9400889D01*
X25915129Y9280899D01*
X25912635Y9275437D01*
X25911781Y9269498D01*
X25911780Y9269494D01*
X25894104Y9146547D01*
X25892153Y9132980D01*
X25893008Y9127033D01*
X25910863Y9002842D01*
X25912635Y8990523D01*
X25915129Y8985062D01*
X25971909Y8860732D01*
X25979500Y8825837D01*
X25979500Y8274000D01*
X25968246Y8232000D01*
X25937500Y8201254D01*
X25895500Y8190000D01*
X24744500Y8190000D01*
X24702500Y8201254D01*
X24671754Y8232000D01*
X24660500Y8274000D01*
X24660500Y8856070D01*
X24665796Y8885424D01*
X24681015Y8911077D01*
X24681146Y8911229D01*
X24687037Y8918027D01*
X24746825Y9048943D01*
X24767307Y9191400D01*
X24746825Y9333857D01*
X24687037Y9464773D01*
X24647195Y9510754D01*
X24596725Y9569000D01*
X24596722Y9569002D01*
X24592788Y9573543D01*
X24587731Y9576793D01*
X24587730Y9576794D01*
X24527190Y9615700D01*
X24471713Y9651353D01*
X24465945Y9653047D01*
X24465942Y9653048D01*
X24339389Y9690207D01*
X24339384Y9690208D01*
X24333621Y9691900D01*
X24189699Y9691900D01*
X24183936Y9690208D01*
X24183930Y9690207D01*
X24057377Y9653048D01*
X24057372Y9653046D01*
X24051607Y9651353D01*
X24046549Y9648103D01*
X24046548Y9648102D01*
X23935589Y9576794D01*
X23935584Y9576790D01*
X23930532Y9573543D01*
X23926600Y9569006D01*
X23926594Y9569000D01*
X23840217Y9469314D01*
X23840214Y9469311D01*
X23836283Y9464773D01*
X23833789Y9459313D01*
X23833787Y9459309D01*
X23783629Y9349479D01*
X23776495Y9333857D01*
X23775641Y9327918D01*
X23775640Y9327914D01*
X23761368Y9228648D01*
X23756013Y9191400D01*
X23756868Y9185453D01*
X23775552Y9055497D01*
X23776495Y9048943D01*
X23836283Y8918027D01*
X23840217Y8913487D01*
X23843465Y8908433D01*
X23843002Y8908137D01*
X23854204Y8889258D01*
X23859500Y8859903D01*
X23859500Y8274000D01*
X23848246Y8232000D01*
X23817500Y8201254D01*
X23775500Y8190000D01*
X22624500Y8190000D01*
X22582500Y8201254D01*
X22551754Y8232000D01*
X22540500Y8274000D01*
X22540500Y8807676D01*
X22545796Y8837031D01*
X22561017Y8862684D01*
X22563237Y8865246D01*
X22573757Y8877387D01*
X22633545Y9008303D01*
X22654027Y9150760D01*
X22651960Y9165133D01*
X22650250Y9177027D01*
X22633545Y9293217D01*
X22573757Y9424133D01*
X22534608Y9469314D01*
X22483445Y9528360D01*
X22483442Y9528362D01*
X22479508Y9532903D01*
X22474451Y9536153D01*
X22474450Y9536154D01*
X22411128Y9576848D01*
X22358433Y9610713D01*
X22352665Y9612407D01*
X22352662Y9612408D01*
X22226109Y9649567D01*
X22226104Y9649568D01*
X22220341Y9651260D01*
X22076419Y9651260D01*
X22070656Y9649568D01*
X22070650Y9649567D01*
X21944097Y9612408D01*
X21944092Y9612406D01*
X21938327Y9610713D01*
X21933269Y9607463D01*
X21933268Y9607462D01*
X21822309Y9536154D01*
X21822304Y9536150D01*
X21817252Y9532903D01*
X21813320Y9528366D01*
X21813314Y9528360D01*
X21726937Y9428674D01*
X21726934Y9428671D01*
X21723003Y9424133D01*
X21720509Y9418673D01*
X21720507Y9418669D01*
X21665709Y9298679D01*
X21663215Y9293217D01*
X21662361Y9287278D01*
X21662360Y9287274D01*
X21644559Y9163460D01*
X21642733Y9150760D01*
X21643588Y9144813D01*
X21661443Y9020622D01*
X21663215Y9008303D01*
X21665709Y9002842D01*
X21719332Y8885424D01*
X21723003Y8877387D01*
X21726304Y8873577D01*
X21739500Y8828633D01*
X21739500Y8274000D01*
X21728246Y8232000D01*
X21697500Y8201254D01*
X21655500Y8190000D01*
X20504500Y8190000D01*
X20462500Y8201254D01*
X20431754Y8232000D01*
X20420500Y8274000D01*
X20420500Y8865376D01*
X20425796Y8894730D01*
X20441016Y8920383D01*
X20443840Y8923643D01*
X20443840Y8923645D01*
X20447777Y8928187D01*
X20507565Y9059103D01*
X20528047Y9201560D01*
X20507565Y9344017D01*
X20447777Y9474933D01*
X20410286Y9518200D01*
X20357465Y9579160D01*
X20357462Y9579162D01*
X20353528Y9583703D01*
X20348471Y9586953D01*
X20348470Y9586954D01*
X20286612Y9626707D01*
X20232453Y9661513D01*
X20226685Y9663207D01*
X20226682Y9663208D01*
X20100129Y9700367D01*
X20100124Y9700368D01*
X20094361Y9702060D01*
X19950439Y9702060D01*
X19944676Y9700368D01*
X19944670Y9700367D01*
X19818117Y9663208D01*
X19818112Y9663206D01*
X19812347Y9661513D01*
X19807289Y9658263D01*
X19807288Y9658262D01*
X19696329Y9586954D01*
X19696324Y9586950D01*
X19691272Y9583703D01*
X19687340Y9579166D01*
X19687334Y9579160D01*
X19600957Y9479474D01*
X19600954Y9479471D01*
X19597023Y9474933D01*
X19594529Y9469473D01*
X19594527Y9469469D01*
X19539729Y9349479D01*
X19537235Y9344017D01*
X19536381Y9338078D01*
X19536380Y9338074D01*
X19521100Y9231795D01*
X19516753Y9201560D01*
X19517608Y9195613D01*
X19536138Y9066727D01*
X19537235Y9059103D01*
X19597023Y8928187D01*
X19600957Y8923647D01*
X19604205Y8918593D01*
X19603573Y8918188D01*
X19614204Y8900272D01*
X19619500Y8870917D01*
X19619500Y8274000D01*
X19608246Y8232000D01*
X19577500Y8201254D01*
X19535500Y8190000D01*
X18384500Y8190000D01*
X18342500Y8201254D01*
X18311754Y8232000D01*
X18300500Y8274000D01*
X18300500Y8839842D01*
X18305796Y8869197D01*
X18321017Y8894850D01*
X18323492Y8897707D01*
X18334497Y8910407D01*
X18394285Y9041323D01*
X18414767Y9183780D01*
X18394285Y9326237D01*
X18334497Y9457153D01*
X18296914Y9500526D01*
X18244185Y9561380D01*
X18244182Y9561382D01*
X18240248Y9565923D01*
X18235191Y9569173D01*
X18235190Y9569174D01*
X18167774Y9612499D01*
X18119173Y9643733D01*
X18113405Y9645427D01*
X18113402Y9645428D01*
X17986849Y9682587D01*
X17986844Y9682588D01*
X17981081Y9684280D01*
X17837159Y9684280D01*
X17831396Y9682588D01*
X17831390Y9682587D01*
X17704837Y9645428D01*
X17704832Y9645426D01*
X17699067Y9643733D01*
X17694009Y9640483D01*
X17694008Y9640482D01*
X17583049Y9569174D01*
X17583044Y9569170D01*
X17577992Y9565923D01*
X17574060Y9561386D01*
X17574054Y9561380D01*
X17487677Y9461694D01*
X17487674Y9461691D01*
X17483743Y9457153D01*
X17481249Y9451693D01*
X17481247Y9451689D01*
X17427435Y9333857D01*
X17423955Y9326237D01*
X17423101Y9320298D01*
X17423100Y9320294D01*
X17406029Y9201560D01*
X17403473Y9183780D01*
X17404328Y9177833D01*
X17423037Y9047703D01*
X17423955Y9041323D01*
X17483743Y8910407D01*
X17486435Y8907300D01*
X17499500Y8862805D01*
X17499500Y8274000D01*
X17488246Y8232000D01*
X17457500Y8201254D01*
X17415500Y8190000D01*
X16264500Y8190000D01*
X16222500Y8201254D01*
X16191754Y8232000D01*
X16180500Y8274000D01*
X16180500Y8859052D01*
X16185796Y8888407D01*
X16201017Y8914060D01*
X16204454Y8918027D01*
X16211057Y8925647D01*
X16270845Y9056563D01*
X16291327Y9199020D01*
X16270845Y9341477D01*
X16211057Y9472393D01*
X16175616Y9513294D01*
X16120745Y9576620D01*
X16120742Y9576622D01*
X16116808Y9581163D01*
X16111751Y9584413D01*
X16111750Y9584414D01*
X16049892Y9624167D01*
X15995733Y9658973D01*
X15989965Y9660667D01*
X15989962Y9660668D01*
X15863409Y9697827D01*
X15863404Y9697828D01*
X15857641Y9699520D01*
X15713719Y9699520D01*
X15707956Y9697828D01*
X15707950Y9697827D01*
X15581397Y9660668D01*
X15581392Y9660666D01*
X15575627Y9658973D01*
X15570569Y9655723D01*
X15570568Y9655722D01*
X15459609Y9584414D01*
X15459604Y9584410D01*
X15454552Y9581163D01*
X15450620Y9576626D01*
X15450614Y9576620D01*
X15364237Y9476934D01*
X15364234Y9476931D01*
X15360303Y9472393D01*
X15357809Y9466933D01*
X15357807Y9466929D01*
X15304169Y9349479D01*
X15300515Y9341477D01*
X15299661Y9335538D01*
X15299660Y9335534D01*
X15285784Y9239020D01*
X15280033Y9199020D01*
X15280888Y9193073D01*
X15299053Y9066727D01*
X15300515Y9056563D01*
X15360303Y8925647D01*
X15364237Y8921107D01*
X15366166Y8918105D01*
X15379500Y8872692D01*
X15379500Y8274000D01*
X15368246Y8232000D01*
X15337500Y8201254D01*
X15295500Y8190000D01*
X14144500Y8190000D01*
X14102500Y8201254D01*
X14071754Y8232000D01*
X14060500Y8274000D01*
X14060500Y8835082D01*
X14065796Y8864436D01*
X14081014Y8890087D01*
X14087617Y8897707D01*
X14147405Y9028623D01*
X14167887Y9171080D01*
X14165820Y9185453D01*
X14163505Y9201560D01*
X14147405Y9313537D01*
X14087617Y9444453D01*
X14047925Y9490260D01*
X13997305Y9548680D01*
X13997302Y9548682D01*
X13993368Y9553223D01*
X13988311Y9556473D01*
X13988310Y9556474D01*
X13924988Y9597168D01*
X13872293Y9631033D01*
X13866525Y9632727D01*
X13866522Y9632728D01*
X13739969Y9669887D01*
X13739964Y9669888D01*
X13734201Y9671580D01*
X13590279Y9671580D01*
X13584516Y9669888D01*
X13584510Y9669887D01*
X13457957Y9632728D01*
X13457952Y9632726D01*
X13452187Y9631033D01*
X13447129Y9627783D01*
X13447128Y9627782D01*
X13336169Y9556474D01*
X13336164Y9556470D01*
X13331112Y9553223D01*
X13327180Y9548686D01*
X13327174Y9548680D01*
X13240797Y9448994D01*
X13240794Y9448991D01*
X13236863Y9444453D01*
X13234369Y9438993D01*
X13234367Y9438989D01*
X13179569Y9318999D01*
X13177075Y9313537D01*
X13176221Y9307598D01*
X13176220Y9307594D01*
X13158419Y9183780D01*
X13156593Y9171080D01*
X13157448Y9165133D01*
X13174938Y9043482D01*
X13177075Y9028623D01*
X13179569Y9023162D01*
X13231964Y8908433D01*
X13236863Y8897707D01*
X13240797Y8893167D01*
X13244045Y8888113D01*
X13243450Y8887732D01*
X13254205Y8869604D01*
X13259500Y8840252D01*
X13259500Y8274000D01*
X13248246Y8232000D01*
X13217500Y8201254D01*
X13175500Y8190000D01*
X12024500Y8190000D01*
X11982500Y8201254D01*
X11951754Y8232000D01*
X11940500Y8274000D01*
X11940500Y8813061D01*
X11945796Y8842416D01*
X11961014Y8868067D01*
X11984497Y8895167D01*
X12044285Y9026083D01*
X12064767Y9168540D01*
X12044285Y9310997D01*
X11984497Y9441913D01*
X11951950Y9479474D01*
X11894185Y9546140D01*
X11894182Y9546142D01*
X11890248Y9550683D01*
X11885191Y9553933D01*
X11885190Y9553934D01*
X11817707Y9597302D01*
X11769173Y9628493D01*
X11763405Y9630187D01*
X11763402Y9630188D01*
X11636849Y9667347D01*
X11636844Y9667348D01*
X11631081Y9669040D01*
X11487159Y9669040D01*
X11481396Y9667348D01*
X11481390Y9667347D01*
X11354837Y9630188D01*
X11354832Y9630186D01*
X11349067Y9628493D01*
X11344009Y9625243D01*
X11344008Y9625242D01*
X11233049Y9553934D01*
X11233044Y9553930D01*
X11227992Y9550683D01*
X11224060Y9546146D01*
X11224054Y9546140D01*
X11137677Y9446454D01*
X11137674Y9446451D01*
X11133743Y9441913D01*
X11131249Y9436453D01*
X11131247Y9436449D01*
X11077609Y9318999D01*
X11073955Y9310997D01*
X11073101Y9305058D01*
X11073100Y9305054D01*
X11057980Y9199887D01*
X11053473Y9168540D01*
X11054328Y9162593D01*
X11071763Y9041323D01*
X11073955Y9026083D01*
X11125376Y8913487D01*
X11131909Y8899183D01*
X11139500Y8864288D01*
X11139500Y8274000D01*
X11128246Y8232000D01*
X11097500Y8201254D01*
X11055500Y8190000D01*
X9904500Y8190000D01*
X9862500Y8201254D01*
X9831754Y8232000D01*
X9820500Y8274000D01*
X9820500Y8755289D01*
X9825796Y8784644D01*
X9841017Y8810297D01*
X9849064Y8819584D01*
X9866137Y8839287D01*
X9925925Y8970203D01*
X9946407Y9112660D01*
X9944340Y9127033D01*
X9942630Y9138927D01*
X9925925Y9255117D01*
X9866137Y9386033D01*
X9812794Y9447595D01*
X9775825Y9490260D01*
X9775822Y9490262D01*
X9771888Y9494803D01*
X9766831Y9498053D01*
X9766830Y9498054D01*
X9692006Y9546140D01*
X9650813Y9572613D01*
X9645045Y9574307D01*
X9645042Y9574308D01*
X9518489Y9611467D01*
X9518484Y9611468D01*
X9512721Y9613160D01*
X9368799Y9613160D01*
X9363036Y9611468D01*
X9363030Y9611467D01*
X9236477Y9574308D01*
X9236472Y9574306D01*
X9230707Y9572613D01*
X9225649Y9569363D01*
X9225648Y9569362D01*
X9114689Y9498054D01*
X9114684Y9498050D01*
X9109632Y9494803D01*
X9105700Y9490266D01*
X9105694Y9490260D01*
X9019317Y9390574D01*
X9019314Y9390571D01*
X9015383Y9386033D01*
X9012889Y9380573D01*
X9012887Y9380569D01*
X8958273Y9260982D01*
X8955595Y9255117D01*
X8954741Y9249178D01*
X8954740Y9249174D01*
X8937064Y9126227D01*
X8935113Y9112660D01*
X8935968Y9106713D01*
X8954704Y8976395D01*
X8955595Y8970203D01*
X9009325Y8852551D01*
X9011909Y8846894D01*
X9019500Y8811999D01*
X9019500Y8274000D01*
X9008246Y8232000D01*
X8977500Y8201254D01*
X8935500Y8190000D01*
X169500Y8190000D01*
X127500Y8201254D01*
X96754Y8232000D01*
X85500Y8274000D01*
X85500Y10371790D01*
X1224285Y10371790D01*
X1234018Y10192279D01*
X1235235Y10187896D01*
X1235236Y10187890D01*
X1280894Y10023446D01*
X1282113Y10019057D01*
X1284242Y10015041D01*
X1284245Y10015034D01*
X1364070Y9864469D01*
X1366321Y9860224D01*
X1482705Y9723206D01*
X1625822Y9614411D01*
X1788981Y9538926D01*
X1964553Y9500280D01*
X2096982Y9500280D01*
X2099256Y9500280D01*
X2233161Y9514843D01*
X2403525Y9572245D01*
X2557566Y9664929D01*
X2688082Y9788560D01*
X2788969Y9937357D01*
X2855510Y10104364D01*
X2884595Y10281770D01*
X2874862Y10461281D01*
X2826767Y10634503D01*
X2783452Y10716203D01*
X2744695Y10789307D01*
X2742559Y10793336D01*
X2626175Y10930354D01*
X2483058Y11039149D01*
X2478927Y11041061D01*
X2478924Y11041062D01*
X2324034Y11112721D01*
X2324033Y11112722D01*
X2319899Y11114634D01*
X2315450Y11115614D01*
X2315448Y11115614D01*
X2148771Y11152302D01*
X2148769Y11152303D01*
X2144327Y11153280D01*
X2009624Y11153280D01*
X2007375Y11153036D01*
X2007367Y11153035D01*
X1880245Y11139210D01*
X1880238Y11139209D01*
X1875719Y11138717D01*
X1871406Y11137265D01*
X1871402Y11137263D01*
X1709673Y11082771D01*
X1709664Y11082767D01*
X1705355Y11081315D01*
X1701458Y11078971D01*
X1701451Y11078967D01*
X1555212Y10990977D01*
X1555207Y10990974D01*
X1551314Y10988631D01*
X1548020Y10985512D01*
X1548011Y10985504D01*
X1424101Y10868130D01*
X1424095Y10868124D01*
X1420798Y10865000D01*
X1418247Y10861239D01*
X1418243Y10861233D01*
X1322465Y10719971D01*
X1322462Y10719966D01*
X1319911Y10716203D01*
X1318227Y10711978D01*
X1318225Y10711973D01*
X1255055Y10553427D01*
X1255053Y10553421D01*
X1253370Y10549196D01*
X1252633Y10544704D01*
X1252633Y10544702D01*
X1225022Y10376290D01*
X1225021Y10376284D01*
X1224285Y10371790D01*
X85500Y10371790D01*
X85500Y20504560D01*
X36783673Y20504560D01*
X36784528Y20498613D01*
X36800245Y20389294D01*
X36804155Y20362103D01*
X36863943Y20231187D01*
X36867877Y20226647D01*
X36954254Y20126961D01*
X36954256Y20126959D01*
X36958192Y20122417D01*
X37079267Y20044607D01*
X37217359Y20004060D01*
X37355271Y20004060D01*
X37361281Y20004060D01*
X37499373Y20044607D01*
X37620448Y20122417D01*
X37714697Y20231187D01*
X37774485Y20362103D01*
X37794967Y20504560D01*
X37794112Y20510507D01*
X37794112Y20516514D01*
X37796086Y20516514D01*
X37801402Y20553493D01*
X37832397Y20589265D01*
X37877812Y20602600D01*
X39617390Y20602600D01*
X39652285Y20595009D01*
X39680873Y20573608D01*
X39735554Y20510501D01*
X39735556Y20510499D01*
X39739492Y20505957D01*
X39744548Y20502708D01*
X39744549Y20502707D01*
X39753730Y20496807D01*
X39860567Y20428147D01*
X39998659Y20387600D01*
X40136571Y20387600D01*
X40142581Y20387600D01*
X40280673Y20428147D01*
X40401748Y20505957D01*
X40495997Y20614727D01*
X40555785Y20745643D01*
X40576267Y20888100D01*
X40555785Y21030557D01*
X40495997Y21161473D01*
X40464645Y21197655D01*
X40405685Y21265700D01*
X40405682Y21265702D01*
X40401748Y21270243D01*
X40396691Y21273493D01*
X40396690Y21273494D01*
X40341210Y21309149D01*
X40280673Y21348053D01*
X40274905Y21349747D01*
X40274902Y21349748D01*
X40148349Y21386907D01*
X40148344Y21386908D01*
X40142581Y21388600D01*
X39998659Y21388600D01*
X39992896Y21386908D01*
X39992890Y21386907D01*
X39866337Y21349748D01*
X39866332Y21349746D01*
X39860567Y21348053D01*
X39855509Y21344803D01*
X39855508Y21344802D01*
X39744549Y21273494D01*
X39744544Y21273490D01*
X39739492Y21270243D01*
X39735560Y21265706D01*
X39735554Y21265700D01*
X39680873Y21202592D01*
X39652285Y21181191D01*
X39617390Y21173600D01*
X37723942Y21173600D01*
X37718251Y21173995D01*
X37712987Y21175759D01*
X37705211Y21175400D01*
X37705208Y21175400D01*
X37668231Y21173690D01*
X37664352Y21173600D01*
X37646406Y21173600D01*
X37642597Y21172889D01*
X37638724Y21172530D01*
X37638712Y21172650D01*
X37634052Y21172111D01*
X37614137Y21171190D01*
X37614134Y21171190D01*
X37606363Y21170830D01*
X37599248Y21167690D01*
X37599240Y21167687D01*
X37596743Y21166584D01*
X37578270Y21160864D01*
X37575593Y21160364D01*
X37575587Y21160363D01*
X37567939Y21158932D01*
X37561323Y21154836D01*
X37561321Y21154835D01*
X37544366Y21144337D01*
X37534080Y21138915D01*
X37515835Y21130859D01*
X37515833Y21130858D01*
X37508718Y21127716D01*
X37503218Y21122217D01*
X37503213Y21122213D01*
X37501288Y21120287D01*
X37486120Y21108273D01*
X37483805Y21106841D01*
X37483796Y21106833D01*
X37477188Y21102741D01*
X37472500Y21096535D01*
X37472496Y21096530D01*
X37460481Y21080620D01*
X37452848Y21071848D01*
X37410665Y21029664D01*
X37383413Y21011454D01*
X37351267Y21005060D01*
X37217359Y21005060D01*
X37211596Y21003368D01*
X37211590Y21003367D01*
X37085037Y20966208D01*
X37085032Y20966206D01*
X37079267Y20964513D01*
X37074209Y20961263D01*
X37074208Y20961262D01*
X36963249Y20889954D01*
X36963244Y20889950D01*
X36958192Y20886703D01*
X36954260Y20882166D01*
X36954254Y20882160D01*
X36867877Y20782474D01*
X36867874Y20782471D01*
X36863943Y20777933D01*
X36861449Y20772473D01*
X36861447Y20772469D01*
X36806649Y20652479D01*
X36804155Y20647017D01*
X36803301Y20641078D01*
X36803300Y20641074D01*
X36793600Y20573608D01*
X36783673Y20504560D01*
X85500Y20504560D01*
X85500Y22120000D01*
X28508353Y22120000D01*
X28509208Y22114053D01*
X28511676Y22096884D01*
X28528835Y21977543D01*
X28531329Y21972082D01*
X28580391Y21864651D01*
X28588623Y21846627D01*
X28592557Y21842087D01*
X28678934Y21742401D01*
X28678936Y21742399D01*
X28682872Y21737857D01*
X28803947Y21660047D01*
X28942039Y21619500D01*
X29079951Y21619500D01*
X29085961Y21619500D01*
X29224053Y21660047D01*
X29345128Y21737857D01*
X29349063Y21742398D01*
X29390749Y21790507D01*
X29419338Y21811909D01*
X29454233Y21819500D01*
X29462226Y21819500D01*
X29466108Y21819500D01*
X29469921Y21820214D01*
X29473800Y21820573D01*
X29473809Y21820474D01*
X29478795Y21821054D01*
X29508256Y21822415D01*
X29518835Y21827087D01*
X29537335Y21832816D01*
X29548697Y21834939D01*
X29573765Y21850461D01*
X29584043Y21855880D01*
X29611029Y21867794D01*
X29619205Y21875971D01*
X29634385Y21887995D01*
X29644216Y21894081D01*
X29661985Y21917614D01*
X29669615Y21926382D01*
X30693832Y22950597D01*
X30721085Y22968806D01*
X30753230Y22975200D01*
X33839332Y22975200D01*
X33845625Y22974764D01*
X33851105Y22972927D01*
X33898328Y22975111D01*
X33902207Y22975200D01*
X33917302Y22975200D01*
X33921184Y22975200D01*
X33924997Y22975914D01*
X33928876Y22976273D01*
X33928885Y22976174D01*
X33933871Y22976754D01*
X33963332Y22978115D01*
X33973911Y22982787D01*
X33992411Y22988516D01*
X34003773Y22990639D01*
X34028841Y23006161D01*
X34039119Y23011580D01*
X34066105Y23023494D01*
X34074281Y23031671D01*
X34089461Y23043695D01*
X34099292Y23049781D01*
X34117061Y23073314D01*
X34124691Y23082082D01*
X34806007Y23763397D01*
X34833260Y23781606D01*
X34865405Y23788000D01*
X37009252Y23788000D01*
X37015545Y23787564D01*
X37021025Y23785727D01*
X37068248Y23787911D01*
X37072127Y23788000D01*
X37087222Y23788000D01*
X37091104Y23788000D01*
X37094917Y23788714D01*
X37098796Y23789073D01*
X37098805Y23788974D01*
X37103791Y23789554D01*
X37133252Y23790915D01*
X37143831Y23795587D01*
X37162331Y23801316D01*
X37173693Y23803439D01*
X37198761Y23818961D01*
X37209039Y23824380D01*
X37236025Y23836294D01*
X37244201Y23844471D01*
X37259381Y23856495D01*
X37269212Y23862581D01*
X37286981Y23886114D01*
X37294611Y23894882D01*
X37542868Y24143138D01*
X37570121Y24161347D01*
X37602266Y24167741D01*
X41108617Y24167741D01*
X41147108Y24158403D01*
X41177041Y24132466D01*
X41191762Y24095696D01*
X41205120Y24002786D01*
X41205121Y24002783D01*
X41205975Y23996843D01*
X41208469Y23991382D01*
X41256545Y23886110D01*
X41265763Y23865927D01*
X41269697Y23861387D01*
X41356074Y23761701D01*
X41356076Y23761699D01*
X41360012Y23757157D01*
X41481087Y23679347D01*
X41619179Y23638800D01*
X41757091Y23638800D01*
X41763101Y23638800D01*
X41901193Y23679347D01*
X42022268Y23757157D01*
X42116517Y23865927D01*
X42176305Y23996843D01*
X42196787Y24139300D01*
X42176305Y24281757D01*
X42116517Y24412673D01*
X42022268Y24521443D01*
X42017211Y24524693D01*
X42017210Y24524694D01*
X41952835Y24566065D01*
X41901193Y24599253D01*
X41895425Y24600947D01*
X41895422Y24600948D01*
X41768869Y24638107D01*
X41768864Y24638108D01*
X41763101Y24639800D01*
X41652596Y24639800D01*
X41622252Y24645472D01*
X41596007Y24661722D01*
X41571190Y24684346D01*
X41568407Y24687004D01*
X41557742Y24697669D01*
X41557741Y24697670D01*
X41554996Y24700415D01*
X41551792Y24702610D01*
X41548806Y24705090D01*
X41548869Y24705167D01*
X41548057Y24705810D01*
X44136166Y24705810D01*
X44137021Y24699863D01*
X44151242Y24600948D01*
X44156648Y24563353D01*
X44216436Y24432437D01*
X44220370Y24427897D01*
X44306747Y24328211D01*
X44306749Y24328209D01*
X44310685Y24323667D01*
X44431760Y24245857D01*
X44569852Y24205310D01*
X44575863Y24205310D01*
X44581808Y24204455D01*
X44581710Y24203779D01*
X44613887Y24195972D01*
X44643820Y24170035D01*
X44658541Y24133264D01*
X44677300Y24002787D01*
X44677300Y24002785D01*
X44678155Y23996843D01*
X44680649Y23991382D01*
X44728725Y23886110D01*
X44737943Y23865927D01*
X44741877Y23861387D01*
X44828254Y23761701D01*
X44828256Y23761699D01*
X44832192Y23757157D01*
X44953267Y23679347D01*
X45091359Y23638800D01*
X45229271Y23638800D01*
X45235281Y23638800D01*
X45373373Y23679347D01*
X45494448Y23757157D01*
X45540070Y23809809D01*
X45568658Y23831209D01*
X45603553Y23838800D01*
X45782946Y23838800D01*
X45828360Y23825465D01*
X45859355Y23789695D01*
X45866091Y23742846D01*
X45846429Y23699792D01*
X45801816Y23648308D01*
X45801810Y23648301D01*
X45797883Y23643767D01*
X45795389Y23638307D01*
X45795387Y23638303D01*
X45740589Y23518313D01*
X45738095Y23512851D01*
X45737241Y23506912D01*
X45737240Y23506908D01*
X45723870Y23413914D01*
X45717613Y23370394D01*
X45718468Y23364447D01*
X45735445Y23246363D01*
X45738095Y23227937D01*
X45740589Y23222476D01*
X45782797Y23130053D01*
X45797883Y23097021D01*
X45801817Y23092481D01*
X45888194Y22992795D01*
X45888196Y22992793D01*
X45892132Y22988251D01*
X46013207Y22910441D01*
X46151299Y22869894D01*
X46289211Y22869894D01*
X46295221Y22869894D01*
X46433313Y22910441D01*
X46505074Y22956560D01*
X46550488Y22969894D01*
X49544185Y22969894D01*
X49607223Y22969894D01*
X49685317Y22969894D01*
X49717462Y22963500D01*
X49744713Y22945292D01*
X50529490Y22160515D01*
X50529493Y22160513D01*
X50552057Y22137949D01*
X50557945Y22134949D01*
X50574601Y22126462D01*
X50585837Y22119577D01*
X50606310Y22104703D01*
X50630377Y22096884D01*
X50642546Y22091842D01*
X50665095Y22080353D01*
X50690088Y22076395D01*
X50702901Y22073319D01*
X50726966Y22065499D01*
X50758880Y22065499D01*
X50853832Y22065499D01*
X52001626Y22065499D01*
X52096578Y22065499D01*
X52121883Y22065499D01*
X52128492Y22065499D01*
X52152562Y22073321D01*
X52165369Y22076395D01*
X52190363Y22080353D01*
X52212913Y22091844D01*
X52225078Y22096883D01*
X52249149Y22104703D01*
X52269624Y22119580D01*
X52280845Y22126457D01*
X52303401Y22137949D01*
X52325964Y22160513D01*
X52325968Y22160515D01*
X52511493Y22346041D01*
X52547216Y22367237D01*
X52673333Y22404267D01*
X52794408Y22482077D01*
X52888657Y22590847D01*
X52948445Y22721763D01*
X52968927Y22864220D01*
X52948445Y23006677D01*
X52888657Y23137593D01*
X52794408Y23246363D01*
X52789351Y23249613D01*
X52789350Y23249614D01*
X52733870Y23285269D01*
X52673333Y23324173D01*
X52667565Y23325867D01*
X52667562Y23325868D01*
X52541009Y23363027D01*
X52541004Y23363028D01*
X52535241Y23364720D01*
X52391319Y23364720D01*
X52385556Y23363028D01*
X52385550Y23363027D01*
X52258997Y23325868D01*
X52258992Y23325866D01*
X52253227Y23324173D01*
X52248169Y23320923D01*
X52248168Y23320922D01*
X52137209Y23249614D01*
X52137204Y23249610D01*
X52132152Y23246363D01*
X52128220Y23241826D01*
X52128214Y23241820D01*
X52041837Y23142134D01*
X52041834Y23142131D01*
X52037903Y23137593D01*
X52035409Y23132133D01*
X52035407Y23132129D01*
X51980609Y23012141D01*
X51980606Y23012133D01*
X51978115Y23006677D01*
X51977260Y23000738D01*
X51977260Y23000734D01*
X51971811Y22962838D01*
X51948065Y22915400D01*
X51923771Y22891104D01*
X51896519Y22872894D01*
X51864372Y22866499D01*
X51669852Y22866499D01*
X51617926Y22884471D01*
X51588219Y22930698D01*
X51593145Y22982264D01*
X51592977Y22982313D01*
X51593233Y22983188D01*
X51593445Y22985398D01*
X51597165Y22993543D01*
X51617647Y23136000D01*
X51597165Y23278457D01*
X51537377Y23409373D01*
X51453897Y23505715D01*
X51447065Y23513600D01*
X51447062Y23513602D01*
X51443128Y23518143D01*
X51438071Y23521393D01*
X51438070Y23521394D01*
X51373503Y23562888D01*
X51322053Y23595953D01*
X51316285Y23597647D01*
X51316282Y23597648D01*
X51189729Y23634807D01*
X51189724Y23634808D01*
X51183961Y23636500D01*
X51071266Y23636500D01*
X51039121Y23642894D01*
X51011869Y23661103D01*
X50778083Y23894889D01*
X50531867Y24141104D01*
X50508879Y24184112D01*
X50513659Y24232645D01*
X50544597Y24270343D01*
X50591265Y24284500D01*
X53183164Y24284500D01*
X53228637Y24271127D01*
X53259631Y24235267D01*
X53264568Y24200418D01*
X53267152Y24200418D01*
X53267152Y24194412D01*
X53266297Y24188465D01*
X53267152Y24182518D01*
X53274233Y24133264D01*
X53286779Y24046008D01*
X53346567Y23915092D01*
X53350501Y23910552D01*
X53436878Y23810866D01*
X53436880Y23810864D01*
X53440816Y23806322D01*
X53561891Y23728512D01*
X53699983Y23687965D01*
X53837895Y23687965D01*
X53843905Y23687965D01*
X53981997Y23728512D01*
X54103072Y23806322D01*
X54197321Y23915092D01*
X54257109Y24046008D01*
X54277591Y24188465D01*
X54257109Y24330922D01*
X54197321Y24461838D01*
X54149610Y24516900D01*
X54107009Y24566065D01*
X54107006Y24566067D01*
X54103072Y24570608D01*
X54098015Y24573858D01*
X54098014Y24573859D01*
X53998041Y24638107D01*
X53981997Y24648418D01*
X53976229Y24650112D01*
X53976226Y24650113D01*
X53849673Y24687272D01*
X53849668Y24687273D01*
X53843905Y24688965D01*
X53709996Y24688965D01*
X53677851Y24695359D01*
X53650599Y24713568D01*
X53628409Y24735758D01*
X53624662Y24740064D01*
X53622189Y24745032D01*
X53616434Y24750278D01*
X53616433Y24750280D01*
X53589056Y24775238D01*
X53586250Y24777917D01*
X53576328Y24787839D01*
X53576327Y24787840D01*
X53573582Y24790585D01*
X53570376Y24792782D01*
X53567392Y24795259D01*
X53567470Y24795354D01*
X53563799Y24798263D01*
X53549062Y24811697D01*
X53549059Y24811699D01*
X53543309Y24816941D01*
X53533506Y24820739D01*
X53516395Y24829759D01*
X53507726Y24835697D01*
X53500152Y24837479D01*
X53500149Y24837480D01*
X53480743Y24842044D01*
X53469634Y24845484D01*
X53451038Y24852688D01*
X53451035Y24852689D01*
X53443778Y24855500D01*
X53435993Y24855500D01*
X53433275Y24855500D01*
X53414043Y24857731D01*
X53411396Y24858354D01*
X53411394Y24858355D01*
X53403822Y24860135D01*
X53396115Y24859060D01*
X53396113Y24859060D01*
X53376374Y24856306D01*
X53364768Y24855500D01*
X46785143Y24855500D01*
X46747702Y24864306D01*
X46726752Y24881702D01*
X46725970Y24880843D01*
X46692837Y24911048D01*
X46690031Y24913727D01*
X46680109Y24923649D01*
X46677363Y24926395D01*
X46674157Y24928592D01*
X46671173Y24931069D01*
X46671251Y24931164D01*
X46667580Y24934073D01*
X46652843Y24947507D01*
X46652840Y24947509D01*
X46647090Y24952751D01*
X46637287Y24956549D01*
X46620176Y24965569D01*
X46611507Y24971507D01*
X46603933Y24973289D01*
X46603930Y24973290D01*
X46584524Y24977854D01*
X46573415Y24981294D01*
X46554819Y24988498D01*
X46554816Y24988499D01*
X46547559Y24991310D01*
X46539774Y24991310D01*
X46537056Y24991310D01*
X46517824Y24993541D01*
X46515177Y24994164D01*
X46515175Y24994165D01*
X46507603Y24995945D01*
X46499896Y24994870D01*
X46499894Y24994870D01*
X46480155Y24992116D01*
X46468549Y24991310D01*
X45095043Y24991310D01*
X45060148Y24998901D01*
X45031560Y25020302D01*
X44976878Y25083410D01*
X44976876Y25083412D01*
X44972941Y25087953D01*
X44967884Y25091203D01*
X44967883Y25091204D01*
X44912403Y25126859D01*
X44851866Y25165763D01*
X44846098Y25167457D01*
X44846095Y25167458D01*
X44719542Y25204617D01*
X44719537Y25204618D01*
X44713774Y25206310D01*
X44569852Y25206310D01*
X44564089Y25204618D01*
X44564083Y25204617D01*
X44437530Y25167458D01*
X44437525Y25167456D01*
X44431760Y25165763D01*
X44426702Y25162513D01*
X44426701Y25162512D01*
X44315742Y25091204D01*
X44315737Y25091200D01*
X44310685Y25087953D01*
X44306753Y25083416D01*
X44306747Y25083410D01*
X44220370Y24983724D01*
X44220367Y24983721D01*
X44216436Y24979183D01*
X44213942Y24973723D01*
X44213940Y24973719D01*
X44160970Y24857731D01*
X44156648Y24848267D01*
X44155794Y24842328D01*
X44155793Y24842324D01*
X44139980Y24732337D01*
X44136166Y24705810D01*
X41548057Y24705810D01*
X41544923Y24708292D01*
X41541122Y24711757D01*
X41523132Y24728157D01*
X41515876Y24730969D01*
X41515873Y24730970D01*
X41512343Y24732337D01*
X41495219Y24741363D01*
X41492102Y24743498D01*
X41485680Y24747897D01*
X41478105Y24749679D01*
X41478098Y24749682D01*
X41456979Y24754649D01*
X41445870Y24758089D01*
X41425631Y24765929D01*
X41425630Y24765930D01*
X41418372Y24768741D01*
X41410588Y24768741D01*
X41406809Y24768741D01*
X41387576Y24770972D01*
X41383891Y24771839D01*
X41383889Y24771840D01*
X41376318Y24773620D01*
X41368611Y24772545D01*
X41347121Y24769547D01*
X41335515Y24768741D01*
X37497010Y24768741D01*
X37490716Y24769178D01*
X37485237Y24771014D01*
X37477461Y24770655D01*
X37477459Y24770655D01*
X37438014Y24768831D01*
X37434135Y24768741D01*
X37415157Y24768741D01*
X37411334Y24768027D01*
X37407476Y24767669D01*
X37407466Y24767768D01*
X37402464Y24767188D01*
X37380783Y24766186D01*
X37380779Y24766186D01*
X37373010Y24765826D01*
X37365893Y24762685D01*
X37365889Y24762683D01*
X37362419Y24761151D01*
X37343940Y24755429D01*
X37340221Y24754734D01*
X37340215Y24754732D01*
X37332568Y24753302D01*
X37325951Y24749206D01*
X37325950Y24749205D01*
X37307502Y24737783D01*
X37297217Y24732362D01*
X37277357Y24723593D01*
X37277350Y24723589D01*
X37270236Y24720447D01*
X37264734Y24714946D01*
X37264732Y24714944D01*
X37262055Y24712267D01*
X37246887Y24700252D01*
X37243663Y24698256D01*
X37243661Y24698255D01*
X37237049Y24694160D01*
X37232361Y24687954D01*
X37232357Y24687949D01*
X37219278Y24670630D01*
X37211644Y24661857D01*
X36963392Y24413603D01*
X36936141Y24395394D01*
X36903995Y24389000D01*
X34760149Y24389000D01*
X34753855Y24389437D01*
X34748376Y24391273D01*
X34740600Y24390914D01*
X34740598Y24390914D01*
X34701153Y24389090D01*
X34697274Y24389000D01*
X34678296Y24389000D01*
X34674473Y24388286D01*
X34670615Y24387928D01*
X34670605Y24388027D01*
X34665603Y24387447D01*
X34643922Y24386445D01*
X34643918Y24386445D01*
X34636149Y24386085D01*
X34629032Y24382944D01*
X34629028Y24382942D01*
X34625558Y24381410D01*
X34607079Y24375688D01*
X34603360Y24374993D01*
X34603354Y24374991D01*
X34595707Y24373561D01*
X34589090Y24369465D01*
X34589089Y24369464D01*
X34570641Y24358042D01*
X34560356Y24352621D01*
X34540496Y24343852D01*
X34540489Y24343848D01*
X34533375Y24340706D01*
X34527873Y24335205D01*
X34527871Y24335203D01*
X34525194Y24332526D01*
X34510026Y24320511D01*
X34506802Y24318515D01*
X34506800Y24318514D01*
X34500188Y24314419D01*
X34495500Y24308213D01*
X34495496Y24308208D01*
X34482417Y24290889D01*
X34474783Y24282116D01*
X33793472Y23600803D01*
X33766220Y23582594D01*
X33734075Y23576200D01*
X30647973Y23576200D01*
X30641679Y23576637D01*
X30636200Y23578473D01*
X30628424Y23578114D01*
X30628422Y23578114D01*
X30588977Y23576290D01*
X30585098Y23576200D01*
X30566120Y23576200D01*
X30562297Y23575486D01*
X30558439Y23575128D01*
X30558429Y23575227D01*
X30553427Y23574647D01*
X30531746Y23573645D01*
X30531742Y23573645D01*
X30523973Y23573285D01*
X30516856Y23570144D01*
X30516852Y23570142D01*
X30513382Y23568610D01*
X30494903Y23562888D01*
X30491184Y23562193D01*
X30491178Y23562191D01*
X30483531Y23560761D01*
X30476914Y23556665D01*
X30476913Y23556664D01*
X30458465Y23545242D01*
X30448180Y23539821D01*
X30428320Y23531052D01*
X30428313Y23531048D01*
X30421199Y23527906D01*
X30415697Y23522405D01*
X30415695Y23522403D01*
X30413018Y23519726D01*
X30397850Y23507711D01*
X30394626Y23505715D01*
X30394624Y23505714D01*
X30388012Y23501619D01*
X30383324Y23495413D01*
X30383320Y23495408D01*
X30370241Y23478089D01*
X30362607Y23469316D01*
X29423618Y22530327D01*
X29373200Y22506205D01*
X29318808Y22519058D01*
X29299037Y22531764D01*
X29224053Y22579953D01*
X29218285Y22581647D01*
X29218282Y22581648D01*
X29091729Y22618807D01*
X29091724Y22618808D01*
X29085961Y22620500D01*
X28942039Y22620500D01*
X28936276Y22618808D01*
X28936270Y22618807D01*
X28809717Y22581648D01*
X28809712Y22581646D01*
X28803947Y22579953D01*
X28798889Y22576703D01*
X28798888Y22576702D01*
X28687929Y22505394D01*
X28687924Y22505390D01*
X28682872Y22502143D01*
X28678940Y22497606D01*
X28678934Y22497600D01*
X28592557Y22397914D01*
X28592554Y22397911D01*
X28588623Y22393373D01*
X28586129Y22387913D01*
X28586127Y22387909D01*
X28531329Y22267919D01*
X28528835Y22262457D01*
X28527981Y22256518D01*
X28527980Y22256514D01*
X28514177Y22160507D01*
X28508353Y22120000D01*
X85500Y22120000D01*
X85500Y26933300D01*
X48132393Y26933300D01*
X48152875Y26790843D01*
X48212663Y26659927D01*
X48216597Y26655387D01*
X48302974Y26555701D01*
X48302976Y26555699D01*
X48306912Y26551157D01*
X48427987Y26473347D01*
X48566079Y26432800D01*
X48703991Y26432800D01*
X48710001Y26432800D01*
X48848093Y26473347D01*
X48969168Y26551157D01*
X49063417Y26659927D01*
X49123205Y26790843D01*
X49143687Y26933300D01*
X49123205Y27075757D01*
X49063417Y27206673D01*
X48969168Y27315443D01*
X48964111Y27318693D01*
X48964110Y27318694D01*
X48908630Y27354348D01*
X48848093Y27393253D01*
X48842325Y27394947D01*
X48842322Y27394948D01*
X48715769Y27432107D01*
X48715764Y27432108D01*
X48710001Y27433800D01*
X48566079Y27433800D01*
X48560316Y27432108D01*
X48560310Y27432107D01*
X48433757Y27394948D01*
X48433752Y27394946D01*
X48427987Y27393253D01*
X48422929Y27390003D01*
X48422928Y27390002D01*
X48311969Y27318694D01*
X48311964Y27318690D01*
X48306912Y27315443D01*
X48302980Y27310906D01*
X48302974Y27310900D01*
X48216597Y27211214D01*
X48216594Y27211211D01*
X48212663Y27206673D01*
X48210169Y27201213D01*
X48210167Y27201209D01*
X48155369Y27081219D01*
X48152875Y27075757D01*
X48152021Y27069818D01*
X48152020Y27069814D01*
X48133248Y26939247D01*
X48132393Y26933300D01*
X85500Y26933300D01*
X85500Y36063890D01*
X657865Y36063890D01*
X659745Y36029215D01*
X664504Y35941431D01*
X667598Y35884379D01*
X668815Y35879996D01*
X668816Y35879990D01*
X713788Y35718017D01*
X715693Y35711157D01*
X717822Y35707141D01*
X717825Y35707134D01*
X797764Y35556354D01*
X799901Y35552324D01*
X802852Y35548850D01*
X881304Y35456488D01*
X916285Y35415306D01*
X1059402Y35306511D01*
X1222561Y35231026D01*
X1398133Y35192380D01*
X1530562Y35192380D01*
X1532836Y35192380D01*
X1666741Y35206943D01*
X1837105Y35264345D01*
X1991146Y35357029D01*
X2121662Y35480660D01*
X2222549Y35629457D01*
X2289090Y35796464D01*
X2318175Y35973870D01*
X2308442Y36153381D01*
X2260347Y36326603D01*
X2219510Y36403629D01*
X2178275Y36481407D01*
X2176139Y36485436D01*
X2086433Y36591046D01*
X2062701Y36618986D01*
X2062699Y36618988D01*
X2059755Y36622454D01*
X1916638Y36731249D01*
X1912507Y36733161D01*
X1912504Y36733162D01*
X1757614Y36804821D01*
X1757613Y36804822D01*
X1753479Y36806734D01*
X1749030Y36807714D01*
X1749028Y36807714D01*
X1582351Y36844402D01*
X1582349Y36844403D01*
X1577907Y36845380D01*
X1443204Y36845380D01*
X1440955Y36845136D01*
X1440947Y36845135D01*
X1313825Y36831310D01*
X1313818Y36831309D01*
X1309299Y36830817D01*
X1304986Y36829365D01*
X1304982Y36829363D01*
X1143253Y36774871D01*
X1143244Y36774867D01*
X1138935Y36773415D01*
X1135038Y36771071D01*
X1135031Y36771067D01*
X988792Y36683077D01*
X988787Y36683074D01*
X984894Y36680731D01*
X981600Y36677612D01*
X981591Y36677604D01*
X857681Y36560230D01*
X857675Y36560224D01*
X854378Y36557100D01*
X851827Y36553339D01*
X851823Y36553333D01*
X756045Y36412071D01*
X756042Y36412066D01*
X753491Y36408303D01*
X751807Y36404078D01*
X751805Y36404073D01*
X688635Y36245527D01*
X688633Y36245521D01*
X686950Y36241296D01*
X686213Y36236804D01*
X686213Y36236802D01*
X658602Y36068390D01*
X658601Y36068384D01*
X657865Y36063890D01*
X85500Y36063890D01*
X85500Y37250500D01*
X96754Y37292500D01*
X127500Y37323246D01*
X169500Y37334500D01*
X22522093Y37334500D01*
X22568761Y37320343D01*
G37*
%TD.AperFunction*%
%TD*%
M02*
