  0
SECTION
  2
HEADER
  9
$ANGBASE
  50
0.0
  9
$ANGDIR
  70
1
  9
$MEASUREMENT
  70
0
  0
ENDSEC
  0
SECTION
  2
TABLES
  0
TABLE
  2
LTYPE
  70
4
  0
LTYPE
  5
40F
  2
CONTINUOUS
  70
0
  3
Solid line
  72
65
  73
0
  40
0.0
  0
LTYPE
  5
410
  2
DASHDOT
 70
0
  3
Dash Dot ____ _ ____ _
 72
65
 73
4
 40
2.0
 49
1.25
 49
-0.25
 49
0.25
 49
-0.25
  0
LTYPE
  5
411
  2
DASHED
 70
0
  3
Dashed __ __ __ __ __
 72
65
 73
2
 40
0.75
 49
0.5
 49
-0.25
  0
LTYPE
  5
43B
  2
DOTTED
 70
0
  3
Dotted .  .  .  .
 72
65
 73
2
 40
0.2
 49
0.0
 49
-0.2
  0
ENDTAB
  0
TABLE
  2
STYLE
  70
4
  0
STYLE
  2
KICAD
  70
0
  40
0
  41
1
  42
1
  50
0
  71
0
  3
isocp.shx
  0
STYLE
  2
KICADB
  70
0
  40
0
  41
1
  42
1
  50
0
  71
0
  3
isocp.shx
  0
STYLE
  2
KICADI
  70
0
  40
0
  41
1
  42
1
  50
15
  71
0
  3
isocp.shx
  0
STYLE
  2
KICADBI
  70
0
  40
0
  41
1
  42
1
  50
15
  71
0
  3
isocp.shx
  0
ENDTAB
  0
TABLE
  2
LAYER
  70
1
  0
LAYER
  2
BLACK
  70
0
  62
7
  6
CONTINUOUS
  0
ENDTAB
  0
ENDSEC
  0
SECTION
  2
ENTITIES
0
LINE
8
BLACK
6
CONTINUOUS
10
0.0023622
20
1.47087
11
0.0023622
21
0.0023622
0
LINE
8
BLACK
6
CONTINUOUS
10
2.74134
20
1.47087
11
0.0023622
21
1.47087
0
LINE
8
BLACK
6
CONTINUOUS
10
2.74134
20
0.0023622
11
2.74134
21
1.47087
0
LINE
8
BLACK
6
CONTINUOUS
10
0.0023622
20
0.0023622
11
2.74134
21
0.0023622
0
LINE
8
BLACK
6
CONTINUOUS
10
0.0359063
20
1.44074
11
0.0812606
21
1.39539
0
LINE
8
BLACK
6
CONTINUOUS
10
0.0812606
20
1.44074
11
0.0359063
21
1.39539
0
LINE
8
BLACK
6
CONTINUOUS
10
0.0582063
20
0.429243
11
0.103561
21
0.383889
0
LINE
8
BLACK
6
CONTINUOUS
10
0.103561
20
0.429243
11
0.0582063
21
0.383889
0
LINE
8
BLACK
6
CONTINUOUS
10
2.66171
20
1.43964
11
2.70706
21
1.39429
0
LINE
8
BLACK
6
CONTINUOUS
10
2.70706
20
1.43964
11
2.66171
21
1.39429
0
CIRCLE
8
BLACK
10
0.212992
20
0.199213
40
0.0846457
0
CIRCLE
8
BLACK
10
2.53583
20
0.199213
40
0.0846457
0
LINE
8
BLACK
6
CONTINUOUS
10
0.0988657
20
-0.114164
11
0.0988657
21
-0.0354237
0
LINE
8
BLACK
6
CONTINUOUS
10
0.0988657
20
-0.0354237
11
0.117613
21
-0.0354237
0
LINE
8
BLACK
6
CONTINUOUS
10
0.117613
20
-0.0354237
11
0.128862
21
-0.0391732
0
LINE
8
BLACK
6
CONTINUOUS
10
0.128862
20
-0.0391732
11
0.136361
21
-0.0466723
0
LINE
8
BLACK
6
CONTINUOUS
10
0.136361
20
-0.0466723
11
0.140111
21
-0.0541713
0
LINE
8
BLACK
6
CONTINUOUS
10
0.140111
20
-0.0541713
11
0.14386
21
-0.0691694
0
LINE
8
BLACK
6
CONTINUOUS
10
0.14386
20
-0.0691694
11
0.14386
21
-0.0804181
0
LINE
8
BLACK
6
CONTINUOUS
10
0.14386
20
-0.0804181
11
0.140111
21
-0.0954162
0
LINE
8
BLACK
6
CONTINUOUS
10
0.140111
20
-0.0954162
11
0.136361
21
-0.102915
0
LINE
8
BLACK
6
CONTINUOUS
10
0.136361
20
-0.102915
11
0.128862
21
-0.110414
0
LINE
8
BLACK
6
CONTINUOUS
10
0.128862
20
-0.110414
11
0.117613
21
-0.114164
0
LINE
8
BLACK
6
CONTINUOUS
10
0.117613
20
-0.114164
11
0.0988657
21
-0.114164
0
LINE
8
BLACK
6
CONTINUOUS
10
0.177606
20
-0.114164
11
0.177606
21
-0.0616704
0
LINE
8
BLACK
6
CONTINUOUS
10
0.177606
20
-0.0766685
11
0.181355
21
-0.0691694
0
LINE
8
BLACK
6
CONTINUOUS
10
0.181355
20
-0.0691694
11
0.185105
21
-0.0654199
0
LINE
8
BLACK
6
CONTINUOUS
10
0.185105
20
-0.0654199
11
0.192604
21
-0.0616704
0
LINE
8
BLACK
6
CONTINUOUS
10
0.192604
20
-0.0616704
11
0.200103
21
-0.0616704
0
LINE
8
BLACK
6
CONTINUOUS
10
0.22635
20
-0.114164
11
0.22635
21
-0.0616704
0
LINE
8
BLACK
6
CONTINUOUS
10
0.22635
20
-0.0354237
11
0.2226
21
-0.0391732
0
LINE
8
BLACK
6
CONTINUOUS
10
0.2226
20
-0.0391732
11
0.22635
21
-0.0429228
0
LINE
8
BLACK
6
CONTINUOUS
10
0.22635
20
-0.0429228
11
0.230099
21
-0.0391732
0
LINE
8
BLACK
6
CONTINUOUS
10
0.230099
20
-0.0391732
11
0.22635
21
-0.0354237
0
LINE
8
BLACK
6
CONTINUOUS
10
0.22635
20
-0.0354237
11
0.22635
21
-0.0429228
0
LINE
8
BLACK
6
CONTINUOUS
10
0.275094
20
-0.114164
11
0.267595
21
-0.110414
0
LINE
8
BLACK
6
CONTINUOUS
10
0.267595
20
-0.110414
11
0.263845
21
-0.102915
0
LINE
8
BLACK
6
CONTINUOUS
10
0.263845
20
-0.102915
11
0.263845
21
-0.0354237
0
LINE
8
BLACK
6
CONTINUOUS
10
0.316339
20
-0.114164
11
0.308839
21
-0.110414
0
LINE
8
BLACK
6
CONTINUOUS
10
0.308839
20
-0.110414
11
0.30509
21
-0.102915
0
LINE
8
BLACK
6
CONTINUOUS
10
0.30509
20
-0.102915
11
0.30509
21
-0.0354237
0
LINE
8
BLACK
6
CONTINUOUS
10
0.393579
20
-0.114164
11
0.393579
21
-0.0354237
0
LINE
8
BLACK
6
CONTINUOUS
10
0.393579
20
-0.0354237
11
0.419826
21
-0.0916667
0
LINE
8
BLACK
6
CONTINUOUS
10
0.419826
20
-0.0916667
11
0.446072
21
-0.0354237
0
LINE
8
BLACK
6
CONTINUOUS
10
0.446072
20
-0.0354237
11
0.446072
21
-0.114164
0
LINE
8
BLACK
6
CONTINUOUS
10
0.517313
20
-0.114164
11
0.517313
21
-0.072919
0
LINE
8
BLACK
6
CONTINUOUS
10
0.517313
20
-0.072919
11
0.513564
21
-0.0654199
0
LINE
8
BLACK
6
CONTINUOUS
10
0.513564
20
-0.0654199
11
0.506065
21
-0.0616704
0
LINE
8
BLACK
6
CONTINUOUS
10
0.506065
20
-0.0616704
11
0.491067
21
-0.0616704
0
LINE
8
BLACK
6
CONTINUOUS
10
0.491067
20
-0.0616704
11
0.483568
21
-0.0654199
0
LINE
8
BLACK
6
CONTINUOUS
10
0.517313
20
-0.110414
11
0.509814
21
-0.114164
0
LINE
8
BLACK
6
CONTINUOUS
10
0.509814
20
-0.114164
11
0.491067
21
-0.114164
0
LINE
8
BLACK
6
CONTINUOUS
10
0.491067
20
-0.114164
11
0.483568
21
-0.110414
0
LINE
8
BLACK
6
CONTINUOUS
10
0.483568
20
-0.110414
11
0.479818
21
-0.102915
0
LINE
8
BLACK
6
CONTINUOUS
10
0.479818
20
-0.102915
11
0.479818
21
-0.0954162
0
LINE
8
BLACK
6
CONTINUOUS
10
0.479818
20
-0.0954162
11
0.483568
21
-0.0879171
0
LINE
8
BLACK
6
CONTINUOUS
10
0.483568
20
-0.0879171
11
0.491067
21
-0.0841676
0
LINE
8
BLACK
6
CONTINUOUS
10
0.491067
20
-0.0841676
11
0.509814
21
-0.0841676
0
LINE
8
BLACK
6
CONTINUOUS
10
0.509814
20
-0.0841676
11
0.517313
21
-0.0804181
0
LINE
8
BLACK
6
CONTINUOUS
10
0.554809
20
-0.0616704
11
0.554809
21
-0.140411
0
LINE
8
BLACK
6
CONTINUOUS
10
0.554809
20
-0.0654199
11
0.562308
21
-0.0616704
0
LINE
8
BLACK
6
CONTINUOUS
10
0.562308
20
-0.0616704
11
0.577306
21
-0.0616704
0
LINE
8
BLACK
6
CONTINUOUS
10
0.577306
20
-0.0616704
11
0.584805
21
-0.0654199
0
LINE
8
BLACK
6
CONTINUOUS
10
0.584805
20
-0.0654199
11
0.588555
21
-0.0691694
0
LINE
8
BLACK
6
CONTINUOUS
10
0.588555
20
-0.0691694
11
0.592304
21
-0.0766685
0
LINE
8
BLACK
6
CONTINUOUS
10
0.592304
20
-0.0766685
11
0.592304
21
-0.0991657
0
LINE
8
BLACK
6
CONTINUOUS
10
0.592304
20
-0.0991657
11
0.588555
21
-0.106665
0
LINE
8
BLACK
6
CONTINUOUS
10
0.588555
20
-0.106665
11
0.584805
21
-0.110414
0
LINE
8
BLACK
6
CONTINUOUS
10
0.584805
20
-0.110414
11
0.577306
21
-0.114164
0
LINE
8
BLACK
6
CONTINUOUS
10
0.577306
20
-0.114164
11
0.562308
21
-0.114164
0
LINE
8
BLACK
6
CONTINUOUS
10
0.562308
20
-0.114164
11
0.554809
21
-0.110414
0
LINE
8
BLACK
6
CONTINUOUS
10
0.62605
20
-0.106665
11
0.629799
21
-0.110414
0
LINE
8
BLACK
6
CONTINUOUS
10
0.629799
20
-0.110414
11
0.62605
21
-0.114164
0
LINE
8
BLACK
6
CONTINUOUS
10
0.62605
20
-0.114164
11
0.6223
21
-0.110414
0
LINE
8
BLACK
6
CONTINUOUS
10
0.6223
20
-0.110414
11
0.62605
21
-0.106665
0
LINE
8
BLACK
6
CONTINUOUS
10
0.62605
20
-0.106665
11
0.62605
21
-0.114164
0
LINE
8
BLACK
6
CONTINUOUS
10
0.62605
20
-0.0654199
11
0.629799
21
-0.0691694
0
LINE
8
BLACK
6
CONTINUOUS
10
0.629799
20
-0.0691694
11
0.62605
21
-0.072919
0
LINE
8
BLACK
6
CONTINUOUS
10
0.62605
20
-0.072919
11
0.6223
21
-0.0691694
0
LINE
8
BLACK
6
CONTINUOUS
10
0.6223
20
-0.0691694
11
0.62605
21
-0.0654199
0
LINE
8
BLACK
6
CONTINUOUS
10
0.62605
20
-0.0654199
11
0.62605
21
-0.072919
0
LINE
8
BLACK
6
CONTINUOUS
10
-0.0439764
20
-0.227913
11
0.00137795
21
-0.273268
0
LINE
8
BLACK
6
CONTINUOUS
10
0.00137795
20
-0.227913
11
-0.0439764
21
-0.273268
0
LINE
8
BLACK
6
CONTINUOUS
10
0.140111
20
-0.279518
11
0.0951162
21
-0.279518
0
LINE
8
BLACK
6
CONTINUOUS
10
0.117613
20
-0.279518
11
0.117613
21
-0.200778
0
LINE
8
BLACK
6
CONTINUOUS
10
0.117613
20
-0.200778
11
0.110114
21
-0.212027
0
LINE
8
BLACK
6
CONTINUOUS
10
0.110114
20
-0.212027
11
0.102615
21
-0.219526
0
LINE
8
BLACK
6
CONTINUOUS
10
0.102615
20
-0.219526
11
0.0951162
21
-0.223275
0
LINE
8
BLACK
6
CONTINUOUS
10
0.173856
20
-0.272019
11
0.177606
21
-0.275769
0
LINE
8
BLACK
6
CONTINUOUS
10
0.177606
20
-0.275769
11
0.173856
21
-0.279518
0
LINE
8
BLACK
6
CONTINUOUS
10
0.173856
20
-0.279518
11
0.170107
21
-0.275769
0
LINE
8
BLACK
6
CONTINUOUS
10
0.170107
20
-0.275769
11
0.173856
21
-0.272019
0
LINE
8
BLACK
6
CONTINUOUS
10
0.173856
20
-0.272019
11
0.173856
21
-0.279518
0
LINE
8
BLACK
6
CONTINUOUS
10
0.252597
20
-0.279518
11
0.207602
21
-0.279518
0
LINE
8
BLACK
6
CONTINUOUS
10
0.230099
20
-0.279518
11
0.230099
21
-0.200778
0
LINE
8
BLACK
6
CONTINUOUS
10
0.230099
20
-0.200778
11
0.2226
21
-0.212027
0
LINE
8
BLACK
6
CONTINUOUS
10
0.2226
20
-0.212027
11
0.215101
21
-0.219526
0
LINE
8
BLACK
6
CONTINUOUS
10
0.215101
20
-0.219526
11
0.207602
21
-0.223275
0
LINE
8
BLACK
6
CONTINUOUS
10
0.323838
20
-0.200778
11
0.286342
21
-0.200778
0
LINE
8
BLACK
6
CONTINUOUS
10
0.286342
20
-0.200778
11
0.282593
21
-0.238273
0
LINE
8
BLACK
6
CONTINUOUS
10
0.282593
20
-0.238273
11
0.286342
21
-0.234524
0
LINE
8
BLACK
6
CONTINUOUS
10
0.286342
20
-0.234524
11
0.293841
21
-0.230774
0
LINE
8
BLACK
6
CONTINUOUS
10
0.293841
20
-0.230774
11
0.312589
21
-0.230774
0
LINE
8
BLACK
6
CONTINUOUS
10
0.312589
20
-0.230774
11
0.320088
21
-0.234524
0
LINE
8
BLACK
6
CONTINUOUS
10
0.320088
20
-0.234524
11
0.323838
21
-0.238273
0
LINE
8
BLACK
6
CONTINUOUS
10
0.323838
20
-0.238273
11
0.327587
21
-0.245772
0
LINE
8
BLACK
6
CONTINUOUS
10
0.327587
20
-0.245772
11
0.327587
21
-0.26452
0
LINE
8
BLACK
6
CONTINUOUS
10
0.327587
20
-0.26452
11
0.323838
21
-0.272019
0
LINE
8
BLACK
6
CONTINUOUS
10
0.323838
20
-0.272019
11
0.320088
21
-0.275769
0
LINE
8
BLACK
6
CONTINUOUS
10
0.320088
20
-0.275769
11
0.312589
21
-0.279518
0
LINE
8
BLACK
6
CONTINUOUS
10
0.312589
20
-0.279518
11
0.293841
21
-0.279518
0
LINE
8
BLACK
6
CONTINUOUS
10
0.293841
20
-0.279518
11
0.286342
21
-0.275769
0
LINE
8
BLACK
6
CONTINUOUS
10
0.286342
20
-0.275769
11
0.282593
21
-0.272019
0
LINE
8
BLACK
6
CONTINUOUS
10
0.357583
20
-0.208277
11
0.361333
21
-0.204528
0
LINE
8
BLACK
6
CONTINUOUS
10
0.361333
20
-0.204528
11
0.368832
21
-0.200778
0
LINE
8
BLACK
6
CONTINUOUS
10
0.368832
20
-0.200778
11
0.38758
21
-0.200778
0
LINE
8
BLACK
6
CONTINUOUS
10
0.38758
20
-0.200778
11
0.395079
21
-0.204528
0
LINE
8
BLACK
6
CONTINUOUS
10
0.395079
20
-0.204528
11
0.398828
21
-0.208277
0
LINE
8
BLACK
6
CONTINUOUS
10
0.398828
20
-0.208277
11
0.402578
21
-0.215776
0
LINE
8
BLACK
6
CONTINUOUS
10
0.402578
20
-0.215776
11
0.402578
21
-0.223275
0
LINE
8
BLACK
6
CONTINUOUS
10
0.402578
20
-0.223275
11
0.398828
21
-0.234524
0
LINE
8
BLACK
6
CONTINUOUS
10
0.398828
20
-0.234524
11
0.353834
21
-0.279518
0
LINE
8
BLACK
6
CONTINUOUS
10
0.353834
20
-0.279518
11
0.402578
21
-0.279518
0
LINE
8
BLACK
6
CONTINUOUS
10
0.436324
20
-0.279518
11
0.436324
21
-0.227025
0
LINE
8
BLACK
6
CONTINUOUS
10
0.436324
20
-0.234524
11
0.440073
21
-0.230774
0
LINE
8
BLACK
6
CONTINUOUS
10
0.440073
20
-0.230774
11
0.447572
21
-0.227025
0
LINE
8
BLACK
6
CONTINUOUS
10
0.447572
20
-0.227025
11
0.458821
21
-0.227025
0
LINE
8
BLACK
6
CONTINUOUS
10
0.458821
20
-0.227025
11
0.46632
21
-0.230774
0
LINE
8
BLACK
6
CONTINUOUS
10
0.46632
20
-0.230774
11
0.470069
21
-0.238273
0
LINE
8
BLACK
6
CONTINUOUS
10
0.470069
20
-0.238273
11
0.470069
21
-0.279518
0
LINE
8
BLACK
6
CONTINUOUS
10
0.470069
20
-0.238273
11
0.473819
21
-0.230774
0
LINE
8
BLACK
6
CONTINUOUS
10
0.473819
20
-0.230774
11
0.481318
21
-0.227025
0
LINE
8
BLACK
6
CONTINUOUS
10
0.481318
20
-0.227025
11
0.492567
21
-0.227025
0
LINE
8
BLACK
6
CONTINUOUS
10
0.492567
20
-0.227025
11
0.500066
21
-0.230774
0
LINE
8
BLACK
6
CONTINUOUS
10
0.500066
20
-0.230774
11
0.503815
21
-0.238273
0
LINE
8
BLACK
6
CONTINUOUS
10
0.503815
20
-0.238273
11
0.503815
21
-0.279518
0
LINE
8
BLACK
6
CONTINUOUS
10
0.54131
20
-0.279518
11
0.54131
21
-0.227025
0
LINE
8
BLACK
6
CONTINUOUS
10
0.54131
20
-0.234524
11
0.54506
21
-0.230774
0
LINE
8
BLACK
6
CONTINUOUS
10
0.54506
20
-0.230774
11
0.552559
21
-0.227025
0
LINE
8
BLACK
6
CONTINUOUS
10
0.552559
20
-0.227025
11
0.563808
21
-0.227025
0
LINE
8
BLACK
6
CONTINUOUS
10
0.563808
20
-0.227025
11
0.571307
21
-0.230774
0
LINE
8
BLACK
6
CONTINUOUS
10
0.571307
20
-0.230774
11
0.575056
21
-0.238273
0
LINE
8
BLACK
6
CONTINUOUS
10
0.575056
20
-0.238273
11
0.575056
21
-0.279518
0
LINE
8
BLACK
6
CONTINUOUS
10
0.575056
20
-0.238273
11
0.578806
21
-0.230774
0
LINE
8
BLACK
6
CONTINUOUS
10
0.578806
20
-0.230774
11
0.586305
21
-0.227025
0
LINE
8
BLACK
6
CONTINUOUS
10
0.586305
20
-0.227025
11
0.597553
21
-0.227025
0
LINE
8
BLACK
6
CONTINUOUS
10
0.597553
20
-0.227025
11
0.605053
21
-0.230774
0
LINE
8
BLACK
6
CONTINUOUS
10
0.605053
20
-0.230774
11
0.608802
21
-0.238273
0
LINE
8
BLACK
6
CONTINUOUS
10
0.608802
20
-0.238273
11
0.608802
21
-0.279518
0
LINE
8
BLACK
6
CONTINUOUS
10
0.749784
20
-0.197028
11
0.682293
21
-0.298266
0
LINE
8
BLACK
6
CONTINUOUS
10
0.838273
20
-0.200778
11
0.845772
21
-0.200778
0
LINE
8
BLACK
6
CONTINUOUS
10
0.845772
20
-0.200778
11
0.853271
21
-0.204528
0
LINE
8
BLACK
6
CONTINUOUS
10
0.853271
20
-0.204528
11
0.857021
21
-0.208277
0
LINE
8
BLACK
6
CONTINUOUS
10
0.857021
20
-0.208277
11
0.860771
21
-0.215776
0
LINE
8
BLACK
6
CONTINUOUS
10
0.860771
20
-0.215776
11
0.86452
21
-0.230774
0
LINE
8
BLACK
6
CONTINUOUS
10
0.86452
20
-0.230774
11
0.86452
21
-0.249522
0
LINE
8
BLACK
6
CONTINUOUS
10
0.86452
20
-0.249522
11
0.860771
21
-0.26452
0
LINE
8
BLACK
6
CONTINUOUS
10
0.860771
20
-0.26452
11
0.857021
21
-0.272019
0
LINE
8
BLACK
6
CONTINUOUS
10
0.857021
20
-0.272019
11
0.853271
21
-0.275769
0
LINE
8
BLACK
6
CONTINUOUS
10
0.853271
20
-0.275769
11
0.845772
21
-0.279518
0
LINE
8
BLACK
6
CONTINUOUS
10
0.845772
20
-0.279518
11
0.838273
21
-0.279518
0
LINE
8
BLACK
6
CONTINUOUS
10
0.838273
20
-0.279518
11
0.830774
21
-0.275769
0
LINE
8
BLACK
6
CONTINUOUS
10
0.830774
20
-0.275769
11
0.827025
21
-0.272019
0
LINE
8
BLACK
6
CONTINUOUS
10
0.827025
20
-0.272019
11
0.823275
21
-0.26452
0
LINE
8
BLACK
6
CONTINUOUS
10
0.823275
20
-0.26452
11
0.819526
21
-0.249522
0
LINE
8
BLACK
6
CONTINUOUS
10
0.819526
20
-0.249522
11
0.819526
21
-0.230774
0
LINE
8
BLACK
6
CONTINUOUS
10
0.819526
20
-0.230774
11
0.823275
21
-0.215776
0
LINE
8
BLACK
6
CONTINUOUS
10
0.823275
20
-0.215776
11
0.827025
21
-0.208277
0
LINE
8
BLACK
6
CONTINUOUS
10
0.827025
20
-0.208277
11
0.830774
21
-0.204528
0
LINE
8
BLACK
6
CONTINUOUS
10
0.830774
20
-0.204528
11
0.838273
21
-0.200778
0
LINE
8
BLACK
6
CONTINUOUS
10
0.898266
20
-0.272019
11
0.902015
21
-0.275769
0
LINE
8
BLACK
6
CONTINUOUS
10
0.902015
20
-0.275769
11
0.898266
21
-0.279518
0
LINE
8
BLACK
6
CONTINUOUS
10
0.898266
20
-0.279518
11
0.894516
21
-0.275769
0
LINE
8
BLACK
6
CONTINUOUS
10
0.894516
20
-0.275769
11
0.898266
21
-0.272019
0
LINE
8
BLACK
6
CONTINUOUS
10
0.898266
20
-0.272019
11
0.898266
21
-0.279518
0
LINE
8
BLACK
6
CONTINUOUS
10
0.950759
20
-0.200778
11
0.958258
21
-0.200778
0
LINE
8
BLACK
6
CONTINUOUS
10
0.958258
20
-0.200778
11
0.965757
21
-0.204528
0
LINE
8
BLACK
6
CONTINUOUS
10
0.965757
20
-0.204528
11
0.969507
21
-0.208277
0
LINE
8
BLACK
6
CONTINUOUS
10
0.969507
20
-0.208277
11
0.973256
21
-0.215776
0
LINE
8
BLACK
6
CONTINUOUS
10
0.973256
20
-0.215776
11
0.977006
21
-0.230774
0
LINE
8
BLACK
6
CONTINUOUS
10
0.977006
20
-0.230774
11
0.977006
21
-0.249522
0
LINE
8
BLACK
6
CONTINUOUS
10
0.977006
20
-0.249522
11
0.973256
21
-0.26452
0
LINE
8
BLACK
6
CONTINUOUS
10
0.973256
20
-0.26452
11
0.969507
21
-0.272019
0
LINE
8
BLACK
6
CONTINUOUS
10
0.969507
20
-0.272019
11
0.965757
21
-0.275769
0
LINE
8
BLACK
6
CONTINUOUS
10
0.965757
20
-0.275769
11
0.958258
21
-0.279518
0
LINE
8
BLACK
6
CONTINUOUS
10
0.958258
20
-0.279518
11
0.950759
21
-0.279518
0
LINE
8
BLACK
6
CONTINUOUS
10
0.950759
20
-0.279518
11
0.94326
21
-0.275769
0
LINE
8
BLACK
6
CONTINUOUS
10
0.94326
20
-0.275769
11
0.939511
21
-0.272019
0
LINE
8
BLACK
6
CONTINUOUS
10
0.939511
20
-0.272019
11
0.935761
21
-0.26452
0
LINE
8
BLACK
6
CONTINUOUS
10
0.935761
20
-0.26452
11
0.932012
21
-0.249522
0
LINE
8
BLACK
6
CONTINUOUS
10
0.932012
20
-0.249522
11
0.932012
21
-0.230774
0
LINE
8
BLACK
6
CONTINUOUS
10
0.932012
20
-0.230774
11
0.935761
21
-0.215776
0
LINE
8
BLACK
6
CONTINUOUS
10
0.935761
20
-0.215776
11
0.939511
21
-0.208277
0
LINE
8
BLACK
6
CONTINUOUS
10
0.939511
20
-0.208277
11
0.94326
21
-0.204528
0
LINE
8
BLACK
6
CONTINUOUS
10
0.94326
20
-0.204528
11
0.950759
21
-0.200778
0
LINE
8
BLACK
6
CONTINUOUS
10
1.0445
20
-0.227025
11
1.0445
21
-0.279518
0
LINE
8
BLACK
6
CONTINUOUS
10
1.02575
20
-0.197028
11
1.007
21
-0.253271
0
LINE
8
BLACK
6
CONTINUOUS
10
1.007
20
-0.253271
11
1.05575
21
-0.253271
0
LINE
8
BLACK
6
CONTINUOUS
10
1.12324
20
-0.200778
11
1.08574
21
-0.200778
0
LINE
8
BLACK
6
CONTINUOUS
10
1.08574
20
-0.200778
11
1.08199
21
-0.238273
0
LINE
8
BLACK
6
CONTINUOUS
10
1.08199
20
-0.238273
11
1.08574
21
-0.234524
0
LINE
8
BLACK
6
CONTINUOUS
10
1.08574
20
-0.234524
11
1.09324
21
-0.230774
0
LINE
8
BLACK
6
CONTINUOUS
10
1.09324
20
-0.230774
11
1.11199
21
-0.230774
0
LINE
8
BLACK
6
CONTINUOUS
10
1.11199
20
-0.230774
11
1.11949
21
-0.234524
0
LINE
8
BLACK
6
CONTINUOUS
10
1.11949
20
-0.234524
11
1.12324
21
-0.238273
0
LINE
8
BLACK
6
CONTINUOUS
10
1.12324
20
-0.238273
11
1.12699
21
-0.245772
0
LINE
8
BLACK
6
CONTINUOUS
10
1.12699
20
-0.245772
11
1.12699
21
-0.26452
0
LINE
8
BLACK
6
CONTINUOUS
10
1.12699
20
-0.26452
11
1.12324
21
-0.272019
0
LINE
8
BLACK
6
CONTINUOUS
10
1.12324
20
-0.272019
11
1.11949
21
-0.275769
0
LINE
8
BLACK
6
CONTINUOUS
10
1.11949
20
-0.275769
11
1.11199
21
-0.279518
0
LINE
8
BLACK
6
CONTINUOUS
10
1.11199
20
-0.279518
11
1.09324
21
-0.279518
0
LINE
8
BLACK
6
CONTINUOUS
10
1.09324
20
-0.279518
11
1.08574
21
-0.275769
0
LINE
8
BLACK
6
CONTINUOUS
10
1.08574
20
-0.275769
11
1.08199
21
-0.272019
0
LINE
8
BLACK
6
CONTINUOUS
10
1.19448
20
-0.227025
11
1.19448
21
-0.279518
0
LINE
8
BLACK
6
CONTINUOUS
10
1.17573
20
-0.197028
11
1.15698
21
-0.253271
0
LINE
8
BLACK
6
CONTINUOUS
10
1.15698
20
-0.253271
11
1.20573
21
-0.253271
0
LINE
8
BLACK
6
CONTINUOUS
10
1.23197
20
-0.200778
11
1.23197
21
-0.215776
0
LINE
8
BLACK
6
CONTINUOUS
10
1.26197
20
-0.200778
11
1.26197
21
-0.215776
0
LINE
8
BLACK
6
CONTINUOUS
10
1.36546
20
-0.309514
11
1.36171
21
-0.305765
0
LINE
8
BLACK
6
CONTINUOUS
10
1.36171
20
-0.305765
11
1.35421
21
-0.294516
0
LINE
8
BLACK
6
CONTINUOUS
10
1.35421
20
-0.294516
11
1.35046
21
-0.287017
0
LINE
8
BLACK
6
CONTINUOUS
10
1.35046
20
-0.287017
11
1.34671
21
-0.275769
0
LINE
8
BLACK
6
CONTINUOUS
10
1.34671
20
-0.275769
11
1.34296
21
-0.257021
0
LINE
8
BLACK
6
CONTINUOUS
10
1.34296
20
-0.257021
11
1.34296
21
-0.242023
0
LINE
8
BLACK
6
CONTINUOUS
10
1.34296
20
-0.242023
11
1.34671
21
-0.223275
0
LINE
8
BLACK
6
CONTINUOUS
10
1.34671
20
-0.223275
11
1.35046
21
-0.212027
0
LINE
8
BLACK
6
CONTINUOUS
10
1.35046
20
-0.212027
11
1.35421
21
-0.204528
0
LINE
8
BLACK
6
CONTINUOUS
10
1.35421
20
-0.204528
11
1.36171
21
-0.193279
0
LINE
8
BLACK
6
CONTINUOUS
10
1.36171
20
-0.193279
11
1.36546
21
-0.189529
0
LINE
8
BLACK
6
CONTINUOUS
10
1.38795
20
-0.200778
11
1.4367
21
-0.200778
0
LINE
8
BLACK
6
CONTINUOUS
10
1.4367
20
-0.200778
11
1.41045
21
-0.230774
0
LINE
8
BLACK
6
CONTINUOUS
10
1.41045
20
-0.230774
11
1.4217
21
-0.230774
0
LINE
8
BLACK
6
CONTINUOUS
10
1.4217
20
-0.230774
11
1.4292
21
-0.234524
0
LINE
8
BLACK
6
CONTINUOUS
10
1.4292
20
-0.234524
11
1.43295
21
-0.238273
0
LINE
8
BLACK
6
CONTINUOUS
10
1.43295
20
-0.238273
11
1.4367
21
-0.245772
0
LINE
8
BLACK
6
CONTINUOUS
10
1.4367
20
-0.245772
11
1.4367
21
-0.26452
0
LINE
8
BLACK
6
CONTINUOUS
10
1.4367
20
-0.26452
11
1.43295
21
-0.272019
0
LINE
8
BLACK
6
CONTINUOUS
10
1.43295
20
-0.272019
11
1.4292
21
-0.275769
0
LINE
8
BLACK
6
CONTINUOUS
10
1.4292
20
-0.275769
11
1.4217
21
-0.279518
0
LINE
8
BLACK
6
CONTINUOUS
10
1.4217
20
-0.279518
11
1.3992
21
-0.279518
0
LINE
8
BLACK
6
CONTINUOUS
10
1.3992
20
-0.279518
11
1.3917
21
-0.275769
0
LINE
8
BLACK
6
CONTINUOUS
10
1.3917
20
-0.275769
11
1.38795
21
-0.272019
0
LINE
8
BLACK
6
CONTINUOUS
10
1.51769
20
-0.279518
11
1.51769
21
-0.200778
0
LINE
8
BLACK
6
CONTINUOUS
10
1.55143
20
-0.279518
11
1.55143
21
-0.238273
0
LINE
8
BLACK
6
CONTINUOUS
10
1.55143
20
-0.238273
11
1.54768
21
-0.230774
0
LINE
8
BLACK
6
CONTINUOUS
10
1.54768
20
-0.230774
11
1.54019
21
-0.227025
0
LINE
8
BLACK
6
CONTINUOUS
10
1.54019
20
-0.227025
11
1.52894
21
-0.227025
0
LINE
8
BLACK
6
CONTINUOUS
10
1.52894
20
-0.227025
11
1.52144
21
-0.230774
0
LINE
8
BLACK
6
CONTINUOUS
10
1.52144
20
-0.230774
11
1.51769
21
-0.234524
0
LINE
8
BLACK
6
CONTINUOUS
10
1.60018
20
-0.279518
11
1.59268
21
-0.275769
0
LINE
8
BLACK
6
CONTINUOUS
10
1.59268
20
-0.275769
11
1.58893
21
-0.272019
0
LINE
8
BLACK
6
CONTINUOUS
10
1.58893
20
-0.272019
11
1.58518
21
-0.26452
0
LINE
8
BLACK
6
CONTINUOUS
10
1.58518
20
-0.26452
11
1.58518
21
-0.242023
0
LINE
8
BLACK
6
CONTINUOUS
10
1.58518
20
-0.242023
11
1.58893
21
-0.234524
0
LINE
8
BLACK
6
CONTINUOUS
10
1.58893
20
-0.234524
11
1.59268
21
-0.230774
0
LINE
8
BLACK
6
CONTINUOUS
10
1.59268
20
-0.230774
11
1.60018
21
-0.227025
0
LINE
8
BLACK
6
CONTINUOUS
10
1.60018
20
-0.227025
11
1.61143
21
-0.227025
0
LINE
8
BLACK
6
CONTINUOUS
10
1.61143
20
-0.227025
11
1.61893
21
-0.230774
0
LINE
8
BLACK
6
CONTINUOUS
10
1.61893
20
-0.230774
11
1.62268
21
-0.234524
0
LINE
8
BLACK
6
CONTINUOUS
10
1.62268
20
-0.234524
11
1.62642
21
-0.242023
0
LINE
8
BLACK
6
CONTINUOUS
10
1.62642
20
-0.242023
11
1.62642
21
-0.26452
0
LINE
8
BLACK
6
CONTINUOUS
10
1.62642
20
-0.26452
11
1.62268
21
-0.272019
0
LINE
8
BLACK
6
CONTINUOUS
10
1.62268
20
-0.272019
11
1.61893
21
-0.275769
0
LINE
8
BLACK
6
CONTINUOUS
10
1.61893
20
-0.275769
11
1.61143
21
-0.279518
0
LINE
8
BLACK
6
CONTINUOUS
10
1.61143
20
-0.279518
11
1.60018
21
-0.279518
0
LINE
8
BLACK
6
CONTINUOUS
10
1.67142
20
-0.279518
11
1.66392
21
-0.275769
0
LINE
8
BLACK
6
CONTINUOUS
10
1.66392
20
-0.275769
11
1.66017
21
-0.26827
0
LINE
8
BLACK
6
CONTINUOUS
10
1.66017
20
-0.26827
11
1.66017
21
-0.200778
0
LINE
8
BLACK
6
CONTINUOUS
10
1.73141
20
-0.275769
11
1.72391
21
-0.279518
0
LINE
8
BLACK
6
CONTINUOUS
10
1.72391
20
-0.279518
11
1.70891
21
-0.279518
0
LINE
8
BLACK
6
CONTINUOUS
10
1.70891
20
-0.279518
11
1.70142
21
-0.275769
0
LINE
8
BLACK
6
CONTINUOUS
10
1.70142
20
-0.275769
11
1.69767
21
-0.26827
0
LINE
8
BLACK
6
CONTINUOUS
10
1.69767
20
-0.26827
11
1.69767
21
-0.238273
0
LINE
8
BLACK
6
CONTINUOUS
10
1.69767
20
-0.238273
11
1.70142
21
-0.230774
0
LINE
8
BLACK
6
CONTINUOUS
10
1.70142
20
-0.230774
11
1.70891
21
-0.227025
0
LINE
8
BLACK
6
CONTINUOUS
10
1.70891
20
-0.227025
11
1.72391
21
-0.227025
0
LINE
8
BLACK
6
CONTINUOUS
10
1.72391
20
-0.227025
11
1.73141
21
-0.230774
0
LINE
8
BLACK
6
CONTINUOUS
10
1.73141
20
-0.230774
11
1.73516
21
-0.238273
0
LINE
8
BLACK
6
CONTINUOUS
10
1.73516
20
-0.238273
11
1.73516
21
-0.245772
0
LINE
8
BLACK
6
CONTINUOUS
10
1.73516
20
-0.245772
11
1.69767
21
-0.253271
0
LINE
8
BLACK
6
CONTINUOUS
10
1.76516
20
-0.275769
11
1.77266
21
-0.279518
0
LINE
8
BLACK
6
CONTINUOUS
10
1.77266
20
-0.279518
11
1.78765
21
-0.279518
0
LINE
8
BLACK
6
CONTINUOUS
10
1.78765
20
-0.279518
11
1.79515
21
-0.275769
0
LINE
8
BLACK
6
CONTINUOUS
10
1.79515
20
-0.275769
11
1.7989
21
-0.26827
0
LINE
8
BLACK
6
CONTINUOUS
10
1.7989
20
-0.26827
11
1.7989
21
-0.26452
0
LINE
8
BLACK
6
CONTINUOUS
10
1.7989
20
-0.26452
11
1.79515
21
-0.257021
0
LINE
8
BLACK
6
CONTINUOUS
10
1.79515
20
-0.257021
11
1.78765
21
-0.253271
0
LINE
8
BLACK
6
CONTINUOUS
10
1.78765
20
-0.253271
11
1.77641
21
-0.253271
0
LINE
8
BLACK
6
CONTINUOUS
10
1.77641
20
-0.253271
11
1.76891
21
-0.249522
0
LINE
8
BLACK
6
CONTINUOUS
10
1.76891
20
-0.249522
11
1.76516
21
-0.242023
0
LINE
8
BLACK
6
CONTINUOUS
10
1.76516
20
-0.242023
11
1.76516
21
-0.238273
0
LINE
8
BLACK
6
CONTINUOUS
10
1.76516
20
-0.238273
11
1.76891
21
-0.230774
0
LINE
8
BLACK
6
CONTINUOUS
10
1.76891
20
-0.230774
11
1.77641
21
-0.227025
0
LINE
8
BLACK
6
CONTINUOUS
10
1.77641
20
-0.227025
11
1.78765
21
-0.227025
0
LINE
8
BLACK
6
CONTINUOUS
10
1.78765
20
-0.227025
11
1.79515
21
-0.230774
0
LINE
8
BLACK
6
CONTINUOUS
10
1.82515
20
-0.309514
11
1.8289
21
-0.305765
0
LINE
8
BLACK
6
CONTINUOUS
10
1.8289
20
-0.305765
11
1.8364
21
-0.294516
0
LINE
8
BLACK
6
CONTINUOUS
10
1.8364
20
-0.294516
11
1.84015
21
-0.287017
0
LINE
8
BLACK
6
CONTINUOUS
10
1.84015
20
-0.287017
11
1.8439
21
-0.275769
0
LINE
8
BLACK
6
CONTINUOUS
10
1.8439
20
-0.275769
11
1.84765
21
-0.257021
0
LINE
8
BLACK
6
CONTINUOUS
10
1.84765
20
-0.257021
11
1.84765
21
-0.242023
0
LINE
8
BLACK
6
CONTINUOUS
10
1.84765
20
-0.242023
11
1.8439
21
-0.223275
0
LINE
8
BLACK
6
CONTINUOUS
10
1.8439
20
-0.223275
11
1.84015
21
-0.212027
0
LINE
8
BLACK
6
CONTINUOUS
10
1.84015
20
-0.212027
11
1.8364
21
-0.204528
0
LINE
8
BLACK
6
CONTINUOUS
10
1.8364
20
-0.204528
11
1.8289
21
-0.193279
0
LINE
8
BLACK
6
CONTINUOUS
10
1.8289
20
-0.193279
11
1.82515
21
-0.189529
0
LINE
8
BLACK
6
CONTINUOUS
10
1.95488
20
-0.309514
11
1.95113
21
-0.305765
0
LINE
8
BLACK
6
CONTINUOUS
10
1.95113
20
-0.305765
11
1.94364
21
-0.294516
0
LINE
8
BLACK
6
CONTINUOUS
10
1.94364
20
-0.294516
11
1.93989
21
-0.287017
0
LINE
8
BLACK
6
CONTINUOUS
10
1.93989
20
-0.287017
11
1.93614
21
-0.275769
0
LINE
8
BLACK
6
CONTINUOUS
10
1.93614
20
-0.275769
11
1.93239
21
-0.257021
0
LINE
8
BLACK
6
CONTINUOUS
10
1.93239
20
-0.257021
11
1.93239
21
-0.242023
0
LINE
8
BLACK
6
CONTINUOUS
10
1.93239
20
-0.242023
11
1.93614
21
-0.223275
0
LINE
8
BLACK
6
CONTINUOUS
10
1.93614
20
-0.223275
11
1.93989
21
-0.212027
0
LINE
8
BLACK
6
CONTINUOUS
10
1.93989
20
-0.212027
11
1.94364
21
-0.204528
0
LINE
8
BLACK
6
CONTINUOUS
10
1.94364
20
-0.204528
11
1.95113
21
-0.193279
0
LINE
8
BLACK
6
CONTINUOUS
10
1.95113
20
-0.193279
11
1.95488
21
-0.189529
0
LINE
8
BLACK
6
CONTINUOUS
10
1.98488
20
-0.227025
11
1.98488
21
-0.279518
0
LINE
8
BLACK
6
CONTINUOUS
10
1.98488
20
-0.234524
11
1.98863
21
-0.230774
0
LINE
8
BLACK
6
CONTINUOUS
10
1.98863
20
-0.230774
11
1.99613
21
-0.227025
0
LINE
8
BLACK
6
CONTINUOUS
10
1.99613
20
-0.227025
11
2.00738
21
-0.227025
0
LINE
8
BLACK
6
CONTINUOUS
10
2.00738
20
-0.227025
11
2.01488
21
-0.230774
0
LINE
8
BLACK
6
CONTINUOUS
10
2.01488
20
-0.230774
11
2.01863
21
-0.238273
0
LINE
8
BLACK
6
CONTINUOUS
10
2.01863
20
-0.238273
11
2.01863
21
-0.279518
0
LINE
8
BLACK
6
CONTINUOUS
10
2.06737
20
-0.279518
11
2.05987
21
-0.275769
0
LINE
8
BLACK
6
CONTINUOUS
10
2.05987
20
-0.275769
11
2.05612
21
-0.272019
0
LINE
8
BLACK
6
CONTINUOUS
10
2.05612
20
-0.272019
11
2.05237
21
-0.26452
0
LINE
8
BLACK
6
CONTINUOUS
10
2.05237
20
-0.26452
11
2.05237
21
-0.242023
0
LINE
8
BLACK
6
CONTINUOUS
10
2.05237
20
-0.242023
11
2.05612
21
-0.234524
0
LINE
8
BLACK
6
CONTINUOUS
10
2.05612
20
-0.234524
11
2.05987
21
-0.230774
0
LINE
8
BLACK
6
CONTINUOUS
10
2.05987
20
-0.230774
11
2.06737
21
-0.227025
0
LINE
8
BLACK
6
CONTINUOUS
10
2.06737
20
-0.227025
11
2.07862
21
-0.227025
0
LINE
8
BLACK
6
CONTINUOUS
10
2.07862
20
-0.227025
11
2.08612
21
-0.230774
0
LINE
8
BLACK
6
CONTINUOUS
10
2.08612
20
-0.230774
11
2.08987
21
-0.234524
0
LINE
8
BLACK
6
CONTINUOUS
10
2.08987
20
-0.234524
11
2.09362
21
-0.242023
0
LINE
8
BLACK
6
CONTINUOUS
10
2.09362
20
-0.242023
11
2.09362
21
-0.26452
0
LINE
8
BLACK
6
CONTINUOUS
10
2.09362
20
-0.26452
11
2.08987
21
-0.272019
0
LINE
8
BLACK
6
CONTINUOUS
10
2.08987
20
-0.272019
11
2.08612
21
-0.275769
0
LINE
8
BLACK
6
CONTINUOUS
10
2.08612
20
-0.275769
11
2.07862
21
-0.279518
0
LINE
8
BLACK
6
CONTINUOUS
10
2.07862
20
-0.279518
11
2.06737
21
-0.279518
0
LINE
8
BLACK
6
CONTINUOUS
10
2.11611
20
-0.227025
11
2.14611
21
-0.227025
0
LINE
8
BLACK
6
CONTINUOUS
10
2.12736
20
-0.200778
11
2.12736
21
-0.26827
0
LINE
8
BLACK
6
CONTINUOUS
10
2.12736
20
-0.26827
11
2.13111
21
-0.275769
0
LINE
8
BLACK
6
CONTINUOUS
10
2.13111
20
-0.275769
11
2.13861
21
-0.279518
0
LINE
8
BLACK
6
CONTINUOUS
10
2.13861
20
-0.279518
11
2.14611
21
-0.279518
0
LINE
8
BLACK
6
CONTINUOUS
10
2.2196
20
-0.227025
11
2.2196
21
-0.305765
0
LINE
8
BLACK
6
CONTINUOUS
10
2.2196
20
-0.230774
11
2.2271
21
-0.227025
0
LINE
8
BLACK
6
CONTINUOUS
10
2.2271
20
-0.227025
11
2.2421
21
-0.227025
0
LINE
8
BLACK
6
CONTINUOUS
10
2.2421
20
-0.227025
11
2.2496
21
-0.230774
0
LINE
8
BLACK
6
CONTINUOUS
10
2.2496
20
-0.230774
11
2.25335
21
-0.234524
0
LINE
8
BLACK
6
CONTINUOUS
10
2.25335
20
-0.234524
11
2.2571
21
-0.242023
0
LINE
8
BLACK
6
CONTINUOUS
10
2.2571
20
-0.242023
11
2.2571
21
-0.26452
0
LINE
8
BLACK
6
CONTINUOUS
10
2.2571
20
-0.26452
11
2.25335
21
-0.272019
0
LINE
8
BLACK
6
CONTINUOUS
10
2.25335
20
-0.272019
11
2.2496
21
-0.275769
0
LINE
8
BLACK
6
CONTINUOUS
10
2.2496
20
-0.275769
11
2.2421
21
-0.279518
0
LINE
8
BLACK
6
CONTINUOUS
10
2.2421
20
-0.279518
11
2.2271
21
-0.279518
0
LINE
8
BLACK
6
CONTINUOUS
10
2.2271
20
-0.279518
11
2.2196
21
-0.275769
0
LINE
8
BLACK
6
CONTINUOUS
10
2.30209
20
-0.279518
11
2.29459
21
-0.275769
0
LINE
8
BLACK
6
CONTINUOUS
10
2.29459
20
-0.275769
11
2.29084
21
-0.26827
0
LINE
8
BLACK
6
CONTINUOUS
10
2.29084
20
-0.26827
11
2.29084
21
-0.200778
0
LINE
8
BLACK
6
CONTINUOUS
10
2.36583
20
-0.279518
11
2.36583
21
-0.238273
0
LINE
8
BLACK
6
CONTINUOUS
10
2.36583
20
-0.238273
11
2.36208
21
-0.230774
0
LINE
8
BLACK
6
CONTINUOUS
10
2.36208
20
-0.230774
11
2.35458
21
-0.227025
0
LINE
8
BLACK
6
CONTINUOUS
10
2.35458
20
-0.227025
11
2.33959
21
-0.227025
0
LINE
8
BLACK
6
CONTINUOUS
10
2.33959
20
-0.227025
11
2.33209
21
-0.230774
0
LINE
8
BLACK
6
CONTINUOUS
10
2.36583
20
-0.275769
11
2.35833
21
-0.279518
0
LINE
8
BLACK
6
CONTINUOUS
10
2.35833
20
-0.279518
11
2.33959
21
-0.279518
0
LINE
8
BLACK
6
CONTINUOUS
10
2.33959
20
-0.279518
11
2.33209
21
-0.275769
0
LINE
8
BLACK
6
CONTINUOUS
10
2.33209
20
-0.275769
11
2.32834
21
-0.26827
0
LINE
8
BLACK
6
CONTINUOUS
10
2.32834
20
-0.26827
11
2.32834
21
-0.260771
0
LINE
8
BLACK
6
CONTINUOUS
10
2.32834
20
-0.260771
11
2.33209
21
-0.253271
0
LINE
8
BLACK
6
CONTINUOUS
10
2.33209
20
-0.253271
11
2.33959
21
-0.249522
0
LINE
8
BLACK
6
CONTINUOUS
10
2.33959
20
-0.249522
11
2.35833
21
-0.249522
0
LINE
8
BLACK
6
CONTINUOUS
10
2.35833
20
-0.249522
11
2.36583
21
-0.245772
0
LINE
8
BLACK
6
CONTINUOUS
10
2.39208
20
-0.227025
11
2.42208
21
-0.227025
0
LINE
8
BLACK
6
CONTINUOUS
10
2.40333
20
-0.200778
11
2.40333
21
-0.26827
0
LINE
8
BLACK
6
CONTINUOUS
10
2.40333
20
-0.26827
11
2.40708
21
-0.275769
0
LINE
8
BLACK
6
CONTINUOUS
10
2.40708
20
-0.275769
11
2.41458
21
-0.279518
0
LINE
8
BLACK
6
CONTINUOUS
10
2.41458
20
-0.279518
11
2.42208
21
-0.279518
0
LINE
8
BLACK
6
CONTINUOUS
10
2.47832
20
-0.275769
11
2.47082
21
-0.279518
0
LINE
8
BLACK
6
CONTINUOUS
10
2.47082
20
-0.279518
11
2.45582
21
-0.279518
0
LINE
8
BLACK
6
CONTINUOUS
10
2.45582
20
-0.279518
11
2.44832
21
-0.275769
0
LINE
8
BLACK
6
CONTINUOUS
10
2.44832
20
-0.275769
11
2.44457
21
-0.26827
0
LINE
8
BLACK
6
CONTINUOUS
10
2.44457
20
-0.26827
11
2.44457
21
-0.238273
0
LINE
8
BLACK
6
CONTINUOUS
10
2.44457
20
-0.238273
11
2.44832
21
-0.230774
0
LINE
8
BLACK
6
CONTINUOUS
10
2.44832
20
-0.230774
11
2.45582
21
-0.227025
0
LINE
8
BLACK
6
CONTINUOUS
10
2.45582
20
-0.227025
11
2.47082
21
-0.227025
0
LINE
8
BLACK
6
CONTINUOUS
10
2.47082
20
-0.227025
11
2.47832
21
-0.230774
0
LINE
8
BLACK
6
CONTINUOUS
10
2.47832
20
-0.230774
11
2.48207
21
-0.238273
0
LINE
8
BLACK
6
CONTINUOUS
10
2.48207
20
-0.238273
11
2.48207
21
-0.245772
0
LINE
8
BLACK
6
CONTINUOUS
10
2.48207
20
-0.245772
11
2.44457
21
-0.253271
0
LINE
8
BLACK
6
CONTINUOUS
10
2.54956
20
-0.279518
11
2.54956
21
-0.200778
0
LINE
8
BLACK
6
CONTINUOUS
10
2.54956
20
-0.275769
11
2.54206
21
-0.279518
0
LINE
8
BLACK
6
CONTINUOUS
10
2.54206
20
-0.279518
11
2.52706
21
-0.279518
0
LINE
8
BLACK
6
CONTINUOUS
10
2.52706
20
-0.279518
11
2.51956
21
-0.275769
0
LINE
8
BLACK
6
CONTINUOUS
10
2.51956
20
-0.275769
11
2.51581
21
-0.272019
0
LINE
8
BLACK
6
CONTINUOUS
10
2.51581
20
-0.272019
11
2.51206
21
-0.26452
0
LINE
8
BLACK
6
CONTINUOUS
10
2.51206
20
-0.26452
11
2.51206
21
-0.242023
0
LINE
8
BLACK
6
CONTINUOUS
10
2.51206
20
-0.242023
11
2.51581
21
-0.234524
0
LINE
8
BLACK
6
CONTINUOUS
10
2.51581
20
-0.234524
11
2.51956
21
-0.230774
0
LINE
8
BLACK
6
CONTINUOUS
10
2.51956
20
-0.230774
11
2.52706
21
-0.227025
0
LINE
8
BLACK
6
CONTINUOUS
10
2.52706
20
-0.227025
11
2.54206
21
-0.227025
0
LINE
8
BLACK
6
CONTINUOUS
10
2.54206
20
-0.227025
11
2.54956
21
-0.230774
0
LINE
8
BLACK
6
CONTINUOUS
10
2.57956
20
-0.309514
11
2.58331
21
-0.305765
0
LINE
8
BLACK
6
CONTINUOUS
10
2.58331
20
-0.305765
11
2.5908
21
-0.294516
0
LINE
8
BLACK
6
CONTINUOUS
10
2.5908
20
-0.294516
11
2.59455
21
-0.287017
0
LINE
8
BLACK
6
CONTINUOUS
10
2.59455
20
-0.287017
11
2.5983
21
-0.275769
0
LINE
8
BLACK
6
CONTINUOUS
10
2.5983
20
-0.275769
11
2.60205
21
-0.257021
0
LINE
8
BLACK
6
CONTINUOUS
10
2.60205
20
-0.257021
11
2.60205
21
-0.242023
0
LINE
8
BLACK
6
CONTINUOUS
10
2.60205
20
-0.242023
11
2.5983
21
-0.223275
0
LINE
8
BLACK
6
CONTINUOUS
10
2.5983
20
-0.223275
11
2.59455
21
-0.212027
0
LINE
8
BLACK
6
CONTINUOUS
10
2.59455
20
-0.212027
11
2.5908
21
-0.204528
0
LINE
8
BLACK
6
CONTINUOUS
10
2.5908
20
-0.204528
11
2.58331
21
-0.193279
0
LINE
8
BLACK
6
CONTINUOUS
10
2.58331
20
-0.193279
11
2.57956
21
-0.189529
0
CIRCLE
8
BLACK
10
-0.0379921
20
-0.354528
40
0.0393701
0
LINE
8
BLACK
6
CONTINUOUS
10
0.132612
20
-0.330962
11
0.132612
21
-0.383455
0
LINE
8
BLACK
6
CONTINUOUS
10
0.113864
20
-0.300965
11
0.0951162
21
-0.357208
0
LINE
8
BLACK
6
CONTINUOUS
10
0.0951162
20
-0.357208
11
0.14386
21
-0.357208
0
LINE
8
BLACK
6
CONTINUOUS
10
0.173856
20
-0.375956
11
0.177606
21
-0.379706
0
LINE
8
BLACK
6
CONTINUOUS
10
0.177606
20
-0.379706
11
0.173856
21
-0.383455
0
LINE
8
BLACK
6
CONTINUOUS
10
0.173856
20
-0.383455
11
0.170107
21
-0.379706
0
LINE
8
BLACK
6
CONTINUOUS
10
0.170107
20
-0.379706
11
0.173856
21
-0.375956
0
LINE
8
BLACK
6
CONTINUOUS
10
0.173856
20
-0.375956
11
0.173856
21
-0.383455
0
LINE
8
BLACK
6
CONTINUOUS
10
0.203853
20
-0.304715
11
0.252597
21
-0.304715
0
LINE
8
BLACK
6
CONTINUOUS
10
0.252597
20
-0.304715
11
0.22635
21
-0.334711
0
LINE
8
BLACK
6
CONTINUOUS
10
0.22635
20
-0.334711
11
0.237598
21
-0.334711
0
LINE
8
BLACK
6
CONTINUOUS
10
0.237598
20
-0.334711
11
0.245097
21
-0.338461
0
LINE
8
BLACK
6
CONTINUOUS
10
0.245097
20
-0.338461
11
0.248847
21
-0.34221
0
LINE
8
BLACK
6
CONTINUOUS
10
0.248847
20
-0.34221
11
0.252597
21
-0.349709
0
LINE
8
BLACK
6
CONTINUOUS
10
0.252597
20
-0.349709
11
0.252597
21
-0.368457
0
LINE
8
BLACK
6
CONTINUOUS
10
0.252597
20
-0.368457
11
0.248847
21
-0.375956
0
LINE
8
BLACK
6
CONTINUOUS
10
0.248847
20
-0.375956
11
0.245097
21
-0.379706
0
LINE
8
BLACK
6
CONTINUOUS
10
0.245097
20
-0.379706
11
0.237598
21
-0.383455
0
LINE
8
BLACK
6
CONTINUOUS
10
0.237598
20
-0.383455
11
0.215101
21
-0.383455
0
LINE
8
BLACK
6
CONTINUOUS
10
0.215101
20
-0.383455
11
0.207602
21
-0.379706
0
LINE
8
BLACK
6
CONTINUOUS
10
0.207602
20
-0.379706
11
0.203853
21
-0.375956
0
LINE
8
BLACK
6
CONTINUOUS
10
0.30134
20
-0.304715
11
0.30884
21
-0.304715
0
LINE
8
BLACK
6
CONTINUOUS
10
0.30884
20
-0.304715
11
0.316339
21
-0.308465
0
LINE
8
BLACK
6
CONTINUOUS
10
0.316339
20
-0.308465
11
0.320088
21
-0.312214
0
LINE
8
BLACK
6
CONTINUOUS
10
0.320088
20
-0.312214
11
0.323838
21
-0.319713
0
LINE
8
BLACK
6
CONTINUOUS
10
0.323838
20
-0.319713
11
0.327587
21
-0.334711
0
LINE
8
BLACK
6
CONTINUOUS
10
0.327587
20
-0.334711
11
0.327587
21
-0.353459
0
LINE
8
BLACK
6
CONTINUOUS
10
0.327587
20
-0.353459
11
0.323838
21
-0.368457
0
LINE
8
BLACK
6
CONTINUOUS
10
0.323838
20
-0.368457
11
0.320088
21
-0.375956
0
LINE
8
BLACK
6
CONTINUOUS
10
0.320088
20
-0.375956
11
0.316339
21
-0.379706
0
LINE
8
BLACK
6
CONTINUOUS
10
0.316339
20
-0.379706
11
0.30884
21
-0.383455
0
LINE
8
BLACK
6
CONTINUOUS
10
0.30884
20
-0.383455
11
0.30134
21
-0.383455
0
LINE
8
BLACK
6
CONTINUOUS
10
0.30134
20
-0.383455
11
0.293841
21
-0.379706
0
LINE
8
BLACK
6
CONTINUOUS
10
0.293841
20
-0.379706
11
0.290092
21
-0.375956
0
LINE
8
BLACK
6
CONTINUOUS
10
0.290092
20
-0.375956
11
0.286342
21
-0.368457
0
LINE
8
BLACK
6
CONTINUOUS
10
0.286342
20
-0.368457
11
0.282593
21
-0.353459
0
LINE
8
BLACK
6
CONTINUOUS
10
0.282593
20
-0.353459
11
0.282593
21
-0.334711
0
LINE
8
BLACK
6
CONTINUOUS
10
0.282593
20
-0.334711
11
0.286342
21
-0.319713
0
LINE
8
BLACK
6
CONTINUOUS
10
0.286342
20
-0.319713
11
0.290092
21
-0.312214
0
LINE
8
BLACK
6
CONTINUOUS
10
0.290092
20
-0.312214
11
0.293841
21
-0.308465
0
LINE
8
BLACK
6
CONTINUOUS
10
0.293841
20
-0.308465
11
0.30134
21
-0.304715
0
LINE
8
BLACK
6
CONTINUOUS
10
0.376331
20
-0.304715
11
0.38383
21
-0.304715
0
LINE
8
BLACK
6
CONTINUOUS
10
0.38383
20
-0.304715
11
0.391329
21
-0.308465
0
LINE
8
BLACK
6
CONTINUOUS
10
0.391329
20
-0.308465
11
0.395079
21
-0.312214
0
LINE
8
BLACK
6
CONTINUOUS
10
0.395079
20
-0.312214
11
0.398828
21
-0.319713
0
LINE
8
BLACK
6
CONTINUOUS
10
0.398828
20
-0.319713
11
0.402578
21
-0.334711
0
LINE
8
BLACK
6
CONTINUOUS
10
0.402578
20
-0.334711
11
0.402578
21
-0.353459
0
LINE
8
BLACK
6
CONTINUOUS
10
0.402578
20
-0.353459
11
0.398828
21
-0.368457
0
LINE
8
BLACK
6
CONTINUOUS
10
0.398828
20
-0.368457
11
0.395079
21
-0.375956
0
LINE
8
BLACK
6
CONTINUOUS
10
0.395079
20
-0.375956
11
0.391329
21
-0.379706
0
LINE
8
BLACK
6
CONTINUOUS
10
0.391329
20
-0.379706
11
0.38383
21
-0.383455
0
LINE
8
BLACK
6
CONTINUOUS
10
0.38383
20
-0.383455
11
0.376331
21
-0.383455
0
LINE
8
BLACK
6
CONTINUOUS
10
0.376331
20
-0.383455
11
0.368832
21
-0.379706
0
LINE
8
BLACK
6
CONTINUOUS
10
0.368832
20
-0.379706
11
0.365082
21
-0.375956
0
LINE
8
BLACK
6
CONTINUOUS
10
0.365082
20
-0.375956
11
0.361333
21
-0.368457
0
LINE
8
BLACK
6
CONTINUOUS
10
0.361333
20
-0.368457
11
0.357583
21
-0.353459
0
LINE
8
BLACK
6
CONTINUOUS
10
0.357583
20
-0.353459
11
0.357583
21
-0.334711
0
LINE
8
BLACK
6
CONTINUOUS
10
0.357583
20
-0.334711
11
0.361333
21
-0.319713
0
LINE
8
BLACK
6
CONTINUOUS
10
0.361333
20
-0.319713
11
0.365082
21
-0.312214
0
LINE
8
BLACK
6
CONTINUOUS
10
0.365082
20
-0.312214
11
0.368832
21
-0.308465
0
LINE
8
BLACK
6
CONTINUOUS
10
0.368832
20
-0.308465
11
0.376331
21
-0.304715
0
LINE
8
BLACK
6
CONTINUOUS
10
0.436324
20
-0.383455
11
0.436324
21
-0.330962
0
LINE
8
BLACK
6
CONTINUOUS
10
0.436324
20
-0.338461
11
0.440073
21
-0.334711
0
LINE
8
BLACK
6
CONTINUOUS
10
0.440073
20
-0.334711
11
0.447572
21
-0.330962
0
LINE
8
BLACK
6
CONTINUOUS
10
0.447572
20
-0.330962
11
0.458821
21
-0.330962
0
LINE
8
BLACK
6
CONTINUOUS
10
0.458821
20
-0.330962
11
0.46632
21
-0.334711
0
LINE
8
BLACK
6
CONTINUOUS
10
0.46632
20
-0.334711
11
0.470069
21
-0.34221
0
LINE
8
BLACK
6
CONTINUOUS
10
0.470069
20
-0.34221
11
0.470069
21
-0.383455
0
LINE
8
BLACK
6
CONTINUOUS
10
0.470069
20
-0.34221
11
0.473819
21
-0.334711
0
LINE
8
BLACK
6
CONTINUOUS
10
0.473819
20
-0.334711
11
0.481318
21
-0.330962
0
LINE
8
BLACK
6
CONTINUOUS
10
0.481318
20
-0.330962
11
0.492567
21
-0.330962
0
LINE
8
BLACK
6
CONTINUOUS
10
0.492567
20
-0.330962
11
0.500066
21
-0.334711
0
LINE
8
BLACK
6
CONTINUOUS
10
0.500066
20
-0.334711
11
0.503815
21
-0.34221
0
LINE
8
BLACK
6
CONTINUOUS
10
0.503815
20
-0.34221
11
0.503815
21
-0.383455
0
LINE
8
BLACK
6
CONTINUOUS
10
0.54131
20
-0.383455
11
0.54131
21
-0.330962
0
LINE
8
BLACK
6
CONTINUOUS
10
0.54131
20
-0.338461
11
0.54506
21
-0.334711
0
LINE
8
BLACK
6
CONTINUOUS
10
0.54506
20
-0.334711
11
0.552559
21
-0.330962
0
LINE
8
BLACK
6
CONTINUOUS
10
0.552559
20
-0.330962
11
0.563808
21
-0.330962
0
LINE
8
BLACK
6
CONTINUOUS
10
0.563808
20
-0.330962
11
0.571307
21
-0.334711
0
LINE
8
BLACK
6
CONTINUOUS
10
0.571307
20
-0.334711
11
0.575056
21
-0.34221
0
LINE
8
BLACK
6
CONTINUOUS
10
0.575056
20
-0.34221
11
0.575056
21
-0.383455
0
LINE
8
BLACK
6
CONTINUOUS
10
0.575056
20
-0.34221
11
0.578806
21
-0.334711
0
LINE
8
BLACK
6
CONTINUOUS
10
0.578806
20
-0.334711
11
0.586305
21
-0.330962
0
LINE
8
BLACK
6
CONTINUOUS
10
0.586305
20
-0.330962
11
0.597553
21
-0.330962
0
LINE
8
BLACK
6
CONTINUOUS
10
0.597553
20
-0.330962
11
0.605053
21
-0.334711
0
LINE
8
BLACK
6
CONTINUOUS
10
0.605053
20
-0.334711
11
0.608802
21
-0.34221
0
LINE
8
BLACK
6
CONTINUOUS
10
0.608802
20
-0.34221
11
0.608802
21
-0.383455
0
LINE
8
BLACK
6
CONTINUOUS
10
0.749784
20
-0.300965
11
0.682293
21
-0.402203
0
LINE
8
BLACK
6
CONTINUOUS
10
0.838273
20
-0.304715
11
0.845772
21
-0.304715
0
LINE
8
BLACK
6
CONTINUOUS
10
0.845772
20
-0.304715
11
0.853271
21
-0.308465
0
LINE
8
BLACK
6
CONTINUOUS
10
0.853271
20
-0.308465
11
0.857021
21
-0.312214
0
LINE
8
BLACK
6
CONTINUOUS
10
0.857021
20
-0.312214
11
0.860771
21
-0.319713
0
LINE
8
BLACK
6
CONTINUOUS
10
0.860771
20
-0.319713
11
0.86452
21
-0.334711
0
LINE
8
BLACK
6
CONTINUOUS
10
0.86452
20
-0.334711
11
0.86452
21
-0.353459
0
LINE
8
BLACK
6
CONTINUOUS
10
0.86452
20
-0.353459
11
0.860771
21
-0.368457
0
LINE
8
BLACK
6
CONTINUOUS
10
0.860771
20
-0.368457
11
0.857021
21
-0.375956
0
LINE
8
BLACK
6
CONTINUOUS
10
0.857021
20
-0.375956
11
0.853271
21
-0.379706
0
LINE
8
BLACK
6
CONTINUOUS
10
0.853271
20
-0.379706
11
0.845772
21
-0.383455
0
LINE
8
BLACK
6
CONTINUOUS
10
0.845772
20
-0.383455
11
0.838273
21
-0.383455
0
LINE
8
BLACK
6
CONTINUOUS
10
0.838273
20
-0.383455
11
0.830774
21
-0.379706
0
LINE
8
BLACK
6
CONTINUOUS
10
0.830774
20
-0.379706
11
0.827025
21
-0.375956
0
LINE
8
BLACK
6
CONTINUOUS
10
0.827025
20
-0.375956
11
0.823275
21
-0.368457
0
LINE
8
BLACK
6
CONTINUOUS
10
0.823275
20
-0.368457
11
0.819526
21
-0.353459
0
LINE
8
BLACK
6
CONTINUOUS
10
0.819526
20
-0.353459
11
0.819526
21
-0.334711
0
LINE
8
BLACK
6
CONTINUOUS
10
0.819526
20
-0.334711
11
0.823275
21
-0.319713
0
LINE
8
BLACK
6
CONTINUOUS
10
0.823275
20
-0.319713
11
0.827025
21
-0.312214
0
LINE
8
BLACK
6
CONTINUOUS
10
0.827025
20
-0.312214
11
0.830774
21
-0.308465
0
LINE
8
BLACK
6
CONTINUOUS
10
0.830774
20
-0.308465
11
0.838273
21
-0.304715
0
LINE
8
BLACK
6
CONTINUOUS
10
0.898266
20
-0.375956
11
0.902015
21
-0.379706
0
LINE
8
BLACK
6
CONTINUOUS
10
0.902015
20
-0.379706
11
0.898266
21
-0.383455
0
LINE
8
BLACK
6
CONTINUOUS
10
0.898266
20
-0.383455
11
0.894516
21
-0.379706
0
LINE
8
BLACK
6
CONTINUOUS
10
0.894516
20
-0.379706
11
0.898266
21
-0.375956
0
LINE
8
BLACK
6
CONTINUOUS
10
0.898266
20
-0.375956
11
0.898266
21
-0.383455
0
LINE
8
BLACK
6
CONTINUOUS
10
0.977006
20
-0.383455
11
0.932012
21
-0.383455
0
LINE
8
BLACK
6
CONTINUOUS
10
0.954509
20
-0.383455
11
0.954509
21
-0.304715
0
LINE
8
BLACK
6
CONTINUOUS
10
0.954509
20
-0.304715
11
0.94701
21
-0.315964
0
LINE
8
BLACK
6
CONTINUOUS
10
0.94701
20
-0.315964
11
0.939511
21
-0.323463
0
LINE
8
BLACK
6
CONTINUOUS
10
0.939511
20
-0.323463
11
0.932012
21
-0.327212
0
LINE
8
BLACK
6
CONTINUOUS
10
1.0445
20
-0.304715
11
1.0295
21
-0.304715
0
LINE
8
BLACK
6
CONTINUOUS
10
1.0295
20
-0.304715
11
1.022
21
-0.308465
0
LINE
8
BLACK
6
CONTINUOUS
10
1.022
20
-0.308465
11
1.01825
21
-0.312214
0
LINE
8
BLACK
6
CONTINUOUS
10
1.01825
20
-0.312214
11
1.01075
21
-0.323463
0
LINE
8
BLACK
6
CONTINUOUS
10
1.01075
20
-0.323463
11
1.007
21
-0.338461
0
LINE
8
BLACK
6
CONTINUOUS
10
1.007
20
-0.338461
11
1.007
21
-0.368457
0
LINE
8
BLACK
6
CONTINUOUS
10
1.007
20
-0.368457
11
1.01075
21
-0.375956
0
LINE
8
BLACK
6
CONTINUOUS
10
1.01075
20
-0.375956
11
1.0145
21
-0.379706
0
LINE
8
BLACK
6
CONTINUOUS
10
1.0145
20
-0.379706
11
1.022
21
-0.383455
0
LINE
8
BLACK
6
CONTINUOUS
10
1.022
20
-0.383455
11
1.037
21
-0.383455
0
LINE
8
BLACK
6
CONTINUOUS
10
1.037
20
-0.383455
11
1.0445
21
-0.379706
0
LINE
8
BLACK
6
CONTINUOUS
10
1.0445
20
-0.379706
11
1.04825
21
-0.375956
0
LINE
8
BLACK
6
CONTINUOUS
10
1.04825
20
-0.375956
11
1.052
21
-0.368457
0
LINE
8
BLACK
6
CONTINUOUS
10
1.052
20
-0.368457
11
1.052
21
-0.349709
0
LINE
8
BLACK
6
CONTINUOUS
10
1.052
20
-0.349709
11
1.04825
21
-0.34221
0
LINE
8
BLACK
6
CONTINUOUS
10
1.04825
20
-0.34221
11
1.0445
21
-0.338461
0
LINE
8
BLACK
6
CONTINUOUS
10
1.0445
20
-0.338461
11
1.037
21
-0.334711
0
LINE
8
BLACK
6
CONTINUOUS
10
1.037
20
-0.334711
11
1.022
21
-0.334711
0
LINE
8
BLACK
6
CONTINUOUS
10
1.022
20
-0.334711
11
1.0145
21
-0.338461
0
LINE
8
BLACK
6
CONTINUOUS
10
1.0145
20
-0.338461
11
1.01075
21
-0.34221
0
LINE
8
BLACK
6
CONTINUOUS
10
1.01075
20
-0.34221
11
1.007
21
-0.349709
0
LINE
8
BLACK
6
CONTINUOUS
10
1.08949
20
-0.383455
11
1.10449
21
-0.383455
0
LINE
8
BLACK
6
CONTINUOUS
10
1.10449
20
-0.383455
11
1.11199
21
-0.379706
0
LINE
8
BLACK
6
CONTINUOUS
10
1.11199
20
-0.379706
11
1.11574
21
-0.375956
0
LINE
8
BLACK
6
CONTINUOUS
10
1.11574
20
-0.375956
11
1.12324
21
-0.364708
0
LINE
8
BLACK
6
CONTINUOUS
10
1.12324
20
-0.364708
11
1.12699
21
-0.349709
0
LINE
8
BLACK
6
CONTINUOUS
10
1.12699
20
-0.349709
11
1.12699
21
-0.319713
0
LINE
8
BLACK
6
CONTINUOUS
10
1.12699
20
-0.319713
11
1.12324
21
-0.312214
0
LINE
8
BLACK
6
CONTINUOUS
10
1.12324
20
-0.312214
11
1.11949
21
-0.308465
0
LINE
8
BLACK
6
CONTINUOUS
10
1.11949
20
-0.308465
11
1.11199
21
-0.304715
0
LINE
8
BLACK
6
CONTINUOUS
10
1.11199
20
-0.304715
11
1.09699
21
-0.304715
0
LINE
8
BLACK
6
CONTINUOUS
10
1.09699
20
-0.304715
11
1.08949
21
-0.308465
0
LINE
8
BLACK
6
CONTINUOUS
10
1.08949
20
-0.308465
11
1.08574
21
-0.312214
0
LINE
8
BLACK
6
CONTINUOUS
10
1.08574
20
-0.312214
11
1.08199
21
-0.319713
0
LINE
8
BLACK
6
CONTINUOUS
10
1.08199
20
-0.319713
11
1.08199
21
-0.338461
0
LINE
8
BLACK
6
CONTINUOUS
10
1.08199
20
-0.338461
11
1.08574
21
-0.34596
0
LINE
8
BLACK
6
CONTINUOUS
10
1.08574
20
-0.34596
11
1.08949
21
-0.349709
0
LINE
8
BLACK
6
CONTINUOUS
10
1.08949
20
-0.349709
11
1.09699
21
-0.353459
0
LINE
8
BLACK
6
CONTINUOUS
10
1.09699
20
-0.353459
11
1.11199
21
-0.353459
0
LINE
8
BLACK
6
CONTINUOUS
10
1.11199
20
-0.353459
11
1.11949
21
-0.349709
0
LINE
8
BLACK
6
CONTINUOUS
10
1.11949
20
-0.349709
11
1.12324
21
-0.34596
0
LINE
8
BLACK
6
CONTINUOUS
10
1.12324
20
-0.34596
11
1.12699
21
-0.338461
0
LINE
8
BLACK
6
CONTINUOUS
10
1.15323
20
-0.304715
11
1.20198
21
-0.304715
0
LINE
8
BLACK
6
CONTINUOUS
10
1.20198
20
-0.304715
11
1.17573
21
-0.334711
0
LINE
8
BLACK
6
CONTINUOUS
10
1.17573
20
-0.334711
11
1.18698
21
-0.334711
0
LINE
8
BLACK
6
CONTINUOUS
10
1.18698
20
-0.334711
11
1.19448
21
-0.338461
0
LINE
8
BLACK
6
CONTINUOUS
10
1.19448
20
-0.338461
11
1.19823
21
-0.34221
0
LINE
8
BLACK
6
CONTINUOUS
10
1.19823
20
-0.34221
11
1.20198
21
-0.349709
0
LINE
8
BLACK
6
CONTINUOUS
10
1.20198
20
-0.349709
11
1.20198
21
-0.368457
0
LINE
8
BLACK
6
CONTINUOUS
10
1.20198
20
-0.368457
11
1.19823
21
-0.375956
0
LINE
8
BLACK
6
CONTINUOUS
10
1.19823
20
-0.375956
11
1.19448
21
-0.379706
0
LINE
8
BLACK
6
CONTINUOUS
10
1.19448
20
-0.379706
11
1.18698
21
-0.383455
0
LINE
8
BLACK
6
CONTINUOUS
10
1.18698
20
-0.383455
11
1.16448
21
-0.383455
0
LINE
8
BLACK
6
CONTINUOUS
10
1.16448
20
-0.383455
11
1.15698
21
-0.379706
0
LINE
8
BLACK
6
CONTINUOUS
10
1.15698
20
-0.379706
11
1.15323
21
-0.375956
0
LINE
8
BLACK
6
CONTINUOUS
10
1.23197
20
-0.304715
11
1.23197
21
-0.319713
0
LINE
8
BLACK
6
CONTINUOUS
10
1.26197
20
-0.304715
11
1.26197
21
-0.319713
0
LINE
8
BLACK
6
CONTINUOUS
10
1.36546
20
-0.413451
11
1.36171
21
-0.409702
0
LINE
8
BLACK
6
CONTINUOUS
10
1.36171
20
-0.409702
11
1.35421
21
-0.398453
0
LINE
8
BLACK
6
CONTINUOUS
10
1.35421
20
-0.398453
11
1.35046
21
-0.390954
0
LINE
8
BLACK
6
CONTINUOUS
10
1.35046
20
-0.390954
11
1.34671
21
-0.379706
0
LINE
8
BLACK
6
CONTINUOUS
10
1.34671
20
-0.379706
11
1.34296
21
-0.360958
0
LINE
8
BLACK
6
CONTINUOUS
10
1.34296
20
-0.360958
11
1.34296
21
-0.34596
0
LINE
8
BLACK
6
CONTINUOUS
10
1.34296
20
-0.34596
11
1.34671
21
-0.327212
0
LINE
8
BLACK
6
CONTINUOUS
10
1.34671
20
-0.327212
11
1.35046
21
-0.315964
0
LINE
8
BLACK
6
CONTINUOUS
10
1.35046
20
-0.315964
11
1.35421
21
-0.308465
0
LINE
8
BLACK
6
CONTINUOUS
10
1.35421
20
-0.308465
11
1.36171
21
-0.297216
0
LINE
8
BLACK
6
CONTINUOUS
10
1.36171
20
-0.297216
11
1.36546
21
-0.293466
0
LINE
8
BLACK
6
CONTINUOUS
10
1.3917
20
-0.312214
11
1.39545
21
-0.308465
0
LINE
8
BLACK
6
CONTINUOUS
10
1.39545
20
-0.308465
11
1.40295
21
-0.304715
0
LINE
8
BLACK
6
CONTINUOUS
10
1.40295
20
-0.304715
11
1.4217
21
-0.304715
0
LINE
8
BLACK
6
CONTINUOUS
10
1.4217
20
-0.304715
11
1.4292
21
-0.308465
0
LINE
8
BLACK
6
CONTINUOUS
10
1.4292
20
-0.308465
11
1.43295
21
-0.312214
0
LINE
8
BLACK
6
CONTINUOUS
10
1.43295
20
-0.312214
11
1.4367
21
-0.319713
0
LINE
8
BLACK
6
CONTINUOUS
10
1.4367
20
-0.319713
11
1.4367
21
-0.327212
0
LINE
8
BLACK
6
CONTINUOUS
10
1.4367
20
-0.327212
11
1.43295
21
-0.338461
0
LINE
8
BLACK
6
CONTINUOUS
10
1.43295
20
-0.338461
11
1.38795
21
-0.383455
0
LINE
8
BLACK
6
CONTINUOUS
10
1.38795
20
-0.383455
11
1.4367
21
-0.383455
0
LINE
8
BLACK
6
CONTINUOUS
10
1.51769
20
-0.383455
11
1.51769
21
-0.304715
0
LINE
8
BLACK
6
CONTINUOUS
10
1.55143
20
-0.383455
11
1.55143
21
-0.34221
0
LINE
8
BLACK
6
CONTINUOUS
10
1.55143
20
-0.34221
11
1.54768
21
-0.334711
0
LINE
8
BLACK
6
CONTINUOUS
10
1.54768
20
-0.334711
11
1.54019
21
-0.330962
0
LINE
8
BLACK
6
CONTINUOUS
10
1.54019
20
-0.330962
11
1.52894
21
-0.330962
0
LINE
8
BLACK
6
CONTINUOUS
10
1.52894
20
-0.330962
11
1.52144
21
-0.334711
0
LINE
8
BLACK
6
CONTINUOUS
10
1.52144
20
-0.334711
11
1.51769
21
-0.338461
0
LINE
8
BLACK
6
CONTINUOUS
10
1.60018
20
-0.383455
11
1.59268
21
-0.379706
0
LINE
8
BLACK
6
CONTINUOUS
10
1.59268
20
-0.379706
11
1.58893
21
-0.375956
0
LINE
8
BLACK
6
CONTINUOUS
10
1.58893
20
-0.375956
11
1.58518
21
-0.368457
0
LINE
8
BLACK
6
CONTINUOUS
10
1.58518
20
-0.368457
11
1.58518
21
-0.34596
0
LINE
8
BLACK
6
CONTINUOUS
10
1.58518
20
-0.34596
11
1.58893
21
-0.338461
0
LINE
8
BLACK
6
CONTINUOUS
10
1.58893
20
-0.338461
11
1.59268
21
-0.334711
0
LINE
8
BLACK
6
CONTINUOUS
10
1.59268
20
-0.334711
11
1.60018
21
-0.330962
0
LINE
8
BLACK
6
CONTINUOUS
10
1.60018
20
-0.330962
11
1.61143
21
-0.330962
0
LINE
8
BLACK
6
CONTINUOUS
10
1.61143
20
-0.330962
11
1.61893
21
-0.334711
0
LINE
8
BLACK
6
CONTINUOUS
10
1.61893
20
-0.334711
11
1.62268
21
-0.338461
0
LINE
8
BLACK
6
CONTINUOUS
10
1.62268
20
-0.338461
11
1.62642
21
-0.34596
0
LINE
8
BLACK
6
CONTINUOUS
10
1.62642
20
-0.34596
11
1.62642
21
-0.368457
0
LINE
8
BLACK
6
CONTINUOUS
10
1.62642
20
-0.368457
11
1.62268
21
-0.375956
0
LINE
8
BLACK
6
CONTINUOUS
10
1.62268
20
-0.375956
11
1.61893
21
-0.379706
0
LINE
8
BLACK
6
CONTINUOUS
10
1.61893
20
-0.379706
11
1.61143
21
-0.383455
0
LINE
8
BLACK
6
CONTINUOUS
10
1.61143
20
-0.383455
11
1.60018
21
-0.383455
0
LINE
8
BLACK
6
CONTINUOUS
10
1.67142
20
-0.383455
11
1.66392
21
-0.379706
0
LINE
8
BLACK
6
CONTINUOUS
10
1.66392
20
-0.379706
11
1.66017
21
-0.372207
0
LINE
8
BLACK
6
CONTINUOUS
10
1.66017
20
-0.372207
11
1.66017
21
-0.304715
0
LINE
8
BLACK
6
CONTINUOUS
10
1.73141
20
-0.379706
11
1.72391
21
-0.383455
0
LINE
8
BLACK
6
CONTINUOUS
10
1.72391
20
-0.383455
11
1.70891
21
-0.383455
0
LINE
8
BLACK
6
CONTINUOUS
10
1.70891
20
-0.383455
11
1.70142
21
-0.379706
0
LINE
8
BLACK
6
CONTINUOUS
10
1.70142
20
-0.379706
11
1.69767
21
-0.372207
0
LINE
8
BLACK
6
CONTINUOUS
10
1.69767
20
-0.372207
11
1.69767
21
-0.34221
0
LINE
8
BLACK
6
CONTINUOUS
10
1.69767
20
-0.34221
11
1.70142
21
-0.334711
0
LINE
8
BLACK
6
CONTINUOUS
10
1.70142
20
-0.334711
11
1.70891
21
-0.330962
0
LINE
8
BLACK
6
CONTINUOUS
10
1.70891
20
-0.330962
11
1.72391
21
-0.330962
0
LINE
8
BLACK
6
CONTINUOUS
10
1.72391
20
-0.330962
11
1.73141
21
-0.334711
0
LINE
8
BLACK
6
CONTINUOUS
10
1.73141
20
-0.334711
11
1.73516
21
-0.34221
0
LINE
8
BLACK
6
CONTINUOUS
10
1.73516
20
-0.34221
11
1.73516
21
-0.349709
0
LINE
8
BLACK
6
CONTINUOUS
10
1.73516
20
-0.349709
11
1.69767
21
-0.357208
0
LINE
8
BLACK
6
CONTINUOUS
10
1.76516
20
-0.379706
11
1.77266
21
-0.383455
0
LINE
8
BLACK
6
CONTINUOUS
10
1.77266
20
-0.383455
11
1.78765
21
-0.383455
0
LINE
8
BLACK
6
CONTINUOUS
10
1.78765
20
-0.383455
11
1.79515
21
-0.379706
0
LINE
8
BLACK
6
CONTINUOUS
10
1.79515
20
-0.379706
11
1.7989
21
-0.372207
0
LINE
8
BLACK
6
CONTINUOUS
10
1.7989
20
-0.372207
11
1.7989
21
-0.368457
0
LINE
8
BLACK
6
CONTINUOUS
10
1.7989
20
-0.368457
11
1.79515
21
-0.360958
0
LINE
8
BLACK
6
CONTINUOUS
10
1.79515
20
-0.360958
11
1.78765
21
-0.357208
0
LINE
8
BLACK
6
CONTINUOUS
10
1.78765
20
-0.357208
11
1.77641
21
-0.357208
0
LINE
8
BLACK
6
CONTINUOUS
10
1.77641
20
-0.357208
11
1.76891
21
-0.353459
0
LINE
8
BLACK
6
CONTINUOUS
10
1.76891
20
-0.353459
11
1.76516
21
-0.34596
0
LINE
8
BLACK
6
CONTINUOUS
10
1.76516
20
-0.34596
11
1.76516
21
-0.34221
0
LINE
8
BLACK
6
CONTINUOUS
10
1.76516
20
-0.34221
11
1.76891
21
-0.334711
0
LINE
8
BLACK
6
CONTINUOUS
10
1.76891
20
-0.334711
11
1.77641
21
-0.330962
0
LINE
8
BLACK
6
CONTINUOUS
10
1.77641
20
-0.330962
11
1.78765
21
-0.330962
0
LINE
8
BLACK
6
CONTINUOUS
10
1.78765
20
-0.330962
11
1.79515
21
-0.334711
0
LINE
8
BLACK
6
CONTINUOUS
10
1.82515
20
-0.413451
11
1.8289
21
-0.409702
0
LINE
8
BLACK
6
CONTINUOUS
10
1.8289
20
-0.409702
11
1.8364
21
-0.398453
0
LINE
8
BLACK
6
CONTINUOUS
10
1.8364
20
-0.398453
11
1.84015
21
-0.390954
0
LINE
8
BLACK
6
CONTINUOUS
10
1.84015
20
-0.390954
11
1.8439
21
-0.379706
0
LINE
8
BLACK
6
CONTINUOUS
10
1.8439
20
-0.379706
11
1.84765
21
-0.360958
0
LINE
8
BLACK
6
CONTINUOUS
10
1.84765
20
-0.360958
11
1.84765
21
-0.34596
0
LINE
8
BLACK
6
CONTINUOUS
10
1.84765
20
-0.34596
11
1.8439
21
-0.327212
0
LINE
8
BLACK
6
CONTINUOUS
10
1.8439
20
-0.327212
11
1.84015
21
-0.315964
0
LINE
8
BLACK
6
CONTINUOUS
10
1.84015
20
-0.315964
11
1.8364
21
-0.308465
0
LINE
8
BLACK
6
CONTINUOUS
10
1.8364
20
-0.308465
11
1.8289
21
-0.297216
0
LINE
8
BLACK
6
CONTINUOUS
10
1.8289
20
-0.297216
11
1.82515
21
-0.293466
0
LINE
8
BLACK
6
CONTINUOUS
10
1.95488
20
-0.413451
11
1.95113
21
-0.409702
0
LINE
8
BLACK
6
CONTINUOUS
10
1.95113
20
-0.409702
11
1.94364
21
-0.398453
0
LINE
8
BLACK
6
CONTINUOUS
10
1.94364
20
-0.398453
11
1.93989
21
-0.390954
0
LINE
8
BLACK
6
CONTINUOUS
10
1.93989
20
-0.390954
11
1.93614
21
-0.379706
0
LINE
8
BLACK
6
CONTINUOUS
10
1.93614
20
-0.379706
11
1.93239
21
-0.360958
0
LINE
8
BLACK
6
CONTINUOUS
10
1.93239
20
-0.360958
11
1.93239
21
-0.34596
0
LINE
8
BLACK
6
CONTINUOUS
10
1.93239
20
-0.34596
11
1.93614
21
-0.327212
0
LINE
8
BLACK
6
CONTINUOUS
10
1.93614
20
-0.327212
11
1.93989
21
-0.315964
0
LINE
8
BLACK
6
CONTINUOUS
10
1.93989
20
-0.315964
11
1.94364
21
-0.308465
0
LINE
8
BLACK
6
CONTINUOUS
10
1.94364
20
-0.308465
11
1.95113
21
-0.297216
0
LINE
8
BLACK
6
CONTINUOUS
10
1.95113
20
-0.297216
11
1.95488
21
-0.293466
0
LINE
8
BLACK
6
CONTINUOUS
10
1.98488
20
-0.330962
11
1.98488
21
-0.383455
0
LINE
8
BLACK
6
CONTINUOUS
10
1.98488
20
-0.338461
11
1.98863
21
-0.334711
0
LINE
8
BLACK
6
CONTINUOUS
10
1.98863
20
-0.334711
11
1.99613
21
-0.330962
0
LINE
8
BLACK
6
CONTINUOUS
10
1.99613
20
-0.330962
11
2.00738
21
-0.330962
0
LINE
8
BLACK
6
CONTINUOUS
10
2.00738
20
-0.330962
11
2.01488
21
-0.334711
0
LINE
8
BLACK
6
CONTINUOUS
10
2.01488
20
-0.334711
11
2.01863
21
-0.34221
0
LINE
8
BLACK
6
CONTINUOUS
10
2.01863
20
-0.34221
11
2.01863
21
-0.383455
0
LINE
8
BLACK
6
CONTINUOUS
10
2.06737
20
-0.383455
11
2.05987
21
-0.379706
0
LINE
8
BLACK
6
CONTINUOUS
10
2.05987
20
-0.379706
11
2.05612
21
-0.375956
0
LINE
8
BLACK
6
CONTINUOUS
10
2.05612
20
-0.375956
11
2.05237
21
-0.368457
0
LINE
8
BLACK
6
CONTINUOUS
10
2.05237
20
-0.368457
11
2.05237
21
-0.34596
0
LINE
8
BLACK
6
CONTINUOUS
10
2.05237
20
-0.34596
11
2.05612
21
-0.338461
0
LINE
8
BLACK
6
CONTINUOUS
10
2.05612
20
-0.338461
11
2.05987
21
-0.334711
0
LINE
8
BLACK
6
CONTINUOUS
10
2.05987
20
-0.334711
11
2.06737
21
-0.330962
0
LINE
8
BLACK
6
CONTINUOUS
10
2.06737
20
-0.330962
11
2.07862
21
-0.330962
0
LINE
8
BLACK
6
CONTINUOUS
10
2.07862
20
-0.330962
11
2.08612
21
-0.334711
0
LINE
8
BLACK
6
CONTINUOUS
10
2.08612
20
-0.334711
11
2.08987
21
-0.338461
0
LINE
8
BLACK
6
CONTINUOUS
10
2.08987
20
-0.338461
11
2.09362
21
-0.34596
0
LINE
8
BLACK
6
CONTINUOUS
10
2.09362
20
-0.34596
11
2.09362
21
-0.368457
0
LINE
8
BLACK
6
CONTINUOUS
10
2.09362
20
-0.368457
11
2.08987
21
-0.375956
0
LINE
8
BLACK
6
CONTINUOUS
10
2.08987
20
-0.375956
11
2.08612
21
-0.379706
0
LINE
8
BLACK
6
CONTINUOUS
10
2.08612
20
-0.379706
11
2.07862
21
-0.383455
0
LINE
8
BLACK
6
CONTINUOUS
10
2.07862
20
-0.383455
11
2.06737
21
-0.383455
0
LINE
8
BLACK
6
CONTINUOUS
10
2.11611
20
-0.330962
11
2.14611
21
-0.330962
0
LINE
8
BLACK
6
CONTINUOUS
10
2.12736
20
-0.304715
11
2.12736
21
-0.372207
0
LINE
8
BLACK
6
CONTINUOUS
10
2.12736
20
-0.372207
11
2.13111
21
-0.379706
0
LINE
8
BLACK
6
CONTINUOUS
10
2.13111
20
-0.379706
11
2.13861
21
-0.383455
0
LINE
8
BLACK
6
CONTINUOUS
10
2.13861
20
-0.383455
11
2.14611
21
-0.383455
0
LINE
8
BLACK
6
CONTINUOUS
10
2.2196
20
-0.330962
11
2.2196
21
-0.409702
0
LINE
8
BLACK
6
CONTINUOUS
10
2.2196
20
-0.334711
11
2.2271
21
-0.330962
0
LINE
8
BLACK
6
CONTINUOUS
10
2.2271
20
-0.330962
11
2.2421
21
-0.330962
0
LINE
8
BLACK
6
CONTINUOUS
10
2.2421
20
-0.330962
11
2.2496
21
-0.334711
0
LINE
8
BLACK
6
CONTINUOUS
10
2.2496
20
-0.334711
11
2.25335
21
-0.338461
0
LINE
8
BLACK
6
CONTINUOUS
10
2.25335
20
-0.338461
11
2.2571
21
-0.34596
0
LINE
8
BLACK
6
CONTINUOUS
10
2.2571
20
-0.34596
11
2.2571
21
-0.368457
0
LINE
8
BLACK
6
CONTINUOUS
10
2.2571
20
-0.368457
11
2.25335
21
-0.375956
0
LINE
8
BLACK
6
CONTINUOUS
10
2.25335
20
-0.375956
11
2.2496
21
-0.379706
0
LINE
8
BLACK
6
CONTINUOUS
10
2.2496
20
-0.379706
11
2.2421
21
-0.383455
0
LINE
8
BLACK
6
CONTINUOUS
10
2.2421
20
-0.383455
11
2.2271
21
-0.383455
0
LINE
8
BLACK
6
CONTINUOUS
10
2.2271
20
-0.383455
11
2.2196
21
-0.379706
0
LINE
8
BLACK
6
CONTINUOUS
10
2.30209
20
-0.383455
11
2.29459
21
-0.379706
0
LINE
8
BLACK
6
CONTINUOUS
10
2.29459
20
-0.379706
11
2.29084
21
-0.372207
0
LINE
8
BLACK
6
CONTINUOUS
10
2.29084
20
-0.372207
11
2.29084
21
-0.304715
0
LINE
8
BLACK
6
CONTINUOUS
10
2.36583
20
-0.383455
11
2.36583
21
-0.34221
0
LINE
8
BLACK
6
CONTINUOUS
10
2.36583
20
-0.34221
11
2.36208
21
-0.334711
0
LINE
8
BLACK
6
CONTINUOUS
10
2.36208
20
-0.334711
11
2.35458
21
-0.330962
0
LINE
8
BLACK
6
CONTINUOUS
10
2.35458
20
-0.330962
11
2.33959
21
-0.330962
0
LINE
8
BLACK
6
CONTINUOUS
10
2.33959
20
-0.330962
11
2.33209
21
-0.334711
0
LINE
8
BLACK
6
CONTINUOUS
10
2.36583
20
-0.379706
11
2.35833
21
-0.383455
0
LINE
8
BLACK
6
CONTINUOUS
10
2.35833
20
-0.383455
11
2.33959
21
-0.383455
0
LINE
8
BLACK
6
CONTINUOUS
10
2.33959
20
-0.383455
11
2.33209
21
-0.379706
0
LINE
8
BLACK
6
CONTINUOUS
10
2.33209
20
-0.379706
11
2.32834
21
-0.372207
0
LINE
8
BLACK
6
CONTINUOUS
10
2.32834
20
-0.372207
11
2.32834
21
-0.364708
0
LINE
8
BLACK
6
CONTINUOUS
10
2.32834
20
-0.364708
11
2.33209
21
-0.357208
0
LINE
8
BLACK
6
CONTINUOUS
10
2.33209
20
-0.357208
11
2.33959
21
-0.353459
0
LINE
8
BLACK
6
CONTINUOUS
10
2.33959
20
-0.353459
11
2.35833
21
-0.353459
0
LINE
8
BLACK
6
CONTINUOUS
10
2.35833
20
-0.353459
11
2.36583
21
-0.349709
0
LINE
8
BLACK
6
CONTINUOUS
10
2.39208
20
-0.330962
11
2.42208
21
-0.330962
0
LINE
8
BLACK
6
CONTINUOUS
10
2.40333
20
-0.304715
11
2.40333
21
-0.372207
0
LINE
8
BLACK
6
CONTINUOUS
10
2.40333
20
-0.372207
11
2.40708
21
-0.379706
0
LINE
8
BLACK
6
CONTINUOUS
10
2.40708
20
-0.379706
11
2.41458
21
-0.383455
0
LINE
8
BLACK
6
CONTINUOUS
10
2.41458
20
-0.383455
11
2.42208
21
-0.383455
0
LINE
8
BLACK
6
CONTINUOUS
10
2.47832
20
-0.379706
11
2.47082
21
-0.383455
0
LINE
8
BLACK
6
CONTINUOUS
10
2.47082
20
-0.383455
11
2.45582
21
-0.383455
0
LINE
8
BLACK
6
CONTINUOUS
10
2.45582
20
-0.383455
11
2.44832
21
-0.379706
0
LINE
8
BLACK
6
CONTINUOUS
10
2.44832
20
-0.379706
11
2.44457
21
-0.372207
0
LINE
8
BLACK
6
CONTINUOUS
10
2.44457
20
-0.372207
11
2.44457
21
-0.34221
0
LINE
8
BLACK
6
CONTINUOUS
10
2.44457
20
-0.34221
11
2.44832
21
-0.334711
0
LINE
8
BLACK
6
CONTINUOUS
10
2.44832
20
-0.334711
11
2.45582
21
-0.330962
0
LINE
8
BLACK
6
CONTINUOUS
10
2.45582
20
-0.330962
11
2.47082
21
-0.330962
0
LINE
8
BLACK
6
CONTINUOUS
10
2.47082
20
-0.330962
11
2.47832
21
-0.334711
0
LINE
8
BLACK
6
CONTINUOUS
10
2.47832
20
-0.334711
11
2.48207
21
-0.34221
0
LINE
8
BLACK
6
CONTINUOUS
10
2.48207
20
-0.34221
11
2.48207
21
-0.349709
0
LINE
8
BLACK
6
CONTINUOUS
10
2.48207
20
-0.349709
11
2.44457
21
-0.357208
0
LINE
8
BLACK
6
CONTINUOUS
10
2.54956
20
-0.383455
11
2.54956
21
-0.304715
0
LINE
8
BLACK
6
CONTINUOUS
10
2.54956
20
-0.379706
11
2.54206
21
-0.383455
0
LINE
8
BLACK
6
CONTINUOUS
10
2.54206
20
-0.383455
11
2.52706
21
-0.383455
0
LINE
8
BLACK
6
CONTINUOUS
10
2.52706
20
-0.383455
11
2.51956
21
-0.379706
0
LINE
8
BLACK
6
CONTINUOUS
10
2.51956
20
-0.379706
11
2.51581
21
-0.375956
0
LINE
8
BLACK
6
CONTINUOUS
10
2.51581
20
-0.375956
11
2.51206
21
-0.368457
0
LINE
8
BLACK
6
CONTINUOUS
10
2.51206
20
-0.368457
11
2.51206
21
-0.34596
0
LINE
8
BLACK
6
CONTINUOUS
10
2.51206
20
-0.34596
11
2.51581
21
-0.338461
0
LINE
8
BLACK
6
CONTINUOUS
10
2.51581
20
-0.338461
11
2.51956
21
-0.334711
0
LINE
8
BLACK
6
CONTINUOUS
10
2.51956
20
-0.334711
11
2.52706
21
-0.330962
0
LINE
8
BLACK
6
CONTINUOUS
10
2.52706
20
-0.330962
11
2.54206
21
-0.330962
0
LINE
8
BLACK
6
CONTINUOUS
10
2.54206
20
-0.330962
11
2.54956
21
-0.334711
0
LINE
8
BLACK
6
CONTINUOUS
10
2.57956
20
-0.413451
11
2.58331
21
-0.409702
0
LINE
8
BLACK
6
CONTINUOUS
10
2.58331
20
-0.409702
11
2.5908
21
-0.398453
0
LINE
8
BLACK
6
CONTINUOUS
10
2.5908
20
-0.398453
11
2.59455
21
-0.390954
0
LINE
8
BLACK
6
CONTINUOUS
10
2.59455
20
-0.390954
11
2.5983
21
-0.379706
0
LINE
8
BLACK
6
CONTINUOUS
10
2.5983
20
-0.379706
11
2.60205
21
-0.360958
0
LINE
8
BLACK
6
CONTINUOUS
10
2.60205
20
-0.360958
11
2.60205
21
-0.34596
0
LINE
8
BLACK
6
CONTINUOUS
10
2.60205
20
-0.34596
11
2.5983
21
-0.327212
0
LINE
8
BLACK
6
CONTINUOUS
10
2.5983
20
-0.327212
11
2.59455
21
-0.315964
0
LINE
8
BLACK
6
CONTINUOUS
10
2.59455
20
-0.315964
11
2.5908
21
-0.308465
0
LINE
8
BLACK
6
CONTINUOUS
10
2.5908
20
-0.308465
11
2.58331
21
-0.297216
0
LINE
8
BLACK
6
CONTINUOUS
10
2.58331
20
-0.297216
11
2.57956
21
-0.293466
  0
ENDSEC
  0
EOF
