M48
; DRILL file {KiCad 5.1.6+dfsg1-1~bpo10+1} date Thu Apr 22 00:57:54 2021
; FORMAT={-:-/ absolute / metric / decimal}
; #@! TF.CreationDate,2021-04-22T00:57:54+03:00
; #@! TF.GenerationSoftware,Kicad,Pcbnew,5.1.6+dfsg1-1~bpo10+1
FMAT,2
METRIC
T1C0.300
T2C0.650
T3C0.750
T4C1.152
T5C4.300
%
G90
G05
T1
X3.311Y34.475
X3.311Y33.301
X3.311Y32.127
X4.732Y33.301
X5.05Y19.04
X6.0Y18.14
X6.675Y14.99
X6.675Y13.715
X6.675Y12.44
X6.675Y11.165
X7.025Y18.64
X8.025Y15.84
X8.025Y10.365
X8.775Y28.215
X9.325Y14.99
X9.325Y13.715
X9.325Y12.44
X9.325Y11.165
X9.441Y9.113
X9.62Y19.26
X9.68Y26.25
X9.75Y17.215
X10.05Y28.965
X10.85Y15.915
X11.559Y9.169
X12.25Y21.2
X13.662Y9.171
X14.02Y16.16
X14.03Y22.22
X14.625Y24.715
X14.775Y33.215
X15.763Y31.086
X15.786Y9.199
X16.924Y29.748
X17.125Y26.765
X17.13Y32.93
X17.909Y9.184
X18.275Y24.815
X18.59Y13.47
X19.725Y26.596
X20.022Y9.202
X20.53Y26.596
X21.772Y34.475
X21.85Y36.14
X21.856Y32.666
X22.148Y9.151
X22.948Y26.596
X23.281Y36.14
X23.284Y32.638
X23.385Y34.482
X24.262Y9.191
X24.39Y24.47
X24.7Y19.04
X24.75Y16.64
X25.234Y29.191
X25.55Y19.99
X25.8Y17.79
X25.864Y34.731
X26.045Y29.301
X26.398Y9.133
X26.444Y28.556
X26.461Y27.7
X26.7Y18.965
X27.099Y29.765
X27.566Y30.258
X27.66Y31.0
X27.698Y27.695
X27.708Y29.664
X27.825Y19.99
X28.19Y22.64
X28.491Y9.146
X28.76Y27.548
X28.778Y29.633
X28.823Y28.665
X29.014Y22.12
X29.608Y31.658
X29.682Y30.576
X29.867Y31.157
X30.127Y21.279
X30.619Y9.136
X30.865Y30.082
X31.239Y21.404
X31.717Y28.757
X31.833Y30.124
X31.854Y31.17
X31.907Y26.443
X32.336Y21.32
X32.357Y34.688
X32.357Y22.385
X32.74Y9.136
X33.469Y21.401
X34.35Y18.215
X34.516Y30.38
X34.666Y25.176
X34.678Y20.464
X34.681Y23.141
X34.681Y22.45
X34.683Y21.719
X34.866Y9.151
X35.013Y15.077
X35.013Y14.039
X35.181Y22.082
X35.189Y22.791
X35.204Y23.474
X35.511Y31.99
X35.77Y29.387
X35.859Y15.712
X35.859Y14.706
X35.859Y13.7
X37.0Y9.12
X37.028Y16.9
X37.289Y31.835
X37.289Y20.505
X37.584Y23.756
X37.599Y25.127
X38.206Y25.09
X38.225Y23.84
X38.844Y27.975
X38.844Y27.365
X39.1Y9.141
X39.296Y21.612
X39.403Y30.032
X39.441Y25.09
X39.441Y23.865
X39.456Y20.294
X39.472Y27.975
X39.472Y27.365
X40.071Y20.888
X40.101Y27.975
X40.101Y27.365
X40.139Y23.006
X40.218Y23.834
X40.304Y25.094
X40.508Y21.978
X40.932Y23.862
X40.934Y20.047
X41.038Y30.113
X41.071Y20.997
X41.239Y9.146
X41.551Y25.051
X41.691Y24.139
X42.25Y24.749
X42.255Y23.532
X42.443Y34.886
X42.783Y32.905
X43.126Y18.661
X43.355Y9.194
X43.765Y18.661
X44.231Y21.957
X44.403Y18.661
X44.607Y25.526
X44.642Y24.706
X45.041Y18.661
X45.163Y24.139
X45.351Y23.299
X45.458Y9.115
X45.626Y22.272
X45.956Y25.31
X46.007Y14.49
X46.088Y13.601
X46.223Y23.37
X46.631Y14.851
X46.741Y34.584
X47.51Y17.507
X47.531Y32.582
X47.541Y30.809
X47.579Y9.125
X48.63Y9.994
X48.633Y26.174
X48.638Y26.933
X49.7Y9.128
X49.751Y27.919
X50.137Y33.062
X50.746Y19.44
X50.838Y9.527
X50.848Y28.003
X50.98Y26.964
X51.112Y23.136
X51.785Y10.332
X51.823Y9.125
X51.929Y36.181
X52.11Y33.337
X52.463Y22.864
X52.585Y25.488
X52.747Y36.23
X52.966Y18.186
X53.275Y35.773
X53.444Y27.871
X53.454Y26.093
X53.474Y23.479
X53.77Y25.13
X53.949Y9.156
X54.028Y23.055
X54.122Y26.773
X54.483Y22.608
X54.709Y20.144
X55.003Y9.527
X56.09Y9.163
X56.692Y14.934
X57.056Y36.225
X57.104Y10.339
X57.282Y26.656
X57.294Y27.685
X57.844Y32.41
X57.844Y31.787
X58.181Y9.141
X58.211Y36.1
X58.265Y35.125
X58.823Y32.382
X58.845Y29.692
X58.976Y36.136
X59.029Y28.086
X59.22Y10.327
X59.443Y36.824
X59.468Y29.702
X59.595Y32.09
X59.838Y30.205
X60.121Y29.661
X60.149Y21.587
X60.312Y9.141
X60.518Y18.655
X60.919Y21.559
X61.024Y9.433
X61.498Y18.653
X61.536Y21.561
X61.887Y9.524
X62.016Y34.749
X62.016Y33.767
X62.016Y32.785
X62.016Y31.804
X62.016Y30.822
X62.217Y25.412
X62.217Y24.446
X62.217Y23.479
X62.217Y22.513
X62.217Y21.547
X62.783Y24.932
X62.783Y23.966
X62.783Y22.999
X62.783Y22.033
X62.783Y21.067
X62.783Y20.101
X62.842Y34.749
X62.842Y33.767
X62.842Y32.785
X62.842Y31.804
X62.842Y30.822
X63.149Y26.618
X63.395Y15.91
X63.395Y14.17
X64.023Y18.661
X64.048Y30.626
X64.056Y25.331
X64.432Y10.296
X64.469Y15.91
X64.469Y14.17
X65.045Y10.296
X65.077Y30.599
X65.115Y34.861
X65.151Y32.801
X65.542Y15.91
X65.542Y14.17
X65.657Y10.296
X65.681Y11.714
X65.697Y12.737
X66.27Y10.296
X66.677Y9.727
X66.817Y9.031
X66.883Y10.296
X66.896Y29.019
X67.462Y11.368
X67.531Y8.958
X68.163Y30.278
X68.308Y8.958
X68.907Y13.857
X69.034Y12.699
T2
X51.802Y31.703
X43.728Y31.703
X44.998Y31.703
X46.268Y31.703
X47.538Y31.703
X48.808Y31.703
X50.078Y31.703
T3
X22.567Y31.005
X24.567Y31.005
X26.567Y31.005
X28.567Y31.005
X54.84Y30.99
X56.84Y30.99
X58.84Y30.99
X60.84Y30.99
T4
X1.488Y36.019
X2.054Y10.327
X68.183Y35.991
T5
X5.41Y5.06
X64.41Y5.06
T0
M30
