%TF.GenerationSoftware,KiCad,Pcbnew,5.1.6+dfsg1-1~bpo10+1*%
%TF.CreationDate,2021-04-22T00:57:50+03:00*%
%TF.ProjectId,controller,636f6e74-726f-46c6-9c65-722e6b696361,rev?*%
%TF.SameCoordinates,PX3cfccb0PYa197300*%
%TF.FileFunction,Soldermask,Bot*%
%TF.FilePolarity,Negative*%
%FSLAX46Y46*%
G04 Gerber Fmt 4.6, Leading zero omitted, Abs format (unit mm)*
G04 Created by KiCad (PCBNEW 5.1.6+dfsg1-1~bpo10+1) date 2021-04-22 00:57:50*
%MOMM*%
%LPD*%
G01*
G04 APERTURE LIST*
%ADD10C,0.100000*%
%ADD11O,1.320000X6.760000*%
%ADD12C,4.400000*%
%ADD13R,1.100000X1.100000*%
%ADD14O,1.100000X1.100000*%
%ADD15O,1.300000X1.850000*%
%ADD16C,1.448000*%
G04 APERTURE END LIST*
D10*
%TO.C,J1*%
G36*
X50000Y50000D02*
G01*
X69640000Y50000D01*
X69640000Y7892000D01*
X50000Y7892000D01*
X50000Y50000D01*
G37*
X50000Y50000D02*
X69640000Y50000D01*
X69640000Y7892000D01*
X50000Y7892000D01*
X50000Y50000D01*
%TD*%
D11*
%TO.C,J1*%
X60300000Y4590000D03*
X58180000Y4590000D03*
X56060000Y4590000D03*
X53940000Y4590000D03*
X51820000Y4590000D03*
X49700000Y4590000D03*
X47580000Y4590000D03*
X45460000Y4590000D03*
X43340000Y4590000D03*
X41220000Y4590000D03*
X39100000Y4590000D03*
X36980000Y4590000D03*
X34860000Y4590000D03*
X32740000Y4590000D03*
X30620000Y4590000D03*
X28500000Y4590000D03*
X26380000Y4590000D03*
X24260000Y4590000D03*
X22140000Y4590000D03*
X20020000Y4590000D03*
X17900000Y4590000D03*
X15780000Y4590000D03*
X13660000Y4590000D03*
X11540000Y4590000D03*
X9420000Y4590000D03*
D12*
X64410000Y5060000D03*
X5410000Y5060000D03*
%TD*%
D13*
%TO.C,J4*%
X51801660Y31703420D03*
%TD*%
D14*
%TO.C,J6*%
X50078220Y31703420D03*
X48808220Y31703420D03*
X47538220Y31703420D03*
X46268220Y31703420D03*
X44998220Y31703420D03*
D13*
X43728220Y31703420D03*
%TD*%
D15*
%TO.C,J3*%
X28567480Y31004920D03*
X26567480Y31004920D03*
X24567480Y31004920D03*
G36*
G01*
X21917480Y30350752D02*
X21917480Y31659088D01*
G75*
G02*
X22188312Y31929920I270832J0D01*
G01*
X22946648Y31929920D01*
G75*
G02*
X23217480Y31659088I0J-270832D01*
G01*
X23217480Y30350752D01*
G75*
G02*
X22946648Y30079920I-270832J0D01*
G01*
X22188312Y30079920D01*
G75*
G02*
X21917480Y30350752I0J270832D01*
G01*
G37*
%TD*%
D16*
%TO.C,H3*%
X2054440Y10326780D03*
%TD*%
%TO.C,H2*%
X68183340Y35990940D03*
%TD*%
%TO.C,H1*%
X1488020Y36018880D03*
%TD*%
D15*
%TO.C,J2*%
X60840000Y30990000D03*
X58840000Y30990000D03*
X56840000Y30990000D03*
G36*
G01*
X54190000Y30335832D02*
X54190000Y31644168D01*
G75*
G02*
X54460832Y31915000I270832J0D01*
G01*
X55219168Y31915000D01*
G75*
G02*
X55490000Y31644168I0J-270832D01*
G01*
X55490000Y30335832D01*
G75*
G02*
X55219168Y30065000I-270832J0D01*
G01*
X54460832Y30065000D01*
G75*
G02*
X54190000Y30335832I0J270832D01*
G01*
G37*
%TD*%
M02*
