%TF.GenerationSoftware,KiCad,Pcbnew,5.1.6+dfsg1-1~bpo10+1*%
%TF.CreationDate,2021-04-22T00:57:50+03:00*%
%TF.ProjectId,controller,636f6e74-726f-46c6-9c65-722e6b696361,rev?*%
%TF.SameCoordinates,PX3cfccb0PYa197300*%
%TF.FileFunction,Legend,Top*%
%TF.FilePolarity,Positive*%
%FSLAX46Y46*%
G04 Gerber Fmt 4.6, Leading zero omitted, Abs format (unit mm)*
G04 Created by KiCad (PCBNEW 5.1.6+dfsg1-1~bpo10+1) date 2021-04-22 00:57:50*
%MOMM*%
%LPD*%
G01*
G04 APERTURE LIST*
%ADD10C,0.150000*%
%ADD11C,0.120000*%
G04 APERTURE END LIST*
D10*
X15271904Y17468096D02*
X14890952Y17201429D01*
X15271904Y17010953D02*
X14471904Y17010953D01*
X14471904Y17315715D01*
X14510000Y17391905D01*
X14548095Y17430000D01*
X14624285Y17468096D01*
X14738571Y17468096D01*
X14814761Y17430000D01*
X14852857Y17391905D01*
X14890952Y17315715D01*
X14890952Y17010953D01*
X15233809Y17772858D02*
X15271904Y17887143D01*
X15271904Y18077620D01*
X15233809Y18153810D01*
X15195714Y18191905D01*
X15119523Y18230000D01*
X15043333Y18230000D01*
X14967142Y18191905D01*
X14929047Y18153810D01*
X14890952Y18077620D01*
X14852857Y17925239D01*
X14814761Y17849048D01*
X14776666Y17810953D01*
X14700476Y17772858D01*
X14624285Y17772858D01*
X14548095Y17810953D01*
X14510000Y17849048D01*
X14471904Y17925239D01*
X14471904Y18115715D01*
X14510000Y18230000D01*
X14471904Y18458572D02*
X14471904Y18915715D01*
X15271904Y18687143D02*
X14471904Y18687143D01*
X15271904Y20439524D02*
X15271904Y20401429D01*
X15233809Y20325239D01*
X15119523Y20210953D01*
X14890952Y20020477D01*
X14776666Y19944286D01*
X14662380Y19906191D01*
X14586190Y19906191D01*
X14510000Y19944286D01*
X14471904Y20020477D01*
X14471904Y20058572D01*
X14510000Y20134762D01*
X14586190Y20172858D01*
X14624285Y20172858D01*
X14700476Y20134762D01*
X14738571Y20096667D01*
X14890952Y19868096D01*
X14929047Y19830000D01*
X15005238Y19791905D01*
X15119523Y19791905D01*
X15195714Y19830000D01*
X15233809Y19868096D01*
X15271904Y19944286D01*
X15271904Y20058572D01*
X15233809Y20134762D01*
X15195714Y20172858D01*
X15043333Y20287143D01*
X14929047Y20325239D01*
X14852857Y20325239D01*
X15271904Y21391905D02*
X14471904Y21391905D01*
X14471904Y21696667D01*
X14510000Y21772858D01*
X14548095Y21810953D01*
X14624285Y21849048D01*
X14738571Y21849048D01*
X14814761Y21810953D01*
X14852857Y21772858D01*
X14890952Y21696667D01*
X14890952Y21391905D01*
X15271904Y22649048D02*
X14890952Y22382381D01*
X15271904Y22191905D02*
X14471904Y22191905D01*
X14471904Y22496667D01*
X14510000Y22572858D01*
X14548095Y22610953D01*
X14624285Y22649048D01*
X14738571Y22649048D01*
X14814761Y22610953D01*
X14852857Y22572858D01*
X14890952Y22496667D01*
X14890952Y22191905D01*
X14471904Y23144286D02*
X14471904Y23296667D01*
X14510000Y23372858D01*
X14586190Y23449048D01*
X14738571Y23487143D01*
X15005238Y23487143D01*
X15157619Y23449048D01*
X15233809Y23372858D01*
X15271904Y23296667D01*
X15271904Y23144286D01*
X15233809Y23068096D01*
X15157619Y22991905D01*
X15005238Y22953810D01*
X14738571Y22953810D01*
X14586190Y22991905D01*
X14510000Y23068096D01*
X14471904Y23144286D01*
X14510000Y24249048D02*
X14471904Y24172858D01*
X14471904Y24058572D01*
X14510000Y23944286D01*
X14586190Y23868096D01*
X14662380Y23830000D01*
X14814761Y23791905D01*
X14929047Y23791905D01*
X15081428Y23830000D01*
X15157619Y23868096D01*
X15233809Y23944286D01*
X15271904Y24058572D01*
X15271904Y24134762D01*
X15233809Y24249048D01*
X15195714Y24287143D01*
X14929047Y24287143D01*
X14929047Y24134762D01*
X3893378Y36512856D02*
X4350520Y36512856D01*
X4121949Y35712856D02*
X4121949Y36512856D01*
X4731473Y35712856D02*
X4655282Y35750951D01*
X4617187Y35789046D01*
X4579092Y35865237D01*
X4579092Y36093808D01*
X4617187Y36169999D01*
X4655282Y36208094D01*
X4731473Y36246189D01*
X4845759Y36246189D01*
X4921949Y36208094D01*
X4960044Y36169999D01*
X4998140Y36093808D01*
X4998140Y35865237D01*
X4960044Y35789046D01*
X4921949Y35750951D01*
X4845759Y35712856D01*
X4731473Y35712856D01*
X5340997Y36246189D02*
X5340997Y35446189D01*
X5340997Y36208094D02*
X5417187Y36246189D01*
X5569568Y36246189D01*
X5645759Y36208094D01*
X5683854Y36169999D01*
X5721949Y36093808D01*
X5721949Y35865237D01*
X5683854Y35789046D01*
X5645759Y35750951D01*
X5569568Y35712856D01*
X5417187Y35712856D01*
X5340997Y35750951D01*
X7055282Y35712856D02*
X6674330Y35712856D01*
X6674330Y36512856D01*
X7436235Y35712856D02*
X7360044Y35750951D01*
X7321949Y35789046D01*
X7283854Y35865237D01*
X7283854Y36093808D01*
X7321949Y36169999D01*
X7360044Y36208094D01*
X7436235Y36246189D01*
X7550520Y36246189D01*
X7626711Y36208094D01*
X7664806Y36169999D01*
X7702901Y36093808D01*
X7702901Y35865237D01*
X7664806Y35789046D01*
X7626711Y35750951D01*
X7550520Y35712856D01*
X7436235Y35712856D01*
X8388616Y35750951D02*
X8312425Y35712856D01*
X8160044Y35712856D01*
X8083854Y35750951D01*
X8045759Y35789046D01*
X8007663Y35865237D01*
X8007663Y36093808D01*
X8045759Y36169999D01*
X8083854Y36208094D01*
X8160044Y36246189D01*
X8312425Y36246189D01*
X8388616Y36208094D01*
X8731473Y35712856D02*
X8731473Y36512856D01*
X8807663Y36017618D02*
X9036235Y35712856D01*
X9036235Y36246189D02*
X8731473Y35941427D01*
X10369568Y35712856D02*
X9988616Y35712856D01*
X9988616Y36512856D01*
X10636235Y35712856D02*
X10636235Y36246189D01*
X10636235Y36512856D02*
X10598140Y36474760D01*
X10636235Y36436665D01*
X10674330Y36474760D01*
X10636235Y36512856D01*
X10636235Y36436665D01*
X11360044Y36246189D02*
X11360044Y35598570D01*
X11321949Y35522380D01*
X11283854Y35484284D01*
X11207663Y35446189D01*
X11093378Y35446189D01*
X11017187Y35484284D01*
X11360044Y35750951D02*
X11283854Y35712856D01*
X11131473Y35712856D01*
X11055282Y35750951D01*
X11017187Y35789046D01*
X10979092Y35865237D01*
X10979092Y36093808D01*
X11017187Y36169999D01*
X11055282Y36208094D01*
X11131473Y36246189D01*
X11283854Y36246189D01*
X11360044Y36208094D01*
X11740997Y35712856D02*
X11740997Y36512856D01*
X12083854Y35712856D02*
X12083854Y36131903D01*
X12045759Y36208094D01*
X11969568Y36246189D01*
X11855282Y36246189D01*
X11779092Y36208094D01*
X11740997Y36169999D01*
X12350520Y36246189D02*
X12655282Y36246189D01*
X12464806Y36512856D02*
X12464806Y35827141D01*
X12502901Y35750951D01*
X12579092Y35712856D01*
X12655282Y35712856D01*
X12883854Y35750951D02*
X12960044Y35712856D01*
X13112425Y35712856D01*
X13188616Y35750951D01*
X13226711Y35827141D01*
X13226711Y35865237D01*
X13188616Y35941427D01*
X13112425Y35979522D01*
X12998139Y35979522D01*
X12921949Y36017618D01*
X12883854Y36093808D01*
X12883854Y36131903D01*
X12921949Y36208094D01*
X12998139Y36246189D01*
X13112425Y36246189D01*
X13188616Y36208094D01*
X1331904Y8604286D02*
X1331904Y7937620D01*
X1093809Y8985239D02*
X855714Y8270953D01*
X1474761Y8270953D01*
X1855714Y8032858D02*
X1903333Y7985239D01*
X1855714Y7937620D01*
X1808095Y7985239D01*
X1855714Y8032858D01*
X1855714Y7937620D01*
X2236666Y8937620D02*
X2855714Y8937620D01*
X2522380Y8556667D01*
X2665238Y8556667D01*
X2760476Y8509048D01*
X2808095Y8461429D01*
X2855714Y8366191D01*
X2855714Y8128096D01*
X2808095Y8032858D01*
X2760476Y7985239D01*
X2665238Y7937620D01*
X2379523Y7937620D01*
X2284285Y7985239D01*
X2236666Y8032858D01*
X3284285Y7937620D02*
X3284285Y8604286D01*
X3284285Y8509048D02*
X3331904Y8556667D01*
X3427142Y8604286D01*
X3570000Y8604286D01*
X3665238Y8556667D01*
X3712857Y8461429D01*
X3712857Y7937620D01*
X3712857Y8461429D02*
X3760476Y8556667D01*
X3855714Y8604286D01*
X3998571Y8604286D01*
X4093809Y8556667D01*
X4141428Y8461429D01*
X4141428Y7937620D01*
X4617619Y7937620D02*
X4617619Y8604286D01*
X4617619Y8509048D02*
X4665238Y8556667D01*
X4760476Y8604286D01*
X4903333Y8604286D01*
X4998571Y8556667D01*
X5046190Y8461429D01*
X5046190Y7937620D01*
X5046190Y8461429D02*
X5093809Y8556667D01*
X5189047Y8604286D01*
X5331904Y8604286D01*
X5427142Y8556667D01*
X5474761Y8461429D01*
X5474761Y7937620D01*
X6712857Y7937620D02*
X6712857Y8937620D01*
X7141428Y7937620D02*
X7141428Y8461429D01*
X7093809Y8556667D01*
X6998571Y8604286D01*
X6855714Y8604286D01*
X6760476Y8556667D01*
X6712857Y8509048D01*
X7760476Y7937620D02*
X7665238Y7985239D01*
X7617619Y8032858D01*
X7570000Y8128096D01*
X7570000Y8413810D01*
X7617619Y8509048D01*
X7665238Y8556667D01*
X7760476Y8604286D01*
X7903333Y8604286D01*
X7998571Y8556667D01*
X8046190Y8509048D01*
X8093809Y8413810D01*
X8093809Y8128096D01*
X8046190Y8032858D01*
X7998571Y7985239D01*
X7903333Y7937620D01*
X7760476Y7937620D01*
X8665238Y7937620D02*
X8570000Y7985239D01*
X8522380Y8080477D01*
X8522380Y8937620D01*
X9427142Y7985239D02*
X9331904Y7937620D01*
X9141428Y7937620D01*
X9046190Y7985239D01*
X8998571Y8080477D01*
X8998571Y8461429D01*
X9046190Y8556667D01*
X9141428Y8604286D01*
X9331904Y8604286D01*
X9427142Y8556667D01*
X9474761Y8461429D01*
X9474761Y8366191D01*
X8998571Y8270953D01*
X9855714Y7985239D02*
X9950952Y7937620D01*
X10141428Y7937620D01*
X10236666Y7985239D01*
X10284285Y8080477D01*
X10284285Y8128096D01*
X10236666Y8223334D01*
X10141428Y8270953D01*
X9998571Y8270953D01*
X9903333Y8318572D01*
X9855714Y8413810D01*
X9855714Y8461429D01*
X9903333Y8556667D01*
X9998571Y8604286D01*
X10141428Y8604286D01*
X10236666Y8556667D01*
D11*
X25932980Y34030060D02*
X27177580Y33600800D01*
X23931460Y34710780D02*
X25176060Y34281520D01*
D10*
X26955284Y34198657D02*
X26155284Y34198657D01*
X26155284Y34503419D01*
X26193380Y34579609D01*
X26231475Y34617704D01*
X26307665Y34655800D01*
X26421951Y34655800D01*
X26498141Y34617704D01*
X26536237Y34579609D01*
X26574332Y34503419D01*
X26574332Y34198657D01*
X26879094Y35455800D02*
X26917189Y35417704D01*
X26955284Y35303419D01*
X26955284Y35227228D01*
X26917189Y35112942D01*
X26840999Y35036752D01*
X26764808Y34998657D01*
X26612427Y34960561D01*
X26498141Y34960561D01*
X26345760Y34998657D01*
X26269570Y35036752D01*
X26193380Y35112942D01*
X26155284Y35227228D01*
X26155284Y35303419D01*
X26193380Y35417704D01*
X26231475Y35455800D01*
X26955284Y36217704D02*
X26955284Y35760561D01*
X26955284Y35989133D02*
X26155284Y35989133D01*
X26269570Y35912942D01*
X26345760Y35836752D01*
X26383856Y35760561D01*
X26155284Y36484371D02*
X26155284Y36979609D01*
X26460046Y36712942D01*
X26460046Y36827228D01*
X26498141Y36903419D01*
X26536237Y36941514D01*
X26612427Y36979609D01*
X26802903Y36979609D01*
X26879094Y36941514D01*
X26917189Y36903419D01*
X26955284Y36827228D01*
X26955284Y36598657D01*
X26917189Y36522466D01*
X26879094Y36484371D01*
X24953764Y34983517D02*
X24153764Y34983517D01*
X24153764Y35288279D01*
X24191860Y35364469D01*
X24229955Y35402564D01*
X24306145Y35440660D01*
X24420431Y35440660D01*
X24496621Y35402564D01*
X24534717Y35364469D01*
X24572812Y35288279D01*
X24572812Y34983517D01*
X24534717Y36050183D02*
X24572812Y36164469D01*
X24610907Y36202564D01*
X24687098Y36240660D01*
X24801383Y36240660D01*
X24877574Y36202564D01*
X24915669Y36164469D01*
X24953764Y36088279D01*
X24953764Y35783517D01*
X24153764Y35783517D01*
X24153764Y36050183D01*
X24191860Y36126374D01*
X24229955Y36164469D01*
X24306145Y36202564D01*
X24382336Y36202564D01*
X24458526Y36164469D01*
X24496621Y36126374D01*
X24534717Y36050183D01*
X24534717Y35783517D01*
X24153764Y36964469D02*
X24153764Y36583517D01*
X24534717Y36545421D01*
X24496621Y36583517D01*
X24458526Y36659707D01*
X24458526Y36850183D01*
X24496621Y36926374D01*
X24534717Y36964469D01*
X24610907Y37002564D01*
X24801383Y37002564D01*
X24877574Y36964469D01*
X24915669Y36926374D01*
X24953764Y36850183D01*
X24953764Y36659707D01*
X24915669Y36583517D01*
X24877574Y36545421D01*
D11*
X11387800Y31937100D02*
X10364180Y31937100D01*
X11387800Y30890620D02*
X11387800Y31937100D01*
X11387800Y34543140D02*
X11387800Y35358480D01*
X10364180Y34543140D02*
X11387800Y34543140D01*
D10*
X4298596Y30472783D02*
X4412881Y30434688D01*
X4450977Y30396593D01*
X4489072Y30320402D01*
X4489072Y30206117D01*
X4450977Y30129926D01*
X4412881Y30091831D01*
X4336691Y30053736D01*
X4031929Y30053736D01*
X4031929Y30853736D01*
X4298596Y30853736D01*
X4374786Y30815640D01*
X4412881Y30777545D01*
X4450977Y30701355D01*
X4450977Y30625164D01*
X4412881Y30548974D01*
X4374786Y30510879D01*
X4298596Y30472783D01*
X4031929Y30472783D01*
X4946215Y30053736D02*
X4870024Y30091831D01*
X4831929Y30129926D01*
X4793834Y30206117D01*
X4793834Y30434688D01*
X4831929Y30510879D01*
X4870024Y30548974D01*
X4946215Y30587069D01*
X5060500Y30587069D01*
X5136691Y30548974D01*
X5174786Y30510879D01*
X5212881Y30434688D01*
X5212881Y30206117D01*
X5174786Y30129926D01*
X5136691Y30091831D01*
X5060500Y30053736D01*
X4946215Y30053736D01*
X5441453Y30587069D02*
X5746215Y30587069D01*
X5555739Y30853736D02*
X5555739Y30168021D01*
X5593834Y30091831D01*
X5670024Y30053736D01*
X5746215Y30053736D01*
X5898596Y30587069D02*
X6203358Y30587069D01*
X6012881Y30853736D02*
X6012881Y30168021D01*
X6050977Y30091831D01*
X6127167Y30053736D01*
X6203358Y30053736D01*
X6584310Y30053736D02*
X6508120Y30091831D01*
X6470024Y30129926D01*
X6431929Y30206117D01*
X6431929Y30434688D01*
X6470024Y30510879D01*
X6508120Y30548974D01*
X6584310Y30587069D01*
X6698596Y30587069D01*
X6774786Y30548974D01*
X6812881Y30510879D01*
X6850977Y30434688D01*
X6850977Y30206117D01*
X6812881Y30129926D01*
X6774786Y30091831D01*
X6698596Y30053736D01*
X6584310Y30053736D01*
X7193834Y30053736D02*
X7193834Y30587069D01*
X7193834Y30510879D02*
X7231929Y30548974D01*
X7308120Y30587069D01*
X7422405Y30587069D01*
X7498596Y30548974D01*
X7536691Y30472783D01*
X7536691Y30053736D01*
X7536691Y30472783D02*
X7574786Y30548974D01*
X7650977Y30587069D01*
X7765262Y30587069D01*
X7841453Y30548974D01*
X7879548Y30472783D01*
X7879548Y30053736D01*
X9250977Y30053736D02*
X8870024Y30053736D01*
X8870024Y30853736D01*
X9631929Y30053736D02*
X9555739Y30091831D01*
X9517643Y30129926D01*
X9479548Y30206117D01*
X9479548Y30434688D01*
X9517643Y30510879D01*
X9555739Y30548974D01*
X9631929Y30587069D01*
X9746215Y30587069D01*
X9822405Y30548974D01*
X9860500Y30510879D01*
X9898596Y30434688D01*
X9898596Y30206117D01*
X9860500Y30129926D01*
X9822405Y30091831D01*
X9746215Y30053736D01*
X9631929Y30053736D01*
X10584310Y30091831D02*
X10508120Y30053736D01*
X10355739Y30053736D01*
X10279548Y30091831D01*
X10241453Y30129926D01*
X10203358Y30206117D01*
X10203358Y30434688D01*
X10241453Y30510879D01*
X10279548Y30548974D01*
X10355739Y30587069D01*
X10508120Y30587069D01*
X10584310Y30548974D01*
X10927167Y30053736D02*
X10927167Y30853736D01*
X11003358Y30358498D02*
X11231929Y30053736D01*
X11231929Y30587069D02*
X10927167Y30282307D01*
X12565262Y30053736D02*
X12184310Y30053736D01*
X12184310Y30853736D01*
X12831929Y30053736D02*
X12831929Y30587069D01*
X12831929Y30853736D02*
X12793834Y30815640D01*
X12831929Y30777545D01*
X12870024Y30815640D01*
X12831929Y30853736D01*
X12831929Y30777545D01*
X13555739Y30587069D02*
X13555739Y29939450D01*
X13517643Y29863260D01*
X13479548Y29825164D01*
X13403358Y29787069D01*
X13289072Y29787069D01*
X13212881Y29825164D01*
X13555739Y30091831D02*
X13479548Y30053736D01*
X13327167Y30053736D01*
X13250977Y30091831D01*
X13212881Y30129926D01*
X13174786Y30206117D01*
X13174786Y30434688D01*
X13212881Y30510879D01*
X13250977Y30548974D01*
X13327167Y30587069D01*
X13479548Y30587069D01*
X13555739Y30548974D01*
X13936691Y30053736D02*
X13936691Y30853736D01*
X14279548Y30053736D02*
X14279548Y30472783D01*
X14241453Y30548974D01*
X14165262Y30587069D01*
X14050977Y30587069D01*
X13974786Y30548974D01*
X13936691Y30510879D01*
X14546215Y30587069D02*
X14850977Y30587069D01*
X14660500Y30853736D02*
X14660500Y30168021D01*
X14698596Y30091831D01*
X14774786Y30053736D01*
X14850977Y30053736D01*
X15079548Y30091831D02*
X15155739Y30053736D01*
X15308120Y30053736D01*
X15384310Y30091831D01*
X15422405Y30168021D01*
X15422405Y30206117D01*
X15384310Y30282307D01*
X15308120Y30320402D01*
X15193834Y30320402D01*
X15117643Y30358498D01*
X15079548Y30434688D01*
X15079548Y30472783D01*
X15117643Y30548974D01*
X15193834Y30587069D01*
X15308120Y30587069D01*
X15384310Y30548974D01*
X22129384Y32788020D02*
X22129384Y32407067D01*
X22510337Y32368972D01*
X22472241Y32407067D01*
X22434146Y32483258D01*
X22434146Y32673734D01*
X22472241Y32749924D01*
X22510337Y32788020D01*
X22586527Y32826115D01*
X22777003Y32826115D01*
X22853194Y32788020D01*
X22891289Y32749924D01*
X22929384Y32673734D01*
X22929384Y32483258D01*
X22891289Y32407067D01*
X22853194Y32368972D01*
X22129384Y33054686D02*
X22929384Y33321353D01*
X22129384Y33588020D01*
X24153764Y32207311D02*
X24153764Y32664454D01*
X24953764Y32435882D02*
X24153764Y32435882D01*
X24953764Y33388263D02*
X24572812Y33121597D01*
X24953764Y32931120D02*
X24153764Y32931120D01*
X24153764Y33235882D01*
X24191860Y33312073D01*
X24229955Y33350168D01*
X24306145Y33388263D01*
X24420431Y33388263D01*
X24496621Y33350168D01*
X24534717Y33312073D01*
X24572812Y33235882D01*
X24572812Y32931120D01*
X24191860Y34150168D02*
X24153764Y34073978D01*
X24153764Y33959692D01*
X24191860Y33845406D01*
X24268050Y33769216D01*
X24344240Y33731120D01*
X24496621Y33693025D01*
X24610907Y33693025D01*
X24763288Y33731120D01*
X24839479Y33769216D01*
X24915669Y33845406D01*
X24953764Y33959692D01*
X24953764Y34035882D01*
X24915669Y34150168D01*
X24877574Y34188263D01*
X24610907Y34188263D01*
X24610907Y34035882D01*
X26536237Y32258097D02*
X26536237Y32524763D01*
X26955284Y32639049D02*
X26955284Y32258097D01*
X26155284Y32258097D01*
X26155284Y32639049D01*
X26955284Y32981906D02*
X26155284Y32981906D01*
X26955284Y33439049D01*
X26155284Y33439049D01*
X28192360Y32734737D02*
X28154264Y32658546D01*
X28154264Y32544260D01*
X28192360Y32429975D01*
X28268550Y32353784D01*
X28344740Y32315689D01*
X28497121Y32277594D01*
X28611407Y32277594D01*
X28763788Y32315689D01*
X28839979Y32353784D01*
X28916169Y32429975D01*
X28954264Y32544260D01*
X28954264Y32620451D01*
X28916169Y32734737D01*
X28878074Y32772832D01*
X28611407Y32772832D01*
X28611407Y32620451D01*
X28954264Y33115689D02*
X28154264Y33115689D01*
X28954264Y33572832D01*
X28154264Y33572832D01*
X28954264Y33953784D02*
X28154264Y33953784D01*
X28154264Y34144260D01*
X28192360Y34258546D01*
X28268550Y34334737D01*
X28344740Y34372832D01*
X28497121Y34410927D01*
X28611407Y34410927D01*
X28763788Y34372832D01*
X28839979Y34334737D01*
X28916169Y34258546D01*
X28954264Y34144260D01*
X28954264Y33953784D01*
X61263064Y32728399D02*
X60463064Y32728399D01*
X60463064Y32918875D01*
X60501160Y33033160D01*
X60577350Y33109351D01*
X60653540Y33147446D01*
X60805921Y33185541D01*
X60920207Y33185541D01*
X61072588Y33147446D01*
X61148779Y33109351D01*
X61224969Y33033160D01*
X61263064Y32918875D01*
X61263064Y32728399D01*
X60958302Y33528399D02*
X60958302Y34137922D01*
X57082224Y32708079D02*
X56282224Y32708079D01*
X56282224Y32898555D01*
X56320320Y33012840D01*
X56396510Y33089031D01*
X56472700Y33127126D01*
X56625081Y33165221D01*
X56739367Y33165221D01*
X56891748Y33127126D01*
X56967939Y33089031D01*
X57044129Y33012840D01*
X57082224Y32898555D01*
X57082224Y32708079D01*
X56777462Y33508079D02*
X56777462Y34117602D01*
X57082224Y33812840D02*
X56472700Y33812840D01*
X58492020Y33123357D02*
X58453924Y33047166D01*
X58453924Y32932880D01*
X58492020Y32818595D01*
X58568210Y32742404D01*
X58644400Y32704309D01*
X58796781Y32666214D01*
X58911067Y32666214D01*
X59063448Y32704309D01*
X59139639Y32742404D01*
X59215829Y32818595D01*
X59253924Y32932880D01*
X59253924Y33009071D01*
X59215829Y33123357D01*
X59177734Y33161452D01*
X58911067Y33161452D01*
X58911067Y33009071D01*
X59253924Y33504309D02*
X58453924Y33504309D01*
X59253924Y33961452D01*
X58453924Y33961452D01*
X59253924Y34342404D02*
X58453924Y34342404D01*
X58453924Y34532880D01*
X58492020Y34647166D01*
X58568210Y34723357D01*
X58644400Y34761452D01*
X58796781Y34799547D01*
X58911067Y34799547D01*
X59063448Y34761452D01*
X59139639Y34723357D01*
X59215829Y34647166D01*
X59253924Y34532880D01*
X59253924Y34342404D01*
X54428024Y32714360D02*
X54428024Y32333407D01*
X54808977Y32295312D01*
X54770881Y32333407D01*
X54732786Y32409598D01*
X54732786Y32600074D01*
X54770881Y32676264D01*
X54808977Y32714360D01*
X54885167Y32752455D01*
X55075643Y32752455D01*
X55151834Y32714360D01*
X55189929Y32676264D01*
X55228024Y32600074D01*
X55228024Y32409598D01*
X55189929Y32333407D01*
X55151834Y32295312D01*
X54428024Y32981026D02*
X55228024Y33247693D01*
X54428024Y33514360D01*
D11*
X20160000Y36841840D02*
X20160000Y31947260D01*
D10*
X12895451Y6952640D02*
X13085927Y6952640D01*
X13181165Y6905020D01*
X13276403Y6809782D01*
X13324022Y6619306D01*
X13324022Y6285973D01*
X13276403Y6095497D01*
X13181165Y6000259D01*
X13085927Y5952640D01*
X12895451Y5952640D01*
X12800213Y6000259D01*
X12704975Y6095497D01*
X12657356Y6285973D01*
X12657356Y6619306D01*
X12704975Y6809782D01*
X12800213Y6905020D01*
X12895451Y6952640D01*
X13657356Y6619306D02*
X13895451Y5952640D01*
X14133546Y6619306D01*
X14895451Y6000259D02*
X14800213Y5952640D01*
X14609737Y5952640D01*
X14514499Y6000259D01*
X14466880Y6095497D01*
X14466880Y6476449D01*
X14514499Y6571687D01*
X14609737Y6619306D01*
X14800213Y6619306D01*
X14895451Y6571687D01*
X14943070Y6476449D01*
X14943070Y6381211D01*
X14466880Y6285973D01*
X15371641Y5952640D02*
X15371641Y6619306D01*
X15371641Y6428830D02*
X15419260Y6524068D01*
X15466880Y6571687D01*
X15562118Y6619306D01*
X15657356Y6619306D01*
X15990689Y5952640D02*
X15990689Y6952640D01*
X16562118Y5952640D01*
X16562118Y6952640D01*
X17466880Y6619306D02*
X17466880Y5952640D01*
X17038308Y6619306D02*
X17038308Y6095497D01*
X17085927Y6000259D01*
X17181165Y5952640D01*
X17324022Y5952640D01*
X17419260Y6000259D01*
X17466880Y6047878D01*
X17943070Y5952640D02*
X17943070Y6619306D01*
X17943070Y6524068D02*
X17990689Y6571687D01*
X18085927Y6619306D01*
X18228784Y6619306D01*
X18324022Y6571687D01*
X18371641Y6476449D01*
X18371641Y5952640D01*
X18371641Y6476449D02*
X18419260Y6571687D01*
X18514499Y6619306D01*
X18657356Y6619306D01*
X18752594Y6571687D01*
X18800213Y6476449D01*
X18800213Y5952640D01*
X19276403Y6619306D02*
X19276403Y5619306D01*
X19276403Y6571687D02*
X19371641Y6619306D01*
X19562118Y6619306D01*
X19657356Y6571687D01*
X19704975Y6524068D01*
X19752594Y6428830D01*
X19752594Y6143116D01*
X19704975Y6047878D01*
X19657356Y6000259D01*
X19562118Y5952640D01*
X19371641Y5952640D01*
X19276403Y6000259D01*
X20609737Y5952640D02*
X20609737Y6476449D01*
X20562118Y6571687D01*
X20466880Y6619306D01*
X20276403Y6619306D01*
X20181165Y6571687D01*
X20609737Y6000259D02*
X20514499Y5952640D01*
X20276403Y5952640D01*
X20181165Y6000259D01*
X20133546Y6095497D01*
X20133546Y6190735D01*
X20181165Y6285973D01*
X20276403Y6333592D01*
X20514499Y6333592D01*
X20609737Y6381211D01*
X21514499Y5952640D02*
X21514499Y6952640D01*
X21514499Y6000259D02*
X21419260Y5952640D01*
X21228784Y5952640D01*
X21133546Y6000259D01*
X21085927Y6047878D01*
X21038308Y6143116D01*
X21038308Y6428830D01*
X21085927Y6524068D01*
X21133546Y6571687D01*
X21228784Y6619306D01*
X21419260Y6619306D01*
X21514499Y6571687D01*
X22562118Y6047878D02*
X22514499Y6000259D01*
X22371641Y5952640D01*
X22276403Y5952640D01*
X22133546Y6000259D01*
X22038308Y6095497D01*
X21990689Y6190735D01*
X21943070Y6381211D01*
X21943070Y6524068D01*
X21990689Y6714544D01*
X22038308Y6809782D01*
X22133546Y6905020D01*
X22276403Y6952640D01*
X22371641Y6952640D01*
X22514499Y6905020D01*
X22562118Y6857401D01*
X23133546Y5952640D02*
X23038308Y6000259D01*
X22990689Y6047878D01*
X22943070Y6143116D01*
X22943070Y6428830D01*
X22990689Y6524068D01*
X23038308Y6571687D01*
X23133546Y6619306D01*
X23276403Y6619306D01*
X23371641Y6571687D01*
X23419260Y6524068D01*
X23466880Y6428830D01*
X23466880Y6143116D01*
X23419260Y6047878D01*
X23371641Y6000259D01*
X23276403Y5952640D01*
X23133546Y5952640D01*
X23895451Y6619306D02*
X23895451Y5952640D01*
X23895451Y6524068D02*
X23943070Y6571687D01*
X24038308Y6619306D01*
X24181165Y6619306D01*
X24276403Y6571687D01*
X24324022Y6476449D01*
X24324022Y5952640D01*
X24657356Y6619306D02*
X25038308Y6619306D01*
X24800213Y6952640D02*
X24800213Y6095497D01*
X24847832Y6000259D01*
X24943070Y5952640D01*
X25038308Y5952640D01*
X25371641Y5952640D02*
X25371641Y6619306D01*
X25371641Y6428830D02*
X25419260Y6524068D01*
X25466880Y6571687D01*
X25562118Y6619306D01*
X25657356Y6619306D01*
X26133546Y5952640D02*
X26038308Y6000259D01*
X25990689Y6047878D01*
X25943070Y6143116D01*
X25943070Y6428830D01*
X25990689Y6524068D01*
X26038308Y6571687D01*
X26133546Y6619306D01*
X26276403Y6619306D01*
X26371641Y6571687D01*
X26419260Y6524068D01*
X26466880Y6428830D01*
X26466880Y6143116D01*
X26419260Y6047878D01*
X26371641Y6000259D01*
X26276403Y5952640D01*
X26133546Y5952640D01*
X27038308Y5952640D02*
X26943070Y6000259D01*
X26895451Y6095497D01*
X26895451Y6952640D01*
X27562118Y5952640D02*
X27466880Y6000259D01*
X27419260Y6095497D01*
X27419260Y6952640D01*
X28324022Y6000259D02*
X28228784Y5952640D01*
X28038308Y5952640D01*
X27943070Y6000259D01*
X27895451Y6095497D01*
X27895451Y6476449D01*
X27943070Y6571687D01*
X28038308Y6619306D01*
X28228784Y6619306D01*
X28324022Y6571687D01*
X28371641Y6476449D01*
X28371641Y6381211D01*
X27895451Y6285973D01*
X28800213Y5952640D02*
X28800213Y6619306D01*
X28800213Y6428830D02*
X28847832Y6524068D01*
X28895451Y6571687D01*
X28990689Y6619306D01*
X29085927Y6619306D01*
X30752594Y5952640D02*
X30419260Y6428830D01*
X30181165Y5952640D02*
X30181165Y6952640D01*
X30562118Y6952640D01*
X30657356Y6905020D01*
X30704975Y6857401D01*
X30752594Y6762163D01*
X30752594Y6619306D01*
X30704975Y6524068D01*
X30657356Y6476449D01*
X30562118Y6428830D01*
X30181165Y6428830D01*
X31562118Y6000259D02*
X31466880Y5952640D01*
X31276403Y5952640D01*
X31181165Y6000259D01*
X31133546Y6095497D01*
X31133546Y6476449D01*
X31181165Y6571687D01*
X31276403Y6619306D01*
X31466880Y6619306D01*
X31562118Y6571687D01*
X31609737Y6476449D01*
X31609737Y6381211D01*
X31133546Y6285973D01*
X31943070Y6619306D02*
X32181165Y5952640D01*
X32419260Y6619306D01*
X32800213Y6047878D02*
X32847832Y6000259D01*
X32800213Y5952640D01*
X32752594Y6000259D01*
X32800213Y6047878D01*
X32800213Y5952640D01*
X34562118Y5952640D02*
X33990689Y5952640D01*
X34276403Y5952640D02*
X34276403Y6952640D01*
X34181165Y6809782D01*
X34085927Y6714544D01*
X33990689Y6666925D01*
X34990689Y6047878D02*
X35038308Y6000259D01*
X34990689Y5952640D01*
X34943070Y6000259D01*
X34990689Y6047878D01*
X34990689Y5952640D01*
X35990689Y5952640D02*
X35419260Y5952640D01*
X35704975Y5952640D02*
X35704975Y6952640D01*
X35609737Y6809782D01*
X35514499Y6714544D01*
X35419260Y6666925D01*
X36419260Y5952640D02*
X36419260Y6952640D01*
X36419260Y6571687D02*
X36514499Y6619306D01*
X36704975Y6619306D01*
X36800213Y6571687D01*
X36847832Y6524068D01*
X36895451Y6428830D01*
X36895451Y6143116D01*
X36847832Y6047878D01*
X36800213Y6000259D01*
X36704975Y5952640D01*
X36514499Y5952640D01*
X36419260Y6000259D01*
X53416666Y5954286D02*
X53416666Y4954286D01*
X53416666Y5906667D02*
X53511904Y5954286D01*
X53702380Y5954286D01*
X53797619Y5906667D01*
X53845238Y5859048D01*
X53892857Y5763810D01*
X53892857Y5478096D01*
X53845238Y5382858D01*
X53797619Y5335239D01*
X53702380Y5287620D01*
X53511904Y5287620D01*
X53416666Y5335239D01*
X54750000Y5287620D02*
X54750000Y5811429D01*
X54702380Y5906667D01*
X54607142Y5954286D01*
X54416666Y5954286D01*
X54321428Y5906667D01*
X54750000Y5335239D02*
X54654761Y5287620D01*
X54416666Y5287620D01*
X54321428Y5335239D01*
X54273809Y5430477D01*
X54273809Y5525715D01*
X54321428Y5620953D01*
X54416666Y5668572D01*
X54654761Y5668572D01*
X54750000Y5716191D01*
X55226190Y5954286D02*
X55226190Y5287620D01*
X55226190Y5859048D02*
X55273809Y5906667D01*
X55369047Y5954286D01*
X55511904Y5954286D01*
X55607142Y5906667D01*
X55654761Y5811429D01*
X55654761Y5287620D01*
X56559523Y5287620D02*
X56559523Y6287620D01*
X56559523Y5335239D02*
X56464285Y5287620D01*
X56273809Y5287620D01*
X56178571Y5335239D01*
X56130952Y5382858D01*
X56083333Y5478096D01*
X56083333Y5763810D01*
X56130952Y5859048D01*
X56178571Y5906667D01*
X56273809Y5954286D01*
X56464285Y5954286D01*
X56559523Y5906667D01*
X57035714Y5287620D02*
X57035714Y5954286D01*
X57035714Y5763810D02*
X57083333Y5859048D01*
X57130952Y5906667D01*
X57226190Y5954286D01*
X57321428Y5954286D01*
X58035714Y5335239D02*
X57940476Y5287620D01*
X57750000Y5287620D01*
X57654761Y5335239D01*
X57607142Y5430477D01*
X57607142Y5811429D01*
X57654761Y5906667D01*
X57750000Y5954286D01*
X57940476Y5954286D01*
X58035714Y5906667D01*
X58083333Y5811429D01*
X58083333Y5716191D01*
X57607142Y5620953D01*
X58416666Y5954286D02*
X58607142Y5287620D01*
X58797619Y5763810D01*
X58988095Y5287620D01*
X59178571Y5954286D01*
X13240843Y4095900D02*
X12907510Y4572090D01*
X12669415Y4095900D02*
X12669415Y5095900D01*
X13050367Y5095900D01*
X13145605Y5048280D01*
X13193224Y5000661D01*
X13240843Y4905423D01*
X13240843Y4762566D01*
X13193224Y4667328D01*
X13145605Y4619709D01*
X13050367Y4572090D01*
X12669415Y4572090D01*
X14050367Y4143519D02*
X13955129Y4095900D01*
X13764653Y4095900D01*
X13669415Y4143519D01*
X13621796Y4238757D01*
X13621796Y4619709D01*
X13669415Y4714947D01*
X13764653Y4762566D01*
X13955129Y4762566D01*
X14050367Y4714947D01*
X14097986Y4619709D01*
X14097986Y4524471D01*
X13621796Y4429233D01*
X14526558Y4762566D02*
X14526558Y3762566D01*
X14526558Y4714947D02*
X14621796Y4762566D01*
X14812272Y4762566D01*
X14907510Y4714947D01*
X14955129Y4667328D01*
X15002748Y4572090D01*
X15002748Y4286376D01*
X14955129Y4191138D01*
X14907510Y4143519D01*
X14812272Y4095900D01*
X14621796Y4095900D01*
X14526558Y4143519D01*
X15574177Y4095900D02*
X15478939Y4143519D01*
X15431320Y4238757D01*
X15431320Y5095900D01*
X16383700Y4095900D02*
X16383700Y4619709D01*
X16336081Y4714947D01*
X16240843Y4762566D01*
X16050367Y4762566D01*
X15955129Y4714947D01*
X16383700Y4143519D02*
X16288462Y4095900D01*
X16050367Y4095900D01*
X15955129Y4143519D01*
X15907510Y4238757D01*
X15907510Y4333995D01*
X15955129Y4429233D01*
X16050367Y4476852D01*
X16288462Y4476852D01*
X16383700Y4524471D01*
X17288462Y4143519D02*
X17193224Y4095900D01*
X17002748Y4095900D01*
X16907510Y4143519D01*
X16859891Y4191138D01*
X16812272Y4286376D01*
X16812272Y4572090D01*
X16859891Y4667328D01*
X16907510Y4714947D01*
X17002748Y4762566D01*
X17193224Y4762566D01*
X17288462Y4714947D01*
X18097986Y4143519D02*
X18002748Y4095900D01*
X17812272Y4095900D01*
X17717034Y4143519D01*
X17669415Y4238757D01*
X17669415Y4619709D01*
X17717034Y4714947D01*
X17812272Y4762566D01*
X18002748Y4762566D01*
X18097986Y4714947D01*
X18145605Y4619709D01*
X18145605Y4524471D01*
X17669415Y4429233D01*
X18574177Y4095900D02*
X18574177Y4762566D01*
X18574177Y4667328D02*
X18621796Y4714947D01*
X18717034Y4762566D01*
X18859891Y4762566D01*
X18955129Y4714947D01*
X19002748Y4619709D01*
X19002748Y4095900D01*
X19002748Y4619709D02*
X19050367Y4714947D01*
X19145605Y4762566D01*
X19288462Y4762566D01*
X19383700Y4714947D01*
X19431320Y4619709D01*
X19431320Y4095900D01*
X20288462Y4143519D02*
X20193224Y4095900D01*
X20002748Y4095900D01*
X19907510Y4143519D01*
X19859891Y4238757D01*
X19859891Y4619709D01*
X19907510Y4714947D01*
X20002748Y4762566D01*
X20193224Y4762566D01*
X20288462Y4714947D01*
X20336081Y4619709D01*
X20336081Y4524471D01*
X19859891Y4429233D01*
X20764653Y4762566D02*
X20764653Y4095900D01*
X20764653Y4667328D02*
X20812272Y4714947D01*
X20907510Y4762566D01*
X21050367Y4762566D01*
X21145605Y4714947D01*
X21193224Y4619709D01*
X21193224Y4095900D01*
X21526558Y4762566D02*
X21907510Y4762566D01*
X21669415Y5095900D02*
X21669415Y4238757D01*
X21717034Y4143519D01*
X21812272Y4095900D01*
X21907510Y4095900D01*
X23431320Y4143519D02*
X23336081Y4095900D01*
X23145605Y4095900D01*
X23050367Y4143519D01*
X23002748Y4191138D01*
X22955129Y4286376D01*
X22955129Y4572090D01*
X23002748Y4667328D01*
X23050367Y4714947D01*
X23145605Y4762566D01*
X23336081Y4762566D01*
X23431320Y4714947D01*
X24002748Y4095900D02*
X23907510Y4143519D01*
X23859891Y4191138D01*
X23812272Y4286376D01*
X23812272Y4572090D01*
X23859891Y4667328D01*
X23907510Y4714947D01*
X24002748Y4762566D01*
X24145605Y4762566D01*
X24240843Y4714947D01*
X24288462Y4667328D01*
X24336081Y4572090D01*
X24336081Y4286376D01*
X24288462Y4191138D01*
X24240843Y4143519D01*
X24145605Y4095900D01*
X24002748Y4095900D01*
X24764653Y4762566D02*
X24764653Y4095900D01*
X24764653Y4667328D02*
X24812272Y4714947D01*
X24907510Y4762566D01*
X25050367Y4762566D01*
X25145605Y4714947D01*
X25193224Y4619709D01*
X25193224Y4095900D01*
X25526558Y4762566D02*
X25907510Y4762566D01*
X25669415Y5095900D02*
X25669415Y4238757D01*
X25717034Y4143519D01*
X25812272Y4095900D01*
X25907510Y4095900D01*
X26240843Y4095900D02*
X26240843Y4762566D01*
X26240843Y4572090D02*
X26288462Y4667328D01*
X26336081Y4714947D01*
X26431320Y4762566D01*
X26526558Y4762566D01*
X27002748Y4095900D02*
X26907510Y4143519D01*
X26859891Y4191138D01*
X26812272Y4286376D01*
X26812272Y4572090D01*
X26859891Y4667328D01*
X26907510Y4714947D01*
X27002748Y4762566D01*
X27145605Y4762566D01*
X27240843Y4714947D01*
X27288462Y4667328D01*
X27336081Y4572090D01*
X27336081Y4286376D01*
X27288462Y4191138D01*
X27240843Y4143519D01*
X27145605Y4095900D01*
X27002748Y4095900D01*
X27907510Y4095900D02*
X27812272Y4143519D01*
X27764653Y4238757D01*
X27764653Y5095900D01*
X28431320Y4095900D02*
X28336081Y4143519D01*
X28288462Y4238757D01*
X28288462Y5095900D01*
X29193224Y4143519D02*
X29097986Y4095900D01*
X28907510Y4095900D01*
X28812272Y4143519D01*
X28764653Y4238757D01*
X28764653Y4619709D01*
X28812272Y4714947D01*
X28907510Y4762566D01*
X29097986Y4762566D01*
X29193224Y4714947D01*
X29240843Y4619709D01*
X29240843Y4524471D01*
X28764653Y4429233D01*
X29669415Y4095900D02*
X29669415Y4762566D01*
X29669415Y4572090D02*
X29717034Y4667328D01*
X29764653Y4714947D01*
X29859891Y4762566D01*
X29955129Y4762566D01*
X30907510Y4762566D02*
X31288462Y4762566D01*
X31050367Y4095900D02*
X31050367Y4953042D01*
X31097986Y5048280D01*
X31193224Y5095900D01*
X31288462Y5095900D01*
X31764653Y4095900D02*
X31669415Y4143519D01*
X31621796Y4191138D01*
X31574177Y4286376D01*
X31574177Y4572090D01*
X31621796Y4667328D01*
X31669415Y4714947D01*
X31764653Y4762566D01*
X31907510Y4762566D01*
X32002748Y4714947D01*
X32050367Y4667328D01*
X32097986Y4572090D01*
X32097986Y4286376D01*
X32050367Y4191138D01*
X32002748Y4143519D01*
X31907510Y4095900D01*
X31764653Y4095900D01*
X32526558Y4095900D02*
X32526558Y4762566D01*
X32526558Y4572090D02*
X32574177Y4667328D01*
X32621796Y4714947D01*
X32717034Y4762566D01*
X32812272Y4762566D01*
X33907510Y4095900D02*
X33907510Y5095900D01*
X34240843Y4381614D01*
X34574177Y5095900D01*
X34574177Y4095900D01*
X35193224Y4095900D02*
X35097986Y4143519D01*
X35050367Y4191138D01*
X35002748Y4286376D01*
X35002748Y4572090D01*
X35050367Y4667328D01*
X35097986Y4714947D01*
X35193224Y4762566D01*
X35336081Y4762566D01*
X35431320Y4714947D01*
X35478939Y4667328D01*
X35526558Y4572090D01*
X35526558Y4286376D01*
X35478939Y4191138D01*
X35431320Y4143519D01*
X35336081Y4095900D01*
X35193224Y4095900D01*
X36383700Y4095900D02*
X36383700Y5095900D01*
X36383700Y4143519D02*
X36288462Y4095900D01*
X36097986Y4095900D01*
X36002748Y4143519D01*
X35955129Y4191138D01*
X35907510Y4286376D01*
X35907510Y4572090D01*
X35955129Y4667328D01*
X36002748Y4714947D01*
X36097986Y4762566D01*
X36288462Y4762566D01*
X36383700Y4714947D01*
X37240843Y4143519D02*
X37145605Y4095900D01*
X36955129Y4095900D01*
X36859891Y4143519D01*
X36812272Y4238757D01*
X36812272Y4619709D01*
X36859891Y4714947D01*
X36955129Y4762566D01*
X37145605Y4762566D01*
X37240843Y4714947D01*
X37288462Y4619709D01*
X37288462Y4524471D01*
X36812272Y4429233D01*
X37859891Y4095900D02*
X37764653Y4143519D01*
X37717034Y4238757D01*
X37717034Y5095900D01*
X39002748Y4095900D02*
X39002748Y5095900D01*
X39336081Y4381614D01*
X39669415Y5095900D01*
X39669415Y4095900D01*
X40907510Y4095900D02*
X40907510Y5095900D01*
X41002748Y4476852D02*
X41288462Y4095900D01*
X41288462Y4762566D02*
X40907510Y4381614D01*
X42097986Y4143519D02*
X42002748Y4095900D01*
X41812272Y4095900D01*
X41717034Y4143519D01*
X41669415Y4238757D01*
X41669415Y4619709D01*
X41717034Y4714947D01*
X41812272Y4762566D01*
X42002748Y4762566D01*
X42097986Y4714947D01*
X42145605Y4619709D01*
X42145605Y4524471D01*
X41669415Y4429233D01*
X42478939Y4762566D02*
X42717034Y4095900D01*
X42955129Y4762566D02*
X42717034Y4095900D01*
X42621796Y3857804D01*
X42574177Y3810185D01*
X42478939Y3762566D01*
X43336081Y4095900D02*
X43336081Y5095900D01*
X43336081Y4714947D02*
X43431319Y4762566D01*
X43621796Y4762566D01*
X43717034Y4714947D01*
X43764653Y4667328D01*
X43812272Y4572090D01*
X43812272Y4286376D01*
X43764653Y4191138D01*
X43717034Y4143519D01*
X43621796Y4095900D01*
X43431319Y4095900D01*
X43336081Y4143519D01*
X44383700Y4095900D02*
X44288462Y4143519D01*
X44240843Y4191138D01*
X44193224Y4286376D01*
X44193224Y4572090D01*
X44240843Y4667328D01*
X44288462Y4714947D01*
X44383700Y4762566D01*
X44526558Y4762566D01*
X44621796Y4714947D01*
X44669415Y4667328D01*
X44717034Y4572090D01*
X44717034Y4286376D01*
X44669415Y4191138D01*
X44621796Y4143519D01*
X44526558Y4095900D01*
X44383700Y4095900D01*
X45574177Y4095900D02*
X45574177Y4619709D01*
X45526558Y4714947D01*
X45431319Y4762566D01*
X45240843Y4762566D01*
X45145605Y4714947D01*
X45574177Y4143519D02*
X45478939Y4095900D01*
X45240843Y4095900D01*
X45145605Y4143519D01*
X45097986Y4238757D01*
X45097986Y4333995D01*
X45145605Y4429233D01*
X45240843Y4476852D01*
X45478939Y4476852D01*
X45574177Y4524471D01*
X46050367Y4095900D02*
X46050367Y4762566D01*
X46050367Y4572090D02*
X46097986Y4667328D01*
X46145605Y4714947D01*
X46240843Y4762566D01*
X46336081Y4762566D01*
X47097986Y4095900D02*
X47097986Y5095900D01*
X47097986Y4143519D02*
X47002748Y4095900D01*
X46812272Y4095900D01*
X46717034Y4143519D01*
X46669415Y4191138D01*
X46621796Y4286376D01*
X46621796Y4572090D01*
X46669415Y4667328D01*
X46717034Y4714947D01*
X46812272Y4762566D01*
X47002748Y4762566D01*
X47097986Y4714947D01*
X47526558Y4143519D02*
X47621796Y4095900D01*
X47812272Y4095900D01*
X47907510Y4143519D01*
X47955129Y4238757D01*
X47955129Y4286376D01*
X47907510Y4381614D01*
X47812272Y4429233D01*
X47669415Y4429233D01*
X47574177Y4476852D01*
X47526558Y4572090D01*
X47526558Y4619709D01*
X47574177Y4714947D01*
X47669415Y4762566D01*
X47812272Y4762566D01*
X47907510Y4714947D01*
X38221961Y26815136D02*
X38221961Y26243707D01*
X38183866Y26129421D01*
X38107676Y26053231D01*
X37993390Y26015136D01*
X37917200Y26015136D01*
X38983866Y26015136D02*
X38602914Y26015136D01*
X38602914Y26815136D01*
X39707676Y26091326D02*
X39669580Y26053231D01*
X39555295Y26015136D01*
X39479104Y26015136D01*
X39364819Y26053231D01*
X39288628Y26129421D01*
X39250533Y26205612D01*
X39212438Y26357993D01*
X39212438Y26472279D01*
X39250533Y26624660D01*
X39288628Y26700850D01*
X39364819Y26777040D01*
X39479104Y26815136D01*
X39555295Y26815136D01*
X39669580Y26777040D01*
X39707676Y26738945D01*
X40279104Y26815136D02*
X40279104Y26243707D01*
X40241009Y26129421D01*
X40164819Y26053231D01*
X40050533Y26015136D01*
X39974342Y26015136D01*
X41041009Y26015136D02*
X40660057Y26015136D01*
X40660057Y26815136D01*
X41764819Y26091326D02*
X41726723Y26053231D01*
X41612438Y26015136D01*
X41536247Y26015136D01*
X41421961Y26053231D01*
X41345771Y26129421D01*
X41307676Y26205612D01*
X41269580Y26357993D01*
X41269580Y26472279D01*
X41307676Y26624660D01*
X41345771Y26700850D01*
X41421961Y26777040D01*
X41536247Y26815136D01*
X41612438Y26815136D01*
X41726723Y26777040D01*
X41764819Y26738945D01*
X42336247Y26815136D02*
X42336247Y26243707D01*
X42298152Y26129421D01*
X42221961Y26053231D01*
X42107676Y26015136D01*
X42031485Y26015136D01*
X43098152Y26015136D02*
X42717200Y26015136D01*
X42717200Y26815136D01*
X43821961Y26091326D02*
X43783866Y26053231D01*
X43669580Y26015136D01*
X43593390Y26015136D01*
X43479104Y26053231D01*
X43402914Y26129421D01*
X43364819Y26205612D01*
X43326723Y26357993D01*
X43326723Y26472279D01*
X43364819Y26624660D01*
X43402914Y26700850D01*
X43479104Y26777040D01*
X43593390Y26815136D01*
X43669580Y26815136D01*
X43783866Y26777040D01*
X43821961Y26738945D01*
X44393390Y26815136D02*
X44393390Y26243707D01*
X44355295Y26129421D01*
X44279104Y26053231D01*
X44164819Y26015136D01*
X44088628Y26015136D01*
X45155295Y26015136D02*
X44774342Y26015136D01*
X44774342Y26815136D01*
X45879104Y26091326D02*
X45841009Y26053231D01*
X45726723Y26015136D01*
X45650533Y26015136D01*
X45536247Y26053231D01*
X45460057Y26129421D01*
X45421961Y26205612D01*
X45383866Y26357993D01*
X45383866Y26472279D01*
X45421961Y26624660D01*
X45460057Y26700850D01*
X45536247Y26777040D01*
X45650533Y26815136D01*
X45726723Y26815136D01*
X45841009Y26777040D01*
X45879104Y26738945D01*
D11*
X2320000Y22660000D02*
X60000Y22660000D01*
X2320000Y28060000D02*
X60000Y28060000D01*
X2320000Y28060000D02*
X2320000Y22660000D01*
X1630000Y27060000D02*
X1630000Y23460000D01*
X60000Y27060000D02*
X1630000Y27060000D01*
X60000Y23460000D02*
X1630000Y23460000D01*
X23451897Y34560000D02*
G75*
G03*
X23451897Y34560000I-2636897J0D01*
G01*
X60240081Y34560000D02*
G75*
G03*
X60240081Y34560000I-2460081J0D01*
G01*
%TO.C,R18*%
X12113748Y19155000D02*
X12636252Y19155000D01*
X12113748Y20575000D02*
X12636252Y20575000D01*
%TO.C,R17*%
X23986252Y18500000D02*
X23463748Y18500000D01*
X23986252Y17080000D02*
X23463748Y17080000D01*
%TO.C,Q3*%
X7785000Y18410000D02*
X6325000Y18410000D01*
X7785000Y21570000D02*
X5625000Y21570000D01*
X7785000Y21570000D02*
X7785000Y20640000D01*
X7785000Y18410000D02*
X7785000Y19340000D01*
%TO.C,Q2*%
X25305000Y21800000D02*
X25305000Y20340000D01*
X22145000Y21800000D02*
X22145000Y19640000D01*
X22145000Y21800000D02*
X23075000Y21800000D01*
X25305000Y21800000D02*
X24375000Y21800000D01*
D10*
%TO.C,SW1*%
X19335752Y21115000D02*
G75*
G03*
X19335752Y21115000I-1135752J0D01*
G01*
X15600000Y22509750D02*
X16805250Y23715000D01*
X15600000Y19720250D02*
X16805250Y18515000D01*
X20800000Y22509750D02*
X19594750Y23715000D01*
X20800000Y19720250D02*
X19594750Y18515000D01*
X16805250Y23715000D02*
X19594750Y23715000D01*
X15600000Y19720250D02*
X15600000Y22509750D01*
X19594750Y18515000D02*
X16805250Y18515000D01*
X20800000Y22509750D02*
X20800000Y19720250D01*
D11*
%TO.C,J4*%
X52561660Y30593420D02*
X52561660Y32813420D01*
X52561660Y30593420D02*
X52496660Y30593420D01*
X52561660Y32813420D02*
X52496660Y32813420D01*
X52561660Y30593420D02*
X52561660Y31139949D01*
X52561660Y32266891D02*
X52561660Y32813420D01*
X51801660Y30593420D02*
X51041660Y30593420D01*
X51041660Y30593420D02*
X51041660Y31703420D01*
%TO.C,R16*%
X16020140Y27378748D02*
X16020140Y27901252D01*
X14600140Y27378748D02*
X14600140Y27901252D01*
%TO.C,Q1*%
X13626800Y24099200D02*
X13626800Y22639200D01*
X10466800Y24099200D02*
X10466800Y21939200D01*
X10466800Y24099200D02*
X11396800Y24099200D01*
X13626800Y24099200D02*
X12696800Y24099200D01*
%TO.C,C20*%
X17806890Y27901252D02*
X17806890Y27378748D01*
X19226890Y27901252D02*
X19226890Y27378748D01*
D10*
%TO.C,U5*%
X8646240Y15619280D02*
X7246240Y15619280D01*
X8646240Y10519280D02*
X12796240Y10519280D01*
X8646240Y15669280D02*
X12796240Y15669280D01*
X8646240Y10519280D02*
X8646240Y10664280D01*
X12796240Y10519280D02*
X12796240Y10664280D01*
X12796240Y15669280D02*
X12796240Y15524280D01*
X8646240Y15669280D02*
X8646240Y15619280D01*
D11*
%TO.C,R15*%
X22795840Y14633452D02*
X22795840Y14110948D01*
X24215840Y14633452D02*
X24215840Y14110948D01*
%TO.C,R14*%
X19651320Y14633452D02*
X19651320Y14110948D01*
X21071320Y14633452D02*
X21071320Y14110948D01*
%TO.C,R13*%
X16506800Y14633452D02*
X16506800Y14110948D01*
X17926800Y14633452D02*
X17926800Y14110948D01*
%TO.C,C19*%
X12152332Y17904640D02*
X11629828Y17904640D01*
X12152332Y16484640D02*
X11629828Y16484640D01*
%TO.C,R12*%
X51542600Y12006088D02*
X51542600Y12528592D01*
X50122600Y12006088D02*
X50122600Y12528592D01*
%TO.C,R11*%
X32251160Y13427752D02*
X32251160Y12905248D01*
X33671160Y13427752D02*
X33671160Y12905248D01*
%TO.C,R10*%
X55649780Y11952748D02*
X55649780Y12475252D01*
X54229780Y11952748D02*
X54229780Y12475252D01*
%TO.C,R9*%
X17693588Y30406680D02*
X18216092Y30406680D01*
X17693588Y31826680D02*
X18216092Y31826680D01*
%TO.C,R6*%
X44924192Y35270000D02*
X44401688Y35270000D01*
X44924192Y33850000D02*
X44401688Y33850000D01*
%TO.C,C18*%
X45796148Y12888300D02*
X46318652Y12888300D01*
X45796148Y14308300D02*
X46318652Y14308300D01*
%TO.C,J6*%
X42968220Y30593420D02*
X42968220Y31703420D01*
X43728220Y30593420D02*
X42968220Y30593420D01*
X44488220Y32266891D02*
X44488220Y32813420D01*
X44488220Y30593420D02*
X44488220Y31139949D01*
X44488220Y32813420D02*
X50773220Y32813420D01*
X44488220Y30593420D02*
X50773220Y30593420D01*
X50773220Y32010950D02*
X50773220Y32813420D01*
X50773220Y30593420D02*
X50773220Y31395890D01*
D10*
%TO.C,U2*%
X36745000Y27505000D02*
X35720000Y27505000D01*
X47095000Y28505000D02*
X46020000Y28505000D01*
X47095000Y18155000D02*
X46020000Y18155000D01*
X36745000Y18155000D02*
X37820000Y18155000D01*
X36745000Y28505000D02*
X37820000Y28505000D01*
X36745000Y18155000D02*
X36745000Y19230000D01*
X47095000Y18155000D02*
X47095000Y19230000D01*
X47095000Y28505000D02*
X47095000Y27430000D01*
X36745000Y28505000D02*
X36745000Y27505000D01*
D11*
%TO.C,D6*%
X49430000Y23260000D02*
X52290000Y23260000D01*
X49430000Y25180000D02*
X49430000Y23260000D01*
X52290000Y25180000D02*
X49430000Y25180000D01*
%TO.C,D5*%
X25015000Y23260000D02*
X27875000Y23260000D01*
X25015000Y25180000D02*
X25015000Y23260000D01*
X27875000Y25180000D02*
X25015000Y25180000D01*
%TO.C,D4*%
X4240000Y22360000D02*
X4240000Y25220000D01*
X2320000Y22360000D02*
X4240000Y22360000D01*
X2320000Y25220000D02*
X2320000Y22360000D01*
%TO.C,Y1*%
X34510000Y29850000D02*
X29110000Y29850000D01*
X34510000Y25350000D02*
X34510000Y29850000D01*
%TO.C,U4*%
X58008000Y28862000D02*
X56408000Y28862000D01*
X56408000Y27062000D02*
X58308000Y27062000D01*
%TO.C,U3*%
X66692000Y27062000D02*
X66692000Y30012000D01*
X63472000Y28862000D02*
X63472000Y27062000D01*
%TO.C,U1*%
X68420000Y11598000D02*
X62410000Y11598000D01*
X66170000Y18418000D02*
X62410000Y18418000D01*
X62410000Y11598000D02*
X62410000Y12858000D01*
X62410000Y18418000D02*
X62410000Y17158000D01*
%TO.C,R8*%
X53913252Y22068000D02*
X53390748Y22068000D01*
X53913252Y20648000D02*
X53390748Y20648000D01*
%TO.C,R7*%
X68840000Y27700748D02*
X68840000Y28223252D01*
X67420000Y27700748D02*
X67420000Y28223252D01*
%TO.C,R5*%
X49135512Y35270000D02*
X48613008Y35270000D01*
X49135512Y33850000D02*
X48613008Y33850000D01*
%TO.C,R4*%
X40437580Y34433552D02*
X40437580Y33911048D01*
X41857580Y34433552D02*
X41857580Y33911048D01*
%TO.C,R3*%
X38176980Y34433552D02*
X38176980Y33911048D01*
X39596980Y34433552D02*
X39596980Y33911048D01*
%TO.C,R2*%
X21013640Y27901252D02*
X21013640Y27378748D01*
X22433640Y27901252D02*
X22433640Y27378748D01*
%TO.C,R1*%
X32168748Y23630000D02*
X32691252Y23630000D01*
X32168748Y25050000D02*
X32691252Y25050000D01*
%TO.C,FB1*%
X65343252Y36546000D02*
X64820748Y36546000D01*
X65343252Y35126000D02*
X64820748Y35126000D01*
%TO.C,D3*%
X51420000Y33600000D02*
X54280000Y33600000D01*
X51420000Y35520000D02*
X51420000Y33600000D01*
X54280000Y35520000D02*
X51420000Y35520000D01*
%TO.C,D2*%
X32935000Y33600000D02*
X35795000Y33600000D01*
X32935000Y35520000D02*
X32935000Y33600000D01*
X35795000Y35520000D02*
X32935000Y35520000D01*
%TO.C,D1*%
X14155000Y33600000D02*
X17015000Y33600000D01*
X14155000Y35520000D02*
X14155000Y33600000D01*
X17015000Y35520000D02*
X14155000Y35520000D01*
%TO.C,C17*%
X65343252Y22830000D02*
X64820748Y22830000D01*
X65343252Y21410000D02*
X64820748Y21410000D01*
%TO.C,C16*%
X65343252Y24862000D02*
X64820748Y24862000D01*
X65343252Y23442000D02*
X64820748Y23442000D01*
%TO.C,C15*%
X65343252Y32482000D02*
X64820748Y32482000D01*
X65343252Y31062000D02*
X64820748Y31062000D01*
%TO.C,C14*%
X65343252Y34514000D02*
X64820748Y34514000D01*
X65343252Y33094000D02*
X64820748Y33094000D01*
%TO.C,C13*%
X60248748Y19378000D02*
X60771252Y19378000D01*
X60248748Y20798000D02*
X60771252Y20798000D01*
%TO.C,C12*%
X64312748Y8202000D02*
X64835252Y8202000D01*
X64312748Y9622000D02*
X64835252Y9622000D01*
%TO.C,C11*%
X65343252Y20798000D02*
X64820748Y20798000D01*
X65343252Y19378000D02*
X64820748Y19378000D01*
%TO.C,C10*%
X27410000Y20753748D02*
X27410000Y21276252D01*
X25990000Y20753748D02*
X25990000Y21276252D01*
%TO.C,C9*%
X28410000Y27378748D02*
X28410000Y27901252D01*
X26990000Y27378748D02*
X26990000Y27901252D01*
%TO.C,C8*%
X32151252Y31880000D02*
X31628748Y31880000D01*
X32151252Y30460000D02*
X31628748Y30460000D01*
%TO.C,C7*%
X38311252Y14448000D02*
X37788748Y14448000D01*
X38311252Y13028000D02*
X37788748Y13028000D01*
%TO.C,C6*%
X31950000Y21098748D02*
X31950000Y21621252D01*
X30530000Y21098748D02*
X30530000Y21621252D01*
%TO.C,C5*%
X34180000Y21098748D02*
X34180000Y21621252D01*
X32760000Y21098748D02*
X32760000Y21621252D01*
%TO.C,C4*%
X38311252Y16420000D02*
X37788748Y16420000D01*
X38311252Y15000000D02*
X37788748Y15000000D01*
%TO.C,C3*%
X46846252Y16420000D02*
X46323748Y16420000D01*
X46846252Y15000000D02*
X46323748Y15000000D01*
%TO.C,C2*%
X49040000Y28221252D02*
X49040000Y27698748D01*
X50460000Y28221252D02*
X50460000Y27698748D01*
%TO.C,C1*%
X37068748Y30230000D02*
X37591252Y30230000D01*
X37068748Y31650000D02*
X37591252Y31650000D01*
%TO.C,R18*%
D10*
X10363040Y19564523D02*
X9886850Y19231190D01*
X10363040Y18993095D02*
X9363040Y18993095D01*
X9363040Y19374047D01*
X9410660Y19469285D01*
X9458279Y19516904D01*
X9553517Y19564523D01*
X9696374Y19564523D01*
X9791612Y19516904D01*
X9839231Y19469285D01*
X9886850Y19374047D01*
X9886850Y18993095D01*
X10363040Y20516904D02*
X10363040Y19945476D01*
X10363040Y20231190D02*
X9363040Y20231190D01*
X9505898Y20135952D01*
X9601136Y20040714D01*
X9648755Y19945476D01*
X9791612Y21088333D02*
X9743993Y20993095D01*
X9696374Y20945476D01*
X9601136Y20897857D01*
X9553517Y20897857D01*
X9458279Y20945476D01*
X9410660Y20993095D01*
X9363040Y21088333D01*
X9363040Y21278809D01*
X9410660Y21374047D01*
X9458279Y21421666D01*
X9553517Y21469285D01*
X9601136Y21469285D01*
X9696374Y21421666D01*
X9743993Y21374047D01*
X9791612Y21278809D01*
X9791612Y21088333D01*
X9839231Y20993095D01*
X9886850Y20945476D01*
X9982088Y20897857D01*
X10172564Y20897857D01*
X10267802Y20945476D01*
X10315421Y20993095D01*
X10363040Y21088333D01*
X10363040Y21278809D01*
X10315421Y21374047D01*
X10267802Y21421666D01*
X10172564Y21469285D01*
X9982088Y21469285D01*
X9886850Y21421666D01*
X9839231Y21374047D01*
X9791612Y21278809D01*
%TO.C,R17*%
X26157142Y17047620D02*
X25823809Y17523810D01*
X25585714Y17047620D02*
X25585714Y18047620D01*
X25966666Y18047620D01*
X26061904Y18000000D01*
X26109523Y17952381D01*
X26157142Y17857143D01*
X26157142Y17714286D01*
X26109523Y17619048D01*
X26061904Y17571429D01*
X25966666Y17523810D01*
X25585714Y17523810D01*
X27109523Y17047620D02*
X26538095Y17047620D01*
X26823809Y17047620D02*
X26823809Y18047620D01*
X26728571Y17904762D01*
X26633333Y17809524D01*
X26538095Y17761905D01*
X27442857Y18047620D02*
X28109523Y18047620D01*
X27680952Y17047620D01*
%TO.C,Q3*%
X5111579Y19916562D02*
X5063960Y19821324D01*
X4968721Y19726086D01*
X4825864Y19583229D01*
X4778245Y19487991D01*
X4778245Y19392753D01*
X5016340Y19440372D02*
X4968721Y19345134D01*
X4873483Y19249896D01*
X4683007Y19202277D01*
X4349674Y19202277D01*
X4159198Y19249896D01*
X4063960Y19345134D01*
X4016340Y19440372D01*
X4016340Y19630848D01*
X4063960Y19726086D01*
X4159198Y19821324D01*
X4349674Y19868943D01*
X4683007Y19868943D01*
X4873483Y19821324D01*
X4968721Y19726086D01*
X5016340Y19630848D01*
X5016340Y19440372D01*
X4016340Y20202277D02*
X4016340Y20821324D01*
X4397293Y20487991D01*
X4397293Y20630848D01*
X4444912Y20726086D01*
X4492531Y20773705D01*
X4587769Y20821324D01*
X4825864Y20821324D01*
X4921102Y20773705D01*
X4968721Y20726086D01*
X5016340Y20630848D01*
X5016340Y20345134D01*
X4968721Y20249896D01*
X4921102Y20202277D01*
%TO.C,Q2*%
X22064761Y22032381D02*
X21969523Y22080000D01*
X21874285Y22175239D01*
X21731428Y22318096D01*
X21636190Y22365715D01*
X21540952Y22365715D01*
X21588571Y22127620D02*
X21493333Y22175239D01*
X21398095Y22270477D01*
X21350476Y22460953D01*
X21350476Y22794286D01*
X21398095Y22984762D01*
X21493333Y23080000D01*
X21588571Y23127620D01*
X21779047Y23127620D01*
X21874285Y23080000D01*
X21969523Y22984762D01*
X22017142Y22794286D01*
X22017142Y22460953D01*
X21969523Y22270477D01*
X21874285Y22175239D01*
X21779047Y22127620D01*
X21588571Y22127620D01*
X22398095Y23032381D02*
X22445714Y23080000D01*
X22540952Y23127620D01*
X22779047Y23127620D01*
X22874285Y23080000D01*
X22921904Y23032381D01*
X22969523Y22937143D01*
X22969523Y22841905D01*
X22921904Y22699048D01*
X22350476Y22127620D01*
X22969523Y22127620D01*
%TO.C,JP1*%
X7745226Y35012620D02*
X7745226Y34298334D01*
X7697607Y34155477D01*
X7602369Y34060239D01*
X7459512Y34012620D01*
X7364274Y34012620D01*
X8221417Y34012620D02*
X8221417Y35012620D01*
X8602369Y35012620D01*
X8697607Y34965000D01*
X8745226Y34917381D01*
X8792845Y34822143D01*
X8792845Y34679286D01*
X8745226Y34584048D01*
X8697607Y34536429D01*
X8602369Y34488810D01*
X8221417Y34488810D01*
X9745226Y34012620D02*
X9173798Y34012620D01*
X9459512Y34012620D02*
X9459512Y35012620D01*
X9364274Y34869762D01*
X9269036Y34774524D01*
X9173798Y34726905D01*
%TO.C,SW1*%
X16956666Y22515239D02*
X17099523Y22467620D01*
X17337619Y22467620D01*
X17432857Y22515239D01*
X17480476Y22562858D01*
X17528095Y22658096D01*
X17528095Y22753334D01*
X17480476Y22848572D01*
X17432857Y22896191D01*
X17337619Y22943810D01*
X17147142Y22991429D01*
X17051904Y23039048D01*
X17004285Y23086667D01*
X16956666Y23181905D01*
X16956666Y23277143D01*
X17004285Y23372381D01*
X17051904Y23420000D01*
X17147142Y23467620D01*
X17385238Y23467620D01*
X17528095Y23420000D01*
X17861428Y23467620D02*
X18099523Y22467620D01*
X18290000Y23181905D01*
X18480476Y22467620D01*
X18718571Y23467620D01*
X19623333Y22467620D02*
X19051904Y22467620D01*
X19337619Y22467620D02*
X19337619Y23467620D01*
X19242380Y23324762D01*
X19147142Y23229524D01*
X19051904Y23181905D01*
%TO.C,R16*%
X14112520Y26997143D02*
X13636330Y26663810D01*
X14112520Y26425715D02*
X13112520Y26425715D01*
X13112520Y26806667D01*
X13160140Y26901905D01*
X13207759Y26949524D01*
X13302997Y26997143D01*
X13445854Y26997143D01*
X13541092Y26949524D01*
X13588711Y26901905D01*
X13636330Y26806667D01*
X13636330Y26425715D01*
X14112520Y27949524D02*
X14112520Y27378096D01*
X14112520Y27663810D02*
X13112520Y27663810D01*
X13255378Y27568572D01*
X13350616Y27473334D01*
X13398235Y27378096D01*
X13112520Y28806667D02*
X13112520Y28616191D01*
X13160140Y28520953D01*
X13207759Y28473334D01*
X13350616Y28378096D01*
X13541092Y28330477D01*
X13922044Y28330477D01*
X14017282Y28378096D01*
X14064901Y28425715D01*
X14112520Y28520953D01*
X14112520Y28711429D01*
X14064901Y28806667D01*
X14017282Y28854286D01*
X13922044Y28901905D01*
X13683949Y28901905D01*
X13588711Y28854286D01*
X13541092Y28806667D01*
X13493473Y28711429D01*
X13493473Y28520953D01*
X13541092Y28425715D01*
X13588711Y28378096D01*
X13683949Y28330477D01*
%TO.C,Q1*%
X10376761Y24366381D02*
X10281523Y24414000D01*
X10186285Y24509239D01*
X10043428Y24652096D01*
X9948190Y24699715D01*
X9852952Y24699715D01*
X9900571Y24461620D02*
X9805333Y24509239D01*
X9710095Y24604477D01*
X9662476Y24794953D01*
X9662476Y25128286D01*
X9710095Y25318762D01*
X9805333Y25414000D01*
X9900571Y25461620D01*
X10091047Y25461620D01*
X10186285Y25414000D01*
X10281523Y25318762D01*
X10329142Y25128286D01*
X10329142Y24794953D01*
X10281523Y24604477D01*
X10186285Y24509239D01*
X10091047Y24461620D01*
X9900571Y24461620D01*
X11281523Y24461620D02*
X10710095Y24461620D01*
X10995809Y24461620D02*
X10995809Y25461620D01*
X10900571Y25318762D01*
X10805333Y25223524D01*
X10710095Y25175905D01*
%TO.C,C20*%
X17323362Y27065723D02*
X17370981Y27018104D01*
X17418600Y26875247D01*
X17418600Y26780009D01*
X17370981Y26637152D01*
X17275743Y26541914D01*
X17180505Y26494295D01*
X16990029Y26446676D01*
X16847172Y26446676D01*
X16656696Y26494295D01*
X16561458Y26541914D01*
X16466220Y26637152D01*
X16418600Y26780009D01*
X16418600Y26875247D01*
X16466220Y27018104D01*
X16513839Y27065723D01*
X16513839Y27446676D02*
X16466220Y27494295D01*
X16418600Y27589533D01*
X16418600Y27827628D01*
X16466220Y27922866D01*
X16513839Y27970485D01*
X16609077Y28018104D01*
X16704315Y28018104D01*
X16847172Y27970485D01*
X17418600Y27399057D01*
X17418600Y28018104D01*
X16418600Y28637152D02*
X16418600Y28732390D01*
X16466220Y28827628D01*
X16513839Y28875247D01*
X16609077Y28922866D01*
X16799553Y28970485D01*
X17037648Y28970485D01*
X17228124Y28922866D01*
X17323362Y28875247D01*
X17370981Y28827628D01*
X17418600Y28732390D01*
X17418600Y28637152D01*
X17370981Y28541914D01*
X17323362Y28494295D01*
X17228124Y28446676D01*
X17037648Y28399057D01*
X16799553Y28399057D01*
X16609077Y28446676D01*
X16513839Y28494295D01*
X16466220Y28541914D01*
X16418600Y28637152D01*
%TO.C,U5*%
X5059675Y15643420D02*
X5059675Y14833896D01*
X5107294Y14738658D01*
X5154913Y14691039D01*
X5250151Y14643420D01*
X5440627Y14643420D01*
X5535865Y14691039D01*
X5583484Y14738658D01*
X5631103Y14833896D01*
X5631103Y15643420D01*
X6583484Y15643420D02*
X6107294Y15643420D01*
X6059675Y15167229D01*
X6107294Y15214848D01*
X6202532Y15262467D01*
X6440627Y15262467D01*
X6535865Y15214848D01*
X6583484Y15167229D01*
X6631103Y15071991D01*
X6631103Y14833896D01*
X6583484Y14738658D01*
X6535865Y14691039D01*
X6440627Y14643420D01*
X6202532Y14643420D01*
X6107294Y14691039D01*
X6059675Y14738658D01*
%TO.C,R15*%
X22436760Y13759823D02*
X21960570Y13426490D01*
X22436760Y13188395D02*
X21436760Y13188395D01*
X21436760Y13569347D01*
X21484380Y13664585D01*
X21531999Y13712204D01*
X21627237Y13759823D01*
X21770094Y13759823D01*
X21865332Y13712204D01*
X21912951Y13664585D01*
X21960570Y13569347D01*
X21960570Y13188395D01*
X22436760Y14712204D02*
X22436760Y14140776D01*
X22436760Y14426490D02*
X21436760Y14426490D01*
X21579618Y14331252D01*
X21674856Y14236014D01*
X21722475Y14140776D01*
X21436760Y15616966D02*
X21436760Y15140776D01*
X21912951Y15093157D01*
X21865332Y15140776D01*
X21817713Y15236014D01*
X21817713Y15474109D01*
X21865332Y15569347D01*
X21912951Y15616966D01*
X22008189Y15664585D01*
X22246284Y15664585D01*
X22341522Y15616966D01*
X22389141Y15569347D01*
X22436760Y15474109D01*
X22436760Y15236014D01*
X22389141Y15140776D01*
X22341522Y15093157D01*
%TO.C,R14*%
X19304940Y13790303D02*
X18828750Y13456970D01*
X19304940Y13218875D02*
X18304940Y13218875D01*
X18304940Y13599827D01*
X18352560Y13695065D01*
X18400179Y13742684D01*
X18495417Y13790303D01*
X18638274Y13790303D01*
X18733512Y13742684D01*
X18781131Y13695065D01*
X18828750Y13599827D01*
X18828750Y13218875D01*
X19304940Y14742684D02*
X19304940Y14171256D01*
X19304940Y14456970D02*
X18304940Y14456970D01*
X18447798Y14361732D01*
X18543036Y14266494D01*
X18590655Y14171256D01*
X18638274Y15599827D02*
X19304940Y15599827D01*
X18257321Y15361732D02*
X18971607Y15123637D01*
X18971607Y15742684D01*
%TO.C,R13*%
X16058820Y13599803D02*
X15582630Y13266470D01*
X16058820Y13028375D02*
X15058820Y13028375D01*
X15058820Y13409327D01*
X15106440Y13504565D01*
X15154059Y13552184D01*
X15249297Y13599803D01*
X15392154Y13599803D01*
X15487392Y13552184D01*
X15535011Y13504565D01*
X15582630Y13409327D01*
X15582630Y13028375D01*
X16058820Y14552184D02*
X16058820Y13980756D01*
X16058820Y14266470D02*
X15058820Y14266470D01*
X15201678Y14171232D01*
X15296916Y14075994D01*
X15344535Y13980756D01*
X15058820Y14885518D02*
X15058820Y15504565D01*
X15439773Y15171232D01*
X15439773Y15314089D01*
X15487392Y15409327D01*
X15535011Y15456946D01*
X15630249Y15504565D01*
X15868344Y15504565D01*
X15963582Y15456946D01*
X16011201Y15409327D01*
X16058820Y15314089D01*
X16058820Y15028375D01*
X16011201Y14933137D01*
X15963582Y14885518D01*
%TO.C,C19*%
X7870022Y16667318D02*
X7822403Y16619699D01*
X7679546Y16572080D01*
X7584308Y16572080D01*
X7441451Y16619699D01*
X7346213Y16714937D01*
X7298594Y16810175D01*
X7250975Y17000651D01*
X7250975Y17143508D01*
X7298594Y17333984D01*
X7346213Y17429222D01*
X7441451Y17524460D01*
X7584308Y17572080D01*
X7679546Y17572080D01*
X7822403Y17524460D01*
X7870022Y17476841D01*
X8822403Y16572080D02*
X8250975Y16572080D01*
X8536689Y16572080D02*
X8536689Y17572080D01*
X8441451Y17429222D01*
X8346213Y17333984D01*
X8250975Y17286365D01*
X9298594Y16572080D02*
X9489070Y16572080D01*
X9584308Y16619699D01*
X9631927Y16667318D01*
X9727165Y16810175D01*
X9774784Y17000651D01*
X9774784Y17381603D01*
X9727165Y17476841D01*
X9679546Y17524460D01*
X9584308Y17572080D01*
X9393832Y17572080D01*
X9298594Y17524460D01*
X9250975Y17476841D01*
X9203356Y17381603D01*
X9203356Y17143508D01*
X9250975Y17048270D01*
X9298594Y17000651D01*
X9393832Y16953032D01*
X9584308Y16953032D01*
X9679546Y17000651D01*
X9727165Y17048270D01*
X9774784Y17143508D01*
%TO.C,R12*%
X49634980Y11624483D02*
X49158790Y11291150D01*
X49634980Y11053055D02*
X48634980Y11053055D01*
X48634980Y11434007D01*
X48682600Y11529245D01*
X48730219Y11576864D01*
X48825457Y11624483D01*
X48968314Y11624483D01*
X49063552Y11576864D01*
X49111171Y11529245D01*
X49158790Y11434007D01*
X49158790Y11053055D01*
X49634980Y12576864D02*
X49634980Y12005436D01*
X49634980Y12291150D02*
X48634980Y12291150D01*
X48777838Y12195912D01*
X48873076Y12100674D01*
X48920695Y12005436D01*
X48730219Y12957817D02*
X48682600Y13005436D01*
X48634980Y13100674D01*
X48634980Y13338769D01*
X48682600Y13434007D01*
X48730219Y13481626D01*
X48825457Y13529245D01*
X48920695Y13529245D01*
X49063552Y13481626D01*
X49634980Y12910198D01*
X49634980Y13529245D01*
%TO.C,R11*%
X35063540Y12523643D02*
X34587350Y12190310D01*
X35063540Y11952215D02*
X34063540Y11952215D01*
X34063540Y12333167D01*
X34111160Y12428405D01*
X34158779Y12476024D01*
X34254017Y12523643D01*
X34396874Y12523643D01*
X34492112Y12476024D01*
X34539731Y12428405D01*
X34587350Y12333167D01*
X34587350Y11952215D01*
X35063540Y13476024D02*
X35063540Y12904596D01*
X35063540Y13190310D02*
X34063540Y13190310D01*
X34206398Y13095072D01*
X34301636Y12999834D01*
X34349255Y12904596D01*
X35063540Y14428405D02*
X35063540Y13856977D01*
X35063540Y14142691D02*
X34063540Y14142691D01*
X34206398Y14047453D01*
X34301636Y13952215D01*
X34349255Y13856977D01*
%TO.C,R10*%
X53742160Y11571143D02*
X53265970Y11237810D01*
X53742160Y10999715D02*
X52742160Y10999715D01*
X52742160Y11380667D01*
X52789780Y11475905D01*
X52837399Y11523524D01*
X52932637Y11571143D01*
X53075494Y11571143D01*
X53170732Y11523524D01*
X53218351Y11475905D01*
X53265970Y11380667D01*
X53265970Y10999715D01*
X53742160Y12523524D02*
X53742160Y11952096D01*
X53742160Y12237810D02*
X52742160Y12237810D01*
X52885018Y12142572D01*
X52980256Y12047334D01*
X53027875Y11952096D01*
X52742160Y13142572D02*
X52742160Y13237810D01*
X52789780Y13333048D01*
X52837399Y13380667D01*
X52932637Y13428286D01*
X53123113Y13475905D01*
X53361208Y13475905D01*
X53551684Y13428286D01*
X53646922Y13380667D01*
X53694541Y13333048D01*
X53742160Y13237810D01*
X53742160Y13142572D01*
X53694541Y13047334D01*
X53646922Y12999715D01*
X53551684Y12952096D01*
X53361208Y12904477D01*
X53123113Y12904477D01*
X52932637Y12952096D01*
X52837399Y12999715D01*
X52789780Y13047334D01*
X52742160Y13142572D01*
%TO.C,R9*%
X17320813Y32198460D02*
X16987480Y32674650D01*
X16749384Y32198460D02*
X16749384Y33198460D01*
X17130337Y33198460D01*
X17225575Y33150840D01*
X17273194Y33103221D01*
X17320813Y33007983D01*
X17320813Y32865126D01*
X17273194Y32769888D01*
X17225575Y32722269D01*
X17130337Y32674650D01*
X16749384Y32674650D01*
X17797003Y32198460D02*
X17987480Y32198460D01*
X18082718Y32246079D01*
X18130337Y32293698D01*
X18225575Y32436555D01*
X18273194Y32627031D01*
X18273194Y33007983D01*
X18225575Y33103221D01*
X18177956Y33150840D01*
X18082718Y33198460D01*
X17892241Y33198460D01*
X17797003Y33150840D01*
X17749384Y33103221D01*
X17701765Y33007983D01*
X17701765Y32769888D01*
X17749384Y32674650D01*
X17797003Y32627031D01*
X17892241Y32579412D01*
X18082718Y32579412D01*
X18177956Y32627031D01*
X18225575Y32674650D01*
X18273194Y32769888D01*
%TO.C,R6*%
X44514053Y35757620D02*
X44180720Y36233810D01*
X43942624Y35757620D02*
X43942624Y36757620D01*
X44323577Y36757620D01*
X44418815Y36710000D01*
X44466434Y36662381D01*
X44514053Y36567143D01*
X44514053Y36424286D01*
X44466434Y36329048D01*
X44418815Y36281429D01*
X44323577Y36233810D01*
X43942624Y36233810D01*
X45371196Y36757620D02*
X45180720Y36757620D01*
X45085481Y36710000D01*
X45037862Y36662381D01*
X44942624Y36519524D01*
X44895005Y36329048D01*
X44895005Y35948096D01*
X44942624Y35852858D01*
X44990243Y35805239D01*
X45085481Y35757620D01*
X45275958Y35757620D01*
X45371196Y35805239D01*
X45418815Y35852858D01*
X45466434Y35948096D01*
X45466434Y36186191D01*
X45418815Y36281429D01*
X45371196Y36329048D01*
X45275958Y36376667D01*
X45085481Y36376667D01*
X44990243Y36329048D01*
X44942624Y36281429D01*
X44895005Y36186191D01*
%TO.C,C18*%
X45175782Y11646038D02*
X45128163Y11598419D01*
X44985306Y11550800D01*
X44890068Y11550800D01*
X44747211Y11598419D01*
X44651973Y11693657D01*
X44604354Y11788895D01*
X44556735Y11979371D01*
X44556735Y12122228D01*
X44604354Y12312704D01*
X44651973Y12407942D01*
X44747211Y12503180D01*
X44890068Y12550800D01*
X44985306Y12550800D01*
X45128163Y12503180D01*
X45175782Y12455561D01*
X46128163Y11550800D02*
X45556735Y11550800D01*
X45842449Y11550800D02*
X45842449Y12550800D01*
X45747211Y12407942D01*
X45651973Y12312704D01*
X45556735Y12265085D01*
X46699592Y12122228D02*
X46604354Y12169847D01*
X46556735Y12217466D01*
X46509116Y12312704D01*
X46509116Y12360323D01*
X46556735Y12455561D01*
X46604354Y12503180D01*
X46699592Y12550800D01*
X46890068Y12550800D01*
X46985306Y12503180D01*
X47032925Y12455561D01*
X47080544Y12360323D01*
X47080544Y12312704D01*
X47032925Y12217466D01*
X46985306Y12169847D01*
X46890068Y12122228D01*
X46699592Y12122228D01*
X46604354Y12074609D01*
X46556735Y12026990D01*
X46509116Y11931752D01*
X46509116Y11741276D01*
X46556735Y11646038D01*
X46604354Y11598419D01*
X46699592Y11550800D01*
X46890068Y11550800D01*
X46985306Y11598419D01*
X47032925Y11646038D01*
X47080544Y11741276D01*
X47080544Y11931752D01*
X47032925Y12026990D01*
X46985306Y12074609D01*
X46890068Y12122228D01*
%TO.C,U2*%
X46288635Y29944720D02*
X46288635Y29135196D01*
X46336254Y29039958D01*
X46383873Y28992339D01*
X46479111Y28944720D01*
X46669587Y28944720D01*
X46764825Y28992339D01*
X46812444Y29039958D01*
X46860063Y29135196D01*
X46860063Y29944720D01*
X47288635Y29849481D02*
X47336254Y29897100D01*
X47431492Y29944720D01*
X47669587Y29944720D01*
X47764825Y29897100D01*
X47812444Y29849481D01*
X47860063Y29754243D01*
X47860063Y29659005D01*
X47812444Y29516148D01*
X47241016Y28944720D01*
X47860063Y28944720D01*
%TO.C,JP2*%
X7745226Y32520280D02*
X7745226Y31805994D01*
X7697607Y31663137D01*
X7602369Y31567899D01*
X7459512Y31520280D01*
X7364274Y31520280D01*
X8221417Y31520280D02*
X8221417Y32520280D01*
X8602369Y32520280D01*
X8697607Y32472660D01*
X8745226Y32425041D01*
X8792845Y32329803D01*
X8792845Y32186946D01*
X8745226Y32091708D01*
X8697607Y32044089D01*
X8602369Y31996470D01*
X8221417Y31996470D01*
X9173798Y32425041D02*
X9221417Y32472660D01*
X9316655Y32520280D01*
X9554750Y32520280D01*
X9649988Y32472660D01*
X9697607Y32425041D01*
X9745226Y32329803D01*
X9745226Y32234565D01*
X9697607Y32091708D01*
X9126179Y31520280D01*
X9745226Y31520280D01*
%TO.C,D6*%
X53315224Y23813920D02*
X53315224Y24813920D01*
X53553320Y24813920D01*
X53696177Y24766300D01*
X53791415Y24671062D01*
X53839034Y24575824D01*
X53886653Y24385348D01*
X53886653Y24242491D01*
X53839034Y24052015D01*
X53791415Y23956777D01*
X53696177Y23861539D01*
X53553320Y23813920D01*
X53315224Y23813920D01*
X54743796Y24813920D02*
X54553320Y24813920D01*
X54458081Y24766300D01*
X54410462Y24718681D01*
X54315224Y24575824D01*
X54267605Y24385348D01*
X54267605Y24004396D01*
X54315224Y23909158D01*
X54362843Y23861539D01*
X54458081Y23813920D01*
X54648558Y23813920D01*
X54743796Y23861539D01*
X54791415Y23909158D01*
X54839034Y24004396D01*
X54839034Y24242491D01*
X54791415Y24337729D01*
X54743796Y24385348D01*
X54648558Y24432967D01*
X54458081Y24432967D01*
X54362843Y24385348D01*
X54315224Y24337729D01*
X54267605Y24242491D01*
%TO.C,D5*%
X23221304Y24156820D02*
X23221304Y25156820D01*
X23459400Y25156820D01*
X23602257Y25109200D01*
X23697495Y25013962D01*
X23745114Y24918724D01*
X23792733Y24728248D01*
X23792733Y24585391D01*
X23745114Y24394915D01*
X23697495Y24299677D01*
X23602257Y24204439D01*
X23459400Y24156820D01*
X23221304Y24156820D01*
X24697495Y25156820D02*
X24221304Y25156820D01*
X24173685Y24680629D01*
X24221304Y24728248D01*
X24316542Y24775867D01*
X24554638Y24775867D01*
X24649876Y24728248D01*
X24697495Y24680629D01*
X24745114Y24585391D01*
X24745114Y24347296D01*
X24697495Y24252058D01*
X24649876Y24204439D01*
X24554638Y24156820D01*
X24316542Y24156820D01*
X24221304Y24204439D01*
X24173685Y24252058D01*
%TO.C,D4*%
X4496424Y23745340D02*
X4496424Y24745340D01*
X4734520Y24745340D01*
X4877377Y24697720D01*
X4972615Y24602482D01*
X5020234Y24507244D01*
X5067853Y24316768D01*
X5067853Y24173911D01*
X5020234Y23983435D01*
X4972615Y23888197D01*
X4877377Y23792959D01*
X4734520Y23745340D01*
X4496424Y23745340D01*
X5924996Y24412006D02*
X5924996Y23745340D01*
X5686900Y24792959D02*
X5448805Y24078673D01*
X6067853Y24078673D01*
%TO.C,Y1*%
X34130889Y30518190D02*
X34130889Y30042000D01*
X33797556Y31042000D02*
X34130889Y30518190D01*
X34464222Y31042000D01*
X35321365Y30042000D02*
X34749937Y30042000D01*
X35035651Y30042000D02*
X35035651Y31042000D01*
X34940413Y30899142D01*
X34845175Y30803904D01*
X34749937Y30756285D01*
%TO.C,U4*%
X56446095Y26759620D02*
X56446095Y25950096D01*
X56493714Y25854858D01*
X56541333Y25807239D01*
X56636571Y25759620D01*
X56827047Y25759620D01*
X56922285Y25807239D01*
X56969904Y25854858D01*
X57017523Y25950096D01*
X57017523Y26759620D01*
X57922285Y26426286D02*
X57922285Y25759620D01*
X57684190Y26807239D02*
X57446095Y26092953D01*
X58065142Y26092953D01*
%TO.C,U3*%
X62116300Y27291536D02*
X62925824Y27291536D01*
X63021062Y27339155D01*
X63068681Y27386774D01*
X63116300Y27482012D01*
X63116300Y27672488D01*
X63068681Y27767726D01*
X63021062Y27815345D01*
X62925824Y27862964D01*
X62116300Y27862964D01*
X62116300Y28243917D02*
X62116300Y28862964D01*
X62497253Y28529631D01*
X62497253Y28672488D01*
X62544872Y28767726D01*
X62592491Y28815345D01*
X62687729Y28862964D01*
X62925824Y28862964D01*
X63021062Y28815345D01*
X63068681Y28767726D01*
X63116300Y28672488D01*
X63116300Y28386774D01*
X63068681Y28291536D01*
X63021062Y28243917D01*
%TO.C,U1*%
X62338895Y11237620D02*
X62338895Y10428096D01*
X62386514Y10332858D01*
X62434133Y10285239D01*
X62529371Y10237620D01*
X62719847Y10237620D01*
X62815085Y10285239D01*
X62862704Y10332858D01*
X62910323Y10428096D01*
X62910323Y11237620D01*
X63910323Y10237620D02*
X63338895Y10237620D01*
X63624609Y10237620D02*
X63624609Y11237620D01*
X63529371Y11094762D01*
X63434133Y10999524D01*
X63338895Y10951905D01*
%TO.C,R8*%
X53485333Y19255620D02*
X53152000Y19731810D01*
X52913904Y19255620D02*
X52913904Y20255620D01*
X53294857Y20255620D01*
X53390095Y20208000D01*
X53437714Y20160381D01*
X53485333Y20065143D01*
X53485333Y19922286D01*
X53437714Y19827048D01*
X53390095Y19779429D01*
X53294857Y19731810D01*
X52913904Y19731810D01*
X54056761Y19827048D02*
X53961523Y19874667D01*
X53913904Y19922286D01*
X53866285Y20017524D01*
X53866285Y20065143D01*
X53913904Y20160381D01*
X53961523Y20208000D01*
X54056761Y20255620D01*
X54247238Y20255620D01*
X54342476Y20208000D01*
X54390095Y20160381D01*
X54437714Y20065143D01*
X54437714Y20017524D01*
X54390095Y19922286D01*
X54342476Y19874667D01*
X54247238Y19827048D01*
X54056761Y19827048D01*
X53961523Y19779429D01*
X53913904Y19731810D01*
X53866285Y19636572D01*
X53866285Y19446096D01*
X53913904Y19350858D01*
X53961523Y19303239D01*
X54056761Y19255620D01*
X54247238Y19255620D01*
X54342476Y19303239D01*
X54390095Y19350858D01*
X54437714Y19446096D01*
X54437714Y19636572D01*
X54390095Y19731810D01*
X54342476Y19779429D01*
X54247238Y19827048D01*
%TO.C,R7*%
X67916666Y29949596D02*
X67650000Y30330548D01*
X67459523Y29949596D02*
X67459523Y30749596D01*
X67764285Y30749596D01*
X67840476Y30711500D01*
X67878571Y30673405D01*
X67916666Y30597215D01*
X67916666Y30482929D01*
X67878571Y30406739D01*
X67840476Y30368643D01*
X67764285Y30330548D01*
X67459523Y30330548D01*
X68183333Y30749596D02*
X68716666Y30749596D01*
X68373809Y29949596D01*
%TO.C,R5*%
X48743153Y35757620D02*
X48409820Y36233810D01*
X48171724Y35757620D02*
X48171724Y36757620D01*
X48552677Y36757620D01*
X48647915Y36710000D01*
X48695534Y36662381D01*
X48743153Y36567143D01*
X48743153Y36424286D01*
X48695534Y36329048D01*
X48647915Y36281429D01*
X48552677Y36233810D01*
X48171724Y36233810D01*
X49647915Y36757620D02*
X49171724Y36757620D01*
X49124105Y36281429D01*
X49171724Y36329048D01*
X49266962Y36376667D01*
X49505058Y36376667D01*
X49600296Y36329048D01*
X49647915Y36281429D01*
X49695534Y36186191D01*
X49695534Y35948096D01*
X49647915Y35852858D01*
X49600296Y35805239D01*
X49505058Y35757620D01*
X49266962Y35757620D01*
X49171724Y35805239D01*
X49124105Y35852858D01*
%TO.C,R4*%
X41039333Y36008460D02*
X40706000Y36484650D01*
X40467904Y36008460D02*
X40467904Y37008460D01*
X40848857Y37008460D01*
X40944095Y36960840D01*
X40991714Y36913221D01*
X41039333Y36817983D01*
X41039333Y36675126D01*
X40991714Y36579888D01*
X40944095Y36532269D01*
X40848857Y36484650D01*
X40467904Y36484650D01*
X41896476Y36675126D02*
X41896476Y36008460D01*
X41658380Y37056079D02*
X41420285Y36341793D01*
X42039333Y36341793D01*
%TO.C,R3*%
X38684753Y36008460D02*
X38351420Y36484650D01*
X38113324Y36008460D02*
X38113324Y37008460D01*
X38494277Y37008460D01*
X38589515Y36960840D01*
X38637134Y36913221D01*
X38684753Y36817983D01*
X38684753Y36675126D01*
X38637134Y36579888D01*
X38589515Y36532269D01*
X38494277Y36484650D01*
X38113324Y36484650D01*
X39018086Y37008460D02*
X39637134Y37008460D01*
X39303800Y36627507D01*
X39446658Y36627507D01*
X39541896Y36579888D01*
X39589515Y36532269D01*
X39637134Y36437031D01*
X39637134Y36198936D01*
X39589515Y36103698D01*
X39541896Y36056079D01*
X39446658Y36008460D01*
X39160943Y36008460D01*
X39065705Y36056079D01*
X39018086Y36103698D01*
%TO.C,R2*%
X20613920Y27473334D02*
X20137730Y27140000D01*
X20613920Y26901905D02*
X19613920Y26901905D01*
X19613920Y27282858D01*
X19661540Y27378096D01*
X19709159Y27425715D01*
X19804397Y27473334D01*
X19947254Y27473334D01*
X20042492Y27425715D01*
X20090111Y27378096D01*
X20137730Y27282858D01*
X20137730Y26901905D01*
X19709159Y27854286D02*
X19661540Y27901905D01*
X19613920Y27997143D01*
X19613920Y28235239D01*
X19661540Y28330477D01*
X19709159Y28378096D01*
X19804397Y28425715D01*
X19899635Y28425715D01*
X20042492Y28378096D01*
X20613920Y27806667D01*
X20613920Y28425715D01*
%TO.C,R1*%
X29555993Y24108560D02*
X29222660Y24584750D01*
X28984564Y24108560D02*
X28984564Y25108560D01*
X29365517Y25108560D01*
X29460755Y25060940D01*
X29508374Y25013321D01*
X29555993Y24918083D01*
X29555993Y24775226D01*
X29508374Y24679988D01*
X29460755Y24632369D01*
X29365517Y24584750D01*
X28984564Y24584750D01*
X30508374Y24108560D02*
X29936945Y24108560D01*
X30222660Y24108560D02*
X30222660Y25108560D01*
X30127421Y24965702D01*
X30032183Y24870464D01*
X29936945Y24822845D01*
%TO.C,FB1*%
X61313993Y35842343D02*
X61047326Y35842343D01*
X61047326Y35423296D02*
X61047326Y36223296D01*
X61428279Y36223296D01*
X61999707Y35842343D02*
X62113993Y35804248D01*
X62152088Y35766153D01*
X62190183Y35689962D01*
X62190183Y35575677D01*
X62152088Y35499486D01*
X62113993Y35461391D01*
X62037802Y35423296D01*
X61733040Y35423296D01*
X61733040Y36223296D01*
X61999707Y36223296D01*
X62075898Y36185200D01*
X62113993Y36147105D01*
X62152088Y36070915D01*
X62152088Y35994724D01*
X62113993Y35918534D01*
X62075898Y35880439D01*
X61999707Y35842343D01*
X61733040Y35842343D01*
X62952088Y35423296D02*
X62494945Y35423296D01*
X62723517Y35423296D02*
X62723517Y36223296D01*
X62647326Y36109010D01*
X62571136Y36032820D01*
X62494945Y35994724D01*
%TO.C,D3*%
X52541904Y35757620D02*
X52541904Y36757620D01*
X52780000Y36757620D01*
X52922857Y36710000D01*
X53018095Y36614762D01*
X53065714Y36519524D01*
X53113333Y36329048D01*
X53113333Y36186191D01*
X53065714Y35995715D01*
X53018095Y35900477D01*
X52922857Y35805239D01*
X52780000Y35757620D01*
X52541904Y35757620D01*
X53446666Y36757620D02*
X54065714Y36757620D01*
X53732380Y36376667D01*
X53875238Y36376667D01*
X53970476Y36329048D01*
X54018095Y36281429D01*
X54065714Y36186191D01*
X54065714Y35948096D01*
X54018095Y35852858D01*
X53970476Y35805239D01*
X53875238Y35757620D01*
X53589523Y35757620D01*
X53494285Y35805239D01*
X53446666Y35852858D01*
%TO.C,D2*%
X34056904Y35757620D02*
X34056904Y36757620D01*
X34295000Y36757620D01*
X34437857Y36710000D01*
X34533095Y36614762D01*
X34580714Y36519524D01*
X34628333Y36329048D01*
X34628333Y36186191D01*
X34580714Y35995715D01*
X34533095Y35900477D01*
X34437857Y35805239D01*
X34295000Y35757620D01*
X34056904Y35757620D01*
X35009285Y36662381D02*
X35056904Y36710000D01*
X35152142Y36757620D01*
X35390238Y36757620D01*
X35485476Y36710000D01*
X35533095Y36662381D01*
X35580714Y36567143D01*
X35580714Y36471905D01*
X35533095Y36329048D01*
X34961666Y35757620D01*
X35580714Y35757620D01*
%TO.C,D1*%
X15276904Y35757620D02*
X15276904Y36757620D01*
X15515000Y36757620D01*
X15657857Y36710000D01*
X15753095Y36614762D01*
X15800714Y36519524D01*
X15848333Y36329048D01*
X15848333Y36186191D01*
X15800714Y35995715D01*
X15753095Y35900477D01*
X15657857Y35805239D01*
X15515000Y35757620D01*
X15276904Y35757620D01*
X16800714Y35757620D02*
X16229285Y35757620D01*
X16515000Y35757620D02*
X16515000Y36757620D01*
X16419761Y36614762D01*
X16324523Y36519524D01*
X16229285Y36471905D01*
%TO.C,C17*%
X67608094Y21864766D02*
X67569999Y21826671D01*
X67455713Y21788576D01*
X67379522Y21788576D01*
X67265237Y21826671D01*
X67189046Y21902861D01*
X67150951Y21979052D01*
X67112856Y22131433D01*
X67112856Y22245719D01*
X67150951Y22398100D01*
X67189046Y22474290D01*
X67265237Y22550480D01*
X67379522Y22588576D01*
X67455713Y22588576D01*
X67569999Y22550480D01*
X67608094Y22512385D01*
X68369999Y21788576D02*
X67912856Y21788576D01*
X68141427Y21788576D02*
X68141427Y22588576D01*
X68065237Y22474290D01*
X67989046Y22398100D01*
X67912856Y22360004D01*
X68636665Y22588576D02*
X69169999Y22588576D01*
X68827141Y21788576D01*
%TO.C,C16*%
X67608094Y23833266D02*
X67569999Y23795171D01*
X67455713Y23757076D01*
X67379522Y23757076D01*
X67265237Y23795171D01*
X67189046Y23871361D01*
X67150951Y23947552D01*
X67112856Y24099933D01*
X67112856Y24214219D01*
X67150951Y24366600D01*
X67189046Y24442790D01*
X67265237Y24518980D01*
X67379522Y24557076D01*
X67455713Y24557076D01*
X67569999Y24518980D01*
X67608094Y24480885D01*
X68369999Y23757076D02*
X67912856Y23757076D01*
X68141427Y23757076D02*
X68141427Y24557076D01*
X68065237Y24442790D01*
X67989046Y24366600D01*
X67912856Y24328504D01*
X69055713Y24557076D02*
X68903332Y24557076D01*
X68827141Y24518980D01*
X68789046Y24480885D01*
X68712856Y24366600D01*
X68674760Y24214219D01*
X68674760Y23909457D01*
X68712856Y23833266D01*
X68750951Y23795171D01*
X68827141Y23757076D01*
X68979522Y23757076D01*
X69055713Y23795171D01*
X69093808Y23833266D01*
X69131903Y23909457D01*
X69131903Y24099933D01*
X69093808Y24176123D01*
X69055713Y24214219D01*
X68979522Y24252314D01*
X68827141Y24252314D01*
X68750951Y24214219D01*
X68712856Y24176123D01*
X68674760Y24099933D01*
%TO.C,C15*%
X67633494Y31562486D02*
X67595399Y31524391D01*
X67481113Y31486296D01*
X67404922Y31486296D01*
X67290637Y31524391D01*
X67214446Y31600581D01*
X67176351Y31676772D01*
X67138256Y31829153D01*
X67138256Y31943439D01*
X67176351Y32095820D01*
X67214446Y32172010D01*
X67290637Y32248200D01*
X67404922Y32286296D01*
X67481113Y32286296D01*
X67595399Y32248200D01*
X67633494Y32210105D01*
X68395399Y31486296D02*
X67938256Y31486296D01*
X68166827Y31486296D02*
X68166827Y32286296D01*
X68090637Y32172010D01*
X68014446Y32095820D01*
X67938256Y32057724D01*
X69119208Y32286296D02*
X68738256Y32286296D01*
X68700160Y31905343D01*
X68738256Y31943439D01*
X68814446Y31981534D01*
X69004922Y31981534D01*
X69081113Y31943439D01*
X69119208Y31905343D01*
X69157303Y31829153D01*
X69157303Y31638677D01*
X69119208Y31562486D01*
X69081113Y31524391D01*
X69004922Y31486296D01*
X68814446Y31486296D01*
X68738256Y31524391D01*
X68700160Y31562486D01*
%TO.C,C14*%
X67661434Y33548766D02*
X67623339Y33510671D01*
X67509053Y33472576D01*
X67432862Y33472576D01*
X67318577Y33510671D01*
X67242386Y33586861D01*
X67204291Y33663052D01*
X67166196Y33815433D01*
X67166196Y33929719D01*
X67204291Y34082100D01*
X67242386Y34158290D01*
X67318577Y34234480D01*
X67432862Y34272576D01*
X67509053Y34272576D01*
X67623339Y34234480D01*
X67661434Y34196385D01*
X68423339Y33472576D02*
X67966196Y33472576D01*
X68194767Y33472576D02*
X68194767Y34272576D01*
X68118577Y34158290D01*
X68042386Y34082100D01*
X67966196Y34044004D01*
X69109053Y34005909D02*
X69109053Y33472576D01*
X68918577Y34310671D02*
X68728100Y33739242D01*
X69223339Y33739242D01*
%TO.C,C13*%
X59867142Y21380858D02*
X59819523Y21333239D01*
X59676666Y21285620D01*
X59581428Y21285620D01*
X59438571Y21333239D01*
X59343333Y21428477D01*
X59295714Y21523715D01*
X59248095Y21714191D01*
X59248095Y21857048D01*
X59295714Y22047524D01*
X59343333Y22142762D01*
X59438571Y22238000D01*
X59581428Y22285620D01*
X59676666Y22285620D01*
X59819523Y22238000D01*
X59867142Y22190381D01*
X60819523Y21285620D02*
X60248095Y21285620D01*
X60533809Y21285620D02*
X60533809Y22285620D01*
X60438571Y22142762D01*
X60343333Y22047524D01*
X60248095Y21999905D01*
X61152857Y22285620D02*
X61771904Y22285620D01*
X61438571Y21904667D01*
X61581428Y21904667D01*
X61676666Y21857048D01*
X61724285Y21809429D01*
X61771904Y21714191D01*
X61771904Y21476096D01*
X61724285Y21380858D01*
X61676666Y21333239D01*
X61581428Y21285620D01*
X61295714Y21285620D01*
X61200476Y21333239D01*
X61152857Y21380858D01*
%TO.C,C12*%
X67177262Y8590418D02*
X67129643Y8542799D01*
X66986786Y8495180D01*
X66891548Y8495180D01*
X66748691Y8542799D01*
X66653453Y8638037D01*
X66605834Y8733275D01*
X66558215Y8923751D01*
X66558215Y9066608D01*
X66605834Y9257084D01*
X66653453Y9352322D01*
X66748691Y9447560D01*
X66891548Y9495180D01*
X66986786Y9495180D01*
X67129643Y9447560D01*
X67177262Y9399941D01*
X68129643Y8495180D02*
X67558215Y8495180D01*
X67843929Y8495180D02*
X67843929Y9495180D01*
X67748691Y9352322D01*
X67653453Y9257084D01*
X67558215Y9209465D01*
X68510596Y9399941D02*
X68558215Y9447560D01*
X68653453Y9495180D01*
X68891548Y9495180D01*
X68986786Y9447560D01*
X69034405Y9399941D01*
X69082024Y9304703D01*
X69082024Y9209465D01*
X69034405Y9066608D01*
X68462977Y8495180D01*
X69082024Y8495180D01*
%TO.C,C11*%
X67595394Y19754026D02*
X67557299Y19715931D01*
X67443013Y19677836D01*
X67366822Y19677836D01*
X67252537Y19715931D01*
X67176346Y19792121D01*
X67138251Y19868312D01*
X67100156Y20020693D01*
X67100156Y20134979D01*
X67138251Y20287360D01*
X67176346Y20363550D01*
X67252537Y20439740D01*
X67366822Y20477836D01*
X67443013Y20477836D01*
X67557299Y20439740D01*
X67595394Y20401645D01*
X68357299Y19677836D02*
X67900156Y19677836D01*
X68128727Y19677836D02*
X68128727Y20477836D01*
X68052537Y20363550D01*
X67976346Y20287360D01*
X67900156Y20249264D01*
X69119203Y19677836D02*
X68662060Y19677836D01*
X68890632Y19677836D02*
X68890632Y20477836D01*
X68814441Y20363550D01*
X68738251Y20287360D01*
X68662060Y20249264D01*
%TO.C,C10*%
X28497142Y20227143D02*
X28544761Y20179524D01*
X28592380Y20036667D01*
X28592380Y19941429D01*
X28544761Y19798572D01*
X28449523Y19703334D01*
X28354285Y19655715D01*
X28163809Y19608096D01*
X28020952Y19608096D01*
X27830476Y19655715D01*
X27735238Y19703334D01*
X27640000Y19798572D01*
X27592380Y19941429D01*
X27592380Y20036667D01*
X27640000Y20179524D01*
X27687619Y20227143D01*
X28592380Y21179524D02*
X28592380Y20608096D01*
X28592380Y20893810D02*
X27592380Y20893810D01*
X27735238Y20798572D01*
X27830476Y20703334D01*
X27878095Y20608096D01*
X27592380Y21798572D02*
X27592380Y21893810D01*
X27640000Y21989048D01*
X27687619Y22036667D01*
X27782857Y22084286D01*
X27973333Y22131905D01*
X28211428Y22131905D01*
X28401904Y22084286D01*
X28497142Y22036667D01*
X28544761Y21989048D01*
X28592380Y21893810D01*
X28592380Y21798572D01*
X28544761Y21703334D01*
X28497142Y21655715D01*
X28401904Y21608096D01*
X28211428Y21560477D01*
X27973333Y21560477D01*
X27782857Y21608096D01*
X27687619Y21655715D01*
X27640000Y21703334D01*
X27592380Y21798572D01*
%TO.C,C9*%
X26516182Y27432114D02*
X26563801Y27384495D01*
X26611420Y27241638D01*
X26611420Y27146400D01*
X26563801Y27003542D01*
X26468563Y26908304D01*
X26373325Y26860685D01*
X26182849Y26813066D01*
X26039992Y26813066D01*
X25849516Y26860685D01*
X25754278Y26908304D01*
X25659040Y27003542D01*
X25611420Y27146400D01*
X25611420Y27241638D01*
X25659040Y27384495D01*
X25706659Y27432114D01*
X26611420Y27908304D02*
X26611420Y28098780D01*
X26563801Y28194019D01*
X26516182Y28241638D01*
X26373325Y28336876D01*
X26182849Y28384495D01*
X25801897Y28384495D01*
X25706659Y28336876D01*
X25659040Y28289257D01*
X25611420Y28194019D01*
X25611420Y28003542D01*
X25659040Y27908304D01*
X25706659Y27860685D01*
X25801897Y27813066D01*
X26039992Y27813066D01*
X26135230Y27860685D01*
X26182849Y27908304D01*
X26230468Y28003542D01*
X26230468Y28194019D01*
X26182849Y28289257D01*
X26135230Y28336876D01*
X26039992Y28384495D01*
%TO.C,C8*%
X31646413Y32314018D02*
X31598794Y32266399D01*
X31455937Y32218780D01*
X31360699Y32218780D01*
X31217841Y32266399D01*
X31122603Y32361637D01*
X31074984Y32456875D01*
X31027365Y32647351D01*
X31027365Y32790208D01*
X31074984Y32980684D01*
X31122603Y33075922D01*
X31217841Y33171160D01*
X31360699Y33218780D01*
X31455937Y33218780D01*
X31598794Y33171160D01*
X31646413Y33123541D01*
X32217841Y32790208D02*
X32122603Y32837827D01*
X32074984Y32885446D01*
X32027365Y32980684D01*
X32027365Y33028303D01*
X32074984Y33123541D01*
X32122603Y33171160D01*
X32217841Y33218780D01*
X32408318Y33218780D01*
X32503556Y33171160D01*
X32551175Y33123541D01*
X32598794Y33028303D01*
X32598794Y32980684D01*
X32551175Y32885446D01*
X32503556Y32837827D01*
X32408318Y32790208D01*
X32217841Y32790208D01*
X32122603Y32742589D01*
X32074984Y32694970D01*
X32027365Y32599732D01*
X32027365Y32409256D01*
X32074984Y32314018D01*
X32122603Y32266399D01*
X32217841Y32218780D01*
X32408318Y32218780D01*
X32503556Y32266399D01*
X32551175Y32314018D01*
X32598794Y32409256D01*
X32598794Y32599732D01*
X32551175Y32694970D01*
X32503556Y32742589D01*
X32408318Y32790208D01*
%TO.C,C7*%
X40681193Y13429118D02*
X40633574Y13381499D01*
X40490717Y13333880D01*
X40395479Y13333880D01*
X40252621Y13381499D01*
X40157383Y13476737D01*
X40109764Y13571975D01*
X40062145Y13762451D01*
X40062145Y13905308D01*
X40109764Y14095784D01*
X40157383Y14191022D01*
X40252621Y14286260D01*
X40395479Y14333880D01*
X40490717Y14333880D01*
X40633574Y14286260D01*
X40681193Y14238641D01*
X41014526Y14333880D02*
X41681193Y14333880D01*
X41252621Y13333880D01*
%TO.C,C6*%
X31069833Y18463398D02*
X31022214Y18415779D01*
X30879357Y18368160D01*
X30784119Y18368160D01*
X30641261Y18415779D01*
X30546023Y18511017D01*
X30498404Y18606255D01*
X30450785Y18796731D01*
X30450785Y18939588D01*
X30498404Y19130064D01*
X30546023Y19225302D01*
X30641261Y19320540D01*
X30784119Y19368160D01*
X30879357Y19368160D01*
X31022214Y19320540D01*
X31069833Y19272921D01*
X31926976Y19368160D02*
X31736500Y19368160D01*
X31641261Y19320540D01*
X31593642Y19272921D01*
X31498404Y19130064D01*
X31450785Y18939588D01*
X31450785Y18558636D01*
X31498404Y18463398D01*
X31546023Y18415779D01*
X31641261Y18368160D01*
X31831738Y18368160D01*
X31926976Y18415779D01*
X31974595Y18463398D01*
X32022214Y18558636D01*
X32022214Y18796731D01*
X31974595Y18891969D01*
X31926976Y18939588D01*
X31831738Y18987207D01*
X31641261Y18987207D01*
X31546023Y18939588D01*
X31498404Y18891969D01*
X31450785Y18796731D01*
%TO.C,C5*%
X33348213Y18471018D02*
X33300594Y18423399D01*
X33157737Y18375780D01*
X33062499Y18375780D01*
X32919641Y18423399D01*
X32824403Y18518637D01*
X32776784Y18613875D01*
X32729165Y18804351D01*
X32729165Y18947208D01*
X32776784Y19137684D01*
X32824403Y19232922D01*
X32919641Y19328160D01*
X33062499Y19375780D01*
X33157737Y19375780D01*
X33300594Y19328160D01*
X33348213Y19280541D01*
X34252975Y19375780D02*
X33776784Y19375780D01*
X33729165Y18899589D01*
X33776784Y18947208D01*
X33872022Y18994827D01*
X34110118Y18994827D01*
X34205356Y18947208D01*
X34252975Y18899589D01*
X34300594Y18804351D01*
X34300594Y18566256D01*
X34252975Y18471018D01*
X34205356Y18423399D01*
X34110118Y18375780D01*
X33872022Y18375780D01*
X33776784Y18423399D01*
X33729165Y18471018D01*
%TO.C,C4*%
X40671033Y15339198D02*
X40623414Y15291579D01*
X40480557Y15243960D01*
X40385319Y15243960D01*
X40242461Y15291579D01*
X40147223Y15386817D01*
X40099604Y15482055D01*
X40051985Y15672531D01*
X40051985Y15815388D01*
X40099604Y16005864D01*
X40147223Y16101102D01*
X40242461Y16196340D01*
X40385319Y16243960D01*
X40480557Y16243960D01*
X40623414Y16196340D01*
X40671033Y16148721D01*
X41528176Y15910626D02*
X41528176Y15243960D01*
X41290080Y16291579D02*
X41051985Y15577293D01*
X41671033Y15577293D01*
%TO.C,C3*%
X43633333Y15319198D02*
X43585714Y15271579D01*
X43442857Y15223960D01*
X43347619Y15223960D01*
X43204761Y15271579D01*
X43109523Y15366817D01*
X43061904Y15462055D01*
X43014285Y15652531D01*
X43014285Y15795388D01*
X43061904Y15985864D01*
X43109523Y16081102D01*
X43204761Y16176340D01*
X43347619Y16223960D01*
X43442857Y16223960D01*
X43585714Y16176340D01*
X43633333Y16128721D01*
X43966666Y16223960D02*
X44585714Y16223960D01*
X44252380Y15843007D01*
X44395238Y15843007D01*
X44490476Y15795388D01*
X44538095Y15747769D01*
X44585714Y15652531D01*
X44585714Y15414436D01*
X44538095Y15319198D01*
X44490476Y15271579D01*
X44395238Y15223960D01*
X44109523Y15223960D01*
X44014285Y15271579D01*
X43966666Y15319198D01*
%TO.C,C2*%
X48044966Y27785506D02*
X48006871Y27747411D01*
X47892585Y27709316D01*
X47816395Y27709316D01*
X47702109Y27747411D01*
X47625919Y27823601D01*
X47587823Y27899792D01*
X47549728Y28052173D01*
X47549728Y28166459D01*
X47587823Y28318840D01*
X47625919Y28395030D01*
X47702109Y28471220D01*
X47816395Y28509316D01*
X47892585Y28509316D01*
X48006871Y28471220D01*
X48044966Y28433125D01*
X48349728Y28433125D02*
X48387823Y28471220D01*
X48464014Y28509316D01*
X48654490Y28509316D01*
X48730680Y28471220D01*
X48768776Y28433125D01*
X48806871Y28356935D01*
X48806871Y28280744D01*
X48768776Y28166459D01*
X48311633Y27709316D01*
X48806871Y27709316D01*
%TO.C,C1*%
X37163333Y32232858D02*
X37115714Y32185239D01*
X36972857Y32137620D01*
X36877619Y32137620D01*
X36734761Y32185239D01*
X36639523Y32280477D01*
X36591904Y32375715D01*
X36544285Y32566191D01*
X36544285Y32709048D01*
X36591904Y32899524D01*
X36639523Y32994762D01*
X36734761Y33090000D01*
X36877619Y33137620D01*
X36972857Y33137620D01*
X37115714Y33090000D01*
X37163333Y33042381D01*
X38115714Y32137620D02*
X37544285Y32137620D01*
X37830000Y32137620D02*
X37830000Y33137620D01*
X37734761Y32994762D01*
X37639523Y32899524D01*
X37544285Y32851905D01*
%TD*%
M02*
