%TF.GenerationSoftware,KiCad,Pcbnew,5.1.6+dfsg1-1~bpo10+1*%
%TF.CreationDate,2021-04-22T00:57:50+03:00*%
%TF.ProjectId,controller,636f6e74-726f-46c6-9c65-722e6b696361,rev?*%
%TF.SameCoordinates,PX3cfccb0PYa197300*%
%TF.FileFunction,Legend,Bot*%
%TF.FilePolarity,Positive*%
%FSLAX46Y46*%
G04 Gerber Fmt 4.6, Leading zero omitted, Abs format (unit mm)*
G04 Created by KiCad (PCBNEW 5.1.6+dfsg1-1~bpo10+1) date 2021-04-22 00:57:50*
%MOMM*%
%LPD*%
G01*
G04 APERTURE LIST*
%ADD10C,0.150000*%
%ADD11C,0.120000*%
G04 APERTURE END LIST*
D10*
X51382564Y30307715D02*
X51382564Y29812477D01*
X51687326Y30079143D01*
X51687326Y29964858D01*
X51725421Y29888667D01*
X51763517Y29850572D01*
X51839707Y29812477D01*
X52030183Y29812477D01*
X52106374Y29850572D01*
X52144469Y29888667D01*
X52182564Y29964858D01*
X52182564Y30193429D01*
X52144469Y30269620D01*
X52106374Y30307715D01*
X52106374Y29469620D02*
X52144469Y29431524D01*
X52182564Y29469620D01*
X52144469Y29507715D01*
X52106374Y29469620D01*
X52182564Y29469620D01*
X51382564Y29164858D02*
X51382564Y28669620D01*
X51687326Y28936286D01*
X51687326Y28822000D01*
X51725421Y28745810D01*
X51763517Y28707715D01*
X51839707Y28669620D01*
X52030183Y28669620D01*
X52106374Y28707715D01*
X52144469Y28745810D01*
X52182564Y28822000D01*
X52182564Y29050572D01*
X52144469Y29126762D01*
X52106374Y29164858D01*
X51382564Y28441048D02*
X52182564Y28174381D01*
X51382564Y27907715D01*
X50107796Y35310800D02*
X50183986Y35348896D01*
X50298272Y35348896D01*
X50412558Y35310800D01*
X50488748Y35234610D01*
X50526843Y35158420D01*
X50564939Y35006039D01*
X50564939Y34891753D01*
X50526843Y34739372D01*
X50488748Y34663181D01*
X50412558Y34586991D01*
X50298272Y34548896D01*
X50222081Y34548896D01*
X50107796Y34586991D01*
X50069700Y34625086D01*
X50069700Y34891753D01*
X50222081Y34891753D01*
X49726843Y34548896D02*
X49726843Y35348896D01*
X49422081Y35348896D01*
X49345891Y35310800D01*
X49307796Y35272705D01*
X49269700Y35196515D01*
X49269700Y35082229D01*
X49307796Y35006039D01*
X49345891Y34967943D01*
X49422081Y34929848D01*
X49726843Y34929848D01*
X48926843Y34548896D02*
X48926843Y35348896D01*
X48393510Y35348896D02*
X48241129Y35348896D01*
X48164939Y35310800D01*
X48088748Y35234610D01*
X48050653Y35082229D01*
X48050653Y34815562D01*
X48088748Y34663181D01*
X48164939Y34586991D01*
X48241129Y34548896D01*
X48393510Y34548896D01*
X48469700Y34586991D01*
X48545891Y34663181D01*
X48583986Y34815562D01*
X48583986Y35082229D01*
X48545891Y35234610D01*
X48469700Y35310800D01*
X48393510Y35348896D01*
X50526843Y33617943D02*
X50260177Y33617943D01*
X50145891Y33198896D02*
X50526843Y33198896D01*
X50526843Y33998896D01*
X50145891Y33998896D01*
X49879224Y33998896D02*
X49345891Y33198896D01*
X49345891Y33998896D02*
X49879224Y33198896D01*
X49041129Y33198896D02*
X49041129Y33998896D01*
X48736367Y33998896D01*
X48660177Y33960800D01*
X48622081Y33922705D01*
X48583986Y33846515D01*
X48583986Y33732229D01*
X48622081Y33656039D01*
X48660177Y33617943D01*
X48736367Y33579848D01*
X49041129Y33579848D01*
X48279224Y33427467D02*
X47898272Y33427467D01*
X48355415Y33198896D02*
X48088748Y33998896D01*
X47822081Y33198896D01*
X47555415Y33198896D02*
X47555415Y33998896D01*
X47098272Y33198896D01*
X47098272Y33998896D01*
X46755415Y33236991D02*
X46641129Y33198896D01*
X46450653Y33198896D01*
X46374462Y33236991D01*
X46336367Y33275086D01*
X46298272Y33351277D01*
X46298272Y33427467D01*
X46336367Y33503658D01*
X46374462Y33541753D01*
X46450653Y33579848D01*
X46603034Y33617943D01*
X46679224Y33656039D01*
X46717320Y33694134D01*
X46755415Y33770324D01*
X46755415Y33846515D01*
X46717320Y33922705D01*
X46679224Y33960800D01*
X46603034Y33998896D01*
X46412558Y33998896D01*
X46298272Y33960800D01*
X45955415Y33198896D02*
X45955415Y33998896D01*
X45422081Y33998896D02*
X45269700Y33998896D01*
X45193510Y33960800D01*
X45117320Y33884610D01*
X45079224Y33732229D01*
X45079224Y33465562D01*
X45117320Y33313181D01*
X45193510Y33236991D01*
X45269700Y33198896D01*
X45422081Y33198896D01*
X45498272Y33236991D01*
X45574462Y33313181D01*
X45612558Y33465562D01*
X45612558Y33732229D01*
X45574462Y33884610D01*
X45498272Y33960800D01*
X45422081Y33998896D01*
X44736367Y33198896D02*
X44736367Y33998896D01*
X44279224Y33198896D01*
X44279224Y33998896D01*
D11*
X23847640Y26953620D02*
X25092240Y27382880D01*
X26537500Y27547980D02*
X27782100Y27977240D01*
D10*
X27138217Y29233584D02*
X27138217Y28966918D01*
X27557264Y28852632D02*
X27557264Y29233584D01*
X26757264Y29233584D01*
X26757264Y28852632D01*
X27557264Y28509775D02*
X26757264Y28509775D01*
X27557264Y28052632D01*
X26757264Y28052632D01*
X24082644Y29502810D02*
X24082644Y29045667D01*
X24882644Y29274239D02*
X24082644Y29274239D01*
X24882644Y28321858D02*
X24501692Y28588524D01*
X24882644Y28779000D02*
X24082644Y28779000D01*
X24082644Y28474239D01*
X24120740Y28398048D01*
X24158835Y28359953D01*
X24235025Y28321858D01*
X24349311Y28321858D01*
X24425501Y28359953D01*
X24463597Y28398048D01*
X24501692Y28474239D01*
X24501692Y28779000D01*
X24120740Y27559953D02*
X24082644Y27636143D01*
X24082644Y27750429D01*
X24120740Y27864715D01*
X24196930Y27940905D01*
X24273120Y27979000D01*
X24425501Y28017096D01*
X24539787Y28017096D01*
X24692168Y27979000D01*
X24768359Y27940905D01*
X24844549Y27864715D01*
X24882644Y27750429D01*
X24882644Y27674239D01*
X24844549Y27559953D01*
X24806454Y27521858D01*
X24539787Y27521858D01*
X24539787Y27674239D01*
X29083900Y28748497D02*
X29045804Y28824687D01*
X29045804Y28938973D01*
X29083900Y29053259D01*
X29160090Y29129449D01*
X29236280Y29167544D01*
X29388661Y29205640D01*
X29502947Y29205640D01*
X29655328Y29167544D01*
X29731519Y29129449D01*
X29807709Y29053259D01*
X29845804Y28938973D01*
X29845804Y28862782D01*
X29807709Y28748497D01*
X29769614Y28710401D01*
X29502947Y28710401D01*
X29502947Y28862782D01*
X29845804Y28367544D02*
X29045804Y28367544D01*
X29845804Y27910401D01*
X29045804Y27910401D01*
X29845804Y27529449D02*
X29045804Y27529449D01*
X29045804Y27338973D01*
X29083900Y27224687D01*
X29160090Y27148497D01*
X29236280Y27110401D01*
X29388661Y27072306D01*
X29502947Y27072306D01*
X29655328Y27110401D01*
X29731519Y27148497D01*
X29807709Y27224687D01*
X29845804Y27338973D01*
X29845804Y27529449D01*
X21700124Y28883112D02*
X21700124Y29264064D01*
X22081077Y29302160D01*
X22042981Y29264064D01*
X22004886Y29187874D01*
X22004886Y28997398D01*
X22042981Y28921207D01*
X22081077Y28883112D01*
X22157267Y28845017D01*
X22347743Y28845017D01*
X22423934Y28883112D01*
X22462029Y28921207D01*
X22500124Y28997398D01*
X22500124Y29187874D01*
X22462029Y29264064D01*
X22423934Y29302160D01*
X21700124Y28616445D02*
X22500124Y28349779D01*
X21700124Y28083112D01*
X24882644Y26579284D02*
X24082644Y26579284D01*
X24082644Y26274522D01*
X24120740Y26198332D01*
X24158835Y26160237D01*
X24235025Y26122141D01*
X24349311Y26122141D01*
X24425501Y26160237D01*
X24463597Y26198332D01*
X24501692Y26274522D01*
X24501692Y26579284D01*
X24463597Y25512618D02*
X24501692Y25398332D01*
X24539787Y25360237D01*
X24615978Y25322141D01*
X24730263Y25322141D01*
X24806454Y25360237D01*
X24844549Y25398332D01*
X24882644Y25474522D01*
X24882644Y25779284D01*
X24082644Y25779284D01*
X24082644Y25512618D01*
X24120740Y25436427D01*
X24158835Y25398332D01*
X24235025Y25360237D01*
X24311216Y25360237D01*
X24387406Y25398332D01*
X24425501Y25436427D01*
X24463597Y25512618D01*
X24463597Y25779284D01*
X24082644Y24598332D02*
X24082644Y24979284D01*
X24463597Y25017380D01*
X24425501Y24979284D01*
X24387406Y24903094D01*
X24387406Y24712618D01*
X24425501Y24636427D01*
X24463597Y24598332D01*
X24539787Y24560237D01*
X24730263Y24560237D01*
X24806454Y24598332D01*
X24844549Y24636427D01*
X24882644Y24712618D01*
X24882644Y24903094D01*
X24844549Y24979284D01*
X24806454Y25017380D01*
X27557264Y27102524D02*
X26757264Y27102524D01*
X26757264Y26797762D01*
X26795360Y26721572D01*
X26833455Y26683477D01*
X26909645Y26645381D01*
X27023931Y26645381D01*
X27100121Y26683477D01*
X27138217Y26721572D01*
X27176312Y26797762D01*
X27176312Y27102524D01*
X27481074Y25845381D02*
X27519169Y25883477D01*
X27557264Y25997762D01*
X27557264Y26073953D01*
X27519169Y26188239D01*
X27442979Y26264429D01*
X27366788Y26302524D01*
X27214407Y26340620D01*
X27100121Y26340620D01*
X26947740Y26302524D01*
X26871550Y26264429D01*
X26795360Y26188239D01*
X26757264Y26073953D01*
X26757264Y25997762D01*
X26795360Y25883477D01*
X26833455Y25845381D01*
X27557264Y25083477D02*
X27557264Y25540620D01*
X27557264Y25312048D02*
X26757264Y25312048D01*
X26871550Y25388239D01*
X26947740Y25464429D01*
X26985836Y25540620D01*
X26757264Y24816810D02*
X26757264Y24321572D01*
X27062026Y24588239D01*
X27062026Y24473953D01*
X27100121Y24397762D01*
X27138217Y24359667D01*
X27214407Y24321572D01*
X27404883Y24321572D01*
X27481074Y24359667D01*
X27519169Y24397762D01*
X27557264Y24473953D01*
X27557264Y24702524D01*
X27519169Y24778715D01*
X27481074Y24816810D01*
X54402624Y28635081D02*
X54402624Y29016034D01*
X54783577Y29054129D01*
X54745481Y29016034D01*
X54707386Y28939843D01*
X54707386Y28749367D01*
X54745481Y28673177D01*
X54783577Y28635081D01*
X54859767Y28596986D01*
X55050243Y28596986D01*
X55126434Y28635081D01*
X55164529Y28673177D01*
X55202624Y28749367D01*
X55202624Y28939843D01*
X55164529Y29016034D01*
X55126434Y29054129D01*
X54402624Y28368415D02*
X55202624Y28101748D01*
X54402624Y27835081D01*
X58225320Y28675664D02*
X58187224Y28751855D01*
X58187224Y28866140D01*
X58225320Y28980426D01*
X58301510Y29056617D01*
X58377700Y29094712D01*
X58530081Y29132807D01*
X58644367Y29132807D01*
X58796748Y29094712D01*
X58872939Y29056617D01*
X58949129Y28980426D01*
X58987224Y28866140D01*
X58987224Y28789950D01*
X58949129Y28675664D01*
X58911034Y28637569D01*
X58644367Y28637569D01*
X58644367Y28789950D01*
X58987224Y28294712D02*
X58187224Y28294712D01*
X58987224Y27837569D01*
X58187224Y27837569D01*
X58987224Y27456617D02*
X58187224Y27456617D01*
X58187224Y27266140D01*
X58225320Y27151855D01*
X58301510Y27075664D01*
X58377700Y27037569D01*
X58530081Y26999474D01*
X58644367Y26999474D01*
X58796748Y27037569D01*
X58872939Y27075664D01*
X58949129Y27151855D01*
X58987224Y27266140D01*
X58987224Y27456617D01*
X57191444Y29090942D02*
X56391444Y29090942D01*
X56391444Y28900466D01*
X56429540Y28786180D01*
X56505730Y28709990D01*
X56581920Y28671895D01*
X56734301Y28633800D01*
X56848587Y28633800D01*
X57000968Y28671895D01*
X57077159Y28709990D01*
X57153349Y28786180D01*
X57191444Y28900466D01*
X57191444Y29090942D01*
X56886682Y28290942D02*
X56886682Y27681419D01*
X57191444Y27986180D02*
X56581920Y27986180D01*
X61230044Y29073162D02*
X60430044Y29073162D01*
X60430044Y28882686D01*
X60468140Y28768400D01*
X60544330Y28692210D01*
X60620520Y28654115D01*
X60772901Y28616020D01*
X60887187Y28616020D01*
X61039568Y28654115D01*
X61115759Y28692210D01*
X61191949Y28768400D01*
X61230044Y28882686D01*
X61230044Y29073162D01*
X60925282Y28273162D02*
X60925282Y27663639D01*
X50407104Y30302644D02*
X49607104Y30302644D01*
X49607104Y29997882D01*
X49645200Y29921692D01*
X49683295Y29883597D01*
X49759485Y29845501D01*
X49873771Y29845501D01*
X49949961Y29883597D01*
X49988057Y29921692D01*
X50026152Y29997882D01*
X50026152Y30302644D01*
X49988057Y29235978D02*
X50026152Y29121692D01*
X50064247Y29083597D01*
X50140438Y29045501D01*
X50254723Y29045501D01*
X50330914Y29083597D01*
X50369009Y29121692D01*
X50407104Y29197882D01*
X50407104Y29502644D01*
X49607104Y29502644D01*
X49607104Y29235978D01*
X49645200Y29159787D01*
X49683295Y29121692D01*
X49759485Y29083597D01*
X49835676Y29083597D01*
X49911866Y29121692D01*
X49949961Y29159787D01*
X49988057Y29235978D01*
X49988057Y29502644D01*
X49873771Y28359787D02*
X50407104Y28359787D01*
X49569009Y28550263D02*
X50140438Y28740740D01*
X50140438Y28245501D01*
X49137104Y30302644D02*
X48337104Y30302644D01*
X48337104Y29997882D01*
X48375200Y29921692D01*
X48413295Y29883597D01*
X48489485Y29845501D01*
X48603771Y29845501D01*
X48679961Y29883597D01*
X48718057Y29921692D01*
X48756152Y29997882D01*
X48756152Y30302644D01*
X48718057Y29235978D02*
X48756152Y29121692D01*
X48794247Y29083597D01*
X48870438Y29045501D01*
X48984723Y29045501D01*
X49060914Y29083597D01*
X49099009Y29121692D01*
X49137104Y29197882D01*
X49137104Y29502644D01*
X48337104Y29502644D01*
X48337104Y29235978D01*
X48375200Y29159787D01*
X48413295Y29121692D01*
X48489485Y29083597D01*
X48565676Y29083597D01*
X48641866Y29121692D01*
X48679961Y29159787D01*
X48718057Y29235978D01*
X48718057Y29502644D01*
X48337104Y28778835D02*
X48337104Y28283597D01*
X48641866Y28550263D01*
X48641866Y28435978D01*
X48679961Y28359787D01*
X48718057Y28321692D01*
X48794247Y28283597D01*
X48984723Y28283597D01*
X49060914Y28321692D01*
X49099009Y28359787D01*
X49137104Y28435978D01*
X49137104Y28664549D01*
X49099009Y28740740D01*
X49060914Y28778835D01*
X47105200Y29883597D02*
X47067104Y29959787D01*
X47067104Y30074073D01*
X47105200Y30188359D01*
X47181390Y30264549D01*
X47257580Y30302644D01*
X47409961Y30340740D01*
X47524247Y30340740D01*
X47676628Y30302644D01*
X47752819Y30264549D01*
X47829009Y30188359D01*
X47867104Y30074073D01*
X47867104Y29997882D01*
X47829009Y29883597D01*
X47790914Y29845501D01*
X47524247Y29845501D01*
X47524247Y29997882D01*
X47867104Y29502644D02*
X47067104Y29502644D01*
X47867104Y29045501D01*
X47067104Y29045501D01*
X47867104Y28664549D02*
X47067104Y28664549D01*
X47067104Y28474073D01*
X47105200Y28359787D01*
X47181390Y28283597D01*
X47257580Y28245501D01*
X47409961Y28207406D01*
X47524247Y28207406D01*
X47676628Y28245501D01*
X47752819Y28283597D01*
X47829009Y28359787D01*
X47867104Y28474073D01*
X47867104Y28664549D01*
X46597104Y30302644D02*
X45797104Y30302644D01*
X45797104Y29997882D01*
X45835200Y29921692D01*
X45873295Y29883597D01*
X45949485Y29845501D01*
X46063771Y29845501D01*
X46139961Y29883597D01*
X46178057Y29921692D01*
X46216152Y29997882D01*
X46216152Y30302644D01*
X46597104Y29502644D02*
X45797104Y29502644D01*
X45797104Y29312168D01*
X45835200Y29197882D01*
X45911390Y29121692D01*
X45987580Y29083597D01*
X46139961Y29045501D01*
X46254247Y29045501D01*
X46406628Y29083597D01*
X46482819Y29121692D01*
X46559009Y29197882D01*
X46597104Y29312168D01*
X46597104Y29502644D01*
X45873295Y28740740D02*
X45835200Y28702644D01*
X45797104Y28626454D01*
X45797104Y28435978D01*
X45835200Y28359787D01*
X45873295Y28321692D01*
X45949485Y28283597D01*
X46025676Y28283597D01*
X46139961Y28321692D01*
X46597104Y28778835D01*
X46597104Y28283597D01*
X45327104Y30302644D02*
X44527104Y30302644D01*
X44527104Y29997882D01*
X44565200Y29921692D01*
X44603295Y29883597D01*
X44679485Y29845501D01*
X44793771Y29845501D01*
X44869961Y29883597D01*
X44908057Y29921692D01*
X44946152Y29997882D01*
X44946152Y30302644D01*
X45098533Y29540740D02*
X45098533Y29159787D01*
X45327104Y29616930D02*
X44527104Y29350263D01*
X45327104Y29083597D01*
X45327104Y28397882D02*
X45327104Y28855025D01*
X45327104Y28626454D02*
X44527104Y28626454D01*
X44641390Y28702644D01*
X44717580Y28778835D01*
X44755676Y28855025D01*
X44793771Y27712168D02*
X45327104Y27712168D01*
X44489009Y27902644D02*
X45060438Y28093120D01*
X45060438Y27597882D01*
X44057104Y30302644D02*
X43257104Y30302644D01*
X43257104Y29997882D01*
X43295200Y29921692D01*
X43333295Y29883597D01*
X43409485Y29845501D01*
X43523771Y29845501D01*
X43599961Y29883597D01*
X43638057Y29921692D01*
X43676152Y29997882D01*
X43676152Y30302644D01*
X43828533Y29540740D02*
X43828533Y29159787D01*
X44057104Y29616930D02*
X43257104Y29350263D01*
X44057104Y29083597D01*
X44057104Y28397882D02*
X44057104Y28855025D01*
X44057104Y28626454D02*
X43257104Y28626454D01*
X43371390Y28702644D01*
X43447580Y28778835D01*
X43485676Y28855025D01*
X43257104Y27674073D02*
X43257104Y28055025D01*
X43638057Y28093120D01*
X43599961Y28055025D01*
X43561866Y27978835D01*
X43561866Y27788359D01*
X43599961Y27712168D01*
X43638057Y27674073D01*
X43714247Y27635978D01*
X43904723Y27635978D01*
X43980914Y27674073D01*
X44019009Y27712168D01*
X44057104Y27788359D01*
X44057104Y27978835D01*
X44019009Y28055025D01*
X43980914Y28093120D01*
X18981590Y30930359D02*
X18838733Y30882740D01*
X18600638Y30882740D01*
X18505400Y30930359D01*
X18457780Y30977978D01*
X18410161Y31073216D01*
X18410161Y31168454D01*
X18457780Y31263692D01*
X18505400Y31311311D01*
X18600638Y31358930D01*
X18791114Y31406549D01*
X18886352Y31454168D01*
X18933971Y31501787D01*
X18981590Y31597025D01*
X18981590Y31692263D01*
X18933971Y31787501D01*
X18886352Y31835120D01*
X18791114Y31882740D01*
X18553019Y31882740D01*
X18410161Y31835120D01*
X17791114Y31882740D02*
X17600638Y31882740D01*
X17505400Y31835120D01*
X17410161Y31739882D01*
X17362542Y31549406D01*
X17362542Y31216073D01*
X17410161Y31025597D01*
X17505400Y30930359D01*
X17600638Y30882740D01*
X17791114Y30882740D01*
X17886352Y30930359D01*
X17981590Y31025597D01*
X18029209Y31216073D01*
X18029209Y31549406D01*
X17981590Y31739882D01*
X17886352Y31835120D01*
X17791114Y31882740D01*
X16457780Y30882740D02*
X16933971Y30882740D01*
X16933971Y31882740D01*
X16124447Y31406549D02*
X15791114Y31406549D01*
X15648257Y30882740D02*
X16124447Y30882740D01*
X16124447Y31882740D01*
X15648257Y31882740D01*
X15219685Y30882740D02*
X15219685Y31882740D01*
X14648257Y30882740D01*
X14648257Y31882740D01*
X13981590Y31882740D02*
X13791114Y31882740D01*
X13695876Y31835120D01*
X13600638Y31739882D01*
X13553019Y31549406D01*
X13553019Y31216073D01*
X13600638Y31025597D01*
X13695876Y30930359D01*
X13791114Y30882740D01*
X13981590Y30882740D01*
X14076828Y30930359D01*
X14172066Y31025597D01*
X14219685Y31216073D01*
X14219685Y31549406D01*
X14172066Y31739882D01*
X14076828Y31835120D01*
X13981590Y31882740D01*
X13124447Y30882740D02*
X13124447Y31882740D01*
X12648257Y30882740D02*
X12648257Y31882740D01*
X12410161Y31882740D01*
X12267304Y31835120D01*
X12172066Y31739882D01*
X12124447Y31644644D01*
X12076828Y31454168D01*
X12076828Y31311311D01*
X12124447Y31120835D01*
X12172066Y31025597D01*
X12267304Y30930359D01*
X12410161Y30882740D01*
X12648257Y30882740D01*
X10886352Y31406549D02*
X10553019Y31406549D01*
X10410161Y30882740D02*
X10886352Y30882740D01*
X10886352Y31882740D01*
X10410161Y31882740D01*
X10076828Y31882740D02*
X9410161Y30882740D01*
X9410161Y31882740D02*
X10076828Y30882740D01*
X9029209Y30882740D02*
X9029209Y31882740D01*
X8648257Y31882740D01*
X8553019Y31835120D01*
X8505400Y31787501D01*
X8457780Y31692263D01*
X8457780Y31549406D01*
X8505400Y31454168D01*
X8553019Y31406549D01*
X8648257Y31358930D01*
X9029209Y31358930D01*
X8076828Y31168454D02*
X7600638Y31168454D01*
X8172066Y30882740D02*
X7838733Y31882740D01*
X7505400Y30882740D01*
X7172066Y30882740D02*
X7172066Y31882740D01*
X6600638Y30882740D01*
X6600638Y31882740D01*
X6172066Y30930359D02*
X6029209Y30882740D01*
X5791114Y30882740D01*
X5695876Y30930359D01*
X5648257Y30977978D01*
X5600638Y31073216D01*
X5600638Y31168454D01*
X5648257Y31263692D01*
X5695876Y31311311D01*
X5791114Y31358930D01*
X5981590Y31406549D01*
X6076828Y31454168D01*
X6124447Y31501787D01*
X6172066Y31597025D01*
X6172066Y31692263D01*
X6124447Y31787501D01*
X6076828Y31835120D01*
X5981590Y31882740D01*
X5743495Y31882740D01*
X5600638Y31835120D01*
X5172066Y30882740D02*
X5172066Y31882740D01*
X4505400Y31882740D02*
X4314923Y31882740D01*
X4219685Y31835120D01*
X4124447Y31739882D01*
X4076828Y31549406D01*
X4076828Y31216073D01*
X4124447Y31025597D01*
X4219685Y30930359D01*
X4314923Y30882740D01*
X4505400Y30882740D01*
X4600638Y30930359D01*
X4695876Y31025597D01*
X4743495Y31216073D01*
X4743495Y31549406D01*
X4695876Y31739882D01*
X4600638Y31835120D01*
X4505400Y31882740D01*
X3648257Y30882740D02*
X3648257Y31882740D01*
X3076828Y30882740D01*
X3076828Y31882740D01*
X66887224Y32262260D02*
X66887224Y31452736D01*
X66839605Y31357498D01*
X66791986Y31309879D01*
X66696748Y31262260D01*
X66506272Y31262260D01*
X66411034Y31309879D01*
X66363415Y31357498D01*
X66315796Y31452736D01*
X66315796Y32262260D01*
X65887224Y31309879D02*
X65744367Y31262260D01*
X65506272Y31262260D01*
X65411034Y31309879D01*
X65363415Y31357498D01*
X65315796Y31452736D01*
X65315796Y31547974D01*
X65363415Y31643212D01*
X65411034Y31690831D01*
X65506272Y31738450D01*
X65696748Y31786069D01*
X65791986Y31833688D01*
X65839605Y31881307D01*
X65887224Y31976545D01*
X65887224Y32071783D01*
X65839605Y32167021D01*
X65791986Y32214640D01*
X65696748Y32262260D01*
X65458653Y32262260D01*
X65315796Y32214640D01*
X64553891Y31786069D02*
X64411034Y31738450D01*
X64363415Y31690831D01*
X64315796Y31595593D01*
X64315796Y31452736D01*
X64363415Y31357498D01*
X64411034Y31309879D01*
X64506272Y31262260D01*
X64887224Y31262260D01*
X64887224Y32262260D01*
X64553891Y32262260D01*
X64458653Y32214640D01*
X64411034Y32167021D01*
X64363415Y32071783D01*
X64363415Y31976545D01*
X64411034Y31881307D01*
X64458653Y31833688D01*
X64553891Y31786069D01*
X64887224Y31786069D01*
D11*
%TO.C,J3*%
X21707480Y31144920D02*
X21707480Y29929920D01*
X21767480Y35104920D02*
X21767480Y37364920D01*
X22267480Y35104920D02*
X22267480Y37364920D01*
X28867480Y33504920D02*
X29867480Y33504920D01*
X28867480Y35104920D02*
X28867480Y33504920D01*
X29867480Y35104920D02*
X28867480Y35104920D01*
X29867480Y33504920D02*
X29867480Y35104920D01*
X22267480Y33504920D02*
X21267480Y33504920D01*
X22267480Y35104920D02*
X22267480Y33504920D01*
X21267480Y35104920D02*
X22267480Y35104920D01*
X21267480Y33504920D02*
X21267480Y35104920D01*
X30627480Y31144920D02*
X29707480Y31144920D01*
X20507480Y31144920D02*
X21427480Y31144920D01*
X28067480Y33004920D02*
X28067480Y37364920D01*
X23067480Y33004920D02*
X28067480Y33004920D01*
X23067480Y37364920D02*
X23067480Y33004920D01*
X29707480Y31144920D02*
X29427480Y31144920D01*
X29707480Y29544920D02*
X29707480Y31144920D01*
X30627480Y29544920D02*
X29707480Y29544920D01*
X30627480Y37364920D02*
X30627480Y29544920D01*
X20507480Y37364920D02*
X30627480Y37364920D01*
X20507480Y29544920D02*
X20507480Y37364920D01*
X21427480Y29544920D02*
X20507480Y29544920D01*
X21427480Y31144920D02*
X21427480Y29544920D01*
X21707480Y31144920D02*
X21427480Y31144920D01*
%TO.C,J2*%
X53980000Y31130000D02*
X53980000Y29915000D01*
X54040000Y35090000D02*
X54040000Y37350000D01*
X54540000Y35090000D02*
X54540000Y37350000D01*
X61140000Y33490000D02*
X62140000Y33490000D01*
X61140000Y35090000D02*
X61140000Y33490000D01*
X62140000Y35090000D02*
X61140000Y35090000D01*
X62140000Y33490000D02*
X62140000Y35090000D01*
X54540000Y33490000D02*
X53540000Y33490000D01*
X54540000Y35090000D02*
X54540000Y33490000D01*
X53540000Y35090000D02*
X54540000Y35090000D01*
X53540000Y33490000D02*
X53540000Y35090000D01*
X62900000Y31130000D02*
X61980000Y31130000D01*
X52780000Y31130000D02*
X53700000Y31130000D01*
X60340000Y32990000D02*
X60340000Y37350000D01*
X55340000Y32990000D02*
X60340000Y32990000D01*
X55340000Y37350000D02*
X55340000Y32990000D01*
X61980000Y31130000D02*
X61700000Y31130000D01*
X61980000Y29530000D02*
X61980000Y31130000D01*
X62900000Y29530000D02*
X61980000Y29530000D01*
X62900000Y37350000D02*
X62900000Y29530000D01*
X52780000Y37350000D02*
X62900000Y37350000D01*
X52780000Y29530000D02*
X52780000Y37350000D01*
X53700000Y29530000D02*
X52780000Y29530000D01*
X53700000Y31130000D02*
X53700000Y29530000D01*
X53980000Y31130000D02*
X53700000Y31130000D01*
%TO.C,J6*%
D10*
X45687153Y35624160D02*
X45687153Y34909874D01*
X45734772Y34767017D01*
X45830010Y34671779D01*
X45972867Y34624160D01*
X46068105Y34624160D01*
X44782391Y35624160D02*
X44972867Y35624160D01*
X45068105Y35576540D01*
X45115724Y35528921D01*
X45210962Y35386064D01*
X45258581Y35195588D01*
X45258581Y34814636D01*
X45210962Y34719398D01*
X45163343Y34671779D01*
X45068105Y34624160D01*
X44877629Y34624160D01*
X44782391Y34671779D01*
X44734772Y34719398D01*
X44687153Y34814636D01*
X44687153Y35052731D01*
X44734772Y35147969D01*
X44782391Y35195588D01*
X44877629Y35243207D01*
X45068105Y35243207D01*
X45163343Y35195588D01*
X45210962Y35147969D01*
X45258581Y35052731D01*
%TO.C,J3*%
X18491373Y34483700D02*
X18491373Y33769414D01*
X18538992Y33626557D01*
X18634230Y33531319D01*
X18777087Y33483700D01*
X18872325Y33483700D01*
X18110420Y34483700D02*
X17491373Y34483700D01*
X17824706Y34102747D01*
X17681849Y34102747D01*
X17586611Y34055128D01*
X17538992Y34007509D01*
X17491373Y33912271D01*
X17491373Y33674176D01*
X17538992Y33578938D01*
X17586611Y33531319D01*
X17681849Y33483700D01*
X17967563Y33483700D01*
X18062801Y33531319D01*
X18110420Y33578938D01*
%TO.C,J2*%
X66448653Y34362260D02*
X66448653Y33647974D01*
X66496272Y33505117D01*
X66591510Y33409879D01*
X66734367Y33362260D01*
X66829605Y33362260D01*
X66020081Y34267021D02*
X65972462Y34314640D01*
X65877224Y34362260D01*
X65639129Y34362260D01*
X65543891Y34314640D01*
X65496272Y34267021D01*
X65448653Y34171783D01*
X65448653Y34076545D01*
X65496272Y33933688D01*
X66067700Y33362260D01*
X65448653Y33362260D01*
%TD*%
M02*
